G04 #@! TF.GenerationSoftware,KiCad,Pcbnew,(5.1.4)-1*
G04 #@! TF.CreationDate,2019-08-25T23:51:43-07:00*
G04 #@! TF.ProjectId,ruddblink,72756464-626c-4696-9e6b-2e6b69636164,A*
G04 #@! TF.SameCoordinates,Original*
G04 #@! TF.FileFunction,Soldermask,Top*
G04 #@! TF.FilePolarity,Negative*
%FSLAX46Y46*%
G04 Gerber Fmt 4.6, Leading zero omitted, Abs format (unit mm)*
G04 Created by KiCad (PCBNEW (5.1.4)-1) date 2019-08-25 23:51:43*
%MOMM*%
%LPD*%
G04 APERTURE LIST*
%ADD10C,0.010000*%
%ADD11C,0.100000*%
G04 APERTURE END LIST*
D10*
G36*
X150583274Y-103391556D02*
G01*
X150603776Y-103495009D01*
X150622435Y-103645131D01*
X150630704Y-103740062D01*
X150642747Y-103930075D01*
X150642737Y-104064198D01*
X150627505Y-104169345D01*
X150593883Y-104272430D01*
X150558092Y-104356911D01*
X150415289Y-104585755D01*
X150218444Y-104764951D01*
X149983933Y-104881878D01*
X149831366Y-104916973D01*
X149617531Y-104945340D01*
X149718987Y-105106056D01*
X149809076Y-105321324D01*
X149820406Y-105545729D01*
X149753479Y-105763240D01*
X149695524Y-105857985D01*
X149613340Y-105998337D01*
X149576321Y-106142700D01*
X149583746Y-106310907D01*
X149634892Y-106522794D01*
X149667634Y-106624822D01*
X149709151Y-106755983D01*
X149735072Y-106868067D01*
X149747343Y-106984434D01*
X149747908Y-107128444D01*
X149738714Y-107323460D01*
X149733251Y-107412853D01*
X149719468Y-107672681D01*
X149708059Y-107963260D01*
X149700595Y-108240620D01*
X149698682Y-108379780D01*
X149699427Y-108596310D01*
X149707325Y-108753107D01*
X149725716Y-108873628D01*
X149757937Y-108981331D01*
X149798270Y-109079362D01*
X149869892Y-109226706D01*
X149945181Y-109359356D01*
X149988702Y-109423164D01*
X150072232Y-109511595D01*
X150174866Y-109597717D01*
X150270023Y-109661122D01*
X150325726Y-109681923D01*
X150351640Y-109641070D01*
X150373762Y-109519774D01*
X150391914Y-109320792D01*
X150405914Y-109046882D01*
X150415582Y-108700799D01*
X150420738Y-108285303D01*
X150421075Y-108224820D01*
X150425800Y-107246295D01*
X150585517Y-106907467D01*
X150668293Y-106739331D01*
X150737476Y-106627174D01*
X150811535Y-106550118D01*
X150908941Y-106487285D01*
X150996754Y-106442604D01*
X151015439Y-106470043D01*
X151026597Y-106556989D01*
X151027983Y-106610028D01*
X151048647Y-106764393D01*
X151113743Y-106957668D01*
X151193043Y-107133990D01*
X151267450Y-107283847D01*
X151328917Y-107400210D01*
X151368410Y-107466329D01*
X151377073Y-107475312D01*
X151400110Y-107439621D01*
X151438158Y-107348394D01*
X151463647Y-107277525D01*
X151500236Y-107184491D01*
X151546925Y-107109476D01*
X151618879Y-107037420D01*
X151731263Y-106953264D01*
X151899240Y-106841945D01*
X151907826Y-106836394D01*
X152162431Y-106656104D01*
X152345665Y-106491152D01*
X152416111Y-106405699D01*
X152547819Y-106218348D01*
X152573089Y-106503305D01*
X152600229Y-106686538D01*
X152644672Y-106869419D01*
X152685350Y-106984259D01*
X152760810Y-107229746D01*
X152781091Y-107484332D01*
X152745727Y-107720697D01*
X152699881Y-107837997D01*
X152647149Y-107944347D01*
X152614945Y-108015426D01*
X152610278Y-108029797D01*
X152647512Y-108025933D01*
X152748298Y-108002689D01*
X152896265Y-107964085D01*
X153037082Y-107924994D01*
X153249098Y-107868067D01*
X153469240Y-107814611D01*
X153681822Y-107767769D01*
X153871157Y-107730689D01*
X154021559Y-107706516D01*
X154117342Y-107698395D01*
X154142900Y-107703234D01*
X154123541Y-107737853D01*
X154055487Y-107812567D01*
X153952549Y-107912443D01*
X153931347Y-107931972D01*
X153757389Y-108118591D01*
X153584316Y-108362774D01*
X153461927Y-108568683D01*
X153344757Y-108772856D01*
X153237809Y-108945944D01*
X153128795Y-109104242D01*
X153005428Y-109264047D01*
X152855423Y-109441652D01*
X152666492Y-109653353D01*
X152537782Y-109794318D01*
X152326038Y-110036619D01*
X152169328Y-110248648D01*
X152057273Y-110451672D01*
X151979491Y-110666956D01*
X151925603Y-110915767D01*
X151898710Y-111103636D01*
X151842432Y-111420274D01*
X151748906Y-111727208D01*
X151685311Y-111889082D01*
X151612716Y-112056666D01*
X151545586Y-112188872D01*
X151469896Y-112305606D01*
X151371621Y-112426769D01*
X151236738Y-112572265D01*
X151118047Y-112694142D01*
X150904879Y-112899295D01*
X150668470Y-113107034D01*
X150424163Y-113305510D01*
X150187300Y-113482879D01*
X149973222Y-113627293D01*
X149797271Y-113726908D01*
X149756806Y-113745209D01*
X149648691Y-113780152D01*
X149483746Y-113821474D01*
X149287489Y-113863157D01*
X149147783Y-113888874D01*
X148697840Y-113966072D01*
X148347481Y-113828527D01*
X148150510Y-113744607D01*
X147947751Y-113643638D01*
X147728069Y-113518859D01*
X147480332Y-113363510D01*
X147193408Y-113170832D01*
X146856163Y-112934064D01*
X146754011Y-112860966D01*
X146504252Y-112682563D01*
X146313133Y-112548438D01*
X146172437Y-112453211D01*
X146073949Y-112391507D01*
X146009450Y-112357948D01*
X145970724Y-112347157D01*
X145968775Y-112347115D01*
X145953838Y-112382699D01*
X145955627Y-112461533D01*
X145972560Y-112526562D01*
X146017626Y-112575771D01*
X146108971Y-112622589D01*
X146239459Y-112671558D01*
X146357479Y-112717715D01*
X146461118Y-112771891D01*
X146566421Y-112846001D01*
X146689429Y-112951958D01*
X146846187Y-113101676D01*
X146929515Y-113184019D01*
X147111501Y-113369117D01*
X147241904Y-113513470D01*
X147331788Y-113631203D01*
X147392216Y-113736442D01*
X147425401Y-113817190D01*
X147471212Y-113946680D01*
X147506685Y-114046817D01*
X147519312Y-114082364D01*
X147501422Y-114137589D01*
X147454072Y-114175461D01*
X147386176Y-114193402D01*
X147293168Y-114177300D01*
X147152847Y-114123000D01*
X147137360Y-114116195D01*
X147011392Y-114061791D01*
X146918947Y-114024301D01*
X146883681Y-114012689D01*
X146868437Y-114048157D01*
X146864049Y-114108118D01*
X146896201Y-114197663D01*
X146984698Y-114317082D01*
X147051426Y-114387443D01*
X147182143Y-114543522D01*
X147241144Y-114680540D01*
X147228427Y-114792113D01*
X147143992Y-114871857D01*
X147051426Y-114903434D01*
X146953895Y-114906544D01*
X146821808Y-114876280D01*
X146638351Y-114808471D01*
X146593492Y-114789816D01*
X146260477Y-114649416D01*
X146203257Y-114351872D01*
X146171574Y-114207442D01*
X146140924Y-114101677D01*
X146117351Y-114054993D01*
X146115156Y-114054328D01*
X146083781Y-114089358D01*
X146031504Y-114181087D01*
X145971121Y-114306467D01*
X145908429Y-114436752D01*
X145856693Y-114505187D01*
X145804486Y-114509301D01*
X145740386Y-114446623D01*
X145652968Y-114314681D01*
X145599392Y-114226059D01*
X145459331Y-113991869D01*
X145491250Y-113533836D01*
X145501620Y-113334400D01*
X145503100Y-113173840D01*
X145495870Y-113068451D01*
X145485741Y-113036246D01*
X145459744Y-113041969D01*
X145448465Y-113118843D01*
X145448311Y-113132930D01*
X145426941Y-113249806D01*
X145372734Y-113391224D01*
X145338180Y-113457095D01*
X145228049Y-113645019D01*
X145140393Y-113506149D01*
X145097756Y-113425074D01*
X145071318Y-113331781D01*
X145057542Y-113204424D01*
X145052889Y-113021156D01*
X145052737Y-112964856D01*
X145050987Y-112774890D01*
X145043080Y-112648051D01*
X145025036Y-112564217D01*
X144992870Y-112503264D01*
X144951790Y-112454774D01*
X144876065Y-112382958D01*
X144822554Y-112347819D01*
X144818160Y-112347115D01*
X144759510Y-112368002D01*
X144664538Y-112419922D01*
X144558303Y-112486766D01*
X144465866Y-112552426D01*
X144412287Y-112600793D01*
X144407328Y-112611203D01*
X144429575Y-112704627D01*
X144491115Y-112852240D01*
X144584150Y-113039544D01*
X144700878Y-113252044D01*
X144833498Y-113475245D01*
X144974212Y-113694650D01*
X145049441Y-113804492D01*
X145229874Y-114064013D01*
X145367683Y-114272394D01*
X145469804Y-114445421D01*
X145543175Y-114598878D01*
X145594732Y-114748552D01*
X145631412Y-114910227D01*
X145660152Y-115099689D01*
X145676163Y-115230640D01*
X145704140Y-115470066D01*
X148029950Y-115470066D01*
X148029950Y-125882671D01*
X147920003Y-126099893D01*
X147774196Y-126347298D01*
X147598217Y-126582927D01*
X147412463Y-126781389D01*
X147292191Y-126881289D01*
X147097832Y-127000886D01*
X146829474Y-127135265D01*
X146494498Y-127281529D01*
X146100286Y-127436782D01*
X145654219Y-127598126D01*
X145163678Y-127762665D01*
X144636045Y-127927502D01*
X144594705Y-127939939D01*
X144197559Y-128061206D01*
X143872252Y-128165675D01*
X143609857Y-128256856D01*
X143401447Y-128338258D01*
X143238096Y-128413391D01*
X143110877Y-128485765D01*
X143010863Y-128558888D01*
X143002586Y-128565888D01*
X142901526Y-128646617D01*
X142824361Y-128697840D01*
X142797594Y-128707799D01*
X142745608Y-128689205D01*
X142639729Y-128643227D01*
X142500891Y-128579030D01*
X142471098Y-128564852D01*
X142038409Y-128383307D01*
X141595518Y-128251562D01*
X141110409Y-128160295D01*
X141055360Y-128152632D01*
X140580017Y-128085362D01*
X140170859Y-128019628D01*
X139810986Y-127951251D01*
X139483502Y-127876056D01*
X139171508Y-127789864D01*
X138858106Y-127688499D01*
X138526398Y-127567783D01*
X138245289Y-127457985D01*
X137755422Y-127240508D01*
X137340508Y-127007530D01*
X136992804Y-126753399D01*
X136704569Y-126472460D01*
X136469204Y-126160834D01*
X136288030Y-125879635D01*
X136267087Y-117053882D01*
X138252151Y-117053882D01*
X138295576Y-117091358D01*
X138395950Y-117147714D01*
X138532650Y-117211527D01*
X138550643Y-117219197D01*
X138817990Y-117348334D01*
X139013990Y-117482764D01*
X139150492Y-117631540D01*
X139201254Y-117716326D01*
X139281436Y-117830495D01*
X139401209Y-117954638D01*
X139490185Y-118028170D01*
X139633670Y-118148462D01*
X139766307Y-118285779D01*
X139872966Y-118421600D01*
X139938519Y-118537404D01*
X139951918Y-118593389D01*
X139983108Y-118660783D01*
X140059863Y-118739819D01*
X140076836Y-118752990D01*
X140170345Y-118850269D01*
X140201754Y-118941337D01*
X140233112Y-119030204D01*
X140319148Y-119150575D01*
X140391889Y-119230188D01*
X140494010Y-119337291D01*
X140548306Y-119413632D01*
X140566253Y-119486921D01*
X140559328Y-119584866D01*
X140554253Y-119622212D01*
X140510421Y-119839714D01*
X140438365Y-120028910D01*
X140328781Y-120201047D01*
X140172361Y-120367368D01*
X139959800Y-120539117D01*
X139681791Y-120727539D01*
X139593182Y-120783426D01*
X139440225Y-120876957D01*
X139337710Y-120931508D01*
X139266151Y-120953325D01*
X139206062Y-120948655D01*
X139145545Y-120926910D01*
X138977459Y-120866218D01*
X138848990Y-120850896D01*
X138733769Y-120886166D01*
X138605427Y-120977248D01*
X138522756Y-121050224D01*
X138372584Y-121204596D01*
X138296372Y-121325296D01*
X138294565Y-121411424D01*
X138326807Y-121444585D01*
X138386833Y-121441825D01*
X138472545Y-121400614D01*
X138550897Y-121363305D01*
X138575414Y-121379697D01*
X138542942Y-121437411D01*
X138494541Y-121486951D01*
X138418867Y-121582701D01*
X138417015Y-121655443D01*
X138480772Y-121696510D01*
X138601923Y-121697236D01*
X138678132Y-121680687D01*
X138776060Y-121657496D01*
X138817901Y-121670254D01*
X138827499Y-121731529D01*
X138827655Y-121759498D01*
X138857972Y-121875562D01*
X138909265Y-121923271D01*
X138972632Y-121941259D01*
X139030184Y-121906863D01*
X139083425Y-121841766D01*
X139146201Y-121762139D01*
X139186848Y-121742953D01*
X139232462Y-121777472D01*
X139253273Y-121799555D01*
X139348903Y-121863076D01*
X139432255Y-121882525D01*
X139497077Y-121870620D01*
X139539671Y-121824945D01*
X139566208Y-121730558D01*
X139582856Y-121572518D01*
X139587002Y-121507771D01*
X139597983Y-121320394D01*
X139886911Y-121179065D01*
X140107426Y-121079417D01*
X140281059Y-121026771D01*
X140430058Y-121021697D01*
X140576673Y-121064764D01*
X140743155Y-121156542D01*
X140813990Y-121202790D01*
X140999472Y-121335443D01*
X141194404Y-121489083D01*
X141383945Y-121650476D01*
X141553255Y-121806383D01*
X141687491Y-121943571D01*
X141771813Y-122048801D01*
X141782124Y-122066223D01*
X141813174Y-122141885D01*
X141806115Y-122194616D01*
X141751894Y-122227170D01*
X141641457Y-122242300D01*
X141465751Y-122242760D01*
X141235590Y-122232421D01*
X141027932Y-122221452D01*
X140886243Y-122217562D01*
X140793346Y-122223074D01*
X140732067Y-122240311D01*
X140685231Y-122271597D01*
X140642230Y-122312690D01*
X140569680Y-122415244D01*
X140538033Y-122545765D01*
X140546824Y-122718005D01*
X140595590Y-122945717D01*
X140618147Y-123027607D01*
X140681594Y-123282839D01*
X140703735Y-123476672D01*
X140681220Y-123621836D01*
X140610699Y-123731057D01*
X140488822Y-123817064D01*
X140399354Y-123858806D01*
X140197053Y-123912233D01*
X140009316Y-123905088D01*
X139852065Y-123842287D01*
X139741225Y-123728747D01*
X139705283Y-123644548D01*
X139647566Y-123502200D01*
X139562986Y-123369151D01*
X139468566Y-123266875D01*
X139381326Y-123216846D01*
X139364780Y-123214984D01*
X139270395Y-123233784D01*
X139157408Y-123279197D01*
X139153918Y-123280986D01*
X139071562Y-123335115D01*
X139061780Y-123379441D01*
X139072707Y-123393413D01*
X139113624Y-123451495D01*
X139092219Y-123495740D01*
X138999779Y-123538673D01*
X138962983Y-123551183D01*
X138772012Y-123629955D01*
X138652554Y-123715222D01*
X138607629Y-123802378D01*
X138640255Y-123886812D01*
X138708148Y-123940245D01*
X138781275Y-123993705D01*
X138816588Y-124060425D01*
X138827278Y-124170803D01*
X138827655Y-124215641D01*
X138830243Y-124337108D01*
X138846051Y-124395018D01*
X138887150Y-124409088D01*
X138942164Y-124402679D01*
X139039901Y-124391087D01*
X139189704Y-124377245D01*
X139360517Y-124364002D01*
X139374087Y-124363059D01*
X139544569Y-124355482D01*
X139680735Y-124363742D01*
X139816824Y-124393203D01*
X139987074Y-124449232D01*
X140035335Y-124466686D01*
X140201670Y-124526173D01*
X140314343Y-124559396D01*
X140397821Y-124568917D01*
X140476571Y-124557298D01*
X140575061Y-124527102D01*
X140583969Y-124524145D01*
X140752051Y-124483268D01*
X140933046Y-124474758D01*
X141072696Y-124484634D01*
X141269128Y-124495452D01*
X141425759Y-124479342D01*
X141561476Y-124440389D01*
X141766332Y-124367631D01*
X141749502Y-124103325D01*
X141744421Y-123947329D01*
X141760680Y-123836449D01*
X141810676Y-123758884D01*
X141906804Y-123702830D01*
X142061459Y-123656485D01*
X142264982Y-123612500D01*
X142347909Y-123601194D01*
X142384822Y-123626621D01*
X142396335Y-123709261D01*
X142397778Y-123744407D01*
X142411522Y-123989391D01*
X142434407Y-124268497D01*
X142462295Y-124533633D01*
X142472996Y-124618147D01*
X142498575Y-124754721D01*
X142542188Y-124842096D01*
X142623739Y-124914330D01*
X142660901Y-124939680D01*
X142777005Y-124997627D01*
X142956095Y-125063505D01*
X143179144Y-125130759D01*
X143327538Y-125169383D01*
X143585188Y-125236468D01*
X143775034Y-125300995D01*
X143911088Y-125375936D01*
X144007364Y-125474259D01*
X144077876Y-125608936D01*
X144136637Y-125792938D01*
X144177901Y-125956446D01*
X144214352Y-126113035D01*
X144230226Y-126212121D01*
X144224935Y-126277043D01*
X144197890Y-126331144D01*
X144167396Y-126372840D01*
X144098427Y-126444594D01*
X144016453Y-126472503D01*
X143905108Y-126471712D01*
X143789738Y-126472092D01*
X143702507Y-126501996D01*
X143608573Y-126576163D01*
X143569199Y-126613807D01*
X143484771Y-126705937D01*
X143437101Y-126777372D01*
X143433161Y-126803018D01*
X143427185Y-126858150D01*
X143383334Y-126944774D01*
X143378321Y-126952399D01*
X143327113Y-127070856D01*
X143315994Y-127181132D01*
X143336961Y-127259285D01*
X143391375Y-127290707D01*
X143474239Y-127295640D01*
X143582588Y-127309490D01*
X143640981Y-127362230D01*
X143656606Y-127396548D01*
X143714076Y-127476417D01*
X143792314Y-127512952D01*
X143863969Y-127501136D01*
X143900896Y-127441377D01*
X143939175Y-127349423D01*
X143998423Y-127268050D01*
X144081891Y-127178001D01*
X144320227Y-127441377D01*
X144348379Y-127304964D01*
X144377519Y-127212813D01*
X144421713Y-127186830D01*
X144454389Y-127193262D01*
X144499207Y-127198645D01*
X144522588Y-127166457D01*
X144531278Y-127079221D01*
X144532246Y-126991518D01*
X144536535Y-126856784D01*
X144558605Y-126774425D01*
X144612256Y-126713632D01*
X144678058Y-126666007D01*
X144827701Y-126515987D01*
X144915434Y-126315943D01*
X144937753Y-126075210D01*
X144930691Y-125992568D01*
X144919101Y-125849880D01*
X144931152Y-125764491D01*
X144967321Y-125715119D01*
X145025709Y-125621014D01*
X145012403Y-125510744D01*
X144930156Y-125405466D01*
X144926662Y-125402614D01*
X144821406Y-125317771D01*
X145029434Y-125013549D01*
X144861956Y-124800635D01*
X144947328Y-124633291D01*
X145032701Y-124465947D01*
X144921732Y-124438096D01*
X144818809Y-124434788D01*
X144756236Y-124484816D01*
X144707086Y-124528945D01*
X144630299Y-124544210D01*
X144499856Y-124535466D01*
X144490587Y-124534383D01*
X144338586Y-124501540D01*
X144200214Y-124447684D01*
X144156020Y-124421477D01*
X144055698Y-124319340D01*
X144036715Y-124211575D01*
X144099358Y-124095167D01*
X144195885Y-124003733D01*
X144303854Y-123900918D01*
X144387300Y-123793319D01*
X144408667Y-123753062D01*
X144458136Y-123633633D01*
X144692978Y-123835203D01*
X144825642Y-123939225D01*
X144951394Y-124021290D01*
X145043872Y-124064272D01*
X145046706Y-124064984D01*
X145183818Y-124066886D01*
X145354788Y-124027224D01*
X145528096Y-123956023D01*
X145666867Y-123867750D01*
X145781324Y-123774068D01*
X145793856Y-123088542D01*
X145798222Y-122793203D01*
X145798539Y-122571208D01*
X145794023Y-122412688D01*
X145783891Y-122307772D01*
X145767360Y-122246589D01*
X145743645Y-122219270D01*
X145724522Y-122215002D01*
X145649666Y-122193689D01*
X145617528Y-122176525D01*
X145584967Y-122141727D01*
X145588254Y-122084253D01*
X145629360Y-121979891D01*
X145634441Y-121968569D01*
X145679923Y-121804674D01*
X145657894Y-121674949D01*
X145571220Y-121588817D01*
X145512186Y-121566865D01*
X145443894Y-121538122D01*
X145413217Y-121480070D01*
X145405757Y-121367929D01*
X145390372Y-121237310D01*
X145351780Y-121095753D01*
X145299464Y-120966883D01*
X145242906Y-120874326D01*
X145194490Y-120841541D01*
X145167280Y-120813092D01*
X145159190Y-120721296D01*
X145167001Y-120581295D01*
X145175736Y-120436193D01*
X145176051Y-120321420D01*
X145169552Y-120269000D01*
X145117655Y-120221150D01*
X145041004Y-120235854D01*
X144990278Y-120279410D01*
X144916586Y-120332462D01*
X144875842Y-120341869D01*
X144848709Y-120330544D01*
X144832110Y-120287649D01*
X144824772Y-120199803D01*
X144825423Y-120053628D01*
X144831313Y-119873427D01*
X144842745Y-119650109D01*
X144859956Y-119485324D01*
X144887499Y-119354333D01*
X144929931Y-119232399D01*
X144963584Y-119155148D01*
X145099395Y-118912697D01*
X145257349Y-118720684D01*
X145428016Y-118584059D01*
X145601967Y-118507774D01*
X145769774Y-118496781D01*
X145922006Y-118556030D01*
X145991211Y-118615528D01*
X146071617Y-118748973D01*
X146133196Y-118949237D01*
X146174730Y-119201745D01*
X146195002Y-119491920D01*
X146192796Y-119805187D01*
X146166894Y-120126968D01*
X146135360Y-120341869D01*
X146106261Y-120524546D01*
X146084591Y-120693960D01*
X146074095Y-120819791D01*
X146073658Y-120841541D01*
X146089807Y-120951614D01*
X146131652Y-121095119D01*
X146190431Y-121251800D01*
X146257387Y-121401400D01*
X146323759Y-121523664D01*
X146380789Y-121598336D01*
X146406772Y-121611869D01*
X146464746Y-121577755D01*
X146475675Y-121476312D01*
X146439616Y-121308888D01*
X146387252Y-121155291D01*
X146335410Y-121015302D01*
X146297603Y-120908904D01*
X146281265Y-120857084D01*
X146281098Y-120855648D01*
X146313219Y-120864609D01*
X146395689Y-120906546D01*
X146467230Y-120947111D01*
X146613897Y-121013329D01*
X146709311Y-121020325D01*
X146746085Y-120979200D01*
X146716833Y-120901055D01*
X146614169Y-120796989D01*
X146582983Y-120773168D01*
X146450386Y-120670026D01*
X146376640Y-120591867D01*
X146349220Y-120520774D01*
X146354195Y-120445919D01*
X146372149Y-120372817D01*
X146402122Y-120349122D01*
X146464702Y-120373071D01*
X146557249Y-120428544D01*
X146647017Y-120480987D01*
X146686933Y-120489351D01*
X146696858Y-120455115D01*
X146696974Y-120438954D01*
X146686013Y-120365674D01*
X146657212Y-120235859D01*
X146615944Y-120072953D01*
X146597968Y-120006736D01*
X146550235Y-119799340D01*
X146507294Y-119551026D01*
X146476075Y-119304124D01*
X146468447Y-119215589D01*
X146448338Y-118975530D01*
X146424232Y-118800559D01*
X146390847Y-118672493D01*
X146342902Y-118573150D01*
X146275116Y-118484350D01*
X146247219Y-118453971D01*
X146062960Y-118302303D01*
X145866227Y-118228232D01*
X145752264Y-118218495D01*
X145477263Y-118258613D01*
X145225773Y-118374498D01*
X145002886Y-118560698D01*
X144813693Y-118811765D01*
X144663287Y-119122248D01*
X144556758Y-119486698D01*
X144553674Y-119501395D01*
X144518522Y-119694518D01*
X144497494Y-119878385D01*
X144492562Y-120061876D01*
X144505697Y-120253869D01*
X144538871Y-120463242D01*
X144594057Y-120698876D01*
X144673224Y-120969649D01*
X144778347Y-121284439D01*
X144911396Y-121652126D01*
X145074343Y-122081589D01*
X145196612Y-122396502D01*
X145334065Y-122760421D01*
X145434356Y-123054104D01*
X145498525Y-123281316D01*
X145527614Y-123445818D01*
X145522664Y-123551375D01*
X145519071Y-123562301D01*
X145448037Y-123644900D01*
X145329649Y-123695831D01*
X145197801Y-123701708D01*
X145177020Y-123697398D01*
X145049170Y-123633785D01*
X144902804Y-123512457D01*
X144752606Y-123352073D01*
X144613262Y-123171292D01*
X144499457Y-122988773D01*
X144425876Y-122823174D01*
X144405852Y-122717570D01*
X144369621Y-122520420D01*
X144265669Y-122371448D01*
X144165799Y-122302809D01*
X144091589Y-122244118D01*
X143980286Y-122131093D01*
X143843083Y-121977247D01*
X143691178Y-121796096D01*
X143535765Y-121601153D01*
X143388040Y-121405932D01*
X143259200Y-121223948D01*
X143209069Y-121147953D01*
X143061445Y-120842880D01*
X142991595Y-120516255D01*
X143001868Y-120180759D01*
X143015676Y-120104319D01*
X143054224Y-119953048D01*
X143098090Y-119829621D01*
X143135911Y-119763309D01*
X143170319Y-119737157D01*
X143185395Y-119758126D01*
X143184541Y-119839728D01*
X143177389Y-119927990D01*
X143168786Y-120032584D01*
X143169008Y-120074758D01*
X143180950Y-120049637D01*
X143207506Y-119952347D01*
X143240691Y-119821377D01*
X143282827Y-119652754D01*
X143319332Y-119505202D01*
X143343590Y-119405496D01*
X143346728Y-119392208D01*
X143381345Y-119322753D01*
X143448873Y-119321477D01*
X143451010Y-119322146D01*
X143504507Y-119328475D01*
X143528357Y-119288984D01*
X143534377Y-119189183D01*
X143537119Y-119089597D01*
X143548457Y-119064385D01*
X143576948Y-119104641D01*
X143591185Y-119130073D01*
X143624649Y-119184132D01*
X143645544Y-119185029D01*
X143662812Y-119122154D01*
X143678887Y-119025975D01*
X143711256Y-118822033D01*
X143794412Y-119113509D01*
X143901136Y-118790804D01*
X143954750Y-118641772D01*
X144003493Y-118529180D01*
X144038962Y-118471765D01*
X144045893Y-118468099D01*
X144065412Y-118501468D01*
X144057183Y-118561787D01*
X144037185Y-118658902D01*
X144017339Y-118796896D01*
X144009959Y-118863673D01*
X143989478Y-119071869D01*
X144068142Y-118851665D01*
X144126480Y-118698002D01*
X144165711Y-118621686D01*
X144189300Y-118619902D01*
X144200708Y-118689834D01*
X144202752Y-118742224D01*
X144207121Y-118809570D01*
X144218105Y-118816826D01*
X144238861Y-118757476D01*
X144272548Y-118625000D01*
X144285134Y-118572197D01*
X144346033Y-118312172D01*
X144389012Y-118116557D01*
X144415690Y-117968808D01*
X144427684Y-117852382D01*
X144426611Y-117750735D01*
X144414089Y-117647322D01*
X144391736Y-117525600D01*
X144388888Y-117511100D01*
X144358251Y-117314450D01*
X144338705Y-117108072D01*
X144334463Y-116948263D01*
X144326563Y-116753748D01*
X144287556Y-116620382D01*
X144271513Y-116592947D01*
X144228037Y-116506146D01*
X144227303Y-116416044D01*
X144249216Y-116331615D01*
X144275179Y-116218919D01*
X144261074Y-116138591D01*
X144212506Y-116062341D01*
X144093623Y-115962820D01*
X143965760Y-115926178D01*
X143825994Y-115890992D01*
X143701273Y-115835467D01*
X143691088Y-115829036D01*
X143559560Y-115779086D01*
X143444354Y-115804941D01*
X143360731Y-115903033D01*
X143359036Y-115906689D01*
X143316046Y-115966296D01*
X143239452Y-116003174D01*
X143106107Y-116027635D01*
X143080509Y-116030785D01*
X142850357Y-116063323D01*
X142686878Y-116101559D01*
X142573472Y-116152074D01*
X142493540Y-116221452D01*
X142451360Y-116280284D01*
X142386216Y-116367074D01*
X142306104Y-116420714D01*
X142181844Y-116458207D01*
X142125771Y-116470015D01*
X141841918Y-116531950D01*
X141636045Y-116591531D01*
X141503168Y-116653613D01*
X141438301Y-116723052D01*
X141436459Y-116804705D01*
X141492655Y-116903426D01*
X141579803Y-117001805D01*
X141755813Y-117124473D01*
X141975358Y-117185718D01*
X142221270Y-117181131D01*
X142255274Y-117175281D01*
X142379342Y-117148857D01*
X142468256Y-117124784D01*
X142490337Y-117115797D01*
X142532214Y-117116734D01*
X142547177Y-117165591D01*
X142532418Y-117230574D01*
X142503766Y-117267923D01*
X142446526Y-117292536D01*
X142338666Y-117308280D01*
X142169834Y-117315968D01*
X141929682Y-117316414D01*
X141892060Y-117315974D01*
X141346836Y-117308931D01*
X141509473Y-117393167D01*
X141593219Y-117432538D01*
X141670810Y-117453699D01*
X141765574Y-117458210D01*
X141900838Y-117447630D01*
X142052723Y-117429495D01*
X142229245Y-117411151D01*
X142380028Y-117402538D01*
X142482015Y-117404674D01*
X142506063Y-117409496D01*
X142554793Y-117450013D01*
X142533919Y-117499049D01*
X142455460Y-117548611D01*
X142331438Y-117590704D01*
X142197291Y-117614858D01*
X142061719Y-117636078D01*
X141962688Y-117661792D01*
X141927024Y-117681421D01*
X141917202Y-117766276D01*
X141979112Y-117853587D01*
X142102590Y-117930685D01*
X142139133Y-117945833D01*
X142269695Y-118012010D01*
X142318974Y-118078466D01*
X142286311Y-118142981D01*
X142210852Y-118187354D01*
X142101477Y-118252306D01*
X141989931Y-118342038D01*
X141982050Y-118349601D01*
X141818201Y-118463140D01*
X141606244Y-118544862D01*
X141378489Y-118584592D01*
X141239936Y-118583338D01*
X141023081Y-118527520D01*
X140836473Y-118401619D01*
X140673156Y-118200429D01*
X140627980Y-118125175D01*
X140509762Y-117954981D01*
X140342630Y-117764599D01*
X140149345Y-117576249D01*
X139952667Y-117412151D01*
X139779366Y-117296717D01*
X139648228Y-117205400D01*
X139590603Y-117106261D01*
X139601674Y-116981536D01*
X139657965Y-116849020D01*
X139721062Y-116710423D01*
X139737328Y-116615837D01*
X139705976Y-116539883D01*
X139646387Y-116475765D01*
X139549053Y-116384324D01*
X139438281Y-116471457D01*
X139327510Y-116558590D01*
X139287772Y-116454073D01*
X139216862Y-116347360D01*
X139116703Y-116286232D01*
X139018049Y-116286637D01*
X138965398Y-116347810D01*
X138956553Y-116462152D01*
X138992769Y-116611246D01*
X138995449Y-116618399D01*
X139016055Y-116679011D01*
X139007898Y-116693726D01*
X138959962Y-116658972D01*
X138867638Y-116576965D01*
X138750340Y-116480607D01*
X138668973Y-116445446D01*
X138605393Y-116469344D01*
X138548500Y-116539402D01*
X138518310Y-116601499D01*
X138530263Y-116660364D01*
X138591882Y-116745137D01*
X138605962Y-116761995D01*
X138671212Y-116842930D01*
X138683285Y-116871640D01*
X138644893Y-116857641D01*
X138631173Y-116850433D01*
X138523853Y-116811747D01*
X138456599Y-116802525D01*
X138377485Y-116834857D01*
X138301551Y-116911013D01*
X138254224Y-116999733D01*
X138252151Y-117053882D01*
X136267087Y-117053882D01*
X136266836Y-116948263D01*
X136090930Y-117288752D01*
X135932620Y-117560947D01*
X135772818Y-117760954D01*
X135600930Y-117899365D01*
X135406364Y-117986773D01*
X135387054Y-117992595D01*
X135167495Y-118056422D01*
X135435880Y-118319575D01*
X135662795Y-118575580D01*
X135826367Y-118841177D01*
X135839813Y-118868938D01*
X135975360Y-119155148D01*
X135975360Y-119863017D01*
X135971809Y-120214077D01*
X135961522Y-120512101D01*
X135945052Y-120750782D01*
X135922951Y-120923816D01*
X135895773Y-121024899D01*
X135871386Y-121049738D01*
X135832351Y-121016369D01*
X135772894Y-120931465D01*
X135738622Y-120872771D01*
X135616694Y-120712855D01*
X135438917Y-120561445D01*
X135412797Y-120543574D01*
X135308575Y-120479189D01*
X135158980Y-120393265D01*
X134978776Y-120293581D01*
X134782728Y-120187918D01*
X134585600Y-120084056D01*
X134402158Y-119989772D01*
X134247167Y-119912848D01*
X134135390Y-119861064D01*
X134081684Y-119842197D01*
X134036978Y-119880153D01*
X133994219Y-119979519D01*
X133959729Y-120118540D01*
X133939832Y-120275463D01*
X133937372Y-120338747D01*
X133939780Y-120486426D01*
X133948210Y-120683379D01*
X133961085Y-120895952D01*
X133967523Y-120982854D01*
X134000014Y-121394822D01*
X133821785Y-121235105D01*
X133689477Y-121108289D01*
X133578837Y-120979613D01*
X133484211Y-120836848D01*
X133399945Y-120667765D01*
X133320386Y-120460134D01*
X133239880Y-120201727D01*
X133152774Y-119880313D01*
X133100851Y-119675640D01*
X133043830Y-119469884D01*
X132979050Y-119271286D01*
X132916235Y-119108292D01*
X132883053Y-119038531D01*
X132805697Y-118923307D01*
X132705103Y-118808904D01*
X132597880Y-118709891D01*
X132500634Y-118640840D01*
X132429972Y-118616321D01*
X132410791Y-118624193D01*
X132381824Y-118681656D01*
X132346563Y-118785481D01*
X132337680Y-118816926D01*
X132317629Y-118924260D01*
X132324372Y-119029387D01*
X132361622Y-119164659D01*
X132385489Y-119233319D01*
X132456715Y-119526169D01*
X132474983Y-119839252D01*
X132440966Y-120143611D01*
X132358284Y-120403911D01*
X132296450Y-120525198D01*
X132241990Y-120608357D01*
X132211795Y-120633345D01*
X132171316Y-120601204D01*
X132097649Y-120515118D01*
X132003570Y-120390588D01*
X131954455Y-120321050D01*
X131856873Y-120183780D01*
X131776028Y-120077251D01*
X131723852Y-120016851D01*
X131712325Y-120008754D01*
X131684979Y-120044410D01*
X131639408Y-120137500D01*
X131590017Y-120256504D01*
X131504507Y-120434496D01*
X131386914Y-120591670D01*
X131253290Y-120724946D01*
X131123737Y-120835308D01*
X130976419Y-120947798D01*
X130827128Y-121052014D01*
X130691654Y-121137556D01*
X130585789Y-121194024D01*
X130525324Y-121211017D01*
X130519491Y-121208241D01*
X130508047Y-121160648D01*
X130493939Y-121049781D01*
X130479495Y-120895491D01*
X130473282Y-120814049D01*
X130468431Y-120510564D01*
X130505949Y-120261740D01*
X130592045Y-120047220D01*
X130732933Y-119846644D01*
X130786960Y-119785989D01*
X130978639Y-119579851D01*
X130853721Y-119607425D01*
X130565099Y-119653762D01*
X130285210Y-119666855D01*
X130031440Y-119648004D01*
X129821178Y-119598510D01*
X129671812Y-119519672D01*
X129670936Y-119518949D01*
X129627868Y-119479113D01*
X129618496Y-119443495D01*
X129651299Y-119395914D01*
X129734756Y-119320191D01*
X129807036Y-119259246D01*
X130152071Y-118968308D01*
X130437651Y-118723929D01*
X130669417Y-118520728D01*
X130853010Y-118353320D01*
X130994070Y-118216323D01*
X131098236Y-118104355D01*
X131171150Y-118012031D01*
X131218451Y-117933970D01*
X131235152Y-117896314D01*
X131297618Y-117641111D01*
X131314154Y-117323294D01*
X131285044Y-116949526D01*
X131210572Y-116526473D01*
X131169246Y-116349370D01*
X131091030Y-115992928D01*
X131050702Y-115695548D01*
X131048407Y-115442053D01*
X131084294Y-115217270D01*
X131158509Y-115006022D01*
X131182778Y-114954141D01*
X131285365Y-114781363D01*
X131420264Y-114604083D01*
X131566845Y-114446062D01*
X131704482Y-114331059D01*
X131745425Y-114306060D01*
X131784097Y-114291761D01*
X131792033Y-114312555D01*
X131765903Y-114378991D01*
X131702382Y-114501619D01*
X131658293Y-114582340D01*
X131569397Y-114750553D01*
X131516227Y-114875700D01*
X131490439Y-114985379D01*
X131483686Y-115107183D01*
X131484276Y-115157771D01*
X131509305Y-115365152D01*
X131569450Y-115591587D01*
X131654171Y-115807606D01*
X131752930Y-115983739D01*
X131801408Y-116044586D01*
X131899975Y-116123944D01*
X132053966Y-116218696D01*
X132240066Y-116317116D01*
X132434959Y-116407477D01*
X132615332Y-116478052D01*
X132729920Y-116511594D01*
X132965029Y-116533867D01*
X133157225Y-116512108D01*
X133327815Y-116463204D01*
X133476295Y-116377232D01*
X133617593Y-116241803D01*
X133766638Y-116044528D01*
X133822417Y-115960099D01*
X133903418Y-115840165D01*
X133968660Y-115754137D01*
X134004265Y-115720286D01*
X134004593Y-115720266D01*
X134031837Y-115755834D01*
X134059398Y-115842392D01*
X134060443Y-115847062D01*
X134105445Y-115950834D01*
X134189166Y-116074173D01*
X134244681Y-116138538D01*
X134339009Y-116230459D01*
X134422265Y-116286309D01*
X134504704Y-116301928D01*
X134596580Y-116273160D01*
X134708147Y-116195847D01*
X134849661Y-116065832D01*
X135031376Y-115878956D01*
X135121754Y-115782937D01*
X135282039Y-115613438D01*
X135423297Y-115467096D01*
X135535512Y-115354046D01*
X135608666Y-115284425D01*
X135631836Y-115266811D01*
X135656202Y-115297956D01*
X135663258Y-115355558D01*
X135678878Y-115442547D01*
X135719297Y-115574438D01*
X135766368Y-115699082D01*
X135821572Y-115855948D01*
X135858955Y-116005909D01*
X135869359Y-116094656D01*
X135842099Y-116265629D01*
X135771397Y-116448131D01*
X135674104Y-116603306D01*
X135627307Y-116652831D01*
X135562585Y-116720310D01*
X135538147Y-116763679D01*
X135575914Y-116794311D01*
X135673988Y-116817771D01*
X135809529Y-116831549D01*
X135959694Y-116833136D01*
X136080266Y-116823234D01*
X136287655Y-116794710D01*
X136287655Y-115472793D01*
X136754887Y-115461020D01*
X137022432Y-115454278D01*
X137953229Y-115454278D01*
X137992904Y-115458828D01*
X138104070Y-115462865D01*
X138274942Y-115466188D01*
X138493733Y-115468599D01*
X138748658Y-115469897D01*
X138884734Y-115470066D01*
X139816239Y-115470066D01*
X142283721Y-115470066D01*
X144105100Y-115470066D01*
X144069274Y-115272279D01*
X144001720Y-114994802D01*
X143912294Y-114793142D01*
X143798531Y-114662131D01*
X143768176Y-114641147D01*
X143518039Y-114533971D01*
X143238214Y-114497157D01*
X142943389Y-114530595D01*
X142648254Y-114634178D01*
X142616836Y-114649630D01*
X142443363Y-114773884D01*
X142334957Y-114941945D01*
X142287082Y-115162010D01*
X142283786Y-115251459D01*
X142283721Y-115470066D01*
X139816239Y-115470066D01*
X139844564Y-115182618D01*
X139895727Y-114829614D01*
X139976371Y-114477507D01*
X140078887Y-114154977D01*
X140178746Y-113923113D01*
X140319124Y-113646159D01*
X140211838Y-113485900D01*
X140108288Y-113342919D01*
X139967152Y-113163450D01*
X139807118Y-112969789D01*
X139646873Y-112784235D01*
X139505103Y-112629084D01*
X139431933Y-112555312D01*
X139279029Y-112409574D01*
X139305883Y-112576132D01*
X139331396Y-112725100D01*
X139362383Y-112894137D01*
X139371672Y-112942525D01*
X139407366Y-113229196D01*
X139390356Y-113467584D01*
X139323613Y-113666428D01*
X139265876Y-113771573D01*
X139217177Y-113836273D01*
X139200695Y-113846132D01*
X139159362Y-113814538D01*
X139089629Y-113732819D01*
X139027567Y-113648345D01*
X138890363Y-113450558D01*
X138866494Y-113596295D01*
X138857742Y-113704528D01*
X138855093Y-113866761D01*
X138858811Y-114053921D01*
X138861769Y-114122034D01*
X138868606Y-114377431D01*
X138858662Y-114557467D01*
X138830877Y-114668563D01*
X138784192Y-114717138D01*
X138762938Y-114720558D01*
X138642605Y-114682092D01*
X138518443Y-114575405D01*
X138404734Y-114413557D01*
X138383331Y-114373410D01*
X138322678Y-114264920D01*
X138277645Y-114217604D01*
X138244619Y-114236249D01*
X138219992Y-114325645D01*
X138200151Y-114490582D01*
X138188773Y-114631464D01*
X138150333Y-114922923D01*
X138078878Y-115161402D01*
X138058277Y-115209036D01*
X138002796Y-115332619D01*
X137964726Y-115422007D01*
X137953229Y-115454278D01*
X137022432Y-115454278D01*
X137222119Y-115449246D01*
X137396958Y-115012033D01*
X137467371Y-114832264D01*
X137524853Y-114678510D01*
X137562906Y-114568618D01*
X137575137Y-114522771D01*
X137561556Y-114480037D01*
X137506979Y-114480268D01*
X137402850Y-114525894D01*
X137245360Y-114616459D01*
X137120621Y-114690075D01*
X137025057Y-114742469D01*
X136979668Y-114762197D01*
X136966891Y-114724098D01*
X136957668Y-114623929D01*
X136953896Y-114482882D01*
X136953885Y-114474233D01*
X136956053Y-114320747D01*
X136969962Y-114221826D01*
X137006719Y-114148756D01*
X137077431Y-114072826D01*
X137127046Y-114026610D01*
X137232452Y-113927547D01*
X137374619Y-113791419D01*
X137531139Y-113639764D01*
X137621351Y-113551521D01*
X137767078Y-113415039D01*
X137905271Y-113297253D01*
X138017302Y-113213453D01*
X138070078Y-113183244D01*
X138178779Y-113099915D01*
X138258445Y-112969929D01*
X138286344Y-112840574D01*
X138255390Y-112803328D01*
X138179604Y-112804081D01*
X138084604Y-112836420D01*
X137996004Y-112893929D01*
X137970524Y-112919656D01*
X137758026Y-113167388D01*
X137587874Y-113362785D01*
X137448257Y-113516777D01*
X137327364Y-113640295D01*
X137213386Y-113744269D01*
X137094512Y-113839629D01*
X136958931Y-113937305D01*
X136794834Y-114048228D01*
X136641590Y-114149560D01*
X136017000Y-114561583D01*
X135205032Y-114540540D01*
X134821926Y-114527463D01*
X134508771Y-114508300D01*
X134252304Y-114480303D01*
X134039266Y-114440723D01*
X133856393Y-114386814D01*
X133690426Y-114315828D01*
X133528102Y-114225016D01*
X133453833Y-114177687D01*
X133206367Y-113989731D01*
X132990841Y-113767774D01*
X132800981Y-113501761D01*
X132630512Y-113181634D01*
X132473160Y-112797335D01*
X132337714Y-112388754D01*
X132256943Y-112137686D01*
X132163939Y-111871159D01*
X132070277Y-111621211D01*
X131988517Y-111422120D01*
X131908020Y-111242438D01*
X131842881Y-111116146D01*
X131775363Y-111021429D01*
X131687728Y-110936474D01*
X131562241Y-110839465D01*
X131446803Y-110755890D01*
X131328338Y-110667789D01*
X131221122Y-110579934D01*
X131115720Y-110482226D01*
X131002695Y-110364563D01*
X130872614Y-110216845D01*
X130716039Y-110028970D01*
X130523537Y-109790838D01*
X130395237Y-109630148D01*
X130213258Y-109400804D01*
X130050668Y-109194344D01*
X129914013Y-109019208D01*
X129809839Y-108883834D01*
X129744692Y-108796663D01*
X129725069Y-108766132D01*
X129770350Y-108775137D01*
X129879479Y-108799555D01*
X130035295Y-108835483D01*
X130191870Y-108872218D01*
X130435325Y-108924847D01*
X130621965Y-108952531D01*
X130773582Y-108957822D01*
X130861791Y-108950699D01*
X130984466Y-108930751D01*
X131064692Y-108908843D01*
X131082737Y-108895825D01*
X131072338Y-108845144D01*
X131044872Y-108736355D01*
X131005934Y-108591485D01*
X130999459Y-108568035D01*
X130948321Y-108368183D01*
X130924060Y-108212965D01*
X130926820Y-108070311D01*
X130956747Y-107908151D01*
X131003228Y-107732536D01*
X131051208Y-107541392D01*
X131069118Y-107400766D01*
X131057623Y-107283773D01*
X131017388Y-107163533D01*
X131017304Y-107163331D01*
X131008260Y-107123289D01*
X131039782Y-107130528D01*
X131121825Y-107188476D01*
X131147277Y-107208085D01*
X131260087Y-107289050D01*
X131416776Y-107393057D01*
X131589092Y-107501529D01*
X131644868Y-107535315D01*
X131822918Y-107649515D01*
X132000014Y-107775666D01*
X132144453Y-107890874D01*
X132173986Y-107917364D01*
X132281280Y-108011789D01*
X132367497Y-108077739D01*
X132410660Y-108099902D01*
X132449679Y-108068108D01*
X132525749Y-107981566D01*
X132627857Y-107853533D01*
X132743727Y-107698998D01*
X133036122Y-107298095D01*
X133145142Y-107542851D01*
X133259177Y-107803007D01*
X133343156Y-108007329D01*
X133403345Y-108174924D01*
X133446007Y-108324901D01*
X133477406Y-108476367D01*
X133501031Y-108628450D01*
X133527280Y-108853847D01*
X133533200Y-109032023D01*
X133519020Y-109196459D01*
X133505450Y-109278661D01*
X133466908Y-109512982D01*
X133453866Y-109689017D01*
X133470472Y-109828973D01*
X133520875Y-109955059D01*
X133609225Y-110089484D01*
X133672102Y-110170759D01*
X133888025Y-110442112D01*
X134033597Y-110051745D01*
X134129864Y-109746611D01*
X134185573Y-109444941D01*
X134201840Y-109126745D01*
X134179782Y-108772032D01*
X134126170Y-108393742D01*
X134086409Y-108118927D01*
X134059143Y-107845151D01*
X134045015Y-107589505D01*
X134044667Y-107369078D01*
X134058741Y-107200963D01*
X134078376Y-107121377D01*
X134082987Y-107007669D01*
X134049418Y-106915581D01*
X134009570Y-106818084D01*
X133959091Y-106667913D01*
X133907281Y-106493253D01*
X133894136Y-106445043D01*
X133849138Y-106266781D01*
X133826763Y-106139498D01*
X133825072Y-106034600D01*
X133842130Y-105923491D01*
X133854906Y-105865995D01*
X133908610Y-105634968D01*
X133734444Y-105653209D01*
X133594243Y-105651665D01*
X133447634Y-105610438D01*
X133330409Y-105557442D01*
X133209938Y-105494245D01*
X133133548Y-105436267D01*
X133081757Y-105359224D01*
X133035082Y-105238831D01*
X133007704Y-105155189D01*
X132970822Y-105015810D01*
X132940746Y-104856935D01*
X132919673Y-104699032D01*
X132909798Y-104562571D01*
X132913317Y-104468020D01*
X132930507Y-104435640D01*
X132973652Y-104451237D01*
X133070954Y-104491970D01*
X133190753Y-104544343D01*
X133360821Y-104604618D01*
X133537288Y-104631981D01*
X133734750Y-104625193D01*
X133967801Y-104583015D01*
X134251033Y-104504206D01*
X134457028Y-104436819D01*
X134694406Y-104358186D01*
X134870864Y-104306752D01*
X135003286Y-104280017D01*
X135108555Y-104275483D01*
X135203555Y-104290649D01*
X135281867Y-104314715D01*
X135391039Y-104337733D01*
X135509798Y-104323467D01*
X135607793Y-104293895D01*
X135763743Y-104249354D01*
X135907461Y-104232455D01*
X136063496Y-104244255D01*
X136256396Y-104285809D01*
X136410243Y-104328421D01*
X136595664Y-104387225D01*
X136729491Y-104446191D01*
X136841731Y-104522100D01*
X136962395Y-104631731D01*
X136975185Y-104644311D01*
X137084403Y-104758780D01*
X137161638Y-104862762D01*
X137221875Y-104982882D01*
X137280101Y-105145768D01*
X137308574Y-105236639D01*
X137360791Y-105412213D01*
X137392019Y-105544111D01*
X137404805Y-105661710D01*
X137401698Y-105794390D01*
X137385245Y-105971529D01*
X137378070Y-106037897D01*
X137309252Y-106456779D01*
X137201559Y-106822012D01*
X137058009Y-107125576D01*
X136881620Y-107359451D01*
X136880296Y-107360804D01*
X136786781Y-107459865D01*
X136726703Y-107530820D01*
X136712816Y-107558580D01*
X136713088Y-107558591D01*
X136760496Y-107544321D01*
X136868420Y-107505655D01*
X137019926Y-107448801D01*
X137167202Y-107392033D01*
X137342550Y-107324718D01*
X137488912Y-107270444D01*
X137589168Y-107235437D01*
X137625098Y-107225476D01*
X137628847Y-107262481D01*
X137612922Y-107361396D01*
X137580584Y-107504075D01*
X137562391Y-107574560D01*
X137491849Y-107791716D01*
X137399282Y-107977097D01*
X137272778Y-108144989D01*
X137100422Y-108309675D01*
X136870301Y-108485441D01*
X136712562Y-108593500D01*
X136466288Y-108763285D01*
X136228216Y-108937739D01*
X136008024Y-109108760D01*
X135815389Y-109268251D01*
X135659988Y-109408111D01*
X135551498Y-109520242D01*
X135499597Y-109596544D01*
X135496508Y-109611278D01*
X135530116Y-109608318D01*
X135620545Y-109571123D01*
X135752203Y-109506587D01*
X135846442Y-109456553D01*
X135998649Y-109374535D01*
X136121376Y-109310191D01*
X136197775Y-109272259D01*
X136214212Y-109265804D01*
X136220923Y-109303270D01*
X136219395Y-109399814D01*
X136213362Y-109491136D01*
X136214868Y-109629621D01*
X136236060Y-109781785D01*
X136271060Y-109925099D01*
X136313992Y-110037035D01*
X136358979Y-110095062D01*
X136371802Y-110098591D01*
X136414743Y-110067466D01*
X136468626Y-109998425D01*
X136559432Y-109918909D01*
X136714370Y-109844350D01*
X136914304Y-109780992D01*
X137140098Y-109735080D01*
X137339049Y-109714382D01*
X137479681Y-109709970D01*
X137580486Y-109713008D01*
X137620093Y-109722830D01*
X137620114Y-109723127D01*
X137601436Y-109796434D01*
X137552215Y-109921188D01*
X137482668Y-110076213D01*
X137403017Y-110240334D01*
X137323478Y-110392378D01*
X137254272Y-110511170D01*
X137211442Y-110569932D01*
X137117947Y-110646416D01*
X136977296Y-110737054D01*
X136818820Y-110823057D01*
X136808147Y-110828258D01*
X136668578Y-110897938D01*
X136596384Y-110941727D01*
X136594636Y-110961561D01*
X136666403Y-110959375D01*
X136814753Y-110937105D01*
X136944735Y-110914382D01*
X137139949Y-110886920D01*
X137298870Y-110878978D01*
X137407171Y-110890233D01*
X137450525Y-110920360D01*
X137450625Y-110925822D01*
X137428545Y-110971846D01*
X137373361Y-111067578D01*
X137296863Y-111192587D01*
X137294298Y-111196679D01*
X137120296Y-111410346D01*
X136884484Y-111591450D01*
X136581323Y-111743169D01*
X136205275Y-111868681D01*
X136057260Y-111906565D01*
X135743806Y-111983725D01*
X135502395Y-112049042D01*
X135323295Y-112106425D01*
X135196772Y-112159784D01*
X135113094Y-112213027D01*
X135062529Y-112270065D01*
X135041556Y-112314535D01*
X135014598Y-112406495D01*
X135009566Y-112456543D01*
X135010467Y-112457905D01*
X135055707Y-112467899D01*
X135162406Y-112481462D01*
X135308977Y-112495918D01*
X135334553Y-112498123D01*
X135698780Y-112487494D01*
X136074531Y-112395917D01*
X136459506Y-112224569D01*
X136851401Y-111974624D01*
X137247916Y-111647257D01*
X137516016Y-111384154D01*
X137691708Y-111194793D01*
X137869619Y-110992877D01*
X138029941Y-110801490D01*
X138152865Y-110643719D01*
X138161426Y-110631945D01*
X138272505Y-110487267D01*
X138389660Y-110357663D01*
X138529322Y-110227717D01*
X138707921Y-110082016D01*
X138914452Y-109925476D01*
X139100476Y-109788166D01*
X139267762Y-109666157D01*
X139402726Y-109569245D01*
X139491784Y-109507228D01*
X139515727Y-109491856D01*
X139552757Y-109461956D01*
X139545205Y-109427377D01*
X139483559Y-109373552D01*
X139399826Y-109314350D01*
X139289105Y-109234363D01*
X139208402Y-109169028D01*
X139182173Y-109141829D01*
X139196364Y-109096726D01*
X139272063Y-109041901D01*
X139389469Y-108985648D01*
X139528785Y-108936262D01*
X139670211Y-108902038D01*
X139780781Y-108891050D01*
X139933533Y-108878714D01*
X140048384Y-108832129D01*
X140123228Y-108776541D01*
X140196587Y-108720733D01*
X140269737Y-108686292D01*
X140365811Y-108667748D01*
X140507942Y-108659631D01*
X140626769Y-108657467D01*
X140827027Y-108650417D01*
X140960487Y-108633447D01*
X141043307Y-108603916D01*
X141069023Y-108585231D01*
X141177932Y-108533663D01*
X141337362Y-108514831D01*
X141521062Y-108529197D01*
X141694757Y-108574236D01*
X141809613Y-108612302D01*
X141883368Y-108616835D01*
X141952221Y-108585281D01*
X141999562Y-108552725D01*
X142085426Y-108502185D01*
X142175107Y-108482243D01*
X142301683Y-108487516D01*
X142359509Y-108494159D01*
X142518672Y-108511149D01*
X142675091Y-108520661D01*
X142855765Y-108523583D01*
X143087695Y-108520805D01*
X143137328Y-108519760D01*
X143349661Y-108540944D01*
X143566618Y-108604860D01*
X143705323Y-108655487D01*
X143805884Y-108672131D01*
X143904381Y-108658571D01*
X143952224Y-108645255D01*
X144156634Y-108616459D01*
X144373158Y-108653589D01*
X144616131Y-108759350D01*
X144646754Y-108776224D01*
X144779674Y-108860258D01*
X144847858Y-108930757D01*
X144865360Y-108994737D01*
X144877422Y-109083379D01*
X144908883Y-109219834D01*
X144948214Y-109358724D01*
X144985424Y-109470150D01*
X145026655Y-109561267D01*
X145083674Y-109647313D01*
X145168247Y-109743524D01*
X145292139Y-109865140D01*
X145458296Y-110019297D01*
X145816416Y-110345229D01*
X146124368Y-110618107D01*
X146390615Y-110844016D01*
X146623623Y-111029043D01*
X146831855Y-111179273D01*
X147023778Y-111300791D01*
X147207854Y-111399685D01*
X147392549Y-111482038D01*
X147586327Y-111553937D01*
X147598635Y-111558121D01*
X147859845Y-111636470D01*
X148136943Y-111702195D01*
X148415995Y-111753756D01*
X148683068Y-111789611D01*
X148924228Y-111808221D01*
X149125541Y-111808045D01*
X149273074Y-111787543D01*
X149347349Y-111751465D01*
X149324621Y-111724887D01*
X149246779Y-111676266D01*
X149135263Y-111616343D01*
X149011512Y-111555864D01*
X148896965Y-111505572D01*
X148813062Y-111476211D01*
X148791041Y-111472689D01*
X148720721Y-111459188D01*
X148589048Y-111422446D01*
X148412777Y-111368106D01*
X148208665Y-111301811D01*
X147993468Y-111229202D01*
X147783941Y-111155924D01*
X147596842Y-111087618D01*
X147448925Y-111029928D01*
X147363721Y-110992037D01*
X147238884Y-110912632D01*
X147090821Y-110795821D01*
X146951325Y-110666714D01*
X146949754Y-110665112D01*
X146723163Y-110433738D01*
X146928934Y-110455296D01*
X147191383Y-110445223D01*
X147375333Y-110399362D01*
X147485844Y-110362595D01*
X147551019Y-110330537D01*
X147566632Y-110293247D01*
X147528455Y-110240785D01*
X147432262Y-110163212D01*
X147273826Y-110050587D01*
X147207242Y-110004090D01*
X147061772Y-109886754D01*
X146897502Y-109730184D01*
X146743893Y-109563016D01*
X146704742Y-109515640D01*
X146590690Y-109370496D01*
X146524734Y-109276873D01*
X146500851Y-109222994D01*
X146513019Y-109197081D01*
X146537972Y-109189563D01*
X146633244Y-109192121D01*
X146788311Y-109216353D01*
X146983858Y-109257916D01*
X147200572Y-109312465D01*
X147419136Y-109375656D01*
X147540629Y-109415062D01*
X147687765Y-109463643D01*
X147804064Y-109499336D01*
X147867250Y-109515354D01*
X147870686Y-109515640D01*
X147893947Y-109478561D01*
X147903452Y-109383095D01*
X147899735Y-109252899D01*
X147883330Y-109111630D01*
X147858993Y-108997551D01*
X147795846Y-108857074D01*
X147701261Y-108729301D01*
X147687772Y-108716026D01*
X147562127Y-108598655D01*
X147691940Y-108553402D01*
X147779647Y-108515351D01*
X147819478Y-108483247D01*
X147819712Y-108480993D01*
X147785888Y-108448547D01*
X147696566Y-108383358D01*
X147567166Y-108296338D01*
X147476187Y-108237861D01*
X147221224Y-108069603D01*
X147018204Y-107915691D01*
X146843882Y-107754667D01*
X146675013Y-107565073D01*
X146489690Y-107327241D01*
X146302773Y-107072627D01*
X146167822Y-106877336D01*
X146082487Y-106737562D01*
X146044418Y-106649500D01*
X146047989Y-106611918D01*
X146096321Y-106612504D01*
X146206656Y-106634796D01*
X146361776Y-106674825D01*
X146516063Y-106719855D01*
X146694180Y-106772919D01*
X146840315Y-106813706D01*
X146937868Y-106837762D01*
X146970247Y-106841682D01*
X146953870Y-106803879D01*
X146899952Y-106708736D01*
X146816018Y-106568943D01*
X146709597Y-106397190D01*
X146659033Y-106317043D01*
X146485290Y-106032482D01*
X146358548Y-105795409D01*
X146273164Y-105588781D01*
X146223494Y-105395558D01*
X146203892Y-105198699D01*
X146208716Y-104981163D01*
X146210052Y-104961452D01*
X146228765Y-104778778D01*
X146256045Y-104610798D01*
X146286656Y-104488374D01*
X146293331Y-104470588D01*
X146371955Y-104345206D01*
X146503947Y-104197995D01*
X146669491Y-104046860D01*
X146848767Y-103909710D01*
X147021958Y-103804452D01*
X147041026Y-103794991D01*
X147265652Y-103706330D01*
X147503789Y-103645286D01*
X147730143Y-103616159D01*
X147919423Y-103623249D01*
X147975603Y-103636098D01*
X148089016Y-103662132D01*
X148160501Y-103649815D01*
X148196163Y-103623984D01*
X148278000Y-103568502D01*
X148393306Y-103509780D01*
X148412455Y-103501532D01*
X148513854Y-103466827D01*
X148607334Y-103460718D01*
X148729768Y-103482745D01*
X148785685Y-103496859D01*
X148956636Y-103550183D01*
X149145012Y-103621507D01*
X149237491Y-103661820D01*
X149515485Y-103751528D01*
X149791219Y-103765423D01*
X150051861Y-103705095D01*
X150284582Y-103572135D01*
X150339614Y-103525236D01*
X150444228Y-103434096D01*
X150526861Y-103371666D01*
X150564068Y-103353017D01*
X150583274Y-103391556D01*
X150583274Y-103391556D01*
G37*
X150583274Y-103391556D02*
X150603776Y-103495009D01*
X150622435Y-103645131D01*
X150630704Y-103740062D01*
X150642747Y-103930075D01*
X150642737Y-104064198D01*
X150627505Y-104169345D01*
X150593883Y-104272430D01*
X150558092Y-104356911D01*
X150415289Y-104585755D01*
X150218444Y-104764951D01*
X149983933Y-104881878D01*
X149831366Y-104916973D01*
X149617531Y-104945340D01*
X149718987Y-105106056D01*
X149809076Y-105321324D01*
X149820406Y-105545729D01*
X149753479Y-105763240D01*
X149695524Y-105857985D01*
X149613340Y-105998337D01*
X149576321Y-106142700D01*
X149583746Y-106310907D01*
X149634892Y-106522794D01*
X149667634Y-106624822D01*
X149709151Y-106755983D01*
X149735072Y-106868067D01*
X149747343Y-106984434D01*
X149747908Y-107128444D01*
X149738714Y-107323460D01*
X149733251Y-107412853D01*
X149719468Y-107672681D01*
X149708059Y-107963260D01*
X149700595Y-108240620D01*
X149698682Y-108379780D01*
X149699427Y-108596310D01*
X149707325Y-108753107D01*
X149725716Y-108873628D01*
X149757937Y-108981331D01*
X149798270Y-109079362D01*
X149869892Y-109226706D01*
X149945181Y-109359356D01*
X149988702Y-109423164D01*
X150072232Y-109511595D01*
X150174866Y-109597717D01*
X150270023Y-109661122D01*
X150325726Y-109681923D01*
X150351640Y-109641070D01*
X150373762Y-109519774D01*
X150391914Y-109320792D01*
X150405914Y-109046882D01*
X150415582Y-108700799D01*
X150420738Y-108285303D01*
X150421075Y-108224820D01*
X150425800Y-107246295D01*
X150585517Y-106907467D01*
X150668293Y-106739331D01*
X150737476Y-106627174D01*
X150811535Y-106550118D01*
X150908941Y-106487285D01*
X150996754Y-106442604D01*
X151015439Y-106470043D01*
X151026597Y-106556989D01*
X151027983Y-106610028D01*
X151048647Y-106764393D01*
X151113743Y-106957668D01*
X151193043Y-107133990D01*
X151267450Y-107283847D01*
X151328917Y-107400210D01*
X151368410Y-107466329D01*
X151377073Y-107475312D01*
X151400110Y-107439621D01*
X151438158Y-107348394D01*
X151463647Y-107277525D01*
X151500236Y-107184491D01*
X151546925Y-107109476D01*
X151618879Y-107037420D01*
X151731263Y-106953264D01*
X151899240Y-106841945D01*
X151907826Y-106836394D01*
X152162431Y-106656104D01*
X152345665Y-106491152D01*
X152416111Y-106405699D01*
X152547819Y-106218348D01*
X152573089Y-106503305D01*
X152600229Y-106686538D01*
X152644672Y-106869419D01*
X152685350Y-106984259D01*
X152760810Y-107229746D01*
X152781091Y-107484332D01*
X152745727Y-107720697D01*
X152699881Y-107837997D01*
X152647149Y-107944347D01*
X152614945Y-108015426D01*
X152610278Y-108029797D01*
X152647512Y-108025933D01*
X152748298Y-108002689D01*
X152896265Y-107964085D01*
X153037082Y-107924994D01*
X153249098Y-107868067D01*
X153469240Y-107814611D01*
X153681822Y-107767769D01*
X153871157Y-107730689D01*
X154021559Y-107706516D01*
X154117342Y-107698395D01*
X154142900Y-107703234D01*
X154123541Y-107737853D01*
X154055487Y-107812567D01*
X153952549Y-107912443D01*
X153931347Y-107931972D01*
X153757389Y-108118591D01*
X153584316Y-108362774D01*
X153461927Y-108568683D01*
X153344757Y-108772856D01*
X153237809Y-108945944D01*
X153128795Y-109104242D01*
X153005428Y-109264047D01*
X152855423Y-109441652D01*
X152666492Y-109653353D01*
X152537782Y-109794318D01*
X152326038Y-110036619D01*
X152169328Y-110248648D01*
X152057273Y-110451672D01*
X151979491Y-110666956D01*
X151925603Y-110915767D01*
X151898710Y-111103636D01*
X151842432Y-111420274D01*
X151748906Y-111727208D01*
X151685311Y-111889082D01*
X151612716Y-112056666D01*
X151545586Y-112188872D01*
X151469896Y-112305606D01*
X151371621Y-112426769D01*
X151236738Y-112572265D01*
X151118047Y-112694142D01*
X150904879Y-112899295D01*
X150668470Y-113107034D01*
X150424163Y-113305510D01*
X150187300Y-113482879D01*
X149973222Y-113627293D01*
X149797271Y-113726908D01*
X149756806Y-113745209D01*
X149648691Y-113780152D01*
X149483746Y-113821474D01*
X149287489Y-113863157D01*
X149147783Y-113888874D01*
X148697840Y-113966072D01*
X148347481Y-113828527D01*
X148150510Y-113744607D01*
X147947751Y-113643638D01*
X147728069Y-113518859D01*
X147480332Y-113363510D01*
X147193408Y-113170832D01*
X146856163Y-112934064D01*
X146754011Y-112860966D01*
X146504252Y-112682563D01*
X146313133Y-112548438D01*
X146172437Y-112453211D01*
X146073949Y-112391507D01*
X146009450Y-112357948D01*
X145970724Y-112347157D01*
X145968775Y-112347115D01*
X145953838Y-112382699D01*
X145955627Y-112461533D01*
X145972560Y-112526562D01*
X146017626Y-112575771D01*
X146108971Y-112622589D01*
X146239459Y-112671558D01*
X146357479Y-112717715D01*
X146461118Y-112771891D01*
X146566421Y-112846001D01*
X146689429Y-112951958D01*
X146846187Y-113101676D01*
X146929515Y-113184019D01*
X147111501Y-113369117D01*
X147241904Y-113513470D01*
X147331788Y-113631203D01*
X147392216Y-113736442D01*
X147425401Y-113817190D01*
X147471212Y-113946680D01*
X147506685Y-114046817D01*
X147519312Y-114082364D01*
X147501422Y-114137589D01*
X147454072Y-114175461D01*
X147386176Y-114193402D01*
X147293168Y-114177300D01*
X147152847Y-114123000D01*
X147137360Y-114116195D01*
X147011392Y-114061791D01*
X146918947Y-114024301D01*
X146883681Y-114012689D01*
X146868437Y-114048157D01*
X146864049Y-114108118D01*
X146896201Y-114197663D01*
X146984698Y-114317082D01*
X147051426Y-114387443D01*
X147182143Y-114543522D01*
X147241144Y-114680540D01*
X147228427Y-114792113D01*
X147143992Y-114871857D01*
X147051426Y-114903434D01*
X146953895Y-114906544D01*
X146821808Y-114876280D01*
X146638351Y-114808471D01*
X146593492Y-114789816D01*
X146260477Y-114649416D01*
X146203257Y-114351872D01*
X146171574Y-114207442D01*
X146140924Y-114101677D01*
X146117351Y-114054993D01*
X146115156Y-114054328D01*
X146083781Y-114089358D01*
X146031504Y-114181087D01*
X145971121Y-114306467D01*
X145908429Y-114436752D01*
X145856693Y-114505187D01*
X145804486Y-114509301D01*
X145740386Y-114446623D01*
X145652968Y-114314681D01*
X145599392Y-114226059D01*
X145459331Y-113991869D01*
X145491250Y-113533836D01*
X145501620Y-113334400D01*
X145503100Y-113173840D01*
X145495870Y-113068451D01*
X145485741Y-113036246D01*
X145459744Y-113041969D01*
X145448465Y-113118843D01*
X145448311Y-113132930D01*
X145426941Y-113249806D01*
X145372734Y-113391224D01*
X145338180Y-113457095D01*
X145228049Y-113645019D01*
X145140393Y-113506149D01*
X145097756Y-113425074D01*
X145071318Y-113331781D01*
X145057542Y-113204424D01*
X145052889Y-113021156D01*
X145052737Y-112964856D01*
X145050987Y-112774890D01*
X145043080Y-112648051D01*
X145025036Y-112564217D01*
X144992870Y-112503264D01*
X144951790Y-112454774D01*
X144876065Y-112382958D01*
X144822554Y-112347819D01*
X144818160Y-112347115D01*
X144759510Y-112368002D01*
X144664538Y-112419922D01*
X144558303Y-112486766D01*
X144465866Y-112552426D01*
X144412287Y-112600793D01*
X144407328Y-112611203D01*
X144429575Y-112704627D01*
X144491115Y-112852240D01*
X144584150Y-113039544D01*
X144700878Y-113252044D01*
X144833498Y-113475245D01*
X144974212Y-113694650D01*
X145049441Y-113804492D01*
X145229874Y-114064013D01*
X145367683Y-114272394D01*
X145469804Y-114445421D01*
X145543175Y-114598878D01*
X145594732Y-114748552D01*
X145631412Y-114910227D01*
X145660152Y-115099689D01*
X145676163Y-115230640D01*
X145704140Y-115470066D01*
X148029950Y-115470066D01*
X148029950Y-125882671D01*
X147920003Y-126099893D01*
X147774196Y-126347298D01*
X147598217Y-126582927D01*
X147412463Y-126781389D01*
X147292191Y-126881289D01*
X147097832Y-127000886D01*
X146829474Y-127135265D01*
X146494498Y-127281529D01*
X146100286Y-127436782D01*
X145654219Y-127598126D01*
X145163678Y-127762665D01*
X144636045Y-127927502D01*
X144594705Y-127939939D01*
X144197559Y-128061206D01*
X143872252Y-128165675D01*
X143609857Y-128256856D01*
X143401447Y-128338258D01*
X143238096Y-128413391D01*
X143110877Y-128485765D01*
X143010863Y-128558888D01*
X143002586Y-128565888D01*
X142901526Y-128646617D01*
X142824361Y-128697840D01*
X142797594Y-128707799D01*
X142745608Y-128689205D01*
X142639729Y-128643227D01*
X142500891Y-128579030D01*
X142471098Y-128564852D01*
X142038409Y-128383307D01*
X141595518Y-128251562D01*
X141110409Y-128160295D01*
X141055360Y-128152632D01*
X140580017Y-128085362D01*
X140170859Y-128019628D01*
X139810986Y-127951251D01*
X139483502Y-127876056D01*
X139171508Y-127789864D01*
X138858106Y-127688499D01*
X138526398Y-127567783D01*
X138245289Y-127457985D01*
X137755422Y-127240508D01*
X137340508Y-127007530D01*
X136992804Y-126753399D01*
X136704569Y-126472460D01*
X136469204Y-126160834D01*
X136288030Y-125879635D01*
X136267087Y-117053882D01*
X138252151Y-117053882D01*
X138295576Y-117091358D01*
X138395950Y-117147714D01*
X138532650Y-117211527D01*
X138550643Y-117219197D01*
X138817990Y-117348334D01*
X139013990Y-117482764D01*
X139150492Y-117631540D01*
X139201254Y-117716326D01*
X139281436Y-117830495D01*
X139401209Y-117954638D01*
X139490185Y-118028170D01*
X139633670Y-118148462D01*
X139766307Y-118285779D01*
X139872966Y-118421600D01*
X139938519Y-118537404D01*
X139951918Y-118593389D01*
X139983108Y-118660783D01*
X140059863Y-118739819D01*
X140076836Y-118752990D01*
X140170345Y-118850269D01*
X140201754Y-118941337D01*
X140233112Y-119030204D01*
X140319148Y-119150575D01*
X140391889Y-119230188D01*
X140494010Y-119337291D01*
X140548306Y-119413632D01*
X140566253Y-119486921D01*
X140559328Y-119584866D01*
X140554253Y-119622212D01*
X140510421Y-119839714D01*
X140438365Y-120028910D01*
X140328781Y-120201047D01*
X140172361Y-120367368D01*
X139959800Y-120539117D01*
X139681791Y-120727539D01*
X139593182Y-120783426D01*
X139440225Y-120876957D01*
X139337710Y-120931508D01*
X139266151Y-120953325D01*
X139206062Y-120948655D01*
X139145545Y-120926910D01*
X138977459Y-120866218D01*
X138848990Y-120850896D01*
X138733769Y-120886166D01*
X138605427Y-120977248D01*
X138522756Y-121050224D01*
X138372584Y-121204596D01*
X138296372Y-121325296D01*
X138294565Y-121411424D01*
X138326807Y-121444585D01*
X138386833Y-121441825D01*
X138472545Y-121400614D01*
X138550897Y-121363305D01*
X138575414Y-121379697D01*
X138542942Y-121437411D01*
X138494541Y-121486951D01*
X138418867Y-121582701D01*
X138417015Y-121655443D01*
X138480772Y-121696510D01*
X138601923Y-121697236D01*
X138678132Y-121680687D01*
X138776060Y-121657496D01*
X138817901Y-121670254D01*
X138827499Y-121731529D01*
X138827655Y-121759498D01*
X138857972Y-121875562D01*
X138909265Y-121923271D01*
X138972632Y-121941259D01*
X139030184Y-121906863D01*
X139083425Y-121841766D01*
X139146201Y-121762139D01*
X139186848Y-121742953D01*
X139232462Y-121777472D01*
X139253273Y-121799555D01*
X139348903Y-121863076D01*
X139432255Y-121882525D01*
X139497077Y-121870620D01*
X139539671Y-121824945D01*
X139566208Y-121730558D01*
X139582856Y-121572518D01*
X139587002Y-121507771D01*
X139597983Y-121320394D01*
X139886911Y-121179065D01*
X140107426Y-121079417D01*
X140281059Y-121026771D01*
X140430058Y-121021697D01*
X140576673Y-121064764D01*
X140743155Y-121156542D01*
X140813990Y-121202790D01*
X140999472Y-121335443D01*
X141194404Y-121489083D01*
X141383945Y-121650476D01*
X141553255Y-121806383D01*
X141687491Y-121943571D01*
X141771813Y-122048801D01*
X141782124Y-122066223D01*
X141813174Y-122141885D01*
X141806115Y-122194616D01*
X141751894Y-122227170D01*
X141641457Y-122242300D01*
X141465751Y-122242760D01*
X141235590Y-122232421D01*
X141027932Y-122221452D01*
X140886243Y-122217562D01*
X140793346Y-122223074D01*
X140732067Y-122240311D01*
X140685231Y-122271597D01*
X140642230Y-122312690D01*
X140569680Y-122415244D01*
X140538033Y-122545765D01*
X140546824Y-122718005D01*
X140595590Y-122945717D01*
X140618147Y-123027607D01*
X140681594Y-123282839D01*
X140703735Y-123476672D01*
X140681220Y-123621836D01*
X140610699Y-123731057D01*
X140488822Y-123817064D01*
X140399354Y-123858806D01*
X140197053Y-123912233D01*
X140009316Y-123905088D01*
X139852065Y-123842287D01*
X139741225Y-123728747D01*
X139705283Y-123644548D01*
X139647566Y-123502200D01*
X139562986Y-123369151D01*
X139468566Y-123266875D01*
X139381326Y-123216846D01*
X139364780Y-123214984D01*
X139270395Y-123233784D01*
X139157408Y-123279197D01*
X139153918Y-123280986D01*
X139071562Y-123335115D01*
X139061780Y-123379441D01*
X139072707Y-123393413D01*
X139113624Y-123451495D01*
X139092219Y-123495740D01*
X138999779Y-123538673D01*
X138962983Y-123551183D01*
X138772012Y-123629955D01*
X138652554Y-123715222D01*
X138607629Y-123802378D01*
X138640255Y-123886812D01*
X138708148Y-123940245D01*
X138781275Y-123993705D01*
X138816588Y-124060425D01*
X138827278Y-124170803D01*
X138827655Y-124215641D01*
X138830243Y-124337108D01*
X138846051Y-124395018D01*
X138887150Y-124409088D01*
X138942164Y-124402679D01*
X139039901Y-124391087D01*
X139189704Y-124377245D01*
X139360517Y-124364002D01*
X139374087Y-124363059D01*
X139544569Y-124355482D01*
X139680735Y-124363742D01*
X139816824Y-124393203D01*
X139987074Y-124449232D01*
X140035335Y-124466686D01*
X140201670Y-124526173D01*
X140314343Y-124559396D01*
X140397821Y-124568917D01*
X140476571Y-124557298D01*
X140575061Y-124527102D01*
X140583969Y-124524145D01*
X140752051Y-124483268D01*
X140933046Y-124474758D01*
X141072696Y-124484634D01*
X141269128Y-124495452D01*
X141425759Y-124479342D01*
X141561476Y-124440389D01*
X141766332Y-124367631D01*
X141749502Y-124103325D01*
X141744421Y-123947329D01*
X141760680Y-123836449D01*
X141810676Y-123758884D01*
X141906804Y-123702830D01*
X142061459Y-123656485D01*
X142264982Y-123612500D01*
X142347909Y-123601194D01*
X142384822Y-123626621D01*
X142396335Y-123709261D01*
X142397778Y-123744407D01*
X142411522Y-123989391D01*
X142434407Y-124268497D01*
X142462295Y-124533633D01*
X142472996Y-124618147D01*
X142498575Y-124754721D01*
X142542188Y-124842096D01*
X142623739Y-124914330D01*
X142660901Y-124939680D01*
X142777005Y-124997627D01*
X142956095Y-125063505D01*
X143179144Y-125130759D01*
X143327538Y-125169383D01*
X143585188Y-125236468D01*
X143775034Y-125300995D01*
X143911088Y-125375936D01*
X144007364Y-125474259D01*
X144077876Y-125608936D01*
X144136637Y-125792938D01*
X144177901Y-125956446D01*
X144214352Y-126113035D01*
X144230226Y-126212121D01*
X144224935Y-126277043D01*
X144197890Y-126331144D01*
X144167396Y-126372840D01*
X144098427Y-126444594D01*
X144016453Y-126472503D01*
X143905108Y-126471712D01*
X143789738Y-126472092D01*
X143702507Y-126501996D01*
X143608573Y-126576163D01*
X143569199Y-126613807D01*
X143484771Y-126705937D01*
X143437101Y-126777372D01*
X143433161Y-126803018D01*
X143427185Y-126858150D01*
X143383334Y-126944774D01*
X143378321Y-126952399D01*
X143327113Y-127070856D01*
X143315994Y-127181132D01*
X143336961Y-127259285D01*
X143391375Y-127290707D01*
X143474239Y-127295640D01*
X143582588Y-127309490D01*
X143640981Y-127362230D01*
X143656606Y-127396548D01*
X143714076Y-127476417D01*
X143792314Y-127512952D01*
X143863969Y-127501136D01*
X143900896Y-127441377D01*
X143939175Y-127349423D01*
X143998423Y-127268050D01*
X144081891Y-127178001D01*
X144320227Y-127441377D01*
X144348379Y-127304964D01*
X144377519Y-127212813D01*
X144421713Y-127186830D01*
X144454389Y-127193262D01*
X144499207Y-127198645D01*
X144522588Y-127166457D01*
X144531278Y-127079221D01*
X144532246Y-126991518D01*
X144536535Y-126856784D01*
X144558605Y-126774425D01*
X144612256Y-126713632D01*
X144678058Y-126666007D01*
X144827701Y-126515987D01*
X144915434Y-126315943D01*
X144937753Y-126075210D01*
X144930691Y-125992568D01*
X144919101Y-125849880D01*
X144931152Y-125764491D01*
X144967321Y-125715119D01*
X145025709Y-125621014D01*
X145012403Y-125510744D01*
X144930156Y-125405466D01*
X144926662Y-125402614D01*
X144821406Y-125317771D01*
X145029434Y-125013549D01*
X144861956Y-124800635D01*
X144947328Y-124633291D01*
X145032701Y-124465947D01*
X144921732Y-124438096D01*
X144818809Y-124434788D01*
X144756236Y-124484816D01*
X144707086Y-124528945D01*
X144630299Y-124544210D01*
X144499856Y-124535466D01*
X144490587Y-124534383D01*
X144338586Y-124501540D01*
X144200214Y-124447684D01*
X144156020Y-124421477D01*
X144055698Y-124319340D01*
X144036715Y-124211575D01*
X144099358Y-124095167D01*
X144195885Y-124003733D01*
X144303854Y-123900918D01*
X144387300Y-123793319D01*
X144408667Y-123753062D01*
X144458136Y-123633633D01*
X144692978Y-123835203D01*
X144825642Y-123939225D01*
X144951394Y-124021290D01*
X145043872Y-124064272D01*
X145046706Y-124064984D01*
X145183818Y-124066886D01*
X145354788Y-124027224D01*
X145528096Y-123956023D01*
X145666867Y-123867750D01*
X145781324Y-123774068D01*
X145793856Y-123088542D01*
X145798222Y-122793203D01*
X145798539Y-122571208D01*
X145794023Y-122412688D01*
X145783891Y-122307772D01*
X145767360Y-122246589D01*
X145743645Y-122219270D01*
X145724522Y-122215002D01*
X145649666Y-122193689D01*
X145617528Y-122176525D01*
X145584967Y-122141727D01*
X145588254Y-122084253D01*
X145629360Y-121979891D01*
X145634441Y-121968569D01*
X145679923Y-121804674D01*
X145657894Y-121674949D01*
X145571220Y-121588817D01*
X145512186Y-121566865D01*
X145443894Y-121538122D01*
X145413217Y-121480070D01*
X145405757Y-121367929D01*
X145390372Y-121237310D01*
X145351780Y-121095753D01*
X145299464Y-120966883D01*
X145242906Y-120874326D01*
X145194490Y-120841541D01*
X145167280Y-120813092D01*
X145159190Y-120721296D01*
X145167001Y-120581295D01*
X145175736Y-120436193D01*
X145176051Y-120321420D01*
X145169552Y-120269000D01*
X145117655Y-120221150D01*
X145041004Y-120235854D01*
X144990278Y-120279410D01*
X144916586Y-120332462D01*
X144875842Y-120341869D01*
X144848709Y-120330544D01*
X144832110Y-120287649D01*
X144824772Y-120199803D01*
X144825423Y-120053628D01*
X144831313Y-119873427D01*
X144842745Y-119650109D01*
X144859956Y-119485324D01*
X144887499Y-119354333D01*
X144929931Y-119232399D01*
X144963584Y-119155148D01*
X145099395Y-118912697D01*
X145257349Y-118720684D01*
X145428016Y-118584059D01*
X145601967Y-118507774D01*
X145769774Y-118496781D01*
X145922006Y-118556030D01*
X145991211Y-118615528D01*
X146071617Y-118748973D01*
X146133196Y-118949237D01*
X146174730Y-119201745D01*
X146195002Y-119491920D01*
X146192796Y-119805187D01*
X146166894Y-120126968D01*
X146135360Y-120341869D01*
X146106261Y-120524546D01*
X146084591Y-120693960D01*
X146074095Y-120819791D01*
X146073658Y-120841541D01*
X146089807Y-120951614D01*
X146131652Y-121095119D01*
X146190431Y-121251800D01*
X146257387Y-121401400D01*
X146323759Y-121523664D01*
X146380789Y-121598336D01*
X146406772Y-121611869D01*
X146464746Y-121577755D01*
X146475675Y-121476312D01*
X146439616Y-121308888D01*
X146387252Y-121155291D01*
X146335410Y-121015302D01*
X146297603Y-120908904D01*
X146281265Y-120857084D01*
X146281098Y-120855648D01*
X146313219Y-120864609D01*
X146395689Y-120906546D01*
X146467230Y-120947111D01*
X146613897Y-121013329D01*
X146709311Y-121020325D01*
X146746085Y-120979200D01*
X146716833Y-120901055D01*
X146614169Y-120796989D01*
X146582983Y-120773168D01*
X146450386Y-120670026D01*
X146376640Y-120591867D01*
X146349220Y-120520774D01*
X146354195Y-120445919D01*
X146372149Y-120372817D01*
X146402122Y-120349122D01*
X146464702Y-120373071D01*
X146557249Y-120428544D01*
X146647017Y-120480987D01*
X146686933Y-120489351D01*
X146696858Y-120455115D01*
X146696974Y-120438954D01*
X146686013Y-120365674D01*
X146657212Y-120235859D01*
X146615944Y-120072953D01*
X146597968Y-120006736D01*
X146550235Y-119799340D01*
X146507294Y-119551026D01*
X146476075Y-119304124D01*
X146468447Y-119215589D01*
X146448338Y-118975530D01*
X146424232Y-118800559D01*
X146390847Y-118672493D01*
X146342902Y-118573150D01*
X146275116Y-118484350D01*
X146247219Y-118453971D01*
X146062960Y-118302303D01*
X145866227Y-118228232D01*
X145752264Y-118218495D01*
X145477263Y-118258613D01*
X145225773Y-118374498D01*
X145002886Y-118560698D01*
X144813693Y-118811765D01*
X144663287Y-119122248D01*
X144556758Y-119486698D01*
X144553674Y-119501395D01*
X144518522Y-119694518D01*
X144497494Y-119878385D01*
X144492562Y-120061876D01*
X144505697Y-120253869D01*
X144538871Y-120463242D01*
X144594057Y-120698876D01*
X144673224Y-120969649D01*
X144778347Y-121284439D01*
X144911396Y-121652126D01*
X145074343Y-122081589D01*
X145196612Y-122396502D01*
X145334065Y-122760421D01*
X145434356Y-123054104D01*
X145498525Y-123281316D01*
X145527614Y-123445818D01*
X145522664Y-123551375D01*
X145519071Y-123562301D01*
X145448037Y-123644900D01*
X145329649Y-123695831D01*
X145197801Y-123701708D01*
X145177020Y-123697398D01*
X145049170Y-123633785D01*
X144902804Y-123512457D01*
X144752606Y-123352073D01*
X144613262Y-123171292D01*
X144499457Y-122988773D01*
X144425876Y-122823174D01*
X144405852Y-122717570D01*
X144369621Y-122520420D01*
X144265669Y-122371448D01*
X144165799Y-122302809D01*
X144091589Y-122244118D01*
X143980286Y-122131093D01*
X143843083Y-121977247D01*
X143691178Y-121796096D01*
X143535765Y-121601153D01*
X143388040Y-121405932D01*
X143259200Y-121223948D01*
X143209069Y-121147953D01*
X143061445Y-120842880D01*
X142991595Y-120516255D01*
X143001868Y-120180759D01*
X143015676Y-120104319D01*
X143054224Y-119953048D01*
X143098090Y-119829621D01*
X143135911Y-119763309D01*
X143170319Y-119737157D01*
X143185395Y-119758126D01*
X143184541Y-119839728D01*
X143177389Y-119927990D01*
X143168786Y-120032584D01*
X143169008Y-120074758D01*
X143180950Y-120049637D01*
X143207506Y-119952347D01*
X143240691Y-119821377D01*
X143282827Y-119652754D01*
X143319332Y-119505202D01*
X143343590Y-119405496D01*
X143346728Y-119392208D01*
X143381345Y-119322753D01*
X143448873Y-119321477D01*
X143451010Y-119322146D01*
X143504507Y-119328475D01*
X143528357Y-119288984D01*
X143534377Y-119189183D01*
X143537119Y-119089597D01*
X143548457Y-119064385D01*
X143576948Y-119104641D01*
X143591185Y-119130073D01*
X143624649Y-119184132D01*
X143645544Y-119185029D01*
X143662812Y-119122154D01*
X143678887Y-119025975D01*
X143711256Y-118822033D01*
X143794412Y-119113509D01*
X143901136Y-118790804D01*
X143954750Y-118641772D01*
X144003493Y-118529180D01*
X144038962Y-118471765D01*
X144045893Y-118468099D01*
X144065412Y-118501468D01*
X144057183Y-118561787D01*
X144037185Y-118658902D01*
X144017339Y-118796896D01*
X144009959Y-118863673D01*
X143989478Y-119071869D01*
X144068142Y-118851665D01*
X144126480Y-118698002D01*
X144165711Y-118621686D01*
X144189300Y-118619902D01*
X144200708Y-118689834D01*
X144202752Y-118742224D01*
X144207121Y-118809570D01*
X144218105Y-118816826D01*
X144238861Y-118757476D01*
X144272548Y-118625000D01*
X144285134Y-118572197D01*
X144346033Y-118312172D01*
X144389012Y-118116557D01*
X144415690Y-117968808D01*
X144427684Y-117852382D01*
X144426611Y-117750735D01*
X144414089Y-117647322D01*
X144391736Y-117525600D01*
X144388888Y-117511100D01*
X144358251Y-117314450D01*
X144338705Y-117108072D01*
X144334463Y-116948263D01*
X144326563Y-116753748D01*
X144287556Y-116620382D01*
X144271513Y-116592947D01*
X144228037Y-116506146D01*
X144227303Y-116416044D01*
X144249216Y-116331615D01*
X144275179Y-116218919D01*
X144261074Y-116138591D01*
X144212506Y-116062341D01*
X144093623Y-115962820D01*
X143965760Y-115926178D01*
X143825994Y-115890992D01*
X143701273Y-115835467D01*
X143691088Y-115829036D01*
X143559560Y-115779086D01*
X143444354Y-115804941D01*
X143360731Y-115903033D01*
X143359036Y-115906689D01*
X143316046Y-115966296D01*
X143239452Y-116003174D01*
X143106107Y-116027635D01*
X143080509Y-116030785D01*
X142850357Y-116063323D01*
X142686878Y-116101559D01*
X142573472Y-116152074D01*
X142493540Y-116221452D01*
X142451360Y-116280284D01*
X142386216Y-116367074D01*
X142306104Y-116420714D01*
X142181844Y-116458207D01*
X142125771Y-116470015D01*
X141841918Y-116531950D01*
X141636045Y-116591531D01*
X141503168Y-116653613D01*
X141438301Y-116723052D01*
X141436459Y-116804705D01*
X141492655Y-116903426D01*
X141579803Y-117001805D01*
X141755813Y-117124473D01*
X141975358Y-117185718D01*
X142221270Y-117181131D01*
X142255274Y-117175281D01*
X142379342Y-117148857D01*
X142468256Y-117124784D01*
X142490337Y-117115797D01*
X142532214Y-117116734D01*
X142547177Y-117165591D01*
X142532418Y-117230574D01*
X142503766Y-117267923D01*
X142446526Y-117292536D01*
X142338666Y-117308280D01*
X142169834Y-117315968D01*
X141929682Y-117316414D01*
X141892060Y-117315974D01*
X141346836Y-117308931D01*
X141509473Y-117393167D01*
X141593219Y-117432538D01*
X141670810Y-117453699D01*
X141765574Y-117458210D01*
X141900838Y-117447630D01*
X142052723Y-117429495D01*
X142229245Y-117411151D01*
X142380028Y-117402538D01*
X142482015Y-117404674D01*
X142506063Y-117409496D01*
X142554793Y-117450013D01*
X142533919Y-117499049D01*
X142455460Y-117548611D01*
X142331438Y-117590704D01*
X142197291Y-117614858D01*
X142061719Y-117636078D01*
X141962688Y-117661792D01*
X141927024Y-117681421D01*
X141917202Y-117766276D01*
X141979112Y-117853587D01*
X142102590Y-117930685D01*
X142139133Y-117945833D01*
X142269695Y-118012010D01*
X142318974Y-118078466D01*
X142286311Y-118142981D01*
X142210852Y-118187354D01*
X142101477Y-118252306D01*
X141989931Y-118342038D01*
X141982050Y-118349601D01*
X141818201Y-118463140D01*
X141606244Y-118544862D01*
X141378489Y-118584592D01*
X141239936Y-118583338D01*
X141023081Y-118527520D01*
X140836473Y-118401619D01*
X140673156Y-118200429D01*
X140627980Y-118125175D01*
X140509762Y-117954981D01*
X140342630Y-117764599D01*
X140149345Y-117576249D01*
X139952667Y-117412151D01*
X139779366Y-117296717D01*
X139648228Y-117205400D01*
X139590603Y-117106261D01*
X139601674Y-116981536D01*
X139657965Y-116849020D01*
X139721062Y-116710423D01*
X139737328Y-116615837D01*
X139705976Y-116539883D01*
X139646387Y-116475765D01*
X139549053Y-116384324D01*
X139438281Y-116471457D01*
X139327510Y-116558590D01*
X139287772Y-116454073D01*
X139216862Y-116347360D01*
X139116703Y-116286232D01*
X139018049Y-116286637D01*
X138965398Y-116347810D01*
X138956553Y-116462152D01*
X138992769Y-116611246D01*
X138995449Y-116618399D01*
X139016055Y-116679011D01*
X139007898Y-116693726D01*
X138959962Y-116658972D01*
X138867638Y-116576965D01*
X138750340Y-116480607D01*
X138668973Y-116445446D01*
X138605393Y-116469344D01*
X138548500Y-116539402D01*
X138518310Y-116601499D01*
X138530263Y-116660364D01*
X138591882Y-116745137D01*
X138605962Y-116761995D01*
X138671212Y-116842930D01*
X138683285Y-116871640D01*
X138644893Y-116857641D01*
X138631173Y-116850433D01*
X138523853Y-116811747D01*
X138456599Y-116802525D01*
X138377485Y-116834857D01*
X138301551Y-116911013D01*
X138254224Y-116999733D01*
X138252151Y-117053882D01*
X136267087Y-117053882D01*
X136266836Y-116948263D01*
X136090930Y-117288752D01*
X135932620Y-117560947D01*
X135772818Y-117760954D01*
X135600930Y-117899365D01*
X135406364Y-117986773D01*
X135387054Y-117992595D01*
X135167495Y-118056422D01*
X135435880Y-118319575D01*
X135662795Y-118575580D01*
X135826367Y-118841177D01*
X135839813Y-118868938D01*
X135975360Y-119155148D01*
X135975360Y-119863017D01*
X135971809Y-120214077D01*
X135961522Y-120512101D01*
X135945052Y-120750782D01*
X135922951Y-120923816D01*
X135895773Y-121024899D01*
X135871386Y-121049738D01*
X135832351Y-121016369D01*
X135772894Y-120931465D01*
X135738622Y-120872771D01*
X135616694Y-120712855D01*
X135438917Y-120561445D01*
X135412797Y-120543574D01*
X135308575Y-120479189D01*
X135158980Y-120393265D01*
X134978776Y-120293581D01*
X134782728Y-120187918D01*
X134585600Y-120084056D01*
X134402158Y-119989772D01*
X134247167Y-119912848D01*
X134135390Y-119861064D01*
X134081684Y-119842197D01*
X134036978Y-119880153D01*
X133994219Y-119979519D01*
X133959729Y-120118540D01*
X133939832Y-120275463D01*
X133937372Y-120338747D01*
X133939780Y-120486426D01*
X133948210Y-120683379D01*
X133961085Y-120895952D01*
X133967523Y-120982854D01*
X134000014Y-121394822D01*
X133821785Y-121235105D01*
X133689477Y-121108289D01*
X133578837Y-120979613D01*
X133484211Y-120836848D01*
X133399945Y-120667765D01*
X133320386Y-120460134D01*
X133239880Y-120201727D01*
X133152774Y-119880313D01*
X133100851Y-119675640D01*
X133043830Y-119469884D01*
X132979050Y-119271286D01*
X132916235Y-119108292D01*
X132883053Y-119038531D01*
X132805697Y-118923307D01*
X132705103Y-118808904D01*
X132597880Y-118709891D01*
X132500634Y-118640840D01*
X132429972Y-118616321D01*
X132410791Y-118624193D01*
X132381824Y-118681656D01*
X132346563Y-118785481D01*
X132337680Y-118816926D01*
X132317629Y-118924260D01*
X132324372Y-119029387D01*
X132361622Y-119164659D01*
X132385489Y-119233319D01*
X132456715Y-119526169D01*
X132474983Y-119839252D01*
X132440966Y-120143611D01*
X132358284Y-120403911D01*
X132296450Y-120525198D01*
X132241990Y-120608357D01*
X132211795Y-120633345D01*
X132171316Y-120601204D01*
X132097649Y-120515118D01*
X132003570Y-120390588D01*
X131954455Y-120321050D01*
X131856873Y-120183780D01*
X131776028Y-120077251D01*
X131723852Y-120016851D01*
X131712325Y-120008754D01*
X131684979Y-120044410D01*
X131639408Y-120137500D01*
X131590017Y-120256504D01*
X131504507Y-120434496D01*
X131386914Y-120591670D01*
X131253290Y-120724946D01*
X131123737Y-120835308D01*
X130976419Y-120947798D01*
X130827128Y-121052014D01*
X130691654Y-121137556D01*
X130585789Y-121194024D01*
X130525324Y-121211017D01*
X130519491Y-121208241D01*
X130508047Y-121160648D01*
X130493939Y-121049781D01*
X130479495Y-120895491D01*
X130473282Y-120814049D01*
X130468431Y-120510564D01*
X130505949Y-120261740D01*
X130592045Y-120047220D01*
X130732933Y-119846644D01*
X130786960Y-119785989D01*
X130978639Y-119579851D01*
X130853721Y-119607425D01*
X130565099Y-119653762D01*
X130285210Y-119666855D01*
X130031440Y-119648004D01*
X129821178Y-119598510D01*
X129671812Y-119519672D01*
X129670936Y-119518949D01*
X129627868Y-119479113D01*
X129618496Y-119443495D01*
X129651299Y-119395914D01*
X129734756Y-119320191D01*
X129807036Y-119259246D01*
X130152071Y-118968308D01*
X130437651Y-118723929D01*
X130669417Y-118520728D01*
X130853010Y-118353320D01*
X130994070Y-118216323D01*
X131098236Y-118104355D01*
X131171150Y-118012031D01*
X131218451Y-117933970D01*
X131235152Y-117896314D01*
X131297618Y-117641111D01*
X131314154Y-117323294D01*
X131285044Y-116949526D01*
X131210572Y-116526473D01*
X131169246Y-116349370D01*
X131091030Y-115992928D01*
X131050702Y-115695548D01*
X131048407Y-115442053D01*
X131084294Y-115217270D01*
X131158509Y-115006022D01*
X131182778Y-114954141D01*
X131285365Y-114781363D01*
X131420264Y-114604083D01*
X131566845Y-114446062D01*
X131704482Y-114331059D01*
X131745425Y-114306060D01*
X131784097Y-114291761D01*
X131792033Y-114312555D01*
X131765903Y-114378991D01*
X131702382Y-114501619D01*
X131658293Y-114582340D01*
X131569397Y-114750553D01*
X131516227Y-114875700D01*
X131490439Y-114985379D01*
X131483686Y-115107183D01*
X131484276Y-115157771D01*
X131509305Y-115365152D01*
X131569450Y-115591587D01*
X131654171Y-115807606D01*
X131752930Y-115983739D01*
X131801408Y-116044586D01*
X131899975Y-116123944D01*
X132053966Y-116218696D01*
X132240066Y-116317116D01*
X132434959Y-116407477D01*
X132615332Y-116478052D01*
X132729920Y-116511594D01*
X132965029Y-116533867D01*
X133157225Y-116512108D01*
X133327815Y-116463204D01*
X133476295Y-116377232D01*
X133617593Y-116241803D01*
X133766638Y-116044528D01*
X133822417Y-115960099D01*
X133903418Y-115840165D01*
X133968660Y-115754137D01*
X134004265Y-115720286D01*
X134004593Y-115720266D01*
X134031837Y-115755834D01*
X134059398Y-115842392D01*
X134060443Y-115847062D01*
X134105445Y-115950834D01*
X134189166Y-116074173D01*
X134244681Y-116138538D01*
X134339009Y-116230459D01*
X134422265Y-116286309D01*
X134504704Y-116301928D01*
X134596580Y-116273160D01*
X134708147Y-116195847D01*
X134849661Y-116065832D01*
X135031376Y-115878956D01*
X135121754Y-115782937D01*
X135282039Y-115613438D01*
X135423297Y-115467096D01*
X135535512Y-115354046D01*
X135608666Y-115284425D01*
X135631836Y-115266811D01*
X135656202Y-115297956D01*
X135663258Y-115355558D01*
X135678878Y-115442547D01*
X135719297Y-115574438D01*
X135766368Y-115699082D01*
X135821572Y-115855948D01*
X135858955Y-116005909D01*
X135869359Y-116094656D01*
X135842099Y-116265629D01*
X135771397Y-116448131D01*
X135674104Y-116603306D01*
X135627307Y-116652831D01*
X135562585Y-116720310D01*
X135538147Y-116763679D01*
X135575914Y-116794311D01*
X135673988Y-116817771D01*
X135809529Y-116831549D01*
X135959694Y-116833136D01*
X136080266Y-116823234D01*
X136287655Y-116794710D01*
X136287655Y-115472793D01*
X136754887Y-115461020D01*
X137022432Y-115454278D01*
X137953229Y-115454278D01*
X137992904Y-115458828D01*
X138104070Y-115462865D01*
X138274942Y-115466188D01*
X138493733Y-115468599D01*
X138748658Y-115469897D01*
X138884734Y-115470066D01*
X139816239Y-115470066D01*
X142283721Y-115470066D01*
X144105100Y-115470066D01*
X144069274Y-115272279D01*
X144001720Y-114994802D01*
X143912294Y-114793142D01*
X143798531Y-114662131D01*
X143768176Y-114641147D01*
X143518039Y-114533971D01*
X143238214Y-114497157D01*
X142943389Y-114530595D01*
X142648254Y-114634178D01*
X142616836Y-114649630D01*
X142443363Y-114773884D01*
X142334957Y-114941945D01*
X142287082Y-115162010D01*
X142283786Y-115251459D01*
X142283721Y-115470066D01*
X139816239Y-115470066D01*
X139844564Y-115182618D01*
X139895727Y-114829614D01*
X139976371Y-114477507D01*
X140078887Y-114154977D01*
X140178746Y-113923113D01*
X140319124Y-113646159D01*
X140211838Y-113485900D01*
X140108288Y-113342919D01*
X139967152Y-113163450D01*
X139807118Y-112969789D01*
X139646873Y-112784235D01*
X139505103Y-112629084D01*
X139431933Y-112555312D01*
X139279029Y-112409574D01*
X139305883Y-112576132D01*
X139331396Y-112725100D01*
X139362383Y-112894137D01*
X139371672Y-112942525D01*
X139407366Y-113229196D01*
X139390356Y-113467584D01*
X139323613Y-113666428D01*
X139265876Y-113771573D01*
X139217177Y-113836273D01*
X139200695Y-113846132D01*
X139159362Y-113814538D01*
X139089629Y-113732819D01*
X139027567Y-113648345D01*
X138890363Y-113450558D01*
X138866494Y-113596295D01*
X138857742Y-113704528D01*
X138855093Y-113866761D01*
X138858811Y-114053921D01*
X138861769Y-114122034D01*
X138868606Y-114377431D01*
X138858662Y-114557467D01*
X138830877Y-114668563D01*
X138784192Y-114717138D01*
X138762938Y-114720558D01*
X138642605Y-114682092D01*
X138518443Y-114575405D01*
X138404734Y-114413557D01*
X138383331Y-114373410D01*
X138322678Y-114264920D01*
X138277645Y-114217604D01*
X138244619Y-114236249D01*
X138219992Y-114325645D01*
X138200151Y-114490582D01*
X138188773Y-114631464D01*
X138150333Y-114922923D01*
X138078878Y-115161402D01*
X138058277Y-115209036D01*
X138002796Y-115332619D01*
X137964726Y-115422007D01*
X137953229Y-115454278D01*
X137022432Y-115454278D01*
X137222119Y-115449246D01*
X137396958Y-115012033D01*
X137467371Y-114832264D01*
X137524853Y-114678510D01*
X137562906Y-114568618D01*
X137575137Y-114522771D01*
X137561556Y-114480037D01*
X137506979Y-114480268D01*
X137402850Y-114525894D01*
X137245360Y-114616459D01*
X137120621Y-114690075D01*
X137025057Y-114742469D01*
X136979668Y-114762197D01*
X136966891Y-114724098D01*
X136957668Y-114623929D01*
X136953896Y-114482882D01*
X136953885Y-114474233D01*
X136956053Y-114320747D01*
X136969962Y-114221826D01*
X137006719Y-114148756D01*
X137077431Y-114072826D01*
X137127046Y-114026610D01*
X137232452Y-113927547D01*
X137374619Y-113791419D01*
X137531139Y-113639764D01*
X137621351Y-113551521D01*
X137767078Y-113415039D01*
X137905271Y-113297253D01*
X138017302Y-113213453D01*
X138070078Y-113183244D01*
X138178779Y-113099915D01*
X138258445Y-112969929D01*
X138286344Y-112840574D01*
X138255390Y-112803328D01*
X138179604Y-112804081D01*
X138084604Y-112836420D01*
X137996004Y-112893929D01*
X137970524Y-112919656D01*
X137758026Y-113167388D01*
X137587874Y-113362785D01*
X137448257Y-113516777D01*
X137327364Y-113640295D01*
X137213386Y-113744269D01*
X137094512Y-113839629D01*
X136958931Y-113937305D01*
X136794834Y-114048228D01*
X136641590Y-114149560D01*
X136017000Y-114561583D01*
X135205032Y-114540540D01*
X134821926Y-114527463D01*
X134508771Y-114508300D01*
X134252304Y-114480303D01*
X134039266Y-114440723D01*
X133856393Y-114386814D01*
X133690426Y-114315828D01*
X133528102Y-114225016D01*
X133453833Y-114177687D01*
X133206367Y-113989731D01*
X132990841Y-113767774D01*
X132800981Y-113501761D01*
X132630512Y-113181634D01*
X132473160Y-112797335D01*
X132337714Y-112388754D01*
X132256943Y-112137686D01*
X132163939Y-111871159D01*
X132070277Y-111621211D01*
X131988517Y-111422120D01*
X131908020Y-111242438D01*
X131842881Y-111116146D01*
X131775363Y-111021429D01*
X131687728Y-110936474D01*
X131562241Y-110839465D01*
X131446803Y-110755890D01*
X131328338Y-110667789D01*
X131221122Y-110579934D01*
X131115720Y-110482226D01*
X131002695Y-110364563D01*
X130872614Y-110216845D01*
X130716039Y-110028970D01*
X130523537Y-109790838D01*
X130395237Y-109630148D01*
X130213258Y-109400804D01*
X130050668Y-109194344D01*
X129914013Y-109019208D01*
X129809839Y-108883834D01*
X129744692Y-108796663D01*
X129725069Y-108766132D01*
X129770350Y-108775137D01*
X129879479Y-108799555D01*
X130035295Y-108835483D01*
X130191870Y-108872218D01*
X130435325Y-108924847D01*
X130621965Y-108952531D01*
X130773582Y-108957822D01*
X130861791Y-108950699D01*
X130984466Y-108930751D01*
X131064692Y-108908843D01*
X131082737Y-108895825D01*
X131072338Y-108845144D01*
X131044872Y-108736355D01*
X131005934Y-108591485D01*
X130999459Y-108568035D01*
X130948321Y-108368183D01*
X130924060Y-108212965D01*
X130926820Y-108070311D01*
X130956747Y-107908151D01*
X131003228Y-107732536D01*
X131051208Y-107541392D01*
X131069118Y-107400766D01*
X131057623Y-107283773D01*
X131017388Y-107163533D01*
X131017304Y-107163331D01*
X131008260Y-107123289D01*
X131039782Y-107130528D01*
X131121825Y-107188476D01*
X131147277Y-107208085D01*
X131260087Y-107289050D01*
X131416776Y-107393057D01*
X131589092Y-107501529D01*
X131644868Y-107535315D01*
X131822918Y-107649515D01*
X132000014Y-107775666D01*
X132144453Y-107890874D01*
X132173986Y-107917364D01*
X132281280Y-108011789D01*
X132367497Y-108077739D01*
X132410660Y-108099902D01*
X132449679Y-108068108D01*
X132525749Y-107981566D01*
X132627857Y-107853533D01*
X132743727Y-107698998D01*
X133036122Y-107298095D01*
X133145142Y-107542851D01*
X133259177Y-107803007D01*
X133343156Y-108007329D01*
X133403345Y-108174924D01*
X133446007Y-108324901D01*
X133477406Y-108476367D01*
X133501031Y-108628450D01*
X133527280Y-108853847D01*
X133533200Y-109032023D01*
X133519020Y-109196459D01*
X133505450Y-109278661D01*
X133466908Y-109512982D01*
X133453866Y-109689017D01*
X133470472Y-109828973D01*
X133520875Y-109955059D01*
X133609225Y-110089484D01*
X133672102Y-110170759D01*
X133888025Y-110442112D01*
X134033597Y-110051745D01*
X134129864Y-109746611D01*
X134185573Y-109444941D01*
X134201840Y-109126745D01*
X134179782Y-108772032D01*
X134126170Y-108393742D01*
X134086409Y-108118927D01*
X134059143Y-107845151D01*
X134045015Y-107589505D01*
X134044667Y-107369078D01*
X134058741Y-107200963D01*
X134078376Y-107121377D01*
X134082987Y-107007669D01*
X134049418Y-106915581D01*
X134009570Y-106818084D01*
X133959091Y-106667913D01*
X133907281Y-106493253D01*
X133894136Y-106445043D01*
X133849138Y-106266781D01*
X133826763Y-106139498D01*
X133825072Y-106034600D01*
X133842130Y-105923491D01*
X133854906Y-105865995D01*
X133908610Y-105634968D01*
X133734444Y-105653209D01*
X133594243Y-105651665D01*
X133447634Y-105610438D01*
X133330409Y-105557442D01*
X133209938Y-105494245D01*
X133133548Y-105436267D01*
X133081757Y-105359224D01*
X133035082Y-105238831D01*
X133007704Y-105155189D01*
X132970822Y-105015810D01*
X132940746Y-104856935D01*
X132919673Y-104699032D01*
X132909798Y-104562571D01*
X132913317Y-104468020D01*
X132930507Y-104435640D01*
X132973652Y-104451237D01*
X133070954Y-104491970D01*
X133190753Y-104544343D01*
X133360821Y-104604618D01*
X133537288Y-104631981D01*
X133734750Y-104625193D01*
X133967801Y-104583015D01*
X134251033Y-104504206D01*
X134457028Y-104436819D01*
X134694406Y-104358186D01*
X134870864Y-104306752D01*
X135003286Y-104280017D01*
X135108555Y-104275483D01*
X135203555Y-104290649D01*
X135281867Y-104314715D01*
X135391039Y-104337733D01*
X135509798Y-104323467D01*
X135607793Y-104293895D01*
X135763743Y-104249354D01*
X135907461Y-104232455D01*
X136063496Y-104244255D01*
X136256396Y-104285809D01*
X136410243Y-104328421D01*
X136595664Y-104387225D01*
X136729491Y-104446191D01*
X136841731Y-104522100D01*
X136962395Y-104631731D01*
X136975185Y-104644311D01*
X137084403Y-104758780D01*
X137161638Y-104862762D01*
X137221875Y-104982882D01*
X137280101Y-105145768D01*
X137308574Y-105236639D01*
X137360791Y-105412213D01*
X137392019Y-105544111D01*
X137404805Y-105661710D01*
X137401698Y-105794390D01*
X137385245Y-105971529D01*
X137378070Y-106037897D01*
X137309252Y-106456779D01*
X137201559Y-106822012D01*
X137058009Y-107125576D01*
X136881620Y-107359451D01*
X136880296Y-107360804D01*
X136786781Y-107459865D01*
X136726703Y-107530820D01*
X136712816Y-107558580D01*
X136713088Y-107558591D01*
X136760496Y-107544321D01*
X136868420Y-107505655D01*
X137019926Y-107448801D01*
X137167202Y-107392033D01*
X137342550Y-107324718D01*
X137488912Y-107270444D01*
X137589168Y-107235437D01*
X137625098Y-107225476D01*
X137628847Y-107262481D01*
X137612922Y-107361396D01*
X137580584Y-107504075D01*
X137562391Y-107574560D01*
X137491849Y-107791716D01*
X137399282Y-107977097D01*
X137272778Y-108144989D01*
X137100422Y-108309675D01*
X136870301Y-108485441D01*
X136712562Y-108593500D01*
X136466288Y-108763285D01*
X136228216Y-108937739D01*
X136008024Y-109108760D01*
X135815389Y-109268251D01*
X135659988Y-109408111D01*
X135551498Y-109520242D01*
X135499597Y-109596544D01*
X135496508Y-109611278D01*
X135530116Y-109608318D01*
X135620545Y-109571123D01*
X135752203Y-109506587D01*
X135846442Y-109456553D01*
X135998649Y-109374535D01*
X136121376Y-109310191D01*
X136197775Y-109272259D01*
X136214212Y-109265804D01*
X136220923Y-109303270D01*
X136219395Y-109399814D01*
X136213362Y-109491136D01*
X136214868Y-109629621D01*
X136236060Y-109781785D01*
X136271060Y-109925099D01*
X136313992Y-110037035D01*
X136358979Y-110095062D01*
X136371802Y-110098591D01*
X136414743Y-110067466D01*
X136468626Y-109998425D01*
X136559432Y-109918909D01*
X136714370Y-109844350D01*
X136914304Y-109780992D01*
X137140098Y-109735080D01*
X137339049Y-109714382D01*
X137479681Y-109709970D01*
X137580486Y-109713008D01*
X137620093Y-109722830D01*
X137620114Y-109723127D01*
X137601436Y-109796434D01*
X137552215Y-109921188D01*
X137482668Y-110076213D01*
X137403017Y-110240334D01*
X137323478Y-110392378D01*
X137254272Y-110511170D01*
X137211442Y-110569932D01*
X137117947Y-110646416D01*
X136977296Y-110737054D01*
X136818820Y-110823057D01*
X136808147Y-110828258D01*
X136668578Y-110897938D01*
X136596384Y-110941727D01*
X136594636Y-110961561D01*
X136666403Y-110959375D01*
X136814753Y-110937105D01*
X136944735Y-110914382D01*
X137139949Y-110886920D01*
X137298870Y-110878978D01*
X137407171Y-110890233D01*
X137450525Y-110920360D01*
X137450625Y-110925822D01*
X137428545Y-110971846D01*
X137373361Y-111067578D01*
X137296863Y-111192587D01*
X137294298Y-111196679D01*
X137120296Y-111410346D01*
X136884484Y-111591450D01*
X136581323Y-111743169D01*
X136205275Y-111868681D01*
X136057260Y-111906565D01*
X135743806Y-111983725D01*
X135502395Y-112049042D01*
X135323295Y-112106425D01*
X135196772Y-112159784D01*
X135113094Y-112213027D01*
X135062529Y-112270065D01*
X135041556Y-112314535D01*
X135014598Y-112406495D01*
X135009566Y-112456543D01*
X135010467Y-112457905D01*
X135055707Y-112467899D01*
X135162406Y-112481462D01*
X135308977Y-112495918D01*
X135334553Y-112498123D01*
X135698780Y-112487494D01*
X136074531Y-112395917D01*
X136459506Y-112224569D01*
X136851401Y-111974624D01*
X137247916Y-111647257D01*
X137516016Y-111384154D01*
X137691708Y-111194793D01*
X137869619Y-110992877D01*
X138029941Y-110801490D01*
X138152865Y-110643719D01*
X138161426Y-110631945D01*
X138272505Y-110487267D01*
X138389660Y-110357663D01*
X138529322Y-110227717D01*
X138707921Y-110082016D01*
X138914452Y-109925476D01*
X139100476Y-109788166D01*
X139267762Y-109666157D01*
X139402726Y-109569245D01*
X139491784Y-109507228D01*
X139515727Y-109491856D01*
X139552757Y-109461956D01*
X139545205Y-109427377D01*
X139483559Y-109373552D01*
X139399826Y-109314350D01*
X139289105Y-109234363D01*
X139208402Y-109169028D01*
X139182173Y-109141829D01*
X139196364Y-109096726D01*
X139272063Y-109041901D01*
X139389469Y-108985648D01*
X139528785Y-108936262D01*
X139670211Y-108902038D01*
X139780781Y-108891050D01*
X139933533Y-108878714D01*
X140048384Y-108832129D01*
X140123228Y-108776541D01*
X140196587Y-108720733D01*
X140269737Y-108686292D01*
X140365811Y-108667748D01*
X140507942Y-108659631D01*
X140626769Y-108657467D01*
X140827027Y-108650417D01*
X140960487Y-108633447D01*
X141043307Y-108603916D01*
X141069023Y-108585231D01*
X141177932Y-108533663D01*
X141337362Y-108514831D01*
X141521062Y-108529197D01*
X141694757Y-108574236D01*
X141809613Y-108612302D01*
X141883368Y-108616835D01*
X141952221Y-108585281D01*
X141999562Y-108552725D01*
X142085426Y-108502185D01*
X142175107Y-108482243D01*
X142301683Y-108487516D01*
X142359509Y-108494159D01*
X142518672Y-108511149D01*
X142675091Y-108520661D01*
X142855765Y-108523583D01*
X143087695Y-108520805D01*
X143137328Y-108519760D01*
X143349661Y-108540944D01*
X143566618Y-108604860D01*
X143705323Y-108655487D01*
X143805884Y-108672131D01*
X143904381Y-108658571D01*
X143952224Y-108645255D01*
X144156634Y-108616459D01*
X144373158Y-108653589D01*
X144616131Y-108759350D01*
X144646754Y-108776224D01*
X144779674Y-108860258D01*
X144847858Y-108930757D01*
X144865360Y-108994737D01*
X144877422Y-109083379D01*
X144908883Y-109219834D01*
X144948214Y-109358724D01*
X144985424Y-109470150D01*
X145026655Y-109561267D01*
X145083674Y-109647313D01*
X145168247Y-109743524D01*
X145292139Y-109865140D01*
X145458296Y-110019297D01*
X145816416Y-110345229D01*
X146124368Y-110618107D01*
X146390615Y-110844016D01*
X146623623Y-111029043D01*
X146831855Y-111179273D01*
X147023778Y-111300791D01*
X147207854Y-111399685D01*
X147392549Y-111482038D01*
X147586327Y-111553937D01*
X147598635Y-111558121D01*
X147859845Y-111636470D01*
X148136943Y-111702195D01*
X148415995Y-111753756D01*
X148683068Y-111789611D01*
X148924228Y-111808221D01*
X149125541Y-111808045D01*
X149273074Y-111787543D01*
X149347349Y-111751465D01*
X149324621Y-111724887D01*
X149246779Y-111676266D01*
X149135263Y-111616343D01*
X149011512Y-111555864D01*
X148896965Y-111505572D01*
X148813062Y-111476211D01*
X148791041Y-111472689D01*
X148720721Y-111459188D01*
X148589048Y-111422446D01*
X148412777Y-111368106D01*
X148208665Y-111301811D01*
X147993468Y-111229202D01*
X147783941Y-111155924D01*
X147596842Y-111087618D01*
X147448925Y-111029928D01*
X147363721Y-110992037D01*
X147238884Y-110912632D01*
X147090821Y-110795821D01*
X146951325Y-110666714D01*
X146949754Y-110665112D01*
X146723163Y-110433738D01*
X146928934Y-110455296D01*
X147191383Y-110445223D01*
X147375333Y-110399362D01*
X147485844Y-110362595D01*
X147551019Y-110330537D01*
X147566632Y-110293247D01*
X147528455Y-110240785D01*
X147432262Y-110163212D01*
X147273826Y-110050587D01*
X147207242Y-110004090D01*
X147061772Y-109886754D01*
X146897502Y-109730184D01*
X146743893Y-109563016D01*
X146704742Y-109515640D01*
X146590690Y-109370496D01*
X146524734Y-109276873D01*
X146500851Y-109222994D01*
X146513019Y-109197081D01*
X146537972Y-109189563D01*
X146633244Y-109192121D01*
X146788311Y-109216353D01*
X146983858Y-109257916D01*
X147200572Y-109312465D01*
X147419136Y-109375656D01*
X147540629Y-109415062D01*
X147687765Y-109463643D01*
X147804064Y-109499336D01*
X147867250Y-109515354D01*
X147870686Y-109515640D01*
X147893947Y-109478561D01*
X147903452Y-109383095D01*
X147899735Y-109252899D01*
X147883330Y-109111630D01*
X147858993Y-108997551D01*
X147795846Y-108857074D01*
X147701261Y-108729301D01*
X147687772Y-108716026D01*
X147562127Y-108598655D01*
X147691940Y-108553402D01*
X147779647Y-108515351D01*
X147819478Y-108483247D01*
X147819712Y-108480993D01*
X147785888Y-108448547D01*
X147696566Y-108383358D01*
X147567166Y-108296338D01*
X147476187Y-108237861D01*
X147221224Y-108069603D01*
X147018204Y-107915691D01*
X146843882Y-107754667D01*
X146675013Y-107565073D01*
X146489690Y-107327241D01*
X146302773Y-107072627D01*
X146167822Y-106877336D01*
X146082487Y-106737562D01*
X146044418Y-106649500D01*
X146047989Y-106611918D01*
X146096321Y-106612504D01*
X146206656Y-106634796D01*
X146361776Y-106674825D01*
X146516063Y-106719855D01*
X146694180Y-106772919D01*
X146840315Y-106813706D01*
X146937868Y-106837762D01*
X146970247Y-106841682D01*
X146953870Y-106803879D01*
X146899952Y-106708736D01*
X146816018Y-106568943D01*
X146709597Y-106397190D01*
X146659033Y-106317043D01*
X146485290Y-106032482D01*
X146358548Y-105795409D01*
X146273164Y-105588781D01*
X146223494Y-105395558D01*
X146203892Y-105198699D01*
X146208716Y-104981163D01*
X146210052Y-104961452D01*
X146228765Y-104778778D01*
X146256045Y-104610798D01*
X146286656Y-104488374D01*
X146293331Y-104470588D01*
X146371955Y-104345206D01*
X146503947Y-104197995D01*
X146669491Y-104046860D01*
X146848767Y-103909710D01*
X147021958Y-103804452D01*
X147041026Y-103794991D01*
X147265652Y-103706330D01*
X147503789Y-103645286D01*
X147730143Y-103616159D01*
X147919423Y-103623249D01*
X147975603Y-103636098D01*
X148089016Y-103662132D01*
X148160501Y-103649815D01*
X148196163Y-103623984D01*
X148278000Y-103568502D01*
X148393306Y-103509780D01*
X148412455Y-103501532D01*
X148513854Y-103466827D01*
X148607334Y-103460718D01*
X148729768Y-103482745D01*
X148785685Y-103496859D01*
X148956636Y-103550183D01*
X149145012Y-103621507D01*
X149237491Y-103661820D01*
X149515485Y-103751528D01*
X149791219Y-103765423D01*
X150051861Y-103705095D01*
X150284582Y-103572135D01*
X150339614Y-103525236D01*
X150444228Y-103434096D01*
X150526861Y-103371666D01*
X150564068Y-103353017D01*
X150583274Y-103391556D01*
G36*
X134311574Y-120275696D02*
G01*
X134417347Y-120315518D01*
X134563885Y-120383806D01*
X134736274Y-120472701D01*
X134919600Y-120574345D01*
X135098950Y-120680879D01*
X135259410Y-120784443D01*
X135335175Y-120838003D01*
X135484419Y-120956935D01*
X135622571Y-121081990D01*
X135722385Y-121188307D01*
X135730748Y-121198962D01*
X135800106Y-121302434D01*
X135834894Y-121400348D01*
X135844982Y-121528438D01*
X135844005Y-121608966D01*
X135831666Y-121746824D01*
X135802629Y-121940611D01*
X135761096Y-122165641D01*
X135711270Y-122397230D01*
X135705894Y-122420219D01*
X135620505Y-122807947D01*
X135563279Y-123132046D01*
X135532563Y-123406645D01*
X135526701Y-123645873D01*
X135540328Y-123834524D01*
X135588440Y-124092276D01*
X135674057Y-124321152D01*
X135809890Y-124550563D01*
X135906997Y-124682955D01*
X136001303Y-124807534D01*
X136050527Y-124885752D01*
X136061147Y-124936650D01*
X136039637Y-124979266D01*
X136016787Y-125005711D01*
X135937381Y-125069753D01*
X135813654Y-125145547D01*
X135721603Y-125192904D01*
X135445491Y-125278011D01*
X135137472Y-125289160D01*
X134901794Y-125251499D01*
X134630759Y-125146788D01*
X134403525Y-124975212D01*
X134230134Y-124746033D01*
X134145274Y-124553601D01*
X134098247Y-124429379D01*
X134053909Y-124340451D01*
X134032563Y-124314368D01*
X133978756Y-124323708D01*
X133897347Y-124379145D01*
X133874844Y-124399530D01*
X133711739Y-124510154D01*
X133488472Y-124584225D01*
X133198840Y-124623316D01*
X132963451Y-124630722D01*
X132567237Y-124630722D01*
X132658396Y-124533688D01*
X132713574Y-124446788D01*
X132764435Y-124303203D01*
X132814735Y-124091508D01*
X132831202Y-124008167D01*
X132884457Y-123770938D01*
X132945782Y-123566382D01*
X133007984Y-123418015D01*
X133016251Y-123403239D01*
X133119653Y-123226797D01*
X133009513Y-123176614D01*
X132767980Y-123020882D01*
X132560032Y-122789352D01*
X132439849Y-122592194D01*
X132262907Y-122317537D01*
X132061546Y-122118993D01*
X131838152Y-121998777D01*
X131782900Y-121982180D01*
X131603229Y-121935867D01*
X131811426Y-121842323D01*
X131975792Y-121785152D01*
X132168304Y-121741315D01*
X132275052Y-121727059D01*
X132425111Y-121718713D01*
X132528901Y-121730899D01*
X132622572Y-121772195D01*
X132713194Y-121831049D01*
X132837814Y-121902990D01*
X133010984Y-121985369D01*
X133201753Y-122063836D01*
X133266724Y-122087640D01*
X133550402Y-122170008D01*
X133785042Y-122196946D01*
X133983263Y-122169004D01*
X134094720Y-122123679D01*
X134195668Y-122025861D01*
X134268919Y-121855589D01*
X134313652Y-121619233D01*
X134329051Y-121323159D01*
X134314296Y-120973736D01*
X134281534Y-120669786D01*
X134262749Y-120502740D01*
X134254068Y-120368112D01*
X134256519Y-120286300D01*
X134261478Y-120272200D01*
X134311574Y-120275696D01*
X134311574Y-120275696D01*
G37*
X134311574Y-120275696D02*
X134417347Y-120315518D01*
X134563885Y-120383806D01*
X134736274Y-120472701D01*
X134919600Y-120574345D01*
X135098950Y-120680879D01*
X135259410Y-120784443D01*
X135335175Y-120838003D01*
X135484419Y-120956935D01*
X135622571Y-121081990D01*
X135722385Y-121188307D01*
X135730748Y-121198962D01*
X135800106Y-121302434D01*
X135834894Y-121400348D01*
X135844982Y-121528438D01*
X135844005Y-121608966D01*
X135831666Y-121746824D01*
X135802629Y-121940611D01*
X135761096Y-122165641D01*
X135711270Y-122397230D01*
X135705894Y-122420219D01*
X135620505Y-122807947D01*
X135563279Y-123132046D01*
X135532563Y-123406645D01*
X135526701Y-123645873D01*
X135540328Y-123834524D01*
X135588440Y-124092276D01*
X135674057Y-124321152D01*
X135809890Y-124550563D01*
X135906997Y-124682955D01*
X136001303Y-124807534D01*
X136050527Y-124885752D01*
X136061147Y-124936650D01*
X136039637Y-124979266D01*
X136016787Y-125005711D01*
X135937381Y-125069753D01*
X135813654Y-125145547D01*
X135721603Y-125192904D01*
X135445491Y-125278011D01*
X135137472Y-125289160D01*
X134901794Y-125251499D01*
X134630759Y-125146788D01*
X134403525Y-124975212D01*
X134230134Y-124746033D01*
X134145274Y-124553601D01*
X134098247Y-124429379D01*
X134053909Y-124340451D01*
X134032563Y-124314368D01*
X133978756Y-124323708D01*
X133897347Y-124379145D01*
X133874844Y-124399530D01*
X133711739Y-124510154D01*
X133488472Y-124584225D01*
X133198840Y-124623316D01*
X132963451Y-124630722D01*
X132567237Y-124630722D01*
X132658396Y-124533688D01*
X132713574Y-124446788D01*
X132764435Y-124303203D01*
X132814735Y-124091508D01*
X132831202Y-124008167D01*
X132884457Y-123770938D01*
X132945782Y-123566382D01*
X133007984Y-123418015D01*
X133016251Y-123403239D01*
X133119653Y-123226797D01*
X133009513Y-123176614D01*
X132767980Y-123020882D01*
X132560032Y-122789352D01*
X132439849Y-122592194D01*
X132262907Y-122317537D01*
X132061546Y-122118993D01*
X131838152Y-121998777D01*
X131782900Y-121982180D01*
X131603229Y-121935867D01*
X131811426Y-121842323D01*
X131975792Y-121785152D01*
X132168304Y-121741315D01*
X132275052Y-121727059D01*
X132425111Y-121718713D01*
X132528901Y-121730899D01*
X132622572Y-121772195D01*
X132713194Y-121831049D01*
X132837814Y-121902990D01*
X133010984Y-121985369D01*
X133201753Y-122063836D01*
X133266724Y-122087640D01*
X133550402Y-122170008D01*
X133785042Y-122196946D01*
X133983263Y-122169004D01*
X134094720Y-122123679D01*
X134195668Y-122025861D01*
X134268919Y-121855589D01*
X134313652Y-121619233D01*
X134329051Y-121323159D01*
X134314296Y-120973736D01*
X134281534Y-120669786D01*
X134262749Y-120502740D01*
X134254068Y-120368112D01*
X134256519Y-120286300D01*
X134261478Y-120272200D01*
X134311574Y-120275696D01*
G36*
X150378043Y-119627929D02*
G01*
X150387968Y-119702125D01*
X150403398Y-119844801D01*
X150422903Y-120041447D01*
X150445052Y-120277553D01*
X150468413Y-120538609D01*
X150472543Y-120586045D01*
X150546042Y-121433992D01*
X150742597Y-121410713D01*
X150855753Y-121384865D01*
X151022639Y-121331121D01*
X151221649Y-121257079D01*
X151431179Y-121170339D01*
X151452010Y-121161201D01*
X151674261Y-121068192D01*
X151900710Y-120981999D01*
X152104901Y-120912203D01*
X152260375Y-120868387D01*
X152260889Y-120868271D01*
X152432354Y-120834121D01*
X152618161Y-120804296D01*
X152800374Y-120780722D01*
X152961060Y-120765322D01*
X153082284Y-120760021D01*
X153146112Y-120766745D01*
X153151590Y-120772678D01*
X153119571Y-120807412D01*
X153035845Y-120872508D01*
X152925019Y-120949486D01*
X152757112Y-121091770D01*
X152583158Y-121291871D01*
X152419338Y-121527350D01*
X152281830Y-121775765D01*
X152212905Y-121937107D01*
X152133510Y-122088595D01*
X152013543Y-122200414D01*
X151835533Y-122286567D01*
X151735852Y-122319491D01*
X151619030Y-122362941D01*
X151569901Y-122412261D01*
X151587137Y-122482034D01*
X151669409Y-122586843D01*
X151707701Y-122628503D01*
X151836351Y-122790263D01*
X151928495Y-122971944D01*
X151977936Y-123115590D01*
X152053973Y-123316392D01*
X152150344Y-123502074D01*
X152211636Y-123591751D01*
X152287790Y-123693719D01*
X152333754Y-123766605D01*
X152340585Y-123790033D01*
X152295756Y-123787343D01*
X152194922Y-123764634D01*
X152082464Y-123733371D01*
X151838042Y-123684242D01*
X151555253Y-123666188D01*
X151510497Y-123666479D01*
X151335287Y-123666056D01*
X151213013Y-123653385D01*
X151113512Y-123621730D01*
X151006623Y-123564354D01*
X150979595Y-123547903D01*
X150778147Y-123423950D01*
X150778147Y-123542270D01*
X150792522Y-123668875D01*
X150824616Y-123793889D01*
X150848410Y-123901693D01*
X150834184Y-124012386D01*
X150801093Y-124110457D01*
X150678570Y-124322797D01*
X150496894Y-124479978D01*
X150260604Y-124580497D01*
X149974235Y-124622853D01*
X149642326Y-124605541D01*
X149424868Y-124566261D01*
X149199506Y-124534150D01*
X148977102Y-124532722D01*
X148946016Y-124535602D01*
X148717000Y-124560871D01*
X148952994Y-124335550D01*
X149084162Y-124201965D01*
X149171074Y-124084508D01*
X149235180Y-123948566D01*
X149286108Y-123797935D01*
X149335584Y-123612437D01*
X149366495Y-123424371D01*
X149378265Y-123221409D01*
X149370320Y-122991225D01*
X149342085Y-122721492D01*
X149292983Y-122399883D01*
X149222440Y-122014071D01*
X149196725Y-121882525D01*
X149122503Y-121492569D01*
X149068984Y-121175255D01*
X149035447Y-120922749D01*
X149021170Y-120727219D01*
X149025433Y-120580830D01*
X149047513Y-120475749D01*
X149063746Y-120438579D01*
X149118945Y-120383751D01*
X149231847Y-120303848D01*
X149385249Y-120210191D01*
X149538014Y-120126464D01*
X149765092Y-119998402D01*
X149969750Y-119864744D01*
X150127913Y-119741549D01*
X150160496Y-119711208D01*
X150357043Y-119517759D01*
X150378043Y-119627929D01*
X150378043Y-119627929D01*
G37*
X150378043Y-119627929D02*
X150387968Y-119702125D01*
X150403398Y-119844801D01*
X150422903Y-120041447D01*
X150445052Y-120277553D01*
X150468413Y-120538609D01*
X150472543Y-120586045D01*
X150546042Y-121433992D01*
X150742597Y-121410713D01*
X150855753Y-121384865D01*
X151022639Y-121331121D01*
X151221649Y-121257079D01*
X151431179Y-121170339D01*
X151452010Y-121161201D01*
X151674261Y-121068192D01*
X151900710Y-120981999D01*
X152104901Y-120912203D01*
X152260375Y-120868387D01*
X152260889Y-120868271D01*
X152432354Y-120834121D01*
X152618161Y-120804296D01*
X152800374Y-120780722D01*
X152961060Y-120765322D01*
X153082284Y-120760021D01*
X153146112Y-120766745D01*
X153151590Y-120772678D01*
X153119571Y-120807412D01*
X153035845Y-120872508D01*
X152925019Y-120949486D01*
X152757112Y-121091770D01*
X152583158Y-121291871D01*
X152419338Y-121527350D01*
X152281830Y-121775765D01*
X152212905Y-121937107D01*
X152133510Y-122088595D01*
X152013543Y-122200414D01*
X151835533Y-122286567D01*
X151735852Y-122319491D01*
X151619030Y-122362941D01*
X151569901Y-122412261D01*
X151587137Y-122482034D01*
X151669409Y-122586843D01*
X151707701Y-122628503D01*
X151836351Y-122790263D01*
X151928495Y-122971944D01*
X151977936Y-123115590D01*
X152053973Y-123316392D01*
X152150344Y-123502074D01*
X152211636Y-123591751D01*
X152287790Y-123693719D01*
X152333754Y-123766605D01*
X152340585Y-123790033D01*
X152295756Y-123787343D01*
X152194922Y-123764634D01*
X152082464Y-123733371D01*
X151838042Y-123684242D01*
X151555253Y-123666188D01*
X151510497Y-123666479D01*
X151335287Y-123666056D01*
X151213013Y-123653385D01*
X151113512Y-123621730D01*
X151006623Y-123564354D01*
X150979595Y-123547903D01*
X150778147Y-123423950D01*
X150778147Y-123542270D01*
X150792522Y-123668875D01*
X150824616Y-123793889D01*
X150848410Y-123901693D01*
X150834184Y-124012386D01*
X150801093Y-124110457D01*
X150678570Y-124322797D01*
X150496894Y-124479978D01*
X150260604Y-124580497D01*
X149974235Y-124622853D01*
X149642326Y-124605541D01*
X149424868Y-124566261D01*
X149199506Y-124534150D01*
X148977102Y-124532722D01*
X148946016Y-124535602D01*
X148717000Y-124560871D01*
X148952994Y-124335550D01*
X149084162Y-124201965D01*
X149171074Y-124084508D01*
X149235180Y-123948566D01*
X149286108Y-123797935D01*
X149335584Y-123612437D01*
X149366495Y-123424371D01*
X149378265Y-123221409D01*
X149370320Y-122991225D01*
X149342085Y-122721492D01*
X149292983Y-122399883D01*
X149222440Y-122014071D01*
X149196725Y-121882525D01*
X149122503Y-121492569D01*
X149068984Y-121175255D01*
X149035447Y-120922749D01*
X149021170Y-120727219D01*
X149025433Y-120580830D01*
X149047513Y-120475749D01*
X149063746Y-120438579D01*
X149118945Y-120383751D01*
X149231847Y-120303848D01*
X149385249Y-120210191D01*
X149538014Y-120126464D01*
X149765092Y-119998402D01*
X149969750Y-119864744D01*
X150127913Y-119741549D01*
X150160496Y-119711208D01*
X150357043Y-119517759D01*
X150378043Y-119627929D01*
G36*
X152643357Y-113641126D02*
G01*
X152694121Y-113707443D01*
X152762122Y-113819722D01*
X152839308Y-113962784D01*
X152917629Y-114121454D01*
X152989035Y-114280555D01*
X153045475Y-114424910D01*
X153060696Y-114470722D01*
X153135301Y-114742566D01*
X153171354Y-114968616D01*
X153170927Y-115175777D01*
X153136090Y-115390955D01*
X153132677Y-115405891D01*
X153090188Y-115636043D01*
X153073966Y-115863137D01*
X153084669Y-116108801D01*
X153122955Y-116394662D01*
X153170565Y-116650422D01*
X153238456Y-116955577D01*
X153312763Y-117203663D01*
X153403909Y-117407515D01*
X153522318Y-117579967D01*
X153678412Y-117733855D01*
X153882616Y-117882014D01*
X154145352Y-118037279D01*
X154411854Y-118178938D01*
X154590981Y-118274629D01*
X154737580Y-118358906D01*
X154838641Y-118423828D01*
X154881154Y-118461455D01*
X154881270Y-118465432D01*
X154834156Y-118493507D01*
X154728838Y-118536838D01*
X154586858Y-118586676D01*
X154566926Y-118593146D01*
X154359785Y-118649660D01*
X154183357Y-118670849D01*
X154024635Y-118665082D01*
X153882129Y-118656582D01*
X153811991Y-118664789D01*
X153804701Y-118690652D01*
X153842613Y-118749646D01*
X153910774Y-118851888D01*
X153971276Y-118941214D01*
X154048748Y-119065366D01*
X154090363Y-119172228D01*
X154106785Y-119298874D01*
X154108999Y-119420066D01*
X154104332Y-119620607D01*
X154092633Y-119843730D01*
X154081898Y-119980309D01*
X154055093Y-120264159D01*
X153842768Y-120059895D01*
X153659986Y-119909669D01*
X153488396Y-119817084D01*
X153453475Y-119805604D01*
X153346624Y-119769367D01*
X153283605Y-119736342D01*
X153276433Y-119726017D01*
X153250464Y-119683155D01*
X153181645Y-119595902D01*
X153083492Y-119481176D01*
X153056527Y-119450823D01*
X152836697Y-119205186D01*
X152629799Y-119523154D01*
X152536797Y-119662731D01*
X152460542Y-119770938D01*
X152412227Y-119832189D01*
X152402082Y-119840337D01*
X152370720Y-119808073D01*
X152304721Y-119722553D01*
X152216040Y-119599550D01*
X152175409Y-119541237D01*
X151969556Y-119242922D01*
X151974982Y-118907559D01*
X151988882Y-118693359D01*
X152019929Y-118460650D01*
X152059054Y-118269899D01*
X152097424Y-118089201D01*
X152116383Y-117927131D01*
X152115434Y-117801267D01*
X152094079Y-117729189D01*
X152074651Y-117718800D01*
X152014168Y-117746116D01*
X151916159Y-117815910D01*
X151800977Y-117910778D01*
X151688973Y-118013320D01*
X151600499Y-118106133D01*
X151563576Y-118155804D01*
X151526453Y-118250007D01*
X151485526Y-118402371D01*
X151446857Y-118588366D01*
X151426690Y-118709720D01*
X151380751Y-118970567D01*
X151321841Y-119202260D01*
X151241396Y-119428607D01*
X151130849Y-119673415D01*
X150981635Y-119960493D01*
X150967006Y-119987403D01*
X150875174Y-120154393D01*
X150814523Y-120256836D01*
X150776691Y-120303477D01*
X150753316Y-120303062D01*
X150736037Y-120264336D01*
X150728160Y-120237228D01*
X150708404Y-120148445D01*
X150680253Y-119998133D01*
X150647430Y-119807158D01*
X150613661Y-119596382D01*
X150613040Y-119592361D01*
X150579277Y-119373967D01*
X150547211Y-119167596D01*
X150520534Y-118996942D01*
X150503338Y-118888201D01*
X150473885Y-118704533D01*
X150355089Y-118939467D01*
X150264595Y-119088093D01*
X150138630Y-119257412D01*
X150003490Y-119412254D01*
X149995279Y-119420710D01*
X149858177Y-119553283D01*
X149742268Y-119640721D01*
X149616191Y-119702489D01*
X149454649Y-119756250D01*
X149216667Y-119846689D01*
X149040907Y-119965579D01*
X148910502Y-120129724D01*
X148808583Y-120355926D01*
X148786242Y-120422078D01*
X148738547Y-120563693D01*
X148699426Y-120668056D01*
X148676299Y-120715597D01*
X148674564Y-120716623D01*
X148654493Y-120680712D01*
X148625395Y-120591400D01*
X148616989Y-120560476D01*
X148552817Y-120262467D01*
X148506084Y-119937566D01*
X148477495Y-119604483D01*
X148467754Y-119281927D01*
X148477568Y-118988606D01*
X148507641Y-118743231D01*
X148543233Y-118603867D01*
X148619303Y-118428712D01*
X148729997Y-118226644D01*
X148859835Y-118021581D01*
X148993341Y-117837442D01*
X149115036Y-117698145D01*
X149150181Y-117665914D01*
X149229612Y-117595180D01*
X149248562Y-117561753D01*
X149212618Y-117552245D01*
X149197709Y-117552033D01*
X149026291Y-117516580D01*
X148839162Y-117419560D01*
X148655593Y-117274978D01*
X148494858Y-117096843D01*
X148422641Y-116988738D01*
X148374669Y-116885667D01*
X148323876Y-116743216D01*
X148275922Y-116582836D01*
X148236469Y-116425980D01*
X148211177Y-116294099D01*
X148205707Y-116208647D01*
X148211934Y-116190269D01*
X148258560Y-116190906D01*
X148361574Y-116211136D01*
X148483500Y-116242469D01*
X148624430Y-116279763D01*
X148713023Y-116292584D01*
X148776625Y-116280673D01*
X148842581Y-116243767D01*
X148849936Y-116238969D01*
X148963545Y-116164530D01*
X148833239Y-116102818D01*
X148730690Y-116022344D01*
X148626860Y-115891691D01*
X148541059Y-115741367D01*
X148492595Y-115601877D01*
X148487983Y-115557333D01*
X148507039Y-115474126D01*
X148556437Y-115349320D01*
X148610164Y-115239530D01*
X148683964Y-115082364D01*
X148713208Y-114961222D01*
X148708815Y-114865563D01*
X148698803Y-114770171D01*
X148704448Y-114721981D01*
X148707295Y-114720558D01*
X148745161Y-114745733D01*
X148835901Y-114815386D01*
X148968391Y-114920707D01*
X149131508Y-115052884D01*
X149258751Y-115157326D01*
X149471083Y-115329963D01*
X149628793Y-115451138D01*
X149739298Y-115524945D01*
X149810014Y-115555478D01*
X149848358Y-115546831D01*
X149861746Y-115503100D01*
X149862082Y-115490408D01*
X149890000Y-115437407D01*
X149964988Y-115342747D01*
X150073891Y-115222288D01*
X150144921Y-115149341D01*
X150277275Y-115013576D01*
X150393920Y-114887971D01*
X150477100Y-114791898D01*
X150499764Y-114762197D01*
X150538851Y-114708969D01*
X150557987Y-114702091D01*
X150560712Y-114752847D01*
X150550572Y-114872521D01*
X150546718Y-114911733D01*
X150546617Y-115159880D01*
X150603382Y-115352503D01*
X150720076Y-115497643D01*
X150788695Y-115546996D01*
X150863308Y-115586909D01*
X150945465Y-115612957D01*
X151054521Y-115627914D01*
X151209832Y-115634555D01*
X151407652Y-115635709D01*
X151642246Y-115631833D01*
X151813218Y-115619697D01*
X151940018Y-115596956D01*
X152042094Y-115561268D01*
X152048147Y-115558531D01*
X152175616Y-115478821D01*
X152321601Y-115356007D01*
X152464207Y-115212206D01*
X152581538Y-115069539D01*
X152651697Y-114950123D01*
X152652511Y-114948013D01*
X152682104Y-114805891D01*
X152691692Y-114597917D01*
X152681349Y-114339060D01*
X152651147Y-114044290D01*
X152648012Y-114020618D01*
X152628602Y-113857811D01*
X152617396Y-113725172D01*
X152616186Y-113645596D01*
X152617881Y-113635947D01*
X152643357Y-113641126D01*
X152643357Y-113641126D01*
G37*
X152643357Y-113641126D02*
X152694121Y-113707443D01*
X152762122Y-113819722D01*
X152839308Y-113962784D01*
X152917629Y-114121454D01*
X152989035Y-114280555D01*
X153045475Y-114424910D01*
X153060696Y-114470722D01*
X153135301Y-114742566D01*
X153171354Y-114968616D01*
X153170927Y-115175777D01*
X153136090Y-115390955D01*
X153132677Y-115405891D01*
X153090188Y-115636043D01*
X153073966Y-115863137D01*
X153084669Y-116108801D01*
X153122955Y-116394662D01*
X153170565Y-116650422D01*
X153238456Y-116955577D01*
X153312763Y-117203663D01*
X153403909Y-117407515D01*
X153522318Y-117579967D01*
X153678412Y-117733855D01*
X153882616Y-117882014D01*
X154145352Y-118037279D01*
X154411854Y-118178938D01*
X154590981Y-118274629D01*
X154737580Y-118358906D01*
X154838641Y-118423828D01*
X154881154Y-118461455D01*
X154881270Y-118465432D01*
X154834156Y-118493507D01*
X154728838Y-118536838D01*
X154586858Y-118586676D01*
X154566926Y-118593146D01*
X154359785Y-118649660D01*
X154183357Y-118670849D01*
X154024635Y-118665082D01*
X153882129Y-118656582D01*
X153811991Y-118664789D01*
X153804701Y-118690652D01*
X153842613Y-118749646D01*
X153910774Y-118851888D01*
X153971276Y-118941214D01*
X154048748Y-119065366D01*
X154090363Y-119172228D01*
X154106785Y-119298874D01*
X154108999Y-119420066D01*
X154104332Y-119620607D01*
X154092633Y-119843730D01*
X154081898Y-119980309D01*
X154055093Y-120264159D01*
X153842768Y-120059895D01*
X153659986Y-119909669D01*
X153488396Y-119817084D01*
X153453475Y-119805604D01*
X153346624Y-119769367D01*
X153283605Y-119736342D01*
X153276433Y-119726017D01*
X153250464Y-119683155D01*
X153181645Y-119595902D01*
X153083492Y-119481176D01*
X153056527Y-119450823D01*
X152836697Y-119205186D01*
X152629799Y-119523154D01*
X152536797Y-119662731D01*
X152460542Y-119770938D01*
X152412227Y-119832189D01*
X152402082Y-119840337D01*
X152370720Y-119808073D01*
X152304721Y-119722553D01*
X152216040Y-119599550D01*
X152175409Y-119541237D01*
X151969556Y-119242922D01*
X151974982Y-118907559D01*
X151988882Y-118693359D01*
X152019929Y-118460650D01*
X152059054Y-118269899D01*
X152097424Y-118089201D01*
X152116383Y-117927131D01*
X152115434Y-117801267D01*
X152094079Y-117729189D01*
X152074651Y-117718800D01*
X152014168Y-117746116D01*
X151916159Y-117815910D01*
X151800977Y-117910778D01*
X151688973Y-118013320D01*
X151600499Y-118106133D01*
X151563576Y-118155804D01*
X151526453Y-118250007D01*
X151485526Y-118402371D01*
X151446857Y-118588366D01*
X151426690Y-118709720D01*
X151380751Y-118970567D01*
X151321841Y-119202260D01*
X151241396Y-119428607D01*
X151130849Y-119673415D01*
X150981635Y-119960493D01*
X150967006Y-119987403D01*
X150875174Y-120154393D01*
X150814523Y-120256836D01*
X150776691Y-120303477D01*
X150753316Y-120303062D01*
X150736037Y-120264336D01*
X150728160Y-120237228D01*
X150708404Y-120148445D01*
X150680253Y-119998133D01*
X150647430Y-119807158D01*
X150613661Y-119596382D01*
X150613040Y-119592361D01*
X150579277Y-119373967D01*
X150547211Y-119167596D01*
X150520534Y-118996942D01*
X150503338Y-118888201D01*
X150473885Y-118704533D01*
X150355089Y-118939467D01*
X150264595Y-119088093D01*
X150138630Y-119257412D01*
X150003490Y-119412254D01*
X149995279Y-119420710D01*
X149858177Y-119553283D01*
X149742268Y-119640721D01*
X149616191Y-119702489D01*
X149454649Y-119756250D01*
X149216667Y-119846689D01*
X149040907Y-119965579D01*
X148910502Y-120129724D01*
X148808583Y-120355926D01*
X148786242Y-120422078D01*
X148738547Y-120563693D01*
X148699426Y-120668056D01*
X148676299Y-120715597D01*
X148674564Y-120716623D01*
X148654493Y-120680712D01*
X148625395Y-120591400D01*
X148616989Y-120560476D01*
X148552817Y-120262467D01*
X148506084Y-119937566D01*
X148477495Y-119604483D01*
X148467754Y-119281927D01*
X148477568Y-118988606D01*
X148507641Y-118743231D01*
X148543233Y-118603867D01*
X148619303Y-118428712D01*
X148729997Y-118226644D01*
X148859835Y-118021581D01*
X148993341Y-117837442D01*
X149115036Y-117698145D01*
X149150181Y-117665914D01*
X149229612Y-117595180D01*
X149248562Y-117561753D01*
X149212618Y-117552245D01*
X149197709Y-117552033D01*
X149026291Y-117516580D01*
X148839162Y-117419560D01*
X148655593Y-117274978D01*
X148494858Y-117096843D01*
X148422641Y-116988738D01*
X148374669Y-116885667D01*
X148323876Y-116743216D01*
X148275922Y-116582836D01*
X148236469Y-116425980D01*
X148211177Y-116294099D01*
X148205707Y-116208647D01*
X148211934Y-116190269D01*
X148258560Y-116190906D01*
X148361574Y-116211136D01*
X148483500Y-116242469D01*
X148624430Y-116279763D01*
X148713023Y-116292584D01*
X148776625Y-116280673D01*
X148842581Y-116243767D01*
X148849936Y-116238969D01*
X148963545Y-116164530D01*
X148833239Y-116102818D01*
X148730690Y-116022344D01*
X148626860Y-115891691D01*
X148541059Y-115741367D01*
X148492595Y-115601877D01*
X148487983Y-115557333D01*
X148507039Y-115474126D01*
X148556437Y-115349320D01*
X148610164Y-115239530D01*
X148683964Y-115082364D01*
X148713208Y-114961222D01*
X148708815Y-114865563D01*
X148698803Y-114770171D01*
X148704448Y-114721981D01*
X148707295Y-114720558D01*
X148745161Y-114745733D01*
X148835901Y-114815386D01*
X148968391Y-114920707D01*
X149131508Y-115052884D01*
X149258751Y-115157326D01*
X149471083Y-115329963D01*
X149628793Y-115451138D01*
X149739298Y-115524945D01*
X149810014Y-115555478D01*
X149848358Y-115546831D01*
X149861746Y-115503100D01*
X149862082Y-115490408D01*
X149890000Y-115437407D01*
X149964988Y-115342747D01*
X150073891Y-115222288D01*
X150144921Y-115149341D01*
X150277275Y-115013576D01*
X150393920Y-114887971D01*
X150477100Y-114791898D01*
X150499764Y-114762197D01*
X150538851Y-114708969D01*
X150557987Y-114702091D01*
X150560712Y-114752847D01*
X150550572Y-114872521D01*
X150546718Y-114911733D01*
X150546617Y-115159880D01*
X150603382Y-115352503D01*
X150720076Y-115497643D01*
X150788695Y-115546996D01*
X150863308Y-115586909D01*
X150945465Y-115612957D01*
X151054521Y-115627914D01*
X151209832Y-115634555D01*
X151407652Y-115635709D01*
X151642246Y-115631833D01*
X151813218Y-115619697D01*
X151940018Y-115596956D01*
X152042094Y-115561268D01*
X152048147Y-115558531D01*
X152175616Y-115478821D01*
X152321601Y-115356007D01*
X152464207Y-115212206D01*
X152581538Y-115069539D01*
X152651697Y-114950123D01*
X152652511Y-114948013D01*
X152682104Y-114805891D01*
X152691692Y-114597917D01*
X152681349Y-114339060D01*
X152651147Y-114044290D01*
X152648012Y-114020618D01*
X152628602Y-113857811D01*
X152617396Y-113725172D01*
X152616186Y-113645596D01*
X152617881Y-113635947D01*
X152643357Y-113641126D01*
G36*
X131293973Y-113029392D02*
G01*
X131437869Y-113069308D01*
X131507264Y-113100773D01*
X131621372Y-113148972D01*
X131741538Y-113172768D01*
X131898956Y-113176884D01*
X131988793Y-113173642D01*
X132298948Y-113159082D01*
X132378717Y-113367279D01*
X132549631Y-113703054D01*
X132790430Y-114011626D01*
X133051130Y-114248270D01*
X133229749Y-114376563D01*
X133405734Y-114479999D01*
X133591405Y-114561613D01*
X133799082Y-114624437D01*
X134041088Y-114671506D01*
X134329744Y-114705852D01*
X134677371Y-114730509D01*
X135080776Y-114747977D01*
X135354555Y-114756933D01*
X135559499Y-114761466D01*
X135709978Y-114760637D01*
X135820363Y-114753510D01*
X135905024Y-114739148D01*
X135978331Y-114716614D01*
X136054655Y-114684970D01*
X136055984Y-114684383D01*
X136211893Y-114601872D01*
X136376542Y-114494645D01*
X136447189Y-114440826D01*
X136547954Y-114363724D01*
X136590454Y-114345359D01*
X136574631Y-114385863D01*
X136500431Y-114485368D01*
X136367795Y-114644005D01*
X136353214Y-114660927D01*
X136211274Y-114809046D01*
X136066460Y-114918806D01*
X135897941Y-115000675D01*
X135684888Y-115065119D01*
X135450487Y-115114524D01*
X135115848Y-115183108D01*
X134810958Y-115257524D01*
X134548280Y-115334053D01*
X134340276Y-115408980D01*
X134199406Y-115478586D01*
X134176346Y-115494563D01*
X134083885Y-115558614D01*
X134023133Y-115573852D01*
X133963162Y-115546341D01*
X133951870Y-115538587D01*
X133814819Y-115401859D01*
X133735370Y-115216603D01*
X133728487Y-115187359D01*
X133699704Y-115095736D01*
X133656427Y-115068531D01*
X133608659Y-115077219D01*
X133392595Y-115179095D01*
X133207588Y-115350343D01*
X133138723Y-115441684D01*
X132997493Y-115694619D01*
X132927075Y-115950127D01*
X132915101Y-116125886D01*
X132903396Y-116250005D01*
X132870107Y-116301358D01*
X132862819Y-116302344D01*
X132802846Y-116286270D01*
X132688057Y-116243860D01*
X132539521Y-116183083D01*
X132481471Y-116158080D01*
X132243280Y-116042078D01*
X132071087Y-115925868D01*
X131948845Y-115794967D01*
X131860505Y-115634895D01*
X131837426Y-115576899D01*
X131771605Y-115391242D01*
X131735692Y-115250060D01*
X131730732Y-115127368D01*
X131757769Y-114997179D01*
X131817847Y-114833507D01*
X131872558Y-114702856D01*
X131947356Y-114520515D01*
X132011111Y-114352953D01*
X132055177Y-114223529D01*
X132068900Y-114172286D01*
X132095032Y-114041626D01*
X131924849Y-114064452D01*
X131701320Y-114123829D01*
X131479922Y-114232618D01*
X131294798Y-114372600D01*
X131242337Y-114428644D01*
X131159699Y-114543979D01*
X131064985Y-114699406D01*
X130988035Y-114843065D01*
X130924331Y-114980946D01*
X130883316Y-115101978D01*
X130858916Y-115234274D01*
X130845059Y-115405945D01*
X130839628Y-115530114D01*
X130824024Y-115948918D01*
X130584286Y-116042607D01*
X130452096Y-116092046D01*
X130350455Y-116125997D01*
X130307070Y-116136295D01*
X130297054Y-116098067D01*
X130295539Y-115995829D01*
X130301056Y-115848253D01*
X130312136Y-115674007D01*
X130327313Y-115491763D01*
X130345117Y-115320191D01*
X130364080Y-115177962D01*
X130382734Y-115083745D01*
X130391699Y-115060127D01*
X130380591Y-115011830D01*
X130304505Y-114969457D01*
X130146164Y-114903833D01*
X130017545Y-114826009D01*
X129887029Y-114714721D01*
X129804833Y-114633431D01*
X129660823Y-114477877D01*
X129570278Y-114351824D01*
X129521628Y-114232756D01*
X129503303Y-114098158D01*
X129501918Y-114043918D01*
X129507970Y-113911288D01*
X129533882Y-113856306D01*
X129587413Y-113874228D01*
X129662658Y-113945608D01*
X129767548Y-114025086D01*
X129875364Y-114068936D01*
X129966997Y-114069923D01*
X130089035Y-114050627D01*
X130214938Y-114018212D01*
X130318162Y-113979842D01*
X130372165Y-113942680D01*
X130374868Y-113934119D01*
X130338746Y-113906499D01*
X130244846Y-113864036D01*
X130136046Y-113823838D01*
X130003201Y-113764946D01*
X129864870Y-113681662D01*
X129736274Y-113586587D01*
X129632634Y-113492316D01*
X129569171Y-113411448D01*
X129561106Y-113356580D01*
X129565413Y-113351554D01*
X129628903Y-113321075D01*
X129756933Y-113279108D01*
X129932307Y-113230116D01*
X130137827Y-113178565D01*
X130356298Y-113128919D01*
X130570523Y-113085643D01*
X130634073Y-113074098D01*
X130909659Y-113032324D01*
X131123764Y-113017243D01*
X131293973Y-113029392D01*
X131293973Y-113029392D01*
G37*
X131293973Y-113029392D02*
X131437869Y-113069308D01*
X131507264Y-113100773D01*
X131621372Y-113148972D01*
X131741538Y-113172768D01*
X131898956Y-113176884D01*
X131988793Y-113173642D01*
X132298948Y-113159082D01*
X132378717Y-113367279D01*
X132549631Y-113703054D01*
X132790430Y-114011626D01*
X133051130Y-114248270D01*
X133229749Y-114376563D01*
X133405734Y-114479999D01*
X133591405Y-114561613D01*
X133799082Y-114624437D01*
X134041088Y-114671506D01*
X134329744Y-114705852D01*
X134677371Y-114730509D01*
X135080776Y-114747977D01*
X135354555Y-114756933D01*
X135559499Y-114761466D01*
X135709978Y-114760637D01*
X135820363Y-114753510D01*
X135905024Y-114739148D01*
X135978331Y-114716614D01*
X136054655Y-114684970D01*
X136055984Y-114684383D01*
X136211893Y-114601872D01*
X136376542Y-114494645D01*
X136447189Y-114440826D01*
X136547954Y-114363724D01*
X136590454Y-114345359D01*
X136574631Y-114385863D01*
X136500431Y-114485368D01*
X136367795Y-114644005D01*
X136353214Y-114660927D01*
X136211274Y-114809046D01*
X136066460Y-114918806D01*
X135897941Y-115000675D01*
X135684888Y-115065119D01*
X135450487Y-115114524D01*
X135115848Y-115183108D01*
X134810958Y-115257524D01*
X134548280Y-115334053D01*
X134340276Y-115408980D01*
X134199406Y-115478586D01*
X134176346Y-115494563D01*
X134083885Y-115558614D01*
X134023133Y-115573852D01*
X133963162Y-115546341D01*
X133951870Y-115538587D01*
X133814819Y-115401859D01*
X133735370Y-115216603D01*
X133728487Y-115187359D01*
X133699704Y-115095736D01*
X133656427Y-115068531D01*
X133608659Y-115077219D01*
X133392595Y-115179095D01*
X133207588Y-115350343D01*
X133138723Y-115441684D01*
X132997493Y-115694619D01*
X132927075Y-115950127D01*
X132915101Y-116125886D01*
X132903396Y-116250005D01*
X132870107Y-116301358D01*
X132862819Y-116302344D01*
X132802846Y-116286270D01*
X132688057Y-116243860D01*
X132539521Y-116183083D01*
X132481471Y-116158080D01*
X132243280Y-116042078D01*
X132071087Y-115925868D01*
X131948845Y-115794967D01*
X131860505Y-115634895D01*
X131837426Y-115576899D01*
X131771605Y-115391242D01*
X131735692Y-115250060D01*
X131730732Y-115127368D01*
X131757769Y-114997179D01*
X131817847Y-114833507D01*
X131872558Y-114702856D01*
X131947356Y-114520515D01*
X132011111Y-114352953D01*
X132055177Y-114223529D01*
X132068900Y-114172286D01*
X132095032Y-114041626D01*
X131924849Y-114064452D01*
X131701320Y-114123829D01*
X131479922Y-114232618D01*
X131294798Y-114372600D01*
X131242337Y-114428644D01*
X131159699Y-114543979D01*
X131064985Y-114699406D01*
X130988035Y-114843065D01*
X130924331Y-114980946D01*
X130883316Y-115101978D01*
X130858916Y-115234274D01*
X130845059Y-115405945D01*
X130839628Y-115530114D01*
X130824024Y-115948918D01*
X130584286Y-116042607D01*
X130452096Y-116092046D01*
X130350455Y-116125997D01*
X130307070Y-116136295D01*
X130297054Y-116098067D01*
X130295539Y-115995829D01*
X130301056Y-115848253D01*
X130312136Y-115674007D01*
X130327313Y-115491763D01*
X130345117Y-115320191D01*
X130364080Y-115177962D01*
X130382734Y-115083745D01*
X130391699Y-115060127D01*
X130380591Y-115011830D01*
X130304505Y-114969457D01*
X130146164Y-114903833D01*
X130017545Y-114826009D01*
X129887029Y-114714721D01*
X129804833Y-114633431D01*
X129660823Y-114477877D01*
X129570278Y-114351824D01*
X129521628Y-114232756D01*
X129503303Y-114098158D01*
X129501918Y-114043918D01*
X129507970Y-113911288D01*
X129533882Y-113856306D01*
X129587413Y-113874228D01*
X129662658Y-113945608D01*
X129767548Y-114025086D01*
X129875364Y-114068936D01*
X129966997Y-114069923D01*
X130089035Y-114050627D01*
X130214938Y-114018212D01*
X130318162Y-113979842D01*
X130372165Y-113942680D01*
X130374868Y-113934119D01*
X130338746Y-113906499D01*
X130244846Y-113864036D01*
X130136046Y-113823838D01*
X130003201Y-113764946D01*
X129864870Y-113681662D01*
X129736274Y-113586587D01*
X129632634Y-113492316D01*
X129569171Y-113411448D01*
X129561106Y-113356580D01*
X129565413Y-113351554D01*
X129628903Y-113321075D01*
X129756933Y-113279108D01*
X129932307Y-113230116D01*
X130137827Y-113178565D01*
X130356298Y-113128919D01*
X130570523Y-113085643D01*
X130634073Y-113074098D01*
X130909659Y-113032324D01*
X131123764Y-113017243D01*
X131293973Y-113029392D01*
G36*
X153808926Y-112070819D02*
G01*
X153951688Y-112094520D01*
X154146544Y-112136984D01*
X154171515Y-112142698D01*
X154349224Y-112186165D01*
X154492202Y-112226292D01*
X154583815Y-112258077D01*
X154608944Y-112274246D01*
X154577900Y-112305239D01*
X154573537Y-112305476D01*
X154525928Y-112329815D01*
X154430279Y-112394639D01*
X154302972Y-112487655D01*
X154160387Y-112596569D01*
X154018904Y-112709091D01*
X153894905Y-112812927D01*
X153880278Y-112825714D01*
X153755360Y-112935635D01*
X153998373Y-112911246D01*
X154218348Y-112874715D01*
X154374254Y-112810294D01*
X154483324Y-112708133D01*
X154545900Y-112598298D01*
X154601712Y-112494404D01*
X154642014Y-112467560D01*
X154656979Y-112480920D01*
X154675730Y-112554039D01*
X154686902Y-112686141D01*
X154690742Y-112853299D01*
X154687494Y-113031584D01*
X154677403Y-113197070D01*
X154660713Y-113325828D01*
X154647832Y-113374978D01*
X154532601Y-113565391D01*
X154351365Y-113717772D01*
X154115690Y-113824392D01*
X153907139Y-113870080D01*
X153786627Y-113891267D01*
X153708914Y-113914915D01*
X153692901Y-113928321D01*
X153720841Y-113974809D01*
X153782061Y-114037465D01*
X153909063Y-114202932D01*
X153991696Y-114427129D01*
X154024728Y-114695277D01*
X154025102Y-114724028D01*
X154022094Y-114867567D01*
X154013338Y-114975456D01*
X154001432Y-115022738D01*
X153950541Y-115025500D01*
X153852944Y-115002692D01*
X153814509Y-114990046D01*
X153670207Y-114955477D01*
X153546465Y-114970129D01*
X153524673Y-114977216D01*
X153430628Y-115001447D01*
X153375630Y-114999861D01*
X153374182Y-114998670D01*
X153356604Y-114949352D01*
X153330831Y-114839519D01*
X153301842Y-114690886D01*
X153295836Y-114656916D01*
X153233956Y-114407146D01*
X153136303Y-114134348D01*
X153016221Y-113870116D01*
X152887057Y-113646042D01*
X152842214Y-113583004D01*
X152744900Y-113476747D01*
X152615575Y-113361431D01*
X152547258Y-113308889D01*
X152357367Y-113172519D01*
X152379996Y-113436456D01*
X152393901Y-113596305D01*
X152412337Y-113805058D01*
X152432290Y-114028681D01*
X152442089Y-114137607D01*
X152457255Y-114367225D01*
X152459791Y-114565778D01*
X152449605Y-114710760D01*
X152444547Y-114738309D01*
X152353357Y-114966397D01*
X152197636Y-115173833D01*
X151996037Y-115343927D01*
X151767215Y-115459990D01*
X151591851Y-115501220D01*
X151402737Y-115522536D01*
X151402737Y-115332454D01*
X151393495Y-115188900D01*
X151370418Y-115062085D01*
X151361237Y-115033218D01*
X151303007Y-114934986D01*
X151192747Y-114797152D01*
X151042719Y-114633048D01*
X150865181Y-114456007D01*
X150672393Y-114279365D01*
X150650772Y-114260522D01*
X150419299Y-114059868D01*
X150436752Y-114301145D01*
X150442668Y-114444356D01*
X150428281Y-114538490D01*
X150384213Y-114617032D01*
X150330356Y-114681031D01*
X150206509Y-114819641D01*
X149982246Y-114725134D01*
X149839216Y-114676990D01*
X149645931Y-114627996D01*
X149434963Y-114585975D01*
X149341590Y-114571233D01*
X148983542Y-114509072D01*
X148696349Y-114433141D01*
X148468134Y-114339196D01*
X148287018Y-114222991D01*
X148230185Y-114174081D01*
X148147439Y-114095191D01*
X148107303Y-114046011D01*
X148117334Y-114025003D01*
X148185091Y-114030629D01*
X148318130Y-114061351D01*
X148521156Y-114114867D01*
X148689568Y-114152994D01*
X148834198Y-114164331D01*
X148998924Y-114150868D01*
X149074198Y-114139930D01*
X149443853Y-114063839D01*
X149797684Y-113955734D01*
X150114549Y-113823404D01*
X150373306Y-113674637D01*
X150411145Y-113647414D01*
X150604323Y-113491534D01*
X150815309Y-113302173D01*
X151028760Y-113095004D01*
X151229334Y-112885701D01*
X151401689Y-112689937D01*
X151530481Y-112523387D01*
X151568223Y-112465367D01*
X151708454Y-112230916D01*
X151878301Y-112294007D01*
X152131591Y-112349350D01*
X152422523Y-112347173D01*
X152729413Y-112288401D01*
X152841645Y-112252857D01*
X153044130Y-112189548D01*
X153270524Y-112130597D01*
X153434789Y-112095871D01*
X153576318Y-112073137D01*
X153692416Y-112064239D01*
X153808926Y-112070819D01*
X153808926Y-112070819D01*
G37*
X153808926Y-112070819D02*
X153951688Y-112094520D01*
X154146544Y-112136984D01*
X154171515Y-112142698D01*
X154349224Y-112186165D01*
X154492202Y-112226292D01*
X154583815Y-112258077D01*
X154608944Y-112274246D01*
X154577900Y-112305239D01*
X154573537Y-112305476D01*
X154525928Y-112329815D01*
X154430279Y-112394639D01*
X154302972Y-112487655D01*
X154160387Y-112596569D01*
X154018904Y-112709091D01*
X153894905Y-112812927D01*
X153880278Y-112825714D01*
X153755360Y-112935635D01*
X153998373Y-112911246D01*
X154218348Y-112874715D01*
X154374254Y-112810294D01*
X154483324Y-112708133D01*
X154545900Y-112598298D01*
X154601712Y-112494404D01*
X154642014Y-112467560D01*
X154656979Y-112480920D01*
X154675730Y-112554039D01*
X154686902Y-112686141D01*
X154690742Y-112853299D01*
X154687494Y-113031584D01*
X154677403Y-113197070D01*
X154660713Y-113325828D01*
X154647832Y-113374978D01*
X154532601Y-113565391D01*
X154351365Y-113717772D01*
X154115690Y-113824392D01*
X153907139Y-113870080D01*
X153786627Y-113891267D01*
X153708914Y-113914915D01*
X153692901Y-113928321D01*
X153720841Y-113974809D01*
X153782061Y-114037465D01*
X153909063Y-114202932D01*
X153991696Y-114427129D01*
X154024728Y-114695277D01*
X154025102Y-114724028D01*
X154022094Y-114867567D01*
X154013338Y-114975456D01*
X154001432Y-115022738D01*
X153950541Y-115025500D01*
X153852944Y-115002692D01*
X153814509Y-114990046D01*
X153670207Y-114955477D01*
X153546465Y-114970129D01*
X153524673Y-114977216D01*
X153430628Y-115001447D01*
X153375630Y-114999861D01*
X153374182Y-114998670D01*
X153356604Y-114949352D01*
X153330831Y-114839519D01*
X153301842Y-114690886D01*
X153295836Y-114656916D01*
X153233956Y-114407146D01*
X153136303Y-114134348D01*
X153016221Y-113870116D01*
X152887057Y-113646042D01*
X152842214Y-113583004D01*
X152744900Y-113476747D01*
X152615575Y-113361431D01*
X152547258Y-113308889D01*
X152357367Y-113172519D01*
X152379996Y-113436456D01*
X152393901Y-113596305D01*
X152412337Y-113805058D01*
X152432290Y-114028681D01*
X152442089Y-114137607D01*
X152457255Y-114367225D01*
X152459791Y-114565778D01*
X152449605Y-114710760D01*
X152444547Y-114738309D01*
X152353357Y-114966397D01*
X152197636Y-115173833D01*
X151996037Y-115343927D01*
X151767215Y-115459990D01*
X151591851Y-115501220D01*
X151402737Y-115522536D01*
X151402737Y-115332454D01*
X151393495Y-115188900D01*
X151370418Y-115062085D01*
X151361237Y-115033218D01*
X151303007Y-114934986D01*
X151192747Y-114797152D01*
X151042719Y-114633048D01*
X150865181Y-114456007D01*
X150672393Y-114279365D01*
X150650772Y-114260522D01*
X150419299Y-114059868D01*
X150436752Y-114301145D01*
X150442668Y-114444356D01*
X150428281Y-114538490D01*
X150384213Y-114617032D01*
X150330356Y-114681031D01*
X150206509Y-114819641D01*
X149982246Y-114725134D01*
X149839216Y-114676990D01*
X149645931Y-114627996D01*
X149434963Y-114585975D01*
X149341590Y-114571233D01*
X148983542Y-114509072D01*
X148696349Y-114433141D01*
X148468134Y-114339196D01*
X148287018Y-114222991D01*
X148230185Y-114174081D01*
X148147439Y-114095191D01*
X148107303Y-114046011D01*
X148117334Y-114025003D01*
X148185091Y-114030629D01*
X148318130Y-114061351D01*
X148521156Y-114114867D01*
X148689568Y-114152994D01*
X148834198Y-114164331D01*
X148998924Y-114150868D01*
X149074198Y-114139930D01*
X149443853Y-114063839D01*
X149797684Y-113955734D01*
X150114549Y-113823404D01*
X150373306Y-113674637D01*
X150411145Y-113647414D01*
X150604323Y-113491534D01*
X150815309Y-113302173D01*
X151028760Y-113095004D01*
X151229334Y-112885701D01*
X151401689Y-112689937D01*
X151530481Y-112523387D01*
X151568223Y-112465367D01*
X151708454Y-112230916D01*
X151878301Y-112294007D01*
X152131591Y-112349350D01*
X152422523Y-112347173D01*
X152729413Y-112288401D01*
X152841645Y-112252857D01*
X153044130Y-112189548D01*
X153270524Y-112130597D01*
X153434789Y-112095871D01*
X153576318Y-112073137D01*
X153692416Y-112064239D01*
X153808926Y-112070819D01*
G36*
X142728951Y-99953547D02*
G01*
X142729725Y-99999580D01*
X142714259Y-100099412D01*
X142700114Y-100167607D01*
X142676974Y-100285166D01*
X142667593Y-100363466D01*
X142669716Y-100380104D01*
X142706305Y-100363256D01*
X142787623Y-100305354D01*
X142882238Y-100230182D01*
X143077084Y-100098611D01*
X143274939Y-100033937D01*
X143505193Y-100027623D01*
X143561223Y-100033004D01*
X143737287Y-100078495D01*
X143860507Y-100167844D01*
X143926801Y-100245367D01*
X143934382Y-100287136D01*
X143907655Y-100304217D01*
X143789665Y-100355291D01*
X143644872Y-100428815D01*
X143494563Y-100512543D01*
X143360023Y-100594227D01*
X143262539Y-100661620D01*
X143225841Y-100696511D01*
X143197574Y-100770136D01*
X143231130Y-100794027D01*
X143321185Y-100767715D01*
X143423927Y-100713977D01*
X143651259Y-100621889D01*
X143875819Y-100612457D01*
X144094389Y-100685699D01*
X144136672Y-100710005D01*
X144260573Y-100773049D01*
X144374553Y-100809901D01*
X144407328Y-100813729D01*
X144511426Y-100814869D01*
X144419801Y-100886812D01*
X144358618Y-100955264D01*
X144274171Y-101076041D01*
X144181243Y-101227387D01*
X144146079Y-101289664D01*
X144051787Y-101448506D01*
X143957580Y-101586338D01*
X143879259Y-101680699D01*
X143857297Y-101700227D01*
X143716450Y-101769363D01*
X143546781Y-101802754D01*
X143382190Y-101797252D01*
X143264526Y-101755225D01*
X143188825Y-101712315D01*
X143147190Y-101722493D01*
X143114659Y-101774176D01*
X143071350Y-101833068D01*
X143022805Y-101821788D01*
X142998686Y-101803006D01*
X142902908Y-101765421D01*
X142738884Y-101758950D01*
X142693943Y-101761520D01*
X142458755Y-101777938D01*
X142698621Y-102029224D01*
X142967545Y-102349997D01*
X143170700Y-102686309D01*
X143307561Y-103014335D01*
X143398809Y-103319210D01*
X143453310Y-103615443D01*
X143473147Y-103927076D01*
X143460402Y-104278148D01*
X143437849Y-104518918D01*
X143407215Y-104861000D01*
X143395827Y-105178200D01*
X143402672Y-105514253D01*
X143411066Y-105677066D01*
X143448846Y-106165105D01*
X143501849Y-106577791D01*
X143572700Y-106922092D01*
X143664024Y-107204974D01*
X143778445Y-107433405D01*
X143918590Y-107614353D01*
X144087084Y-107754784D01*
X144223288Y-107832703D01*
X144375672Y-107898821D01*
X144501265Y-107926734D01*
X144642329Y-107924789D01*
X144674255Y-107921744D01*
X144842589Y-107890219D01*
X145009580Y-107837253D01*
X145068244Y-107811137D01*
X145169129Y-107763161D01*
X145230951Y-107740489D01*
X145240114Y-107741669D01*
X145218665Y-107819273D01*
X145163672Y-107939199D01*
X145089166Y-108075421D01*
X145009180Y-108201909D01*
X144950639Y-108278640D01*
X144790132Y-108404083D01*
X144569517Y-108481230D01*
X144285401Y-108510910D01*
X144032573Y-108502824D01*
X143775497Y-108475305D01*
X143574672Y-108432155D01*
X143403402Y-108365188D01*
X143234992Y-108266213D01*
X143213249Y-108251481D01*
X143012409Y-108113814D01*
X142575196Y-108209288D01*
X142295590Y-108265105D01*
X142070161Y-108295216D01*
X141873988Y-108299969D01*
X141682151Y-108279713D01*
X141469729Y-108234797D01*
X141431901Y-108225277D01*
X141108071Y-108142455D01*
X140872224Y-108288029D01*
X140638561Y-108413211D01*
X140414312Y-108487279D01*
X140175685Y-108514093D01*
X139898887Y-108497512D01*
X139731855Y-108473002D01*
X139590092Y-108436781D01*
X139414425Y-108374872D01*
X139253003Y-108305300D01*
X138973393Y-108171097D01*
X139160770Y-108117150D01*
X139324273Y-108071329D01*
X139492620Y-108025959D01*
X139525661Y-108017342D01*
X139720416Y-107939503D01*
X139887339Y-107809836D01*
X140031681Y-107621020D01*
X140158695Y-107365737D01*
X140273631Y-107036668D01*
X140303592Y-106933079D01*
X140333407Y-106822517D01*
X140357755Y-106719277D01*
X140377525Y-106612687D01*
X140393605Y-106492076D01*
X140406883Y-106346773D01*
X140418247Y-106166109D01*
X140428586Y-105939411D01*
X140438787Y-105656010D01*
X140449738Y-105305235D01*
X140455622Y-105106366D01*
X140464940Y-104767714D01*
X140472385Y-104454607D01*
X140477812Y-104177012D01*
X140481073Y-103944897D01*
X140482023Y-103768227D01*
X140480513Y-103656971D01*
X140477495Y-103621909D01*
X140427277Y-103583966D01*
X140324904Y-103550719D01*
X140277522Y-103541697D01*
X140148134Y-103515522D01*
X139988853Y-103474716D01*
X139822973Y-103426365D01*
X139673788Y-103377556D01*
X139564592Y-103335376D01*
X139522606Y-103312043D01*
X139547932Y-103298481D01*
X139641740Y-103284075D01*
X139789268Y-103270524D01*
X139975759Y-103259528D01*
X139980638Y-103259307D01*
X140269334Y-103240741D01*
X140479322Y-103216095D01*
X140610067Y-103187804D01*
X140661033Y-103158303D01*
X140631684Y-103130027D01*
X140521485Y-103105412D01*
X140329900Y-103086893D01*
X140056393Y-103076906D01*
X140020867Y-103076428D01*
X139783530Y-103069657D01*
X139601983Y-103056291D01*
X139481307Y-103037773D01*
X139426586Y-103015551D01*
X139442901Y-102991069D01*
X139535334Y-102965773D01*
X139595953Y-102955571D01*
X139768987Y-102943191D01*
X140003410Y-102946103D01*
X140278924Y-102963399D01*
X140575233Y-102994166D01*
X140638967Y-103002356D01*
X140762386Y-103013128D01*
X140811199Y-103003248D01*
X140805524Y-102989829D01*
X140706093Y-102927719D01*
X140542380Y-102863088D01*
X140332994Y-102801467D01*
X140096541Y-102748385D01*
X139869370Y-102711621D01*
X139668117Y-102687205D01*
X139525807Y-102676168D01*
X139419079Y-102679167D01*
X139324575Y-102696860D01*
X139218934Y-102729904D01*
X139218883Y-102729922D01*
X139079289Y-102780968D01*
X138960563Y-102829529D01*
X138915003Y-102851167D01*
X138856872Y-102879458D01*
X138834291Y-102873938D01*
X138846533Y-102821276D01*
X138892873Y-102708141D01*
X138905596Y-102678420D01*
X139016323Y-102483250D01*
X139166689Y-102335034D01*
X139368198Y-102226653D01*
X139632350Y-102150989D01*
X139806180Y-102121072D01*
X139959391Y-102085393D01*
X140073297Y-102016801D01*
X140148944Y-101941415D01*
X140263267Y-101815974D01*
X140381302Y-101689208D01*
X140409189Y-101659796D01*
X140487026Y-101563327D01*
X140531130Y-101479820D01*
X140534868Y-101459272D01*
X140568352Y-101328940D01*
X140655178Y-101196245D01*
X140716709Y-101136648D01*
X140808967Y-101074247D01*
X140856719Y-101076322D01*
X140867983Y-101126619D01*
X140898458Y-101196053D01*
X140971792Y-101215331D01*
X141060844Y-101179414D01*
X141077731Y-101165548D01*
X141135187Y-101080285D01*
X141158182Y-100947767D01*
X141159459Y-100892164D01*
X141187298Y-100694384D01*
X141269771Y-100558044D01*
X141405310Y-100484949D01*
X141523777Y-100472239D01*
X141655057Y-100484337D01*
X141762398Y-100511284D01*
X141779115Y-100518901D01*
X141880580Y-100558742D01*
X141933585Y-100534756D01*
X141950431Y-100440069D01*
X141950606Y-100423058D01*
X141975395Y-100271109D01*
X142055737Y-100156061D01*
X142200591Y-100069848D01*
X142414595Y-100005376D01*
X142561165Y-99974687D01*
X142672444Y-99955920D01*
X142727062Y-99952599D01*
X142728951Y-99953547D01*
X142728951Y-99953547D01*
G37*
X142728951Y-99953547D02*
X142729725Y-99999580D01*
X142714259Y-100099412D01*
X142700114Y-100167607D01*
X142676974Y-100285166D01*
X142667593Y-100363466D01*
X142669716Y-100380104D01*
X142706305Y-100363256D01*
X142787623Y-100305354D01*
X142882238Y-100230182D01*
X143077084Y-100098611D01*
X143274939Y-100033937D01*
X143505193Y-100027623D01*
X143561223Y-100033004D01*
X143737287Y-100078495D01*
X143860507Y-100167844D01*
X143926801Y-100245367D01*
X143934382Y-100287136D01*
X143907655Y-100304217D01*
X143789665Y-100355291D01*
X143644872Y-100428815D01*
X143494563Y-100512543D01*
X143360023Y-100594227D01*
X143262539Y-100661620D01*
X143225841Y-100696511D01*
X143197574Y-100770136D01*
X143231130Y-100794027D01*
X143321185Y-100767715D01*
X143423927Y-100713977D01*
X143651259Y-100621889D01*
X143875819Y-100612457D01*
X144094389Y-100685699D01*
X144136672Y-100710005D01*
X144260573Y-100773049D01*
X144374553Y-100809901D01*
X144407328Y-100813729D01*
X144511426Y-100814869D01*
X144419801Y-100886812D01*
X144358618Y-100955264D01*
X144274171Y-101076041D01*
X144181243Y-101227387D01*
X144146079Y-101289664D01*
X144051787Y-101448506D01*
X143957580Y-101586338D01*
X143879259Y-101680699D01*
X143857297Y-101700227D01*
X143716450Y-101769363D01*
X143546781Y-101802754D01*
X143382190Y-101797252D01*
X143264526Y-101755225D01*
X143188825Y-101712315D01*
X143147190Y-101722493D01*
X143114659Y-101774176D01*
X143071350Y-101833068D01*
X143022805Y-101821788D01*
X142998686Y-101803006D01*
X142902908Y-101765421D01*
X142738884Y-101758950D01*
X142693943Y-101761520D01*
X142458755Y-101777938D01*
X142698621Y-102029224D01*
X142967545Y-102349997D01*
X143170700Y-102686309D01*
X143307561Y-103014335D01*
X143398809Y-103319210D01*
X143453310Y-103615443D01*
X143473147Y-103927076D01*
X143460402Y-104278148D01*
X143437849Y-104518918D01*
X143407215Y-104861000D01*
X143395827Y-105178200D01*
X143402672Y-105514253D01*
X143411066Y-105677066D01*
X143448846Y-106165105D01*
X143501849Y-106577791D01*
X143572700Y-106922092D01*
X143664024Y-107204974D01*
X143778445Y-107433405D01*
X143918590Y-107614353D01*
X144087084Y-107754784D01*
X144223288Y-107832703D01*
X144375672Y-107898821D01*
X144501265Y-107926734D01*
X144642329Y-107924789D01*
X144674255Y-107921744D01*
X144842589Y-107890219D01*
X145009580Y-107837253D01*
X145068244Y-107811137D01*
X145169129Y-107763161D01*
X145230951Y-107740489D01*
X145240114Y-107741669D01*
X145218665Y-107819273D01*
X145163672Y-107939199D01*
X145089166Y-108075421D01*
X145009180Y-108201909D01*
X144950639Y-108278640D01*
X144790132Y-108404083D01*
X144569517Y-108481230D01*
X144285401Y-108510910D01*
X144032573Y-108502824D01*
X143775497Y-108475305D01*
X143574672Y-108432155D01*
X143403402Y-108365188D01*
X143234992Y-108266213D01*
X143213249Y-108251481D01*
X143012409Y-108113814D01*
X142575196Y-108209288D01*
X142295590Y-108265105D01*
X142070161Y-108295216D01*
X141873988Y-108299969D01*
X141682151Y-108279713D01*
X141469729Y-108234797D01*
X141431901Y-108225277D01*
X141108071Y-108142455D01*
X140872224Y-108288029D01*
X140638561Y-108413211D01*
X140414312Y-108487279D01*
X140175685Y-108514093D01*
X139898887Y-108497512D01*
X139731855Y-108473002D01*
X139590092Y-108436781D01*
X139414425Y-108374872D01*
X139253003Y-108305300D01*
X138973393Y-108171097D01*
X139160770Y-108117150D01*
X139324273Y-108071329D01*
X139492620Y-108025959D01*
X139525661Y-108017342D01*
X139720416Y-107939503D01*
X139887339Y-107809836D01*
X140031681Y-107621020D01*
X140158695Y-107365737D01*
X140273631Y-107036668D01*
X140303592Y-106933079D01*
X140333407Y-106822517D01*
X140357755Y-106719277D01*
X140377525Y-106612687D01*
X140393605Y-106492076D01*
X140406883Y-106346773D01*
X140418247Y-106166109D01*
X140428586Y-105939411D01*
X140438787Y-105656010D01*
X140449738Y-105305235D01*
X140455622Y-105106366D01*
X140464940Y-104767714D01*
X140472385Y-104454607D01*
X140477812Y-104177012D01*
X140481073Y-103944897D01*
X140482023Y-103768227D01*
X140480513Y-103656971D01*
X140477495Y-103621909D01*
X140427277Y-103583966D01*
X140324904Y-103550719D01*
X140277522Y-103541697D01*
X140148134Y-103515522D01*
X139988853Y-103474716D01*
X139822973Y-103426365D01*
X139673788Y-103377556D01*
X139564592Y-103335376D01*
X139522606Y-103312043D01*
X139547932Y-103298481D01*
X139641740Y-103284075D01*
X139789268Y-103270524D01*
X139975759Y-103259528D01*
X139980638Y-103259307D01*
X140269334Y-103240741D01*
X140479322Y-103216095D01*
X140610067Y-103187804D01*
X140661033Y-103158303D01*
X140631684Y-103130027D01*
X140521485Y-103105412D01*
X140329900Y-103086893D01*
X140056393Y-103076906D01*
X140020867Y-103076428D01*
X139783530Y-103069657D01*
X139601983Y-103056291D01*
X139481307Y-103037773D01*
X139426586Y-103015551D01*
X139442901Y-102991069D01*
X139535334Y-102965773D01*
X139595953Y-102955571D01*
X139768987Y-102943191D01*
X140003410Y-102946103D01*
X140278924Y-102963399D01*
X140575233Y-102994166D01*
X140638967Y-103002356D01*
X140762386Y-103013128D01*
X140811199Y-103003248D01*
X140805524Y-102989829D01*
X140706093Y-102927719D01*
X140542380Y-102863088D01*
X140332994Y-102801467D01*
X140096541Y-102748385D01*
X139869370Y-102711621D01*
X139668117Y-102687205D01*
X139525807Y-102676168D01*
X139419079Y-102679167D01*
X139324575Y-102696860D01*
X139218934Y-102729904D01*
X139218883Y-102729922D01*
X139079289Y-102780968D01*
X138960563Y-102829529D01*
X138915003Y-102851167D01*
X138856872Y-102879458D01*
X138834291Y-102873938D01*
X138846533Y-102821276D01*
X138892873Y-102708141D01*
X138905596Y-102678420D01*
X139016323Y-102483250D01*
X139166689Y-102335034D01*
X139368198Y-102226653D01*
X139632350Y-102150989D01*
X139806180Y-102121072D01*
X139959391Y-102085393D01*
X140073297Y-102016801D01*
X140148944Y-101941415D01*
X140263267Y-101815974D01*
X140381302Y-101689208D01*
X140409189Y-101659796D01*
X140487026Y-101563327D01*
X140531130Y-101479820D01*
X140534868Y-101459272D01*
X140568352Y-101328940D01*
X140655178Y-101196245D01*
X140716709Y-101136648D01*
X140808967Y-101074247D01*
X140856719Y-101076322D01*
X140867983Y-101126619D01*
X140898458Y-101196053D01*
X140971792Y-101215331D01*
X141060844Y-101179414D01*
X141077731Y-101165548D01*
X141135187Y-101080285D01*
X141158182Y-100947767D01*
X141159459Y-100892164D01*
X141187298Y-100694384D01*
X141269771Y-100558044D01*
X141405310Y-100484949D01*
X141523777Y-100472239D01*
X141655057Y-100484337D01*
X141762398Y-100511284D01*
X141779115Y-100518901D01*
X141880580Y-100558742D01*
X141933585Y-100534756D01*
X141950431Y-100440069D01*
X141950606Y-100423058D01*
X141975395Y-100271109D01*
X142055737Y-100156061D01*
X142200591Y-100069848D01*
X142414595Y-100005376D01*
X142561165Y-99974687D01*
X142672444Y-99955920D01*
X142727062Y-99952599D01*
X142728951Y-99953547D01*
D11*
G36*
X136825043Y-129770278D02*
G01*
X136873133Y-129784866D01*
X136901287Y-129796528D01*
X136901288Y-129796528D01*
X136963029Y-129822102D01*
X137875430Y-130200030D01*
X137919742Y-130223716D01*
X137956647Y-130254003D01*
X137986929Y-130290903D01*
X138009431Y-130333000D01*
X138023291Y-130378689D01*
X138027970Y-130426193D01*
X138023291Y-130473697D01*
X138008703Y-130521787D01*
X137997042Y-130549940D01*
X137997041Y-130549942D01*
X137890368Y-130807472D01*
X137469164Y-131824349D01*
X137445479Y-131868658D01*
X137415197Y-131905558D01*
X137378292Y-131935845D01*
X137336194Y-131958347D01*
X137290507Y-131972206D01*
X137243003Y-131976885D01*
X137195499Y-131972206D01*
X137147409Y-131957618D01*
X137094842Y-131935844D01*
X136757679Y-131796187D01*
X136145112Y-131542454D01*
X136100800Y-131518768D01*
X136063895Y-131488481D01*
X136033613Y-131451581D01*
X136011111Y-131409484D01*
X135997251Y-131363795D01*
X135992572Y-131316291D01*
X135997251Y-131268787D01*
X136011839Y-131220697D01*
X136187191Y-130797361D01*
X136397225Y-130290292D01*
X136551378Y-129918135D01*
X136575063Y-129873826D01*
X136605345Y-129836926D01*
X136642250Y-129806639D01*
X136684348Y-129784137D01*
X136730035Y-129770278D01*
X136777539Y-129765599D01*
X136825043Y-129770278D01*
X136825043Y-129770278D01*
G37*
G36*
X147749965Y-129770278D02*
G01*
X147795654Y-129784138D01*
X147837751Y-129806640D01*
X147874651Y-129836922D01*
X147904938Y-129873827D01*
X147928624Y-129918139D01*
X148468161Y-131220697D01*
X148482749Y-131268787D01*
X148487428Y-131316291D01*
X148482749Y-131363795D01*
X148468890Y-131409482D01*
X148446388Y-131451580D01*
X148416101Y-131488485D01*
X148379201Y-131518767D01*
X148334892Y-131542452D01*
X148306729Y-131554117D01*
X148306730Y-131554117D01*
X147385159Y-131935844D01*
X147332591Y-131957618D01*
X147284501Y-131972206D01*
X147236997Y-131976885D01*
X147189493Y-131972206D01*
X147143804Y-131958346D01*
X147101707Y-131935844D01*
X147064807Y-131905562D01*
X147034520Y-131868657D01*
X147010834Y-131824345D01*
X146471297Y-130521787D01*
X146456709Y-130473697D01*
X146452030Y-130426193D01*
X146456709Y-130378689D01*
X146470568Y-130333002D01*
X146493070Y-130290904D01*
X146523357Y-130253999D01*
X146560257Y-130223717D01*
X146604566Y-130200032D01*
X147285117Y-129918139D01*
X147578712Y-129796528D01*
X147578713Y-129796528D01*
X147606867Y-129784866D01*
X147654957Y-129770278D01*
X147702461Y-129765599D01*
X147749965Y-129770278D01*
X147749965Y-129770278D01*
G37*
G36*
X134076501Y-128631794D02*
G01*
X134124591Y-128646382D01*
X134152745Y-128658044D01*
X134152746Y-128658044D01*
X134214487Y-128683618D01*
X135126888Y-129061546D01*
X135171200Y-129085232D01*
X135208105Y-129115519D01*
X135238387Y-129152419D01*
X135260889Y-129194516D01*
X135274749Y-129240205D01*
X135279428Y-129287709D01*
X135274749Y-129335213D01*
X135260161Y-129383303D01*
X135248500Y-129411456D01*
X135248499Y-129411458D01*
X135072266Y-129836922D01*
X134720622Y-130685865D01*
X134696937Y-130730174D01*
X134666655Y-130767074D01*
X134629750Y-130797361D01*
X134587652Y-130819863D01*
X134541965Y-130833722D01*
X134494461Y-130838401D01*
X134446957Y-130833722D01*
X134398867Y-130819134D01*
X134346300Y-130797360D01*
X134009137Y-130657703D01*
X133396570Y-130403970D01*
X133352258Y-130380284D01*
X133315353Y-130349997D01*
X133285071Y-130313097D01*
X133262569Y-130271000D01*
X133248709Y-130225311D01*
X133244030Y-130177807D01*
X133248709Y-130130303D01*
X133263297Y-130082213D01*
X133371039Y-129822102D01*
X133791171Y-128807813D01*
X133802836Y-128779651D01*
X133826521Y-128735342D01*
X133856803Y-128698442D01*
X133893708Y-128668155D01*
X133935806Y-128645653D01*
X133981493Y-128631794D01*
X134028997Y-128627115D01*
X134076501Y-128631794D01*
X134076501Y-128631794D01*
G37*
G36*
X150498507Y-128631794D02*
G01*
X150544196Y-128645654D01*
X150586293Y-128668156D01*
X150623193Y-128698438D01*
X150653480Y-128735343D01*
X150677166Y-128779655D01*
X151216703Y-130082213D01*
X151231291Y-130130303D01*
X151235970Y-130177807D01*
X151231291Y-130225311D01*
X151217432Y-130270998D01*
X151194930Y-130313096D01*
X151164643Y-130350001D01*
X151127743Y-130380283D01*
X151083434Y-130403968D01*
X151055271Y-130415633D01*
X151055272Y-130415633D01*
X150133701Y-130797360D01*
X150081133Y-130819134D01*
X150033043Y-130833722D01*
X149985539Y-130838401D01*
X149938035Y-130833722D01*
X149892346Y-130819862D01*
X149850249Y-130797360D01*
X149813349Y-130767078D01*
X149783062Y-130730173D01*
X149759376Y-130685861D01*
X149219839Y-129383303D01*
X149205251Y-129335213D01*
X149200572Y-129287709D01*
X149205251Y-129240205D01*
X149219110Y-129194518D01*
X149241612Y-129152420D01*
X149271899Y-129115515D01*
X149308799Y-129085233D01*
X149353108Y-129061548D01*
X150033659Y-128779655D01*
X150327254Y-128658044D01*
X150327255Y-128658044D01*
X150355409Y-128646382D01*
X150403499Y-128631794D01*
X150451003Y-128627115D01*
X150498507Y-128631794D01*
X150498507Y-128631794D01*
G37*
G36*
X127299795Y-121265251D02*
G01*
X127345482Y-121279110D01*
X127387580Y-121301612D01*
X127424485Y-121331899D01*
X127454767Y-121368799D01*
X127478452Y-121413108D01*
X127490117Y-121441270D01*
X127656545Y-121843062D01*
X127893618Y-122415409D01*
X127908206Y-122463499D01*
X127912885Y-122511003D01*
X127908206Y-122558507D01*
X127894346Y-122604196D01*
X127871844Y-122646293D01*
X127841562Y-122683193D01*
X127804657Y-122713480D01*
X127760345Y-122737166D01*
X126857137Y-123111287D01*
X126510355Y-123254929D01*
X126457787Y-123276703D01*
X126409697Y-123291291D01*
X126362193Y-123295970D01*
X126314689Y-123291291D01*
X126269002Y-123277432D01*
X126226904Y-123254930D01*
X126189999Y-123224643D01*
X126159717Y-123187743D01*
X126136032Y-123143434D01*
X126014940Y-122851091D01*
X125732528Y-122169288D01*
X125732528Y-122169287D01*
X125720866Y-122141133D01*
X125706278Y-122093043D01*
X125701599Y-122045539D01*
X125706278Y-121998035D01*
X125720138Y-121952346D01*
X125742640Y-121910249D01*
X125772922Y-121873349D01*
X125809827Y-121843062D01*
X125854139Y-121819376D01*
X126834957Y-121413108D01*
X127128542Y-121291501D01*
X127128544Y-121291501D01*
X127156697Y-121279839D01*
X127204787Y-121265251D01*
X127252291Y-121260572D01*
X127299795Y-121265251D01*
X127299795Y-121265251D01*
G37*
G36*
X157275213Y-121265251D02*
G01*
X157323303Y-121279839D01*
X157351456Y-121291500D01*
X157351458Y-121291501D01*
X157713032Y-121441270D01*
X158625865Y-121819378D01*
X158670174Y-121843063D01*
X158707074Y-121873345D01*
X158737361Y-121910250D01*
X158759863Y-121952348D01*
X158773722Y-121998035D01*
X158778401Y-122045539D01*
X158773722Y-122093043D01*
X158759134Y-122141133D01*
X158343970Y-123143430D01*
X158320284Y-123187742D01*
X158289997Y-123224647D01*
X158253097Y-123254929D01*
X158211000Y-123277431D01*
X158165311Y-123291291D01*
X158117807Y-123295970D01*
X158070303Y-123291291D01*
X158022213Y-123276703D01*
X157969646Y-123254929D01*
X156747813Y-122748829D01*
X156747814Y-122748829D01*
X156719651Y-122737164D01*
X156675342Y-122713479D01*
X156638442Y-122683197D01*
X156608155Y-122646292D01*
X156585653Y-122604194D01*
X156571794Y-122558507D01*
X156567115Y-122511003D01*
X156571794Y-122463499D01*
X156586382Y-122415409D01*
X157001546Y-121413112D01*
X157025232Y-121368800D01*
X157055519Y-121331895D01*
X157092419Y-121301613D01*
X157134516Y-121279111D01*
X157180205Y-121265251D01*
X157227709Y-121260572D01*
X157275213Y-121265251D01*
X157275213Y-121265251D01*
G37*
G36*
X126161311Y-118516709D02*
G01*
X126206998Y-118530568D01*
X126249096Y-118553070D01*
X126286001Y-118583357D01*
X126316283Y-118620257D01*
X126339968Y-118664566D01*
X126351633Y-118692728D01*
X126518061Y-119094520D01*
X126755134Y-119666867D01*
X126769722Y-119714957D01*
X126774401Y-119762461D01*
X126769722Y-119809965D01*
X126755862Y-119855654D01*
X126733360Y-119897751D01*
X126703078Y-119934651D01*
X126666173Y-119964938D01*
X126621861Y-119988624D01*
X125718653Y-120362745D01*
X125371871Y-120506387D01*
X125319303Y-120528161D01*
X125271213Y-120542749D01*
X125223709Y-120547428D01*
X125176205Y-120542749D01*
X125130518Y-120528890D01*
X125088420Y-120506388D01*
X125051515Y-120476101D01*
X125021233Y-120439201D01*
X124997548Y-120394892D01*
X124876456Y-120102549D01*
X124594044Y-119420746D01*
X124594044Y-119420745D01*
X124582382Y-119392591D01*
X124567794Y-119344501D01*
X124563115Y-119296997D01*
X124567794Y-119249493D01*
X124581654Y-119203804D01*
X124604156Y-119161707D01*
X124634438Y-119124807D01*
X124671343Y-119094520D01*
X124715655Y-119070834D01*
X125696473Y-118664566D01*
X125990058Y-118542959D01*
X125990060Y-118542959D01*
X126018213Y-118531297D01*
X126066303Y-118516709D01*
X126113807Y-118512030D01*
X126161311Y-118516709D01*
X126161311Y-118516709D01*
G37*
G36*
X158413697Y-118516709D02*
G01*
X158461787Y-118531297D01*
X158489940Y-118542958D01*
X158489942Y-118542959D01*
X158851516Y-118692728D01*
X159764349Y-119070836D01*
X159808658Y-119094521D01*
X159845558Y-119124803D01*
X159875845Y-119161708D01*
X159898347Y-119203806D01*
X159912206Y-119249493D01*
X159916885Y-119296997D01*
X159912206Y-119344501D01*
X159897618Y-119392591D01*
X159482454Y-120394888D01*
X159458768Y-120439200D01*
X159428481Y-120476105D01*
X159391581Y-120506387D01*
X159349484Y-120528889D01*
X159303795Y-120542749D01*
X159256291Y-120547428D01*
X159208787Y-120542749D01*
X159160697Y-120528161D01*
X159108130Y-120506387D01*
X157886297Y-120000287D01*
X157886298Y-120000287D01*
X157858135Y-119988622D01*
X157813826Y-119964937D01*
X157776926Y-119934655D01*
X157746639Y-119897750D01*
X157724137Y-119855652D01*
X157710278Y-119809965D01*
X157705599Y-119762461D01*
X157710278Y-119714957D01*
X157724866Y-119666867D01*
X158140030Y-118664570D01*
X158163716Y-118620258D01*
X158194003Y-118583353D01*
X158230903Y-118553071D01*
X158273000Y-118530569D01*
X158318689Y-118516709D01*
X158366193Y-118512030D01*
X158413697Y-118516709D01*
X158413697Y-118516709D01*
G37*
G36*
X159303795Y-108057251D02*
G01*
X159349482Y-108071110D01*
X159391580Y-108093612D01*
X159428485Y-108123899D01*
X159458767Y-108160799D01*
X159482452Y-108205108D01*
X159494117Y-108233270D01*
X159660545Y-108635062D01*
X159897618Y-109207409D01*
X159912206Y-109255499D01*
X159916885Y-109303003D01*
X159912206Y-109350507D01*
X159898346Y-109396196D01*
X159875844Y-109438293D01*
X159845562Y-109475193D01*
X159808657Y-109505480D01*
X159764345Y-109529166D01*
X158861137Y-109903287D01*
X158514355Y-110046929D01*
X158461787Y-110068703D01*
X158413697Y-110083291D01*
X158366193Y-110087970D01*
X158318689Y-110083291D01*
X158273002Y-110069432D01*
X158230904Y-110046930D01*
X158193999Y-110016643D01*
X158163717Y-109979743D01*
X158140032Y-109935434D01*
X158018940Y-109643091D01*
X157736528Y-108961288D01*
X157736528Y-108961287D01*
X157724866Y-108933133D01*
X157710278Y-108885043D01*
X157705599Y-108837539D01*
X157710278Y-108790035D01*
X157724138Y-108744346D01*
X157746640Y-108702249D01*
X157776922Y-108665349D01*
X157813827Y-108635062D01*
X157858139Y-108611376D01*
X158838957Y-108205108D01*
X159132542Y-108083501D01*
X159132544Y-108083501D01*
X159160697Y-108071839D01*
X159208787Y-108057251D01*
X159256291Y-108052572D01*
X159303795Y-108057251D01*
X159303795Y-108057251D01*
G37*
G36*
X125271213Y-108057251D02*
G01*
X125319303Y-108071839D01*
X125347456Y-108083500D01*
X125347458Y-108083501D01*
X125709032Y-108233270D01*
X126621865Y-108611378D01*
X126666174Y-108635063D01*
X126703074Y-108665345D01*
X126733361Y-108702250D01*
X126755863Y-108744348D01*
X126769722Y-108790035D01*
X126774401Y-108837539D01*
X126769722Y-108885043D01*
X126755134Y-108933133D01*
X126339970Y-109935430D01*
X126316284Y-109979742D01*
X126285997Y-110016647D01*
X126249097Y-110046929D01*
X126207000Y-110069431D01*
X126161311Y-110083291D01*
X126113807Y-110087970D01*
X126066303Y-110083291D01*
X126018213Y-110068703D01*
X125965646Y-110046929D01*
X124743813Y-109540829D01*
X124743814Y-109540829D01*
X124715651Y-109529164D01*
X124671342Y-109505479D01*
X124634442Y-109475197D01*
X124604155Y-109438292D01*
X124581653Y-109396194D01*
X124567794Y-109350507D01*
X124563115Y-109303003D01*
X124567794Y-109255499D01*
X124582382Y-109207409D01*
X124997546Y-108205112D01*
X125021232Y-108160800D01*
X125051519Y-108123895D01*
X125088419Y-108093613D01*
X125130516Y-108071111D01*
X125176205Y-108057251D01*
X125223709Y-108052572D01*
X125271213Y-108057251D01*
X125271213Y-108057251D01*
G37*
G36*
X158165311Y-105308709D02*
G01*
X158210998Y-105322568D01*
X158253096Y-105345070D01*
X158290001Y-105375357D01*
X158320283Y-105412257D01*
X158343968Y-105456566D01*
X158355633Y-105484728D01*
X158522061Y-105886520D01*
X158759134Y-106458867D01*
X158773722Y-106506957D01*
X158778401Y-106554461D01*
X158773722Y-106601965D01*
X158759862Y-106647654D01*
X158737360Y-106689751D01*
X158707078Y-106726651D01*
X158670173Y-106756938D01*
X158625861Y-106780624D01*
X157722653Y-107154745D01*
X157375871Y-107298387D01*
X157323303Y-107320161D01*
X157275213Y-107334749D01*
X157227709Y-107339428D01*
X157180205Y-107334749D01*
X157134518Y-107320890D01*
X157092420Y-107298388D01*
X157055515Y-107268101D01*
X157025233Y-107231201D01*
X157001548Y-107186892D01*
X156880456Y-106894549D01*
X156598044Y-106212746D01*
X156598044Y-106212745D01*
X156586382Y-106184591D01*
X156571794Y-106136501D01*
X156567115Y-106088997D01*
X156571794Y-106041493D01*
X156585654Y-105995804D01*
X156608156Y-105953707D01*
X156638438Y-105916807D01*
X156675343Y-105886520D01*
X156719655Y-105862834D01*
X157700473Y-105456566D01*
X157994058Y-105334959D01*
X157994060Y-105334959D01*
X158022213Y-105323297D01*
X158070303Y-105308709D01*
X158117807Y-105304030D01*
X158165311Y-105308709D01*
X158165311Y-105308709D01*
G37*
G36*
X126409697Y-105308709D02*
G01*
X126457787Y-105323297D01*
X126485940Y-105334958D01*
X126485942Y-105334959D01*
X126847516Y-105484728D01*
X127760349Y-105862836D01*
X127804658Y-105886521D01*
X127841558Y-105916803D01*
X127871845Y-105953708D01*
X127894347Y-105995806D01*
X127908206Y-106041493D01*
X127912885Y-106088997D01*
X127908206Y-106136501D01*
X127893618Y-106184591D01*
X127478454Y-107186888D01*
X127454768Y-107231200D01*
X127424481Y-107268105D01*
X127387581Y-107298387D01*
X127345484Y-107320889D01*
X127299795Y-107334749D01*
X127252291Y-107339428D01*
X127204787Y-107334749D01*
X127156697Y-107320161D01*
X127104130Y-107298387D01*
X125882297Y-106792287D01*
X125882298Y-106792287D01*
X125854135Y-106780622D01*
X125809826Y-106756937D01*
X125772926Y-106726655D01*
X125742639Y-106689750D01*
X125720137Y-106647652D01*
X125706278Y-106601965D01*
X125701599Y-106554461D01*
X125706278Y-106506957D01*
X125720866Y-106458867D01*
X126136030Y-105456570D01*
X126159716Y-105412258D01*
X126190003Y-105375353D01*
X126226903Y-105345071D01*
X126269000Y-105322569D01*
X126314689Y-105308709D01*
X126362193Y-105304030D01*
X126409697Y-105308709D01*
X126409697Y-105308709D01*
G37*
G36*
X150033043Y-97827520D02*
G01*
X150081133Y-97842108D01*
X150109287Y-97853770D01*
X150109288Y-97853770D01*
X150254114Y-97913759D01*
X151083430Y-98257272D01*
X151127742Y-98280958D01*
X151164647Y-98311245D01*
X151194929Y-98348145D01*
X151217431Y-98390242D01*
X151231291Y-98435931D01*
X151235970Y-98483435D01*
X151231291Y-98530939D01*
X151216703Y-98579029D01*
X151205042Y-98607182D01*
X151205041Y-98607184D01*
X151098368Y-98864714D01*
X150677164Y-99881591D01*
X150653479Y-99925900D01*
X150623197Y-99962800D01*
X150586292Y-99993087D01*
X150544194Y-100015589D01*
X150498507Y-100029448D01*
X150451003Y-100034127D01*
X150403499Y-100029448D01*
X150355409Y-100014860D01*
X149353112Y-99599696D01*
X149308800Y-99576010D01*
X149271895Y-99545723D01*
X149241613Y-99508823D01*
X149219111Y-99466726D01*
X149205251Y-99421037D01*
X149200572Y-99373533D01*
X149205251Y-99326029D01*
X149219839Y-99277939D01*
X149395191Y-98854603D01*
X149612902Y-98329002D01*
X149759378Y-97975377D01*
X149783063Y-97931068D01*
X149813345Y-97894168D01*
X149850250Y-97863881D01*
X149892348Y-97841379D01*
X149938035Y-97827520D01*
X149985539Y-97822841D01*
X150033043Y-97827520D01*
X150033043Y-97827520D01*
G37*
G36*
X134541965Y-97766278D02*
G01*
X134587654Y-97780138D01*
X134629751Y-97802640D01*
X134666651Y-97832922D01*
X134696938Y-97869827D01*
X134720624Y-97914139D01*
X135026961Y-98653703D01*
X135119196Y-98876376D01*
X135260161Y-99216697D01*
X135274749Y-99264787D01*
X135279428Y-99312291D01*
X135274749Y-99359795D01*
X135260890Y-99405482D01*
X135238388Y-99447580D01*
X135208101Y-99484485D01*
X135171201Y-99514767D01*
X135126892Y-99538452D01*
X135098729Y-99550117D01*
X135098730Y-99550117D01*
X134177159Y-99931844D01*
X134124591Y-99953618D01*
X134076501Y-99968206D01*
X134028997Y-99972885D01*
X133981493Y-99968206D01*
X133935804Y-99954346D01*
X133893707Y-99931844D01*
X133856807Y-99901562D01*
X133826520Y-99864657D01*
X133802834Y-99820345D01*
X133356783Y-98743483D01*
X133274959Y-98545942D01*
X133274959Y-98545940D01*
X133263297Y-98517787D01*
X133248709Y-98469697D01*
X133244030Y-98422193D01*
X133248709Y-98374689D01*
X133262568Y-98329002D01*
X133285070Y-98286904D01*
X133315357Y-98249999D01*
X133352257Y-98219717D01*
X133396566Y-98196032D01*
X134125331Y-97894168D01*
X134370712Y-97792528D01*
X134370713Y-97792528D01*
X134398867Y-97780866D01*
X134446957Y-97766278D01*
X134494461Y-97761599D01*
X134541965Y-97766278D01*
X134541965Y-97766278D01*
G37*
G36*
X147284501Y-96689036D02*
G01*
X147332591Y-96703624D01*
X147360745Y-96715286D01*
X147360746Y-96715286D01*
X147505572Y-96775275D01*
X148334888Y-97118788D01*
X148379200Y-97142474D01*
X148416105Y-97172761D01*
X148446387Y-97209661D01*
X148468889Y-97251758D01*
X148482749Y-97297447D01*
X148487428Y-97344951D01*
X148482749Y-97392455D01*
X148468161Y-97440545D01*
X148456500Y-97468698D01*
X148456499Y-97468700D01*
X148134692Y-98245609D01*
X147928622Y-98743107D01*
X147904937Y-98787416D01*
X147874655Y-98824316D01*
X147837750Y-98854603D01*
X147795652Y-98877105D01*
X147749965Y-98890964D01*
X147702461Y-98895643D01*
X147654957Y-98890964D01*
X147606867Y-98876376D01*
X146604570Y-98461212D01*
X146560258Y-98437526D01*
X146523353Y-98407239D01*
X146493071Y-98370339D01*
X146470569Y-98328242D01*
X146456709Y-98282553D01*
X146452030Y-98235049D01*
X146456709Y-98187545D01*
X146471297Y-98139455D01*
X146552963Y-97942297D01*
X146919438Y-97057548D01*
X147010836Y-96836893D01*
X147034521Y-96792584D01*
X147064803Y-96755684D01*
X147101708Y-96725397D01*
X147143806Y-96702895D01*
X147189493Y-96689036D01*
X147236997Y-96684357D01*
X147284501Y-96689036D01*
X147284501Y-96689036D01*
G37*
G36*
X137290507Y-96627794D02*
G01*
X137336196Y-96641654D01*
X137378293Y-96664156D01*
X137415193Y-96694438D01*
X137445480Y-96731343D01*
X137469166Y-96775655D01*
X137843287Y-97678863D01*
X137957955Y-97955695D01*
X138008703Y-98078213D01*
X138023291Y-98126303D01*
X138027970Y-98173807D01*
X138023291Y-98221311D01*
X138009432Y-98266998D01*
X137986930Y-98309096D01*
X137956643Y-98346001D01*
X137919743Y-98376283D01*
X137875434Y-98399968D01*
X137648353Y-98494028D01*
X136925701Y-98793360D01*
X136873133Y-98815134D01*
X136825043Y-98829722D01*
X136777539Y-98834401D01*
X136730035Y-98829722D01*
X136684346Y-98815862D01*
X136642249Y-98793360D01*
X136605349Y-98763078D01*
X136575062Y-98726173D01*
X136551376Y-98681861D01*
X136011839Y-97379303D01*
X135997251Y-97331213D01*
X135992572Y-97283709D01*
X135997251Y-97236205D01*
X136011110Y-97190518D01*
X136033612Y-97148420D01*
X136063899Y-97111515D01*
X136100799Y-97081233D01*
X136145108Y-97057548D01*
X136873873Y-96755684D01*
X137119254Y-96654044D01*
X137119255Y-96654044D01*
X137147409Y-96642382D01*
X137195499Y-96627794D01*
X137243003Y-96623115D01*
X137290507Y-96627794D01*
X137290507Y-96627794D01*
G37*
G36*
X143078957Y-87404330D02*
G01*
X143602392Y-87621144D01*
X144073471Y-87935909D01*
X144474091Y-88336529D01*
X144788856Y-88807608D01*
X145005670Y-89331043D01*
X145116200Y-89886719D01*
X145116200Y-90453281D01*
X145005670Y-91008957D01*
X144788856Y-91532392D01*
X144474091Y-92003471D01*
X144073471Y-92404091D01*
X143602392Y-92718856D01*
X143078957Y-92935670D01*
X142523281Y-93046200D01*
X141956719Y-93046200D01*
X141401043Y-92935670D01*
X140877608Y-92718856D01*
X140406529Y-92404091D01*
X140005909Y-92003471D01*
X139691144Y-91532392D01*
X139474330Y-91008957D01*
X139363800Y-90453281D01*
X139363800Y-89886719D01*
X139474330Y-89331043D01*
X139691144Y-88807608D01*
X140005909Y-88336529D01*
X140406529Y-87935909D01*
X140877608Y-87621144D01*
X141401043Y-87404330D01*
X141956719Y-87293800D01*
X142523281Y-87293800D01*
X143078957Y-87404330D01*
X143078957Y-87404330D01*
G37*
M02*
