G04 #@! TF.GenerationSoftware,KiCad,Pcbnew,(5.1.4)-1*
G04 #@! TF.CreationDate,2019-08-25T23:51:43-07:00*
G04 #@! TF.ProjectId,ruddblink,72756464-626c-4696-9e6b-2e6b69636164,A*
G04 #@! TF.SameCoordinates,Original*
G04 #@! TF.FileFunction,Copper,L1,Top*
G04 #@! TF.FilePolarity,Positive*
%FSLAX46Y46*%
G04 Gerber Fmt 4.6, Leading zero omitted, Abs format (unit mm)*
G04 Created by KiCad (PCBNEW (5.1.4)-1) date 2019-08-25 23:51:43*
%MOMM*%
%LPD*%
G04 APERTURE LIST*
%ADD10C,0.100000*%
%ADD11C,1.425000*%
%ADD12C,5.600000*%
%ADD13C,0.762000*%
%ADD14C,0.254000*%
G04 APERTURE END LIST*
D10*
G36*
X134474350Y-97864030D02*
G01*
X134498619Y-97867630D01*
X134522417Y-97873591D01*
X134545517Y-97881856D01*
X134567695Y-97892346D01*
X134588739Y-97904959D01*
X134608444Y-97919573D01*
X134626623Y-97936049D01*
X134643099Y-97954228D01*
X134657713Y-97973933D01*
X134670326Y-97994977D01*
X134680816Y-98017155D01*
X135159170Y-99172005D01*
X135167435Y-99195105D01*
X135173396Y-99218904D01*
X135176996Y-99243172D01*
X135178200Y-99267676D01*
X135176996Y-99292180D01*
X135173396Y-99316449D01*
X135167435Y-99340247D01*
X135159170Y-99363347D01*
X135148680Y-99385525D01*
X135136067Y-99406569D01*
X135121453Y-99426274D01*
X135104977Y-99444453D01*
X135086798Y-99460929D01*
X135067092Y-99475543D01*
X135046049Y-99488156D01*
X135023871Y-99498646D01*
X134169283Y-99852628D01*
X134146183Y-99860893D01*
X134122385Y-99866854D01*
X134098116Y-99870454D01*
X134073612Y-99871658D01*
X134049108Y-99870454D01*
X134024839Y-99866854D01*
X134001041Y-99860893D01*
X133977941Y-99852628D01*
X133955763Y-99842138D01*
X133934719Y-99829525D01*
X133915014Y-99814911D01*
X133896835Y-99798435D01*
X133880359Y-99780256D01*
X133865745Y-99760551D01*
X133853132Y-99739507D01*
X133842642Y-99717329D01*
X133364288Y-98562479D01*
X133356023Y-98539379D01*
X133350062Y-98515580D01*
X133346462Y-98491312D01*
X133345258Y-98466808D01*
X133346462Y-98442304D01*
X133350062Y-98418035D01*
X133356023Y-98394237D01*
X133364288Y-98371137D01*
X133374778Y-98348959D01*
X133387391Y-98327915D01*
X133402005Y-98308210D01*
X133418481Y-98290031D01*
X133436660Y-98273555D01*
X133456366Y-98258941D01*
X133477409Y-98246328D01*
X133499587Y-98235838D01*
X134354175Y-97881856D01*
X134377275Y-97873591D01*
X134401073Y-97867630D01*
X134425342Y-97864030D01*
X134449846Y-97862826D01*
X134474350Y-97864030D01*
X134474350Y-97864030D01*
G37*
D11*
X134261729Y-98867242D03*
D10*
G36*
X137222892Y-96725546D02*
G01*
X137247161Y-96729146D01*
X137270959Y-96735107D01*
X137294059Y-96743372D01*
X137316237Y-96753862D01*
X137337281Y-96766475D01*
X137356986Y-96781089D01*
X137375165Y-96797565D01*
X137391641Y-96815744D01*
X137406255Y-96835449D01*
X137418868Y-96856493D01*
X137429358Y-96878671D01*
X137907712Y-98033521D01*
X137915977Y-98056621D01*
X137921938Y-98080420D01*
X137925538Y-98104688D01*
X137926742Y-98129192D01*
X137925538Y-98153696D01*
X137921938Y-98177965D01*
X137915977Y-98201763D01*
X137907712Y-98224863D01*
X137897222Y-98247041D01*
X137884609Y-98268085D01*
X137869995Y-98287790D01*
X137853519Y-98305969D01*
X137835340Y-98322445D01*
X137815634Y-98337059D01*
X137794591Y-98349672D01*
X137772413Y-98360162D01*
X136917825Y-98714144D01*
X136894725Y-98722409D01*
X136870927Y-98728370D01*
X136846658Y-98731970D01*
X136822154Y-98733174D01*
X136797650Y-98731970D01*
X136773381Y-98728370D01*
X136749583Y-98722409D01*
X136726483Y-98714144D01*
X136704305Y-98703654D01*
X136683261Y-98691041D01*
X136663556Y-98676427D01*
X136645377Y-98659951D01*
X136628901Y-98641772D01*
X136614287Y-98622067D01*
X136601674Y-98601023D01*
X136591184Y-98578845D01*
X136112830Y-97423995D01*
X136104565Y-97400895D01*
X136098604Y-97377096D01*
X136095004Y-97352828D01*
X136093800Y-97328324D01*
X136095004Y-97303820D01*
X136098604Y-97279551D01*
X136104565Y-97255753D01*
X136112830Y-97232653D01*
X136123320Y-97210475D01*
X136135933Y-97189431D01*
X136150547Y-97169726D01*
X136167023Y-97151547D01*
X136185202Y-97135071D01*
X136204908Y-97120457D01*
X136225951Y-97107844D01*
X136248129Y-97097354D01*
X137102717Y-96743372D01*
X137125817Y-96735107D01*
X137149615Y-96729146D01*
X137173884Y-96725546D01*
X137198388Y-96724342D01*
X137222892Y-96725546D01*
X137222892Y-96725546D01*
G37*
D11*
X137010271Y-97728758D03*
D10*
G36*
X125292828Y-108155004D02*
G01*
X125317097Y-108158604D01*
X125340895Y-108164565D01*
X125363995Y-108172830D01*
X126518845Y-108651184D01*
X126541023Y-108661674D01*
X126562066Y-108674287D01*
X126581772Y-108688901D01*
X126599951Y-108705377D01*
X126616427Y-108723556D01*
X126631041Y-108743261D01*
X126643654Y-108764305D01*
X126654144Y-108786483D01*
X126662409Y-108809583D01*
X126668370Y-108833381D01*
X126671970Y-108857650D01*
X126673174Y-108882154D01*
X126671970Y-108906658D01*
X126668370Y-108930926D01*
X126662409Y-108954725D01*
X126654144Y-108977825D01*
X126300162Y-109832413D01*
X126289672Y-109854591D01*
X126277059Y-109875635D01*
X126262445Y-109895340D01*
X126245969Y-109913519D01*
X126227790Y-109929995D01*
X126208085Y-109944609D01*
X126187041Y-109957222D01*
X126164863Y-109967712D01*
X126141763Y-109975977D01*
X126117965Y-109981938D01*
X126093696Y-109985538D01*
X126069192Y-109986742D01*
X126044688Y-109985538D01*
X126020419Y-109981938D01*
X125996621Y-109975977D01*
X125973521Y-109967712D01*
X124818671Y-109489358D01*
X124796493Y-109478868D01*
X124775450Y-109466255D01*
X124755744Y-109451641D01*
X124737565Y-109435165D01*
X124721089Y-109416986D01*
X124706475Y-109397281D01*
X124693862Y-109376237D01*
X124683372Y-109354059D01*
X124675107Y-109330959D01*
X124669146Y-109307161D01*
X124665546Y-109282892D01*
X124664342Y-109258388D01*
X124665546Y-109233884D01*
X124669146Y-109209616D01*
X124675107Y-109185817D01*
X124683372Y-109162717D01*
X125037354Y-108308129D01*
X125047844Y-108285951D01*
X125060457Y-108264907D01*
X125075071Y-108245202D01*
X125091547Y-108227023D01*
X125109726Y-108210547D01*
X125129431Y-108195933D01*
X125150475Y-108183320D01*
X125172653Y-108172830D01*
X125195753Y-108164565D01*
X125219551Y-108158604D01*
X125243820Y-108155004D01*
X125268324Y-108153800D01*
X125292828Y-108155004D01*
X125292828Y-108155004D01*
G37*
D11*
X125668758Y-109070271D03*
D10*
G36*
X126431312Y-105406462D02*
G01*
X126455581Y-105410062D01*
X126479379Y-105416023D01*
X126502479Y-105424288D01*
X127657329Y-105902642D01*
X127679507Y-105913132D01*
X127700550Y-105925745D01*
X127720256Y-105940359D01*
X127738435Y-105956835D01*
X127754911Y-105975014D01*
X127769525Y-105994719D01*
X127782138Y-106015763D01*
X127792628Y-106037941D01*
X127800893Y-106061041D01*
X127806854Y-106084839D01*
X127810454Y-106109108D01*
X127811658Y-106133612D01*
X127810454Y-106158116D01*
X127806854Y-106182384D01*
X127800893Y-106206183D01*
X127792628Y-106229283D01*
X127438646Y-107083871D01*
X127428156Y-107106049D01*
X127415543Y-107127093D01*
X127400929Y-107146798D01*
X127384453Y-107164977D01*
X127366274Y-107181453D01*
X127346569Y-107196067D01*
X127325525Y-107208680D01*
X127303347Y-107219170D01*
X127280247Y-107227435D01*
X127256449Y-107233396D01*
X127232180Y-107236996D01*
X127207676Y-107238200D01*
X127183172Y-107236996D01*
X127158903Y-107233396D01*
X127135105Y-107227435D01*
X127112005Y-107219170D01*
X125957155Y-106740816D01*
X125934977Y-106730326D01*
X125913934Y-106717713D01*
X125894228Y-106703099D01*
X125876049Y-106686623D01*
X125859573Y-106668444D01*
X125844959Y-106648739D01*
X125832346Y-106627695D01*
X125821856Y-106605517D01*
X125813591Y-106582417D01*
X125807630Y-106558619D01*
X125804030Y-106534350D01*
X125802826Y-106509846D01*
X125804030Y-106485342D01*
X125807630Y-106461074D01*
X125813591Y-106437275D01*
X125821856Y-106414175D01*
X126175838Y-105559587D01*
X126186328Y-105537409D01*
X126198941Y-105516365D01*
X126213555Y-105496660D01*
X126230031Y-105478481D01*
X126248210Y-105462005D01*
X126267915Y-105447391D01*
X126288959Y-105434778D01*
X126311137Y-105424288D01*
X126334237Y-105416023D01*
X126358035Y-105410062D01*
X126382304Y-105406462D01*
X126406808Y-105405258D01*
X126431312Y-105406462D01*
X126431312Y-105406462D01*
G37*
D11*
X126807242Y-106321729D03*
D10*
G36*
X127232180Y-121363004D02*
G01*
X127256449Y-121366604D01*
X127280247Y-121372565D01*
X127303347Y-121380830D01*
X127325525Y-121391320D01*
X127346569Y-121403933D01*
X127366274Y-121418547D01*
X127384453Y-121435023D01*
X127400929Y-121453202D01*
X127415543Y-121472908D01*
X127428156Y-121493951D01*
X127438646Y-121516129D01*
X127792628Y-122370717D01*
X127800893Y-122393817D01*
X127806854Y-122417615D01*
X127810454Y-122441884D01*
X127811658Y-122466388D01*
X127810454Y-122490892D01*
X127806854Y-122515161D01*
X127800893Y-122538959D01*
X127792628Y-122562059D01*
X127782138Y-122584237D01*
X127769525Y-122605281D01*
X127754911Y-122624986D01*
X127738435Y-122643165D01*
X127720256Y-122659641D01*
X127700551Y-122674255D01*
X127679507Y-122686868D01*
X127657329Y-122697358D01*
X126502479Y-123175712D01*
X126479379Y-123183977D01*
X126455580Y-123189938D01*
X126431312Y-123193538D01*
X126406808Y-123194742D01*
X126382304Y-123193538D01*
X126358035Y-123189938D01*
X126334237Y-123183977D01*
X126311137Y-123175712D01*
X126288959Y-123165222D01*
X126267915Y-123152609D01*
X126248210Y-123137995D01*
X126230031Y-123121519D01*
X126213555Y-123103340D01*
X126198941Y-123083634D01*
X126186328Y-123062591D01*
X126175838Y-123040413D01*
X125821856Y-122185825D01*
X125813591Y-122162725D01*
X125807630Y-122138927D01*
X125804030Y-122114658D01*
X125802826Y-122090154D01*
X125804030Y-122065650D01*
X125807630Y-122041381D01*
X125813591Y-122017583D01*
X125821856Y-121994483D01*
X125832346Y-121972305D01*
X125844959Y-121951261D01*
X125859573Y-121931556D01*
X125876049Y-121913377D01*
X125894228Y-121896901D01*
X125913933Y-121882287D01*
X125934977Y-121869674D01*
X125957155Y-121859184D01*
X127112005Y-121380830D01*
X127135105Y-121372565D01*
X127158904Y-121366604D01*
X127183172Y-121363004D01*
X127207676Y-121361800D01*
X127232180Y-121363004D01*
X127232180Y-121363004D01*
G37*
D11*
X126807242Y-122278271D03*
D10*
G36*
X126093696Y-118614462D02*
G01*
X126117965Y-118618062D01*
X126141763Y-118624023D01*
X126164863Y-118632288D01*
X126187041Y-118642778D01*
X126208085Y-118655391D01*
X126227790Y-118670005D01*
X126245969Y-118686481D01*
X126262445Y-118704660D01*
X126277059Y-118724366D01*
X126289672Y-118745409D01*
X126300162Y-118767587D01*
X126654144Y-119622175D01*
X126662409Y-119645275D01*
X126668370Y-119669073D01*
X126671970Y-119693342D01*
X126673174Y-119717846D01*
X126671970Y-119742350D01*
X126668370Y-119766619D01*
X126662409Y-119790417D01*
X126654144Y-119813517D01*
X126643654Y-119835695D01*
X126631041Y-119856739D01*
X126616427Y-119876444D01*
X126599951Y-119894623D01*
X126581772Y-119911099D01*
X126562067Y-119925713D01*
X126541023Y-119938326D01*
X126518845Y-119948816D01*
X125363995Y-120427170D01*
X125340895Y-120435435D01*
X125317096Y-120441396D01*
X125292828Y-120444996D01*
X125268324Y-120446200D01*
X125243820Y-120444996D01*
X125219551Y-120441396D01*
X125195753Y-120435435D01*
X125172653Y-120427170D01*
X125150475Y-120416680D01*
X125129431Y-120404067D01*
X125109726Y-120389453D01*
X125091547Y-120372977D01*
X125075071Y-120354798D01*
X125060457Y-120335092D01*
X125047844Y-120314049D01*
X125037354Y-120291871D01*
X124683372Y-119437283D01*
X124675107Y-119414183D01*
X124669146Y-119390385D01*
X124665546Y-119366116D01*
X124664342Y-119341612D01*
X124665546Y-119317108D01*
X124669146Y-119292839D01*
X124675107Y-119269041D01*
X124683372Y-119245941D01*
X124693862Y-119223763D01*
X124706475Y-119202719D01*
X124721089Y-119183014D01*
X124737565Y-119164835D01*
X124755744Y-119148359D01*
X124775449Y-119133745D01*
X124796493Y-119121132D01*
X124818671Y-119110642D01*
X125973521Y-118632288D01*
X125996621Y-118624023D01*
X126020420Y-118618062D01*
X126044688Y-118614462D01*
X126069192Y-118613258D01*
X126093696Y-118614462D01*
X126093696Y-118614462D01*
G37*
D11*
X125668758Y-119529729D03*
D10*
G36*
X136846658Y-129868030D02*
G01*
X136870926Y-129871630D01*
X136894725Y-129877591D01*
X136917825Y-129885856D01*
X137772413Y-130239838D01*
X137794591Y-130250328D01*
X137815635Y-130262941D01*
X137835340Y-130277555D01*
X137853519Y-130294031D01*
X137869995Y-130312210D01*
X137884609Y-130331915D01*
X137897222Y-130352959D01*
X137907712Y-130375137D01*
X137915977Y-130398237D01*
X137921938Y-130422035D01*
X137925538Y-130446304D01*
X137926742Y-130470808D01*
X137925538Y-130495312D01*
X137921938Y-130519581D01*
X137915977Y-130543379D01*
X137907712Y-130566479D01*
X137429358Y-131721329D01*
X137418868Y-131743507D01*
X137406255Y-131764550D01*
X137391641Y-131784256D01*
X137375165Y-131802435D01*
X137356986Y-131818911D01*
X137337281Y-131833525D01*
X137316237Y-131846138D01*
X137294059Y-131856628D01*
X137270959Y-131864893D01*
X137247161Y-131870854D01*
X137222892Y-131874454D01*
X137198388Y-131875658D01*
X137173884Y-131874454D01*
X137149616Y-131870854D01*
X137125817Y-131864893D01*
X137102717Y-131856628D01*
X136248129Y-131502646D01*
X136225951Y-131492156D01*
X136204907Y-131479543D01*
X136185202Y-131464929D01*
X136167023Y-131448453D01*
X136150547Y-131430274D01*
X136135933Y-131410569D01*
X136123320Y-131389525D01*
X136112830Y-131367347D01*
X136104565Y-131344247D01*
X136098604Y-131320449D01*
X136095004Y-131296180D01*
X136093800Y-131271676D01*
X136095004Y-131247172D01*
X136098604Y-131222903D01*
X136104565Y-131199105D01*
X136112830Y-131176005D01*
X136591184Y-130021155D01*
X136601674Y-129998977D01*
X136614287Y-129977934D01*
X136628901Y-129958228D01*
X136645377Y-129940049D01*
X136663556Y-129923573D01*
X136683261Y-129908959D01*
X136704305Y-129896346D01*
X136726483Y-129885856D01*
X136749583Y-129877591D01*
X136773381Y-129871630D01*
X136797650Y-129868030D01*
X136822154Y-129866826D01*
X136846658Y-129868030D01*
X136846658Y-129868030D01*
G37*
D11*
X137010271Y-130871242D03*
D10*
G36*
X134098116Y-128729546D02*
G01*
X134122384Y-128733146D01*
X134146183Y-128739107D01*
X134169283Y-128747372D01*
X135023871Y-129101354D01*
X135046049Y-129111844D01*
X135067093Y-129124457D01*
X135086798Y-129139071D01*
X135104977Y-129155547D01*
X135121453Y-129173726D01*
X135136067Y-129193431D01*
X135148680Y-129214475D01*
X135159170Y-129236653D01*
X135167435Y-129259753D01*
X135173396Y-129283551D01*
X135176996Y-129307820D01*
X135178200Y-129332324D01*
X135176996Y-129356828D01*
X135173396Y-129381097D01*
X135167435Y-129404895D01*
X135159170Y-129427995D01*
X134680816Y-130582845D01*
X134670326Y-130605023D01*
X134657713Y-130626066D01*
X134643099Y-130645772D01*
X134626623Y-130663951D01*
X134608444Y-130680427D01*
X134588739Y-130695041D01*
X134567695Y-130707654D01*
X134545517Y-130718144D01*
X134522417Y-130726409D01*
X134498619Y-130732370D01*
X134474350Y-130735970D01*
X134449846Y-130737174D01*
X134425342Y-130735970D01*
X134401074Y-130732370D01*
X134377275Y-130726409D01*
X134354175Y-130718144D01*
X133499587Y-130364162D01*
X133477409Y-130353672D01*
X133456365Y-130341059D01*
X133436660Y-130326445D01*
X133418481Y-130309969D01*
X133402005Y-130291790D01*
X133387391Y-130272085D01*
X133374778Y-130251041D01*
X133364288Y-130228863D01*
X133356023Y-130205763D01*
X133350062Y-130181965D01*
X133346462Y-130157696D01*
X133345258Y-130133192D01*
X133346462Y-130108688D01*
X133350062Y-130084419D01*
X133356023Y-130060621D01*
X133364288Y-130037521D01*
X133842642Y-128882671D01*
X133853132Y-128860493D01*
X133865745Y-128839450D01*
X133880359Y-128819744D01*
X133896835Y-128801565D01*
X133915014Y-128785089D01*
X133934719Y-128770475D01*
X133955763Y-128757862D01*
X133977941Y-128747372D01*
X134001041Y-128739107D01*
X134024839Y-128733146D01*
X134049108Y-128729546D01*
X134073612Y-128728342D01*
X134098116Y-128729546D01*
X134098116Y-128729546D01*
G37*
D11*
X134261729Y-129732758D03*
D10*
G36*
X150430892Y-128729546D02*
G01*
X150455161Y-128733146D01*
X150478959Y-128739107D01*
X150502059Y-128747372D01*
X150524237Y-128757862D01*
X150545281Y-128770475D01*
X150564986Y-128785089D01*
X150583165Y-128801565D01*
X150599641Y-128819744D01*
X150614255Y-128839449D01*
X150626868Y-128860493D01*
X150637358Y-128882671D01*
X151115712Y-130037521D01*
X151123977Y-130060621D01*
X151129938Y-130084420D01*
X151133538Y-130108688D01*
X151134742Y-130133192D01*
X151133538Y-130157696D01*
X151129938Y-130181965D01*
X151123977Y-130205763D01*
X151115712Y-130228863D01*
X151105222Y-130251041D01*
X151092609Y-130272085D01*
X151077995Y-130291790D01*
X151061519Y-130309969D01*
X151043340Y-130326445D01*
X151023634Y-130341059D01*
X151002591Y-130353672D01*
X150980413Y-130364162D01*
X150125825Y-130718144D01*
X150102725Y-130726409D01*
X150078927Y-130732370D01*
X150054658Y-130735970D01*
X150030154Y-130737174D01*
X150005650Y-130735970D01*
X149981381Y-130732370D01*
X149957583Y-130726409D01*
X149934483Y-130718144D01*
X149912305Y-130707654D01*
X149891261Y-130695041D01*
X149871556Y-130680427D01*
X149853377Y-130663951D01*
X149836901Y-130645772D01*
X149822287Y-130626067D01*
X149809674Y-130605023D01*
X149799184Y-130582845D01*
X149320830Y-129427995D01*
X149312565Y-129404895D01*
X149306604Y-129381096D01*
X149303004Y-129356828D01*
X149301800Y-129332324D01*
X149303004Y-129307820D01*
X149306604Y-129283551D01*
X149312565Y-129259753D01*
X149320830Y-129236653D01*
X149331320Y-129214475D01*
X149343933Y-129193431D01*
X149358547Y-129173726D01*
X149375023Y-129155547D01*
X149393202Y-129139071D01*
X149412908Y-129124457D01*
X149433951Y-129111844D01*
X149456129Y-129101354D01*
X150310717Y-128747372D01*
X150333817Y-128739107D01*
X150357615Y-128733146D01*
X150381884Y-128729546D01*
X150406388Y-128728342D01*
X150430892Y-128729546D01*
X150430892Y-128729546D01*
G37*
D11*
X150218271Y-129732758D03*
D10*
G36*
X147682350Y-129868030D02*
G01*
X147706619Y-129871630D01*
X147730417Y-129877591D01*
X147753517Y-129885856D01*
X147775695Y-129896346D01*
X147796739Y-129908959D01*
X147816444Y-129923573D01*
X147834623Y-129940049D01*
X147851099Y-129958228D01*
X147865713Y-129977933D01*
X147878326Y-129998977D01*
X147888816Y-130021155D01*
X148367170Y-131176005D01*
X148375435Y-131199105D01*
X148381396Y-131222904D01*
X148384996Y-131247172D01*
X148386200Y-131271676D01*
X148384996Y-131296180D01*
X148381396Y-131320449D01*
X148375435Y-131344247D01*
X148367170Y-131367347D01*
X148356680Y-131389525D01*
X148344067Y-131410569D01*
X148329453Y-131430274D01*
X148312977Y-131448453D01*
X148294798Y-131464929D01*
X148275092Y-131479543D01*
X148254049Y-131492156D01*
X148231871Y-131502646D01*
X147377283Y-131856628D01*
X147354183Y-131864893D01*
X147330385Y-131870854D01*
X147306116Y-131874454D01*
X147281612Y-131875658D01*
X147257108Y-131874454D01*
X147232839Y-131870854D01*
X147209041Y-131864893D01*
X147185941Y-131856628D01*
X147163763Y-131846138D01*
X147142719Y-131833525D01*
X147123014Y-131818911D01*
X147104835Y-131802435D01*
X147088359Y-131784256D01*
X147073745Y-131764551D01*
X147061132Y-131743507D01*
X147050642Y-131721329D01*
X146572288Y-130566479D01*
X146564023Y-130543379D01*
X146558062Y-130519580D01*
X146554462Y-130495312D01*
X146553258Y-130470808D01*
X146554462Y-130446304D01*
X146558062Y-130422035D01*
X146564023Y-130398237D01*
X146572288Y-130375137D01*
X146582778Y-130352959D01*
X146595391Y-130331915D01*
X146610005Y-130312210D01*
X146626481Y-130294031D01*
X146644660Y-130277555D01*
X146664366Y-130262941D01*
X146685409Y-130250328D01*
X146707587Y-130239838D01*
X147562175Y-129885856D01*
X147585275Y-129877591D01*
X147609073Y-129871630D01*
X147633342Y-129868030D01*
X147657846Y-129866826D01*
X147682350Y-129868030D01*
X147682350Y-129868030D01*
G37*
D11*
X147469729Y-130871242D03*
D10*
G36*
X158435312Y-118614462D02*
G01*
X158459581Y-118618062D01*
X158483379Y-118624023D01*
X158506479Y-118632288D01*
X159661329Y-119110642D01*
X159683507Y-119121132D01*
X159704550Y-119133745D01*
X159724256Y-119148359D01*
X159742435Y-119164835D01*
X159758911Y-119183014D01*
X159773525Y-119202719D01*
X159786138Y-119223763D01*
X159796628Y-119245941D01*
X159804893Y-119269041D01*
X159810854Y-119292839D01*
X159814454Y-119317108D01*
X159815658Y-119341612D01*
X159814454Y-119366116D01*
X159810854Y-119390384D01*
X159804893Y-119414183D01*
X159796628Y-119437283D01*
X159442646Y-120291871D01*
X159432156Y-120314049D01*
X159419543Y-120335093D01*
X159404929Y-120354798D01*
X159388453Y-120372977D01*
X159370274Y-120389453D01*
X159350569Y-120404067D01*
X159329525Y-120416680D01*
X159307347Y-120427170D01*
X159284247Y-120435435D01*
X159260449Y-120441396D01*
X159236180Y-120444996D01*
X159211676Y-120446200D01*
X159187172Y-120444996D01*
X159162903Y-120441396D01*
X159139105Y-120435435D01*
X159116005Y-120427170D01*
X157961155Y-119948816D01*
X157938977Y-119938326D01*
X157917934Y-119925713D01*
X157898228Y-119911099D01*
X157880049Y-119894623D01*
X157863573Y-119876444D01*
X157848959Y-119856739D01*
X157836346Y-119835695D01*
X157825856Y-119813517D01*
X157817591Y-119790417D01*
X157811630Y-119766619D01*
X157808030Y-119742350D01*
X157806826Y-119717846D01*
X157808030Y-119693342D01*
X157811630Y-119669074D01*
X157817591Y-119645275D01*
X157825856Y-119622175D01*
X158179838Y-118767587D01*
X158190328Y-118745409D01*
X158202941Y-118724365D01*
X158217555Y-118704660D01*
X158234031Y-118686481D01*
X158252210Y-118670005D01*
X158271915Y-118655391D01*
X158292959Y-118642778D01*
X158315137Y-118632288D01*
X158338237Y-118624023D01*
X158362035Y-118618062D01*
X158386304Y-118614462D01*
X158410808Y-118613258D01*
X158435312Y-118614462D01*
X158435312Y-118614462D01*
G37*
D11*
X158811242Y-119529729D03*
D10*
G36*
X157296828Y-121363004D02*
G01*
X157321097Y-121366604D01*
X157344895Y-121372565D01*
X157367995Y-121380830D01*
X158522845Y-121859184D01*
X158545023Y-121869674D01*
X158566066Y-121882287D01*
X158585772Y-121896901D01*
X158603951Y-121913377D01*
X158620427Y-121931556D01*
X158635041Y-121951261D01*
X158647654Y-121972305D01*
X158658144Y-121994483D01*
X158666409Y-122017583D01*
X158672370Y-122041381D01*
X158675970Y-122065650D01*
X158677174Y-122090154D01*
X158675970Y-122114658D01*
X158672370Y-122138926D01*
X158666409Y-122162725D01*
X158658144Y-122185825D01*
X158304162Y-123040413D01*
X158293672Y-123062591D01*
X158281059Y-123083635D01*
X158266445Y-123103340D01*
X158249969Y-123121519D01*
X158231790Y-123137995D01*
X158212085Y-123152609D01*
X158191041Y-123165222D01*
X158168863Y-123175712D01*
X158145763Y-123183977D01*
X158121965Y-123189938D01*
X158097696Y-123193538D01*
X158073192Y-123194742D01*
X158048688Y-123193538D01*
X158024419Y-123189938D01*
X158000621Y-123183977D01*
X157977521Y-123175712D01*
X156822671Y-122697358D01*
X156800493Y-122686868D01*
X156779450Y-122674255D01*
X156759744Y-122659641D01*
X156741565Y-122643165D01*
X156725089Y-122624986D01*
X156710475Y-122605281D01*
X156697862Y-122584237D01*
X156687372Y-122562059D01*
X156679107Y-122538959D01*
X156673146Y-122515161D01*
X156669546Y-122490892D01*
X156668342Y-122466388D01*
X156669546Y-122441884D01*
X156673146Y-122417616D01*
X156679107Y-122393817D01*
X156687372Y-122370717D01*
X157041354Y-121516129D01*
X157051844Y-121493951D01*
X157064457Y-121472907D01*
X157079071Y-121453202D01*
X157095547Y-121435023D01*
X157113726Y-121418547D01*
X157133431Y-121403933D01*
X157154475Y-121391320D01*
X157176653Y-121380830D01*
X157199753Y-121372565D01*
X157223551Y-121366604D01*
X157247820Y-121363004D01*
X157272324Y-121361800D01*
X157296828Y-121363004D01*
X157296828Y-121363004D01*
G37*
D11*
X157672758Y-122278271D03*
D10*
G36*
X158097696Y-105406462D02*
G01*
X158121965Y-105410062D01*
X158145763Y-105416023D01*
X158168863Y-105424288D01*
X158191041Y-105434778D01*
X158212085Y-105447391D01*
X158231790Y-105462005D01*
X158249969Y-105478481D01*
X158266445Y-105496660D01*
X158281059Y-105516366D01*
X158293672Y-105537409D01*
X158304162Y-105559587D01*
X158658144Y-106414175D01*
X158666409Y-106437275D01*
X158672370Y-106461073D01*
X158675970Y-106485342D01*
X158677174Y-106509846D01*
X158675970Y-106534350D01*
X158672370Y-106558619D01*
X158666409Y-106582417D01*
X158658144Y-106605517D01*
X158647654Y-106627695D01*
X158635041Y-106648739D01*
X158620427Y-106668444D01*
X158603951Y-106686623D01*
X158585772Y-106703099D01*
X158566067Y-106717713D01*
X158545023Y-106730326D01*
X158522845Y-106740816D01*
X157367995Y-107219170D01*
X157344895Y-107227435D01*
X157321096Y-107233396D01*
X157296828Y-107236996D01*
X157272324Y-107238200D01*
X157247820Y-107236996D01*
X157223551Y-107233396D01*
X157199753Y-107227435D01*
X157176653Y-107219170D01*
X157154475Y-107208680D01*
X157133431Y-107196067D01*
X157113726Y-107181453D01*
X157095547Y-107164977D01*
X157079071Y-107146798D01*
X157064457Y-107127092D01*
X157051844Y-107106049D01*
X157041354Y-107083871D01*
X156687372Y-106229283D01*
X156679107Y-106206183D01*
X156673146Y-106182385D01*
X156669546Y-106158116D01*
X156668342Y-106133612D01*
X156669546Y-106109108D01*
X156673146Y-106084839D01*
X156679107Y-106061041D01*
X156687372Y-106037941D01*
X156697862Y-106015763D01*
X156710475Y-105994719D01*
X156725089Y-105975014D01*
X156741565Y-105956835D01*
X156759744Y-105940359D01*
X156779449Y-105925745D01*
X156800493Y-105913132D01*
X156822671Y-105902642D01*
X157977521Y-105424288D01*
X158000621Y-105416023D01*
X158024420Y-105410062D01*
X158048688Y-105406462D01*
X158073192Y-105405258D01*
X158097696Y-105406462D01*
X158097696Y-105406462D01*
G37*
D11*
X157672758Y-106321729D03*
D10*
G36*
X159236180Y-108155004D02*
G01*
X159260449Y-108158604D01*
X159284247Y-108164565D01*
X159307347Y-108172830D01*
X159329525Y-108183320D01*
X159350569Y-108195933D01*
X159370274Y-108210547D01*
X159388453Y-108227023D01*
X159404929Y-108245202D01*
X159419543Y-108264908D01*
X159432156Y-108285951D01*
X159442646Y-108308129D01*
X159796628Y-109162717D01*
X159804893Y-109185817D01*
X159810854Y-109209615D01*
X159814454Y-109233884D01*
X159815658Y-109258388D01*
X159814454Y-109282892D01*
X159810854Y-109307161D01*
X159804893Y-109330959D01*
X159796628Y-109354059D01*
X159786138Y-109376237D01*
X159773525Y-109397281D01*
X159758911Y-109416986D01*
X159742435Y-109435165D01*
X159724256Y-109451641D01*
X159704551Y-109466255D01*
X159683507Y-109478868D01*
X159661329Y-109489358D01*
X158506479Y-109967712D01*
X158483379Y-109975977D01*
X158459580Y-109981938D01*
X158435312Y-109985538D01*
X158410808Y-109986742D01*
X158386304Y-109985538D01*
X158362035Y-109981938D01*
X158338237Y-109975977D01*
X158315137Y-109967712D01*
X158292959Y-109957222D01*
X158271915Y-109944609D01*
X158252210Y-109929995D01*
X158234031Y-109913519D01*
X158217555Y-109895340D01*
X158202941Y-109875634D01*
X158190328Y-109854591D01*
X158179838Y-109832413D01*
X157825856Y-108977825D01*
X157817591Y-108954725D01*
X157811630Y-108930927D01*
X157808030Y-108906658D01*
X157806826Y-108882154D01*
X157808030Y-108857650D01*
X157811630Y-108833381D01*
X157817591Y-108809583D01*
X157825856Y-108786483D01*
X157836346Y-108764305D01*
X157848959Y-108743261D01*
X157863573Y-108723556D01*
X157880049Y-108705377D01*
X157898228Y-108688901D01*
X157917933Y-108674287D01*
X157938977Y-108661674D01*
X157961155Y-108651184D01*
X159116005Y-108172830D01*
X159139105Y-108164565D01*
X159162904Y-108158604D01*
X159187172Y-108155004D01*
X159211676Y-108153800D01*
X159236180Y-108155004D01*
X159236180Y-108155004D01*
G37*
D11*
X158811242Y-109070271D03*
D10*
G36*
X147306116Y-96786788D02*
G01*
X147330384Y-96790388D01*
X147354183Y-96796349D01*
X147377283Y-96804614D01*
X148231871Y-97158596D01*
X148254049Y-97169086D01*
X148275093Y-97181699D01*
X148294798Y-97196313D01*
X148312977Y-97212789D01*
X148329453Y-97230968D01*
X148344067Y-97250673D01*
X148356680Y-97271717D01*
X148367170Y-97293895D01*
X148375435Y-97316995D01*
X148381396Y-97340793D01*
X148384996Y-97365062D01*
X148386200Y-97389566D01*
X148384996Y-97414070D01*
X148381396Y-97438339D01*
X148375435Y-97462137D01*
X148367170Y-97485237D01*
X147888816Y-98640087D01*
X147878326Y-98662265D01*
X147865713Y-98683308D01*
X147851099Y-98703014D01*
X147834623Y-98721193D01*
X147816444Y-98737669D01*
X147796739Y-98752283D01*
X147775695Y-98764896D01*
X147753517Y-98775386D01*
X147730417Y-98783651D01*
X147706619Y-98789612D01*
X147682350Y-98793212D01*
X147657846Y-98794416D01*
X147633342Y-98793212D01*
X147609074Y-98789612D01*
X147585275Y-98783651D01*
X147562175Y-98775386D01*
X146707587Y-98421404D01*
X146685409Y-98410914D01*
X146664365Y-98398301D01*
X146644660Y-98383687D01*
X146626481Y-98367211D01*
X146610005Y-98349032D01*
X146595391Y-98329327D01*
X146582778Y-98308283D01*
X146572288Y-98286105D01*
X146564023Y-98263005D01*
X146558062Y-98239207D01*
X146554462Y-98214938D01*
X146553258Y-98190434D01*
X146554462Y-98165930D01*
X146558062Y-98141661D01*
X146564023Y-98117863D01*
X146572288Y-98094763D01*
X147050642Y-96939913D01*
X147061132Y-96917735D01*
X147073745Y-96896692D01*
X147088359Y-96876986D01*
X147104835Y-96858807D01*
X147123014Y-96842331D01*
X147142719Y-96827717D01*
X147163763Y-96815104D01*
X147185941Y-96804614D01*
X147209041Y-96796349D01*
X147232839Y-96790388D01*
X147257108Y-96786788D01*
X147281612Y-96785584D01*
X147306116Y-96786788D01*
X147306116Y-96786788D01*
G37*
D11*
X147469729Y-97790000D03*
D10*
G36*
X150054658Y-97925272D02*
G01*
X150078926Y-97928872D01*
X150102725Y-97934833D01*
X150125825Y-97943098D01*
X150980413Y-98297080D01*
X151002591Y-98307570D01*
X151023635Y-98320183D01*
X151043340Y-98334797D01*
X151061519Y-98351273D01*
X151077995Y-98369452D01*
X151092609Y-98389157D01*
X151105222Y-98410201D01*
X151115712Y-98432379D01*
X151123977Y-98455479D01*
X151129938Y-98479277D01*
X151133538Y-98503546D01*
X151134742Y-98528050D01*
X151133538Y-98552554D01*
X151129938Y-98576823D01*
X151123977Y-98600621D01*
X151115712Y-98623721D01*
X150637358Y-99778571D01*
X150626868Y-99800749D01*
X150614255Y-99821792D01*
X150599641Y-99841498D01*
X150583165Y-99859677D01*
X150564986Y-99876153D01*
X150545281Y-99890767D01*
X150524237Y-99903380D01*
X150502059Y-99913870D01*
X150478959Y-99922135D01*
X150455161Y-99928096D01*
X150430892Y-99931696D01*
X150406388Y-99932900D01*
X150381884Y-99931696D01*
X150357616Y-99928096D01*
X150333817Y-99922135D01*
X150310717Y-99913870D01*
X149456129Y-99559888D01*
X149433951Y-99549398D01*
X149412907Y-99536785D01*
X149393202Y-99522171D01*
X149375023Y-99505695D01*
X149358547Y-99487516D01*
X149343933Y-99467811D01*
X149331320Y-99446767D01*
X149320830Y-99424589D01*
X149312565Y-99401489D01*
X149306604Y-99377691D01*
X149303004Y-99353422D01*
X149301800Y-99328918D01*
X149303004Y-99304414D01*
X149306604Y-99280145D01*
X149312565Y-99256347D01*
X149320830Y-99233247D01*
X149799184Y-98078397D01*
X149809674Y-98056219D01*
X149822287Y-98035176D01*
X149836901Y-98015470D01*
X149853377Y-97997291D01*
X149871556Y-97980815D01*
X149891261Y-97966201D01*
X149912305Y-97953588D01*
X149934483Y-97943098D01*
X149957583Y-97934833D01*
X149981381Y-97928872D01*
X150005650Y-97925272D01*
X150030154Y-97924068D01*
X150054658Y-97925272D01*
X150054658Y-97925272D01*
G37*
D11*
X150218271Y-98928484D03*
D12*
X142240000Y-90170000D03*
D13*
X160655000Y-113030000D03*
X124079000Y-116779000D03*
X145445835Y-97028000D03*
X151511000Y-100330000D03*
X154818098Y-101346000D03*
X154813000Y-102362000D03*
X154432000Y-103885990D03*
X154432000Y-104902000D03*
X125476000Y-110744000D03*
X132842000Y-99568000D03*
D14*
X145826834Y-97408999D02*
X145445835Y-97028000D01*
X146207835Y-97790000D02*
X145826834Y-97408999D01*
X147447000Y-97790000D02*
X146207835Y-97790000D01*
X157353000Y-106045000D02*
X157607000Y-106299000D01*
X157353000Y-102489000D02*
X157353000Y-106045000D01*
X155448000Y-100584000D02*
X157353000Y-102489000D01*
X151511000Y-100330000D02*
X151765000Y-100584000D01*
X151765000Y-100584000D02*
X155448000Y-100584000D01*
X156224598Y-102752500D02*
X154818098Y-101346000D01*
X156224598Y-106665402D02*
X156224598Y-102752500D01*
X159131000Y-113665000D02*
X156224598Y-106665402D01*
X158877000Y-119634000D02*
X159131000Y-119380000D01*
X159131000Y-119380000D02*
X159131000Y-113665000D01*
X155702000Y-103251000D02*
X154813000Y-102362000D01*
X155702000Y-106807000D02*
X155702000Y-103251000D01*
X151257000Y-129159000D02*
X151257000Y-128016000D01*
X150368000Y-130048000D02*
X151257000Y-129159000D01*
X151257000Y-128016000D02*
X155540254Y-123663254D01*
X155540254Y-123663254D02*
X158623000Y-116205000D01*
X158623000Y-116205000D02*
X158623000Y-113792000D01*
X158623000Y-113792000D02*
X155702000Y-106807000D01*
X155067000Y-123444000D02*
X158115000Y-116078000D01*
X154812999Y-104266989D02*
X154432000Y-103885990D01*
X136652000Y-130937000D02*
X143256000Y-130937000D01*
X158115000Y-116078000D02*
X158115000Y-113919000D01*
X143256000Y-130937000D02*
X150622000Y-127889000D01*
X150622000Y-127889000D02*
X155067000Y-123444000D01*
X158115000Y-113919000D02*
X155194000Y-106934000D01*
X155194000Y-106934000D02*
X155194000Y-104647990D01*
X155194000Y-104647990D02*
X154812999Y-104266989D01*
X139573000Y-130429000D02*
X131130388Y-126939388D01*
X131130388Y-126939388D02*
X126746000Y-122555000D01*
X143129000Y-130429000D02*
X139573000Y-130429000D01*
X154686000Y-123063000D02*
X150241000Y-127508000D01*
X154434629Y-104904629D02*
X154686000Y-105156000D01*
X154686000Y-105156000D02*
X154686000Y-107061000D01*
X154686000Y-107061000D02*
X157607000Y-114046000D01*
X150241000Y-127508000D02*
X143129000Y-130429000D01*
X157607000Y-114046000D02*
X157607000Y-115951000D01*
X126746000Y-122555000D02*
X126746000Y-122682000D01*
X157607000Y-115951000D02*
X154686000Y-123063000D01*
X125476000Y-109263029D02*
X125476000Y-110744000D01*
X125668758Y-109070271D02*
X125476000Y-109263029D01*
X134366000Y-99441000D02*
X134366000Y-98933000D01*
X134620000Y-98806000D02*
X132842000Y-99568000D01*
X134261729Y-98867242D02*
X134620000Y-98806000D01*
G36*
X143117472Y-94761725D02*
G01*
X143993164Y-94820766D01*
X144865331Y-94919036D01*
X145732194Y-95056334D01*
X146592055Y-95232391D01*
X147443156Y-95446849D01*
X148283737Y-95699264D01*
X149112172Y-95989147D01*
X149926769Y-96315905D01*
X150725886Y-96678881D01*
X151507911Y-97077342D01*
X152271270Y-97510487D01*
X153014435Y-97977449D01*
X153735885Y-98477270D01*
X154434187Y-99008959D01*
X155107947Y-99571454D01*
X155526047Y-99953615D01*
X155479192Y-99949000D01*
X155479181Y-99949000D01*
X155448000Y-99945929D01*
X155416819Y-99949000D01*
X152315431Y-99949000D01*
X152298821Y-99908901D01*
X152201531Y-99763296D01*
X152077704Y-99639469D01*
X151932099Y-99542179D01*
X151770312Y-99475164D01*
X151598559Y-99441000D01*
X151423441Y-99441000D01*
X151251688Y-99475164D01*
X151194288Y-99498940D01*
X151179932Y-99464281D01*
X150287003Y-99094417D01*
X150279349Y-99112895D01*
X150044684Y-99015694D01*
X150052338Y-98997216D01*
X149720471Y-98859752D01*
X150384204Y-98859752D01*
X151277134Y-99229616D01*
X151443068Y-99160884D01*
X151682985Y-98588095D01*
X151712033Y-98492337D01*
X151721842Y-98392751D01*
X151712032Y-98293166D01*
X151682984Y-98197408D01*
X151635813Y-98109156D01*
X151572332Y-98031803D01*
X151494978Y-97968321D01*
X151406727Y-97921150D01*
X150982188Y-97747960D01*
X150816254Y-97816692D01*
X150384204Y-98859752D01*
X149720471Y-98859752D01*
X149159408Y-98627352D01*
X148993474Y-98696084D01*
X148802673Y-99151610D01*
X148765517Y-99134538D01*
X148735952Y-99121850D01*
X148300332Y-98947842D01*
X148360417Y-98835430D01*
X148612538Y-98226753D01*
X149187878Y-98226753D01*
X149256610Y-98392687D01*
X150149539Y-98762551D01*
X150581589Y-97719491D01*
X150512857Y-97553557D01*
X150090199Y-97375826D01*
X149994441Y-97346778D01*
X149894855Y-97336969D01*
X149795270Y-97346778D01*
X149699511Y-97375826D01*
X149611260Y-97422998D01*
X149533906Y-97486479D01*
X149470424Y-97563832D01*
X149423253Y-97652084D01*
X149187878Y-98226753D01*
X148612538Y-98226753D01*
X148838771Y-97680580D01*
X148882045Y-97537924D01*
X148896657Y-97389566D01*
X148882045Y-97241208D01*
X148838771Y-97098552D01*
X148768497Y-96967079D01*
X148673924Y-96851842D01*
X148558687Y-96757269D01*
X148427214Y-96686995D01*
X147572626Y-96333013D01*
X147429970Y-96289739D01*
X147281612Y-96275127D01*
X147133254Y-96289739D01*
X146990597Y-96333013D01*
X146859124Y-96403287D01*
X146743887Y-96497860D01*
X146649315Y-96613097D01*
X146579041Y-96744570D01*
X146427143Y-97111284D01*
X146334835Y-97018976D01*
X146334835Y-96940441D01*
X146300671Y-96768688D01*
X146233656Y-96606901D01*
X146136366Y-96461296D01*
X146012539Y-96337469D01*
X145866934Y-96240179D01*
X145705147Y-96173164D01*
X145533394Y-96139000D01*
X145358276Y-96139000D01*
X145186523Y-96173164D01*
X145024736Y-96240179D01*
X144879131Y-96337469D01*
X144755304Y-96461296D01*
X144658014Y-96606901D01*
X144590999Y-96768688D01*
X144556835Y-96940441D01*
X144556835Y-97115559D01*
X144590999Y-97287312D01*
X144658014Y-97449099D01*
X144755304Y-97594704D01*
X144879131Y-97718531D01*
X145024736Y-97815821D01*
X145186523Y-97882836D01*
X145358276Y-97917000D01*
X145436811Y-97917000D01*
X145672981Y-98153171D01*
X145579155Y-98131398D01*
X145547641Y-98124922D01*
X144755943Y-97983025D01*
X144724141Y-97978153D01*
X143926272Y-97876537D01*
X143894265Y-97873282D01*
X143092274Y-97812208D01*
X143060142Y-97810579D01*
X142256086Y-97790204D01*
X142223914Y-97790204D01*
X141419858Y-97810579D01*
X141387726Y-97812208D01*
X140585735Y-97873282D01*
X140553728Y-97876537D01*
X139755859Y-97978153D01*
X139724057Y-97983025D01*
X138932359Y-98124922D01*
X138900845Y-98131398D01*
X138509674Y-98222171D01*
X138504033Y-98164905D01*
X138474985Y-98069147D01*
X138235068Y-97496358D01*
X138069134Y-97427626D01*
X137176204Y-97797490D01*
X137183858Y-97815968D01*
X136949193Y-97913169D01*
X136941539Y-97894691D01*
X136048610Y-98264555D01*
X135979878Y-98430489D01*
X136190075Y-98943685D01*
X135744048Y-99121850D01*
X135714483Y-99134538D01*
X135677230Y-99151655D01*
X135674045Y-99119318D01*
X135630771Y-98976662D01*
X135152417Y-97821812D01*
X135082143Y-97690339D01*
X134987570Y-97575102D01*
X134872333Y-97480529D01*
X134740860Y-97410255D01*
X134598204Y-97366981D01*
X134449846Y-97352369D01*
X134301488Y-97366981D01*
X134158832Y-97410255D01*
X133304244Y-97764237D01*
X133172771Y-97834511D01*
X133057534Y-97929083D01*
X132962961Y-98044320D01*
X132892687Y-98175793D01*
X132849413Y-98318450D01*
X132834801Y-98466808D01*
X132849413Y-98615166D01*
X132868777Y-98679000D01*
X132754441Y-98679000D01*
X132582688Y-98713164D01*
X132420901Y-98780179D01*
X132275296Y-98877469D01*
X132151469Y-99001296D01*
X132054179Y-99146901D01*
X131987164Y-99308688D01*
X131953000Y-99480441D01*
X131953000Y-99655559D01*
X131987164Y-99827312D01*
X132054179Y-99989099D01*
X132151469Y-100134704D01*
X132275296Y-100258531D01*
X132420901Y-100355821D01*
X132582688Y-100422836D01*
X132754441Y-100457000D01*
X132929559Y-100457000D01*
X133101312Y-100422836D01*
X133263099Y-100355821D01*
X133408704Y-100258531D01*
X133523251Y-100143984D01*
X133535888Y-100159382D01*
X133615459Y-100224685D01*
X133520563Y-100280547D01*
X133493260Y-100297565D01*
X132821681Y-100740173D01*
X132795275Y-100758552D01*
X132146976Y-101234607D01*
X132121535Y-101254300D01*
X131498179Y-101762580D01*
X131473768Y-101783536D01*
X130876956Y-102322736D01*
X130853637Y-102344902D01*
X130284902Y-102913637D01*
X130262736Y-102936956D01*
X129723536Y-103533768D01*
X129702580Y-103558179D01*
X129194300Y-104181535D01*
X129174607Y-104206976D01*
X128698552Y-104855275D01*
X128680173Y-104881681D01*
X128237565Y-105553260D01*
X128220547Y-105580563D01*
X128207351Y-105602980D01*
X128171894Y-105573882D01*
X128083642Y-105526711D01*
X127508973Y-105291336D01*
X127343039Y-105360068D01*
X126973175Y-106252997D01*
X126991653Y-106260651D01*
X126894452Y-106495316D01*
X126875974Y-106487662D01*
X126506110Y-107380592D01*
X126574842Y-107546526D01*
X127081726Y-107758838D01*
X127074538Y-107774483D01*
X127061850Y-107804048D01*
X126874363Y-108273412D01*
X126845661Y-108249857D01*
X126714188Y-108179583D01*
X125559338Y-107701229D01*
X125416682Y-107657955D01*
X125268324Y-107643343D01*
X125119966Y-107657955D01*
X124977310Y-107701229D01*
X124845837Y-107771503D01*
X124730600Y-107866076D01*
X124636027Y-107981313D01*
X124565753Y-108112786D01*
X124211771Y-108967374D01*
X124168497Y-109110030D01*
X124153885Y-109258388D01*
X124168497Y-109406746D01*
X124211771Y-109549403D01*
X124282045Y-109680876D01*
X124376618Y-109796113D01*
X124491855Y-109890685D01*
X124623328Y-109960959D01*
X124841001Y-110051122D01*
X124841001Y-110121764D01*
X124785469Y-110177296D01*
X124688179Y-110322901D01*
X124621164Y-110484688D01*
X124587000Y-110656441D01*
X124587000Y-110831559D01*
X124621164Y-111003312D01*
X124688179Y-111165099D01*
X124785469Y-111310704D01*
X124909296Y-111434531D01*
X125054901Y-111531821D01*
X125216688Y-111598836D01*
X125388441Y-111633000D01*
X125563559Y-111633000D01*
X125735312Y-111598836D01*
X125897099Y-111531821D01*
X125977912Y-111477824D01*
X125923025Y-111784057D01*
X125918153Y-111815859D01*
X125816537Y-112613728D01*
X125813282Y-112645735D01*
X125752208Y-113447726D01*
X125750579Y-113479858D01*
X125730204Y-114283914D01*
X125730204Y-114316086D01*
X125750579Y-115120142D01*
X125752208Y-115152274D01*
X125813282Y-115954265D01*
X125816537Y-115986272D01*
X125918153Y-116784141D01*
X125923025Y-116815943D01*
X126064922Y-117607641D01*
X126071398Y-117639155D01*
X126162171Y-118030326D01*
X126104905Y-118035967D01*
X126009147Y-118065015D01*
X125436358Y-118304932D01*
X125367626Y-118470866D01*
X125737490Y-119363796D01*
X125755968Y-119356142D01*
X125853169Y-119590807D01*
X125834691Y-119598461D01*
X126204555Y-120491390D01*
X126370489Y-120560122D01*
X126883685Y-120349925D01*
X127061850Y-120795952D01*
X127074538Y-120825517D01*
X127091655Y-120862770D01*
X127059318Y-120865955D01*
X126916662Y-120909229D01*
X125761812Y-121387583D01*
X125630339Y-121457857D01*
X125515102Y-121552430D01*
X125420529Y-121667667D01*
X125350255Y-121799140D01*
X125306981Y-121941796D01*
X125292369Y-122090154D01*
X125306981Y-122238512D01*
X125350255Y-122381168D01*
X125704237Y-123235756D01*
X125774511Y-123367229D01*
X125869083Y-123482466D01*
X125984320Y-123577039D01*
X126115793Y-123647313D01*
X126258450Y-123690587D01*
X126406808Y-123705199D01*
X126555166Y-123690587D01*
X126697822Y-123647313D01*
X126869272Y-123576296D01*
X130659489Y-127366514D01*
X130679542Y-127390912D01*
X130728233Y-127430811D01*
X130775894Y-127469925D01*
X130776104Y-127470037D01*
X130776293Y-127470192D01*
X130830494Y-127499110D01*
X130886208Y-127528890D01*
X130916442Y-127538061D01*
X133419138Y-128572509D01*
X133231336Y-129031027D01*
X133300068Y-129196961D01*
X134192997Y-129566825D01*
X134200651Y-129548347D01*
X134435316Y-129645548D01*
X134427662Y-129664026D01*
X135320592Y-130033890D01*
X135486526Y-129965158D01*
X135678661Y-129506445D01*
X136179612Y-129713505D01*
X136119583Y-129825812D01*
X135641229Y-130980662D01*
X135597955Y-131123318D01*
X135583343Y-131271676D01*
X135597955Y-131420034D01*
X135641229Y-131562690D01*
X135711503Y-131694163D01*
X135806076Y-131809400D01*
X135921313Y-131903973D01*
X136052786Y-131974247D01*
X136907374Y-132328229D01*
X137050030Y-132371503D01*
X137198388Y-132386115D01*
X137346746Y-132371503D01*
X137489403Y-132328229D01*
X137620876Y-132257955D01*
X137736113Y-132163382D01*
X137830685Y-132048145D01*
X137900959Y-131916672D01*
X138043727Y-131572000D01*
X143224697Y-131572000D01*
X143255771Y-131575072D01*
X143277160Y-131572973D01*
X146439336Y-131572973D01*
X146674711Y-132147642D01*
X146721882Y-132235894D01*
X146785364Y-132313247D01*
X146862718Y-132376728D01*
X146950969Y-132423900D01*
X147046728Y-132452948D01*
X147146313Y-132462757D01*
X147245899Y-132452948D01*
X147341657Y-132423900D01*
X147764315Y-132246169D01*
X147833047Y-132080235D01*
X147400997Y-131037175D01*
X146508068Y-131407039D01*
X146439336Y-131572973D01*
X143277160Y-131572973D01*
X143287076Y-131572000D01*
X143287192Y-131572000D01*
X143319232Y-131568844D01*
X143380256Y-131562856D01*
X143380362Y-131562824D01*
X143380482Y-131562812D01*
X143441873Y-131544189D01*
X143469971Y-131535677D01*
X143470072Y-131535635D01*
X143500180Y-131526502D01*
X143527724Y-131511779D01*
X145993113Y-130491618D01*
X146005015Y-130530853D01*
X146244932Y-131103642D01*
X146410866Y-131172374D01*
X146971928Y-130939974D01*
X147635662Y-130939974D01*
X148067712Y-131983034D01*
X148233646Y-132051766D01*
X148658185Y-131878576D01*
X148746436Y-131831405D01*
X148823790Y-131767923D01*
X148887271Y-131690570D01*
X148934442Y-131602318D01*
X148963490Y-131506560D01*
X148973300Y-131406975D01*
X148963491Y-131307389D01*
X148934443Y-131211631D01*
X148694526Y-130638842D01*
X148528592Y-130570110D01*
X147635662Y-130939974D01*
X146971928Y-130939974D01*
X147303796Y-130802510D01*
X147296142Y-130784032D01*
X147530807Y-130686831D01*
X147538461Y-130705309D01*
X148431390Y-130335445D01*
X148500122Y-130169511D01*
X148289925Y-129656315D01*
X148735952Y-129478150D01*
X148765517Y-129465462D01*
X148802770Y-129448345D01*
X148805955Y-129480682D01*
X148849229Y-129623338D01*
X149327583Y-130778188D01*
X149397857Y-130909661D01*
X149492430Y-131024898D01*
X149607667Y-131119471D01*
X149739140Y-131189745D01*
X149881796Y-131233019D01*
X150030154Y-131247631D01*
X150178512Y-131233019D01*
X150321168Y-131189745D01*
X151175756Y-130835763D01*
X151307229Y-130765489D01*
X151422466Y-130670917D01*
X151517039Y-130555680D01*
X151587313Y-130424207D01*
X151630587Y-130281550D01*
X151645199Y-130133192D01*
X151630587Y-129984834D01*
X151587313Y-129842178D01*
X151553494Y-129760531D01*
X151683956Y-129630069D01*
X151708185Y-129610185D01*
X151767672Y-129537700D01*
X151787538Y-129513494D01*
X151846502Y-129403180D01*
X151860390Y-129357396D01*
X151882812Y-129283482D01*
X151892000Y-129190192D01*
X151892000Y-129190189D01*
X151895072Y-129159000D01*
X151892000Y-129127811D01*
X151892000Y-128276037D01*
X155969363Y-124132523D01*
X155991778Y-124114100D01*
X156013111Y-124088065D01*
X156014743Y-124086407D01*
X156032946Y-124063860D01*
X156071057Y-124017349D01*
X156072155Y-124015292D01*
X156073627Y-124013468D01*
X156101691Y-123959932D01*
X156115184Y-123934643D01*
X156116063Y-123932516D01*
X156131702Y-123902683D01*
X156139906Y-123874832D01*
X156362154Y-123337134D01*
X157371626Y-123337134D01*
X157440358Y-123503068D01*
X158013147Y-123742985D01*
X158108905Y-123772033D01*
X158208491Y-123781842D01*
X158308076Y-123772032D01*
X158403834Y-123742984D01*
X158492086Y-123695813D01*
X158569439Y-123632332D01*
X158632921Y-123554978D01*
X158680092Y-123466727D01*
X158853282Y-123042188D01*
X158784550Y-122876254D01*
X157741490Y-122444204D01*
X157371626Y-123337134D01*
X156362154Y-123337134D01*
X156460373Y-123099509D01*
X156971027Y-123308664D01*
X157136961Y-123239932D01*
X157506825Y-122347003D01*
X157488347Y-122339349D01*
X157542115Y-122209539D01*
X157838691Y-122209539D01*
X158881751Y-122641589D01*
X159047685Y-122572857D01*
X159225416Y-122150199D01*
X159254464Y-122054441D01*
X159264273Y-121954855D01*
X159254464Y-121855270D01*
X159225416Y-121759511D01*
X159178244Y-121671260D01*
X159114763Y-121593906D01*
X159037410Y-121530424D01*
X158949158Y-121483253D01*
X158374489Y-121247878D01*
X158208555Y-121316610D01*
X157838691Y-122209539D01*
X157542115Y-122209539D01*
X157585548Y-122104684D01*
X157604026Y-122112338D01*
X157973890Y-121219408D01*
X157905158Y-121053474D01*
X157398274Y-120841162D01*
X157405462Y-120825517D01*
X157418150Y-120795952D01*
X157580408Y-120389749D01*
X157606292Y-120327126D01*
X157634339Y-120350143D01*
X157765812Y-120420417D01*
X158920662Y-120898771D01*
X159063318Y-120942045D01*
X159211676Y-120956657D01*
X159360034Y-120942045D01*
X159502690Y-120898771D01*
X159634163Y-120828497D01*
X159749400Y-120733924D01*
X159843973Y-120618687D01*
X159914247Y-120487214D01*
X160268229Y-119632626D01*
X160311503Y-119489970D01*
X160326115Y-119341612D01*
X160311503Y-119193254D01*
X160268229Y-119050597D01*
X160197955Y-118919124D01*
X160103382Y-118803887D01*
X159988145Y-118709315D01*
X159856672Y-118639041D01*
X159766000Y-118601483D01*
X159766000Y-113695916D01*
X159769072Y-113664450D01*
X159762928Y-113602616D01*
X159756812Y-113540518D01*
X159756731Y-113540252D01*
X159756704Y-113539978D01*
X159738694Y-113480791D01*
X159720502Y-113420820D01*
X159705597Y-113392935D01*
X158511788Y-110517839D01*
X159043642Y-110295068D01*
X159112374Y-110129134D01*
X158742510Y-109236204D01*
X158724032Y-109243858D01*
X158680600Y-109139003D01*
X158977175Y-109139003D01*
X159347039Y-110031932D01*
X159512973Y-110100664D01*
X160087642Y-109865289D01*
X160175894Y-109818118D01*
X160253247Y-109754636D01*
X160316728Y-109677282D01*
X160363900Y-109589031D01*
X160392948Y-109493272D01*
X160402757Y-109393687D01*
X160392948Y-109294101D01*
X160363900Y-109198343D01*
X160186169Y-108775685D01*
X160020235Y-108706953D01*
X158977175Y-109139003D01*
X158680600Y-109139003D01*
X158626831Y-109009193D01*
X158645309Y-109001539D01*
X158275445Y-108108610D01*
X158109511Y-108039878D01*
X157596315Y-108250075D01*
X157500980Y-108011408D01*
X158510110Y-108011408D01*
X158879974Y-108904338D01*
X159923034Y-108472288D01*
X159991766Y-108306354D01*
X159818576Y-107881815D01*
X159771405Y-107793564D01*
X159707923Y-107716210D01*
X159630570Y-107652729D01*
X159542318Y-107605558D01*
X159446560Y-107576510D01*
X159346975Y-107566700D01*
X159247389Y-107576509D01*
X159151631Y-107605557D01*
X158578842Y-107845474D01*
X158510110Y-108011408D01*
X157500980Y-108011408D01*
X157418150Y-107804048D01*
X157405462Y-107774483D01*
X157388345Y-107737230D01*
X157420682Y-107734045D01*
X157563338Y-107690771D01*
X158718188Y-107212417D01*
X158849661Y-107142143D01*
X158964898Y-107047570D01*
X159059471Y-106932333D01*
X159129745Y-106800860D01*
X159173019Y-106658204D01*
X159187631Y-106509846D01*
X159173019Y-106361488D01*
X159129745Y-106218832D01*
X158775763Y-105364244D01*
X158705489Y-105232771D01*
X158610917Y-105117534D01*
X158495680Y-105022961D01*
X158364207Y-104952687D01*
X158221550Y-104909413D01*
X158073192Y-104894801D01*
X157988000Y-104903192D01*
X157988000Y-102705967D01*
X158062730Y-102804115D01*
X158562551Y-103525565D01*
X159029513Y-104268730D01*
X159462658Y-105032089D01*
X159861119Y-105814114D01*
X160224095Y-106613231D01*
X160550853Y-107427828D01*
X160840736Y-108256263D01*
X161093151Y-109096844D01*
X161307609Y-109947945D01*
X161483666Y-110807806D01*
X161620964Y-111674669D01*
X161719234Y-112546836D01*
X161778275Y-113422528D01*
X161797968Y-114300000D01*
X161778275Y-115177472D01*
X161719234Y-116053164D01*
X161620964Y-116925331D01*
X161483666Y-117792194D01*
X161307609Y-118652055D01*
X161093151Y-119503156D01*
X160840736Y-120343737D01*
X160550853Y-121172172D01*
X160224095Y-121986769D01*
X159861119Y-122785886D01*
X159462658Y-123567911D01*
X159029513Y-124331270D01*
X158562551Y-125074435D01*
X158062730Y-125795885D01*
X157531041Y-126494187D01*
X156968546Y-127167947D01*
X156376411Y-127815768D01*
X155755768Y-128436411D01*
X155107947Y-129028546D01*
X154434187Y-129591041D01*
X153735885Y-130122730D01*
X153014435Y-130622551D01*
X152271270Y-131089513D01*
X151507911Y-131522658D01*
X150725886Y-131921119D01*
X149926769Y-132284095D01*
X149112172Y-132610853D01*
X148283737Y-132900736D01*
X147443156Y-133153151D01*
X146592055Y-133367609D01*
X145732194Y-133543666D01*
X144865331Y-133680964D01*
X143993164Y-133779234D01*
X143117472Y-133838275D01*
X142240000Y-133857968D01*
X141362528Y-133838275D01*
X140486836Y-133779234D01*
X139614669Y-133680964D01*
X138747806Y-133543666D01*
X137887945Y-133367609D01*
X137036844Y-133153151D01*
X136196263Y-132900736D01*
X135367828Y-132610853D01*
X134553231Y-132284095D01*
X133754114Y-131921119D01*
X132972089Y-131522658D01*
X132208730Y-131089513D01*
X131973569Y-130941751D01*
X133898411Y-130941751D01*
X133967143Y-131107685D01*
X134389801Y-131285416D01*
X134485559Y-131314464D01*
X134585145Y-131324273D01*
X134684730Y-131314464D01*
X134780489Y-131285416D01*
X134868740Y-131238244D01*
X134946094Y-131174763D01*
X135009576Y-131097410D01*
X135056747Y-131009158D01*
X135292122Y-130434489D01*
X135223390Y-130268555D01*
X134330461Y-129898691D01*
X133898411Y-130941751D01*
X131973569Y-130941751D01*
X131465565Y-130622551D01*
X130954509Y-130268491D01*
X132758158Y-130268491D01*
X132767968Y-130368076D01*
X132797016Y-130463834D01*
X132844187Y-130552086D01*
X132907668Y-130629439D01*
X132985022Y-130692921D01*
X133073273Y-130740092D01*
X133497812Y-130913282D01*
X133663746Y-130844550D01*
X134095796Y-129801490D01*
X133202866Y-129431626D01*
X133036932Y-129500358D01*
X132797015Y-130073147D01*
X132767967Y-130168905D01*
X132758158Y-130268491D01*
X130954509Y-130268491D01*
X130744115Y-130122730D01*
X130045813Y-129591041D01*
X129372053Y-129028546D01*
X128724232Y-128436411D01*
X128103589Y-127815768D01*
X127511454Y-127167947D01*
X126948959Y-126494187D01*
X126417270Y-125795885D01*
X125917449Y-125074435D01*
X125450487Y-124331270D01*
X125017342Y-123567911D01*
X124618881Y-122785886D01*
X124255905Y-121986769D01*
X123929147Y-121172172D01*
X123639264Y-120343737D01*
X123624223Y-120293646D01*
X124488234Y-120293646D01*
X124661424Y-120718185D01*
X124708595Y-120806436D01*
X124772077Y-120883790D01*
X124849430Y-120947271D01*
X124937682Y-120994442D01*
X125033440Y-121023490D01*
X125133025Y-121033300D01*
X125232611Y-121023491D01*
X125328369Y-120994443D01*
X125901158Y-120754526D01*
X125969890Y-120588592D01*
X125600026Y-119695662D01*
X124556966Y-120127712D01*
X124488234Y-120293646D01*
X123624223Y-120293646D01*
X123386849Y-119503156D01*
X123312052Y-119206313D01*
X124077243Y-119206313D01*
X124087052Y-119305899D01*
X124116100Y-119401657D01*
X124293831Y-119824315D01*
X124459765Y-119893047D01*
X125502825Y-119460997D01*
X125132961Y-118568068D01*
X124967027Y-118499336D01*
X124392358Y-118734711D01*
X124304106Y-118781882D01*
X124226753Y-118845364D01*
X124163272Y-118922718D01*
X124116100Y-119010969D01*
X124087052Y-119106728D01*
X124077243Y-119206313D01*
X123312052Y-119206313D01*
X123172391Y-118652055D01*
X122996334Y-117792194D01*
X122859036Y-116925331D01*
X122760766Y-116053164D01*
X122701725Y-115177472D01*
X122682032Y-114300000D01*
X122701725Y-113422528D01*
X122760766Y-112546836D01*
X122859036Y-111674669D01*
X122996334Y-110807806D01*
X123172391Y-109947945D01*
X123386849Y-109096844D01*
X123639264Y-108256263D01*
X123929147Y-107427828D01*
X124243103Y-106645145D01*
X125215727Y-106645145D01*
X125225536Y-106744730D01*
X125254584Y-106840489D01*
X125301756Y-106928740D01*
X125365237Y-107006094D01*
X125442590Y-107069576D01*
X125530842Y-107116747D01*
X126105511Y-107352122D01*
X126271445Y-107283390D01*
X126641309Y-106390461D01*
X125598249Y-105958411D01*
X125432315Y-106027143D01*
X125254584Y-106449801D01*
X125225536Y-106545559D01*
X125215727Y-106645145D01*
X124243103Y-106645145D01*
X124255905Y-106613231D01*
X124618881Y-105814114D01*
X124749473Y-105557812D01*
X125626718Y-105557812D01*
X125695450Y-105723746D01*
X126738510Y-106155796D01*
X127108374Y-105262866D01*
X127039642Y-105096932D01*
X126466853Y-104857015D01*
X126371095Y-104827967D01*
X126271509Y-104818158D01*
X126171924Y-104827968D01*
X126076166Y-104857016D01*
X125987914Y-104904187D01*
X125910561Y-104967668D01*
X125847079Y-105045022D01*
X125799908Y-105133273D01*
X125626718Y-105557812D01*
X124749473Y-105557812D01*
X125017342Y-105032089D01*
X125450487Y-104268730D01*
X125917449Y-103525565D01*
X126417270Y-102804115D01*
X126948959Y-102105813D01*
X127511454Y-101432053D01*
X128103589Y-100784232D01*
X128724232Y-100163589D01*
X129372053Y-99571454D01*
X130045813Y-99008959D01*
X130744115Y-98477270D01*
X131465565Y-97977449D01*
X132208730Y-97510487D01*
X132768213Y-97193025D01*
X135506700Y-97193025D01*
X135516509Y-97292611D01*
X135545557Y-97388369D01*
X135785474Y-97961158D01*
X135951408Y-98029890D01*
X136844338Y-97660026D01*
X136412288Y-96616966D01*
X136246354Y-96548234D01*
X135821815Y-96721424D01*
X135733564Y-96768595D01*
X135656210Y-96832077D01*
X135592729Y-96909430D01*
X135545558Y-96997682D01*
X135516510Y-97093440D01*
X135506700Y-97193025D01*
X132768213Y-97193025D01*
X132972089Y-97077342D01*
X133754114Y-96678881D01*
X134104418Y-96519765D01*
X136646953Y-96519765D01*
X137079003Y-97562825D01*
X137971932Y-97192961D01*
X138040664Y-97027027D01*
X137805289Y-96452358D01*
X137758118Y-96364106D01*
X137694636Y-96286753D01*
X137617282Y-96223272D01*
X137529031Y-96176100D01*
X137433272Y-96147052D01*
X137333687Y-96137243D01*
X137234101Y-96147052D01*
X137138343Y-96176100D01*
X136715685Y-96353831D01*
X136646953Y-96519765D01*
X134104418Y-96519765D01*
X134553231Y-96315905D01*
X135367828Y-95989147D01*
X136196263Y-95699264D01*
X137036844Y-95446849D01*
X137887945Y-95232391D01*
X138747806Y-95056334D01*
X139614669Y-94919036D01*
X140486836Y-94820766D01*
X141362528Y-94761725D01*
X142240000Y-94742032D01*
X143117472Y-94761725D01*
X143117472Y-94761725D01*
G37*
X143117472Y-94761725D02*
X143993164Y-94820766D01*
X144865331Y-94919036D01*
X145732194Y-95056334D01*
X146592055Y-95232391D01*
X147443156Y-95446849D01*
X148283737Y-95699264D01*
X149112172Y-95989147D01*
X149926769Y-96315905D01*
X150725886Y-96678881D01*
X151507911Y-97077342D01*
X152271270Y-97510487D01*
X153014435Y-97977449D01*
X153735885Y-98477270D01*
X154434187Y-99008959D01*
X155107947Y-99571454D01*
X155526047Y-99953615D01*
X155479192Y-99949000D01*
X155479181Y-99949000D01*
X155448000Y-99945929D01*
X155416819Y-99949000D01*
X152315431Y-99949000D01*
X152298821Y-99908901D01*
X152201531Y-99763296D01*
X152077704Y-99639469D01*
X151932099Y-99542179D01*
X151770312Y-99475164D01*
X151598559Y-99441000D01*
X151423441Y-99441000D01*
X151251688Y-99475164D01*
X151194288Y-99498940D01*
X151179932Y-99464281D01*
X150287003Y-99094417D01*
X150279349Y-99112895D01*
X150044684Y-99015694D01*
X150052338Y-98997216D01*
X149720471Y-98859752D01*
X150384204Y-98859752D01*
X151277134Y-99229616D01*
X151443068Y-99160884D01*
X151682985Y-98588095D01*
X151712033Y-98492337D01*
X151721842Y-98392751D01*
X151712032Y-98293166D01*
X151682984Y-98197408D01*
X151635813Y-98109156D01*
X151572332Y-98031803D01*
X151494978Y-97968321D01*
X151406727Y-97921150D01*
X150982188Y-97747960D01*
X150816254Y-97816692D01*
X150384204Y-98859752D01*
X149720471Y-98859752D01*
X149159408Y-98627352D01*
X148993474Y-98696084D01*
X148802673Y-99151610D01*
X148765517Y-99134538D01*
X148735952Y-99121850D01*
X148300332Y-98947842D01*
X148360417Y-98835430D01*
X148612538Y-98226753D01*
X149187878Y-98226753D01*
X149256610Y-98392687D01*
X150149539Y-98762551D01*
X150581589Y-97719491D01*
X150512857Y-97553557D01*
X150090199Y-97375826D01*
X149994441Y-97346778D01*
X149894855Y-97336969D01*
X149795270Y-97346778D01*
X149699511Y-97375826D01*
X149611260Y-97422998D01*
X149533906Y-97486479D01*
X149470424Y-97563832D01*
X149423253Y-97652084D01*
X149187878Y-98226753D01*
X148612538Y-98226753D01*
X148838771Y-97680580D01*
X148882045Y-97537924D01*
X148896657Y-97389566D01*
X148882045Y-97241208D01*
X148838771Y-97098552D01*
X148768497Y-96967079D01*
X148673924Y-96851842D01*
X148558687Y-96757269D01*
X148427214Y-96686995D01*
X147572626Y-96333013D01*
X147429970Y-96289739D01*
X147281612Y-96275127D01*
X147133254Y-96289739D01*
X146990597Y-96333013D01*
X146859124Y-96403287D01*
X146743887Y-96497860D01*
X146649315Y-96613097D01*
X146579041Y-96744570D01*
X146427143Y-97111284D01*
X146334835Y-97018976D01*
X146334835Y-96940441D01*
X146300671Y-96768688D01*
X146233656Y-96606901D01*
X146136366Y-96461296D01*
X146012539Y-96337469D01*
X145866934Y-96240179D01*
X145705147Y-96173164D01*
X145533394Y-96139000D01*
X145358276Y-96139000D01*
X145186523Y-96173164D01*
X145024736Y-96240179D01*
X144879131Y-96337469D01*
X144755304Y-96461296D01*
X144658014Y-96606901D01*
X144590999Y-96768688D01*
X144556835Y-96940441D01*
X144556835Y-97115559D01*
X144590999Y-97287312D01*
X144658014Y-97449099D01*
X144755304Y-97594704D01*
X144879131Y-97718531D01*
X145024736Y-97815821D01*
X145186523Y-97882836D01*
X145358276Y-97917000D01*
X145436811Y-97917000D01*
X145672981Y-98153171D01*
X145579155Y-98131398D01*
X145547641Y-98124922D01*
X144755943Y-97983025D01*
X144724141Y-97978153D01*
X143926272Y-97876537D01*
X143894265Y-97873282D01*
X143092274Y-97812208D01*
X143060142Y-97810579D01*
X142256086Y-97790204D01*
X142223914Y-97790204D01*
X141419858Y-97810579D01*
X141387726Y-97812208D01*
X140585735Y-97873282D01*
X140553728Y-97876537D01*
X139755859Y-97978153D01*
X139724057Y-97983025D01*
X138932359Y-98124922D01*
X138900845Y-98131398D01*
X138509674Y-98222171D01*
X138504033Y-98164905D01*
X138474985Y-98069147D01*
X138235068Y-97496358D01*
X138069134Y-97427626D01*
X137176204Y-97797490D01*
X137183858Y-97815968D01*
X136949193Y-97913169D01*
X136941539Y-97894691D01*
X136048610Y-98264555D01*
X135979878Y-98430489D01*
X136190075Y-98943685D01*
X135744048Y-99121850D01*
X135714483Y-99134538D01*
X135677230Y-99151655D01*
X135674045Y-99119318D01*
X135630771Y-98976662D01*
X135152417Y-97821812D01*
X135082143Y-97690339D01*
X134987570Y-97575102D01*
X134872333Y-97480529D01*
X134740860Y-97410255D01*
X134598204Y-97366981D01*
X134449846Y-97352369D01*
X134301488Y-97366981D01*
X134158832Y-97410255D01*
X133304244Y-97764237D01*
X133172771Y-97834511D01*
X133057534Y-97929083D01*
X132962961Y-98044320D01*
X132892687Y-98175793D01*
X132849413Y-98318450D01*
X132834801Y-98466808D01*
X132849413Y-98615166D01*
X132868777Y-98679000D01*
X132754441Y-98679000D01*
X132582688Y-98713164D01*
X132420901Y-98780179D01*
X132275296Y-98877469D01*
X132151469Y-99001296D01*
X132054179Y-99146901D01*
X131987164Y-99308688D01*
X131953000Y-99480441D01*
X131953000Y-99655559D01*
X131987164Y-99827312D01*
X132054179Y-99989099D01*
X132151469Y-100134704D01*
X132275296Y-100258531D01*
X132420901Y-100355821D01*
X132582688Y-100422836D01*
X132754441Y-100457000D01*
X132929559Y-100457000D01*
X133101312Y-100422836D01*
X133263099Y-100355821D01*
X133408704Y-100258531D01*
X133523251Y-100143984D01*
X133535888Y-100159382D01*
X133615459Y-100224685D01*
X133520563Y-100280547D01*
X133493260Y-100297565D01*
X132821681Y-100740173D01*
X132795275Y-100758552D01*
X132146976Y-101234607D01*
X132121535Y-101254300D01*
X131498179Y-101762580D01*
X131473768Y-101783536D01*
X130876956Y-102322736D01*
X130853637Y-102344902D01*
X130284902Y-102913637D01*
X130262736Y-102936956D01*
X129723536Y-103533768D01*
X129702580Y-103558179D01*
X129194300Y-104181535D01*
X129174607Y-104206976D01*
X128698552Y-104855275D01*
X128680173Y-104881681D01*
X128237565Y-105553260D01*
X128220547Y-105580563D01*
X128207351Y-105602980D01*
X128171894Y-105573882D01*
X128083642Y-105526711D01*
X127508973Y-105291336D01*
X127343039Y-105360068D01*
X126973175Y-106252997D01*
X126991653Y-106260651D01*
X126894452Y-106495316D01*
X126875974Y-106487662D01*
X126506110Y-107380592D01*
X126574842Y-107546526D01*
X127081726Y-107758838D01*
X127074538Y-107774483D01*
X127061850Y-107804048D01*
X126874363Y-108273412D01*
X126845661Y-108249857D01*
X126714188Y-108179583D01*
X125559338Y-107701229D01*
X125416682Y-107657955D01*
X125268324Y-107643343D01*
X125119966Y-107657955D01*
X124977310Y-107701229D01*
X124845837Y-107771503D01*
X124730600Y-107866076D01*
X124636027Y-107981313D01*
X124565753Y-108112786D01*
X124211771Y-108967374D01*
X124168497Y-109110030D01*
X124153885Y-109258388D01*
X124168497Y-109406746D01*
X124211771Y-109549403D01*
X124282045Y-109680876D01*
X124376618Y-109796113D01*
X124491855Y-109890685D01*
X124623328Y-109960959D01*
X124841001Y-110051122D01*
X124841001Y-110121764D01*
X124785469Y-110177296D01*
X124688179Y-110322901D01*
X124621164Y-110484688D01*
X124587000Y-110656441D01*
X124587000Y-110831559D01*
X124621164Y-111003312D01*
X124688179Y-111165099D01*
X124785469Y-111310704D01*
X124909296Y-111434531D01*
X125054901Y-111531821D01*
X125216688Y-111598836D01*
X125388441Y-111633000D01*
X125563559Y-111633000D01*
X125735312Y-111598836D01*
X125897099Y-111531821D01*
X125977912Y-111477824D01*
X125923025Y-111784057D01*
X125918153Y-111815859D01*
X125816537Y-112613728D01*
X125813282Y-112645735D01*
X125752208Y-113447726D01*
X125750579Y-113479858D01*
X125730204Y-114283914D01*
X125730204Y-114316086D01*
X125750579Y-115120142D01*
X125752208Y-115152274D01*
X125813282Y-115954265D01*
X125816537Y-115986272D01*
X125918153Y-116784141D01*
X125923025Y-116815943D01*
X126064922Y-117607641D01*
X126071398Y-117639155D01*
X126162171Y-118030326D01*
X126104905Y-118035967D01*
X126009147Y-118065015D01*
X125436358Y-118304932D01*
X125367626Y-118470866D01*
X125737490Y-119363796D01*
X125755968Y-119356142D01*
X125853169Y-119590807D01*
X125834691Y-119598461D01*
X126204555Y-120491390D01*
X126370489Y-120560122D01*
X126883685Y-120349925D01*
X127061850Y-120795952D01*
X127074538Y-120825517D01*
X127091655Y-120862770D01*
X127059318Y-120865955D01*
X126916662Y-120909229D01*
X125761812Y-121387583D01*
X125630339Y-121457857D01*
X125515102Y-121552430D01*
X125420529Y-121667667D01*
X125350255Y-121799140D01*
X125306981Y-121941796D01*
X125292369Y-122090154D01*
X125306981Y-122238512D01*
X125350255Y-122381168D01*
X125704237Y-123235756D01*
X125774511Y-123367229D01*
X125869083Y-123482466D01*
X125984320Y-123577039D01*
X126115793Y-123647313D01*
X126258450Y-123690587D01*
X126406808Y-123705199D01*
X126555166Y-123690587D01*
X126697822Y-123647313D01*
X126869272Y-123576296D01*
X130659489Y-127366514D01*
X130679542Y-127390912D01*
X130728233Y-127430811D01*
X130775894Y-127469925D01*
X130776104Y-127470037D01*
X130776293Y-127470192D01*
X130830494Y-127499110D01*
X130886208Y-127528890D01*
X130916442Y-127538061D01*
X133419138Y-128572509D01*
X133231336Y-129031027D01*
X133300068Y-129196961D01*
X134192997Y-129566825D01*
X134200651Y-129548347D01*
X134435316Y-129645548D01*
X134427662Y-129664026D01*
X135320592Y-130033890D01*
X135486526Y-129965158D01*
X135678661Y-129506445D01*
X136179612Y-129713505D01*
X136119583Y-129825812D01*
X135641229Y-130980662D01*
X135597955Y-131123318D01*
X135583343Y-131271676D01*
X135597955Y-131420034D01*
X135641229Y-131562690D01*
X135711503Y-131694163D01*
X135806076Y-131809400D01*
X135921313Y-131903973D01*
X136052786Y-131974247D01*
X136907374Y-132328229D01*
X137050030Y-132371503D01*
X137198388Y-132386115D01*
X137346746Y-132371503D01*
X137489403Y-132328229D01*
X137620876Y-132257955D01*
X137736113Y-132163382D01*
X137830685Y-132048145D01*
X137900959Y-131916672D01*
X138043727Y-131572000D01*
X143224697Y-131572000D01*
X143255771Y-131575072D01*
X143277160Y-131572973D01*
X146439336Y-131572973D01*
X146674711Y-132147642D01*
X146721882Y-132235894D01*
X146785364Y-132313247D01*
X146862718Y-132376728D01*
X146950969Y-132423900D01*
X147046728Y-132452948D01*
X147146313Y-132462757D01*
X147245899Y-132452948D01*
X147341657Y-132423900D01*
X147764315Y-132246169D01*
X147833047Y-132080235D01*
X147400997Y-131037175D01*
X146508068Y-131407039D01*
X146439336Y-131572973D01*
X143277160Y-131572973D01*
X143287076Y-131572000D01*
X143287192Y-131572000D01*
X143319232Y-131568844D01*
X143380256Y-131562856D01*
X143380362Y-131562824D01*
X143380482Y-131562812D01*
X143441873Y-131544189D01*
X143469971Y-131535677D01*
X143470072Y-131535635D01*
X143500180Y-131526502D01*
X143527724Y-131511779D01*
X145993113Y-130491618D01*
X146005015Y-130530853D01*
X146244932Y-131103642D01*
X146410866Y-131172374D01*
X146971928Y-130939974D01*
X147635662Y-130939974D01*
X148067712Y-131983034D01*
X148233646Y-132051766D01*
X148658185Y-131878576D01*
X148746436Y-131831405D01*
X148823790Y-131767923D01*
X148887271Y-131690570D01*
X148934442Y-131602318D01*
X148963490Y-131506560D01*
X148973300Y-131406975D01*
X148963491Y-131307389D01*
X148934443Y-131211631D01*
X148694526Y-130638842D01*
X148528592Y-130570110D01*
X147635662Y-130939974D01*
X146971928Y-130939974D01*
X147303796Y-130802510D01*
X147296142Y-130784032D01*
X147530807Y-130686831D01*
X147538461Y-130705309D01*
X148431390Y-130335445D01*
X148500122Y-130169511D01*
X148289925Y-129656315D01*
X148735952Y-129478150D01*
X148765517Y-129465462D01*
X148802770Y-129448345D01*
X148805955Y-129480682D01*
X148849229Y-129623338D01*
X149327583Y-130778188D01*
X149397857Y-130909661D01*
X149492430Y-131024898D01*
X149607667Y-131119471D01*
X149739140Y-131189745D01*
X149881796Y-131233019D01*
X150030154Y-131247631D01*
X150178512Y-131233019D01*
X150321168Y-131189745D01*
X151175756Y-130835763D01*
X151307229Y-130765489D01*
X151422466Y-130670917D01*
X151517039Y-130555680D01*
X151587313Y-130424207D01*
X151630587Y-130281550D01*
X151645199Y-130133192D01*
X151630587Y-129984834D01*
X151587313Y-129842178D01*
X151553494Y-129760531D01*
X151683956Y-129630069D01*
X151708185Y-129610185D01*
X151767672Y-129537700D01*
X151787538Y-129513494D01*
X151846502Y-129403180D01*
X151860390Y-129357396D01*
X151882812Y-129283482D01*
X151892000Y-129190192D01*
X151892000Y-129190189D01*
X151895072Y-129159000D01*
X151892000Y-129127811D01*
X151892000Y-128276037D01*
X155969363Y-124132523D01*
X155991778Y-124114100D01*
X156013111Y-124088065D01*
X156014743Y-124086407D01*
X156032946Y-124063860D01*
X156071057Y-124017349D01*
X156072155Y-124015292D01*
X156073627Y-124013468D01*
X156101691Y-123959932D01*
X156115184Y-123934643D01*
X156116063Y-123932516D01*
X156131702Y-123902683D01*
X156139906Y-123874832D01*
X156362154Y-123337134D01*
X157371626Y-123337134D01*
X157440358Y-123503068D01*
X158013147Y-123742985D01*
X158108905Y-123772033D01*
X158208491Y-123781842D01*
X158308076Y-123772032D01*
X158403834Y-123742984D01*
X158492086Y-123695813D01*
X158569439Y-123632332D01*
X158632921Y-123554978D01*
X158680092Y-123466727D01*
X158853282Y-123042188D01*
X158784550Y-122876254D01*
X157741490Y-122444204D01*
X157371626Y-123337134D01*
X156362154Y-123337134D01*
X156460373Y-123099509D01*
X156971027Y-123308664D01*
X157136961Y-123239932D01*
X157506825Y-122347003D01*
X157488347Y-122339349D01*
X157542115Y-122209539D01*
X157838691Y-122209539D01*
X158881751Y-122641589D01*
X159047685Y-122572857D01*
X159225416Y-122150199D01*
X159254464Y-122054441D01*
X159264273Y-121954855D01*
X159254464Y-121855270D01*
X159225416Y-121759511D01*
X159178244Y-121671260D01*
X159114763Y-121593906D01*
X159037410Y-121530424D01*
X158949158Y-121483253D01*
X158374489Y-121247878D01*
X158208555Y-121316610D01*
X157838691Y-122209539D01*
X157542115Y-122209539D01*
X157585548Y-122104684D01*
X157604026Y-122112338D01*
X157973890Y-121219408D01*
X157905158Y-121053474D01*
X157398274Y-120841162D01*
X157405462Y-120825517D01*
X157418150Y-120795952D01*
X157580408Y-120389749D01*
X157606292Y-120327126D01*
X157634339Y-120350143D01*
X157765812Y-120420417D01*
X158920662Y-120898771D01*
X159063318Y-120942045D01*
X159211676Y-120956657D01*
X159360034Y-120942045D01*
X159502690Y-120898771D01*
X159634163Y-120828497D01*
X159749400Y-120733924D01*
X159843973Y-120618687D01*
X159914247Y-120487214D01*
X160268229Y-119632626D01*
X160311503Y-119489970D01*
X160326115Y-119341612D01*
X160311503Y-119193254D01*
X160268229Y-119050597D01*
X160197955Y-118919124D01*
X160103382Y-118803887D01*
X159988145Y-118709315D01*
X159856672Y-118639041D01*
X159766000Y-118601483D01*
X159766000Y-113695916D01*
X159769072Y-113664450D01*
X159762928Y-113602616D01*
X159756812Y-113540518D01*
X159756731Y-113540252D01*
X159756704Y-113539978D01*
X159738694Y-113480791D01*
X159720502Y-113420820D01*
X159705597Y-113392935D01*
X158511788Y-110517839D01*
X159043642Y-110295068D01*
X159112374Y-110129134D01*
X158742510Y-109236204D01*
X158724032Y-109243858D01*
X158680600Y-109139003D01*
X158977175Y-109139003D01*
X159347039Y-110031932D01*
X159512973Y-110100664D01*
X160087642Y-109865289D01*
X160175894Y-109818118D01*
X160253247Y-109754636D01*
X160316728Y-109677282D01*
X160363900Y-109589031D01*
X160392948Y-109493272D01*
X160402757Y-109393687D01*
X160392948Y-109294101D01*
X160363900Y-109198343D01*
X160186169Y-108775685D01*
X160020235Y-108706953D01*
X158977175Y-109139003D01*
X158680600Y-109139003D01*
X158626831Y-109009193D01*
X158645309Y-109001539D01*
X158275445Y-108108610D01*
X158109511Y-108039878D01*
X157596315Y-108250075D01*
X157500980Y-108011408D01*
X158510110Y-108011408D01*
X158879974Y-108904338D01*
X159923034Y-108472288D01*
X159991766Y-108306354D01*
X159818576Y-107881815D01*
X159771405Y-107793564D01*
X159707923Y-107716210D01*
X159630570Y-107652729D01*
X159542318Y-107605558D01*
X159446560Y-107576510D01*
X159346975Y-107566700D01*
X159247389Y-107576509D01*
X159151631Y-107605557D01*
X158578842Y-107845474D01*
X158510110Y-108011408D01*
X157500980Y-108011408D01*
X157418150Y-107804048D01*
X157405462Y-107774483D01*
X157388345Y-107737230D01*
X157420682Y-107734045D01*
X157563338Y-107690771D01*
X158718188Y-107212417D01*
X158849661Y-107142143D01*
X158964898Y-107047570D01*
X159059471Y-106932333D01*
X159129745Y-106800860D01*
X159173019Y-106658204D01*
X159187631Y-106509846D01*
X159173019Y-106361488D01*
X159129745Y-106218832D01*
X158775763Y-105364244D01*
X158705489Y-105232771D01*
X158610917Y-105117534D01*
X158495680Y-105022961D01*
X158364207Y-104952687D01*
X158221550Y-104909413D01*
X158073192Y-104894801D01*
X157988000Y-104903192D01*
X157988000Y-102705967D01*
X158062730Y-102804115D01*
X158562551Y-103525565D01*
X159029513Y-104268730D01*
X159462658Y-105032089D01*
X159861119Y-105814114D01*
X160224095Y-106613231D01*
X160550853Y-107427828D01*
X160840736Y-108256263D01*
X161093151Y-109096844D01*
X161307609Y-109947945D01*
X161483666Y-110807806D01*
X161620964Y-111674669D01*
X161719234Y-112546836D01*
X161778275Y-113422528D01*
X161797968Y-114300000D01*
X161778275Y-115177472D01*
X161719234Y-116053164D01*
X161620964Y-116925331D01*
X161483666Y-117792194D01*
X161307609Y-118652055D01*
X161093151Y-119503156D01*
X160840736Y-120343737D01*
X160550853Y-121172172D01*
X160224095Y-121986769D01*
X159861119Y-122785886D01*
X159462658Y-123567911D01*
X159029513Y-124331270D01*
X158562551Y-125074435D01*
X158062730Y-125795885D01*
X157531041Y-126494187D01*
X156968546Y-127167947D01*
X156376411Y-127815768D01*
X155755768Y-128436411D01*
X155107947Y-129028546D01*
X154434187Y-129591041D01*
X153735885Y-130122730D01*
X153014435Y-130622551D01*
X152271270Y-131089513D01*
X151507911Y-131522658D01*
X150725886Y-131921119D01*
X149926769Y-132284095D01*
X149112172Y-132610853D01*
X148283737Y-132900736D01*
X147443156Y-133153151D01*
X146592055Y-133367609D01*
X145732194Y-133543666D01*
X144865331Y-133680964D01*
X143993164Y-133779234D01*
X143117472Y-133838275D01*
X142240000Y-133857968D01*
X141362528Y-133838275D01*
X140486836Y-133779234D01*
X139614669Y-133680964D01*
X138747806Y-133543666D01*
X137887945Y-133367609D01*
X137036844Y-133153151D01*
X136196263Y-132900736D01*
X135367828Y-132610853D01*
X134553231Y-132284095D01*
X133754114Y-131921119D01*
X132972089Y-131522658D01*
X132208730Y-131089513D01*
X131973569Y-130941751D01*
X133898411Y-130941751D01*
X133967143Y-131107685D01*
X134389801Y-131285416D01*
X134485559Y-131314464D01*
X134585145Y-131324273D01*
X134684730Y-131314464D01*
X134780489Y-131285416D01*
X134868740Y-131238244D01*
X134946094Y-131174763D01*
X135009576Y-131097410D01*
X135056747Y-131009158D01*
X135292122Y-130434489D01*
X135223390Y-130268555D01*
X134330461Y-129898691D01*
X133898411Y-130941751D01*
X131973569Y-130941751D01*
X131465565Y-130622551D01*
X130954509Y-130268491D01*
X132758158Y-130268491D01*
X132767968Y-130368076D01*
X132797016Y-130463834D01*
X132844187Y-130552086D01*
X132907668Y-130629439D01*
X132985022Y-130692921D01*
X133073273Y-130740092D01*
X133497812Y-130913282D01*
X133663746Y-130844550D01*
X134095796Y-129801490D01*
X133202866Y-129431626D01*
X133036932Y-129500358D01*
X132797015Y-130073147D01*
X132767967Y-130168905D01*
X132758158Y-130268491D01*
X130954509Y-130268491D01*
X130744115Y-130122730D01*
X130045813Y-129591041D01*
X129372053Y-129028546D01*
X128724232Y-128436411D01*
X128103589Y-127815768D01*
X127511454Y-127167947D01*
X126948959Y-126494187D01*
X126417270Y-125795885D01*
X125917449Y-125074435D01*
X125450487Y-124331270D01*
X125017342Y-123567911D01*
X124618881Y-122785886D01*
X124255905Y-121986769D01*
X123929147Y-121172172D01*
X123639264Y-120343737D01*
X123624223Y-120293646D01*
X124488234Y-120293646D01*
X124661424Y-120718185D01*
X124708595Y-120806436D01*
X124772077Y-120883790D01*
X124849430Y-120947271D01*
X124937682Y-120994442D01*
X125033440Y-121023490D01*
X125133025Y-121033300D01*
X125232611Y-121023491D01*
X125328369Y-120994443D01*
X125901158Y-120754526D01*
X125969890Y-120588592D01*
X125600026Y-119695662D01*
X124556966Y-120127712D01*
X124488234Y-120293646D01*
X123624223Y-120293646D01*
X123386849Y-119503156D01*
X123312052Y-119206313D01*
X124077243Y-119206313D01*
X124087052Y-119305899D01*
X124116100Y-119401657D01*
X124293831Y-119824315D01*
X124459765Y-119893047D01*
X125502825Y-119460997D01*
X125132961Y-118568068D01*
X124967027Y-118499336D01*
X124392358Y-118734711D01*
X124304106Y-118781882D01*
X124226753Y-118845364D01*
X124163272Y-118922718D01*
X124116100Y-119010969D01*
X124087052Y-119106728D01*
X124077243Y-119206313D01*
X123312052Y-119206313D01*
X123172391Y-118652055D01*
X122996334Y-117792194D01*
X122859036Y-116925331D01*
X122760766Y-116053164D01*
X122701725Y-115177472D01*
X122682032Y-114300000D01*
X122701725Y-113422528D01*
X122760766Y-112546836D01*
X122859036Y-111674669D01*
X122996334Y-110807806D01*
X123172391Y-109947945D01*
X123386849Y-109096844D01*
X123639264Y-108256263D01*
X123929147Y-107427828D01*
X124243103Y-106645145D01*
X125215727Y-106645145D01*
X125225536Y-106744730D01*
X125254584Y-106840489D01*
X125301756Y-106928740D01*
X125365237Y-107006094D01*
X125442590Y-107069576D01*
X125530842Y-107116747D01*
X126105511Y-107352122D01*
X126271445Y-107283390D01*
X126641309Y-106390461D01*
X125598249Y-105958411D01*
X125432315Y-106027143D01*
X125254584Y-106449801D01*
X125225536Y-106545559D01*
X125215727Y-106645145D01*
X124243103Y-106645145D01*
X124255905Y-106613231D01*
X124618881Y-105814114D01*
X124749473Y-105557812D01*
X125626718Y-105557812D01*
X125695450Y-105723746D01*
X126738510Y-106155796D01*
X127108374Y-105262866D01*
X127039642Y-105096932D01*
X126466853Y-104857015D01*
X126371095Y-104827967D01*
X126271509Y-104818158D01*
X126171924Y-104827968D01*
X126076166Y-104857016D01*
X125987914Y-104904187D01*
X125910561Y-104967668D01*
X125847079Y-105045022D01*
X125799908Y-105133273D01*
X125626718Y-105557812D01*
X124749473Y-105557812D01*
X125017342Y-105032089D01*
X125450487Y-104268730D01*
X125917449Y-103525565D01*
X126417270Y-102804115D01*
X126948959Y-102105813D01*
X127511454Y-101432053D01*
X128103589Y-100784232D01*
X128724232Y-100163589D01*
X129372053Y-99571454D01*
X130045813Y-99008959D01*
X130744115Y-98477270D01*
X131465565Y-97977449D01*
X132208730Y-97510487D01*
X132768213Y-97193025D01*
X135506700Y-97193025D01*
X135516509Y-97292611D01*
X135545557Y-97388369D01*
X135785474Y-97961158D01*
X135951408Y-98029890D01*
X136844338Y-97660026D01*
X136412288Y-96616966D01*
X136246354Y-96548234D01*
X135821815Y-96721424D01*
X135733564Y-96768595D01*
X135656210Y-96832077D01*
X135592729Y-96909430D01*
X135545558Y-96997682D01*
X135516510Y-97093440D01*
X135506700Y-97193025D01*
X132768213Y-97193025D01*
X132972089Y-97077342D01*
X133754114Y-96678881D01*
X134104418Y-96519765D01*
X136646953Y-96519765D01*
X137079003Y-97562825D01*
X137971932Y-97192961D01*
X138040664Y-97027027D01*
X137805289Y-96452358D01*
X137758118Y-96364106D01*
X137694636Y-96286753D01*
X137617282Y-96223272D01*
X137529031Y-96176100D01*
X137433272Y-96147052D01*
X137333687Y-96137243D01*
X137234101Y-96147052D01*
X137138343Y-96176100D01*
X136715685Y-96353831D01*
X136646953Y-96519765D01*
X134104418Y-96519765D01*
X134553231Y-96315905D01*
X135367828Y-95989147D01*
X136196263Y-95699264D01*
X137036844Y-95446849D01*
X137887945Y-95232391D01*
X138747806Y-95056334D01*
X139614669Y-94919036D01*
X140486836Y-94820766D01*
X141362528Y-94761725D01*
X142240000Y-94742032D01*
X143117472Y-94761725D01*
G36*
X143037623Y-98572252D02*
G01*
X143833196Y-98632838D01*
X144624673Y-98733640D01*
X145410035Y-98874401D01*
X146187270Y-99054762D01*
X146954351Y-99274251D01*
X147709353Y-99532320D01*
X148450308Y-99828294D01*
X149175305Y-100161409D01*
X149882512Y-100530823D01*
X150570115Y-100935591D01*
X151236300Y-101374644D01*
X151879417Y-101846894D01*
X152497786Y-102351108D01*
X153089818Y-102885989D01*
X153562446Y-103358617D01*
X153531632Y-103404734D01*
X153455044Y-103589634D01*
X153416000Y-103785923D01*
X153416000Y-103986057D01*
X153455044Y-104182346D01*
X153531632Y-104367246D01*
X153549505Y-104393995D01*
X153531632Y-104420744D01*
X153455044Y-104605644D01*
X153416000Y-104801933D01*
X153416000Y-105002067D01*
X153455044Y-105198356D01*
X153531632Y-105383256D01*
X153642821Y-105549662D01*
X153784338Y-105691179D01*
X153924000Y-105784498D01*
X153924001Y-107024864D01*
X153920319Y-107063590D01*
X153927810Y-107137099D01*
X153935027Y-107210378D01*
X153935404Y-107211620D01*
X153935536Y-107212917D01*
X153957230Y-107283570D01*
X153978599Y-107354015D01*
X153996933Y-107388316D01*
X156845000Y-114198912D01*
X156845001Y-115800609D01*
X154039172Y-122632197D01*
X149810199Y-126861170D01*
X142978614Y-129667000D01*
X139724273Y-129667000D01*
X132524567Y-126691123D01*
X131982214Y-126248892D01*
X131390182Y-125714011D01*
X130825989Y-125149818D01*
X130291108Y-124557786D01*
X129786894Y-123939417D01*
X129314644Y-123296300D01*
X128875591Y-122630115D01*
X128470823Y-121942512D01*
X128101409Y-121235305D01*
X127768294Y-120510308D01*
X127472320Y-119769353D01*
X127214251Y-119014351D01*
X126994762Y-118247270D01*
X126814401Y-117470035D01*
X126673640Y-116684673D01*
X126572838Y-115893196D01*
X126512252Y-115097623D01*
X126492041Y-114300000D01*
X126512252Y-113502377D01*
X126572838Y-112706804D01*
X126673640Y-111915327D01*
X126814401Y-111129965D01*
X126994762Y-110352730D01*
X127214251Y-109585649D01*
X127472320Y-108830647D01*
X127768294Y-108089692D01*
X128101409Y-107364695D01*
X128470823Y-106657488D01*
X128875591Y-105969885D01*
X129314644Y-105303700D01*
X129786894Y-104660583D01*
X130291108Y-104042214D01*
X130825989Y-103450182D01*
X131390182Y-102885989D01*
X131982214Y-102351108D01*
X132600583Y-101846894D01*
X133243700Y-101374644D01*
X133909885Y-100935591D01*
X134597488Y-100530823D01*
X135304695Y-100161409D01*
X136029692Y-99828294D01*
X136770647Y-99532320D01*
X137525649Y-99274251D01*
X138292730Y-99054762D01*
X139069965Y-98874401D01*
X139855327Y-98733640D01*
X140646804Y-98632838D01*
X141442377Y-98572252D01*
X142240000Y-98552041D01*
X143037623Y-98572252D01*
X143037623Y-98572252D01*
G37*
X143037623Y-98572252D02*
X143833196Y-98632838D01*
X144624673Y-98733640D01*
X145410035Y-98874401D01*
X146187270Y-99054762D01*
X146954351Y-99274251D01*
X147709353Y-99532320D01*
X148450308Y-99828294D01*
X149175305Y-100161409D01*
X149882512Y-100530823D01*
X150570115Y-100935591D01*
X151236300Y-101374644D01*
X151879417Y-101846894D01*
X152497786Y-102351108D01*
X153089818Y-102885989D01*
X153562446Y-103358617D01*
X153531632Y-103404734D01*
X153455044Y-103589634D01*
X153416000Y-103785923D01*
X153416000Y-103986057D01*
X153455044Y-104182346D01*
X153531632Y-104367246D01*
X153549505Y-104393995D01*
X153531632Y-104420744D01*
X153455044Y-104605644D01*
X153416000Y-104801933D01*
X153416000Y-105002067D01*
X153455044Y-105198356D01*
X153531632Y-105383256D01*
X153642821Y-105549662D01*
X153784338Y-105691179D01*
X153924000Y-105784498D01*
X153924001Y-107024864D01*
X153920319Y-107063590D01*
X153927810Y-107137099D01*
X153935027Y-107210378D01*
X153935404Y-107211620D01*
X153935536Y-107212917D01*
X153957230Y-107283570D01*
X153978599Y-107354015D01*
X153996933Y-107388316D01*
X156845000Y-114198912D01*
X156845001Y-115800609D01*
X154039172Y-122632197D01*
X149810199Y-126861170D01*
X142978614Y-129667000D01*
X139724273Y-129667000D01*
X132524567Y-126691123D01*
X131982214Y-126248892D01*
X131390182Y-125714011D01*
X130825989Y-125149818D01*
X130291108Y-124557786D01*
X129786894Y-123939417D01*
X129314644Y-123296300D01*
X128875591Y-122630115D01*
X128470823Y-121942512D01*
X128101409Y-121235305D01*
X127768294Y-120510308D01*
X127472320Y-119769353D01*
X127214251Y-119014351D01*
X126994762Y-118247270D01*
X126814401Y-117470035D01*
X126673640Y-116684673D01*
X126572838Y-115893196D01*
X126512252Y-115097623D01*
X126492041Y-114300000D01*
X126512252Y-113502377D01*
X126572838Y-112706804D01*
X126673640Y-111915327D01*
X126814401Y-111129965D01*
X126994762Y-110352730D01*
X127214251Y-109585649D01*
X127472320Y-108830647D01*
X127768294Y-108089692D01*
X128101409Y-107364695D01*
X128470823Y-106657488D01*
X128875591Y-105969885D01*
X129314644Y-105303700D01*
X129786894Y-104660583D01*
X130291108Y-104042214D01*
X130825989Y-103450182D01*
X131390182Y-102885989D01*
X131982214Y-102351108D01*
X132600583Y-101846894D01*
X133243700Y-101374644D01*
X133909885Y-100935591D01*
X134597488Y-100530823D01*
X135304695Y-100161409D01*
X136029692Y-99828294D01*
X136770647Y-99532320D01*
X137525649Y-99274251D01*
X138292730Y-99054762D01*
X139069965Y-98874401D01*
X139855327Y-98733640D01*
X140646804Y-98632838D01*
X141442377Y-98572252D01*
X142240000Y-98552041D01*
X143037623Y-98572252D01*
M02*
