G04 #@! TF.GenerationSoftware,KiCad,Pcbnew,(5.1.6)-1*
G04 #@! TF.CreationDate,2020-08-08T13:54:31-07:00*
G04 #@! TF.ProjectId,attiny85-keychain,61747469-6e79-4383-952d-6b6579636861,A*
G04 #@! TF.SameCoordinates,Original*
G04 #@! TF.FileFunction,Soldermask,Bot*
G04 #@! TF.FilePolarity,Negative*
%FSLAX46Y46*%
G04 Gerber Fmt 4.6, Leading zero omitted, Abs format (unit mm)*
G04 Created by KiCad (PCBNEW (5.1.6)-1) date 2020-08-08 13:54:31*
%MOMM*%
%LPD*%
G01*
G04 APERTURE LIST*
%ADD10C,0.100000*%
G04 APERTURE END LIST*
D10*
G36*
X143720673Y-119070875D02*
G01*
X144644483Y-119453530D01*
X145475889Y-120009058D01*
X146182942Y-120716111D01*
X146738470Y-121547517D01*
X147121125Y-122471327D01*
X147316200Y-123452038D01*
X147316200Y-124451962D01*
X147121125Y-125432673D01*
X146738470Y-126356483D01*
X146182942Y-127187889D01*
X145475889Y-127894942D01*
X144644483Y-128450470D01*
X143720673Y-128833125D01*
X142739962Y-129028200D01*
X141740038Y-129028200D01*
X140759327Y-128833125D01*
X139835517Y-128450470D01*
X139004111Y-127894942D01*
X138297058Y-127187889D01*
X137741530Y-126356483D01*
X137358875Y-125432673D01*
X137163800Y-124451962D01*
X137163800Y-123452038D01*
X137358875Y-122471327D01*
X137741530Y-121547517D01*
X138297058Y-120716111D01*
X139004111Y-120009058D01*
X139835517Y-119453530D01*
X140759327Y-119070875D01*
X141740038Y-118875800D01*
X142739962Y-118875800D01*
X143720673Y-119070875D01*
G37*
G36*
X156464000Y-126568200D02*
G01*
X152501600Y-126568200D01*
X152501600Y-121335800D01*
X156464000Y-121335800D01*
X156464000Y-126568200D01*
G37*
G36*
X131978400Y-126568200D02*
G01*
X128016000Y-126568200D01*
X128016000Y-121335800D01*
X131978400Y-121335800D01*
X131978400Y-126568200D01*
G37*
G36*
X159342442Y-117798724D02*
G01*
X159388129Y-117812583D01*
X159430227Y-117835085D01*
X159467130Y-117865370D01*
X159497415Y-117902273D01*
X159519917Y-117944371D01*
X159533776Y-117990058D01*
X159538700Y-118040054D01*
X159538700Y-119449946D01*
X159533776Y-119499942D01*
X159519917Y-119545629D01*
X159497415Y-119587727D01*
X159467130Y-119624630D01*
X159430227Y-119654915D01*
X159388129Y-119677417D01*
X159342442Y-119691276D01*
X159292446Y-119696200D01*
X158207554Y-119696200D01*
X158157558Y-119691276D01*
X158111871Y-119677417D01*
X158069773Y-119654915D01*
X158032870Y-119624630D01*
X158002585Y-119587727D01*
X157980083Y-119545629D01*
X157966224Y-119499942D01*
X157961300Y-119449946D01*
X157961300Y-118040054D01*
X157966224Y-117990058D01*
X157980083Y-117944371D01*
X158002585Y-117902273D01*
X158032870Y-117865370D01*
X158069773Y-117835085D01*
X158111871Y-117812583D01*
X158157558Y-117798724D01*
X158207554Y-117793800D01*
X159292446Y-117793800D01*
X159342442Y-117798724D01*
G37*
G36*
X156367442Y-117798724D02*
G01*
X156413129Y-117812583D01*
X156455227Y-117835085D01*
X156492130Y-117865370D01*
X156522415Y-117902273D01*
X156544917Y-117944371D01*
X156558776Y-117990058D01*
X156563700Y-118040054D01*
X156563700Y-119449946D01*
X156558776Y-119499942D01*
X156544917Y-119545629D01*
X156522415Y-119587727D01*
X156492130Y-119624630D01*
X156455227Y-119654915D01*
X156413129Y-119677417D01*
X156367442Y-119691276D01*
X156317446Y-119696200D01*
X155232554Y-119696200D01*
X155182558Y-119691276D01*
X155136871Y-119677417D01*
X155094773Y-119654915D01*
X155057870Y-119624630D01*
X155027585Y-119587727D01*
X155005083Y-119545629D01*
X154991224Y-119499942D01*
X154986300Y-119449946D01*
X154986300Y-118040054D01*
X154991224Y-117990058D01*
X155005083Y-117944371D01*
X155027585Y-117902273D01*
X155057870Y-117865370D01*
X155094773Y-117835085D01*
X155136871Y-117812583D01*
X155182558Y-117798724D01*
X155232554Y-117793800D01*
X156317446Y-117793800D01*
X156367442Y-117798724D01*
G37*
G36*
X127288200Y-119155200D02*
G01*
X125235800Y-119155200D01*
X125235800Y-118202800D01*
X127288200Y-118202800D01*
X127288200Y-119155200D01*
G37*
G36*
X130288200Y-118205200D02*
G01*
X128235800Y-118205200D01*
X128235800Y-117252800D01*
X130288200Y-117252800D01*
X130288200Y-118205200D01*
G37*
G36*
X127288200Y-117255200D02*
G01*
X125235800Y-117255200D01*
X125235800Y-116302800D01*
X127288200Y-116302800D01*
X127288200Y-117255200D01*
G37*
G36*
X154919200Y-116106200D02*
G01*
X153516800Y-116106200D01*
X153516800Y-113453800D01*
X154919200Y-113453800D01*
X154919200Y-116106200D01*
G37*
G36*
X157419200Y-116106200D02*
G01*
X156016800Y-116106200D01*
X156016800Y-113453800D01*
X157419200Y-113453800D01*
X157419200Y-116106200D01*
G37*
G36*
X159919200Y-116106200D02*
G01*
X158516800Y-116106200D01*
X158516800Y-113453800D01*
X159919200Y-113453800D01*
X159919200Y-116106200D01*
G37*
G36*
X125880200Y-114516200D02*
G01*
X124927800Y-114516200D01*
X124927800Y-112863800D01*
X125880200Y-112863800D01*
X125880200Y-114516200D01*
G37*
G36*
X129580200Y-114516200D02*
G01*
X128627800Y-114516200D01*
X128627800Y-112863800D01*
X129580200Y-112863800D01*
X129580200Y-114516200D01*
G37*
G36*
X134431366Y-112893929D02*
G01*
X134479052Y-112908394D01*
X134522992Y-112931881D01*
X134561509Y-112963491D01*
X134593119Y-113002008D01*
X134616606Y-113045948D01*
X134631071Y-113093634D01*
X134636200Y-113145709D01*
X134636200Y-114184291D01*
X134631071Y-114236366D01*
X134616606Y-114284052D01*
X134593119Y-114327992D01*
X134561509Y-114366509D01*
X134522992Y-114398119D01*
X134479052Y-114421606D01*
X134431366Y-114436071D01*
X134379291Y-114441200D01*
X133590709Y-114441200D01*
X133538634Y-114436071D01*
X133490948Y-114421606D01*
X133447008Y-114398119D01*
X133408491Y-114366509D01*
X133376881Y-114327992D01*
X133353394Y-114284052D01*
X133338929Y-114236366D01*
X133333800Y-114184291D01*
X133333800Y-113145709D01*
X133338929Y-113093634D01*
X133353394Y-113045948D01*
X133376881Y-113002008D01*
X133408491Y-112963491D01*
X133447008Y-112931881D01*
X133490948Y-112908394D01*
X133538634Y-112893929D01*
X133590709Y-112888800D01*
X134379291Y-112888800D01*
X134431366Y-112893929D01*
G37*
G36*
X132381366Y-112893929D02*
G01*
X132429052Y-112908394D01*
X132472992Y-112931881D01*
X132511509Y-112963491D01*
X132543119Y-113002008D01*
X132566606Y-113045948D01*
X132581071Y-113093634D01*
X132586200Y-113145709D01*
X132586200Y-114184291D01*
X132581071Y-114236366D01*
X132566606Y-114284052D01*
X132543119Y-114327992D01*
X132511509Y-114366509D01*
X132472992Y-114398119D01*
X132429052Y-114421606D01*
X132381366Y-114436071D01*
X132329291Y-114441200D01*
X131540709Y-114441200D01*
X131488634Y-114436071D01*
X131440948Y-114421606D01*
X131397008Y-114398119D01*
X131358491Y-114366509D01*
X131326881Y-114327992D01*
X131303394Y-114284052D01*
X131288929Y-114236366D01*
X131283800Y-114184291D01*
X131283800Y-113145709D01*
X131288929Y-113093634D01*
X131303394Y-113045948D01*
X131326881Y-113002008D01*
X131358491Y-112963491D01*
X131397008Y-112931881D01*
X131440948Y-112908394D01*
X131488634Y-112893929D01*
X131540709Y-112888800D01*
X132329291Y-112888800D01*
X132381366Y-112893929D01*
G37*
G36*
X159919200Y-112606200D02*
G01*
X158516800Y-112606200D01*
X158516800Y-109953800D01*
X159919200Y-109953800D01*
X159919200Y-112606200D01*
G37*
G36*
X157419200Y-112606200D02*
G01*
X156016800Y-112606200D01*
X156016800Y-109953800D01*
X157419200Y-109953800D01*
X157419200Y-112606200D01*
G37*
G36*
X154919200Y-112606200D02*
G01*
X153516800Y-112606200D01*
X153516800Y-109953800D01*
X154919200Y-109953800D01*
X154919200Y-112606200D01*
G37*
G36*
X141736200Y-110891200D02*
G01*
X139883800Y-110891200D01*
X139883800Y-110088800D01*
X141736200Y-110088800D01*
X141736200Y-110891200D01*
G37*
G36*
X134436200Y-110891200D02*
G01*
X132583800Y-110891200D01*
X132583800Y-110088800D01*
X134436200Y-110088800D01*
X134436200Y-110891200D01*
G37*
G36*
X145765193Y-110117167D02*
G01*
X145795667Y-110126411D01*
X145823758Y-110141426D01*
X145848373Y-110161627D01*
X145868574Y-110186242D01*
X145883589Y-110214333D01*
X145892833Y-110244807D01*
X145896200Y-110278991D01*
X145896200Y-110701009D01*
X145892833Y-110735193D01*
X145883589Y-110765667D01*
X145868574Y-110793758D01*
X145848373Y-110818373D01*
X145823758Y-110838574D01*
X145795667Y-110853589D01*
X145765193Y-110862833D01*
X145731009Y-110866200D01*
X143958991Y-110866200D01*
X143924807Y-110862833D01*
X143894333Y-110853589D01*
X143866242Y-110838574D01*
X143841627Y-110818373D01*
X143821426Y-110793758D01*
X143806411Y-110765667D01*
X143797167Y-110735193D01*
X143793800Y-110701009D01*
X143793800Y-110278991D01*
X143797167Y-110244807D01*
X143806411Y-110214333D01*
X143821426Y-110186242D01*
X143841627Y-110161627D01*
X143866242Y-110141426D01*
X143894333Y-110126411D01*
X143924807Y-110117167D01*
X143958991Y-110113800D01*
X145731009Y-110113800D01*
X145765193Y-110117167D01*
G37*
G36*
X150715193Y-110117167D02*
G01*
X150745667Y-110126411D01*
X150773758Y-110141426D01*
X150798373Y-110161627D01*
X150818574Y-110186242D01*
X150833589Y-110214333D01*
X150842833Y-110244807D01*
X150846200Y-110278991D01*
X150846200Y-110701009D01*
X150842833Y-110735193D01*
X150833589Y-110765667D01*
X150818574Y-110793758D01*
X150798373Y-110818373D01*
X150773758Y-110838574D01*
X150745667Y-110853589D01*
X150715193Y-110862833D01*
X150681009Y-110866200D01*
X148908991Y-110866200D01*
X148874807Y-110862833D01*
X148844333Y-110853589D01*
X148816242Y-110838574D01*
X148791627Y-110818373D01*
X148771426Y-110793758D01*
X148756411Y-110765667D01*
X148747167Y-110735193D01*
X148743800Y-110701009D01*
X148743800Y-110278991D01*
X148747167Y-110244807D01*
X148756411Y-110214333D01*
X148771426Y-110186242D01*
X148791627Y-110161627D01*
X148816242Y-110141426D01*
X148844333Y-110126411D01*
X148874807Y-110117167D01*
X148908991Y-110113800D01*
X150681009Y-110113800D01*
X150715193Y-110117167D01*
G37*
G36*
X134436200Y-109621200D02*
G01*
X132583800Y-109621200D01*
X132583800Y-108818800D01*
X134436200Y-108818800D01*
X134436200Y-109621200D01*
G37*
G36*
X141736200Y-109621200D02*
G01*
X139883800Y-109621200D01*
X139883800Y-108818800D01*
X141736200Y-108818800D01*
X141736200Y-109621200D01*
G37*
G36*
X150715193Y-108847167D02*
G01*
X150745667Y-108856411D01*
X150773758Y-108871426D01*
X150798373Y-108891627D01*
X150818574Y-108916242D01*
X150833589Y-108944333D01*
X150842833Y-108974807D01*
X150846200Y-109008991D01*
X150846200Y-109431009D01*
X150842833Y-109465193D01*
X150833589Y-109495667D01*
X150818574Y-109523758D01*
X150798373Y-109548373D01*
X150773758Y-109568574D01*
X150745667Y-109583589D01*
X150715193Y-109592833D01*
X150681009Y-109596200D01*
X148908991Y-109596200D01*
X148874807Y-109592833D01*
X148844333Y-109583589D01*
X148816242Y-109568574D01*
X148791627Y-109548373D01*
X148771426Y-109523758D01*
X148756411Y-109495667D01*
X148747167Y-109465193D01*
X148743800Y-109431009D01*
X148743800Y-109008991D01*
X148747167Y-108974807D01*
X148756411Y-108944333D01*
X148771426Y-108916242D01*
X148791627Y-108891627D01*
X148816242Y-108871426D01*
X148844333Y-108856411D01*
X148874807Y-108847167D01*
X148908991Y-108843800D01*
X150681009Y-108843800D01*
X150715193Y-108847167D01*
G37*
G36*
X145765193Y-108847167D02*
G01*
X145795667Y-108856411D01*
X145823758Y-108871426D01*
X145848373Y-108891627D01*
X145868574Y-108916242D01*
X145883589Y-108944333D01*
X145892833Y-108974807D01*
X145896200Y-109008991D01*
X145896200Y-109431009D01*
X145892833Y-109465193D01*
X145883589Y-109495667D01*
X145868574Y-109523758D01*
X145848373Y-109548373D01*
X145823758Y-109568574D01*
X145795667Y-109583589D01*
X145765193Y-109592833D01*
X145731009Y-109596200D01*
X143958991Y-109596200D01*
X143924807Y-109592833D01*
X143894333Y-109583589D01*
X143866242Y-109568574D01*
X143841627Y-109548373D01*
X143821426Y-109523758D01*
X143806411Y-109495667D01*
X143797167Y-109465193D01*
X143793800Y-109431009D01*
X143793800Y-109008991D01*
X143797167Y-108974807D01*
X143806411Y-108944333D01*
X143821426Y-108916242D01*
X143841627Y-108891627D01*
X143866242Y-108871426D01*
X143894333Y-108856411D01*
X143924807Y-108847167D01*
X143958991Y-108843800D01*
X145731009Y-108843800D01*
X145765193Y-108847167D01*
G37*
G36*
X134436200Y-108351200D02*
G01*
X132583800Y-108351200D01*
X132583800Y-107548800D01*
X134436200Y-107548800D01*
X134436200Y-108351200D01*
G37*
G36*
X141736200Y-108351200D02*
G01*
X139883800Y-108351200D01*
X139883800Y-107548800D01*
X141736200Y-107548800D01*
X141736200Y-108351200D01*
G37*
G36*
X145765193Y-107577167D02*
G01*
X145795667Y-107586411D01*
X145823758Y-107601426D01*
X145848373Y-107621627D01*
X145868574Y-107646242D01*
X145883589Y-107674333D01*
X145892833Y-107704807D01*
X145896200Y-107738991D01*
X145896200Y-108161009D01*
X145892833Y-108195193D01*
X145883589Y-108225667D01*
X145868574Y-108253758D01*
X145848373Y-108278373D01*
X145823758Y-108298574D01*
X145795667Y-108313589D01*
X145765193Y-108322833D01*
X145731009Y-108326200D01*
X143958991Y-108326200D01*
X143924807Y-108322833D01*
X143894333Y-108313589D01*
X143866242Y-108298574D01*
X143841627Y-108278373D01*
X143821426Y-108253758D01*
X143806411Y-108225667D01*
X143797167Y-108195193D01*
X143793800Y-108161009D01*
X143793800Y-107738991D01*
X143797167Y-107704807D01*
X143806411Y-107674333D01*
X143821426Y-107646242D01*
X143841627Y-107621627D01*
X143866242Y-107601426D01*
X143894333Y-107586411D01*
X143924807Y-107577167D01*
X143958991Y-107573800D01*
X145731009Y-107573800D01*
X145765193Y-107577167D01*
G37*
G36*
X150715193Y-107577167D02*
G01*
X150745667Y-107586411D01*
X150773758Y-107601426D01*
X150798373Y-107621627D01*
X150818574Y-107646242D01*
X150833589Y-107674333D01*
X150842833Y-107704807D01*
X150846200Y-107738991D01*
X150846200Y-108161009D01*
X150842833Y-108195193D01*
X150833589Y-108225667D01*
X150818574Y-108253758D01*
X150798373Y-108278373D01*
X150773758Y-108298574D01*
X150745667Y-108313589D01*
X150715193Y-108322833D01*
X150681009Y-108326200D01*
X148908991Y-108326200D01*
X148874807Y-108322833D01*
X148844333Y-108313589D01*
X148816242Y-108298574D01*
X148791627Y-108278373D01*
X148771426Y-108253758D01*
X148756411Y-108225667D01*
X148747167Y-108195193D01*
X148743800Y-108161009D01*
X148743800Y-107738991D01*
X148747167Y-107704807D01*
X148756411Y-107674333D01*
X148771426Y-107646242D01*
X148791627Y-107621627D01*
X148816242Y-107601426D01*
X148844333Y-107586411D01*
X148874807Y-107577167D01*
X148908991Y-107573800D01*
X150681009Y-107573800D01*
X150715193Y-107577167D01*
G37*
G36*
X158579366Y-106670929D02*
G01*
X158627052Y-106685394D01*
X158670992Y-106708881D01*
X158709509Y-106740491D01*
X158741119Y-106779008D01*
X158764606Y-106822948D01*
X158779071Y-106870634D01*
X158784200Y-106922709D01*
X158784200Y-107961291D01*
X158779071Y-108013366D01*
X158764606Y-108061052D01*
X158741119Y-108104992D01*
X158709509Y-108143509D01*
X158670992Y-108175119D01*
X158627052Y-108198606D01*
X158579366Y-108213071D01*
X158527291Y-108218200D01*
X157738709Y-108218200D01*
X157686634Y-108213071D01*
X157638948Y-108198606D01*
X157595008Y-108175119D01*
X157556491Y-108143509D01*
X157524881Y-108104992D01*
X157501394Y-108061052D01*
X157486929Y-108013366D01*
X157481800Y-107961291D01*
X157481800Y-106922709D01*
X157486929Y-106870634D01*
X157501394Y-106822948D01*
X157524881Y-106779008D01*
X157556491Y-106740491D01*
X157595008Y-106708881D01*
X157638948Y-106685394D01*
X157686634Y-106670929D01*
X157738709Y-106665800D01*
X158527291Y-106665800D01*
X158579366Y-106670929D01*
G37*
G36*
X156529366Y-106670929D02*
G01*
X156577052Y-106685394D01*
X156620992Y-106708881D01*
X156659509Y-106740491D01*
X156691119Y-106779008D01*
X156714606Y-106822948D01*
X156729071Y-106870634D01*
X156734200Y-106922709D01*
X156734200Y-107961291D01*
X156729071Y-108013366D01*
X156714606Y-108061052D01*
X156691119Y-108104992D01*
X156659509Y-108143509D01*
X156620992Y-108175119D01*
X156577052Y-108198606D01*
X156529366Y-108213071D01*
X156477291Y-108218200D01*
X155688709Y-108218200D01*
X155636634Y-108213071D01*
X155588948Y-108198606D01*
X155545008Y-108175119D01*
X155506491Y-108143509D01*
X155474881Y-108104992D01*
X155451394Y-108061052D01*
X155436929Y-108013366D01*
X155431800Y-107961291D01*
X155431800Y-106922709D01*
X155436929Y-106870634D01*
X155451394Y-106822948D01*
X155474881Y-106779008D01*
X155506491Y-106740491D01*
X155545008Y-106708881D01*
X155588948Y-106685394D01*
X155636634Y-106670929D01*
X155688709Y-106665800D01*
X156477291Y-106665800D01*
X156529366Y-106670929D01*
G37*
G36*
X129580200Y-108116200D02*
G01*
X128627800Y-108116200D01*
X128627800Y-106463800D01*
X129580200Y-106463800D01*
X129580200Y-108116200D01*
G37*
G36*
X125880200Y-108116200D02*
G01*
X124927800Y-108116200D01*
X124927800Y-106463800D01*
X125880200Y-106463800D01*
X125880200Y-108116200D01*
G37*
G36*
X153733366Y-105797929D02*
G01*
X153781052Y-105812394D01*
X153824992Y-105835881D01*
X153863509Y-105867491D01*
X153895119Y-105906008D01*
X153918606Y-105949948D01*
X153933071Y-105997634D01*
X153938200Y-106049709D01*
X153938200Y-106838291D01*
X153933071Y-106890366D01*
X153918606Y-106938052D01*
X153895119Y-106981992D01*
X153863509Y-107020509D01*
X153824992Y-107052119D01*
X153781052Y-107075606D01*
X153733366Y-107090071D01*
X153681291Y-107095200D01*
X152642709Y-107095200D01*
X152590634Y-107090071D01*
X152542948Y-107075606D01*
X152499008Y-107052119D01*
X152460491Y-107020509D01*
X152428881Y-106981992D01*
X152405394Y-106938052D01*
X152390929Y-106890366D01*
X152385800Y-106838291D01*
X152385800Y-106049709D01*
X152390929Y-105997634D01*
X152405394Y-105949948D01*
X152428881Y-105906008D01*
X152460491Y-105867491D01*
X152499008Y-105835881D01*
X152542948Y-105812394D01*
X152590634Y-105797929D01*
X152642709Y-105792800D01*
X153681291Y-105792800D01*
X153733366Y-105797929D01*
G37*
G36*
X134436200Y-107081200D02*
G01*
X132583800Y-107081200D01*
X132583800Y-106278800D01*
X134436200Y-106278800D01*
X134436200Y-107081200D01*
G37*
G36*
X141736200Y-107081200D02*
G01*
X139883800Y-107081200D01*
X139883800Y-106278800D01*
X141736200Y-106278800D01*
X141736200Y-107081200D01*
G37*
G36*
X145765193Y-106307167D02*
G01*
X145795667Y-106316411D01*
X145823758Y-106331426D01*
X145848373Y-106351627D01*
X145868574Y-106376242D01*
X145883589Y-106404333D01*
X145892833Y-106434807D01*
X145896200Y-106468991D01*
X145896200Y-106891009D01*
X145892833Y-106925193D01*
X145883589Y-106955667D01*
X145868574Y-106983758D01*
X145848373Y-107008373D01*
X145823758Y-107028574D01*
X145795667Y-107043589D01*
X145765193Y-107052833D01*
X145731009Y-107056200D01*
X143958991Y-107056200D01*
X143924807Y-107052833D01*
X143894333Y-107043589D01*
X143866242Y-107028574D01*
X143841627Y-107008373D01*
X143821426Y-106983758D01*
X143806411Y-106955667D01*
X143797167Y-106925193D01*
X143793800Y-106891009D01*
X143793800Y-106468991D01*
X143797167Y-106434807D01*
X143806411Y-106404333D01*
X143821426Y-106376242D01*
X143841627Y-106351627D01*
X143866242Y-106331426D01*
X143894333Y-106316411D01*
X143924807Y-106307167D01*
X143958991Y-106303800D01*
X145731009Y-106303800D01*
X145765193Y-106307167D01*
G37*
G36*
X150715193Y-106307167D02*
G01*
X150745667Y-106316411D01*
X150773758Y-106331426D01*
X150798373Y-106351627D01*
X150818574Y-106376242D01*
X150833589Y-106404333D01*
X150842833Y-106434807D01*
X150846200Y-106468991D01*
X150846200Y-106891009D01*
X150842833Y-106925193D01*
X150833589Y-106955667D01*
X150818574Y-106983758D01*
X150798373Y-107008373D01*
X150773758Y-107028574D01*
X150745667Y-107043589D01*
X150715193Y-107052833D01*
X150681009Y-107056200D01*
X148908991Y-107056200D01*
X148874807Y-107052833D01*
X148844333Y-107043589D01*
X148816242Y-107028574D01*
X148791627Y-107008373D01*
X148771426Y-106983758D01*
X148756411Y-106955667D01*
X148747167Y-106925193D01*
X148743800Y-106891009D01*
X148743800Y-106468991D01*
X148747167Y-106434807D01*
X148756411Y-106404333D01*
X148771426Y-106376242D01*
X148791627Y-106351627D01*
X148816242Y-106331426D01*
X148844333Y-106316411D01*
X148874807Y-106307167D01*
X148908991Y-106303800D01*
X150681009Y-106303800D01*
X150715193Y-106307167D01*
G37*
G36*
X145765193Y-105037167D02*
G01*
X145795667Y-105046411D01*
X145823758Y-105061426D01*
X145848373Y-105081627D01*
X145868574Y-105106242D01*
X145883589Y-105134333D01*
X145892833Y-105164807D01*
X145896200Y-105198991D01*
X145896200Y-105621009D01*
X145892833Y-105655193D01*
X145883589Y-105685667D01*
X145868574Y-105713758D01*
X145848373Y-105738373D01*
X145823758Y-105758574D01*
X145795667Y-105773589D01*
X145765193Y-105782833D01*
X145731009Y-105786200D01*
X143958991Y-105786200D01*
X143924807Y-105782833D01*
X143894333Y-105773589D01*
X143866242Y-105758574D01*
X143841627Y-105738373D01*
X143821426Y-105713758D01*
X143806411Y-105685667D01*
X143797167Y-105655193D01*
X143793800Y-105621009D01*
X143793800Y-105198991D01*
X143797167Y-105164807D01*
X143806411Y-105134333D01*
X143821426Y-105106242D01*
X143841627Y-105081627D01*
X143866242Y-105061426D01*
X143894333Y-105046411D01*
X143924807Y-105037167D01*
X143958991Y-105033800D01*
X145731009Y-105033800D01*
X145765193Y-105037167D01*
G37*
G36*
X150715193Y-105037167D02*
G01*
X150745667Y-105046411D01*
X150773758Y-105061426D01*
X150798373Y-105081627D01*
X150818574Y-105106242D01*
X150833589Y-105134333D01*
X150842833Y-105164807D01*
X150846200Y-105198991D01*
X150846200Y-105621009D01*
X150842833Y-105655193D01*
X150833589Y-105685667D01*
X150818574Y-105713758D01*
X150798373Y-105738373D01*
X150773758Y-105758574D01*
X150745667Y-105773589D01*
X150715193Y-105782833D01*
X150681009Y-105786200D01*
X148908991Y-105786200D01*
X148874807Y-105782833D01*
X148844333Y-105773589D01*
X148816242Y-105758574D01*
X148791627Y-105738373D01*
X148771426Y-105713758D01*
X148756411Y-105685667D01*
X148747167Y-105655193D01*
X148743800Y-105621009D01*
X148743800Y-105198991D01*
X148747167Y-105164807D01*
X148756411Y-105134333D01*
X148771426Y-105106242D01*
X148791627Y-105081627D01*
X148816242Y-105061426D01*
X148844333Y-105046411D01*
X148874807Y-105037167D01*
X148908991Y-105033800D01*
X150681009Y-105033800D01*
X150715193Y-105037167D01*
G37*
G36*
X156781366Y-104128929D02*
G01*
X156829052Y-104143394D01*
X156872992Y-104166881D01*
X156911509Y-104198491D01*
X156943119Y-104237008D01*
X156966606Y-104280948D01*
X156981071Y-104328634D01*
X156986200Y-104380709D01*
X156986200Y-105169291D01*
X156981071Y-105221366D01*
X156966606Y-105269052D01*
X156943119Y-105312992D01*
X156911509Y-105351509D01*
X156872992Y-105383119D01*
X156829052Y-105406606D01*
X156781366Y-105421071D01*
X156729291Y-105426200D01*
X155690709Y-105426200D01*
X155638634Y-105421071D01*
X155590948Y-105406606D01*
X155547008Y-105383119D01*
X155508491Y-105351509D01*
X155476881Y-105312992D01*
X155453394Y-105269052D01*
X155438929Y-105221366D01*
X155433800Y-105169291D01*
X155433800Y-104380709D01*
X155438929Y-104328634D01*
X155453394Y-104280948D01*
X155476881Y-104237008D01*
X155508491Y-104198491D01*
X155547008Y-104166881D01*
X155590948Y-104143394D01*
X155638634Y-104128929D01*
X155690709Y-104123800D01*
X156729291Y-104123800D01*
X156781366Y-104128929D01*
G37*
G36*
X153733366Y-103747929D02*
G01*
X153781052Y-103762394D01*
X153824992Y-103785881D01*
X153863509Y-103817491D01*
X153895119Y-103856008D01*
X153918606Y-103899948D01*
X153933071Y-103947634D01*
X153938200Y-103999709D01*
X153938200Y-104788291D01*
X153933071Y-104840366D01*
X153918606Y-104888052D01*
X153895119Y-104931992D01*
X153863509Y-104970509D01*
X153824992Y-105002119D01*
X153781052Y-105025606D01*
X153733366Y-105040071D01*
X153681291Y-105045200D01*
X152642709Y-105045200D01*
X152590634Y-105040071D01*
X152542948Y-105025606D01*
X152499008Y-105002119D01*
X152460491Y-104970509D01*
X152428881Y-104931992D01*
X152405394Y-104888052D01*
X152390929Y-104840366D01*
X152385800Y-104788291D01*
X152385800Y-103999709D01*
X152390929Y-103947634D01*
X152405394Y-103899948D01*
X152428881Y-103856008D01*
X152460491Y-103817491D01*
X152499008Y-103785881D01*
X152542948Y-103762394D01*
X152590634Y-103747929D01*
X152642709Y-103742800D01*
X153681291Y-103742800D01*
X153733366Y-103747929D01*
G37*
G36*
X135318366Y-103248929D02*
G01*
X135366052Y-103263394D01*
X135409992Y-103286881D01*
X135448509Y-103318491D01*
X135480119Y-103357008D01*
X135503606Y-103400948D01*
X135518071Y-103448634D01*
X135523200Y-103500709D01*
X135523200Y-104289291D01*
X135518071Y-104341366D01*
X135503606Y-104389052D01*
X135480119Y-104432992D01*
X135448509Y-104471509D01*
X135409992Y-104503119D01*
X135366052Y-104526606D01*
X135318366Y-104541071D01*
X135266291Y-104546200D01*
X134227709Y-104546200D01*
X134175634Y-104541071D01*
X134127948Y-104526606D01*
X134084008Y-104503119D01*
X134045491Y-104471509D01*
X134013881Y-104432992D01*
X133990394Y-104389052D01*
X133975929Y-104341366D01*
X133970800Y-104289291D01*
X133970800Y-103500709D01*
X133975929Y-103448634D01*
X133990394Y-103400948D01*
X134013881Y-103357008D01*
X134045491Y-103318491D01*
X134084008Y-103286881D01*
X134127948Y-103263394D01*
X134175634Y-103248929D01*
X134227709Y-103243800D01*
X135266291Y-103243800D01*
X135318366Y-103248929D01*
G37*
G36*
X138493366Y-103248929D02*
G01*
X138541052Y-103263394D01*
X138584992Y-103286881D01*
X138623509Y-103318491D01*
X138655119Y-103357008D01*
X138678606Y-103400948D01*
X138693071Y-103448634D01*
X138698200Y-103500709D01*
X138698200Y-104289291D01*
X138693071Y-104341366D01*
X138678606Y-104389052D01*
X138655119Y-104432992D01*
X138623509Y-104471509D01*
X138584992Y-104503119D01*
X138541052Y-104526606D01*
X138493366Y-104541071D01*
X138441291Y-104546200D01*
X137402709Y-104546200D01*
X137350634Y-104541071D01*
X137302948Y-104526606D01*
X137259008Y-104503119D01*
X137220491Y-104471509D01*
X137188881Y-104432992D01*
X137165394Y-104389052D01*
X137150929Y-104341366D01*
X137145800Y-104289291D01*
X137145800Y-103500709D01*
X137150929Y-103448634D01*
X137165394Y-103400948D01*
X137188881Y-103357008D01*
X137220491Y-103318491D01*
X137259008Y-103286881D01*
X137302948Y-103263394D01*
X137350634Y-103248929D01*
X137402709Y-103243800D01*
X138441291Y-103243800D01*
X138493366Y-103248929D01*
G37*
G36*
X132143366Y-103248929D02*
G01*
X132191052Y-103263394D01*
X132234992Y-103286881D01*
X132273509Y-103318491D01*
X132305119Y-103357008D01*
X132328606Y-103400948D01*
X132343071Y-103448634D01*
X132348200Y-103500709D01*
X132348200Y-104289291D01*
X132343071Y-104341366D01*
X132328606Y-104389052D01*
X132305119Y-104432992D01*
X132273509Y-104471509D01*
X132234992Y-104503119D01*
X132191052Y-104526606D01*
X132143366Y-104541071D01*
X132091291Y-104546200D01*
X131052709Y-104546200D01*
X131000634Y-104541071D01*
X130952948Y-104526606D01*
X130909008Y-104503119D01*
X130870491Y-104471509D01*
X130838881Y-104432992D01*
X130815394Y-104389052D01*
X130800929Y-104341366D01*
X130795800Y-104289291D01*
X130795800Y-103500709D01*
X130800929Y-103448634D01*
X130815394Y-103400948D01*
X130838881Y-103357008D01*
X130870491Y-103318491D01*
X130909008Y-103286881D01*
X130952948Y-103263394D01*
X131000634Y-103248929D01*
X131052709Y-103243800D01*
X132091291Y-103243800D01*
X132143366Y-103248929D01*
G37*
G36*
X141668366Y-103248929D02*
G01*
X141716052Y-103263394D01*
X141759992Y-103286881D01*
X141798509Y-103318491D01*
X141830119Y-103357008D01*
X141853606Y-103400948D01*
X141868071Y-103448634D01*
X141873200Y-103500709D01*
X141873200Y-104289291D01*
X141868071Y-104341366D01*
X141853606Y-104389052D01*
X141830119Y-104432992D01*
X141798509Y-104471509D01*
X141759992Y-104503119D01*
X141716052Y-104526606D01*
X141668366Y-104541071D01*
X141616291Y-104546200D01*
X140577709Y-104546200D01*
X140525634Y-104541071D01*
X140477948Y-104526606D01*
X140434008Y-104503119D01*
X140395491Y-104471509D01*
X140363881Y-104432992D01*
X140340394Y-104389052D01*
X140325929Y-104341366D01*
X140320800Y-104289291D01*
X140320800Y-103500709D01*
X140325929Y-103448634D01*
X140340394Y-103400948D01*
X140363881Y-103357008D01*
X140395491Y-103318491D01*
X140434008Y-103286881D01*
X140477948Y-103263394D01*
X140525634Y-103248929D01*
X140577709Y-103243800D01*
X141616291Y-103243800D01*
X141668366Y-103248929D01*
G37*
G36*
X145765193Y-103767167D02*
G01*
X145795667Y-103776411D01*
X145823758Y-103791426D01*
X145848373Y-103811627D01*
X145868574Y-103836242D01*
X145883589Y-103864333D01*
X145892833Y-103894807D01*
X145896200Y-103928991D01*
X145896200Y-104351009D01*
X145892833Y-104385193D01*
X145883589Y-104415667D01*
X145868574Y-104443758D01*
X145848373Y-104468373D01*
X145823758Y-104488574D01*
X145795667Y-104503589D01*
X145765193Y-104512833D01*
X145731009Y-104516200D01*
X143958991Y-104516200D01*
X143924807Y-104512833D01*
X143894333Y-104503589D01*
X143866242Y-104488574D01*
X143841627Y-104468373D01*
X143821426Y-104443758D01*
X143806411Y-104415667D01*
X143797167Y-104385193D01*
X143793800Y-104351009D01*
X143793800Y-103928991D01*
X143797167Y-103894807D01*
X143806411Y-103864333D01*
X143821426Y-103836242D01*
X143841627Y-103811627D01*
X143866242Y-103791426D01*
X143894333Y-103776411D01*
X143924807Y-103767167D01*
X143958991Y-103763800D01*
X145731009Y-103763800D01*
X145765193Y-103767167D01*
G37*
G36*
X150715193Y-103767167D02*
G01*
X150745667Y-103776411D01*
X150773758Y-103791426D01*
X150798373Y-103811627D01*
X150818574Y-103836242D01*
X150833589Y-103864333D01*
X150842833Y-103894807D01*
X150846200Y-103928991D01*
X150846200Y-104351009D01*
X150842833Y-104385193D01*
X150833589Y-104415667D01*
X150818574Y-104443758D01*
X150798373Y-104468373D01*
X150773758Y-104488574D01*
X150745667Y-104503589D01*
X150715193Y-104512833D01*
X150681009Y-104516200D01*
X148908991Y-104516200D01*
X148874807Y-104512833D01*
X148844333Y-104503589D01*
X148816242Y-104488574D01*
X148791627Y-104468373D01*
X148771426Y-104443758D01*
X148756411Y-104415667D01*
X148747167Y-104385193D01*
X148743800Y-104351009D01*
X148743800Y-103928991D01*
X148747167Y-103894807D01*
X148756411Y-103864333D01*
X148771426Y-103836242D01*
X148791627Y-103811627D01*
X148816242Y-103791426D01*
X148844333Y-103776411D01*
X148874807Y-103767167D01*
X148908991Y-103763800D01*
X150681009Y-103763800D01*
X150715193Y-103767167D01*
G37*
G36*
X156781366Y-102078929D02*
G01*
X156829052Y-102093394D01*
X156872992Y-102116881D01*
X156911509Y-102148491D01*
X156943119Y-102187008D01*
X156966606Y-102230948D01*
X156981071Y-102278634D01*
X156986200Y-102330709D01*
X156986200Y-103119291D01*
X156981071Y-103171366D01*
X156966606Y-103219052D01*
X156943119Y-103262992D01*
X156911509Y-103301509D01*
X156872992Y-103333119D01*
X156829052Y-103356606D01*
X156781366Y-103371071D01*
X156729291Y-103376200D01*
X155690709Y-103376200D01*
X155638634Y-103371071D01*
X155590948Y-103356606D01*
X155547008Y-103333119D01*
X155508491Y-103301509D01*
X155476881Y-103262992D01*
X155453394Y-103219052D01*
X155438929Y-103171366D01*
X155433800Y-103119291D01*
X155433800Y-102330709D01*
X155438929Y-102278634D01*
X155453394Y-102230948D01*
X155476881Y-102187008D01*
X155508491Y-102148491D01*
X155547008Y-102116881D01*
X155590948Y-102093394D01*
X155638634Y-102078929D01*
X155690709Y-102073800D01*
X156729291Y-102073800D01*
X156781366Y-102078929D01*
G37*
G36*
X150715193Y-102497167D02*
G01*
X150745667Y-102506411D01*
X150773758Y-102521426D01*
X150798373Y-102541627D01*
X150818574Y-102566242D01*
X150833589Y-102594333D01*
X150842833Y-102624807D01*
X150846200Y-102658991D01*
X150846200Y-103081009D01*
X150842833Y-103115193D01*
X150833589Y-103145667D01*
X150818574Y-103173758D01*
X150798373Y-103198373D01*
X150773758Y-103218574D01*
X150745667Y-103233589D01*
X150715193Y-103242833D01*
X150681009Y-103246200D01*
X148908991Y-103246200D01*
X148874807Y-103242833D01*
X148844333Y-103233589D01*
X148816242Y-103218574D01*
X148791627Y-103198373D01*
X148771426Y-103173758D01*
X148756411Y-103145667D01*
X148747167Y-103115193D01*
X148743800Y-103081009D01*
X148743800Y-102658991D01*
X148747167Y-102624807D01*
X148756411Y-102594333D01*
X148771426Y-102566242D01*
X148791627Y-102541627D01*
X148816242Y-102521426D01*
X148844333Y-102506411D01*
X148874807Y-102497167D01*
X148908991Y-102493800D01*
X150681009Y-102493800D01*
X150715193Y-102497167D01*
G37*
G36*
X145765193Y-102497167D02*
G01*
X145795667Y-102506411D01*
X145823758Y-102521426D01*
X145848373Y-102541627D01*
X145868574Y-102566242D01*
X145883589Y-102594333D01*
X145892833Y-102624807D01*
X145896200Y-102658991D01*
X145896200Y-103081009D01*
X145892833Y-103115193D01*
X145883589Y-103145667D01*
X145868574Y-103173758D01*
X145848373Y-103198373D01*
X145823758Y-103218574D01*
X145795667Y-103233589D01*
X145765193Y-103242833D01*
X145731009Y-103246200D01*
X143958991Y-103246200D01*
X143924807Y-103242833D01*
X143894333Y-103233589D01*
X143866242Y-103218574D01*
X143841627Y-103198373D01*
X143821426Y-103173758D01*
X143806411Y-103145667D01*
X143797167Y-103115193D01*
X143793800Y-103081009D01*
X143793800Y-102658991D01*
X143797167Y-102624807D01*
X143806411Y-102594333D01*
X143821426Y-102566242D01*
X143841627Y-102541627D01*
X143866242Y-102521426D01*
X143894333Y-102506411D01*
X143924807Y-102497167D01*
X143958991Y-102493800D01*
X145731009Y-102493800D01*
X145765193Y-102497167D01*
G37*
G36*
X153733366Y-101207929D02*
G01*
X153781052Y-101222394D01*
X153824992Y-101245881D01*
X153863509Y-101277491D01*
X153895119Y-101316008D01*
X153918606Y-101359948D01*
X153933071Y-101407634D01*
X153938200Y-101459709D01*
X153938200Y-102248291D01*
X153933071Y-102300366D01*
X153918606Y-102348052D01*
X153895119Y-102391992D01*
X153863509Y-102430509D01*
X153824992Y-102462119D01*
X153781052Y-102485606D01*
X153733366Y-102500071D01*
X153681291Y-102505200D01*
X152642709Y-102505200D01*
X152590634Y-102500071D01*
X152542948Y-102485606D01*
X152499008Y-102462119D01*
X152460491Y-102430509D01*
X152428881Y-102391992D01*
X152405394Y-102348052D01*
X152390929Y-102300366D01*
X152385800Y-102248291D01*
X152385800Y-101459709D01*
X152390929Y-101407634D01*
X152405394Y-101359948D01*
X152428881Y-101316008D01*
X152460491Y-101277491D01*
X152499008Y-101245881D01*
X152542948Y-101222394D01*
X152590634Y-101207929D01*
X152642709Y-101202800D01*
X153681291Y-101202800D01*
X153733366Y-101207929D01*
G37*
G36*
X141668808Y-101198918D02*
G01*
X141716392Y-101213353D01*
X141760237Y-101236789D01*
X141798670Y-101268330D01*
X141830211Y-101306763D01*
X141853647Y-101350608D01*
X141868082Y-101398192D01*
X141873200Y-101450159D01*
X141873200Y-102239841D01*
X141868082Y-102291808D01*
X141853647Y-102339392D01*
X141830211Y-102383237D01*
X141798670Y-102421670D01*
X141760237Y-102453211D01*
X141716392Y-102476647D01*
X141668808Y-102491082D01*
X141616841Y-102496200D01*
X140577159Y-102496200D01*
X140525192Y-102491082D01*
X140477608Y-102476647D01*
X140433763Y-102453211D01*
X140395330Y-102421670D01*
X140363789Y-102383237D01*
X140340353Y-102339392D01*
X140325918Y-102291808D01*
X140320800Y-102239841D01*
X140320800Y-101450159D01*
X140325918Y-101398192D01*
X140340353Y-101350608D01*
X140363789Y-101306763D01*
X140395330Y-101268330D01*
X140433763Y-101236789D01*
X140477608Y-101213353D01*
X140525192Y-101198918D01*
X140577159Y-101193800D01*
X141616841Y-101193800D01*
X141668808Y-101198918D01*
G37*
G36*
X132143808Y-101198918D02*
G01*
X132191392Y-101213353D01*
X132235237Y-101236789D01*
X132273670Y-101268330D01*
X132305211Y-101306763D01*
X132328647Y-101350608D01*
X132343082Y-101398192D01*
X132348200Y-101450159D01*
X132348200Y-102239841D01*
X132343082Y-102291808D01*
X132328647Y-102339392D01*
X132305211Y-102383237D01*
X132273670Y-102421670D01*
X132235237Y-102453211D01*
X132191392Y-102476647D01*
X132143808Y-102491082D01*
X132091841Y-102496200D01*
X131052159Y-102496200D01*
X131000192Y-102491082D01*
X130952608Y-102476647D01*
X130908763Y-102453211D01*
X130870330Y-102421670D01*
X130838789Y-102383237D01*
X130815353Y-102339392D01*
X130800918Y-102291808D01*
X130795800Y-102239841D01*
X130795800Y-101450159D01*
X130800918Y-101398192D01*
X130815353Y-101350608D01*
X130838789Y-101306763D01*
X130870330Y-101268330D01*
X130908763Y-101236789D01*
X130952608Y-101213353D01*
X131000192Y-101198918D01*
X131052159Y-101193800D01*
X132091841Y-101193800D01*
X132143808Y-101198918D01*
G37*
G36*
X135318366Y-101198929D02*
G01*
X135366052Y-101213394D01*
X135409992Y-101236881D01*
X135448509Y-101268491D01*
X135480119Y-101307008D01*
X135503606Y-101350948D01*
X135518071Y-101398634D01*
X135523200Y-101450709D01*
X135523200Y-102239291D01*
X135518071Y-102291366D01*
X135503606Y-102339052D01*
X135480119Y-102382992D01*
X135448509Y-102421509D01*
X135409992Y-102453119D01*
X135366052Y-102476606D01*
X135318366Y-102491071D01*
X135266291Y-102496200D01*
X134227709Y-102496200D01*
X134175634Y-102491071D01*
X134127948Y-102476606D01*
X134084008Y-102453119D01*
X134045491Y-102421509D01*
X134013881Y-102382992D01*
X133990394Y-102339052D01*
X133975929Y-102291366D01*
X133970800Y-102239291D01*
X133970800Y-101450709D01*
X133975929Y-101398634D01*
X133990394Y-101350948D01*
X134013881Y-101307008D01*
X134045491Y-101268491D01*
X134084008Y-101236881D01*
X134127948Y-101213394D01*
X134175634Y-101198929D01*
X134227709Y-101193800D01*
X135266291Y-101193800D01*
X135318366Y-101198929D01*
G37*
G36*
X138493366Y-101198929D02*
G01*
X138541052Y-101213394D01*
X138584992Y-101236881D01*
X138623509Y-101268491D01*
X138655119Y-101307008D01*
X138678606Y-101350948D01*
X138693071Y-101398634D01*
X138698200Y-101450709D01*
X138698200Y-102239291D01*
X138693071Y-102291366D01*
X138678606Y-102339052D01*
X138655119Y-102382992D01*
X138623509Y-102421509D01*
X138584992Y-102453119D01*
X138541052Y-102476606D01*
X138493366Y-102491071D01*
X138441291Y-102496200D01*
X137402709Y-102496200D01*
X137350634Y-102491071D01*
X137302948Y-102476606D01*
X137259008Y-102453119D01*
X137220491Y-102421509D01*
X137188881Y-102382992D01*
X137165394Y-102339052D01*
X137150929Y-102291366D01*
X137145800Y-102239291D01*
X137145800Y-101450709D01*
X137150929Y-101398634D01*
X137165394Y-101350948D01*
X137188881Y-101307008D01*
X137220491Y-101268491D01*
X137259008Y-101236881D01*
X137302948Y-101213394D01*
X137350634Y-101198929D01*
X137402709Y-101193800D01*
X138441291Y-101193800D01*
X138493366Y-101198929D01*
G37*
G36*
X145765193Y-101227167D02*
G01*
X145795667Y-101236411D01*
X145823758Y-101251426D01*
X145848373Y-101271627D01*
X145868574Y-101296242D01*
X145883589Y-101324333D01*
X145892833Y-101354807D01*
X145896200Y-101388991D01*
X145896200Y-101811009D01*
X145892833Y-101845193D01*
X145883589Y-101875667D01*
X145868574Y-101903758D01*
X145848373Y-101928373D01*
X145823758Y-101948574D01*
X145795667Y-101963589D01*
X145765193Y-101972833D01*
X145731009Y-101976200D01*
X143958991Y-101976200D01*
X143924807Y-101972833D01*
X143894333Y-101963589D01*
X143866242Y-101948574D01*
X143841627Y-101928373D01*
X143821426Y-101903758D01*
X143806411Y-101875667D01*
X143797167Y-101845193D01*
X143793800Y-101811009D01*
X143793800Y-101388991D01*
X143797167Y-101354807D01*
X143806411Y-101324333D01*
X143821426Y-101296242D01*
X143841627Y-101271627D01*
X143866242Y-101251426D01*
X143894333Y-101236411D01*
X143924807Y-101227167D01*
X143958991Y-101223800D01*
X145731009Y-101223800D01*
X145765193Y-101227167D01*
G37*
G36*
X150715193Y-101227167D02*
G01*
X150745667Y-101236411D01*
X150773758Y-101251426D01*
X150798373Y-101271627D01*
X150818574Y-101296242D01*
X150833589Y-101324333D01*
X150842833Y-101354807D01*
X150846200Y-101388991D01*
X150846200Y-101811009D01*
X150842833Y-101845193D01*
X150833589Y-101875667D01*
X150818574Y-101903758D01*
X150798373Y-101928373D01*
X150773758Y-101948574D01*
X150745667Y-101963589D01*
X150715193Y-101972833D01*
X150681009Y-101976200D01*
X148908991Y-101976200D01*
X148874807Y-101972833D01*
X148844333Y-101963589D01*
X148816242Y-101948574D01*
X148791627Y-101928373D01*
X148771426Y-101903758D01*
X148756411Y-101875667D01*
X148747167Y-101845193D01*
X148743800Y-101811009D01*
X148743800Y-101388991D01*
X148747167Y-101354807D01*
X148756411Y-101324333D01*
X148771426Y-101296242D01*
X148791627Y-101271627D01*
X148816242Y-101251426D01*
X148844333Y-101236411D01*
X148874807Y-101227167D01*
X148908991Y-101223800D01*
X150681009Y-101223800D01*
X150715193Y-101227167D01*
G37*
G36*
X153733366Y-99157929D02*
G01*
X153781052Y-99172394D01*
X153824992Y-99195881D01*
X153863509Y-99227491D01*
X153895119Y-99266008D01*
X153918606Y-99309948D01*
X153933071Y-99357634D01*
X153938200Y-99409709D01*
X153938200Y-100198291D01*
X153933071Y-100250366D01*
X153918606Y-100298052D01*
X153895119Y-100341992D01*
X153863509Y-100380509D01*
X153824992Y-100412119D01*
X153781052Y-100435606D01*
X153733366Y-100450071D01*
X153681291Y-100455200D01*
X152642709Y-100455200D01*
X152590634Y-100450071D01*
X152542948Y-100435606D01*
X152499008Y-100412119D01*
X152460491Y-100380509D01*
X152428881Y-100341992D01*
X152405394Y-100298052D01*
X152390929Y-100250366D01*
X152385800Y-100198291D01*
X152385800Y-99409709D01*
X152390929Y-99357634D01*
X152405394Y-99309948D01*
X152428881Y-99266008D01*
X152460491Y-99227491D01*
X152499008Y-99195881D01*
X152542948Y-99172394D01*
X152590634Y-99157929D01*
X152642709Y-99152800D01*
X153681291Y-99152800D01*
X153733366Y-99157929D01*
G37*
G36*
X144716366Y-98422929D02*
G01*
X144764052Y-98437394D01*
X144807992Y-98460881D01*
X144846509Y-98492491D01*
X144878119Y-98531008D01*
X144901606Y-98574948D01*
X144916071Y-98622634D01*
X144921200Y-98674709D01*
X144921200Y-99463291D01*
X144916071Y-99515366D01*
X144901606Y-99563052D01*
X144878119Y-99606992D01*
X144846509Y-99645509D01*
X144807992Y-99677119D01*
X144764052Y-99700606D01*
X144716366Y-99715071D01*
X144664291Y-99720200D01*
X143625709Y-99720200D01*
X143573634Y-99715071D01*
X143525948Y-99700606D01*
X143482008Y-99677119D01*
X143443491Y-99645509D01*
X143411881Y-99606992D01*
X143388394Y-99563052D01*
X143373929Y-99515366D01*
X143368800Y-99463291D01*
X143368800Y-98674709D01*
X143373929Y-98622634D01*
X143388394Y-98574948D01*
X143411881Y-98531008D01*
X143443491Y-98492491D01*
X143482008Y-98460881D01*
X143525948Y-98437394D01*
X143573634Y-98422929D01*
X143625709Y-98417800D01*
X144664291Y-98417800D01*
X144716366Y-98422929D01*
G37*
G36*
X141679366Y-97780929D02*
G01*
X141727052Y-97795394D01*
X141770992Y-97818881D01*
X141809509Y-97850491D01*
X141841119Y-97889008D01*
X141864606Y-97932948D01*
X141879071Y-97980634D01*
X141884200Y-98032709D01*
X141884200Y-99071291D01*
X141879071Y-99123366D01*
X141864606Y-99171052D01*
X141841119Y-99214992D01*
X141809509Y-99253509D01*
X141770992Y-99285119D01*
X141727052Y-99308606D01*
X141679366Y-99323071D01*
X141627291Y-99328200D01*
X140838709Y-99328200D01*
X140786634Y-99323071D01*
X140738948Y-99308606D01*
X140695008Y-99285119D01*
X140656491Y-99253509D01*
X140624881Y-99214992D01*
X140601394Y-99171052D01*
X140586929Y-99123366D01*
X140581800Y-99071291D01*
X140581800Y-98032709D01*
X140586929Y-97980634D01*
X140601394Y-97932948D01*
X140624881Y-97889008D01*
X140656491Y-97850491D01*
X140695008Y-97818881D01*
X140738948Y-97795394D01*
X140786634Y-97780929D01*
X140838709Y-97775800D01*
X141627291Y-97775800D01*
X141679366Y-97780929D01*
G37*
G36*
X139629366Y-97780929D02*
G01*
X139677052Y-97795394D01*
X139720992Y-97818881D01*
X139759509Y-97850491D01*
X139791119Y-97889008D01*
X139814606Y-97932948D01*
X139829071Y-97980634D01*
X139834200Y-98032709D01*
X139834200Y-99071291D01*
X139829071Y-99123366D01*
X139814606Y-99171052D01*
X139791119Y-99214992D01*
X139759509Y-99253509D01*
X139720992Y-99285119D01*
X139677052Y-99308606D01*
X139629366Y-99323071D01*
X139577291Y-99328200D01*
X138788709Y-99328200D01*
X138736634Y-99323071D01*
X138688948Y-99308606D01*
X138645008Y-99285119D01*
X138606491Y-99253509D01*
X138574881Y-99214992D01*
X138551394Y-99171052D01*
X138536929Y-99123366D01*
X138531800Y-99071291D01*
X138531800Y-98032709D01*
X138536929Y-97980634D01*
X138551394Y-97932948D01*
X138574881Y-97889008D01*
X138606491Y-97850491D01*
X138645008Y-97818881D01*
X138688948Y-97795394D01*
X138736634Y-97780929D01*
X138788709Y-97775800D01*
X139577291Y-97775800D01*
X139629366Y-97780929D01*
G37*
G36*
X136980366Y-97780929D02*
G01*
X137028052Y-97795394D01*
X137071992Y-97818881D01*
X137110509Y-97850491D01*
X137142119Y-97889008D01*
X137165606Y-97932948D01*
X137180071Y-97980634D01*
X137185200Y-98032709D01*
X137185200Y-99071291D01*
X137180071Y-99123366D01*
X137165606Y-99171052D01*
X137142119Y-99214992D01*
X137110509Y-99253509D01*
X137071992Y-99285119D01*
X137028052Y-99308606D01*
X136980366Y-99323071D01*
X136928291Y-99328200D01*
X136139709Y-99328200D01*
X136087634Y-99323071D01*
X136039948Y-99308606D01*
X135996008Y-99285119D01*
X135957491Y-99253509D01*
X135925881Y-99214992D01*
X135902394Y-99171052D01*
X135887929Y-99123366D01*
X135882800Y-99071291D01*
X135882800Y-98032709D01*
X135887929Y-97980634D01*
X135902394Y-97932948D01*
X135925881Y-97889008D01*
X135957491Y-97850491D01*
X135996008Y-97818881D01*
X136039948Y-97795394D01*
X136087634Y-97780929D01*
X136139709Y-97775800D01*
X136928291Y-97775800D01*
X136980366Y-97780929D01*
G37*
G36*
X134930366Y-97780929D02*
G01*
X134978052Y-97795394D01*
X135021992Y-97818881D01*
X135060509Y-97850491D01*
X135092119Y-97889008D01*
X135115606Y-97932948D01*
X135130071Y-97980634D01*
X135135200Y-98032709D01*
X135135200Y-99071291D01*
X135130071Y-99123366D01*
X135115606Y-99171052D01*
X135092119Y-99214992D01*
X135060509Y-99253509D01*
X135021992Y-99285119D01*
X134978052Y-99308606D01*
X134930366Y-99323071D01*
X134878291Y-99328200D01*
X134089709Y-99328200D01*
X134037634Y-99323071D01*
X133989948Y-99308606D01*
X133946008Y-99285119D01*
X133907491Y-99253509D01*
X133875881Y-99214992D01*
X133852394Y-99171052D01*
X133837929Y-99123366D01*
X133832800Y-99071291D01*
X133832800Y-98032709D01*
X133837929Y-97980634D01*
X133852394Y-97932948D01*
X133875881Y-97889008D01*
X133907491Y-97850491D01*
X133946008Y-97818881D01*
X133989948Y-97795394D01*
X134037634Y-97780929D01*
X134089709Y-97775800D01*
X134878291Y-97775800D01*
X134930366Y-97780929D01*
G37*
G36*
X148764366Y-97526929D02*
G01*
X148812052Y-97541394D01*
X148855992Y-97564881D01*
X148894509Y-97596491D01*
X148926119Y-97635008D01*
X148949606Y-97678948D01*
X148964071Y-97726634D01*
X148969200Y-97778709D01*
X148969200Y-98817291D01*
X148964071Y-98869366D01*
X148949606Y-98917052D01*
X148926119Y-98960992D01*
X148894509Y-98999509D01*
X148855992Y-99031119D01*
X148812052Y-99054606D01*
X148764366Y-99069071D01*
X148712291Y-99074200D01*
X147923709Y-99074200D01*
X147871634Y-99069071D01*
X147823948Y-99054606D01*
X147780008Y-99031119D01*
X147741491Y-98999509D01*
X147709881Y-98960992D01*
X147686394Y-98917052D01*
X147671929Y-98869366D01*
X147666800Y-98817291D01*
X147666800Y-97778709D01*
X147671929Y-97726634D01*
X147686394Y-97678948D01*
X147709881Y-97635008D01*
X147741491Y-97596491D01*
X147780008Y-97564881D01*
X147823948Y-97541394D01*
X147871634Y-97526929D01*
X147923709Y-97521800D01*
X148712291Y-97521800D01*
X148764366Y-97526929D01*
G37*
G36*
X150814366Y-97526929D02*
G01*
X150862052Y-97541394D01*
X150905992Y-97564881D01*
X150944509Y-97596491D01*
X150976119Y-97635008D01*
X150999606Y-97678948D01*
X151014071Y-97726634D01*
X151019200Y-97778709D01*
X151019200Y-98817291D01*
X151014071Y-98869366D01*
X150999606Y-98917052D01*
X150976119Y-98960992D01*
X150944509Y-98999509D01*
X150905992Y-99031119D01*
X150862052Y-99054606D01*
X150814366Y-99069071D01*
X150762291Y-99074200D01*
X149973709Y-99074200D01*
X149921634Y-99069071D01*
X149873948Y-99054606D01*
X149830008Y-99031119D01*
X149791491Y-98999509D01*
X149759881Y-98960992D01*
X149736394Y-98917052D01*
X149721929Y-98869366D01*
X149716800Y-98817291D01*
X149716800Y-97778709D01*
X149721929Y-97726634D01*
X149736394Y-97678948D01*
X149759881Y-97635008D01*
X149791491Y-97596491D01*
X149830008Y-97564881D01*
X149873948Y-97541394D01*
X149921634Y-97526929D01*
X149973709Y-97521800D01*
X150762291Y-97521800D01*
X150814366Y-97526929D01*
G37*
G36*
X144716366Y-96372929D02*
G01*
X144764052Y-96387394D01*
X144807992Y-96410881D01*
X144846509Y-96442491D01*
X144878119Y-96481008D01*
X144901606Y-96524948D01*
X144916071Y-96572634D01*
X144921200Y-96624709D01*
X144921200Y-97413291D01*
X144916071Y-97465366D01*
X144901606Y-97513052D01*
X144878119Y-97556992D01*
X144846509Y-97595509D01*
X144807992Y-97627119D01*
X144764052Y-97650606D01*
X144716366Y-97665071D01*
X144664291Y-97670200D01*
X143625709Y-97670200D01*
X143573634Y-97665071D01*
X143525948Y-97650606D01*
X143482008Y-97627119D01*
X143443491Y-97595509D01*
X143411881Y-97556992D01*
X143388394Y-97513052D01*
X143373929Y-97465366D01*
X143368800Y-97413291D01*
X143368800Y-96624709D01*
X143373929Y-96572634D01*
X143388394Y-96524948D01*
X143411881Y-96481008D01*
X143443491Y-96442491D01*
X143482008Y-96410881D01*
X143525948Y-96387394D01*
X143573634Y-96372929D01*
X143625709Y-96367800D01*
X144664291Y-96367800D01*
X144716366Y-96372929D01*
G37*
G36*
X143078957Y-87404330D02*
G01*
X143602392Y-87621144D01*
X144073471Y-87935909D01*
X144474091Y-88336529D01*
X144788856Y-88807608D01*
X145005670Y-89331043D01*
X145116200Y-89886719D01*
X145116200Y-90453281D01*
X145005670Y-91008957D01*
X144788856Y-91532392D01*
X144474091Y-92003471D01*
X144073471Y-92404091D01*
X143602392Y-92718856D01*
X143078957Y-92935670D01*
X142523281Y-93046200D01*
X141956719Y-93046200D01*
X141401043Y-92935670D01*
X140877608Y-92718856D01*
X140406529Y-92404091D01*
X140005909Y-92003471D01*
X139691144Y-91532392D01*
X139474330Y-91008957D01*
X139363800Y-90453281D01*
X139363800Y-89886719D01*
X139474330Y-89331043D01*
X139691144Y-88807608D01*
X140005909Y-88336529D01*
X140406529Y-87935909D01*
X140877608Y-87621144D01*
X141401043Y-87404330D01*
X141956719Y-87293800D01*
X142523281Y-87293800D01*
X143078957Y-87404330D01*
G37*
M02*
