G04 #@! TF.GenerationSoftware,KiCad,Pcbnew,(5.1.6)-1*
G04 #@! TF.CreationDate,2020-08-08T13:54:31-07:00*
G04 #@! TF.ProjectId,attiny85-keychain,61747469-6e79-4383-952d-6b6579636861,A*
G04 #@! TF.SameCoordinates,Original*
G04 #@! TF.FileFunction,Copper,L2,Bot*
G04 #@! TF.FilePolarity,Positive*
%FSLAX46Y46*%
G04 Gerber Fmt 4.6, Leading zero omitted, Abs format (unit mm)*
G04 Created by KiCad (PCBNEW (5.1.6)-1) date 2020-08-08 13:54:31*
%MOMM*%
%LPD*%
G01*
G04 APERTURE LIST*
G04 #@! TA.AperFunction,SMDPad,CuDef*
%ADD10R,1.250000X2.500000*%
G04 #@! TD*
G04 #@! TA.AperFunction,SMDPad,CuDef*
%ADD11R,3.810000X5.080000*%
G04 #@! TD*
G04 #@! TA.AperFunction,SMDPad,CuDef*
%ADD12C,10.000000*%
G04 #@! TD*
G04 #@! TA.AperFunction,ComponentPad*
%ADD13C,5.600000*%
G04 #@! TD*
G04 #@! TA.AperFunction,SMDPad,CuDef*
%ADD14R,0.800000X1.500000*%
G04 #@! TD*
G04 #@! TA.AperFunction,SMDPad,CuDef*
%ADD15R,1.700000X0.650000*%
G04 #@! TD*
G04 #@! TA.AperFunction,SMDPad,CuDef*
%ADD16R,1.900000X0.800000*%
G04 #@! TD*
G04 #@! TA.AperFunction,ViaPad*
%ADD17C,0.762000*%
G04 #@! TD*
G04 #@! TA.AperFunction,Conductor*
%ADD18C,0.762000*%
G04 #@! TD*
G04 #@! TA.AperFunction,Conductor*
%ADD19C,0.254000*%
G04 #@! TD*
G04 #@! TA.AperFunction,Conductor*
%ADD20C,1.270000*%
G04 #@! TD*
G04 #@! TA.AperFunction,Conductor*
%ADD21C,0.381000*%
G04 #@! TD*
G04 APERTURE END LIST*
D10*
X154218000Y-111280000D03*
X154218000Y-114780000D03*
X156718000Y-114780000D03*
X159218000Y-114780000D03*
X156718000Y-111280000D03*
X159218000Y-111280000D03*
D11*
X154482800Y-123952000D03*
X129997200Y-123952000D03*
D12*
X142240000Y-123952000D03*
D13*
X142240000Y-90170000D03*
D14*
X125404000Y-107290000D03*
X129104000Y-107290000D03*
X129104000Y-113690000D03*
X125404000Y-113690000D03*
D15*
X133510000Y-110490000D03*
X133510000Y-109220000D03*
X133510000Y-107950000D03*
X133510000Y-106680000D03*
X140810000Y-106680000D03*
X140810000Y-107950000D03*
X140810000Y-109220000D03*
X140810000Y-110490000D03*
G04 #@! TA.AperFunction,SMDPad,CuDef*
G36*
G01*
X141547450Y-102420000D02*
X140646550Y-102420000D01*
G75*
G02*
X140397000Y-102170450I0J249550D01*
G01*
X140397000Y-101519550D01*
G75*
G02*
X140646550Y-101270000I249550J0D01*
G01*
X141547450Y-101270000D01*
G75*
G02*
X141797000Y-101519550I0J-249550D01*
G01*
X141797000Y-102170450D01*
G75*
G02*
X141547450Y-102420000I-249550J0D01*
G01*
G37*
G04 #@! TD.AperFunction*
G04 #@! TA.AperFunction,SMDPad,CuDef*
G36*
G01*
X141547001Y-104470000D02*
X140646999Y-104470000D01*
G75*
G02*
X140397000Y-104220001I0J249999D01*
G01*
X140397000Y-103569999D01*
G75*
G02*
X140646999Y-103320000I249999J0D01*
G01*
X141547001Y-103320000D01*
G75*
G02*
X141797000Y-103569999I0J-249999D01*
G01*
X141797000Y-104220001D01*
G75*
G02*
X141547001Y-104470000I-249999J0D01*
G01*
G37*
G04 #@! TD.AperFunction*
D16*
X129262000Y-117729000D03*
X126262000Y-116779000D03*
X126262000Y-118679000D03*
G04 #@! TA.AperFunction,SMDPad,CuDef*
G36*
G01*
X158037500Y-119370000D02*
X158037500Y-118120000D01*
G75*
G02*
X158287500Y-117870000I250000J0D01*
G01*
X159212500Y-117870000D01*
G75*
G02*
X159462500Y-118120000I0J-250000D01*
G01*
X159462500Y-119370000D01*
G75*
G02*
X159212500Y-119620000I-250000J0D01*
G01*
X158287500Y-119620000D01*
G75*
G02*
X158037500Y-119370000I0J250000D01*
G01*
G37*
G04 #@! TD.AperFunction*
G04 #@! TA.AperFunction,SMDPad,CuDef*
G36*
G01*
X155062500Y-119370000D02*
X155062500Y-118120000D01*
G75*
G02*
X155312500Y-117870000I250000J0D01*
G01*
X156237500Y-117870000D01*
G75*
G02*
X156487500Y-118120000I0J-250000D01*
G01*
X156487500Y-119370000D01*
G75*
G02*
X156237500Y-119620000I-250000J0D01*
G01*
X155312500Y-119620000D01*
G75*
G02*
X155062500Y-119370000I0J250000D01*
G01*
G37*
G04 #@! TD.AperFunction*
G04 #@! TA.AperFunction,SMDPad,CuDef*
G36*
G01*
X135197001Y-102420000D02*
X134296999Y-102420000D01*
G75*
G02*
X134047000Y-102170001I0J249999D01*
G01*
X134047000Y-101519999D01*
G75*
G02*
X134296999Y-101270000I249999J0D01*
G01*
X135197001Y-101270000D01*
G75*
G02*
X135447000Y-101519999I0J-249999D01*
G01*
X135447000Y-102170001D01*
G75*
G02*
X135197001Y-102420000I-249999J0D01*
G01*
G37*
G04 #@! TD.AperFunction*
G04 #@! TA.AperFunction,SMDPad,CuDef*
G36*
G01*
X135197001Y-104470000D02*
X134296999Y-104470000D01*
G75*
G02*
X134047000Y-104220001I0J249999D01*
G01*
X134047000Y-103569999D01*
G75*
G02*
X134296999Y-103320000I249999J0D01*
G01*
X135197001Y-103320000D01*
G75*
G02*
X135447000Y-103569999I0J-249999D01*
G01*
X135447000Y-104220001D01*
G75*
G02*
X135197001Y-104470000I-249999J0D01*
G01*
G37*
G04 #@! TD.AperFunction*
G04 #@! TA.AperFunction,SMDPad,CuDef*
G36*
G01*
X139758000Y-98101999D02*
X139758000Y-99002001D01*
G75*
G02*
X139508001Y-99252000I-249999J0D01*
G01*
X138857999Y-99252000D01*
G75*
G02*
X138608000Y-99002001I0J249999D01*
G01*
X138608000Y-98101999D01*
G75*
G02*
X138857999Y-97852000I249999J0D01*
G01*
X139508001Y-97852000D01*
G75*
G02*
X139758000Y-98101999I0J-249999D01*
G01*
G37*
G04 #@! TD.AperFunction*
G04 #@! TA.AperFunction,SMDPad,CuDef*
G36*
G01*
X141808000Y-98101999D02*
X141808000Y-99002001D01*
G75*
G02*
X141558001Y-99252000I-249999J0D01*
G01*
X140907999Y-99252000D01*
G75*
G02*
X140658000Y-99002001I0J249999D01*
G01*
X140658000Y-98101999D01*
G75*
G02*
X140907999Y-97852000I249999J0D01*
G01*
X141558001Y-97852000D01*
G75*
G02*
X141808000Y-98101999I0J-249999D01*
G01*
G37*
G04 #@! TD.AperFunction*
G04 #@! TA.AperFunction,SMDPad,CuDef*
G36*
G01*
X137109000Y-98101999D02*
X137109000Y-99002001D01*
G75*
G02*
X136859001Y-99252000I-249999J0D01*
G01*
X136208999Y-99252000D01*
G75*
G02*
X135959000Y-99002001I0J249999D01*
G01*
X135959000Y-98101999D01*
G75*
G02*
X136208999Y-97852000I249999J0D01*
G01*
X136859001Y-97852000D01*
G75*
G02*
X137109000Y-98101999I0J-249999D01*
G01*
G37*
G04 #@! TD.AperFunction*
G04 #@! TA.AperFunction,SMDPad,CuDef*
G36*
G01*
X135059000Y-98101999D02*
X135059000Y-99002001D01*
G75*
G02*
X134809001Y-99252000I-249999J0D01*
G01*
X134158999Y-99252000D01*
G75*
G02*
X133909000Y-99002001I0J249999D01*
G01*
X133909000Y-98101999D01*
G75*
G02*
X134158999Y-97852000I249999J0D01*
G01*
X134809001Y-97852000D01*
G75*
G02*
X135059000Y-98101999I0J-249999D01*
G01*
G37*
G04 #@! TD.AperFunction*
G04 #@! TA.AperFunction,SMDPad,CuDef*
G36*
G01*
X157558000Y-107892001D02*
X157558000Y-106991999D01*
G75*
G02*
X157807999Y-106742000I249999J0D01*
G01*
X158458001Y-106742000D01*
G75*
G02*
X158708000Y-106991999I0J-249999D01*
G01*
X158708000Y-107892001D01*
G75*
G02*
X158458001Y-108142000I-249999J0D01*
G01*
X157807999Y-108142000D01*
G75*
G02*
X157558000Y-107892001I0J249999D01*
G01*
G37*
G04 #@! TD.AperFunction*
G04 #@! TA.AperFunction,SMDPad,CuDef*
G36*
G01*
X155508000Y-107892001D02*
X155508000Y-106991999D01*
G75*
G02*
X155757999Y-106742000I249999J0D01*
G01*
X156408001Y-106742000D01*
G75*
G02*
X156658000Y-106991999I0J-249999D01*
G01*
X156658000Y-107892001D01*
G75*
G02*
X156408001Y-108142000I-249999J0D01*
G01*
X155757999Y-108142000D01*
G75*
G02*
X155508000Y-107892001I0J249999D01*
G01*
G37*
G04 #@! TD.AperFunction*
G04 #@! TA.AperFunction,SMDPad,CuDef*
G36*
G01*
X153612001Y-104969000D02*
X152711999Y-104969000D01*
G75*
G02*
X152462000Y-104719001I0J249999D01*
G01*
X152462000Y-104068999D01*
G75*
G02*
X152711999Y-103819000I249999J0D01*
G01*
X153612001Y-103819000D01*
G75*
G02*
X153862000Y-104068999I0J-249999D01*
G01*
X153862000Y-104719001D01*
G75*
G02*
X153612001Y-104969000I-249999J0D01*
G01*
G37*
G04 #@! TD.AperFunction*
G04 #@! TA.AperFunction,SMDPad,CuDef*
G36*
G01*
X153612001Y-107019000D02*
X152711999Y-107019000D01*
G75*
G02*
X152462000Y-106769001I0J249999D01*
G01*
X152462000Y-106118999D01*
G75*
G02*
X152711999Y-105869000I249999J0D01*
G01*
X153612001Y-105869000D01*
G75*
G02*
X153862000Y-106118999I0J-249999D01*
G01*
X153862000Y-106769001D01*
G75*
G02*
X153612001Y-107019000I-249999J0D01*
G01*
G37*
G04 #@! TD.AperFunction*
G04 #@! TA.AperFunction,SMDPad,CuDef*
G36*
G01*
X156660001Y-105350000D02*
X155759999Y-105350000D01*
G75*
G02*
X155510000Y-105100001I0J249999D01*
G01*
X155510000Y-104449999D01*
G75*
G02*
X155759999Y-104200000I249999J0D01*
G01*
X156660001Y-104200000D01*
G75*
G02*
X156910000Y-104449999I0J-249999D01*
G01*
X156910000Y-105100001D01*
G75*
G02*
X156660001Y-105350000I-249999J0D01*
G01*
G37*
G04 #@! TD.AperFunction*
G04 #@! TA.AperFunction,SMDPad,CuDef*
G36*
G01*
X156660001Y-103300000D02*
X155759999Y-103300000D01*
G75*
G02*
X155510000Y-103050001I0J249999D01*
G01*
X155510000Y-102399999D01*
G75*
G02*
X155759999Y-102150000I249999J0D01*
G01*
X156660001Y-102150000D01*
G75*
G02*
X156910000Y-102399999I0J-249999D01*
G01*
X156910000Y-103050001D01*
G75*
G02*
X156660001Y-103300000I-249999J0D01*
G01*
G37*
G04 #@! TD.AperFunction*
G04 #@! TA.AperFunction,SMDPad,CuDef*
G36*
G01*
X153612001Y-100379000D02*
X152711999Y-100379000D01*
G75*
G02*
X152462000Y-100129001I0J249999D01*
G01*
X152462000Y-99478999D01*
G75*
G02*
X152711999Y-99229000I249999J0D01*
G01*
X153612001Y-99229000D01*
G75*
G02*
X153862000Y-99478999I0J-249999D01*
G01*
X153862000Y-100129001D01*
G75*
G02*
X153612001Y-100379000I-249999J0D01*
G01*
G37*
G04 #@! TD.AperFunction*
G04 #@! TA.AperFunction,SMDPad,CuDef*
G36*
G01*
X153612001Y-102429000D02*
X152711999Y-102429000D01*
G75*
G02*
X152462000Y-102179001I0J249999D01*
G01*
X152462000Y-101528999D01*
G75*
G02*
X152711999Y-101279000I249999J0D01*
G01*
X153612001Y-101279000D01*
G75*
G02*
X153862000Y-101528999I0J-249999D01*
G01*
X153862000Y-102179001D01*
G75*
G02*
X153612001Y-102429000I-249999J0D01*
G01*
G37*
G04 #@! TD.AperFunction*
G04 #@! TA.AperFunction,SMDPad,CuDef*
G36*
G01*
X149793000Y-98748001D02*
X149793000Y-97847999D01*
G75*
G02*
X150042999Y-97598000I249999J0D01*
G01*
X150693001Y-97598000D01*
G75*
G02*
X150943000Y-97847999I0J-249999D01*
G01*
X150943000Y-98748001D01*
G75*
G02*
X150693001Y-98998000I-249999J0D01*
G01*
X150042999Y-98998000D01*
G75*
G02*
X149793000Y-98748001I0J249999D01*
G01*
G37*
G04 #@! TD.AperFunction*
G04 #@! TA.AperFunction,SMDPad,CuDef*
G36*
G01*
X147743000Y-98748001D02*
X147743000Y-97847999D01*
G75*
G02*
X147992999Y-97598000I249999J0D01*
G01*
X148643001Y-97598000D01*
G75*
G02*
X148893000Y-97847999I0J-249999D01*
G01*
X148893000Y-98748001D01*
G75*
G02*
X148643001Y-98998000I-249999J0D01*
G01*
X147992999Y-98998000D01*
G75*
G02*
X147743000Y-98748001I0J249999D01*
G01*
G37*
G04 #@! TD.AperFunction*
G04 #@! TA.AperFunction,SMDPad,CuDef*
G36*
G01*
X144595001Y-97594000D02*
X143694999Y-97594000D01*
G75*
G02*
X143445000Y-97344001I0J249999D01*
G01*
X143445000Y-96693999D01*
G75*
G02*
X143694999Y-96444000I249999J0D01*
G01*
X144595001Y-96444000D01*
G75*
G02*
X144845000Y-96693999I0J-249999D01*
G01*
X144845000Y-97344001D01*
G75*
G02*
X144595001Y-97594000I-249999J0D01*
G01*
G37*
G04 #@! TD.AperFunction*
G04 #@! TA.AperFunction,SMDPad,CuDef*
G36*
G01*
X144595001Y-99644000D02*
X143694999Y-99644000D01*
G75*
G02*
X143445000Y-99394001I0J249999D01*
G01*
X143445000Y-98743999D01*
G75*
G02*
X143694999Y-98494000I249999J0D01*
G01*
X144595001Y-98494000D01*
G75*
G02*
X144845000Y-98743999I0J-249999D01*
G01*
X144845000Y-99394001D01*
G75*
G02*
X144595001Y-99644000I-249999J0D01*
G01*
G37*
G04 #@! TD.AperFunction*
G04 #@! TA.AperFunction,SMDPad,CuDef*
G36*
G01*
X150770000Y-101450000D02*
X150770000Y-101750000D01*
G75*
G02*
X150620000Y-101900000I-150000J0D01*
G01*
X148970000Y-101900000D01*
G75*
G02*
X148820000Y-101750000I0J150000D01*
G01*
X148820000Y-101450000D01*
G75*
G02*
X148970000Y-101300000I150000J0D01*
G01*
X150620000Y-101300000D01*
G75*
G02*
X150770000Y-101450000I0J-150000D01*
G01*
G37*
G04 #@! TD.AperFunction*
G04 #@! TA.AperFunction,SMDPad,CuDef*
G36*
G01*
X150770000Y-102720000D02*
X150770000Y-103020000D01*
G75*
G02*
X150620000Y-103170000I-150000J0D01*
G01*
X148970000Y-103170000D01*
G75*
G02*
X148820000Y-103020000I0J150000D01*
G01*
X148820000Y-102720000D01*
G75*
G02*
X148970000Y-102570000I150000J0D01*
G01*
X150620000Y-102570000D01*
G75*
G02*
X150770000Y-102720000I0J-150000D01*
G01*
G37*
G04 #@! TD.AperFunction*
G04 #@! TA.AperFunction,SMDPad,CuDef*
G36*
G01*
X150770000Y-103990000D02*
X150770000Y-104290000D01*
G75*
G02*
X150620000Y-104440000I-150000J0D01*
G01*
X148970000Y-104440000D01*
G75*
G02*
X148820000Y-104290000I0J150000D01*
G01*
X148820000Y-103990000D01*
G75*
G02*
X148970000Y-103840000I150000J0D01*
G01*
X150620000Y-103840000D01*
G75*
G02*
X150770000Y-103990000I0J-150000D01*
G01*
G37*
G04 #@! TD.AperFunction*
G04 #@! TA.AperFunction,SMDPad,CuDef*
G36*
G01*
X150770000Y-105260000D02*
X150770000Y-105560000D01*
G75*
G02*
X150620000Y-105710000I-150000J0D01*
G01*
X148970000Y-105710000D01*
G75*
G02*
X148820000Y-105560000I0J150000D01*
G01*
X148820000Y-105260000D01*
G75*
G02*
X148970000Y-105110000I150000J0D01*
G01*
X150620000Y-105110000D01*
G75*
G02*
X150770000Y-105260000I0J-150000D01*
G01*
G37*
G04 #@! TD.AperFunction*
G04 #@! TA.AperFunction,SMDPad,CuDef*
G36*
G01*
X150770000Y-106530000D02*
X150770000Y-106830000D01*
G75*
G02*
X150620000Y-106980000I-150000J0D01*
G01*
X148970000Y-106980000D01*
G75*
G02*
X148820000Y-106830000I0J150000D01*
G01*
X148820000Y-106530000D01*
G75*
G02*
X148970000Y-106380000I150000J0D01*
G01*
X150620000Y-106380000D01*
G75*
G02*
X150770000Y-106530000I0J-150000D01*
G01*
G37*
G04 #@! TD.AperFunction*
G04 #@! TA.AperFunction,SMDPad,CuDef*
G36*
G01*
X150770000Y-107800000D02*
X150770000Y-108100000D01*
G75*
G02*
X150620000Y-108250000I-150000J0D01*
G01*
X148970000Y-108250000D01*
G75*
G02*
X148820000Y-108100000I0J150000D01*
G01*
X148820000Y-107800000D01*
G75*
G02*
X148970000Y-107650000I150000J0D01*
G01*
X150620000Y-107650000D01*
G75*
G02*
X150770000Y-107800000I0J-150000D01*
G01*
G37*
G04 #@! TD.AperFunction*
G04 #@! TA.AperFunction,SMDPad,CuDef*
G36*
G01*
X150770000Y-109070000D02*
X150770000Y-109370000D01*
G75*
G02*
X150620000Y-109520000I-150000J0D01*
G01*
X148970000Y-109520000D01*
G75*
G02*
X148820000Y-109370000I0J150000D01*
G01*
X148820000Y-109070000D01*
G75*
G02*
X148970000Y-108920000I150000J0D01*
G01*
X150620000Y-108920000D01*
G75*
G02*
X150770000Y-109070000I0J-150000D01*
G01*
G37*
G04 #@! TD.AperFunction*
G04 #@! TA.AperFunction,SMDPad,CuDef*
G36*
G01*
X150770000Y-110340000D02*
X150770000Y-110640000D01*
G75*
G02*
X150620000Y-110790000I-150000J0D01*
G01*
X148970000Y-110790000D01*
G75*
G02*
X148820000Y-110640000I0J150000D01*
G01*
X148820000Y-110340000D01*
G75*
G02*
X148970000Y-110190000I150000J0D01*
G01*
X150620000Y-110190000D01*
G75*
G02*
X150770000Y-110340000I0J-150000D01*
G01*
G37*
G04 #@! TD.AperFunction*
G04 #@! TA.AperFunction,SMDPad,CuDef*
G36*
G01*
X145820000Y-110340000D02*
X145820000Y-110640000D01*
G75*
G02*
X145670000Y-110790000I-150000J0D01*
G01*
X144020000Y-110790000D01*
G75*
G02*
X143870000Y-110640000I0J150000D01*
G01*
X143870000Y-110340000D01*
G75*
G02*
X144020000Y-110190000I150000J0D01*
G01*
X145670000Y-110190000D01*
G75*
G02*
X145820000Y-110340000I0J-150000D01*
G01*
G37*
G04 #@! TD.AperFunction*
G04 #@! TA.AperFunction,SMDPad,CuDef*
G36*
G01*
X145820000Y-109070000D02*
X145820000Y-109370000D01*
G75*
G02*
X145670000Y-109520000I-150000J0D01*
G01*
X144020000Y-109520000D01*
G75*
G02*
X143870000Y-109370000I0J150000D01*
G01*
X143870000Y-109070000D01*
G75*
G02*
X144020000Y-108920000I150000J0D01*
G01*
X145670000Y-108920000D01*
G75*
G02*
X145820000Y-109070000I0J-150000D01*
G01*
G37*
G04 #@! TD.AperFunction*
G04 #@! TA.AperFunction,SMDPad,CuDef*
G36*
G01*
X145820000Y-107800000D02*
X145820000Y-108100000D01*
G75*
G02*
X145670000Y-108250000I-150000J0D01*
G01*
X144020000Y-108250000D01*
G75*
G02*
X143870000Y-108100000I0J150000D01*
G01*
X143870000Y-107800000D01*
G75*
G02*
X144020000Y-107650000I150000J0D01*
G01*
X145670000Y-107650000D01*
G75*
G02*
X145820000Y-107800000I0J-150000D01*
G01*
G37*
G04 #@! TD.AperFunction*
G04 #@! TA.AperFunction,SMDPad,CuDef*
G36*
G01*
X145820000Y-106530000D02*
X145820000Y-106830000D01*
G75*
G02*
X145670000Y-106980000I-150000J0D01*
G01*
X144020000Y-106980000D01*
G75*
G02*
X143870000Y-106830000I0J150000D01*
G01*
X143870000Y-106530000D01*
G75*
G02*
X144020000Y-106380000I150000J0D01*
G01*
X145670000Y-106380000D01*
G75*
G02*
X145820000Y-106530000I0J-150000D01*
G01*
G37*
G04 #@! TD.AperFunction*
G04 #@! TA.AperFunction,SMDPad,CuDef*
G36*
G01*
X145820000Y-105260000D02*
X145820000Y-105560000D01*
G75*
G02*
X145670000Y-105710000I-150000J0D01*
G01*
X144020000Y-105710000D01*
G75*
G02*
X143870000Y-105560000I0J150000D01*
G01*
X143870000Y-105260000D01*
G75*
G02*
X144020000Y-105110000I150000J0D01*
G01*
X145670000Y-105110000D01*
G75*
G02*
X145820000Y-105260000I0J-150000D01*
G01*
G37*
G04 #@! TD.AperFunction*
G04 #@! TA.AperFunction,SMDPad,CuDef*
G36*
G01*
X145820000Y-103990000D02*
X145820000Y-104290000D01*
G75*
G02*
X145670000Y-104440000I-150000J0D01*
G01*
X144020000Y-104440000D01*
G75*
G02*
X143870000Y-104290000I0J150000D01*
G01*
X143870000Y-103990000D01*
G75*
G02*
X144020000Y-103840000I150000J0D01*
G01*
X145670000Y-103840000D01*
G75*
G02*
X145820000Y-103990000I0J-150000D01*
G01*
G37*
G04 #@! TD.AperFunction*
G04 #@! TA.AperFunction,SMDPad,CuDef*
G36*
G01*
X145820000Y-102720000D02*
X145820000Y-103020000D01*
G75*
G02*
X145670000Y-103170000I-150000J0D01*
G01*
X144020000Y-103170000D01*
G75*
G02*
X143870000Y-103020000I0J150000D01*
G01*
X143870000Y-102720000D01*
G75*
G02*
X144020000Y-102570000I150000J0D01*
G01*
X145670000Y-102570000D01*
G75*
G02*
X145820000Y-102720000I0J-150000D01*
G01*
G37*
G04 #@! TD.AperFunction*
G04 #@! TA.AperFunction,SMDPad,CuDef*
G36*
G01*
X145820000Y-101450000D02*
X145820000Y-101750000D01*
G75*
G02*
X145670000Y-101900000I-150000J0D01*
G01*
X144020000Y-101900000D01*
G75*
G02*
X143870000Y-101750000I0J150000D01*
G01*
X143870000Y-101450000D01*
G75*
G02*
X144020000Y-101300000I150000J0D01*
G01*
X145670000Y-101300000D01*
G75*
G02*
X145820000Y-101450000I0J-150000D01*
G01*
G37*
G04 #@! TD.AperFunction*
G04 #@! TA.AperFunction,SMDPad,CuDef*
G36*
G01*
X132510000Y-113214999D02*
X132510000Y-114115001D01*
G75*
G02*
X132260001Y-114365000I-249999J0D01*
G01*
X131609999Y-114365000D01*
G75*
G02*
X131360000Y-114115001I0J249999D01*
G01*
X131360000Y-113214999D01*
G75*
G02*
X131609999Y-112965000I249999J0D01*
G01*
X132260001Y-112965000D01*
G75*
G02*
X132510000Y-113214999I0J-249999D01*
G01*
G37*
G04 #@! TD.AperFunction*
G04 #@! TA.AperFunction,SMDPad,CuDef*
G36*
G01*
X134560000Y-113214999D02*
X134560000Y-114115001D01*
G75*
G02*
X134310001Y-114365000I-249999J0D01*
G01*
X133659999Y-114365000D01*
G75*
G02*
X133410000Y-114115001I0J249999D01*
G01*
X133410000Y-113214999D01*
G75*
G02*
X133659999Y-112965000I249999J0D01*
G01*
X134310001Y-112965000D01*
G75*
G02*
X134560000Y-113214999I0J-249999D01*
G01*
G37*
G04 #@! TD.AperFunction*
G04 #@! TA.AperFunction,SMDPad,CuDef*
G36*
G01*
X132022450Y-102420000D02*
X131121550Y-102420000D01*
G75*
G02*
X130872000Y-102170450I0J249550D01*
G01*
X130872000Y-101519550D01*
G75*
G02*
X131121550Y-101270000I249550J0D01*
G01*
X132022450Y-101270000D01*
G75*
G02*
X132272000Y-101519550I0J-249550D01*
G01*
X132272000Y-102170450D01*
G75*
G02*
X132022450Y-102420000I-249550J0D01*
G01*
G37*
G04 #@! TD.AperFunction*
G04 #@! TA.AperFunction,SMDPad,CuDef*
G36*
G01*
X132022001Y-104470000D02*
X131121999Y-104470000D01*
G75*
G02*
X130872000Y-104220001I0J249999D01*
G01*
X130872000Y-103569999D01*
G75*
G02*
X131121999Y-103320000I249999J0D01*
G01*
X132022001Y-103320000D01*
G75*
G02*
X132272000Y-103569999I0J-249999D01*
G01*
X132272000Y-104220001D01*
G75*
G02*
X132022001Y-104470000I-249999J0D01*
G01*
G37*
G04 #@! TD.AperFunction*
G04 #@! TA.AperFunction,SMDPad,CuDef*
G36*
G01*
X138372001Y-102420000D02*
X137471999Y-102420000D01*
G75*
G02*
X137222000Y-102170001I0J249999D01*
G01*
X137222000Y-101519999D01*
G75*
G02*
X137471999Y-101270000I249999J0D01*
G01*
X138372001Y-101270000D01*
G75*
G02*
X138622000Y-101519999I0J-249999D01*
G01*
X138622000Y-102170001D01*
G75*
G02*
X138372001Y-102420000I-249999J0D01*
G01*
G37*
G04 #@! TD.AperFunction*
G04 #@! TA.AperFunction,SMDPad,CuDef*
G36*
G01*
X138372001Y-104470000D02*
X137471999Y-104470000D01*
G75*
G02*
X137222000Y-104220001I0J249999D01*
G01*
X137222000Y-103569999D01*
G75*
G02*
X137471999Y-103320000I249999J0D01*
G01*
X138372001Y-103320000D01*
G75*
G02*
X138622000Y-103569999I0J-249999D01*
G01*
X138622000Y-104220001D01*
G75*
G02*
X138372001Y-104470000I-249999J0D01*
G01*
G37*
G04 #@! TD.AperFunction*
D17*
X160655000Y-113030000D03*
X124079000Y-116779000D03*
X145445835Y-97028000D03*
X151511000Y-100330000D03*
X154818098Y-101346000D03*
X154813000Y-102362000D03*
X154432000Y-103885990D03*
X154432000Y-104902000D03*
X125476000Y-110744000D03*
X132842000Y-99568000D03*
D18*
X126262000Y-116779000D02*
X124079000Y-116779000D01*
D19*
X145436835Y-97019000D02*
X145445835Y-97028000D01*
X144145000Y-97019000D02*
X145436835Y-97019000D01*
X151511000Y-98766000D02*
X151511000Y-100330000D01*
X150368000Y-98298000D02*
X151043000Y-98298000D01*
X151043000Y-98298000D02*
X151511000Y-98766000D01*
X153280000Y-99813000D02*
X154813000Y-101346000D01*
X153162000Y-99813000D02*
X153280000Y-99813000D01*
X154813000Y-101346000D02*
X154818098Y-101346000D01*
X156210000Y-102725000D02*
X155282083Y-102725000D01*
X155282083Y-102725000D02*
X155176000Y-102725000D01*
X155176000Y-102725000D02*
X154813000Y-102362000D01*
X153923990Y-104394000D02*
X154051001Y-104266989D01*
X154051001Y-104266989D02*
X154432000Y-103885990D01*
X153035000Y-104394000D02*
X153923990Y-104394000D01*
X154432000Y-105520773D02*
X154432000Y-104902000D01*
X154956227Y-106045000D02*
X154432000Y-105520773D01*
X158133000Y-107442000D02*
X156736000Y-106045000D01*
X156736000Y-106045000D02*
X154956227Y-106045000D01*
X134357000Y-98806000D02*
X134493000Y-98670000D01*
X125856999Y-110363001D02*
X125476000Y-110744000D01*
X126492000Y-109728000D02*
X125856999Y-110363001D01*
X126492000Y-102933500D02*
X126492000Y-109728000D01*
X134493000Y-98552000D02*
X130873500Y-98552000D01*
X130873500Y-98552000D02*
X126492000Y-102933500D01*
X133095945Y-99821945D02*
X132842000Y-99568000D01*
X139065000Y-98552000D02*
X137795055Y-99821945D01*
X137795055Y-99821945D02*
X133095945Y-99821945D01*
D20*
X158750000Y-117983000D02*
X158750000Y-118745000D01*
X156845000Y-116078000D02*
X158750000Y-117983000D01*
X156845000Y-116078000D02*
X156718000Y-115951000D01*
X156718000Y-115951000D02*
X156718000Y-114808000D01*
D18*
X155702000Y-118999000D02*
X155702000Y-118872000D01*
D20*
X154482800Y-119964200D02*
X155702000Y-118745000D01*
X154482800Y-123952000D02*
X154482800Y-119964200D01*
X129262000Y-117729000D02*
X136017000Y-117729000D01*
X136017000Y-117729000D02*
X142240000Y-123952000D01*
D19*
X133477000Y-107950000D02*
X134366000Y-107950000D01*
X134874000Y-107442000D02*
X134874000Y-105918000D01*
X134874000Y-105918000D02*
X134493000Y-105537000D01*
X134366000Y-107950000D02*
X134874000Y-107442000D01*
X134493000Y-105537000D02*
X133592407Y-105537000D01*
X133592407Y-105537000D02*
X132969000Y-104913593D01*
X129104000Y-104830000D02*
X129104000Y-107290000D01*
X130048000Y-103886000D02*
X129104000Y-104830000D01*
X132969000Y-104267000D02*
X132588000Y-103886000D01*
X132588000Y-103886000D02*
X130048000Y-103886000D01*
X133858000Y-101854000D02*
X134747000Y-101854000D01*
X132969000Y-104902000D02*
X132969000Y-102743000D01*
X132969000Y-102743000D02*
X133858000Y-101854000D01*
X131953000Y-113538000D02*
X131953000Y-113792000D01*
X131953000Y-112776000D02*
X131953000Y-113538000D01*
X133510000Y-110490000D02*
X133510000Y-111219000D01*
X133510000Y-111219000D02*
X131953000Y-112776000D01*
X143383000Y-104140000D02*
X144845000Y-104140000D01*
X139833000Y-107950000D02*
X139573000Y-107690000D01*
X140810000Y-107950000D02*
X139833000Y-107950000D01*
X139573000Y-107690000D02*
X139573000Y-103251000D01*
X139573000Y-103251000D02*
X139954000Y-102870000D01*
X139954000Y-102870000D02*
X142113000Y-102870000D01*
X142113000Y-102870000D02*
X143383000Y-104140000D01*
X140090000Y-106562000D02*
X140208000Y-106680000D01*
X142113000Y-106680000D02*
X140462000Y-106680000D01*
X144780000Y-105410000D02*
X143383000Y-105410000D01*
X143383000Y-105410000D02*
X142113000Y-106680000D01*
X141097000Y-103886000D02*
X141097000Y-105346500D01*
X140810000Y-105633500D02*
X140810000Y-106680000D01*
X141097000Y-105346500D02*
X140810000Y-105633500D01*
X134620000Y-109220000D02*
X133477000Y-109220000D01*
X139700000Y-108585000D02*
X139065000Y-107950000D01*
X142113000Y-108585000D02*
X139700000Y-108585000D01*
X144845000Y-106680000D02*
X143510000Y-106680000D01*
X142748000Y-107950000D02*
X142113000Y-108585000D01*
X135331211Y-105728618D02*
X135331211Y-108508789D01*
X135331211Y-108508789D02*
X134620000Y-109220000D01*
X142748000Y-107442000D02*
X142748000Y-107950000D01*
X143510000Y-106680000D02*
X142748000Y-107442000D01*
X139065000Y-103251000D02*
X138684000Y-102870000D01*
X138684000Y-102870000D02*
X133858000Y-102870000D01*
X133426210Y-104724210D02*
X133781789Y-105079789D01*
X133858000Y-102870000D02*
X133426210Y-103301790D01*
X133426210Y-103301790D02*
X133426210Y-104724210D01*
X133781789Y-105079789D02*
X134682382Y-105079789D01*
X139065000Y-107950000D02*
X139065000Y-103251000D01*
X134682382Y-105079789D02*
X135331211Y-105728618D01*
X144145000Y-107950000D02*
X144780000Y-107950000D01*
X143383000Y-107950000D02*
X144145000Y-107950000D01*
X140716000Y-109220000D02*
X142113000Y-109220000D01*
X142113000Y-109220000D02*
X143383000Y-107950000D01*
D18*
X146812000Y-109728000D02*
X146939000Y-109855000D01*
X146812000Y-102235000D02*
X146812000Y-109728000D01*
X144845000Y-101600000D02*
X146177000Y-101600000D01*
X146177000Y-101600000D02*
X146812000Y-102235000D01*
X137160000Y-110490000D02*
X133985000Y-113665000D01*
X150340000Y-114780000D02*
X147320000Y-111760000D01*
X154345000Y-114780000D02*
X150340000Y-114780000D01*
X147320000Y-111760000D02*
X147320000Y-110236000D01*
X147320000Y-110236000D02*
X146304000Y-109220000D01*
X146304000Y-109220000D02*
X143510000Y-109220000D01*
X143510000Y-109220000D02*
X142240000Y-110490000D01*
D21*
X127320000Y-118679000D02*
X126262000Y-118679000D01*
X133985000Y-114808000D02*
X133604000Y-115189000D01*
X133985000Y-113665000D02*
X133985000Y-114808000D01*
X133604000Y-115189000D02*
X128524000Y-115189000D01*
X128524000Y-115189000D02*
X127762000Y-115951000D01*
X127762000Y-115951000D02*
X127762000Y-118237000D01*
X127762000Y-118237000D02*
X127320000Y-118679000D01*
D18*
X142240000Y-110490000D02*
X137160000Y-110490000D01*
X138176000Y-104140000D02*
X137922000Y-103886000D01*
X137922000Y-103886000D02*
X134620000Y-103886000D01*
X139446000Y-110490000D02*
X138176000Y-109220000D01*
X138176000Y-109220000D02*
X138176000Y-104140000D01*
D19*
X144145000Y-99441000D02*
X144145000Y-99060000D01*
X142875000Y-100711000D02*
X144145000Y-99441000D01*
X142875000Y-102362000D02*
X142875000Y-100711000D01*
X144845000Y-102870000D02*
X143383000Y-102870000D01*
X143383000Y-102870000D02*
X142875000Y-102362000D01*
X148336000Y-99441000D02*
X148336000Y-98298000D01*
X149795000Y-101600000D02*
X149795000Y-100900000D01*
X149795000Y-100900000D02*
X148336000Y-99441000D01*
X152146000Y-101854000D02*
X153289000Y-101854000D01*
X149795000Y-102870000D02*
X151130000Y-102870000D01*
X151130000Y-102870000D02*
X152146000Y-101854000D01*
X149795000Y-104140000D02*
X150622000Y-104140000D01*
X156083000Y-104484422D02*
X156083000Y-104775000D01*
X154722578Y-103124000D02*
X156083000Y-104484422D01*
X152146000Y-103124000D02*
X154722578Y-103124000D01*
X149795000Y-104140000D02*
X151130000Y-104140000D01*
X151130000Y-104140000D02*
X152146000Y-103124000D01*
X153162000Y-106444000D02*
X153162000Y-106244500D01*
X150749000Y-105410000D02*
X149795000Y-105410000D01*
X151130000Y-105410000D02*
X150749000Y-105410000D01*
X153035000Y-106444000D02*
X152164000Y-106444000D01*
X152164000Y-106444000D02*
X151130000Y-105410000D01*
X151130000Y-106680000D02*
X149860000Y-106680000D01*
X156083000Y-107442000D02*
X151892000Y-107442000D01*
X151892000Y-107442000D02*
X151130000Y-106680000D01*
X140208000Y-97143407D02*
X140208000Y-97155000D01*
X148158222Y-100152221D02*
X146614246Y-98608245D01*
X148720000Y-107950000D02*
X148158222Y-107388222D01*
X142101407Y-95250000D02*
X140208000Y-97143407D01*
X145367006Y-95250000D02*
X142101407Y-95250000D01*
X149795000Y-107950000D02*
X148720000Y-107950000D01*
X148158222Y-107388222D02*
X148158222Y-100152221D01*
X146614246Y-98608245D02*
X146614246Y-96497240D01*
X146614246Y-96497240D02*
X145367006Y-95250000D01*
X136398000Y-97790000D02*
X136398000Y-98679000D01*
X136906000Y-97282000D02*
X136398000Y-97790000D01*
X140208000Y-97143407D02*
X140069407Y-97282000D01*
X140069407Y-97282000D02*
X136906000Y-97282000D01*
X146157035Y-98797627D02*
X147701011Y-100341603D01*
X141233000Y-98679000D02*
X141233000Y-96765000D01*
X146157035Y-96686638D02*
X146157035Y-98797627D01*
X145177608Y-95707211D02*
X146157035Y-96686638D01*
X142290789Y-95707211D02*
X145177608Y-95707211D01*
X141233000Y-96765000D02*
X142290789Y-95707211D01*
X147701011Y-100341603D02*
X147701011Y-108201011D01*
X147701011Y-108201011D02*
X148720000Y-109220000D01*
X148720000Y-109220000D02*
X149795000Y-109220000D01*
G36*
X142992429Y-96402985D02*
G01*
X142949155Y-96545641D01*
X142934543Y-96693999D01*
X142934543Y-97344001D01*
X142949155Y-97492359D01*
X142992429Y-97635015D01*
X143062703Y-97766488D01*
X143157275Y-97881725D01*
X143272512Y-97976297D01*
X143399175Y-98044000D01*
X143272512Y-98111703D01*
X143157275Y-98206275D01*
X143062703Y-98321512D01*
X142992429Y-98452985D01*
X142949155Y-98595641D01*
X142934543Y-98743999D01*
X142934543Y-99394001D01*
X142949155Y-99542359D01*
X142992429Y-99685015D01*
X142996097Y-99691878D01*
X142448046Y-100239930D01*
X142423816Y-100259815D01*
X142403932Y-100284044D01*
X142344463Y-100356507D01*
X142285498Y-100466821D01*
X142275908Y-100498436D01*
X142249189Y-100586518D01*
X142242398Y-100655469D01*
X142236929Y-100711000D01*
X142240001Y-100742191D01*
X142240001Y-101021148D01*
X142221430Y-100986405D01*
X142157948Y-100909052D01*
X142080595Y-100845570D01*
X141992344Y-100798398D01*
X141896585Y-100769350D01*
X141797000Y-100759542D01*
X141351000Y-100762000D01*
X141224000Y-100889000D01*
X141224000Y-101718000D01*
X141244000Y-101718000D01*
X141244000Y-101972000D01*
X141224000Y-101972000D01*
X141224000Y-101992000D01*
X140970000Y-101992000D01*
X140970000Y-101972000D01*
X140016000Y-101972000D01*
X139889000Y-102099000D01*
X139887932Y-102238435D01*
X139829518Y-102244188D01*
X139709820Y-102280498D01*
X139643319Y-102316044D01*
X139599505Y-102339463D01*
X139572044Y-102362000D01*
X139502815Y-102418815D01*
X139482926Y-102443050D01*
X139319000Y-102606976D01*
X139155074Y-102443050D01*
X139135185Y-102418815D01*
X139132432Y-102416555D01*
X139130000Y-102099000D01*
X139003000Y-101972000D01*
X138049000Y-101972000D01*
X138049000Y-101992000D01*
X137795000Y-101992000D01*
X137795000Y-101972000D01*
X136841000Y-101972000D01*
X136714000Y-102099000D01*
X136712959Y-102235000D01*
X135951055Y-102235000D01*
X135957457Y-102170001D01*
X135957457Y-101519999D01*
X135942845Y-101371641D01*
X135912013Y-101270000D01*
X136711542Y-101270000D01*
X136714000Y-101591000D01*
X136841000Y-101718000D01*
X137795000Y-101718000D01*
X137795000Y-100889000D01*
X138049000Y-100889000D01*
X138049000Y-101718000D01*
X139003000Y-101718000D01*
X139130000Y-101591000D01*
X139132458Y-101270000D01*
X139886542Y-101270000D01*
X139889000Y-101591000D01*
X140016000Y-101718000D01*
X140970000Y-101718000D01*
X140970000Y-100889000D01*
X140843000Y-100762000D01*
X140397000Y-100759542D01*
X140297415Y-100769350D01*
X140201656Y-100798398D01*
X140113405Y-100845570D01*
X140036052Y-100909052D01*
X139972570Y-100986405D01*
X139925398Y-101074656D01*
X139896350Y-101170415D01*
X139886542Y-101270000D01*
X139132458Y-101270000D01*
X139122650Y-101170415D01*
X139093602Y-101074656D01*
X139046430Y-100986405D01*
X138982948Y-100909052D01*
X138905595Y-100845570D01*
X138817344Y-100798398D01*
X138721585Y-100769350D01*
X138622000Y-100759542D01*
X138176000Y-100762000D01*
X138049000Y-100889000D01*
X137795000Y-100889000D01*
X137668000Y-100762000D01*
X137222000Y-100759542D01*
X137122415Y-100769350D01*
X137026656Y-100798398D01*
X136938405Y-100845570D01*
X136861052Y-100909052D01*
X136797570Y-100986405D01*
X136750398Y-101074656D01*
X136721350Y-101170415D01*
X136711542Y-101270000D01*
X135912013Y-101270000D01*
X135899571Y-101228985D01*
X135829297Y-101097512D01*
X135734725Y-100982275D01*
X135619488Y-100887703D01*
X135488015Y-100817429D01*
X135345359Y-100774155D01*
X135197001Y-100759543D01*
X134296999Y-100759543D01*
X134148641Y-100774155D01*
X134005985Y-100817429D01*
X133874512Y-100887703D01*
X133759275Y-100982275D01*
X133664703Y-101097512D01*
X133594429Y-101228985D01*
X133577819Y-101283741D01*
X133503506Y-101323462D01*
X133457791Y-101360980D01*
X133406815Y-101402815D01*
X133386930Y-101427045D01*
X132747488Y-102066488D01*
X132653000Y-101972000D01*
X131699000Y-101972000D01*
X131699000Y-101992000D01*
X131445000Y-101992000D01*
X131445000Y-101972000D01*
X130491000Y-101972000D01*
X130364000Y-102099000D01*
X130361542Y-102420000D01*
X130371350Y-102519585D01*
X130400398Y-102615344D01*
X130447570Y-102703595D01*
X130511052Y-102780948D01*
X130588405Y-102844430D01*
X130676656Y-102891602D01*
X130746259Y-102912716D01*
X130699512Y-102937703D01*
X130584275Y-103032275D01*
X130489703Y-103147512D01*
X130434387Y-103251000D01*
X130079189Y-103251000D01*
X130048000Y-103247928D01*
X130016811Y-103251000D01*
X130016808Y-103251000D01*
X129923518Y-103260188D01*
X129803853Y-103296488D01*
X129803820Y-103296498D01*
X129693506Y-103355462D01*
X129621043Y-103414931D01*
X129621039Y-103414935D01*
X129596815Y-103434815D01*
X129576934Y-103459040D01*
X128677050Y-104358926D01*
X128652815Y-104378815D01*
X128573463Y-104475507D01*
X128514498Y-104585821D01*
X128478188Y-104705519D01*
X128469000Y-104798809D01*
X128469000Y-104798819D01*
X128465929Y-104830000D01*
X128469000Y-104861181D01*
X128469001Y-106089596D01*
X128420405Y-106115571D01*
X128343052Y-106179052D01*
X128279571Y-106256405D01*
X128232399Y-106344657D01*
X128203351Y-106440415D01*
X128193543Y-106540000D01*
X128193543Y-108040000D01*
X128203351Y-108139585D01*
X128232399Y-108235343D01*
X128279571Y-108323595D01*
X128343052Y-108400948D01*
X128420405Y-108464429D01*
X128508657Y-108511601D01*
X128604415Y-108540649D01*
X128704000Y-108550457D01*
X129504000Y-108550457D01*
X129603585Y-108540649D01*
X129699343Y-108511601D01*
X129787595Y-108464429D01*
X129864948Y-108400948D01*
X129928429Y-108323595D01*
X129975601Y-108235343D01*
X130004649Y-108139585D01*
X130014457Y-108040000D01*
X130014457Y-106540000D01*
X130004649Y-106440415D01*
X129975601Y-106344657D01*
X129928429Y-106256405D01*
X129864948Y-106179052D01*
X129787595Y-106115571D01*
X129739000Y-106089596D01*
X129739000Y-105093024D01*
X130311026Y-104521000D01*
X130424766Y-104521000D01*
X130489703Y-104642488D01*
X130584275Y-104757725D01*
X130699512Y-104852297D01*
X130830985Y-104922571D01*
X130973641Y-104965845D01*
X131121999Y-104980457D01*
X132022001Y-104980457D01*
X132170359Y-104965845D01*
X132313015Y-104922571D01*
X132330991Y-104912963D01*
X132330929Y-104913593D01*
X132343189Y-105038074D01*
X132379498Y-105157772D01*
X132438463Y-105268086D01*
X132497932Y-105340549D01*
X133003339Y-105845958D01*
X132660000Y-105844542D01*
X132560415Y-105854350D01*
X132464656Y-105883398D01*
X132376405Y-105930570D01*
X132299052Y-105994052D01*
X132235570Y-106071405D01*
X132188398Y-106159656D01*
X132159350Y-106255415D01*
X132149542Y-106355000D01*
X132152000Y-106426000D01*
X132279000Y-106553000D01*
X133383000Y-106553000D01*
X133383000Y-106533000D01*
X133637000Y-106533000D01*
X133637000Y-106553000D01*
X133657000Y-106553000D01*
X133657000Y-106807000D01*
X133637000Y-106807000D01*
X133637000Y-106827000D01*
X133383000Y-106827000D01*
X133383000Y-106807000D01*
X132279000Y-106807000D01*
X132152000Y-106934000D01*
X132149542Y-107005000D01*
X132159350Y-107104585D01*
X132188398Y-107200344D01*
X132235570Y-107288595D01*
X132257240Y-107315000D01*
X132235571Y-107341405D01*
X132188399Y-107429657D01*
X132159351Y-107525415D01*
X132149543Y-107625000D01*
X132149543Y-108275000D01*
X132159351Y-108374585D01*
X132188399Y-108470343D01*
X132235571Y-108558595D01*
X132257241Y-108585000D01*
X132235571Y-108611405D01*
X132188399Y-108699657D01*
X132159351Y-108795415D01*
X132149543Y-108895000D01*
X132149543Y-109545000D01*
X132159351Y-109644585D01*
X132188399Y-109740343D01*
X132235571Y-109828595D01*
X132257241Y-109855000D01*
X132235571Y-109881405D01*
X132188399Y-109969657D01*
X132159351Y-110065415D01*
X132149543Y-110165000D01*
X132149543Y-110815000D01*
X132159351Y-110914585D01*
X132188399Y-111010343D01*
X132235571Y-111098595D01*
X132299052Y-111175948D01*
X132376405Y-111239429D01*
X132464657Y-111286601D01*
X132525820Y-111305155D01*
X131526050Y-112304926D01*
X131501815Y-112324815D01*
X131422463Y-112421507D01*
X131384484Y-112492560D01*
X131318985Y-112512429D01*
X131187512Y-112582703D01*
X131072275Y-112677275D01*
X130977703Y-112792512D01*
X130907429Y-112923985D01*
X130864155Y-113066641D01*
X130849543Y-113214999D01*
X130849543Y-114115001D01*
X130864155Y-114263359D01*
X130907429Y-114406015D01*
X130952587Y-114490500D01*
X130009483Y-114490500D01*
X130014457Y-114440000D01*
X130014457Y-112940000D01*
X130004649Y-112840415D01*
X129975601Y-112744657D01*
X129928429Y-112656405D01*
X129864948Y-112579052D01*
X129787595Y-112515571D01*
X129699343Y-112468399D01*
X129603585Y-112439351D01*
X129504000Y-112429543D01*
X128704000Y-112429543D01*
X128604415Y-112439351D01*
X128508657Y-112468399D01*
X128420405Y-112515571D01*
X128343052Y-112579052D01*
X128279571Y-112656405D01*
X128232399Y-112744657D01*
X128203351Y-112840415D01*
X128193543Y-112940000D01*
X128193543Y-114440000D01*
X128203351Y-114539585D01*
X128210865Y-114564354D01*
X128198917Y-114570740D01*
X128134056Y-114605409D01*
X128054346Y-114670826D01*
X128054343Y-114670829D01*
X128027697Y-114692697D01*
X128005829Y-114719343D01*
X127292344Y-115432829D01*
X127265697Y-115454698D01*
X127243829Y-115481344D01*
X127243826Y-115481347D01*
X127178409Y-115561057D01*
X127118414Y-115673300D01*
X127113548Y-115682404D01*
X127073607Y-115814071D01*
X127068192Y-115869050D01*
X126516000Y-115871000D01*
X126389000Y-115998000D01*
X126389000Y-116652000D01*
X126409000Y-116652000D01*
X126409000Y-116906000D01*
X126389000Y-116906000D01*
X126389000Y-117560000D01*
X126516000Y-117687000D01*
X127063501Y-117688934D01*
X127063501Y-117768543D01*
X125312000Y-117768543D01*
X125212415Y-117778351D01*
X125116657Y-117807399D01*
X125028405Y-117854571D01*
X124951052Y-117918052D01*
X124887571Y-117995405D01*
X124840399Y-118083657D01*
X124811351Y-118179415D01*
X124801543Y-118279000D01*
X124801543Y-119079000D01*
X124811351Y-119178585D01*
X124840399Y-119274343D01*
X124887571Y-119362595D01*
X124951052Y-119439948D01*
X125028405Y-119503429D01*
X125116657Y-119550601D01*
X125212415Y-119579649D01*
X125312000Y-119589457D01*
X127212000Y-119589457D01*
X127311585Y-119579649D01*
X127407343Y-119550601D01*
X127495595Y-119503429D01*
X127572948Y-119439948D01*
X127636429Y-119362595D01*
X127681859Y-119277602D01*
X127709943Y-119262591D01*
X127816303Y-119175303D01*
X127838175Y-119148652D01*
X128231652Y-118755175D01*
X128258303Y-118733303D01*
X128315928Y-118663087D01*
X128335322Y-118639457D01*
X128569674Y-118639457D01*
X128623911Y-118683968D01*
X128822477Y-118790103D01*
X129037933Y-118855461D01*
X129205854Y-118872000D01*
X133053010Y-118872000D01*
X132969582Y-118996859D01*
X132181011Y-120900639D01*
X132165841Y-120976905D01*
X132097543Y-120940399D01*
X132001785Y-120911351D01*
X131902200Y-120901543D01*
X128092200Y-120901543D01*
X127992615Y-120911351D01*
X127896857Y-120940399D01*
X127808605Y-120987571D01*
X127731252Y-121051052D01*
X127667771Y-121128405D01*
X127620599Y-121216657D01*
X127591551Y-121312415D01*
X127581743Y-121412000D01*
X127581743Y-126492000D01*
X127591551Y-126591585D01*
X127620599Y-126687343D01*
X127667771Y-126775595D01*
X127731252Y-126852948D01*
X127808605Y-126916429D01*
X127896857Y-126963601D01*
X127992615Y-126992649D01*
X128092200Y-127002457D01*
X131902200Y-127002457D01*
X132001785Y-126992649D01*
X132097543Y-126963601D01*
X132165841Y-126927095D01*
X132181011Y-127003361D01*
X132969582Y-128907141D01*
X134114411Y-130620499D01*
X135571501Y-132077589D01*
X137268586Y-133211545D01*
X137036844Y-133153151D01*
X136196263Y-132900736D01*
X135367828Y-132610853D01*
X134553231Y-132284095D01*
X133754114Y-131921119D01*
X132972089Y-131522658D01*
X132208730Y-131089513D01*
X131465565Y-130622551D01*
X130744115Y-130122730D01*
X130045813Y-129591041D01*
X129372053Y-129028546D01*
X128724232Y-128436411D01*
X128103589Y-127815768D01*
X127511454Y-127167947D01*
X126948959Y-126494187D01*
X126417270Y-125795885D01*
X125917449Y-125074435D01*
X125450487Y-124331270D01*
X125017342Y-123567911D01*
X124618881Y-122785886D01*
X124255905Y-121986769D01*
X123929147Y-121172172D01*
X123639264Y-120343737D01*
X123386849Y-119503156D01*
X123172391Y-118652055D01*
X122996334Y-117792194D01*
X122899214Y-117179000D01*
X124801542Y-117179000D01*
X124811350Y-117278585D01*
X124840398Y-117374344D01*
X124887570Y-117462595D01*
X124951052Y-117539948D01*
X125028405Y-117603430D01*
X125116656Y-117650602D01*
X125212415Y-117679650D01*
X125312000Y-117689458D01*
X126008000Y-117687000D01*
X126135000Y-117560000D01*
X126135000Y-116906000D01*
X124931000Y-116906000D01*
X124804000Y-117033000D01*
X124801542Y-117179000D01*
X122899214Y-117179000D01*
X122859036Y-116925331D01*
X122797480Y-116379000D01*
X124801542Y-116379000D01*
X124804000Y-116525000D01*
X124931000Y-116652000D01*
X126135000Y-116652000D01*
X126135000Y-115998000D01*
X126008000Y-115871000D01*
X125312000Y-115868542D01*
X125212415Y-115878350D01*
X125116656Y-115907398D01*
X125028405Y-115954570D01*
X124951052Y-116018052D01*
X124887570Y-116095405D01*
X124840398Y-116183656D01*
X124811350Y-116279415D01*
X124801542Y-116379000D01*
X122797480Y-116379000D01*
X122760766Y-116053164D01*
X122701725Y-115177472D01*
X122685175Y-114440000D01*
X124493542Y-114440000D01*
X124503350Y-114539585D01*
X124532398Y-114635344D01*
X124579570Y-114723595D01*
X124643052Y-114800948D01*
X124720405Y-114864430D01*
X124808656Y-114911602D01*
X124904415Y-114940650D01*
X125004000Y-114950458D01*
X125150000Y-114948000D01*
X125277000Y-114821000D01*
X125277000Y-113817000D01*
X125531000Y-113817000D01*
X125531000Y-114821000D01*
X125658000Y-114948000D01*
X125804000Y-114950458D01*
X125903585Y-114940650D01*
X125999344Y-114911602D01*
X126087595Y-114864430D01*
X126164948Y-114800948D01*
X126228430Y-114723595D01*
X126275602Y-114635344D01*
X126304650Y-114539585D01*
X126314458Y-114440000D01*
X126312000Y-113944000D01*
X126185000Y-113817000D01*
X125531000Y-113817000D01*
X125277000Y-113817000D01*
X124623000Y-113817000D01*
X124496000Y-113944000D01*
X124493542Y-114440000D01*
X122685175Y-114440000D01*
X122682032Y-114300000D01*
X122701725Y-113422528D01*
X122734258Y-112940000D01*
X124493542Y-112940000D01*
X124496000Y-113436000D01*
X124623000Y-113563000D01*
X125277000Y-113563000D01*
X125277000Y-112559000D01*
X125531000Y-112559000D01*
X125531000Y-113563000D01*
X126185000Y-113563000D01*
X126312000Y-113436000D01*
X126314458Y-112940000D01*
X126304650Y-112840415D01*
X126275602Y-112744656D01*
X126228430Y-112656405D01*
X126164948Y-112579052D01*
X126087595Y-112515570D01*
X125999344Y-112468398D01*
X125903585Y-112439350D01*
X125804000Y-112429542D01*
X125658000Y-112432000D01*
X125531000Y-112559000D01*
X125277000Y-112559000D01*
X125150000Y-112432000D01*
X125004000Y-112429542D01*
X124904415Y-112439350D01*
X124808656Y-112468398D01*
X124720405Y-112515570D01*
X124643052Y-112579052D01*
X124579570Y-112656405D01*
X124532398Y-112744656D01*
X124503350Y-112840415D01*
X124493542Y-112940000D01*
X122734258Y-112940000D01*
X122760766Y-112546836D01*
X122859036Y-111674669D01*
X122996334Y-110807806D01*
X123172391Y-109947945D01*
X123386849Y-109096844D01*
X123639264Y-108256263D01*
X123714937Y-108040000D01*
X124493542Y-108040000D01*
X124503350Y-108139585D01*
X124532398Y-108235344D01*
X124579570Y-108323595D01*
X124643052Y-108400948D01*
X124720405Y-108464430D01*
X124808656Y-108511602D01*
X124904415Y-108540650D01*
X125004000Y-108550458D01*
X125150000Y-108548000D01*
X125277000Y-108421000D01*
X125277000Y-107417000D01*
X124623000Y-107417000D01*
X124496000Y-107544000D01*
X124493542Y-108040000D01*
X123714937Y-108040000D01*
X123929147Y-107427828D01*
X124255905Y-106613231D01*
X124289168Y-106540000D01*
X124493542Y-106540000D01*
X124496000Y-107036000D01*
X124623000Y-107163000D01*
X125277000Y-107163000D01*
X125277000Y-106159000D01*
X125150000Y-106032000D01*
X125004000Y-106029542D01*
X124904415Y-106039350D01*
X124808656Y-106068398D01*
X124720405Y-106115570D01*
X124643052Y-106179052D01*
X124579570Y-106256405D01*
X124532398Y-106344656D01*
X124503350Y-106440415D01*
X124493542Y-106540000D01*
X124289168Y-106540000D01*
X124618881Y-105814114D01*
X125017342Y-105032089D01*
X125450487Y-104268730D01*
X125857000Y-103621769D01*
X125857000Y-106034762D01*
X125804000Y-106029542D01*
X125658000Y-106032000D01*
X125531000Y-106159000D01*
X125531000Y-107163000D01*
X125551000Y-107163000D01*
X125551000Y-107417000D01*
X125531000Y-107417000D01*
X125531000Y-108421000D01*
X125658000Y-108548000D01*
X125804000Y-108550458D01*
X125857001Y-108545238D01*
X125857001Y-109464974D01*
X125466976Y-109855000D01*
X125388441Y-109855000D01*
X125216688Y-109889164D01*
X125054901Y-109956179D01*
X124909296Y-110053469D01*
X124785469Y-110177296D01*
X124688179Y-110322901D01*
X124621164Y-110484688D01*
X124587000Y-110656441D01*
X124587000Y-110831559D01*
X124621164Y-111003312D01*
X124688179Y-111165099D01*
X124785469Y-111310704D01*
X124909296Y-111434531D01*
X125054901Y-111531821D01*
X125216688Y-111598836D01*
X125388441Y-111633000D01*
X125563559Y-111633000D01*
X125735312Y-111598836D01*
X125897099Y-111531821D01*
X126042704Y-111434531D01*
X126166531Y-111310704D01*
X126263821Y-111165099D01*
X126330836Y-111003312D01*
X126365000Y-110831559D01*
X126365000Y-110753024D01*
X126918955Y-110199070D01*
X126943185Y-110179185D01*
X127022537Y-110082494D01*
X127081502Y-109972180D01*
X127117812Y-109852482D01*
X127127000Y-109759192D01*
X127127000Y-109759182D01*
X127130071Y-109728001D01*
X127127000Y-109696820D01*
X127127000Y-103196524D01*
X129053524Y-101270000D01*
X130361542Y-101270000D01*
X130364000Y-101591000D01*
X130491000Y-101718000D01*
X131445000Y-101718000D01*
X131445000Y-100889000D01*
X131699000Y-100889000D01*
X131699000Y-101718000D01*
X132653000Y-101718000D01*
X132780000Y-101591000D01*
X132782458Y-101270000D01*
X132772650Y-101170415D01*
X132743602Y-101074656D01*
X132696430Y-100986405D01*
X132632948Y-100909052D01*
X132555595Y-100845570D01*
X132467344Y-100798398D01*
X132371585Y-100769350D01*
X132272000Y-100759542D01*
X131826000Y-100762000D01*
X131699000Y-100889000D01*
X131445000Y-100889000D01*
X131318000Y-100762000D01*
X130872000Y-100759542D01*
X130772415Y-100769350D01*
X130676656Y-100798398D01*
X130588405Y-100845570D01*
X130511052Y-100909052D01*
X130447570Y-100986405D01*
X130400398Y-101074656D01*
X130371350Y-101170415D01*
X130361542Y-101270000D01*
X129053524Y-101270000D01*
X131136526Y-99187000D01*
X132037569Y-99187000D01*
X131987164Y-99308688D01*
X131953000Y-99480441D01*
X131953000Y-99655559D01*
X131987164Y-99827312D01*
X132054179Y-99989099D01*
X132151469Y-100134704D01*
X132275296Y-100258531D01*
X132420901Y-100355821D01*
X132582688Y-100422836D01*
X132754441Y-100457000D01*
X132929559Y-100457000D01*
X132974515Y-100448058D01*
X133064753Y-100456945D01*
X133064763Y-100456945D01*
X133095944Y-100460016D01*
X133127125Y-100456945D01*
X137763874Y-100456945D01*
X137795055Y-100460016D01*
X137826236Y-100456945D01*
X137826247Y-100456945D01*
X137919537Y-100447757D01*
X138039235Y-100411447D01*
X138149549Y-100352482D01*
X138246240Y-100273130D01*
X138266129Y-100248895D01*
X138762021Y-99753004D01*
X138857999Y-99762457D01*
X139508001Y-99762457D01*
X139656359Y-99747845D01*
X139799015Y-99704571D01*
X139930488Y-99634297D01*
X140045725Y-99539725D01*
X140140297Y-99424488D01*
X140208000Y-99297825D01*
X140275703Y-99424488D01*
X140370275Y-99539725D01*
X140485512Y-99634297D01*
X140616985Y-99704571D01*
X140759641Y-99747845D01*
X140907999Y-99762457D01*
X141558001Y-99762457D01*
X141706359Y-99747845D01*
X141849015Y-99704571D01*
X141980488Y-99634297D01*
X142095725Y-99539725D01*
X142190297Y-99424488D01*
X142260571Y-99293015D01*
X142303845Y-99150359D01*
X142318457Y-99002001D01*
X142318457Y-98101999D01*
X142303845Y-97953641D01*
X142260571Y-97810985D01*
X142190297Y-97679512D01*
X142095725Y-97564275D01*
X141980488Y-97469703D01*
X141868000Y-97409577D01*
X141868000Y-97028024D01*
X142553815Y-96342211D01*
X143024913Y-96342211D01*
X142992429Y-96402985D01*
G37*
X142992429Y-96402985D02*
X142949155Y-96545641D01*
X142934543Y-96693999D01*
X142934543Y-97344001D01*
X142949155Y-97492359D01*
X142992429Y-97635015D01*
X143062703Y-97766488D01*
X143157275Y-97881725D01*
X143272512Y-97976297D01*
X143399175Y-98044000D01*
X143272512Y-98111703D01*
X143157275Y-98206275D01*
X143062703Y-98321512D01*
X142992429Y-98452985D01*
X142949155Y-98595641D01*
X142934543Y-98743999D01*
X142934543Y-99394001D01*
X142949155Y-99542359D01*
X142992429Y-99685015D01*
X142996097Y-99691878D01*
X142448046Y-100239930D01*
X142423816Y-100259815D01*
X142403932Y-100284044D01*
X142344463Y-100356507D01*
X142285498Y-100466821D01*
X142275908Y-100498436D01*
X142249189Y-100586518D01*
X142242398Y-100655469D01*
X142236929Y-100711000D01*
X142240001Y-100742191D01*
X142240001Y-101021148D01*
X142221430Y-100986405D01*
X142157948Y-100909052D01*
X142080595Y-100845570D01*
X141992344Y-100798398D01*
X141896585Y-100769350D01*
X141797000Y-100759542D01*
X141351000Y-100762000D01*
X141224000Y-100889000D01*
X141224000Y-101718000D01*
X141244000Y-101718000D01*
X141244000Y-101972000D01*
X141224000Y-101972000D01*
X141224000Y-101992000D01*
X140970000Y-101992000D01*
X140970000Y-101972000D01*
X140016000Y-101972000D01*
X139889000Y-102099000D01*
X139887932Y-102238435D01*
X139829518Y-102244188D01*
X139709820Y-102280498D01*
X139643319Y-102316044D01*
X139599505Y-102339463D01*
X139572044Y-102362000D01*
X139502815Y-102418815D01*
X139482926Y-102443050D01*
X139319000Y-102606976D01*
X139155074Y-102443050D01*
X139135185Y-102418815D01*
X139132432Y-102416555D01*
X139130000Y-102099000D01*
X139003000Y-101972000D01*
X138049000Y-101972000D01*
X138049000Y-101992000D01*
X137795000Y-101992000D01*
X137795000Y-101972000D01*
X136841000Y-101972000D01*
X136714000Y-102099000D01*
X136712959Y-102235000D01*
X135951055Y-102235000D01*
X135957457Y-102170001D01*
X135957457Y-101519999D01*
X135942845Y-101371641D01*
X135912013Y-101270000D01*
X136711542Y-101270000D01*
X136714000Y-101591000D01*
X136841000Y-101718000D01*
X137795000Y-101718000D01*
X137795000Y-100889000D01*
X138049000Y-100889000D01*
X138049000Y-101718000D01*
X139003000Y-101718000D01*
X139130000Y-101591000D01*
X139132458Y-101270000D01*
X139886542Y-101270000D01*
X139889000Y-101591000D01*
X140016000Y-101718000D01*
X140970000Y-101718000D01*
X140970000Y-100889000D01*
X140843000Y-100762000D01*
X140397000Y-100759542D01*
X140297415Y-100769350D01*
X140201656Y-100798398D01*
X140113405Y-100845570D01*
X140036052Y-100909052D01*
X139972570Y-100986405D01*
X139925398Y-101074656D01*
X139896350Y-101170415D01*
X139886542Y-101270000D01*
X139132458Y-101270000D01*
X139122650Y-101170415D01*
X139093602Y-101074656D01*
X139046430Y-100986405D01*
X138982948Y-100909052D01*
X138905595Y-100845570D01*
X138817344Y-100798398D01*
X138721585Y-100769350D01*
X138622000Y-100759542D01*
X138176000Y-100762000D01*
X138049000Y-100889000D01*
X137795000Y-100889000D01*
X137668000Y-100762000D01*
X137222000Y-100759542D01*
X137122415Y-100769350D01*
X137026656Y-100798398D01*
X136938405Y-100845570D01*
X136861052Y-100909052D01*
X136797570Y-100986405D01*
X136750398Y-101074656D01*
X136721350Y-101170415D01*
X136711542Y-101270000D01*
X135912013Y-101270000D01*
X135899571Y-101228985D01*
X135829297Y-101097512D01*
X135734725Y-100982275D01*
X135619488Y-100887703D01*
X135488015Y-100817429D01*
X135345359Y-100774155D01*
X135197001Y-100759543D01*
X134296999Y-100759543D01*
X134148641Y-100774155D01*
X134005985Y-100817429D01*
X133874512Y-100887703D01*
X133759275Y-100982275D01*
X133664703Y-101097512D01*
X133594429Y-101228985D01*
X133577819Y-101283741D01*
X133503506Y-101323462D01*
X133457791Y-101360980D01*
X133406815Y-101402815D01*
X133386930Y-101427045D01*
X132747488Y-102066488D01*
X132653000Y-101972000D01*
X131699000Y-101972000D01*
X131699000Y-101992000D01*
X131445000Y-101992000D01*
X131445000Y-101972000D01*
X130491000Y-101972000D01*
X130364000Y-102099000D01*
X130361542Y-102420000D01*
X130371350Y-102519585D01*
X130400398Y-102615344D01*
X130447570Y-102703595D01*
X130511052Y-102780948D01*
X130588405Y-102844430D01*
X130676656Y-102891602D01*
X130746259Y-102912716D01*
X130699512Y-102937703D01*
X130584275Y-103032275D01*
X130489703Y-103147512D01*
X130434387Y-103251000D01*
X130079189Y-103251000D01*
X130048000Y-103247928D01*
X130016811Y-103251000D01*
X130016808Y-103251000D01*
X129923518Y-103260188D01*
X129803853Y-103296488D01*
X129803820Y-103296498D01*
X129693506Y-103355462D01*
X129621043Y-103414931D01*
X129621039Y-103414935D01*
X129596815Y-103434815D01*
X129576934Y-103459040D01*
X128677050Y-104358926D01*
X128652815Y-104378815D01*
X128573463Y-104475507D01*
X128514498Y-104585821D01*
X128478188Y-104705519D01*
X128469000Y-104798809D01*
X128469000Y-104798819D01*
X128465929Y-104830000D01*
X128469000Y-104861181D01*
X128469001Y-106089596D01*
X128420405Y-106115571D01*
X128343052Y-106179052D01*
X128279571Y-106256405D01*
X128232399Y-106344657D01*
X128203351Y-106440415D01*
X128193543Y-106540000D01*
X128193543Y-108040000D01*
X128203351Y-108139585D01*
X128232399Y-108235343D01*
X128279571Y-108323595D01*
X128343052Y-108400948D01*
X128420405Y-108464429D01*
X128508657Y-108511601D01*
X128604415Y-108540649D01*
X128704000Y-108550457D01*
X129504000Y-108550457D01*
X129603585Y-108540649D01*
X129699343Y-108511601D01*
X129787595Y-108464429D01*
X129864948Y-108400948D01*
X129928429Y-108323595D01*
X129975601Y-108235343D01*
X130004649Y-108139585D01*
X130014457Y-108040000D01*
X130014457Y-106540000D01*
X130004649Y-106440415D01*
X129975601Y-106344657D01*
X129928429Y-106256405D01*
X129864948Y-106179052D01*
X129787595Y-106115571D01*
X129739000Y-106089596D01*
X129739000Y-105093024D01*
X130311026Y-104521000D01*
X130424766Y-104521000D01*
X130489703Y-104642488D01*
X130584275Y-104757725D01*
X130699512Y-104852297D01*
X130830985Y-104922571D01*
X130973641Y-104965845D01*
X131121999Y-104980457D01*
X132022001Y-104980457D01*
X132170359Y-104965845D01*
X132313015Y-104922571D01*
X132330991Y-104912963D01*
X132330929Y-104913593D01*
X132343189Y-105038074D01*
X132379498Y-105157772D01*
X132438463Y-105268086D01*
X132497932Y-105340549D01*
X133003339Y-105845958D01*
X132660000Y-105844542D01*
X132560415Y-105854350D01*
X132464656Y-105883398D01*
X132376405Y-105930570D01*
X132299052Y-105994052D01*
X132235570Y-106071405D01*
X132188398Y-106159656D01*
X132159350Y-106255415D01*
X132149542Y-106355000D01*
X132152000Y-106426000D01*
X132279000Y-106553000D01*
X133383000Y-106553000D01*
X133383000Y-106533000D01*
X133637000Y-106533000D01*
X133637000Y-106553000D01*
X133657000Y-106553000D01*
X133657000Y-106807000D01*
X133637000Y-106807000D01*
X133637000Y-106827000D01*
X133383000Y-106827000D01*
X133383000Y-106807000D01*
X132279000Y-106807000D01*
X132152000Y-106934000D01*
X132149542Y-107005000D01*
X132159350Y-107104585D01*
X132188398Y-107200344D01*
X132235570Y-107288595D01*
X132257240Y-107315000D01*
X132235571Y-107341405D01*
X132188399Y-107429657D01*
X132159351Y-107525415D01*
X132149543Y-107625000D01*
X132149543Y-108275000D01*
X132159351Y-108374585D01*
X132188399Y-108470343D01*
X132235571Y-108558595D01*
X132257241Y-108585000D01*
X132235571Y-108611405D01*
X132188399Y-108699657D01*
X132159351Y-108795415D01*
X132149543Y-108895000D01*
X132149543Y-109545000D01*
X132159351Y-109644585D01*
X132188399Y-109740343D01*
X132235571Y-109828595D01*
X132257241Y-109855000D01*
X132235571Y-109881405D01*
X132188399Y-109969657D01*
X132159351Y-110065415D01*
X132149543Y-110165000D01*
X132149543Y-110815000D01*
X132159351Y-110914585D01*
X132188399Y-111010343D01*
X132235571Y-111098595D01*
X132299052Y-111175948D01*
X132376405Y-111239429D01*
X132464657Y-111286601D01*
X132525820Y-111305155D01*
X131526050Y-112304926D01*
X131501815Y-112324815D01*
X131422463Y-112421507D01*
X131384484Y-112492560D01*
X131318985Y-112512429D01*
X131187512Y-112582703D01*
X131072275Y-112677275D01*
X130977703Y-112792512D01*
X130907429Y-112923985D01*
X130864155Y-113066641D01*
X130849543Y-113214999D01*
X130849543Y-114115001D01*
X130864155Y-114263359D01*
X130907429Y-114406015D01*
X130952587Y-114490500D01*
X130009483Y-114490500D01*
X130014457Y-114440000D01*
X130014457Y-112940000D01*
X130004649Y-112840415D01*
X129975601Y-112744657D01*
X129928429Y-112656405D01*
X129864948Y-112579052D01*
X129787595Y-112515571D01*
X129699343Y-112468399D01*
X129603585Y-112439351D01*
X129504000Y-112429543D01*
X128704000Y-112429543D01*
X128604415Y-112439351D01*
X128508657Y-112468399D01*
X128420405Y-112515571D01*
X128343052Y-112579052D01*
X128279571Y-112656405D01*
X128232399Y-112744657D01*
X128203351Y-112840415D01*
X128193543Y-112940000D01*
X128193543Y-114440000D01*
X128203351Y-114539585D01*
X128210865Y-114564354D01*
X128198917Y-114570740D01*
X128134056Y-114605409D01*
X128054346Y-114670826D01*
X128054343Y-114670829D01*
X128027697Y-114692697D01*
X128005829Y-114719343D01*
X127292344Y-115432829D01*
X127265697Y-115454698D01*
X127243829Y-115481344D01*
X127243826Y-115481347D01*
X127178409Y-115561057D01*
X127118414Y-115673300D01*
X127113548Y-115682404D01*
X127073607Y-115814071D01*
X127068192Y-115869050D01*
X126516000Y-115871000D01*
X126389000Y-115998000D01*
X126389000Y-116652000D01*
X126409000Y-116652000D01*
X126409000Y-116906000D01*
X126389000Y-116906000D01*
X126389000Y-117560000D01*
X126516000Y-117687000D01*
X127063501Y-117688934D01*
X127063501Y-117768543D01*
X125312000Y-117768543D01*
X125212415Y-117778351D01*
X125116657Y-117807399D01*
X125028405Y-117854571D01*
X124951052Y-117918052D01*
X124887571Y-117995405D01*
X124840399Y-118083657D01*
X124811351Y-118179415D01*
X124801543Y-118279000D01*
X124801543Y-119079000D01*
X124811351Y-119178585D01*
X124840399Y-119274343D01*
X124887571Y-119362595D01*
X124951052Y-119439948D01*
X125028405Y-119503429D01*
X125116657Y-119550601D01*
X125212415Y-119579649D01*
X125312000Y-119589457D01*
X127212000Y-119589457D01*
X127311585Y-119579649D01*
X127407343Y-119550601D01*
X127495595Y-119503429D01*
X127572948Y-119439948D01*
X127636429Y-119362595D01*
X127681859Y-119277602D01*
X127709943Y-119262591D01*
X127816303Y-119175303D01*
X127838175Y-119148652D01*
X128231652Y-118755175D01*
X128258303Y-118733303D01*
X128315928Y-118663087D01*
X128335322Y-118639457D01*
X128569674Y-118639457D01*
X128623911Y-118683968D01*
X128822477Y-118790103D01*
X129037933Y-118855461D01*
X129205854Y-118872000D01*
X133053010Y-118872000D01*
X132969582Y-118996859D01*
X132181011Y-120900639D01*
X132165841Y-120976905D01*
X132097543Y-120940399D01*
X132001785Y-120911351D01*
X131902200Y-120901543D01*
X128092200Y-120901543D01*
X127992615Y-120911351D01*
X127896857Y-120940399D01*
X127808605Y-120987571D01*
X127731252Y-121051052D01*
X127667771Y-121128405D01*
X127620599Y-121216657D01*
X127591551Y-121312415D01*
X127581743Y-121412000D01*
X127581743Y-126492000D01*
X127591551Y-126591585D01*
X127620599Y-126687343D01*
X127667771Y-126775595D01*
X127731252Y-126852948D01*
X127808605Y-126916429D01*
X127896857Y-126963601D01*
X127992615Y-126992649D01*
X128092200Y-127002457D01*
X131902200Y-127002457D01*
X132001785Y-126992649D01*
X132097543Y-126963601D01*
X132165841Y-126927095D01*
X132181011Y-127003361D01*
X132969582Y-128907141D01*
X134114411Y-130620499D01*
X135571501Y-132077589D01*
X137268586Y-133211545D01*
X137036844Y-133153151D01*
X136196263Y-132900736D01*
X135367828Y-132610853D01*
X134553231Y-132284095D01*
X133754114Y-131921119D01*
X132972089Y-131522658D01*
X132208730Y-131089513D01*
X131465565Y-130622551D01*
X130744115Y-130122730D01*
X130045813Y-129591041D01*
X129372053Y-129028546D01*
X128724232Y-128436411D01*
X128103589Y-127815768D01*
X127511454Y-127167947D01*
X126948959Y-126494187D01*
X126417270Y-125795885D01*
X125917449Y-125074435D01*
X125450487Y-124331270D01*
X125017342Y-123567911D01*
X124618881Y-122785886D01*
X124255905Y-121986769D01*
X123929147Y-121172172D01*
X123639264Y-120343737D01*
X123386849Y-119503156D01*
X123172391Y-118652055D01*
X122996334Y-117792194D01*
X122899214Y-117179000D01*
X124801542Y-117179000D01*
X124811350Y-117278585D01*
X124840398Y-117374344D01*
X124887570Y-117462595D01*
X124951052Y-117539948D01*
X125028405Y-117603430D01*
X125116656Y-117650602D01*
X125212415Y-117679650D01*
X125312000Y-117689458D01*
X126008000Y-117687000D01*
X126135000Y-117560000D01*
X126135000Y-116906000D01*
X124931000Y-116906000D01*
X124804000Y-117033000D01*
X124801542Y-117179000D01*
X122899214Y-117179000D01*
X122859036Y-116925331D01*
X122797480Y-116379000D01*
X124801542Y-116379000D01*
X124804000Y-116525000D01*
X124931000Y-116652000D01*
X126135000Y-116652000D01*
X126135000Y-115998000D01*
X126008000Y-115871000D01*
X125312000Y-115868542D01*
X125212415Y-115878350D01*
X125116656Y-115907398D01*
X125028405Y-115954570D01*
X124951052Y-116018052D01*
X124887570Y-116095405D01*
X124840398Y-116183656D01*
X124811350Y-116279415D01*
X124801542Y-116379000D01*
X122797480Y-116379000D01*
X122760766Y-116053164D01*
X122701725Y-115177472D01*
X122685175Y-114440000D01*
X124493542Y-114440000D01*
X124503350Y-114539585D01*
X124532398Y-114635344D01*
X124579570Y-114723595D01*
X124643052Y-114800948D01*
X124720405Y-114864430D01*
X124808656Y-114911602D01*
X124904415Y-114940650D01*
X125004000Y-114950458D01*
X125150000Y-114948000D01*
X125277000Y-114821000D01*
X125277000Y-113817000D01*
X125531000Y-113817000D01*
X125531000Y-114821000D01*
X125658000Y-114948000D01*
X125804000Y-114950458D01*
X125903585Y-114940650D01*
X125999344Y-114911602D01*
X126087595Y-114864430D01*
X126164948Y-114800948D01*
X126228430Y-114723595D01*
X126275602Y-114635344D01*
X126304650Y-114539585D01*
X126314458Y-114440000D01*
X126312000Y-113944000D01*
X126185000Y-113817000D01*
X125531000Y-113817000D01*
X125277000Y-113817000D01*
X124623000Y-113817000D01*
X124496000Y-113944000D01*
X124493542Y-114440000D01*
X122685175Y-114440000D01*
X122682032Y-114300000D01*
X122701725Y-113422528D01*
X122734258Y-112940000D01*
X124493542Y-112940000D01*
X124496000Y-113436000D01*
X124623000Y-113563000D01*
X125277000Y-113563000D01*
X125277000Y-112559000D01*
X125531000Y-112559000D01*
X125531000Y-113563000D01*
X126185000Y-113563000D01*
X126312000Y-113436000D01*
X126314458Y-112940000D01*
X126304650Y-112840415D01*
X126275602Y-112744656D01*
X126228430Y-112656405D01*
X126164948Y-112579052D01*
X126087595Y-112515570D01*
X125999344Y-112468398D01*
X125903585Y-112439350D01*
X125804000Y-112429542D01*
X125658000Y-112432000D01*
X125531000Y-112559000D01*
X125277000Y-112559000D01*
X125150000Y-112432000D01*
X125004000Y-112429542D01*
X124904415Y-112439350D01*
X124808656Y-112468398D01*
X124720405Y-112515570D01*
X124643052Y-112579052D01*
X124579570Y-112656405D01*
X124532398Y-112744656D01*
X124503350Y-112840415D01*
X124493542Y-112940000D01*
X122734258Y-112940000D01*
X122760766Y-112546836D01*
X122859036Y-111674669D01*
X122996334Y-110807806D01*
X123172391Y-109947945D01*
X123386849Y-109096844D01*
X123639264Y-108256263D01*
X123714937Y-108040000D01*
X124493542Y-108040000D01*
X124503350Y-108139585D01*
X124532398Y-108235344D01*
X124579570Y-108323595D01*
X124643052Y-108400948D01*
X124720405Y-108464430D01*
X124808656Y-108511602D01*
X124904415Y-108540650D01*
X125004000Y-108550458D01*
X125150000Y-108548000D01*
X125277000Y-108421000D01*
X125277000Y-107417000D01*
X124623000Y-107417000D01*
X124496000Y-107544000D01*
X124493542Y-108040000D01*
X123714937Y-108040000D01*
X123929147Y-107427828D01*
X124255905Y-106613231D01*
X124289168Y-106540000D01*
X124493542Y-106540000D01*
X124496000Y-107036000D01*
X124623000Y-107163000D01*
X125277000Y-107163000D01*
X125277000Y-106159000D01*
X125150000Y-106032000D01*
X125004000Y-106029542D01*
X124904415Y-106039350D01*
X124808656Y-106068398D01*
X124720405Y-106115570D01*
X124643052Y-106179052D01*
X124579570Y-106256405D01*
X124532398Y-106344656D01*
X124503350Y-106440415D01*
X124493542Y-106540000D01*
X124289168Y-106540000D01*
X124618881Y-105814114D01*
X125017342Y-105032089D01*
X125450487Y-104268730D01*
X125857000Y-103621769D01*
X125857000Y-106034762D01*
X125804000Y-106029542D01*
X125658000Y-106032000D01*
X125531000Y-106159000D01*
X125531000Y-107163000D01*
X125551000Y-107163000D01*
X125551000Y-107417000D01*
X125531000Y-107417000D01*
X125531000Y-108421000D01*
X125658000Y-108548000D01*
X125804000Y-108550458D01*
X125857001Y-108545238D01*
X125857001Y-109464974D01*
X125466976Y-109855000D01*
X125388441Y-109855000D01*
X125216688Y-109889164D01*
X125054901Y-109956179D01*
X124909296Y-110053469D01*
X124785469Y-110177296D01*
X124688179Y-110322901D01*
X124621164Y-110484688D01*
X124587000Y-110656441D01*
X124587000Y-110831559D01*
X124621164Y-111003312D01*
X124688179Y-111165099D01*
X124785469Y-111310704D01*
X124909296Y-111434531D01*
X125054901Y-111531821D01*
X125216688Y-111598836D01*
X125388441Y-111633000D01*
X125563559Y-111633000D01*
X125735312Y-111598836D01*
X125897099Y-111531821D01*
X126042704Y-111434531D01*
X126166531Y-111310704D01*
X126263821Y-111165099D01*
X126330836Y-111003312D01*
X126365000Y-110831559D01*
X126365000Y-110753024D01*
X126918955Y-110199070D01*
X126943185Y-110179185D01*
X127022537Y-110082494D01*
X127081502Y-109972180D01*
X127117812Y-109852482D01*
X127127000Y-109759192D01*
X127127000Y-109759182D01*
X127130071Y-109728001D01*
X127127000Y-109696820D01*
X127127000Y-103196524D01*
X129053524Y-101270000D01*
X130361542Y-101270000D01*
X130364000Y-101591000D01*
X130491000Y-101718000D01*
X131445000Y-101718000D01*
X131445000Y-100889000D01*
X131699000Y-100889000D01*
X131699000Y-101718000D01*
X132653000Y-101718000D01*
X132780000Y-101591000D01*
X132782458Y-101270000D01*
X132772650Y-101170415D01*
X132743602Y-101074656D01*
X132696430Y-100986405D01*
X132632948Y-100909052D01*
X132555595Y-100845570D01*
X132467344Y-100798398D01*
X132371585Y-100769350D01*
X132272000Y-100759542D01*
X131826000Y-100762000D01*
X131699000Y-100889000D01*
X131445000Y-100889000D01*
X131318000Y-100762000D01*
X130872000Y-100759542D01*
X130772415Y-100769350D01*
X130676656Y-100798398D01*
X130588405Y-100845570D01*
X130511052Y-100909052D01*
X130447570Y-100986405D01*
X130400398Y-101074656D01*
X130371350Y-101170415D01*
X130361542Y-101270000D01*
X129053524Y-101270000D01*
X131136526Y-99187000D01*
X132037569Y-99187000D01*
X131987164Y-99308688D01*
X131953000Y-99480441D01*
X131953000Y-99655559D01*
X131987164Y-99827312D01*
X132054179Y-99989099D01*
X132151469Y-100134704D01*
X132275296Y-100258531D01*
X132420901Y-100355821D01*
X132582688Y-100422836D01*
X132754441Y-100457000D01*
X132929559Y-100457000D01*
X132974515Y-100448058D01*
X133064753Y-100456945D01*
X133064763Y-100456945D01*
X133095944Y-100460016D01*
X133127125Y-100456945D01*
X137763874Y-100456945D01*
X137795055Y-100460016D01*
X137826236Y-100456945D01*
X137826247Y-100456945D01*
X137919537Y-100447757D01*
X138039235Y-100411447D01*
X138149549Y-100352482D01*
X138246240Y-100273130D01*
X138266129Y-100248895D01*
X138762021Y-99753004D01*
X138857999Y-99762457D01*
X139508001Y-99762457D01*
X139656359Y-99747845D01*
X139799015Y-99704571D01*
X139930488Y-99634297D01*
X140045725Y-99539725D01*
X140140297Y-99424488D01*
X140208000Y-99297825D01*
X140275703Y-99424488D01*
X140370275Y-99539725D01*
X140485512Y-99634297D01*
X140616985Y-99704571D01*
X140759641Y-99747845D01*
X140907999Y-99762457D01*
X141558001Y-99762457D01*
X141706359Y-99747845D01*
X141849015Y-99704571D01*
X141980488Y-99634297D01*
X142095725Y-99539725D01*
X142190297Y-99424488D01*
X142260571Y-99293015D01*
X142303845Y-99150359D01*
X142318457Y-99002001D01*
X142318457Y-98101999D01*
X142303845Y-97953641D01*
X142260571Y-97810985D01*
X142190297Y-97679512D01*
X142095725Y-97564275D01*
X141980488Y-97469703D01*
X141868000Y-97409577D01*
X141868000Y-97028024D01*
X142553815Y-96342211D01*
X143024913Y-96342211D01*
X142992429Y-96402985D01*
G36*
X146592055Y-95232391D02*
G01*
X147443156Y-95446849D01*
X148283737Y-95699264D01*
X149112172Y-95989147D01*
X149926769Y-96315905D01*
X150725886Y-96678881D01*
X151507911Y-97077342D01*
X152271270Y-97510487D01*
X153014435Y-97977449D01*
X153735885Y-98477270D01*
X154434187Y-99008959D01*
X155107947Y-99571454D01*
X155755768Y-100163589D01*
X156376411Y-100784232D01*
X156968546Y-101432053D01*
X157531041Y-102105813D01*
X158062730Y-102804115D01*
X158562551Y-103525565D01*
X159029513Y-104268730D01*
X159462658Y-105032089D01*
X159861119Y-105814114D01*
X160224095Y-106613231D01*
X160550853Y-107427828D01*
X160840736Y-108256263D01*
X161093151Y-109096844D01*
X161307609Y-109947945D01*
X161483666Y-110807806D01*
X161620964Y-111674669D01*
X161719234Y-112546836D01*
X161778275Y-113422528D01*
X161797968Y-114300000D01*
X161778275Y-115177472D01*
X161719234Y-116053164D01*
X161620964Y-116925331D01*
X161483666Y-117792194D01*
X161307609Y-118652055D01*
X161093151Y-119503156D01*
X160840736Y-120343737D01*
X160550853Y-121172172D01*
X160224095Y-121986769D01*
X159861119Y-122785886D01*
X159462658Y-123567911D01*
X159029513Y-124331270D01*
X158562551Y-125074435D01*
X158062730Y-125795885D01*
X157531041Y-126494187D01*
X156968546Y-127167947D01*
X156376411Y-127815768D01*
X155755768Y-128436411D01*
X155107947Y-129028546D01*
X154434187Y-129591041D01*
X153735885Y-130122730D01*
X153014435Y-130622551D01*
X152271270Y-131089513D01*
X151507911Y-131522658D01*
X150725886Y-131921119D01*
X149926769Y-132284095D01*
X149112172Y-132610853D01*
X148283737Y-132900736D01*
X147443156Y-133153151D01*
X147211414Y-133211545D01*
X148908499Y-132077589D01*
X150365589Y-130620499D01*
X151510418Y-128907141D01*
X152298989Y-127003361D01*
X152314159Y-126927095D01*
X152382457Y-126963601D01*
X152478215Y-126992649D01*
X152577800Y-127002457D01*
X156387800Y-127002457D01*
X156487385Y-126992649D01*
X156583143Y-126963601D01*
X156671395Y-126916429D01*
X156748748Y-126852948D01*
X156812229Y-126775595D01*
X156859401Y-126687343D01*
X156888449Y-126591585D01*
X156898257Y-126492000D01*
X156898257Y-121412000D01*
X156888449Y-121312415D01*
X156859401Y-121216657D01*
X156812229Y-121128405D01*
X156748748Y-121051052D01*
X156671395Y-120987571D01*
X156583143Y-120940399D01*
X156487385Y-120911351D01*
X156387800Y-120901543D01*
X155625800Y-120901543D01*
X155625800Y-120437645D01*
X155932989Y-120130457D01*
X156237500Y-120130457D01*
X156385858Y-120115845D01*
X156528514Y-120072571D01*
X156659987Y-120002297D01*
X156775224Y-119907724D01*
X156869797Y-119792487D01*
X156940071Y-119661014D01*
X156983345Y-119518358D01*
X156997957Y-119370000D01*
X156997957Y-118120000D01*
X156983345Y-117971642D01*
X156940071Y-117828986D01*
X156894749Y-117744194D01*
X157527043Y-118376489D01*
X157527043Y-119370000D01*
X157541655Y-119518358D01*
X157584929Y-119661014D01*
X157655203Y-119792487D01*
X157749776Y-119907724D01*
X157865013Y-120002297D01*
X157996486Y-120072571D01*
X158139142Y-120115845D01*
X158287500Y-120130457D01*
X159212500Y-120130457D01*
X159360858Y-120115845D01*
X159503514Y-120072571D01*
X159634987Y-120002297D01*
X159750224Y-119907724D01*
X159844797Y-119792487D01*
X159915071Y-119661014D01*
X159958345Y-119518358D01*
X159972957Y-119370000D01*
X159972957Y-118120000D01*
X159958345Y-117971642D01*
X159915071Y-117828986D01*
X159874931Y-117753890D01*
X159811103Y-117543477D01*
X159704968Y-117344911D01*
X159562133Y-117170867D01*
X159518524Y-117135078D01*
X158923903Y-116540457D01*
X159843000Y-116540457D01*
X159942585Y-116530649D01*
X160038343Y-116501601D01*
X160126595Y-116454429D01*
X160203948Y-116390948D01*
X160267429Y-116313595D01*
X160314601Y-116225343D01*
X160343649Y-116129585D01*
X160353457Y-116030000D01*
X160353457Y-113530000D01*
X160343649Y-113430415D01*
X160314601Y-113334657D01*
X160267429Y-113246405D01*
X160203948Y-113169052D01*
X160126595Y-113105571D01*
X160038343Y-113058399D01*
X159944724Y-113030000D01*
X160038343Y-113001601D01*
X160126595Y-112954429D01*
X160203948Y-112890948D01*
X160267429Y-112813595D01*
X160314601Y-112725343D01*
X160343649Y-112629585D01*
X160353457Y-112530000D01*
X160353457Y-110030000D01*
X160343649Y-109930415D01*
X160314601Y-109834657D01*
X160267429Y-109746405D01*
X160203948Y-109669052D01*
X160126595Y-109605571D01*
X160038343Y-109558399D01*
X159942585Y-109529351D01*
X159843000Y-109519543D01*
X158593000Y-109519543D01*
X158493415Y-109529351D01*
X158397657Y-109558399D01*
X158309405Y-109605571D01*
X158232052Y-109669052D01*
X158168571Y-109746405D01*
X158121399Y-109834657D01*
X158092351Y-109930415D01*
X158082543Y-110030000D01*
X158082543Y-112530000D01*
X158092351Y-112629585D01*
X158121399Y-112725343D01*
X158168571Y-112813595D01*
X158232052Y-112890948D01*
X158309405Y-112954429D01*
X158397657Y-113001601D01*
X158491276Y-113030000D01*
X158397657Y-113058399D01*
X158309405Y-113105571D01*
X158232052Y-113169052D01*
X158168571Y-113246405D01*
X158121399Y-113334657D01*
X158092351Y-113430415D01*
X158082543Y-113530000D01*
X158082543Y-115699098D01*
X157861000Y-115477555D01*
X157861000Y-114751854D01*
X157853457Y-114675270D01*
X157853457Y-113530000D01*
X157843649Y-113430415D01*
X157814601Y-113334657D01*
X157767429Y-113246405D01*
X157703948Y-113169052D01*
X157626595Y-113105571D01*
X157538343Y-113058399D01*
X157444724Y-113030000D01*
X157538343Y-113001601D01*
X157626595Y-112954429D01*
X157703948Y-112890948D01*
X157767429Y-112813595D01*
X157814601Y-112725343D01*
X157843649Y-112629585D01*
X157853457Y-112530000D01*
X157853457Y-110030000D01*
X157843649Y-109930415D01*
X157814601Y-109834657D01*
X157767429Y-109746405D01*
X157703948Y-109669052D01*
X157626595Y-109605571D01*
X157538343Y-109558399D01*
X157442585Y-109529351D01*
X157343000Y-109519543D01*
X156093000Y-109519543D01*
X155993415Y-109529351D01*
X155897657Y-109558399D01*
X155809405Y-109605571D01*
X155732052Y-109669052D01*
X155668571Y-109746405D01*
X155621399Y-109834657D01*
X155592351Y-109930415D01*
X155582543Y-110030000D01*
X155582543Y-112530000D01*
X155592351Y-112629585D01*
X155621399Y-112725343D01*
X155668571Y-112813595D01*
X155732052Y-112890948D01*
X155809405Y-112954429D01*
X155897657Y-113001601D01*
X155991276Y-113030000D01*
X155897657Y-113058399D01*
X155809405Y-113105571D01*
X155732052Y-113169052D01*
X155668571Y-113246405D01*
X155621399Y-113334657D01*
X155592351Y-113430415D01*
X155582543Y-113530000D01*
X155582543Y-114675270D01*
X155575000Y-114751854D01*
X155575000Y-115894861D01*
X155569471Y-115951000D01*
X155575000Y-116007139D01*
X155575000Y-116007145D01*
X155589306Y-116152399D01*
X155591539Y-116175067D01*
X155605048Y-116219598D01*
X155656897Y-116390522D01*
X155763032Y-116589088D01*
X155905867Y-116763133D01*
X155949483Y-116798928D01*
X155997076Y-116846521D01*
X156613306Y-117462752D01*
X156528514Y-117417429D01*
X156385858Y-117374155D01*
X156237500Y-117359543D01*
X155312500Y-117359543D01*
X155164142Y-117374155D01*
X155021486Y-117417429D01*
X154890013Y-117487703D01*
X154774776Y-117582276D01*
X154680203Y-117697513D01*
X154609929Y-117828986D01*
X154566655Y-117971642D01*
X154552043Y-118120000D01*
X154552043Y-118278511D01*
X153714278Y-119116277D01*
X153670668Y-119152067D01*
X153634878Y-119195677D01*
X153634876Y-119195679D01*
X153602175Y-119235525D01*
X153527833Y-119326111D01*
X153437406Y-119495290D01*
X153421698Y-119524677D01*
X153356339Y-119740133D01*
X153334271Y-119964200D01*
X153339801Y-120020348D01*
X153339801Y-120901543D01*
X152577800Y-120901543D01*
X152478215Y-120911351D01*
X152382457Y-120940399D01*
X152314159Y-120976905D01*
X152298989Y-120900639D01*
X151510418Y-118996859D01*
X150365589Y-117283501D01*
X148908499Y-115826411D01*
X147195141Y-114681582D01*
X145291361Y-113893011D01*
X143270319Y-113491000D01*
X141209681Y-113491000D01*
X139188639Y-113893011D01*
X137284859Y-114681582D01*
X135571501Y-115826411D01*
X134811912Y-116586000D01*
X129205854Y-116586000D01*
X129037933Y-116602539D01*
X128822477Y-116667897D01*
X128623911Y-116774032D01*
X128569674Y-116818543D01*
X128460500Y-116818543D01*
X128460500Y-116240327D01*
X128813328Y-115887500D01*
X133569702Y-115887500D01*
X133604000Y-115890878D01*
X133638298Y-115887500D01*
X133638309Y-115887500D01*
X133740930Y-115877393D01*
X133872597Y-115837452D01*
X133993943Y-115772591D01*
X134100303Y-115685303D01*
X134122175Y-115658652D01*
X134454652Y-115326175D01*
X134481303Y-115304303D01*
X134568591Y-115197943D01*
X134633452Y-115076597D01*
X134673393Y-114944930D01*
X134683500Y-114842309D01*
X134683500Y-114842299D01*
X134686878Y-114808001D01*
X134683500Y-114773703D01*
X134683500Y-114773482D01*
X134732488Y-114747297D01*
X134847725Y-114652725D01*
X134942297Y-114537488D01*
X135012571Y-114406015D01*
X135055845Y-114263359D01*
X135070457Y-114115001D01*
X135070457Y-113836778D01*
X137528236Y-111379000D01*
X139402339Y-111379000D01*
X139445999Y-111383300D01*
X139489659Y-111379000D01*
X142196340Y-111379000D01*
X142240000Y-111383300D01*
X142283660Y-111379000D01*
X142283667Y-111379000D01*
X142414274Y-111366136D01*
X142581851Y-111315303D01*
X142736291Y-111232753D01*
X142871659Y-111121659D01*
X142899499Y-111087736D01*
X143359543Y-110627692D01*
X143359543Y-110640000D01*
X143372233Y-110768849D01*
X143409817Y-110892746D01*
X143470850Y-111006930D01*
X143552986Y-111107014D01*
X143653070Y-111189150D01*
X143767254Y-111250183D01*
X143891151Y-111287767D01*
X144020000Y-111300457D01*
X145670000Y-111300457D01*
X145798849Y-111287767D01*
X145922746Y-111250183D01*
X146036930Y-111189150D01*
X146137014Y-111107014D01*
X146219150Y-111006930D01*
X146280183Y-110892746D01*
X146317767Y-110768849D01*
X146330457Y-110640000D01*
X146330457Y-110503693D01*
X146431001Y-110604236D01*
X146431000Y-111716340D01*
X146426700Y-111760000D01*
X146431000Y-111803660D01*
X146431000Y-111803666D01*
X146443864Y-111934273D01*
X146494697Y-112101850D01*
X146577247Y-112256290D01*
X146688341Y-112391659D01*
X146722264Y-112419499D01*
X149680506Y-115377742D01*
X149708341Y-115411659D01*
X149843709Y-115522753D01*
X149998149Y-115605303D01*
X150092198Y-115633832D01*
X150165725Y-115656136D01*
X150176610Y-115657208D01*
X150296333Y-115669000D01*
X150296340Y-115669000D01*
X150340000Y-115673300D01*
X150383660Y-115669000D01*
X153082543Y-115669000D01*
X153082543Y-116030000D01*
X153092351Y-116129585D01*
X153121399Y-116225343D01*
X153168571Y-116313595D01*
X153232052Y-116390948D01*
X153309405Y-116454429D01*
X153397657Y-116501601D01*
X153493415Y-116530649D01*
X153593000Y-116540457D01*
X154843000Y-116540457D01*
X154942585Y-116530649D01*
X155038343Y-116501601D01*
X155126595Y-116454429D01*
X155203948Y-116390948D01*
X155267429Y-116313595D01*
X155314601Y-116225343D01*
X155343649Y-116129585D01*
X155353457Y-116030000D01*
X155353457Y-113530000D01*
X155343649Y-113430415D01*
X155314601Y-113334657D01*
X155267429Y-113246405D01*
X155203948Y-113169052D01*
X155126595Y-113105571D01*
X155038343Y-113058399D01*
X154944724Y-113030000D01*
X155038343Y-113001601D01*
X155126595Y-112954429D01*
X155203948Y-112890948D01*
X155267429Y-112813595D01*
X155314601Y-112725343D01*
X155343649Y-112629585D01*
X155353457Y-112530000D01*
X155353457Y-110030000D01*
X155343649Y-109930415D01*
X155314601Y-109834657D01*
X155267429Y-109746405D01*
X155203948Y-109669052D01*
X155126595Y-109605571D01*
X155038343Y-109558399D01*
X154942585Y-109529351D01*
X154843000Y-109519543D01*
X153593000Y-109519543D01*
X153493415Y-109529351D01*
X153397657Y-109558399D01*
X153309405Y-109605571D01*
X153232052Y-109669052D01*
X153168571Y-109746405D01*
X153121399Y-109834657D01*
X153092351Y-109930415D01*
X153082543Y-110030000D01*
X153082543Y-112530000D01*
X153092351Y-112629585D01*
X153121399Y-112725343D01*
X153168571Y-112813595D01*
X153232052Y-112890948D01*
X153309405Y-112954429D01*
X153397657Y-113001601D01*
X153491276Y-113030000D01*
X153397657Y-113058399D01*
X153309405Y-113105571D01*
X153232052Y-113169052D01*
X153168571Y-113246405D01*
X153121399Y-113334657D01*
X153092351Y-113430415D01*
X153082543Y-113530000D01*
X153082543Y-113891000D01*
X150708236Y-113891000D01*
X148209000Y-111391765D01*
X148209000Y-110790000D01*
X148309542Y-110790000D01*
X148319350Y-110889585D01*
X148348398Y-110985344D01*
X148395570Y-111073595D01*
X148459052Y-111150948D01*
X148536405Y-111214430D01*
X148624656Y-111261602D01*
X148720415Y-111290650D01*
X148820000Y-111300458D01*
X149541000Y-111298000D01*
X149668000Y-111171000D01*
X149668000Y-110617000D01*
X149922000Y-110617000D01*
X149922000Y-111171000D01*
X150049000Y-111298000D01*
X150770000Y-111300458D01*
X150869585Y-111290650D01*
X150965344Y-111261602D01*
X151053595Y-111214430D01*
X151130948Y-111150948D01*
X151194430Y-111073595D01*
X151241602Y-110985344D01*
X151270650Y-110889585D01*
X151280458Y-110790000D01*
X151278000Y-110744000D01*
X151151000Y-110617000D01*
X149922000Y-110617000D01*
X149668000Y-110617000D01*
X148439000Y-110617000D01*
X148312000Y-110744000D01*
X148309542Y-110790000D01*
X148209000Y-110790000D01*
X148209000Y-110279660D01*
X148213300Y-110236000D01*
X148209000Y-110192340D01*
X148209000Y-110192333D01*
X148196136Y-110061726D01*
X148194616Y-110056713D01*
X148168208Y-109969657D01*
X148145303Y-109894149D01*
X148142639Y-109889164D01*
X148112331Y-109832463D01*
X148062753Y-109739709D01*
X147951659Y-109604341D01*
X147917741Y-109576505D01*
X147701000Y-109359764D01*
X147701000Y-109099024D01*
X148248930Y-109646955D01*
X148268815Y-109671185D01*
X148365506Y-109750537D01*
X148475820Y-109809502D01*
X148480970Y-109811064D01*
X148459052Y-109829052D01*
X148395570Y-109906405D01*
X148348398Y-109994656D01*
X148319350Y-110090415D01*
X148309542Y-110190000D01*
X148312000Y-110236000D01*
X148439000Y-110363000D01*
X149668000Y-110363000D01*
X149668000Y-110343000D01*
X149922000Y-110343000D01*
X149922000Y-110363000D01*
X151151000Y-110363000D01*
X151278000Y-110236000D01*
X151280458Y-110190000D01*
X151270650Y-110090415D01*
X151241602Y-109994656D01*
X151194430Y-109906405D01*
X151130948Y-109829052D01*
X151108600Y-109810711D01*
X151169150Y-109736930D01*
X151230183Y-109622746D01*
X151267767Y-109498849D01*
X151280457Y-109370000D01*
X151280457Y-109070000D01*
X151267767Y-108941151D01*
X151230183Y-108817254D01*
X151169150Y-108703070D01*
X151087014Y-108602986D01*
X151065098Y-108585000D01*
X151087014Y-108567014D01*
X151169150Y-108466930D01*
X151230183Y-108352746D01*
X151267767Y-108228849D01*
X151280457Y-108100000D01*
X151280457Y-107800000D01*
X151272644Y-107720669D01*
X151420932Y-107868958D01*
X151440815Y-107893185D01*
X151465039Y-107913065D01*
X151465043Y-107913069D01*
X151537506Y-107972538D01*
X151610549Y-108011580D01*
X151647820Y-108031502D01*
X151767518Y-108067812D01*
X151860808Y-108077000D01*
X151860811Y-108077000D01*
X151892000Y-108080072D01*
X151923189Y-108077000D01*
X155023270Y-108077000D01*
X155055429Y-108183015D01*
X155125703Y-108314488D01*
X155220275Y-108429725D01*
X155335512Y-108524297D01*
X155466985Y-108594571D01*
X155609641Y-108637845D01*
X155757999Y-108652457D01*
X156408001Y-108652457D01*
X156556359Y-108637845D01*
X156699015Y-108594571D01*
X156830488Y-108524297D01*
X156945725Y-108429725D01*
X157040297Y-108314488D01*
X157108000Y-108187825D01*
X157175703Y-108314488D01*
X157270275Y-108429725D01*
X157385512Y-108524297D01*
X157516985Y-108594571D01*
X157659641Y-108637845D01*
X157807999Y-108652457D01*
X158458001Y-108652457D01*
X158606359Y-108637845D01*
X158749015Y-108594571D01*
X158880488Y-108524297D01*
X158995725Y-108429725D01*
X159090297Y-108314488D01*
X159160571Y-108183015D01*
X159203845Y-108040359D01*
X159218457Y-107892001D01*
X159218457Y-106991999D01*
X159203845Y-106843641D01*
X159160571Y-106700985D01*
X159090297Y-106569512D01*
X158995725Y-106454275D01*
X158880488Y-106359703D01*
X158749015Y-106289429D01*
X158606359Y-106246155D01*
X158458001Y-106231543D01*
X157820567Y-106231543D01*
X157210808Y-105621784D01*
X157292297Y-105522488D01*
X157362571Y-105391015D01*
X157405845Y-105248359D01*
X157420457Y-105100001D01*
X157420457Y-104449999D01*
X157405845Y-104301641D01*
X157362571Y-104158985D01*
X157292297Y-104027512D01*
X157197725Y-103912275D01*
X157082488Y-103817703D01*
X156955825Y-103750000D01*
X157082488Y-103682297D01*
X157197725Y-103587725D01*
X157292297Y-103472488D01*
X157362571Y-103341015D01*
X157405845Y-103198359D01*
X157420457Y-103050001D01*
X157420457Y-102399999D01*
X157405845Y-102251641D01*
X157362571Y-102108985D01*
X157292297Y-101977512D01*
X157197725Y-101862275D01*
X157082488Y-101767703D01*
X156951015Y-101697429D01*
X156808359Y-101654155D01*
X156660001Y-101639543D01*
X155759999Y-101639543D01*
X155654449Y-101649939D01*
X155672934Y-101605312D01*
X155707098Y-101433559D01*
X155707098Y-101258441D01*
X155672934Y-101086688D01*
X155605919Y-100924901D01*
X155508629Y-100779296D01*
X155384802Y-100655469D01*
X155239197Y-100558179D01*
X155077410Y-100491164D01*
X154905657Y-100457000D01*
X154822025Y-100457000D01*
X154372457Y-100007432D01*
X154372457Y-99478999D01*
X154357845Y-99330641D01*
X154314571Y-99187985D01*
X154244297Y-99056512D01*
X154149725Y-98941275D01*
X154034488Y-98846703D01*
X153903015Y-98776429D01*
X153760359Y-98733155D01*
X153612001Y-98718543D01*
X152711999Y-98718543D01*
X152563641Y-98733155D01*
X152420985Y-98776429D01*
X152289512Y-98846703D01*
X152174275Y-98941275D01*
X152146000Y-98975728D01*
X152146000Y-98797181D01*
X152149071Y-98766000D01*
X152146000Y-98734819D01*
X152146000Y-98734808D01*
X152136812Y-98641518D01*
X152100502Y-98521820D01*
X152095936Y-98513277D01*
X152041538Y-98411506D01*
X151988687Y-98347108D01*
X151962185Y-98314815D01*
X151937956Y-98294931D01*
X151514074Y-97871050D01*
X151494185Y-97846815D01*
X151449749Y-97810347D01*
X151438845Y-97699641D01*
X151395571Y-97556985D01*
X151325297Y-97425512D01*
X151230725Y-97310275D01*
X151115488Y-97215703D01*
X150984015Y-97145429D01*
X150841359Y-97102155D01*
X150693001Y-97087543D01*
X150042999Y-97087543D01*
X149894641Y-97102155D01*
X149751985Y-97145429D01*
X149620512Y-97215703D01*
X149505275Y-97310275D01*
X149410703Y-97425512D01*
X149343000Y-97552175D01*
X149275297Y-97425512D01*
X149180725Y-97310275D01*
X149065488Y-97215703D01*
X148934015Y-97145429D01*
X148791359Y-97102155D01*
X148643001Y-97087543D01*
X147992999Y-97087543D01*
X147844641Y-97102155D01*
X147701985Y-97145429D01*
X147570512Y-97215703D01*
X147455275Y-97310275D01*
X147360703Y-97425512D01*
X147290429Y-97556985D01*
X147249246Y-97692748D01*
X147249246Y-96528429D01*
X147252318Y-96497240D01*
X147247381Y-96447113D01*
X147240058Y-96372758D01*
X147203748Y-96253060D01*
X147196863Y-96240179D01*
X147144784Y-96142746D01*
X147085315Y-96070283D01*
X147085311Y-96070279D01*
X147065431Y-96046055D01*
X147041206Y-96026174D01*
X146158690Y-95143659D01*
X146592055Y-95232391D01*
G37*
X146592055Y-95232391D02*
X147443156Y-95446849D01*
X148283737Y-95699264D01*
X149112172Y-95989147D01*
X149926769Y-96315905D01*
X150725886Y-96678881D01*
X151507911Y-97077342D01*
X152271270Y-97510487D01*
X153014435Y-97977449D01*
X153735885Y-98477270D01*
X154434187Y-99008959D01*
X155107947Y-99571454D01*
X155755768Y-100163589D01*
X156376411Y-100784232D01*
X156968546Y-101432053D01*
X157531041Y-102105813D01*
X158062730Y-102804115D01*
X158562551Y-103525565D01*
X159029513Y-104268730D01*
X159462658Y-105032089D01*
X159861119Y-105814114D01*
X160224095Y-106613231D01*
X160550853Y-107427828D01*
X160840736Y-108256263D01*
X161093151Y-109096844D01*
X161307609Y-109947945D01*
X161483666Y-110807806D01*
X161620964Y-111674669D01*
X161719234Y-112546836D01*
X161778275Y-113422528D01*
X161797968Y-114300000D01*
X161778275Y-115177472D01*
X161719234Y-116053164D01*
X161620964Y-116925331D01*
X161483666Y-117792194D01*
X161307609Y-118652055D01*
X161093151Y-119503156D01*
X160840736Y-120343737D01*
X160550853Y-121172172D01*
X160224095Y-121986769D01*
X159861119Y-122785886D01*
X159462658Y-123567911D01*
X159029513Y-124331270D01*
X158562551Y-125074435D01*
X158062730Y-125795885D01*
X157531041Y-126494187D01*
X156968546Y-127167947D01*
X156376411Y-127815768D01*
X155755768Y-128436411D01*
X155107947Y-129028546D01*
X154434187Y-129591041D01*
X153735885Y-130122730D01*
X153014435Y-130622551D01*
X152271270Y-131089513D01*
X151507911Y-131522658D01*
X150725886Y-131921119D01*
X149926769Y-132284095D01*
X149112172Y-132610853D01*
X148283737Y-132900736D01*
X147443156Y-133153151D01*
X147211414Y-133211545D01*
X148908499Y-132077589D01*
X150365589Y-130620499D01*
X151510418Y-128907141D01*
X152298989Y-127003361D01*
X152314159Y-126927095D01*
X152382457Y-126963601D01*
X152478215Y-126992649D01*
X152577800Y-127002457D01*
X156387800Y-127002457D01*
X156487385Y-126992649D01*
X156583143Y-126963601D01*
X156671395Y-126916429D01*
X156748748Y-126852948D01*
X156812229Y-126775595D01*
X156859401Y-126687343D01*
X156888449Y-126591585D01*
X156898257Y-126492000D01*
X156898257Y-121412000D01*
X156888449Y-121312415D01*
X156859401Y-121216657D01*
X156812229Y-121128405D01*
X156748748Y-121051052D01*
X156671395Y-120987571D01*
X156583143Y-120940399D01*
X156487385Y-120911351D01*
X156387800Y-120901543D01*
X155625800Y-120901543D01*
X155625800Y-120437645D01*
X155932989Y-120130457D01*
X156237500Y-120130457D01*
X156385858Y-120115845D01*
X156528514Y-120072571D01*
X156659987Y-120002297D01*
X156775224Y-119907724D01*
X156869797Y-119792487D01*
X156940071Y-119661014D01*
X156983345Y-119518358D01*
X156997957Y-119370000D01*
X156997957Y-118120000D01*
X156983345Y-117971642D01*
X156940071Y-117828986D01*
X156894749Y-117744194D01*
X157527043Y-118376489D01*
X157527043Y-119370000D01*
X157541655Y-119518358D01*
X157584929Y-119661014D01*
X157655203Y-119792487D01*
X157749776Y-119907724D01*
X157865013Y-120002297D01*
X157996486Y-120072571D01*
X158139142Y-120115845D01*
X158287500Y-120130457D01*
X159212500Y-120130457D01*
X159360858Y-120115845D01*
X159503514Y-120072571D01*
X159634987Y-120002297D01*
X159750224Y-119907724D01*
X159844797Y-119792487D01*
X159915071Y-119661014D01*
X159958345Y-119518358D01*
X159972957Y-119370000D01*
X159972957Y-118120000D01*
X159958345Y-117971642D01*
X159915071Y-117828986D01*
X159874931Y-117753890D01*
X159811103Y-117543477D01*
X159704968Y-117344911D01*
X159562133Y-117170867D01*
X159518524Y-117135078D01*
X158923903Y-116540457D01*
X159843000Y-116540457D01*
X159942585Y-116530649D01*
X160038343Y-116501601D01*
X160126595Y-116454429D01*
X160203948Y-116390948D01*
X160267429Y-116313595D01*
X160314601Y-116225343D01*
X160343649Y-116129585D01*
X160353457Y-116030000D01*
X160353457Y-113530000D01*
X160343649Y-113430415D01*
X160314601Y-113334657D01*
X160267429Y-113246405D01*
X160203948Y-113169052D01*
X160126595Y-113105571D01*
X160038343Y-113058399D01*
X159944724Y-113030000D01*
X160038343Y-113001601D01*
X160126595Y-112954429D01*
X160203948Y-112890948D01*
X160267429Y-112813595D01*
X160314601Y-112725343D01*
X160343649Y-112629585D01*
X160353457Y-112530000D01*
X160353457Y-110030000D01*
X160343649Y-109930415D01*
X160314601Y-109834657D01*
X160267429Y-109746405D01*
X160203948Y-109669052D01*
X160126595Y-109605571D01*
X160038343Y-109558399D01*
X159942585Y-109529351D01*
X159843000Y-109519543D01*
X158593000Y-109519543D01*
X158493415Y-109529351D01*
X158397657Y-109558399D01*
X158309405Y-109605571D01*
X158232052Y-109669052D01*
X158168571Y-109746405D01*
X158121399Y-109834657D01*
X158092351Y-109930415D01*
X158082543Y-110030000D01*
X158082543Y-112530000D01*
X158092351Y-112629585D01*
X158121399Y-112725343D01*
X158168571Y-112813595D01*
X158232052Y-112890948D01*
X158309405Y-112954429D01*
X158397657Y-113001601D01*
X158491276Y-113030000D01*
X158397657Y-113058399D01*
X158309405Y-113105571D01*
X158232052Y-113169052D01*
X158168571Y-113246405D01*
X158121399Y-113334657D01*
X158092351Y-113430415D01*
X158082543Y-113530000D01*
X158082543Y-115699098D01*
X157861000Y-115477555D01*
X157861000Y-114751854D01*
X157853457Y-114675270D01*
X157853457Y-113530000D01*
X157843649Y-113430415D01*
X157814601Y-113334657D01*
X157767429Y-113246405D01*
X157703948Y-113169052D01*
X157626595Y-113105571D01*
X157538343Y-113058399D01*
X157444724Y-113030000D01*
X157538343Y-113001601D01*
X157626595Y-112954429D01*
X157703948Y-112890948D01*
X157767429Y-112813595D01*
X157814601Y-112725343D01*
X157843649Y-112629585D01*
X157853457Y-112530000D01*
X157853457Y-110030000D01*
X157843649Y-109930415D01*
X157814601Y-109834657D01*
X157767429Y-109746405D01*
X157703948Y-109669052D01*
X157626595Y-109605571D01*
X157538343Y-109558399D01*
X157442585Y-109529351D01*
X157343000Y-109519543D01*
X156093000Y-109519543D01*
X155993415Y-109529351D01*
X155897657Y-109558399D01*
X155809405Y-109605571D01*
X155732052Y-109669052D01*
X155668571Y-109746405D01*
X155621399Y-109834657D01*
X155592351Y-109930415D01*
X155582543Y-110030000D01*
X155582543Y-112530000D01*
X155592351Y-112629585D01*
X155621399Y-112725343D01*
X155668571Y-112813595D01*
X155732052Y-112890948D01*
X155809405Y-112954429D01*
X155897657Y-113001601D01*
X155991276Y-113030000D01*
X155897657Y-113058399D01*
X155809405Y-113105571D01*
X155732052Y-113169052D01*
X155668571Y-113246405D01*
X155621399Y-113334657D01*
X155592351Y-113430415D01*
X155582543Y-113530000D01*
X155582543Y-114675270D01*
X155575000Y-114751854D01*
X155575000Y-115894861D01*
X155569471Y-115951000D01*
X155575000Y-116007139D01*
X155575000Y-116007145D01*
X155589306Y-116152399D01*
X155591539Y-116175067D01*
X155605048Y-116219598D01*
X155656897Y-116390522D01*
X155763032Y-116589088D01*
X155905867Y-116763133D01*
X155949483Y-116798928D01*
X155997076Y-116846521D01*
X156613306Y-117462752D01*
X156528514Y-117417429D01*
X156385858Y-117374155D01*
X156237500Y-117359543D01*
X155312500Y-117359543D01*
X155164142Y-117374155D01*
X155021486Y-117417429D01*
X154890013Y-117487703D01*
X154774776Y-117582276D01*
X154680203Y-117697513D01*
X154609929Y-117828986D01*
X154566655Y-117971642D01*
X154552043Y-118120000D01*
X154552043Y-118278511D01*
X153714278Y-119116277D01*
X153670668Y-119152067D01*
X153634878Y-119195677D01*
X153634876Y-119195679D01*
X153602175Y-119235525D01*
X153527833Y-119326111D01*
X153437406Y-119495290D01*
X153421698Y-119524677D01*
X153356339Y-119740133D01*
X153334271Y-119964200D01*
X153339801Y-120020348D01*
X153339801Y-120901543D01*
X152577800Y-120901543D01*
X152478215Y-120911351D01*
X152382457Y-120940399D01*
X152314159Y-120976905D01*
X152298989Y-120900639D01*
X151510418Y-118996859D01*
X150365589Y-117283501D01*
X148908499Y-115826411D01*
X147195141Y-114681582D01*
X145291361Y-113893011D01*
X143270319Y-113491000D01*
X141209681Y-113491000D01*
X139188639Y-113893011D01*
X137284859Y-114681582D01*
X135571501Y-115826411D01*
X134811912Y-116586000D01*
X129205854Y-116586000D01*
X129037933Y-116602539D01*
X128822477Y-116667897D01*
X128623911Y-116774032D01*
X128569674Y-116818543D01*
X128460500Y-116818543D01*
X128460500Y-116240327D01*
X128813328Y-115887500D01*
X133569702Y-115887500D01*
X133604000Y-115890878D01*
X133638298Y-115887500D01*
X133638309Y-115887500D01*
X133740930Y-115877393D01*
X133872597Y-115837452D01*
X133993943Y-115772591D01*
X134100303Y-115685303D01*
X134122175Y-115658652D01*
X134454652Y-115326175D01*
X134481303Y-115304303D01*
X134568591Y-115197943D01*
X134633452Y-115076597D01*
X134673393Y-114944930D01*
X134683500Y-114842309D01*
X134683500Y-114842299D01*
X134686878Y-114808001D01*
X134683500Y-114773703D01*
X134683500Y-114773482D01*
X134732488Y-114747297D01*
X134847725Y-114652725D01*
X134942297Y-114537488D01*
X135012571Y-114406015D01*
X135055845Y-114263359D01*
X135070457Y-114115001D01*
X135070457Y-113836778D01*
X137528236Y-111379000D01*
X139402339Y-111379000D01*
X139445999Y-111383300D01*
X139489659Y-111379000D01*
X142196340Y-111379000D01*
X142240000Y-111383300D01*
X142283660Y-111379000D01*
X142283667Y-111379000D01*
X142414274Y-111366136D01*
X142581851Y-111315303D01*
X142736291Y-111232753D01*
X142871659Y-111121659D01*
X142899499Y-111087736D01*
X143359543Y-110627692D01*
X143359543Y-110640000D01*
X143372233Y-110768849D01*
X143409817Y-110892746D01*
X143470850Y-111006930D01*
X143552986Y-111107014D01*
X143653070Y-111189150D01*
X143767254Y-111250183D01*
X143891151Y-111287767D01*
X144020000Y-111300457D01*
X145670000Y-111300457D01*
X145798849Y-111287767D01*
X145922746Y-111250183D01*
X146036930Y-111189150D01*
X146137014Y-111107014D01*
X146219150Y-111006930D01*
X146280183Y-110892746D01*
X146317767Y-110768849D01*
X146330457Y-110640000D01*
X146330457Y-110503693D01*
X146431001Y-110604236D01*
X146431000Y-111716340D01*
X146426700Y-111760000D01*
X146431000Y-111803660D01*
X146431000Y-111803666D01*
X146443864Y-111934273D01*
X146494697Y-112101850D01*
X146577247Y-112256290D01*
X146688341Y-112391659D01*
X146722264Y-112419499D01*
X149680506Y-115377742D01*
X149708341Y-115411659D01*
X149843709Y-115522753D01*
X149998149Y-115605303D01*
X150092198Y-115633832D01*
X150165725Y-115656136D01*
X150176610Y-115657208D01*
X150296333Y-115669000D01*
X150296340Y-115669000D01*
X150340000Y-115673300D01*
X150383660Y-115669000D01*
X153082543Y-115669000D01*
X153082543Y-116030000D01*
X153092351Y-116129585D01*
X153121399Y-116225343D01*
X153168571Y-116313595D01*
X153232052Y-116390948D01*
X153309405Y-116454429D01*
X153397657Y-116501601D01*
X153493415Y-116530649D01*
X153593000Y-116540457D01*
X154843000Y-116540457D01*
X154942585Y-116530649D01*
X155038343Y-116501601D01*
X155126595Y-116454429D01*
X155203948Y-116390948D01*
X155267429Y-116313595D01*
X155314601Y-116225343D01*
X155343649Y-116129585D01*
X155353457Y-116030000D01*
X155353457Y-113530000D01*
X155343649Y-113430415D01*
X155314601Y-113334657D01*
X155267429Y-113246405D01*
X155203948Y-113169052D01*
X155126595Y-113105571D01*
X155038343Y-113058399D01*
X154944724Y-113030000D01*
X155038343Y-113001601D01*
X155126595Y-112954429D01*
X155203948Y-112890948D01*
X155267429Y-112813595D01*
X155314601Y-112725343D01*
X155343649Y-112629585D01*
X155353457Y-112530000D01*
X155353457Y-110030000D01*
X155343649Y-109930415D01*
X155314601Y-109834657D01*
X155267429Y-109746405D01*
X155203948Y-109669052D01*
X155126595Y-109605571D01*
X155038343Y-109558399D01*
X154942585Y-109529351D01*
X154843000Y-109519543D01*
X153593000Y-109519543D01*
X153493415Y-109529351D01*
X153397657Y-109558399D01*
X153309405Y-109605571D01*
X153232052Y-109669052D01*
X153168571Y-109746405D01*
X153121399Y-109834657D01*
X153092351Y-109930415D01*
X153082543Y-110030000D01*
X153082543Y-112530000D01*
X153092351Y-112629585D01*
X153121399Y-112725343D01*
X153168571Y-112813595D01*
X153232052Y-112890948D01*
X153309405Y-112954429D01*
X153397657Y-113001601D01*
X153491276Y-113030000D01*
X153397657Y-113058399D01*
X153309405Y-113105571D01*
X153232052Y-113169052D01*
X153168571Y-113246405D01*
X153121399Y-113334657D01*
X153092351Y-113430415D01*
X153082543Y-113530000D01*
X153082543Y-113891000D01*
X150708236Y-113891000D01*
X148209000Y-111391765D01*
X148209000Y-110790000D01*
X148309542Y-110790000D01*
X148319350Y-110889585D01*
X148348398Y-110985344D01*
X148395570Y-111073595D01*
X148459052Y-111150948D01*
X148536405Y-111214430D01*
X148624656Y-111261602D01*
X148720415Y-111290650D01*
X148820000Y-111300458D01*
X149541000Y-111298000D01*
X149668000Y-111171000D01*
X149668000Y-110617000D01*
X149922000Y-110617000D01*
X149922000Y-111171000D01*
X150049000Y-111298000D01*
X150770000Y-111300458D01*
X150869585Y-111290650D01*
X150965344Y-111261602D01*
X151053595Y-111214430D01*
X151130948Y-111150948D01*
X151194430Y-111073595D01*
X151241602Y-110985344D01*
X151270650Y-110889585D01*
X151280458Y-110790000D01*
X151278000Y-110744000D01*
X151151000Y-110617000D01*
X149922000Y-110617000D01*
X149668000Y-110617000D01*
X148439000Y-110617000D01*
X148312000Y-110744000D01*
X148309542Y-110790000D01*
X148209000Y-110790000D01*
X148209000Y-110279660D01*
X148213300Y-110236000D01*
X148209000Y-110192340D01*
X148209000Y-110192333D01*
X148196136Y-110061726D01*
X148194616Y-110056713D01*
X148168208Y-109969657D01*
X148145303Y-109894149D01*
X148142639Y-109889164D01*
X148112331Y-109832463D01*
X148062753Y-109739709D01*
X147951659Y-109604341D01*
X147917741Y-109576505D01*
X147701000Y-109359764D01*
X147701000Y-109099024D01*
X148248930Y-109646955D01*
X148268815Y-109671185D01*
X148365506Y-109750537D01*
X148475820Y-109809502D01*
X148480970Y-109811064D01*
X148459052Y-109829052D01*
X148395570Y-109906405D01*
X148348398Y-109994656D01*
X148319350Y-110090415D01*
X148309542Y-110190000D01*
X148312000Y-110236000D01*
X148439000Y-110363000D01*
X149668000Y-110363000D01*
X149668000Y-110343000D01*
X149922000Y-110343000D01*
X149922000Y-110363000D01*
X151151000Y-110363000D01*
X151278000Y-110236000D01*
X151280458Y-110190000D01*
X151270650Y-110090415D01*
X151241602Y-109994656D01*
X151194430Y-109906405D01*
X151130948Y-109829052D01*
X151108600Y-109810711D01*
X151169150Y-109736930D01*
X151230183Y-109622746D01*
X151267767Y-109498849D01*
X151280457Y-109370000D01*
X151280457Y-109070000D01*
X151267767Y-108941151D01*
X151230183Y-108817254D01*
X151169150Y-108703070D01*
X151087014Y-108602986D01*
X151065098Y-108585000D01*
X151087014Y-108567014D01*
X151169150Y-108466930D01*
X151230183Y-108352746D01*
X151267767Y-108228849D01*
X151280457Y-108100000D01*
X151280457Y-107800000D01*
X151272644Y-107720669D01*
X151420932Y-107868958D01*
X151440815Y-107893185D01*
X151465039Y-107913065D01*
X151465043Y-107913069D01*
X151537506Y-107972538D01*
X151610549Y-108011580D01*
X151647820Y-108031502D01*
X151767518Y-108067812D01*
X151860808Y-108077000D01*
X151860811Y-108077000D01*
X151892000Y-108080072D01*
X151923189Y-108077000D01*
X155023270Y-108077000D01*
X155055429Y-108183015D01*
X155125703Y-108314488D01*
X155220275Y-108429725D01*
X155335512Y-108524297D01*
X155466985Y-108594571D01*
X155609641Y-108637845D01*
X155757999Y-108652457D01*
X156408001Y-108652457D01*
X156556359Y-108637845D01*
X156699015Y-108594571D01*
X156830488Y-108524297D01*
X156945725Y-108429725D01*
X157040297Y-108314488D01*
X157108000Y-108187825D01*
X157175703Y-108314488D01*
X157270275Y-108429725D01*
X157385512Y-108524297D01*
X157516985Y-108594571D01*
X157659641Y-108637845D01*
X157807999Y-108652457D01*
X158458001Y-108652457D01*
X158606359Y-108637845D01*
X158749015Y-108594571D01*
X158880488Y-108524297D01*
X158995725Y-108429725D01*
X159090297Y-108314488D01*
X159160571Y-108183015D01*
X159203845Y-108040359D01*
X159218457Y-107892001D01*
X159218457Y-106991999D01*
X159203845Y-106843641D01*
X159160571Y-106700985D01*
X159090297Y-106569512D01*
X158995725Y-106454275D01*
X158880488Y-106359703D01*
X158749015Y-106289429D01*
X158606359Y-106246155D01*
X158458001Y-106231543D01*
X157820567Y-106231543D01*
X157210808Y-105621784D01*
X157292297Y-105522488D01*
X157362571Y-105391015D01*
X157405845Y-105248359D01*
X157420457Y-105100001D01*
X157420457Y-104449999D01*
X157405845Y-104301641D01*
X157362571Y-104158985D01*
X157292297Y-104027512D01*
X157197725Y-103912275D01*
X157082488Y-103817703D01*
X156955825Y-103750000D01*
X157082488Y-103682297D01*
X157197725Y-103587725D01*
X157292297Y-103472488D01*
X157362571Y-103341015D01*
X157405845Y-103198359D01*
X157420457Y-103050001D01*
X157420457Y-102399999D01*
X157405845Y-102251641D01*
X157362571Y-102108985D01*
X157292297Y-101977512D01*
X157197725Y-101862275D01*
X157082488Y-101767703D01*
X156951015Y-101697429D01*
X156808359Y-101654155D01*
X156660001Y-101639543D01*
X155759999Y-101639543D01*
X155654449Y-101649939D01*
X155672934Y-101605312D01*
X155707098Y-101433559D01*
X155707098Y-101258441D01*
X155672934Y-101086688D01*
X155605919Y-100924901D01*
X155508629Y-100779296D01*
X155384802Y-100655469D01*
X155239197Y-100558179D01*
X155077410Y-100491164D01*
X154905657Y-100457000D01*
X154822025Y-100457000D01*
X154372457Y-100007432D01*
X154372457Y-99478999D01*
X154357845Y-99330641D01*
X154314571Y-99187985D01*
X154244297Y-99056512D01*
X154149725Y-98941275D01*
X154034488Y-98846703D01*
X153903015Y-98776429D01*
X153760359Y-98733155D01*
X153612001Y-98718543D01*
X152711999Y-98718543D01*
X152563641Y-98733155D01*
X152420985Y-98776429D01*
X152289512Y-98846703D01*
X152174275Y-98941275D01*
X152146000Y-98975728D01*
X152146000Y-98797181D01*
X152149071Y-98766000D01*
X152146000Y-98734819D01*
X152146000Y-98734808D01*
X152136812Y-98641518D01*
X152100502Y-98521820D01*
X152095936Y-98513277D01*
X152041538Y-98411506D01*
X151988687Y-98347108D01*
X151962185Y-98314815D01*
X151937956Y-98294931D01*
X151514074Y-97871050D01*
X151494185Y-97846815D01*
X151449749Y-97810347D01*
X151438845Y-97699641D01*
X151395571Y-97556985D01*
X151325297Y-97425512D01*
X151230725Y-97310275D01*
X151115488Y-97215703D01*
X150984015Y-97145429D01*
X150841359Y-97102155D01*
X150693001Y-97087543D01*
X150042999Y-97087543D01*
X149894641Y-97102155D01*
X149751985Y-97145429D01*
X149620512Y-97215703D01*
X149505275Y-97310275D01*
X149410703Y-97425512D01*
X149343000Y-97552175D01*
X149275297Y-97425512D01*
X149180725Y-97310275D01*
X149065488Y-97215703D01*
X148934015Y-97145429D01*
X148791359Y-97102155D01*
X148643001Y-97087543D01*
X147992999Y-97087543D01*
X147844641Y-97102155D01*
X147701985Y-97145429D01*
X147570512Y-97215703D01*
X147455275Y-97310275D01*
X147360703Y-97425512D01*
X147290429Y-97556985D01*
X147249246Y-97692748D01*
X147249246Y-96528429D01*
X147252318Y-96497240D01*
X147247381Y-96447113D01*
X147240058Y-96372758D01*
X147203748Y-96253060D01*
X147196863Y-96240179D01*
X147144784Y-96142746D01*
X147085315Y-96070283D01*
X147085311Y-96070279D01*
X147065431Y-96046055D01*
X147041206Y-96026174D01*
X146158690Y-95143659D01*
X146592055Y-95232391D01*
M02*
