G04 #@! TF.GenerationSoftware,KiCad,Pcbnew,(5.1.5)-3*
G04 #@! TF.CreationDate,2019-12-29T19:03:19-08:00*
G04 #@! TF.ProjectId,ruddblink,72756464-626c-4696-9e6b-2e6b69636164,A*
G04 #@! TF.SameCoordinates,Original*
G04 #@! TF.FileFunction,Copper,L2,Bot*
G04 #@! TF.FilePolarity,Positive*
%FSLAX46Y46*%
G04 Gerber Fmt 4.6, Leading zero omitted, Abs format (unit mm)*
G04 Created by KiCad (PCBNEW (5.1.5)-3) date 2019-12-29 19:03:19*
%MOMM*%
%LPD*%
G04 APERTURE LIST*
%ADD10R,3.810000X5.080000*%
%ADD11C,10.000000*%
%ADD12C,5.600000*%
%ADD13R,1.250000X2.500000*%
%ADD14R,0.800000X1.500000*%
%ADD15R,1.700000X0.650000*%
%ADD16C,0.100000*%
%ADD17R,1.900000X0.800000*%
%ADD18C,0.762000*%
%ADD19C,0.762000*%
%ADD20C,0.254000*%
%ADD21C,1.270000*%
%ADD22C,0.381000*%
G04 APERTURE END LIST*
D10*
X154482800Y-123952000D03*
X129997200Y-123952000D03*
D11*
X142240000Y-123952000D03*
D12*
X142240000Y-90170000D03*
D13*
X154218000Y-114780000D03*
X156718000Y-114780000D03*
X159218000Y-114780000D03*
X154218000Y-111280000D03*
X156718000Y-111280000D03*
X159218000Y-111280000D03*
D14*
X125404000Y-107290000D03*
X129104000Y-107290000D03*
X129104000Y-113690000D03*
X125404000Y-113690000D03*
D15*
X133510000Y-110490000D03*
X133510000Y-109220000D03*
X133510000Y-107950000D03*
X133510000Y-106680000D03*
X140810000Y-106680000D03*
X140810000Y-107950000D03*
X140810000Y-109220000D03*
X140810000Y-110490000D03*
G04 #@! TA.AperFunction,SMDPad,CuDef*
D16*
G36*
X141571910Y-101271202D02*
G01*
X141596135Y-101274795D01*
X141619891Y-101280746D01*
X141642949Y-101288996D01*
X141665087Y-101299467D01*
X141686093Y-101312057D01*
X141705763Y-101326645D01*
X141723908Y-101343092D01*
X141740355Y-101361237D01*
X141754943Y-101380907D01*
X141767533Y-101401913D01*
X141778004Y-101424051D01*
X141786254Y-101447109D01*
X141792205Y-101470865D01*
X141795798Y-101495090D01*
X141797000Y-101519550D01*
X141797000Y-102170450D01*
X141795798Y-102194910D01*
X141792205Y-102219135D01*
X141786254Y-102242891D01*
X141778004Y-102265949D01*
X141767533Y-102288087D01*
X141754943Y-102309093D01*
X141740355Y-102328763D01*
X141723908Y-102346908D01*
X141705763Y-102363355D01*
X141686093Y-102377943D01*
X141665087Y-102390533D01*
X141642949Y-102401004D01*
X141619891Y-102409254D01*
X141596135Y-102415205D01*
X141571910Y-102418798D01*
X141547450Y-102420000D01*
X140646550Y-102420000D01*
X140622090Y-102418798D01*
X140597865Y-102415205D01*
X140574109Y-102409254D01*
X140551051Y-102401004D01*
X140528913Y-102390533D01*
X140507907Y-102377943D01*
X140488237Y-102363355D01*
X140470092Y-102346908D01*
X140453645Y-102328763D01*
X140439057Y-102309093D01*
X140426467Y-102288087D01*
X140415996Y-102265949D01*
X140407746Y-102242891D01*
X140401795Y-102219135D01*
X140398202Y-102194910D01*
X140397000Y-102170450D01*
X140397000Y-101519550D01*
X140398202Y-101495090D01*
X140401795Y-101470865D01*
X140407746Y-101447109D01*
X140415996Y-101424051D01*
X140426467Y-101401913D01*
X140439057Y-101380907D01*
X140453645Y-101361237D01*
X140470092Y-101343092D01*
X140488237Y-101326645D01*
X140507907Y-101312057D01*
X140528913Y-101299467D01*
X140551051Y-101288996D01*
X140574109Y-101280746D01*
X140597865Y-101274795D01*
X140622090Y-101271202D01*
X140646550Y-101270000D01*
X141547450Y-101270000D01*
X141571910Y-101271202D01*
G37*
G04 #@! TD.AperFunction*
G04 #@! TA.AperFunction,SMDPad,CuDef*
G36*
X141571505Y-103321204D02*
G01*
X141595773Y-103324804D01*
X141619572Y-103330765D01*
X141642671Y-103339030D01*
X141664850Y-103349520D01*
X141685893Y-103362132D01*
X141705599Y-103376747D01*
X141723777Y-103393223D01*
X141740253Y-103411401D01*
X141754868Y-103431107D01*
X141767480Y-103452150D01*
X141777970Y-103474329D01*
X141786235Y-103497428D01*
X141792196Y-103521227D01*
X141795796Y-103545495D01*
X141797000Y-103569999D01*
X141797000Y-104220001D01*
X141795796Y-104244505D01*
X141792196Y-104268773D01*
X141786235Y-104292572D01*
X141777970Y-104315671D01*
X141767480Y-104337850D01*
X141754868Y-104358893D01*
X141740253Y-104378599D01*
X141723777Y-104396777D01*
X141705599Y-104413253D01*
X141685893Y-104427868D01*
X141664850Y-104440480D01*
X141642671Y-104450970D01*
X141619572Y-104459235D01*
X141595773Y-104465196D01*
X141571505Y-104468796D01*
X141547001Y-104470000D01*
X140646999Y-104470000D01*
X140622495Y-104468796D01*
X140598227Y-104465196D01*
X140574428Y-104459235D01*
X140551329Y-104450970D01*
X140529150Y-104440480D01*
X140508107Y-104427868D01*
X140488401Y-104413253D01*
X140470223Y-104396777D01*
X140453747Y-104378599D01*
X140439132Y-104358893D01*
X140426520Y-104337850D01*
X140416030Y-104315671D01*
X140407765Y-104292572D01*
X140401804Y-104268773D01*
X140398204Y-104244505D01*
X140397000Y-104220001D01*
X140397000Y-103569999D01*
X140398204Y-103545495D01*
X140401804Y-103521227D01*
X140407765Y-103497428D01*
X140416030Y-103474329D01*
X140426520Y-103452150D01*
X140439132Y-103431107D01*
X140453747Y-103411401D01*
X140470223Y-103393223D01*
X140488401Y-103376747D01*
X140508107Y-103362132D01*
X140529150Y-103349520D01*
X140551329Y-103339030D01*
X140574428Y-103330765D01*
X140598227Y-103324804D01*
X140622495Y-103321204D01*
X140646999Y-103320000D01*
X141547001Y-103320000D01*
X141571505Y-103321204D01*
G37*
G04 #@! TD.AperFunction*
D17*
X129262000Y-117729000D03*
X126262000Y-116779000D03*
X126262000Y-118679000D03*
G04 #@! TA.AperFunction,SMDPad,CuDef*
D16*
G36*
X159237004Y-117871204D02*
G01*
X159261273Y-117874804D01*
X159285071Y-117880765D01*
X159308171Y-117889030D01*
X159330349Y-117899520D01*
X159351393Y-117912133D01*
X159371098Y-117926747D01*
X159389277Y-117943223D01*
X159405753Y-117961402D01*
X159420367Y-117981107D01*
X159432980Y-118002151D01*
X159443470Y-118024329D01*
X159451735Y-118047429D01*
X159457696Y-118071227D01*
X159461296Y-118095496D01*
X159462500Y-118120000D01*
X159462500Y-119370000D01*
X159461296Y-119394504D01*
X159457696Y-119418773D01*
X159451735Y-119442571D01*
X159443470Y-119465671D01*
X159432980Y-119487849D01*
X159420367Y-119508893D01*
X159405753Y-119528598D01*
X159389277Y-119546777D01*
X159371098Y-119563253D01*
X159351393Y-119577867D01*
X159330349Y-119590480D01*
X159308171Y-119600970D01*
X159285071Y-119609235D01*
X159261273Y-119615196D01*
X159237004Y-119618796D01*
X159212500Y-119620000D01*
X158287500Y-119620000D01*
X158262996Y-119618796D01*
X158238727Y-119615196D01*
X158214929Y-119609235D01*
X158191829Y-119600970D01*
X158169651Y-119590480D01*
X158148607Y-119577867D01*
X158128902Y-119563253D01*
X158110723Y-119546777D01*
X158094247Y-119528598D01*
X158079633Y-119508893D01*
X158067020Y-119487849D01*
X158056530Y-119465671D01*
X158048265Y-119442571D01*
X158042304Y-119418773D01*
X158038704Y-119394504D01*
X158037500Y-119370000D01*
X158037500Y-118120000D01*
X158038704Y-118095496D01*
X158042304Y-118071227D01*
X158048265Y-118047429D01*
X158056530Y-118024329D01*
X158067020Y-118002151D01*
X158079633Y-117981107D01*
X158094247Y-117961402D01*
X158110723Y-117943223D01*
X158128902Y-117926747D01*
X158148607Y-117912133D01*
X158169651Y-117899520D01*
X158191829Y-117889030D01*
X158214929Y-117880765D01*
X158238727Y-117874804D01*
X158262996Y-117871204D01*
X158287500Y-117870000D01*
X159212500Y-117870000D01*
X159237004Y-117871204D01*
G37*
G04 #@! TD.AperFunction*
G04 #@! TA.AperFunction,SMDPad,CuDef*
G36*
X156262004Y-117871204D02*
G01*
X156286273Y-117874804D01*
X156310071Y-117880765D01*
X156333171Y-117889030D01*
X156355349Y-117899520D01*
X156376393Y-117912133D01*
X156396098Y-117926747D01*
X156414277Y-117943223D01*
X156430753Y-117961402D01*
X156445367Y-117981107D01*
X156457980Y-118002151D01*
X156468470Y-118024329D01*
X156476735Y-118047429D01*
X156482696Y-118071227D01*
X156486296Y-118095496D01*
X156487500Y-118120000D01*
X156487500Y-119370000D01*
X156486296Y-119394504D01*
X156482696Y-119418773D01*
X156476735Y-119442571D01*
X156468470Y-119465671D01*
X156457980Y-119487849D01*
X156445367Y-119508893D01*
X156430753Y-119528598D01*
X156414277Y-119546777D01*
X156396098Y-119563253D01*
X156376393Y-119577867D01*
X156355349Y-119590480D01*
X156333171Y-119600970D01*
X156310071Y-119609235D01*
X156286273Y-119615196D01*
X156262004Y-119618796D01*
X156237500Y-119620000D01*
X155312500Y-119620000D01*
X155287996Y-119618796D01*
X155263727Y-119615196D01*
X155239929Y-119609235D01*
X155216829Y-119600970D01*
X155194651Y-119590480D01*
X155173607Y-119577867D01*
X155153902Y-119563253D01*
X155135723Y-119546777D01*
X155119247Y-119528598D01*
X155104633Y-119508893D01*
X155092020Y-119487849D01*
X155081530Y-119465671D01*
X155073265Y-119442571D01*
X155067304Y-119418773D01*
X155063704Y-119394504D01*
X155062500Y-119370000D01*
X155062500Y-118120000D01*
X155063704Y-118095496D01*
X155067304Y-118071227D01*
X155073265Y-118047429D01*
X155081530Y-118024329D01*
X155092020Y-118002151D01*
X155104633Y-117981107D01*
X155119247Y-117961402D01*
X155135723Y-117943223D01*
X155153902Y-117926747D01*
X155173607Y-117912133D01*
X155194651Y-117899520D01*
X155216829Y-117889030D01*
X155239929Y-117880765D01*
X155263727Y-117874804D01*
X155287996Y-117871204D01*
X155312500Y-117870000D01*
X156237500Y-117870000D01*
X156262004Y-117871204D01*
G37*
G04 #@! TD.AperFunction*
G04 #@! TA.AperFunction,SMDPad,CuDef*
G36*
X135221505Y-101271204D02*
G01*
X135245773Y-101274804D01*
X135269572Y-101280765D01*
X135292671Y-101289030D01*
X135314850Y-101299520D01*
X135335893Y-101312132D01*
X135355599Y-101326747D01*
X135373777Y-101343223D01*
X135390253Y-101361401D01*
X135404868Y-101381107D01*
X135417480Y-101402150D01*
X135427970Y-101424329D01*
X135436235Y-101447428D01*
X135442196Y-101471227D01*
X135445796Y-101495495D01*
X135447000Y-101519999D01*
X135447000Y-102170001D01*
X135445796Y-102194505D01*
X135442196Y-102218773D01*
X135436235Y-102242572D01*
X135427970Y-102265671D01*
X135417480Y-102287850D01*
X135404868Y-102308893D01*
X135390253Y-102328599D01*
X135373777Y-102346777D01*
X135355599Y-102363253D01*
X135335893Y-102377868D01*
X135314850Y-102390480D01*
X135292671Y-102400970D01*
X135269572Y-102409235D01*
X135245773Y-102415196D01*
X135221505Y-102418796D01*
X135197001Y-102420000D01*
X134296999Y-102420000D01*
X134272495Y-102418796D01*
X134248227Y-102415196D01*
X134224428Y-102409235D01*
X134201329Y-102400970D01*
X134179150Y-102390480D01*
X134158107Y-102377868D01*
X134138401Y-102363253D01*
X134120223Y-102346777D01*
X134103747Y-102328599D01*
X134089132Y-102308893D01*
X134076520Y-102287850D01*
X134066030Y-102265671D01*
X134057765Y-102242572D01*
X134051804Y-102218773D01*
X134048204Y-102194505D01*
X134047000Y-102170001D01*
X134047000Y-101519999D01*
X134048204Y-101495495D01*
X134051804Y-101471227D01*
X134057765Y-101447428D01*
X134066030Y-101424329D01*
X134076520Y-101402150D01*
X134089132Y-101381107D01*
X134103747Y-101361401D01*
X134120223Y-101343223D01*
X134138401Y-101326747D01*
X134158107Y-101312132D01*
X134179150Y-101299520D01*
X134201329Y-101289030D01*
X134224428Y-101280765D01*
X134248227Y-101274804D01*
X134272495Y-101271204D01*
X134296999Y-101270000D01*
X135197001Y-101270000D01*
X135221505Y-101271204D01*
G37*
G04 #@! TD.AperFunction*
G04 #@! TA.AperFunction,SMDPad,CuDef*
G36*
X135221505Y-103321204D02*
G01*
X135245773Y-103324804D01*
X135269572Y-103330765D01*
X135292671Y-103339030D01*
X135314850Y-103349520D01*
X135335893Y-103362132D01*
X135355599Y-103376747D01*
X135373777Y-103393223D01*
X135390253Y-103411401D01*
X135404868Y-103431107D01*
X135417480Y-103452150D01*
X135427970Y-103474329D01*
X135436235Y-103497428D01*
X135442196Y-103521227D01*
X135445796Y-103545495D01*
X135447000Y-103569999D01*
X135447000Y-104220001D01*
X135445796Y-104244505D01*
X135442196Y-104268773D01*
X135436235Y-104292572D01*
X135427970Y-104315671D01*
X135417480Y-104337850D01*
X135404868Y-104358893D01*
X135390253Y-104378599D01*
X135373777Y-104396777D01*
X135355599Y-104413253D01*
X135335893Y-104427868D01*
X135314850Y-104440480D01*
X135292671Y-104450970D01*
X135269572Y-104459235D01*
X135245773Y-104465196D01*
X135221505Y-104468796D01*
X135197001Y-104470000D01*
X134296999Y-104470000D01*
X134272495Y-104468796D01*
X134248227Y-104465196D01*
X134224428Y-104459235D01*
X134201329Y-104450970D01*
X134179150Y-104440480D01*
X134158107Y-104427868D01*
X134138401Y-104413253D01*
X134120223Y-104396777D01*
X134103747Y-104378599D01*
X134089132Y-104358893D01*
X134076520Y-104337850D01*
X134066030Y-104315671D01*
X134057765Y-104292572D01*
X134051804Y-104268773D01*
X134048204Y-104244505D01*
X134047000Y-104220001D01*
X134047000Y-103569999D01*
X134048204Y-103545495D01*
X134051804Y-103521227D01*
X134057765Y-103497428D01*
X134066030Y-103474329D01*
X134076520Y-103452150D01*
X134089132Y-103431107D01*
X134103747Y-103411401D01*
X134120223Y-103393223D01*
X134138401Y-103376747D01*
X134158107Y-103362132D01*
X134179150Y-103349520D01*
X134201329Y-103339030D01*
X134224428Y-103330765D01*
X134248227Y-103324804D01*
X134272495Y-103321204D01*
X134296999Y-103320000D01*
X135197001Y-103320000D01*
X135221505Y-103321204D01*
G37*
G04 #@! TD.AperFunction*
G04 #@! TA.AperFunction,SMDPad,CuDef*
G36*
X139532505Y-97853204D02*
G01*
X139556773Y-97856804D01*
X139580572Y-97862765D01*
X139603671Y-97871030D01*
X139625850Y-97881520D01*
X139646893Y-97894132D01*
X139666599Y-97908747D01*
X139684777Y-97925223D01*
X139701253Y-97943401D01*
X139715868Y-97963107D01*
X139728480Y-97984150D01*
X139738970Y-98006329D01*
X139747235Y-98029428D01*
X139753196Y-98053227D01*
X139756796Y-98077495D01*
X139758000Y-98101999D01*
X139758000Y-99002001D01*
X139756796Y-99026505D01*
X139753196Y-99050773D01*
X139747235Y-99074572D01*
X139738970Y-99097671D01*
X139728480Y-99119850D01*
X139715868Y-99140893D01*
X139701253Y-99160599D01*
X139684777Y-99178777D01*
X139666599Y-99195253D01*
X139646893Y-99209868D01*
X139625850Y-99222480D01*
X139603671Y-99232970D01*
X139580572Y-99241235D01*
X139556773Y-99247196D01*
X139532505Y-99250796D01*
X139508001Y-99252000D01*
X138857999Y-99252000D01*
X138833495Y-99250796D01*
X138809227Y-99247196D01*
X138785428Y-99241235D01*
X138762329Y-99232970D01*
X138740150Y-99222480D01*
X138719107Y-99209868D01*
X138699401Y-99195253D01*
X138681223Y-99178777D01*
X138664747Y-99160599D01*
X138650132Y-99140893D01*
X138637520Y-99119850D01*
X138627030Y-99097671D01*
X138618765Y-99074572D01*
X138612804Y-99050773D01*
X138609204Y-99026505D01*
X138608000Y-99002001D01*
X138608000Y-98101999D01*
X138609204Y-98077495D01*
X138612804Y-98053227D01*
X138618765Y-98029428D01*
X138627030Y-98006329D01*
X138637520Y-97984150D01*
X138650132Y-97963107D01*
X138664747Y-97943401D01*
X138681223Y-97925223D01*
X138699401Y-97908747D01*
X138719107Y-97894132D01*
X138740150Y-97881520D01*
X138762329Y-97871030D01*
X138785428Y-97862765D01*
X138809227Y-97856804D01*
X138833495Y-97853204D01*
X138857999Y-97852000D01*
X139508001Y-97852000D01*
X139532505Y-97853204D01*
G37*
G04 #@! TD.AperFunction*
G04 #@! TA.AperFunction,SMDPad,CuDef*
G36*
X141582505Y-97853204D02*
G01*
X141606773Y-97856804D01*
X141630572Y-97862765D01*
X141653671Y-97871030D01*
X141675850Y-97881520D01*
X141696893Y-97894132D01*
X141716599Y-97908747D01*
X141734777Y-97925223D01*
X141751253Y-97943401D01*
X141765868Y-97963107D01*
X141778480Y-97984150D01*
X141788970Y-98006329D01*
X141797235Y-98029428D01*
X141803196Y-98053227D01*
X141806796Y-98077495D01*
X141808000Y-98101999D01*
X141808000Y-99002001D01*
X141806796Y-99026505D01*
X141803196Y-99050773D01*
X141797235Y-99074572D01*
X141788970Y-99097671D01*
X141778480Y-99119850D01*
X141765868Y-99140893D01*
X141751253Y-99160599D01*
X141734777Y-99178777D01*
X141716599Y-99195253D01*
X141696893Y-99209868D01*
X141675850Y-99222480D01*
X141653671Y-99232970D01*
X141630572Y-99241235D01*
X141606773Y-99247196D01*
X141582505Y-99250796D01*
X141558001Y-99252000D01*
X140907999Y-99252000D01*
X140883495Y-99250796D01*
X140859227Y-99247196D01*
X140835428Y-99241235D01*
X140812329Y-99232970D01*
X140790150Y-99222480D01*
X140769107Y-99209868D01*
X140749401Y-99195253D01*
X140731223Y-99178777D01*
X140714747Y-99160599D01*
X140700132Y-99140893D01*
X140687520Y-99119850D01*
X140677030Y-99097671D01*
X140668765Y-99074572D01*
X140662804Y-99050773D01*
X140659204Y-99026505D01*
X140658000Y-99002001D01*
X140658000Y-98101999D01*
X140659204Y-98077495D01*
X140662804Y-98053227D01*
X140668765Y-98029428D01*
X140677030Y-98006329D01*
X140687520Y-97984150D01*
X140700132Y-97963107D01*
X140714747Y-97943401D01*
X140731223Y-97925223D01*
X140749401Y-97908747D01*
X140769107Y-97894132D01*
X140790150Y-97881520D01*
X140812329Y-97871030D01*
X140835428Y-97862765D01*
X140859227Y-97856804D01*
X140883495Y-97853204D01*
X140907999Y-97852000D01*
X141558001Y-97852000D01*
X141582505Y-97853204D01*
G37*
G04 #@! TD.AperFunction*
G04 #@! TA.AperFunction,SMDPad,CuDef*
G36*
X136883505Y-97853204D02*
G01*
X136907773Y-97856804D01*
X136931572Y-97862765D01*
X136954671Y-97871030D01*
X136976850Y-97881520D01*
X136997893Y-97894132D01*
X137017599Y-97908747D01*
X137035777Y-97925223D01*
X137052253Y-97943401D01*
X137066868Y-97963107D01*
X137079480Y-97984150D01*
X137089970Y-98006329D01*
X137098235Y-98029428D01*
X137104196Y-98053227D01*
X137107796Y-98077495D01*
X137109000Y-98101999D01*
X137109000Y-99002001D01*
X137107796Y-99026505D01*
X137104196Y-99050773D01*
X137098235Y-99074572D01*
X137089970Y-99097671D01*
X137079480Y-99119850D01*
X137066868Y-99140893D01*
X137052253Y-99160599D01*
X137035777Y-99178777D01*
X137017599Y-99195253D01*
X136997893Y-99209868D01*
X136976850Y-99222480D01*
X136954671Y-99232970D01*
X136931572Y-99241235D01*
X136907773Y-99247196D01*
X136883505Y-99250796D01*
X136859001Y-99252000D01*
X136208999Y-99252000D01*
X136184495Y-99250796D01*
X136160227Y-99247196D01*
X136136428Y-99241235D01*
X136113329Y-99232970D01*
X136091150Y-99222480D01*
X136070107Y-99209868D01*
X136050401Y-99195253D01*
X136032223Y-99178777D01*
X136015747Y-99160599D01*
X136001132Y-99140893D01*
X135988520Y-99119850D01*
X135978030Y-99097671D01*
X135969765Y-99074572D01*
X135963804Y-99050773D01*
X135960204Y-99026505D01*
X135959000Y-99002001D01*
X135959000Y-98101999D01*
X135960204Y-98077495D01*
X135963804Y-98053227D01*
X135969765Y-98029428D01*
X135978030Y-98006329D01*
X135988520Y-97984150D01*
X136001132Y-97963107D01*
X136015747Y-97943401D01*
X136032223Y-97925223D01*
X136050401Y-97908747D01*
X136070107Y-97894132D01*
X136091150Y-97881520D01*
X136113329Y-97871030D01*
X136136428Y-97862765D01*
X136160227Y-97856804D01*
X136184495Y-97853204D01*
X136208999Y-97852000D01*
X136859001Y-97852000D01*
X136883505Y-97853204D01*
G37*
G04 #@! TD.AperFunction*
G04 #@! TA.AperFunction,SMDPad,CuDef*
G36*
X134833505Y-97853204D02*
G01*
X134857773Y-97856804D01*
X134881572Y-97862765D01*
X134904671Y-97871030D01*
X134926850Y-97881520D01*
X134947893Y-97894132D01*
X134967599Y-97908747D01*
X134985777Y-97925223D01*
X135002253Y-97943401D01*
X135016868Y-97963107D01*
X135029480Y-97984150D01*
X135039970Y-98006329D01*
X135048235Y-98029428D01*
X135054196Y-98053227D01*
X135057796Y-98077495D01*
X135059000Y-98101999D01*
X135059000Y-99002001D01*
X135057796Y-99026505D01*
X135054196Y-99050773D01*
X135048235Y-99074572D01*
X135039970Y-99097671D01*
X135029480Y-99119850D01*
X135016868Y-99140893D01*
X135002253Y-99160599D01*
X134985777Y-99178777D01*
X134967599Y-99195253D01*
X134947893Y-99209868D01*
X134926850Y-99222480D01*
X134904671Y-99232970D01*
X134881572Y-99241235D01*
X134857773Y-99247196D01*
X134833505Y-99250796D01*
X134809001Y-99252000D01*
X134158999Y-99252000D01*
X134134495Y-99250796D01*
X134110227Y-99247196D01*
X134086428Y-99241235D01*
X134063329Y-99232970D01*
X134041150Y-99222480D01*
X134020107Y-99209868D01*
X134000401Y-99195253D01*
X133982223Y-99178777D01*
X133965747Y-99160599D01*
X133951132Y-99140893D01*
X133938520Y-99119850D01*
X133928030Y-99097671D01*
X133919765Y-99074572D01*
X133913804Y-99050773D01*
X133910204Y-99026505D01*
X133909000Y-99002001D01*
X133909000Y-98101999D01*
X133910204Y-98077495D01*
X133913804Y-98053227D01*
X133919765Y-98029428D01*
X133928030Y-98006329D01*
X133938520Y-97984150D01*
X133951132Y-97963107D01*
X133965747Y-97943401D01*
X133982223Y-97925223D01*
X134000401Y-97908747D01*
X134020107Y-97894132D01*
X134041150Y-97881520D01*
X134063329Y-97871030D01*
X134086428Y-97862765D01*
X134110227Y-97856804D01*
X134134495Y-97853204D01*
X134158999Y-97852000D01*
X134809001Y-97852000D01*
X134833505Y-97853204D01*
G37*
G04 #@! TD.AperFunction*
G04 #@! TA.AperFunction,SMDPad,CuDef*
G36*
X158482505Y-106743204D02*
G01*
X158506773Y-106746804D01*
X158530572Y-106752765D01*
X158553671Y-106761030D01*
X158575850Y-106771520D01*
X158596893Y-106784132D01*
X158616599Y-106798747D01*
X158634777Y-106815223D01*
X158651253Y-106833401D01*
X158665868Y-106853107D01*
X158678480Y-106874150D01*
X158688970Y-106896329D01*
X158697235Y-106919428D01*
X158703196Y-106943227D01*
X158706796Y-106967495D01*
X158708000Y-106991999D01*
X158708000Y-107892001D01*
X158706796Y-107916505D01*
X158703196Y-107940773D01*
X158697235Y-107964572D01*
X158688970Y-107987671D01*
X158678480Y-108009850D01*
X158665868Y-108030893D01*
X158651253Y-108050599D01*
X158634777Y-108068777D01*
X158616599Y-108085253D01*
X158596893Y-108099868D01*
X158575850Y-108112480D01*
X158553671Y-108122970D01*
X158530572Y-108131235D01*
X158506773Y-108137196D01*
X158482505Y-108140796D01*
X158458001Y-108142000D01*
X157807999Y-108142000D01*
X157783495Y-108140796D01*
X157759227Y-108137196D01*
X157735428Y-108131235D01*
X157712329Y-108122970D01*
X157690150Y-108112480D01*
X157669107Y-108099868D01*
X157649401Y-108085253D01*
X157631223Y-108068777D01*
X157614747Y-108050599D01*
X157600132Y-108030893D01*
X157587520Y-108009850D01*
X157577030Y-107987671D01*
X157568765Y-107964572D01*
X157562804Y-107940773D01*
X157559204Y-107916505D01*
X157558000Y-107892001D01*
X157558000Y-106991999D01*
X157559204Y-106967495D01*
X157562804Y-106943227D01*
X157568765Y-106919428D01*
X157577030Y-106896329D01*
X157587520Y-106874150D01*
X157600132Y-106853107D01*
X157614747Y-106833401D01*
X157631223Y-106815223D01*
X157649401Y-106798747D01*
X157669107Y-106784132D01*
X157690150Y-106771520D01*
X157712329Y-106761030D01*
X157735428Y-106752765D01*
X157759227Y-106746804D01*
X157783495Y-106743204D01*
X157807999Y-106742000D01*
X158458001Y-106742000D01*
X158482505Y-106743204D01*
G37*
G04 #@! TD.AperFunction*
G04 #@! TA.AperFunction,SMDPad,CuDef*
G36*
X156432505Y-106743204D02*
G01*
X156456773Y-106746804D01*
X156480572Y-106752765D01*
X156503671Y-106761030D01*
X156525850Y-106771520D01*
X156546893Y-106784132D01*
X156566599Y-106798747D01*
X156584777Y-106815223D01*
X156601253Y-106833401D01*
X156615868Y-106853107D01*
X156628480Y-106874150D01*
X156638970Y-106896329D01*
X156647235Y-106919428D01*
X156653196Y-106943227D01*
X156656796Y-106967495D01*
X156658000Y-106991999D01*
X156658000Y-107892001D01*
X156656796Y-107916505D01*
X156653196Y-107940773D01*
X156647235Y-107964572D01*
X156638970Y-107987671D01*
X156628480Y-108009850D01*
X156615868Y-108030893D01*
X156601253Y-108050599D01*
X156584777Y-108068777D01*
X156566599Y-108085253D01*
X156546893Y-108099868D01*
X156525850Y-108112480D01*
X156503671Y-108122970D01*
X156480572Y-108131235D01*
X156456773Y-108137196D01*
X156432505Y-108140796D01*
X156408001Y-108142000D01*
X155757999Y-108142000D01*
X155733495Y-108140796D01*
X155709227Y-108137196D01*
X155685428Y-108131235D01*
X155662329Y-108122970D01*
X155640150Y-108112480D01*
X155619107Y-108099868D01*
X155599401Y-108085253D01*
X155581223Y-108068777D01*
X155564747Y-108050599D01*
X155550132Y-108030893D01*
X155537520Y-108009850D01*
X155527030Y-107987671D01*
X155518765Y-107964572D01*
X155512804Y-107940773D01*
X155509204Y-107916505D01*
X155508000Y-107892001D01*
X155508000Y-106991999D01*
X155509204Y-106967495D01*
X155512804Y-106943227D01*
X155518765Y-106919428D01*
X155527030Y-106896329D01*
X155537520Y-106874150D01*
X155550132Y-106853107D01*
X155564747Y-106833401D01*
X155581223Y-106815223D01*
X155599401Y-106798747D01*
X155619107Y-106784132D01*
X155640150Y-106771520D01*
X155662329Y-106761030D01*
X155685428Y-106752765D01*
X155709227Y-106746804D01*
X155733495Y-106743204D01*
X155757999Y-106742000D01*
X156408001Y-106742000D01*
X156432505Y-106743204D01*
G37*
G04 #@! TD.AperFunction*
G04 #@! TA.AperFunction,SMDPad,CuDef*
G36*
X153636505Y-103820204D02*
G01*
X153660773Y-103823804D01*
X153684572Y-103829765D01*
X153707671Y-103838030D01*
X153729850Y-103848520D01*
X153750893Y-103861132D01*
X153770599Y-103875747D01*
X153788777Y-103892223D01*
X153805253Y-103910401D01*
X153819868Y-103930107D01*
X153832480Y-103951150D01*
X153842970Y-103973329D01*
X153851235Y-103996428D01*
X153857196Y-104020227D01*
X153860796Y-104044495D01*
X153862000Y-104068999D01*
X153862000Y-104719001D01*
X153860796Y-104743505D01*
X153857196Y-104767773D01*
X153851235Y-104791572D01*
X153842970Y-104814671D01*
X153832480Y-104836850D01*
X153819868Y-104857893D01*
X153805253Y-104877599D01*
X153788777Y-104895777D01*
X153770599Y-104912253D01*
X153750893Y-104926868D01*
X153729850Y-104939480D01*
X153707671Y-104949970D01*
X153684572Y-104958235D01*
X153660773Y-104964196D01*
X153636505Y-104967796D01*
X153612001Y-104969000D01*
X152711999Y-104969000D01*
X152687495Y-104967796D01*
X152663227Y-104964196D01*
X152639428Y-104958235D01*
X152616329Y-104949970D01*
X152594150Y-104939480D01*
X152573107Y-104926868D01*
X152553401Y-104912253D01*
X152535223Y-104895777D01*
X152518747Y-104877599D01*
X152504132Y-104857893D01*
X152491520Y-104836850D01*
X152481030Y-104814671D01*
X152472765Y-104791572D01*
X152466804Y-104767773D01*
X152463204Y-104743505D01*
X152462000Y-104719001D01*
X152462000Y-104068999D01*
X152463204Y-104044495D01*
X152466804Y-104020227D01*
X152472765Y-103996428D01*
X152481030Y-103973329D01*
X152491520Y-103951150D01*
X152504132Y-103930107D01*
X152518747Y-103910401D01*
X152535223Y-103892223D01*
X152553401Y-103875747D01*
X152573107Y-103861132D01*
X152594150Y-103848520D01*
X152616329Y-103838030D01*
X152639428Y-103829765D01*
X152663227Y-103823804D01*
X152687495Y-103820204D01*
X152711999Y-103819000D01*
X153612001Y-103819000D01*
X153636505Y-103820204D01*
G37*
G04 #@! TD.AperFunction*
G04 #@! TA.AperFunction,SMDPad,CuDef*
G36*
X153636505Y-105870204D02*
G01*
X153660773Y-105873804D01*
X153684572Y-105879765D01*
X153707671Y-105888030D01*
X153729850Y-105898520D01*
X153750893Y-105911132D01*
X153770599Y-105925747D01*
X153788777Y-105942223D01*
X153805253Y-105960401D01*
X153819868Y-105980107D01*
X153832480Y-106001150D01*
X153842970Y-106023329D01*
X153851235Y-106046428D01*
X153857196Y-106070227D01*
X153860796Y-106094495D01*
X153862000Y-106118999D01*
X153862000Y-106769001D01*
X153860796Y-106793505D01*
X153857196Y-106817773D01*
X153851235Y-106841572D01*
X153842970Y-106864671D01*
X153832480Y-106886850D01*
X153819868Y-106907893D01*
X153805253Y-106927599D01*
X153788777Y-106945777D01*
X153770599Y-106962253D01*
X153750893Y-106976868D01*
X153729850Y-106989480D01*
X153707671Y-106999970D01*
X153684572Y-107008235D01*
X153660773Y-107014196D01*
X153636505Y-107017796D01*
X153612001Y-107019000D01*
X152711999Y-107019000D01*
X152687495Y-107017796D01*
X152663227Y-107014196D01*
X152639428Y-107008235D01*
X152616329Y-106999970D01*
X152594150Y-106989480D01*
X152573107Y-106976868D01*
X152553401Y-106962253D01*
X152535223Y-106945777D01*
X152518747Y-106927599D01*
X152504132Y-106907893D01*
X152491520Y-106886850D01*
X152481030Y-106864671D01*
X152472765Y-106841572D01*
X152466804Y-106817773D01*
X152463204Y-106793505D01*
X152462000Y-106769001D01*
X152462000Y-106118999D01*
X152463204Y-106094495D01*
X152466804Y-106070227D01*
X152472765Y-106046428D01*
X152481030Y-106023329D01*
X152491520Y-106001150D01*
X152504132Y-105980107D01*
X152518747Y-105960401D01*
X152535223Y-105942223D01*
X152553401Y-105925747D01*
X152573107Y-105911132D01*
X152594150Y-105898520D01*
X152616329Y-105888030D01*
X152639428Y-105879765D01*
X152663227Y-105873804D01*
X152687495Y-105870204D01*
X152711999Y-105869000D01*
X153612001Y-105869000D01*
X153636505Y-105870204D01*
G37*
G04 #@! TD.AperFunction*
G04 #@! TA.AperFunction,SMDPad,CuDef*
G36*
X156684505Y-104201204D02*
G01*
X156708773Y-104204804D01*
X156732572Y-104210765D01*
X156755671Y-104219030D01*
X156777850Y-104229520D01*
X156798893Y-104242132D01*
X156818599Y-104256747D01*
X156836777Y-104273223D01*
X156853253Y-104291401D01*
X156867868Y-104311107D01*
X156880480Y-104332150D01*
X156890970Y-104354329D01*
X156899235Y-104377428D01*
X156905196Y-104401227D01*
X156908796Y-104425495D01*
X156910000Y-104449999D01*
X156910000Y-105100001D01*
X156908796Y-105124505D01*
X156905196Y-105148773D01*
X156899235Y-105172572D01*
X156890970Y-105195671D01*
X156880480Y-105217850D01*
X156867868Y-105238893D01*
X156853253Y-105258599D01*
X156836777Y-105276777D01*
X156818599Y-105293253D01*
X156798893Y-105307868D01*
X156777850Y-105320480D01*
X156755671Y-105330970D01*
X156732572Y-105339235D01*
X156708773Y-105345196D01*
X156684505Y-105348796D01*
X156660001Y-105350000D01*
X155759999Y-105350000D01*
X155735495Y-105348796D01*
X155711227Y-105345196D01*
X155687428Y-105339235D01*
X155664329Y-105330970D01*
X155642150Y-105320480D01*
X155621107Y-105307868D01*
X155601401Y-105293253D01*
X155583223Y-105276777D01*
X155566747Y-105258599D01*
X155552132Y-105238893D01*
X155539520Y-105217850D01*
X155529030Y-105195671D01*
X155520765Y-105172572D01*
X155514804Y-105148773D01*
X155511204Y-105124505D01*
X155510000Y-105100001D01*
X155510000Y-104449999D01*
X155511204Y-104425495D01*
X155514804Y-104401227D01*
X155520765Y-104377428D01*
X155529030Y-104354329D01*
X155539520Y-104332150D01*
X155552132Y-104311107D01*
X155566747Y-104291401D01*
X155583223Y-104273223D01*
X155601401Y-104256747D01*
X155621107Y-104242132D01*
X155642150Y-104229520D01*
X155664329Y-104219030D01*
X155687428Y-104210765D01*
X155711227Y-104204804D01*
X155735495Y-104201204D01*
X155759999Y-104200000D01*
X156660001Y-104200000D01*
X156684505Y-104201204D01*
G37*
G04 #@! TD.AperFunction*
G04 #@! TA.AperFunction,SMDPad,CuDef*
G36*
X156684505Y-102151204D02*
G01*
X156708773Y-102154804D01*
X156732572Y-102160765D01*
X156755671Y-102169030D01*
X156777850Y-102179520D01*
X156798893Y-102192132D01*
X156818599Y-102206747D01*
X156836777Y-102223223D01*
X156853253Y-102241401D01*
X156867868Y-102261107D01*
X156880480Y-102282150D01*
X156890970Y-102304329D01*
X156899235Y-102327428D01*
X156905196Y-102351227D01*
X156908796Y-102375495D01*
X156910000Y-102399999D01*
X156910000Y-103050001D01*
X156908796Y-103074505D01*
X156905196Y-103098773D01*
X156899235Y-103122572D01*
X156890970Y-103145671D01*
X156880480Y-103167850D01*
X156867868Y-103188893D01*
X156853253Y-103208599D01*
X156836777Y-103226777D01*
X156818599Y-103243253D01*
X156798893Y-103257868D01*
X156777850Y-103270480D01*
X156755671Y-103280970D01*
X156732572Y-103289235D01*
X156708773Y-103295196D01*
X156684505Y-103298796D01*
X156660001Y-103300000D01*
X155759999Y-103300000D01*
X155735495Y-103298796D01*
X155711227Y-103295196D01*
X155687428Y-103289235D01*
X155664329Y-103280970D01*
X155642150Y-103270480D01*
X155621107Y-103257868D01*
X155601401Y-103243253D01*
X155583223Y-103226777D01*
X155566747Y-103208599D01*
X155552132Y-103188893D01*
X155539520Y-103167850D01*
X155529030Y-103145671D01*
X155520765Y-103122572D01*
X155514804Y-103098773D01*
X155511204Y-103074505D01*
X155510000Y-103050001D01*
X155510000Y-102399999D01*
X155511204Y-102375495D01*
X155514804Y-102351227D01*
X155520765Y-102327428D01*
X155529030Y-102304329D01*
X155539520Y-102282150D01*
X155552132Y-102261107D01*
X155566747Y-102241401D01*
X155583223Y-102223223D01*
X155601401Y-102206747D01*
X155621107Y-102192132D01*
X155642150Y-102179520D01*
X155664329Y-102169030D01*
X155687428Y-102160765D01*
X155711227Y-102154804D01*
X155735495Y-102151204D01*
X155759999Y-102150000D01*
X156660001Y-102150000D01*
X156684505Y-102151204D01*
G37*
G04 #@! TD.AperFunction*
G04 #@! TA.AperFunction,SMDPad,CuDef*
G36*
X153636505Y-99230204D02*
G01*
X153660773Y-99233804D01*
X153684572Y-99239765D01*
X153707671Y-99248030D01*
X153729850Y-99258520D01*
X153750893Y-99271132D01*
X153770599Y-99285747D01*
X153788777Y-99302223D01*
X153805253Y-99320401D01*
X153819868Y-99340107D01*
X153832480Y-99361150D01*
X153842970Y-99383329D01*
X153851235Y-99406428D01*
X153857196Y-99430227D01*
X153860796Y-99454495D01*
X153862000Y-99478999D01*
X153862000Y-100129001D01*
X153860796Y-100153505D01*
X153857196Y-100177773D01*
X153851235Y-100201572D01*
X153842970Y-100224671D01*
X153832480Y-100246850D01*
X153819868Y-100267893D01*
X153805253Y-100287599D01*
X153788777Y-100305777D01*
X153770599Y-100322253D01*
X153750893Y-100336868D01*
X153729850Y-100349480D01*
X153707671Y-100359970D01*
X153684572Y-100368235D01*
X153660773Y-100374196D01*
X153636505Y-100377796D01*
X153612001Y-100379000D01*
X152711999Y-100379000D01*
X152687495Y-100377796D01*
X152663227Y-100374196D01*
X152639428Y-100368235D01*
X152616329Y-100359970D01*
X152594150Y-100349480D01*
X152573107Y-100336868D01*
X152553401Y-100322253D01*
X152535223Y-100305777D01*
X152518747Y-100287599D01*
X152504132Y-100267893D01*
X152491520Y-100246850D01*
X152481030Y-100224671D01*
X152472765Y-100201572D01*
X152466804Y-100177773D01*
X152463204Y-100153505D01*
X152462000Y-100129001D01*
X152462000Y-99478999D01*
X152463204Y-99454495D01*
X152466804Y-99430227D01*
X152472765Y-99406428D01*
X152481030Y-99383329D01*
X152491520Y-99361150D01*
X152504132Y-99340107D01*
X152518747Y-99320401D01*
X152535223Y-99302223D01*
X152553401Y-99285747D01*
X152573107Y-99271132D01*
X152594150Y-99258520D01*
X152616329Y-99248030D01*
X152639428Y-99239765D01*
X152663227Y-99233804D01*
X152687495Y-99230204D01*
X152711999Y-99229000D01*
X153612001Y-99229000D01*
X153636505Y-99230204D01*
G37*
G04 #@! TD.AperFunction*
G04 #@! TA.AperFunction,SMDPad,CuDef*
G36*
X153636505Y-101280204D02*
G01*
X153660773Y-101283804D01*
X153684572Y-101289765D01*
X153707671Y-101298030D01*
X153729850Y-101308520D01*
X153750893Y-101321132D01*
X153770599Y-101335747D01*
X153788777Y-101352223D01*
X153805253Y-101370401D01*
X153819868Y-101390107D01*
X153832480Y-101411150D01*
X153842970Y-101433329D01*
X153851235Y-101456428D01*
X153857196Y-101480227D01*
X153860796Y-101504495D01*
X153862000Y-101528999D01*
X153862000Y-102179001D01*
X153860796Y-102203505D01*
X153857196Y-102227773D01*
X153851235Y-102251572D01*
X153842970Y-102274671D01*
X153832480Y-102296850D01*
X153819868Y-102317893D01*
X153805253Y-102337599D01*
X153788777Y-102355777D01*
X153770599Y-102372253D01*
X153750893Y-102386868D01*
X153729850Y-102399480D01*
X153707671Y-102409970D01*
X153684572Y-102418235D01*
X153660773Y-102424196D01*
X153636505Y-102427796D01*
X153612001Y-102429000D01*
X152711999Y-102429000D01*
X152687495Y-102427796D01*
X152663227Y-102424196D01*
X152639428Y-102418235D01*
X152616329Y-102409970D01*
X152594150Y-102399480D01*
X152573107Y-102386868D01*
X152553401Y-102372253D01*
X152535223Y-102355777D01*
X152518747Y-102337599D01*
X152504132Y-102317893D01*
X152491520Y-102296850D01*
X152481030Y-102274671D01*
X152472765Y-102251572D01*
X152466804Y-102227773D01*
X152463204Y-102203505D01*
X152462000Y-102179001D01*
X152462000Y-101528999D01*
X152463204Y-101504495D01*
X152466804Y-101480227D01*
X152472765Y-101456428D01*
X152481030Y-101433329D01*
X152491520Y-101411150D01*
X152504132Y-101390107D01*
X152518747Y-101370401D01*
X152535223Y-101352223D01*
X152553401Y-101335747D01*
X152573107Y-101321132D01*
X152594150Y-101308520D01*
X152616329Y-101298030D01*
X152639428Y-101289765D01*
X152663227Y-101283804D01*
X152687495Y-101280204D01*
X152711999Y-101279000D01*
X153612001Y-101279000D01*
X153636505Y-101280204D01*
G37*
G04 #@! TD.AperFunction*
G04 #@! TA.AperFunction,SMDPad,CuDef*
G36*
X150717505Y-97599204D02*
G01*
X150741773Y-97602804D01*
X150765572Y-97608765D01*
X150788671Y-97617030D01*
X150810850Y-97627520D01*
X150831893Y-97640132D01*
X150851599Y-97654747D01*
X150869777Y-97671223D01*
X150886253Y-97689401D01*
X150900868Y-97709107D01*
X150913480Y-97730150D01*
X150923970Y-97752329D01*
X150932235Y-97775428D01*
X150938196Y-97799227D01*
X150941796Y-97823495D01*
X150943000Y-97847999D01*
X150943000Y-98748001D01*
X150941796Y-98772505D01*
X150938196Y-98796773D01*
X150932235Y-98820572D01*
X150923970Y-98843671D01*
X150913480Y-98865850D01*
X150900868Y-98886893D01*
X150886253Y-98906599D01*
X150869777Y-98924777D01*
X150851599Y-98941253D01*
X150831893Y-98955868D01*
X150810850Y-98968480D01*
X150788671Y-98978970D01*
X150765572Y-98987235D01*
X150741773Y-98993196D01*
X150717505Y-98996796D01*
X150693001Y-98998000D01*
X150042999Y-98998000D01*
X150018495Y-98996796D01*
X149994227Y-98993196D01*
X149970428Y-98987235D01*
X149947329Y-98978970D01*
X149925150Y-98968480D01*
X149904107Y-98955868D01*
X149884401Y-98941253D01*
X149866223Y-98924777D01*
X149849747Y-98906599D01*
X149835132Y-98886893D01*
X149822520Y-98865850D01*
X149812030Y-98843671D01*
X149803765Y-98820572D01*
X149797804Y-98796773D01*
X149794204Y-98772505D01*
X149793000Y-98748001D01*
X149793000Y-97847999D01*
X149794204Y-97823495D01*
X149797804Y-97799227D01*
X149803765Y-97775428D01*
X149812030Y-97752329D01*
X149822520Y-97730150D01*
X149835132Y-97709107D01*
X149849747Y-97689401D01*
X149866223Y-97671223D01*
X149884401Y-97654747D01*
X149904107Y-97640132D01*
X149925150Y-97627520D01*
X149947329Y-97617030D01*
X149970428Y-97608765D01*
X149994227Y-97602804D01*
X150018495Y-97599204D01*
X150042999Y-97598000D01*
X150693001Y-97598000D01*
X150717505Y-97599204D01*
G37*
G04 #@! TD.AperFunction*
G04 #@! TA.AperFunction,SMDPad,CuDef*
G36*
X148667505Y-97599204D02*
G01*
X148691773Y-97602804D01*
X148715572Y-97608765D01*
X148738671Y-97617030D01*
X148760850Y-97627520D01*
X148781893Y-97640132D01*
X148801599Y-97654747D01*
X148819777Y-97671223D01*
X148836253Y-97689401D01*
X148850868Y-97709107D01*
X148863480Y-97730150D01*
X148873970Y-97752329D01*
X148882235Y-97775428D01*
X148888196Y-97799227D01*
X148891796Y-97823495D01*
X148893000Y-97847999D01*
X148893000Y-98748001D01*
X148891796Y-98772505D01*
X148888196Y-98796773D01*
X148882235Y-98820572D01*
X148873970Y-98843671D01*
X148863480Y-98865850D01*
X148850868Y-98886893D01*
X148836253Y-98906599D01*
X148819777Y-98924777D01*
X148801599Y-98941253D01*
X148781893Y-98955868D01*
X148760850Y-98968480D01*
X148738671Y-98978970D01*
X148715572Y-98987235D01*
X148691773Y-98993196D01*
X148667505Y-98996796D01*
X148643001Y-98998000D01*
X147992999Y-98998000D01*
X147968495Y-98996796D01*
X147944227Y-98993196D01*
X147920428Y-98987235D01*
X147897329Y-98978970D01*
X147875150Y-98968480D01*
X147854107Y-98955868D01*
X147834401Y-98941253D01*
X147816223Y-98924777D01*
X147799747Y-98906599D01*
X147785132Y-98886893D01*
X147772520Y-98865850D01*
X147762030Y-98843671D01*
X147753765Y-98820572D01*
X147747804Y-98796773D01*
X147744204Y-98772505D01*
X147743000Y-98748001D01*
X147743000Y-97847999D01*
X147744204Y-97823495D01*
X147747804Y-97799227D01*
X147753765Y-97775428D01*
X147762030Y-97752329D01*
X147772520Y-97730150D01*
X147785132Y-97709107D01*
X147799747Y-97689401D01*
X147816223Y-97671223D01*
X147834401Y-97654747D01*
X147854107Y-97640132D01*
X147875150Y-97627520D01*
X147897329Y-97617030D01*
X147920428Y-97608765D01*
X147944227Y-97602804D01*
X147968495Y-97599204D01*
X147992999Y-97598000D01*
X148643001Y-97598000D01*
X148667505Y-97599204D01*
G37*
G04 #@! TD.AperFunction*
G04 #@! TA.AperFunction,SMDPad,CuDef*
G36*
X144619505Y-96445204D02*
G01*
X144643773Y-96448804D01*
X144667572Y-96454765D01*
X144690671Y-96463030D01*
X144712850Y-96473520D01*
X144733893Y-96486132D01*
X144753599Y-96500747D01*
X144771777Y-96517223D01*
X144788253Y-96535401D01*
X144802868Y-96555107D01*
X144815480Y-96576150D01*
X144825970Y-96598329D01*
X144834235Y-96621428D01*
X144840196Y-96645227D01*
X144843796Y-96669495D01*
X144845000Y-96693999D01*
X144845000Y-97344001D01*
X144843796Y-97368505D01*
X144840196Y-97392773D01*
X144834235Y-97416572D01*
X144825970Y-97439671D01*
X144815480Y-97461850D01*
X144802868Y-97482893D01*
X144788253Y-97502599D01*
X144771777Y-97520777D01*
X144753599Y-97537253D01*
X144733893Y-97551868D01*
X144712850Y-97564480D01*
X144690671Y-97574970D01*
X144667572Y-97583235D01*
X144643773Y-97589196D01*
X144619505Y-97592796D01*
X144595001Y-97594000D01*
X143694999Y-97594000D01*
X143670495Y-97592796D01*
X143646227Y-97589196D01*
X143622428Y-97583235D01*
X143599329Y-97574970D01*
X143577150Y-97564480D01*
X143556107Y-97551868D01*
X143536401Y-97537253D01*
X143518223Y-97520777D01*
X143501747Y-97502599D01*
X143487132Y-97482893D01*
X143474520Y-97461850D01*
X143464030Y-97439671D01*
X143455765Y-97416572D01*
X143449804Y-97392773D01*
X143446204Y-97368505D01*
X143445000Y-97344001D01*
X143445000Y-96693999D01*
X143446204Y-96669495D01*
X143449804Y-96645227D01*
X143455765Y-96621428D01*
X143464030Y-96598329D01*
X143474520Y-96576150D01*
X143487132Y-96555107D01*
X143501747Y-96535401D01*
X143518223Y-96517223D01*
X143536401Y-96500747D01*
X143556107Y-96486132D01*
X143577150Y-96473520D01*
X143599329Y-96463030D01*
X143622428Y-96454765D01*
X143646227Y-96448804D01*
X143670495Y-96445204D01*
X143694999Y-96444000D01*
X144595001Y-96444000D01*
X144619505Y-96445204D01*
G37*
G04 #@! TD.AperFunction*
G04 #@! TA.AperFunction,SMDPad,CuDef*
G36*
X144619505Y-98495204D02*
G01*
X144643773Y-98498804D01*
X144667572Y-98504765D01*
X144690671Y-98513030D01*
X144712850Y-98523520D01*
X144733893Y-98536132D01*
X144753599Y-98550747D01*
X144771777Y-98567223D01*
X144788253Y-98585401D01*
X144802868Y-98605107D01*
X144815480Y-98626150D01*
X144825970Y-98648329D01*
X144834235Y-98671428D01*
X144840196Y-98695227D01*
X144843796Y-98719495D01*
X144845000Y-98743999D01*
X144845000Y-99394001D01*
X144843796Y-99418505D01*
X144840196Y-99442773D01*
X144834235Y-99466572D01*
X144825970Y-99489671D01*
X144815480Y-99511850D01*
X144802868Y-99532893D01*
X144788253Y-99552599D01*
X144771777Y-99570777D01*
X144753599Y-99587253D01*
X144733893Y-99601868D01*
X144712850Y-99614480D01*
X144690671Y-99624970D01*
X144667572Y-99633235D01*
X144643773Y-99639196D01*
X144619505Y-99642796D01*
X144595001Y-99644000D01*
X143694999Y-99644000D01*
X143670495Y-99642796D01*
X143646227Y-99639196D01*
X143622428Y-99633235D01*
X143599329Y-99624970D01*
X143577150Y-99614480D01*
X143556107Y-99601868D01*
X143536401Y-99587253D01*
X143518223Y-99570777D01*
X143501747Y-99552599D01*
X143487132Y-99532893D01*
X143474520Y-99511850D01*
X143464030Y-99489671D01*
X143455765Y-99466572D01*
X143449804Y-99442773D01*
X143446204Y-99418505D01*
X143445000Y-99394001D01*
X143445000Y-98743999D01*
X143446204Y-98719495D01*
X143449804Y-98695227D01*
X143455765Y-98671428D01*
X143464030Y-98648329D01*
X143474520Y-98626150D01*
X143487132Y-98605107D01*
X143501747Y-98585401D01*
X143518223Y-98567223D01*
X143536401Y-98550747D01*
X143556107Y-98536132D01*
X143577150Y-98523520D01*
X143599329Y-98513030D01*
X143622428Y-98504765D01*
X143646227Y-98498804D01*
X143670495Y-98495204D01*
X143694999Y-98494000D01*
X144595001Y-98494000D01*
X144619505Y-98495204D01*
G37*
G04 #@! TD.AperFunction*
G04 #@! TA.AperFunction,SMDPad,CuDef*
G36*
X150634703Y-101300722D02*
G01*
X150649264Y-101302882D01*
X150663543Y-101306459D01*
X150677403Y-101311418D01*
X150690710Y-101317712D01*
X150703336Y-101325280D01*
X150715159Y-101334048D01*
X150726066Y-101343934D01*
X150735952Y-101354841D01*
X150744720Y-101366664D01*
X150752288Y-101379290D01*
X150758582Y-101392597D01*
X150763541Y-101406457D01*
X150767118Y-101420736D01*
X150769278Y-101435297D01*
X150770000Y-101450000D01*
X150770000Y-101750000D01*
X150769278Y-101764703D01*
X150767118Y-101779264D01*
X150763541Y-101793543D01*
X150758582Y-101807403D01*
X150752288Y-101820710D01*
X150744720Y-101833336D01*
X150735952Y-101845159D01*
X150726066Y-101856066D01*
X150715159Y-101865952D01*
X150703336Y-101874720D01*
X150690710Y-101882288D01*
X150677403Y-101888582D01*
X150663543Y-101893541D01*
X150649264Y-101897118D01*
X150634703Y-101899278D01*
X150620000Y-101900000D01*
X148970000Y-101900000D01*
X148955297Y-101899278D01*
X148940736Y-101897118D01*
X148926457Y-101893541D01*
X148912597Y-101888582D01*
X148899290Y-101882288D01*
X148886664Y-101874720D01*
X148874841Y-101865952D01*
X148863934Y-101856066D01*
X148854048Y-101845159D01*
X148845280Y-101833336D01*
X148837712Y-101820710D01*
X148831418Y-101807403D01*
X148826459Y-101793543D01*
X148822882Y-101779264D01*
X148820722Y-101764703D01*
X148820000Y-101750000D01*
X148820000Y-101450000D01*
X148820722Y-101435297D01*
X148822882Y-101420736D01*
X148826459Y-101406457D01*
X148831418Y-101392597D01*
X148837712Y-101379290D01*
X148845280Y-101366664D01*
X148854048Y-101354841D01*
X148863934Y-101343934D01*
X148874841Y-101334048D01*
X148886664Y-101325280D01*
X148899290Y-101317712D01*
X148912597Y-101311418D01*
X148926457Y-101306459D01*
X148940736Y-101302882D01*
X148955297Y-101300722D01*
X148970000Y-101300000D01*
X150620000Y-101300000D01*
X150634703Y-101300722D01*
G37*
G04 #@! TD.AperFunction*
G04 #@! TA.AperFunction,SMDPad,CuDef*
G36*
X150634703Y-102570722D02*
G01*
X150649264Y-102572882D01*
X150663543Y-102576459D01*
X150677403Y-102581418D01*
X150690710Y-102587712D01*
X150703336Y-102595280D01*
X150715159Y-102604048D01*
X150726066Y-102613934D01*
X150735952Y-102624841D01*
X150744720Y-102636664D01*
X150752288Y-102649290D01*
X150758582Y-102662597D01*
X150763541Y-102676457D01*
X150767118Y-102690736D01*
X150769278Y-102705297D01*
X150770000Y-102720000D01*
X150770000Y-103020000D01*
X150769278Y-103034703D01*
X150767118Y-103049264D01*
X150763541Y-103063543D01*
X150758582Y-103077403D01*
X150752288Y-103090710D01*
X150744720Y-103103336D01*
X150735952Y-103115159D01*
X150726066Y-103126066D01*
X150715159Y-103135952D01*
X150703336Y-103144720D01*
X150690710Y-103152288D01*
X150677403Y-103158582D01*
X150663543Y-103163541D01*
X150649264Y-103167118D01*
X150634703Y-103169278D01*
X150620000Y-103170000D01*
X148970000Y-103170000D01*
X148955297Y-103169278D01*
X148940736Y-103167118D01*
X148926457Y-103163541D01*
X148912597Y-103158582D01*
X148899290Y-103152288D01*
X148886664Y-103144720D01*
X148874841Y-103135952D01*
X148863934Y-103126066D01*
X148854048Y-103115159D01*
X148845280Y-103103336D01*
X148837712Y-103090710D01*
X148831418Y-103077403D01*
X148826459Y-103063543D01*
X148822882Y-103049264D01*
X148820722Y-103034703D01*
X148820000Y-103020000D01*
X148820000Y-102720000D01*
X148820722Y-102705297D01*
X148822882Y-102690736D01*
X148826459Y-102676457D01*
X148831418Y-102662597D01*
X148837712Y-102649290D01*
X148845280Y-102636664D01*
X148854048Y-102624841D01*
X148863934Y-102613934D01*
X148874841Y-102604048D01*
X148886664Y-102595280D01*
X148899290Y-102587712D01*
X148912597Y-102581418D01*
X148926457Y-102576459D01*
X148940736Y-102572882D01*
X148955297Y-102570722D01*
X148970000Y-102570000D01*
X150620000Y-102570000D01*
X150634703Y-102570722D01*
G37*
G04 #@! TD.AperFunction*
G04 #@! TA.AperFunction,SMDPad,CuDef*
G36*
X150634703Y-103840722D02*
G01*
X150649264Y-103842882D01*
X150663543Y-103846459D01*
X150677403Y-103851418D01*
X150690710Y-103857712D01*
X150703336Y-103865280D01*
X150715159Y-103874048D01*
X150726066Y-103883934D01*
X150735952Y-103894841D01*
X150744720Y-103906664D01*
X150752288Y-103919290D01*
X150758582Y-103932597D01*
X150763541Y-103946457D01*
X150767118Y-103960736D01*
X150769278Y-103975297D01*
X150770000Y-103990000D01*
X150770000Y-104290000D01*
X150769278Y-104304703D01*
X150767118Y-104319264D01*
X150763541Y-104333543D01*
X150758582Y-104347403D01*
X150752288Y-104360710D01*
X150744720Y-104373336D01*
X150735952Y-104385159D01*
X150726066Y-104396066D01*
X150715159Y-104405952D01*
X150703336Y-104414720D01*
X150690710Y-104422288D01*
X150677403Y-104428582D01*
X150663543Y-104433541D01*
X150649264Y-104437118D01*
X150634703Y-104439278D01*
X150620000Y-104440000D01*
X148970000Y-104440000D01*
X148955297Y-104439278D01*
X148940736Y-104437118D01*
X148926457Y-104433541D01*
X148912597Y-104428582D01*
X148899290Y-104422288D01*
X148886664Y-104414720D01*
X148874841Y-104405952D01*
X148863934Y-104396066D01*
X148854048Y-104385159D01*
X148845280Y-104373336D01*
X148837712Y-104360710D01*
X148831418Y-104347403D01*
X148826459Y-104333543D01*
X148822882Y-104319264D01*
X148820722Y-104304703D01*
X148820000Y-104290000D01*
X148820000Y-103990000D01*
X148820722Y-103975297D01*
X148822882Y-103960736D01*
X148826459Y-103946457D01*
X148831418Y-103932597D01*
X148837712Y-103919290D01*
X148845280Y-103906664D01*
X148854048Y-103894841D01*
X148863934Y-103883934D01*
X148874841Y-103874048D01*
X148886664Y-103865280D01*
X148899290Y-103857712D01*
X148912597Y-103851418D01*
X148926457Y-103846459D01*
X148940736Y-103842882D01*
X148955297Y-103840722D01*
X148970000Y-103840000D01*
X150620000Y-103840000D01*
X150634703Y-103840722D01*
G37*
G04 #@! TD.AperFunction*
G04 #@! TA.AperFunction,SMDPad,CuDef*
G36*
X150634703Y-105110722D02*
G01*
X150649264Y-105112882D01*
X150663543Y-105116459D01*
X150677403Y-105121418D01*
X150690710Y-105127712D01*
X150703336Y-105135280D01*
X150715159Y-105144048D01*
X150726066Y-105153934D01*
X150735952Y-105164841D01*
X150744720Y-105176664D01*
X150752288Y-105189290D01*
X150758582Y-105202597D01*
X150763541Y-105216457D01*
X150767118Y-105230736D01*
X150769278Y-105245297D01*
X150770000Y-105260000D01*
X150770000Y-105560000D01*
X150769278Y-105574703D01*
X150767118Y-105589264D01*
X150763541Y-105603543D01*
X150758582Y-105617403D01*
X150752288Y-105630710D01*
X150744720Y-105643336D01*
X150735952Y-105655159D01*
X150726066Y-105666066D01*
X150715159Y-105675952D01*
X150703336Y-105684720D01*
X150690710Y-105692288D01*
X150677403Y-105698582D01*
X150663543Y-105703541D01*
X150649264Y-105707118D01*
X150634703Y-105709278D01*
X150620000Y-105710000D01*
X148970000Y-105710000D01*
X148955297Y-105709278D01*
X148940736Y-105707118D01*
X148926457Y-105703541D01*
X148912597Y-105698582D01*
X148899290Y-105692288D01*
X148886664Y-105684720D01*
X148874841Y-105675952D01*
X148863934Y-105666066D01*
X148854048Y-105655159D01*
X148845280Y-105643336D01*
X148837712Y-105630710D01*
X148831418Y-105617403D01*
X148826459Y-105603543D01*
X148822882Y-105589264D01*
X148820722Y-105574703D01*
X148820000Y-105560000D01*
X148820000Y-105260000D01*
X148820722Y-105245297D01*
X148822882Y-105230736D01*
X148826459Y-105216457D01*
X148831418Y-105202597D01*
X148837712Y-105189290D01*
X148845280Y-105176664D01*
X148854048Y-105164841D01*
X148863934Y-105153934D01*
X148874841Y-105144048D01*
X148886664Y-105135280D01*
X148899290Y-105127712D01*
X148912597Y-105121418D01*
X148926457Y-105116459D01*
X148940736Y-105112882D01*
X148955297Y-105110722D01*
X148970000Y-105110000D01*
X150620000Y-105110000D01*
X150634703Y-105110722D01*
G37*
G04 #@! TD.AperFunction*
G04 #@! TA.AperFunction,SMDPad,CuDef*
G36*
X150634703Y-106380722D02*
G01*
X150649264Y-106382882D01*
X150663543Y-106386459D01*
X150677403Y-106391418D01*
X150690710Y-106397712D01*
X150703336Y-106405280D01*
X150715159Y-106414048D01*
X150726066Y-106423934D01*
X150735952Y-106434841D01*
X150744720Y-106446664D01*
X150752288Y-106459290D01*
X150758582Y-106472597D01*
X150763541Y-106486457D01*
X150767118Y-106500736D01*
X150769278Y-106515297D01*
X150770000Y-106530000D01*
X150770000Y-106830000D01*
X150769278Y-106844703D01*
X150767118Y-106859264D01*
X150763541Y-106873543D01*
X150758582Y-106887403D01*
X150752288Y-106900710D01*
X150744720Y-106913336D01*
X150735952Y-106925159D01*
X150726066Y-106936066D01*
X150715159Y-106945952D01*
X150703336Y-106954720D01*
X150690710Y-106962288D01*
X150677403Y-106968582D01*
X150663543Y-106973541D01*
X150649264Y-106977118D01*
X150634703Y-106979278D01*
X150620000Y-106980000D01*
X148970000Y-106980000D01*
X148955297Y-106979278D01*
X148940736Y-106977118D01*
X148926457Y-106973541D01*
X148912597Y-106968582D01*
X148899290Y-106962288D01*
X148886664Y-106954720D01*
X148874841Y-106945952D01*
X148863934Y-106936066D01*
X148854048Y-106925159D01*
X148845280Y-106913336D01*
X148837712Y-106900710D01*
X148831418Y-106887403D01*
X148826459Y-106873543D01*
X148822882Y-106859264D01*
X148820722Y-106844703D01*
X148820000Y-106830000D01*
X148820000Y-106530000D01*
X148820722Y-106515297D01*
X148822882Y-106500736D01*
X148826459Y-106486457D01*
X148831418Y-106472597D01*
X148837712Y-106459290D01*
X148845280Y-106446664D01*
X148854048Y-106434841D01*
X148863934Y-106423934D01*
X148874841Y-106414048D01*
X148886664Y-106405280D01*
X148899290Y-106397712D01*
X148912597Y-106391418D01*
X148926457Y-106386459D01*
X148940736Y-106382882D01*
X148955297Y-106380722D01*
X148970000Y-106380000D01*
X150620000Y-106380000D01*
X150634703Y-106380722D01*
G37*
G04 #@! TD.AperFunction*
G04 #@! TA.AperFunction,SMDPad,CuDef*
G36*
X150634703Y-107650722D02*
G01*
X150649264Y-107652882D01*
X150663543Y-107656459D01*
X150677403Y-107661418D01*
X150690710Y-107667712D01*
X150703336Y-107675280D01*
X150715159Y-107684048D01*
X150726066Y-107693934D01*
X150735952Y-107704841D01*
X150744720Y-107716664D01*
X150752288Y-107729290D01*
X150758582Y-107742597D01*
X150763541Y-107756457D01*
X150767118Y-107770736D01*
X150769278Y-107785297D01*
X150770000Y-107800000D01*
X150770000Y-108100000D01*
X150769278Y-108114703D01*
X150767118Y-108129264D01*
X150763541Y-108143543D01*
X150758582Y-108157403D01*
X150752288Y-108170710D01*
X150744720Y-108183336D01*
X150735952Y-108195159D01*
X150726066Y-108206066D01*
X150715159Y-108215952D01*
X150703336Y-108224720D01*
X150690710Y-108232288D01*
X150677403Y-108238582D01*
X150663543Y-108243541D01*
X150649264Y-108247118D01*
X150634703Y-108249278D01*
X150620000Y-108250000D01*
X148970000Y-108250000D01*
X148955297Y-108249278D01*
X148940736Y-108247118D01*
X148926457Y-108243541D01*
X148912597Y-108238582D01*
X148899290Y-108232288D01*
X148886664Y-108224720D01*
X148874841Y-108215952D01*
X148863934Y-108206066D01*
X148854048Y-108195159D01*
X148845280Y-108183336D01*
X148837712Y-108170710D01*
X148831418Y-108157403D01*
X148826459Y-108143543D01*
X148822882Y-108129264D01*
X148820722Y-108114703D01*
X148820000Y-108100000D01*
X148820000Y-107800000D01*
X148820722Y-107785297D01*
X148822882Y-107770736D01*
X148826459Y-107756457D01*
X148831418Y-107742597D01*
X148837712Y-107729290D01*
X148845280Y-107716664D01*
X148854048Y-107704841D01*
X148863934Y-107693934D01*
X148874841Y-107684048D01*
X148886664Y-107675280D01*
X148899290Y-107667712D01*
X148912597Y-107661418D01*
X148926457Y-107656459D01*
X148940736Y-107652882D01*
X148955297Y-107650722D01*
X148970000Y-107650000D01*
X150620000Y-107650000D01*
X150634703Y-107650722D01*
G37*
G04 #@! TD.AperFunction*
G04 #@! TA.AperFunction,SMDPad,CuDef*
G36*
X150634703Y-108920722D02*
G01*
X150649264Y-108922882D01*
X150663543Y-108926459D01*
X150677403Y-108931418D01*
X150690710Y-108937712D01*
X150703336Y-108945280D01*
X150715159Y-108954048D01*
X150726066Y-108963934D01*
X150735952Y-108974841D01*
X150744720Y-108986664D01*
X150752288Y-108999290D01*
X150758582Y-109012597D01*
X150763541Y-109026457D01*
X150767118Y-109040736D01*
X150769278Y-109055297D01*
X150770000Y-109070000D01*
X150770000Y-109370000D01*
X150769278Y-109384703D01*
X150767118Y-109399264D01*
X150763541Y-109413543D01*
X150758582Y-109427403D01*
X150752288Y-109440710D01*
X150744720Y-109453336D01*
X150735952Y-109465159D01*
X150726066Y-109476066D01*
X150715159Y-109485952D01*
X150703336Y-109494720D01*
X150690710Y-109502288D01*
X150677403Y-109508582D01*
X150663543Y-109513541D01*
X150649264Y-109517118D01*
X150634703Y-109519278D01*
X150620000Y-109520000D01*
X148970000Y-109520000D01*
X148955297Y-109519278D01*
X148940736Y-109517118D01*
X148926457Y-109513541D01*
X148912597Y-109508582D01*
X148899290Y-109502288D01*
X148886664Y-109494720D01*
X148874841Y-109485952D01*
X148863934Y-109476066D01*
X148854048Y-109465159D01*
X148845280Y-109453336D01*
X148837712Y-109440710D01*
X148831418Y-109427403D01*
X148826459Y-109413543D01*
X148822882Y-109399264D01*
X148820722Y-109384703D01*
X148820000Y-109370000D01*
X148820000Y-109070000D01*
X148820722Y-109055297D01*
X148822882Y-109040736D01*
X148826459Y-109026457D01*
X148831418Y-109012597D01*
X148837712Y-108999290D01*
X148845280Y-108986664D01*
X148854048Y-108974841D01*
X148863934Y-108963934D01*
X148874841Y-108954048D01*
X148886664Y-108945280D01*
X148899290Y-108937712D01*
X148912597Y-108931418D01*
X148926457Y-108926459D01*
X148940736Y-108922882D01*
X148955297Y-108920722D01*
X148970000Y-108920000D01*
X150620000Y-108920000D01*
X150634703Y-108920722D01*
G37*
G04 #@! TD.AperFunction*
G04 #@! TA.AperFunction,SMDPad,CuDef*
G36*
X150634703Y-110190722D02*
G01*
X150649264Y-110192882D01*
X150663543Y-110196459D01*
X150677403Y-110201418D01*
X150690710Y-110207712D01*
X150703336Y-110215280D01*
X150715159Y-110224048D01*
X150726066Y-110233934D01*
X150735952Y-110244841D01*
X150744720Y-110256664D01*
X150752288Y-110269290D01*
X150758582Y-110282597D01*
X150763541Y-110296457D01*
X150767118Y-110310736D01*
X150769278Y-110325297D01*
X150770000Y-110340000D01*
X150770000Y-110640000D01*
X150769278Y-110654703D01*
X150767118Y-110669264D01*
X150763541Y-110683543D01*
X150758582Y-110697403D01*
X150752288Y-110710710D01*
X150744720Y-110723336D01*
X150735952Y-110735159D01*
X150726066Y-110746066D01*
X150715159Y-110755952D01*
X150703336Y-110764720D01*
X150690710Y-110772288D01*
X150677403Y-110778582D01*
X150663543Y-110783541D01*
X150649264Y-110787118D01*
X150634703Y-110789278D01*
X150620000Y-110790000D01*
X148970000Y-110790000D01*
X148955297Y-110789278D01*
X148940736Y-110787118D01*
X148926457Y-110783541D01*
X148912597Y-110778582D01*
X148899290Y-110772288D01*
X148886664Y-110764720D01*
X148874841Y-110755952D01*
X148863934Y-110746066D01*
X148854048Y-110735159D01*
X148845280Y-110723336D01*
X148837712Y-110710710D01*
X148831418Y-110697403D01*
X148826459Y-110683543D01*
X148822882Y-110669264D01*
X148820722Y-110654703D01*
X148820000Y-110640000D01*
X148820000Y-110340000D01*
X148820722Y-110325297D01*
X148822882Y-110310736D01*
X148826459Y-110296457D01*
X148831418Y-110282597D01*
X148837712Y-110269290D01*
X148845280Y-110256664D01*
X148854048Y-110244841D01*
X148863934Y-110233934D01*
X148874841Y-110224048D01*
X148886664Y-110215280D01*
X148899290Y-110207712D01*
X148912597Y-110201418D01*
X148926457Y-110196459D01*
X148940736Y-110192882D01*
X148955297Y-110190722D01*
X148970000Y-110190000D01*
X150620000Y-110190000D01*
X150634703Y-110190722D01*
G37*
G04 #@! TD.AperFunction*
G04 #@! TA.AperFunction,SMDPad,CuDef*
G36*
X145684703Y-110190722D02*
G01*
X145699264Y-110192882D01*
X145713543Y-110196459D01*
X145727403Y-110201418D01*
X145740710Y-110207712D01*
X145753336Y-110215280D01*
X145765159Y-110224048D01*
X145776066Y-110233934D01*
X145785952Y-110244841D01*
X145794720Y-110256664D01*
X145802288Y-110269290D01*
X145808582Y-110282597D01*
X145813541Y-110296457D01*
X145817118Y-110310736D01*
X145819278Y-110325297D01*
X145820000Y-110340000D01*
X145820000Y-110640000D01*
X145819278Y-110654703D01*
X145817118Y-110669264D01*
X145813541Y-110683543D01*
X145808582Y-110697403D01*
X145802288Y-110710710D01*
X145794720Y-110723336D01*
X145785952Y-110735159D01*
X145776066Y-110746066D01*
X145765159Y-110755952D01*
X145753336Y-110764720D01*
X145740710Y-110772288D01*
X145727403Y-110778582D01*
X145713543Y-110783541D01*
X145699264Y-110787118D01*
X145684703Y-110789278D01*
X145670000Y-110790000D01*
X144020000Y-110790000D01*
X144005297Y-110789278D01*
X143990736Y-110787118D01*
X143976457Y-110783541D01*
X143962597Y-110778582D01*
X143949290Y-110772288D01*
X143936664Y-110764720D01*
X143924841Y-110755952D01*
X143913934Y-110746066D01*
X143904048Y-110735159D01*
X143895280Y-110723336D01*
X143887712Y-110710710D01*
X143881418Y-110697403D01*
X143876459Y-110683543D01*
X143872882Y-110669264D01*
X143870722Y-110654703D01*
X143870000Y-110640000D01*
X143870000Y-110340000D01*
X143870722Y-110325297D01*
X143872882Y-110310736D01*
X143876459Y-110296457D01*
X143881418Y-110282597D01*
X143887712Y-110269290D01*
X143895280Y-110256664D01*
X143904048Y-110244841D01*
X143913934Y-110233934D01*
X143924841Y-110224048D01*
X143936664Y-110215280D01*
X143949290Y-110207712D01*
X143962597Y-110201418D01*
X143976457Y-110196459D01*
X143990736Y-110192882D01*
X144005297Y-110190722D01*
X144020000Y-110190000D01*
X145670000Y-110190000D01*
X145684703Y-110190722D01*
G37*
G04 #@! TD.AperFunction*
G04 #@! TA.AperFunction,SMDPad,CuDef*
G36*
X145684703Y-108920722D02*
G01*
X145699264Y-108922882D01*
X145713543Y-108926459D01*
X145727403Y-108931418D01*
X145740710Y-108937712D01*
X145753336Y-108945280D01*
X145765159Y-108954048D01*
X145776066Y-108963934D01*
X145785952Y-108974841D01*
X145794720Y-108986664D01*
X145802288Y-108999290D01*
X145808582Y-109012597D01*
X145813541Y-109026457D01*
X145817118Y-109040736D01*
X145819278Y-109055297D01*
X145820000Y-109070000D01*
X145820000Y-109370000D01*
X145819278Y-109384703D01*
X145817118Y-109399264D01*
X145813541Y-109413543D01*
X145808582Y-109427403D01*
X145802288Y-109440710D01*
X145794720Y-109453336D01*
X145785952Y-109465159D01*
X145776066Y-109476066D01*
X145765159Y-109485952D01*
X145753336Y-109494720D01*
X145740710Y-109502288D01*
X145727403Y-109508582D01*
X145713543Y-109513541D01*
X145699264Y-109517118D01*
X145684703Y-109519278D01*
X145670000Y-109520000D01*
X144020000Y-109520000D01*
X144005297Y-109519278D01*
X143990736Y-109517118D01*
X143976457Y-109513541D01*
X143962597Y-109508582D01*
X143949290Y-109502288D01*
X143936664Y-109494720D01*
X143924841Y-109485952D01*
X143913934Y-109476066D01*
X143904048Y-109465159D01*
X143895280Y-109453336D01*
X143887712Y-109440710D01*
X143881418Y-109427403D01*
X143876459Y-109413543D01*
X143872882Y-109399264D01*
X143870722Y-109384703D01*
X143870000Y-109370000D01*
X143870000Y-109070000D01*
X143870722Y-109055297D01*
X143872882Y-109040736D01*
X143876459Y-109026457D01*
X143881418Y-109012597D01*
X143887712Y-108999290D01*
X143895280Y-108986664D01*
X143904048Y-108974841D01*
X143913934Y-108963934D01*
X143924841Y-108954048D01*
X143936664Y-108945280D01*
X143949290Y-108937712D01*
X143962597Y-108931418D01*
X143976457Y-108926459D01*
X143990736Y-108922882D01*
X144005297Y-108920722D01*
X144020000Y-108920000D01*
X145670000Y-108920000D01*
X145684703Y-108920722D01*
G37*
G04 #@! TD.AperFunction*
G04 #@! TA.AperFunction,SMDPad,CuDef*
G36*
X145684703Y-107650722D02*
G01*
X145699264Y-107652882D01*
X145713543Y-107656459D01*
X145727403Y-107661418D01*
X145740710Y-107667712D01*
X145753336Y-107675280D01*
X145765159Y-107684048D01*
X145776066Y-107693934D01*
X145785952Y-107704841D01*
X145794720Y-107716664D01*
X145802288Y-107729290D01*
X145808582Y-107742597D01*
X145813541Y-107756457D01*
X145817118Y-107770736D01*
X145819278Y-107785297D01*
X145820000Y-107800000D01*
X145820000Y-108100000D01*
X145819278Y-108114703D01*
X145817118Y-108129264D01*
X145813541Y-108143543D01*
X145808582Y-108157403D01*
X145802288Y-108170710D01*
X145794720Y-108183336D01*
X145785952Y-108195159D01*
X145776066Y-108206066D01*
X145765159Y-108215952D01*
X145753336Y-108224720D01*
X145740710Y-108232288D01*
X145727403Y-108238582D01*
X145713543Y-108243541D01*
X145699264Y-108247118D01*
X145684703Y-108249278D01*
X145670000Y-108250000D01*
X144020000Y-108250000D01*
X144005297Y-108249278D01*
X143990736Y-108247118D01*
X143976457Y-108243541D01*
X143962597Y-108238582D01*
X143949290Y-108232288D01*
X143936664Y-108224720D01*
X143924841Y-108215952D01*
X143913934Y-108206066D01*
X143904048Y-108195159D01*
X143895280Y-108183336D01*
X143887712Y-108170710D01*
X143881418Y-108157403D01*
X143876459Y-108143543D01*
X143872882Y-108129264D01*
X143870722Y-108114703D01*
X143870000Y-108100000D01*
X143870000Y-107800000D01*
X143870722Y-107785297D01*
X143872882Y-107770736D01*
X143876459Y-107756457D01*
X143881418Y-107742597D01*
X143887712Y-107729290D01*
X143895280Y-107716664D01*
X143904048Y-107704841D01*
X143913934Y-107693934D01*
X143924841Y-107684048D01*
X143936664Y-107675280D01*
X143949290Y-107667712D01*
X143962597Y-107661418D01*
X143976457Y-107656459D01*
X143990736Y-107652882D01*
X144005297Y-107650722D01*
X144020000Y-107650000D01*
X145670000Y-107650000D01*
X145684703Y-107650722D01*
G37*
G04 #@! TD.AperFunction*
G04 #@! TA.AperFunction,SMDPad,CuDef*
G36*
X145684703Y-106380722D02*
G01*
X145699264Y-106382882D01*
X145713543Y-106386459D01*
X145727403Y-106391418D01*
X145740710Y-106397712D01*
X145753336Y-106405280D01*
X145765159Y-106414048D01*
X145776066Y-106423934D01*
X145785952Y-106434841D01*
X145794720Y-106446664D01*
X145802288Y-106459290D01*
X145808582Y-106472597D01*
X145813541Y-106486457D01*
X145817118Y-106500736D01*
X145819278Y-106515297D01*
X145820000Y-106530000D01*
X145820000Y-106830000D01*
X145819278Y-106844703D01*
X145817118Y-106859264D01*
X145813541Y-106873543D01*
X145808582Y-106887403D01*
X145802288Y-106900710D01*
X145794720Y-106913336D01*
X145785952Y-106925159D01*
X145776066Y-106936066D01*
X145765159Y-106945952D01*
X145753336Y-106954720D01*
X145740710Y-106962288D01*
X145727403Y-106968582D01*
X145713543Y-106973541D01*
X145699264Y-106977118D01*
X145684703Y-106979278D01*
X145670000Y-106980000D01*
X144020000Y-106980000D01*
X144005297Y-106979278D01*
X143990736Y-106977118D01*
X143976457Y-106973541D01*
X143962597Y-106968582D01*
X143949290Y-106962288D01*
X143936664Y-106954720D01*
X143924841Y-106945952D01*
X143913934Y-106936066D01*
X143904048Y-106925159D01*
X143895280Y-106913336D01*
X143887712Y-106900710D01*
X143881418Y-106887403D01*
X143876459Y-106873543D01*
X143872882Y-106859264D01*
X143870722Y-106844703D01*
X143870000Y-106830000D01*
X143870000Y-106530000D01*
X143870722Y-106515297D01*
X143872882Y-106500736D01*
X143876459Y-106486457D01*
X143881418Y-106472597D01*
X143887712Y-106459290D01*
X143895280Y-106446664D01*
X143904048Y-106434841D01*
X143913934Y-106423934D01*
X143924841Y-106414048D01*
X143936664Y-106405280D01*
X143949290Y-106397712D01*
X143962597Y-106391418D01*
X143976457Y-106386459D01*
X143990736Y-106382882D01*
X144005297Y-106380722D01*
X144020000Y-106380000D01*
X145670000Y-106380000D01*
X145684703Y-106380722D01*
G37*
G04 #@! TD.AperFunction*
G04 #@! TA.AperFunction,SMDPad,CuDef*
G36*
X145684703Y-105110722D02*
G01*
X145699264Y-105112882D01*
X145713543Y-105116459D01*
X145727403Y-105121418D01*
X145740710Y-105127712D01*
X145753336Y-105135280D01*
X145765159Y-105144048D01*
X145776066Y-105153934D01*
X145785952Y-105164841D01*
X145794720Y-105176664D01*
X145802288Y-105189290D01*
X145808582Y-105202597D01*
X145813541Y-105216457D01*
X145817118Y-105230736D01*
X145819278Y-105245297D01*
X145820000Y-105260000D01*
X145820000Y-105560000D01*
X145819278Y-105574703D01*
X145817118Y-105589264D01*
X145813541Y-105603543D01*
X145808582Y-105617403D01*
X145802288Y-105630710D01*
X145794720Y-105643336D01*
X145785952Y-105655159D01*
X145776066Y-105666066D01*
X145765159Y-105675952D01*
X145753336Y-105684720D01*
X145740710Y-105692288D01*
X145727403Y-105698582D01*
X145713543Y-105703541D01*
X145699264Y-105707118D01*
X145684703Y-105709278D01*
X145670000Y-105710000D01*
X144020000Y-105710000D01*
X144005297Y-105709278D01*
X143990736Y-105707118D01*
X143976457Y-105703541D01*
X143962597Y-105698582D01*
X143949290Y-105692288D01*
X143936664Y-105684720D01*
X143924841Y-105675952D01*
X143913934Y-105666066D01*
X143904048Y-105655159D01*
X143895280Y-105643336D01*
X143887712Y-105630710D01*
X143881418Y-105617403D01*
X143876459Y-105603543D01*
X143872882Y-105589264D01*
X143870722Y-105574703D01*
X143870000Y-105560000D01*
X143870000Y-105260000D01*
X143870722Y-105245297D01*
X143872882Y-105230736D01*
X143876459Y-105216457D01*
X143881418Y-105202597D01*
X143887712Y-105189290D01*
X143895280Y-105176664D01*
X143904048Y-105164841D01*
X143913934Y-105153934D01*
X143924841Y-105144048D01*
X143936664Y-105135280D01*
X143949290Y-105127712D01*
X143962597Y-105121418D01*
X143976457Y-105116459D01*
X143990736Y-105112882D01*
X144005297Y-105110722D01*
X144020000Y-105110000D01*
X145670000Y-105110000D01*
X145684703Y-105110722D01*
G37*
G04 #@! TD.AperFunction*
G04 #@! TA.AperFunction,SMDPad,CuDef*
G36*
X145684703Y-103840722D02*
G01*
X145699264Y-103842882D01*
X145713543Y-103846459D01*
X145727403Y-103851418D01*
X145740710Y-103857712D01*
X145753336Y-103865280D01*
X145765159Y-103874048D01*
X145776066Y-103883934D01*
X145785952Y-103894841D01*
X145794720Y-103906664D01*
X145802288Y-103919290D01*
X145808582Y-103932597D01*
X145813541Y-103946457D01*
X145817118Y-103960736D01*
X145819278Y-103975297D01*
X145820000Y-103990000D01*
X145820000Y-104290000D01*
X145819278Y-104304703D01*
X145817118Y-104319264D01*
X145813541Y-104333543D01*
X145808582Y-104347403D01*
X145802288Y-104360710D01*
X145794720Y-104373336D01*
X145785952Y-104385159D01*
X145776066Y-104396066D01*
X145765159Y-104405952D01*
X145753336Y-104414720D01*
X145740710Y-104422288D01*
X145727403Y-104428582D01*
X145713543Y-104433541D01*
X145699264Y-104437118D01*
X145684703Y-104439278D01*
X145670000Y-104440000D01*
X144020000Y-104440000D01*
X144005297Y-104439278D01*
X143990736Y-104437118D01*
X143976457Y-104433541D01*
X143962597Y-104428582D01*
X143949290Y-104422288D01*
X143936664Y-104414720D01*
X143924841Y-104405952D01*
X143913934Y-104396066D01*
X143904048Y-104385159D01*
X143895280Y-104373336D01*
X143887712Y-104360710D01*
X143881418Y-104347403D01*
X143876459Y-104333543D01*
X143872882Y-104319264D01*
X143870722Y-104304703D01*
X143870000Y-104290000D01*
X143870000Y-103990000D01*
X143870722Y-103975297D01*
X143872882Y-103960736D01*
X143876459Y-103946457D01*
X143881418Y-103932597D01*
X143887712Y-103919290D01*
X143895280Y-103906664D01*
X143904048Y-103894841D01*
X143913934Y-103883934D01*
X143924841Y-103874048D01*
X143936664Y-103865280D01*
X143949290Y-103857712D01*
X143962597Y-103851418D01*
X143976457Y-103846459D01*
X143990736Y-103842882D01*
X144005297Y-103840722D01*
X144020000Y-103840000D01*
X145670000Y-103840000D01*
X145684703Y-103840722D01*
G37*
G04 #@! TD.AperFunction*
G04 #@! TA.AperFunction,SMDPad,CuDef*
G36*
X145684703Y-102570722D02*
G01*
X145699264Y-102572882D01*
X145713543Y-102576459D01*
X145727403Y-102581418D01*
X145740710Y-102587712D01*
X145753336Y-102595280D01*
X145765159Y-102604048D01*
X145776066Y-102613934D01*
X145785952Y-102624841D01*
X145794720Y-102636664D01*
X145802288Y-102649290D01*
X145808582Y-102662597D01*
X145813541Y-102676457D01*
X145817118Y-102690736D01*
X145819278Y-102705297D01*
X145820000Y-102720000D01*
X145820000Y-103020000D01*
X145819278Y-103034703D01*
X145817118Y-103049264D01*
X145813541Y-103063543D01*
X145808582Y-103077403D01*
X145802288Y-103090710D01*
X145794720Y-103103336D01*
X145785952Y-103115159D01*
X145776066Y-103126066D01*
X145765159Y-103135952D01*
X145753336Y-103144720D01*
X145740710Y-103152288D01*
X145727403Y-103158582D01*
X145713543Y-103163541D01*
X145699264Y-103167118D01*
X145684703Y-103169278D01*
X145670000Y-103170000D01*
X144020000Y-103170000D01*
X144005297Y-103169278D01*
X143990736Y-103167118D01*
X143976457Y-103163541D01*
X143962597Y-103158582D01*
X143949290Y-103152288D01*
X143936664Y-103144720D01*
X143924841Y-103135952D01*
X143913934Y-103126066D01*
X143904048Y-103115159D01*
X143895280Y-103103336D01*
X143887712Y-103090710D01*
X143881418Y-103077403D01*
X143876459Y-103063543D01*
X143872882Y-103049264D01*
X143870722Y-103034703D01*
X143870000Y-103020000D01*
X143870000Y-102720000D01*
X143870722Y-102705297D01*
X143872882Y-102690736D01*
X143876459Y-102676457D01*
X143881418Y-102662597D01*
X143887712Y-102649290D01*
X143895280Y-102636664D01*
X143904048Y-102624841D01*
X143913934Y-102613934D01*
X143924841Y-102604048D01*
X143936664Y-102595280D01*
X143949290Y-102587712D01*
X143962597Y-102581418D01*
X143976457Y-102576459D01*
X143990736Y-102572882D01*
X144005297Y-102570722D01*
X144020000Y-102570000D01*
X145670000Y-102570000D01*
X145684703Y-102570722D01*
G37*
G04 #@! TD.AperFunction*
G04 #@! TA.AperFunction,SMDPad,CuDef*
G36*
X145684703Y-101300722D02*
G01*
X145699264Y-101302882D01*
X145713543Y-101306459D01*
X145727403Y-101311418D01*
X145740710Y-101317712D01*
X145753336Y-101325280D01*
X145765159Y-101334048D01*
X145776066Y-101343934D01*
X145785952Y-101354841D01*
X145794720Y-101366664D01*
X145802288Y-101379290D01*
X145808582Y-101392597D01*
X145813541Y-101406457D01*
X145817118Y-101420736D01*
X145819278Y-101435297D01*
X145820000Y-101450000D01*
X145820000Y-101750000D01*
X145819278Y-101764703D01*
X145817118Y-101779264D01*
X145813541Y-101793543D01*
X145808582Y-101807403D01*
X145802288Y-101820710D01*
X145794720Y-101833336D01*
X145785952Y-101845159D01*
X145776066Y-101856066D01*
X145765159Y-101865952D01*
X145753336Y-101874720D01*
X145740710Y-101882288D01*
X145727403Y-101888582D01*
X145713543Y-101893541D01*
X145699264Y-101897118D01*
X145684703Y-101899278D01*
X145670000Y-101900000D01*
X144020000Y-101900000D01*
X144005297Y-101899278D01*
X143990736Y-101897118D01*
X143976457Y-101893541D01*
X143962597Y-101888582D01*
X143949290Y-101882288D01*
X143936664Y-101874720D01*
X143924841Y-101865952D01*
X143913934Y-101856066D01*
X143904048Y-101845159D01*
X143895280Y-101833336D01*
X143887712Y-101820710D01*
X143881418Y-101807403D01*
X143876459Y-101793543D01*
X143872882Y-101779264D01*
X143870722Y-101764703D01*
X143870000Y-101750000D01*
X143870000Y-101450000D01*
X143870722Y-101435297D01*
X143872882Y-101420736D01*
X143876459Y-101406457D01*
X143881418Y-101392597D01*
X143887712Y-101379290D01*
X143895280Y-101366664D01*
X143904048Y-101354841D01*
X143913934Y-101343934D01*
X143924841Y-101334048D01*
X143936664Y-101325280D01*
X143949290Y-101317712D01*
X143962597Y-101311418D01*
X143976457Y-101306459D01*
X143990736Y-101302882D01*
X144005297Y-101300722D01*
X144020000Y-101300000D01*
X145670000Y-101300000D01*
X145684703Y-101300722D01*
G37*
G04 #@! TD.AperFunction*
G04 #@! TA.AperFunction,SMDPad,CuDef*
G36*
X132284505Y-112966204D02*
G01*
X132308773Y-112969804D01*
X132332572Y-112975765D01*
X132355671Y-112984030D01*
X132377850Y-112994520D01*
X132398893Y-113007132D01*
X132418599Y-113021747D01*
X132436777Y-113038223D01*
X132453253Y-113056401D01*
X132467868Y-113076107D01*
X132480480Y-113097150D01*
X132490970Y-113119329D01*
X132499235Y-113142428D01*
X132505196Y-113166227D01*
X132508796Y-113190495D01*
X132510000Y-113214999D01*
X132510000Y-114115001D01*
X132508796Y-114139505D01*
X132505196Y-114163773D01*
X132499235Y-114187572D01*
X132490970Y-114210671D01*
X132480480Y-114232850D01*
X132467868Y-114253893D01*
X132453253Y-114273599D01*
X132436777Y-114291777D01*
X132418599Y-114308253D01*
X132398893Y-114322868D01*
X132377850Y-114335480D01*
X132355671Y-114345970D01*
X132332572Y-114354235D01*
X132308773Y-114360196D01*
X132284505Y-114363796D01*
X132260001Y-114365000D01*
X131609999Y-114365000D01*
X131585495Y-114363796D01*
X131561227Y-114360196D01*
X131537428Y-114354235D01*
X131514329Y-114345970D01*
X131492150Y-114335480D01*
X131471107Y-114322868D01*
X131451401Y-114308253D01*
X131433223Y-114291777D01*
X131416747Y-114273599D01*
X131402132Y-114253893D01*
X131389520Y-114232850D01*
X131379030Y-114210671D01*
X131370765Y-114187572D01*
X131364804Y-114163773D01*
X131361204Y-114139505D01*
X131360000Y-114115001D01*
X131360000Y-113214999D01*
X131361204Y-113190495D01*
X131364804Y-113166227D01*
X131370765Y-113142428D01*
X131379030Y-113119329D01*
X131389520Y-113097150D01*
X131402132Y-113076107D01*
X131416747Y-113056401D01*
X131433223Y-113038223D01*
X131451401Y-113021747D01*
X131471107Y-113007132D01*
X131492150Y-112994520D01*
X131514329Y-112984030D01*
X131537428Y-112975765D01*
X131561227Y-112969804D01*
X131585495Y-112966204D01*
X131609999Y-112965000D01*
X132260001Y-112965000D01*
X132284505Y-112966204D01*
G37*
G04 #@! TD.AperFunction*
G04 #@! TA.AperFunction,SMDPad,CuDef*
G36*
X134334505Y-112966204D02*
G01*
X134358773Y-112969804D01*
X134382572Y-112975765D01*
X134405671Y-112984030D01*
X134427850Y-112994520D01*
X134448893Y-113007132D01*
X134468599Y-113021747D01*
X134486777Y-113038223D01*
X134503253Y-113056401D01*
X134517868Y-113076107D01*
X134530480Y-113097150D01*
X134540970Y-113119329D01*
X134549235Y-113142428D01*
X134555196Y-113166227D01*
X134558796Y-113190495D01*
X134560000Y-113214999D01*
X134560000Y-114115001D01*
X134558796Y-114139505D01*
X134555196Y-114163773D01*
X134549235Y-114187572D01*
X134540970Y-114210671D01*
X134530480Y-114232850D01*
X134517868Y-114253893D01*
X134503253Y-114273599D01*
X134486777Y-114291777D01*
X134468599Y-114308253D01*
X134448893Y-114322868D01*
X134427850Y-114335480D01*
X134405671Y-114345970D01*
X134382572Y-114354235D01*
X134358773Y-114360196D01*
X134334505Y-114363796D01*
X134310001Y-114365000D01*
X133659999Y-114365000D01*
X133635495Y-114363796D01*
X133611227Y-114360196D01*
X133587428Y-114354235D01*
X133564329Y-114345970D01*
X133542150Y-114335480D01*
X133521107Y-114322868D01*
X133501401Y-114308253D01*
X133483223Y-114291777D01*
X133466747Y-114273599D01*
X133452132Y-114253893D01*
X133439520Y-114232850D01*
X133429030Y-114210671D01*
X133420765Y-114187572D01*
X133414804Y-114163773D01*
X133411204Y-114139505D01*
X133410000Y-114115001D01*
X133410000Y-113214999D01*
X133411204Y-113190495D01*
X133414804Y-113166227D01*
X133420765Y-113142428D01*
X133429030Y-113119329D01*
X133439520Y-113097150D01*
X133452132Y-113076107D01*
X133466747Y-113056401D01*
X133483223Y-113038223D01*
X133501401Y-113021747D01*
X133521107Y-113007132D01*
X133542150Y-112994520D01*
X133564329Y-112984030D01*
X133587428Y-112975765D01*
X133611227Y-112969804D01*
X133635495Y-112966204D01*
X133659999Y-112965000D01*
X134310001Y-112965000D01*
X134334505Y-112966204D01*
G37*
G04 #@! TD.AperFunction*
G04 #@! TA.AperFunction,SMDPad,CuDef*
G36*
X132046910Y-101271202D02*
G01*
X132071135Y-101274795D01*
X132094891Y-101280746D01*
X132117949Y-101288996D01*
X132140087Y-101299467D01*
X132161093Y-101312057D01*
X132180763Y-101326645D01*
X132198908Y-101343092D01*
X132215355Y-101361237D01*
X132229943Y-101380907D01*
X132242533Y-101401913D01*
X132253004Y-101424051D01*
X132261254Y-101447109D01*
X132267205Y-101470865D01*
X132270798Y-101495090D01*
X132272000Y-101519550D01*
X132272000Y-102170450D01*
X132270798Y-102194910D01*
X132267205Y-102219135D01*
X132261254Y-102242891D01*
X132253004Y-102265949D01*
X132242533Y-102288087D01*
X132229943Y-102309093D01*
X132215355Y-102328763D01*
X132198908Y-102346908D01*
X132180763Y-102363355D01*
X132161093Y-102377943D01*
X132140087Y-102390533D01*
X132117949Y-102401004D01*
X132094891Y-102409254D01*
X132071135Y-102415205D01*
X132046910Y-102418798D01*
X132022450Y-102420000D01*
X131121550Y-102420000D01*
X131097090Y-102418798D01*
X131072865Y-102415205D01*
X131049109Y-102409254D01*
X131026051Y-102401004D01*
X131003913Y-102390533D01*
X130982907Y-102377943D01*
X130963237Y-102363355D01*
X130945092Y-102346908D01*
X130928645Y-102328763D01*
X130914057Y-102309093D01*
X130901467Y-102288087D01*
X130890996Y-102265949D01*
X130882746Y-102242891D01*
X130876795Y-102219135D01*
X130873202Y-102194910D01*
X130872000Y-102170450D01*
X130872000Y-101519550D01*
X130873202Y-101495090D01*
X130876795Y-101470865D01*
X130882746Y-101447109D01*
X130890996Y-101424051D01*
X130901467Y-101401913D01*
X130914057Y-101380907D01*
X130928645Y-101361237D01*
X130945092Y-101343092D01*
X130963237Y-101326645D01*
X130982907Y-101312057D01*
X131003913Y-101299467D01*
X131026051Y-101288996D01*
X131049109Y-101280746D01*
X131072865Y-101274795D01*
X131097090Y-101271202D01*
X131121550Y-101270000D01*
X132022450Y-101270000D01*
X132046910Y-101271202D01*
G37*
G04 #@! TD.AperFunction*
G04 #@! TA.AperFunction,SMDPad,CuDef*
G36*
X132046505Y-103321204D02*
G01*
X132070773Y-103324804D01*
X132094572Y-103330765D01*
X132117671Y-103339030D01*
X132139850Y-103349520D01*
X132160893Y-103362132D01*
X132180599Y-103376747D01*
X132198777Y-103393223D01*
X132215253Y-103411401D01*
X132229868Y-103431107D01*
X132242480Y-103452150D01*
X132252970Y-103474329D01*
X132261235Y-103497428D01*
X132267196Y-103521227D01*
X132270796Y-103545495D01*
X132272000Y-103569999D01*
X132272000Y-104220001D01*
X132270796Y-104244505D01*
X132267196Y-104268773D01*
X132261235Y-104292572D01*
X132252970Y-104315671D01*
X132242480Y-104337850D01*
X132229868Y-104358893D01*
X132215253Y-104378599D01*
X132198777Y-104396777D01*
X132180599Y-104413253D01*
X132160893Y-104427868D01*
X132139850Y-104440480D01*
X132117671Y-104450970D01*
X132094572Y-104459235D01*
X132070773Y-104465196D01*
X132046505Y-104468796D01*
X132022001Y-104470000D01*
X131121999Y-104470000D01*
X131097495Y-104468796D01*
X131073227Y-104465196D01*
X131049428Y-104459235D01*
X131026329Y-104450970D01*
X131004150Y-104440480D01*
X130983107Y-104427868D01*
X130963401Y-104413253D01*
X130945223Y-104396777D01*
X130928747Y-104378599D01*
X130914132Y-104358893D01*
X130901520Y-104337850D01*
X130891030Y-104315671D01*
X130882765Y-104292572D01*
X130876804Y-104268773D01*
X130873204Y-104244505D01*
X130872000Y-104220001D01*
X130872000Y-103569999D01*
X130873204Y-103545495D01*
X130876804Y-103521227D01*
X130882765Y-103497428D01*
X130891030Y-103474329D01*
X130901520Y-103452150D01*
X130914132Y-103431107D01*
X130928747Y-103411401D01*
X130945223Y-103393223D01*
X130963401Y-103376747D01*
X130983107Y-103362132D01*
X131004150Y-103349520D01*
X131026329Y-103339030D01*
X131049428Y-103330765D01*
X131073227Y-103324804D01*
X131097495Y-103321204D01*
X131121999Y-103320000D01*
X132022001Y-103320000D01*
X132046505Y-103321204D01*
G37*
G04 #@! TD.AperFunction*
G04 #@! TA.AperFunction,SMDPad,CuDef*
G36*
X138396505Y-101271204D02*
G01*
X138420773Y-101274804D01*
X138444572Y-101280765D01*
X138467671Y-101289030D01*
X138489850Y-101299520D01*
X138510893Y-101312132D01*
X138530599Y-101326747D01*
X138548777Y-101343223D01*
X138565253Y-101361401D01*
X138579868Y-101381107D01*
X138592480Y-101402150D01*
X138602970Y-101424329D01*
X138611235Y-101447428D01*
X138617196Y-101471227D01*
X138620796Y-101495495D01*
X138622000Y-101519999D01*
X138622000Y-102170001D01*
X138620796Y-102194505D01*
X138617196Y-102218773D01*
X138611235Y-102242572D01*
X138602970Y-102265671D01*
X138592480Y-102287850D01*
X138579868Y-102308893D01*
X138565253Y-102328599D01*
X138548777Y-102346777D01*
X138530599Y-102363253D01*
X138510893Y-102377868D01*
X138489850Y-102390480D01*
X138467671Y-102400970D01*
X138444572Y-102409235D01*
X138420773Y-102415196D01*
X138396505Y-102418796D01*
X138372001Y-102420000D01*
X137471999Y-102420000D01*
X137447495Y-102418796D01*
X137423227Y-102415196D01*
X137399428Y-102409235D01*
X137376329Y-102400970D01*
X137354150Y-102390480D01*
X137333107Y-102377868D01*
X137313401Y-102363253D01*
X137295223Y-102346777D01*
X137278747Y-102328599D01*
X137264132Y-102308893D01*
X137251520Y-102287850D01*
X137241030Y-102265671D01*
X137232765Y-102242572D01*
X137226804Y-102218773D01*
X137223204Y-102194505D01*
X137222000Y-102170001D01*
X137222000Y-101519999D01*
X137223204Y-101495495D01*
X137226804Y-101471227D01*
X137232765Y-101447428D01*
X137241030Y-101424329D01*
X137251520Y-101402150D01*
X137264132Y-101381107D01*
X137278747Y-101361401D01*
X137295223Y-101343223D01*
X137313401Y-101326747D01*
X137333107Y-101312132D01*
X137354150Y-101299520D01*
X137376329Y-101289030D01*
X137399428Y-101280765D01*
X137423227Y-101274804D01*
X137447495Y-101271204D01*
X137471999Y-101270000D01*
X138372001Y-101270000D01*
X138396505Y-101271204D01*
G37*
G04 #@! TD.AperFunction*
G04 #@! TA.AperFunction,SMDPad,CuDef*
G36*
X138396505Y-103321204D02*
G01*
X138420773Y-103324804D01*
X138444572Y-103330765D01*
X138467671Y-103339030D01*
X138489850Y-103349520D01*
X138510893Y-103362132D01*
X138530599Y-103376747D01*
X138548777Y-103393223D01*
X138565253Y-103411401D01*
X138579868Y-103431107D01*
X138592480Y-103452150D01*
X138602970Y-103474329D01*
X138611235Y-103497428D01*
X138617196Y-103521227D01*
X138620796Y-103545495D01*
X138622000Y-103569999D01*
X138622000Y-104220001D01*
X138620796Y-104244505D01*
X138617196Y-104268773D01*
X138611235Y-104292572D01*
X138602970Y-104315671D01*
X138592480Y-104337850D01*
X138579868Y-104358893D01*
X138565253Y-104378599D01*
X138548777Y-104396777D01*
X138530599Y-104413253D01*
X138510893Y-104427868D01*
X138489850Y-104440480D01*
X138467671Y-104450970D01*
X138444572Y-104459235D01*
X138420773Y-104465196D01*
X138396505Y-104468796D01*
X138372001Y-104470000D01*
X137471999Y-104470000D01*
X137447495Y-104468796D01*
X137423227Y-104465196D01*
X137399428Y-104459235D01*
X137376329Y-104450970D01*
X137354150Y-104440480D01*
X137333107Y-104427868D01*
X137313401Y-104413253D01*
X137295223Y-104396777D01*
X137278747Y-104378599D01*
X137264132Y-104358893D01*
X137251520Y-104337850D01*
X137241030Y-104315671D01*
X137232765Y-104292572D01*
X137226804Y-104268773D01*
X137223204Y-104244505D01*
X137222000Y-104220001D01*
X137222000Y-103569999D01*
X137223204Y-103545495D01*
X137226804Y-103521227D01*
X137232765Y-103497428D01*
X137241030Y-103474329D01*
X137251520Y-103452150D01*
X137264132Y-103431107D01*
X137278747Y-103411401D01*
X137295223Y-103393223D01*
X137313401Y-103376747D01*
X137333107Y-103362132D01*
X137354150Y-103349520D01*
X137376329Y-103339030D01*
X137399428Y-103330765D01*
X137423227Y-103324804D01*
X137447495Y-103321204D01*
X137471999Y-103320000D01*
X138372001Y-103320000D01*
X138396505Y-103321204D01*
G37*
G04 #@! TD.AperFunction*
D18*
X160655000Y-113030000D03*
X124079000Y-116779000D03*
X145445835Y-97028000D03*
X151511000Y-100330000D03*
X154818098Y-101346000D03*
X154813000Y-102362000D03*
X154432000Y-103885990D03*
X154432000Y-104902000D03*
X125476000Y-110744000D03*
X132842000Y-99568000D03*
D19*
X126262000Y-116779000D02*
X124079000Y-116779000D01*
D20*
X145436835Y-97019000D02*
X145445835Y-97028000D01*
X144145000Y-97019000D02*
X145436835Y-97019000D01*
X151511000Y-98766000D02*
X151511000Y-100330000D01*
X150368000Y-98298000D02*
X151043000Y-98298000D01*
X151043000Y-98298000D02*
X151511000Y-98766000D01*
X153280000Y-99813000D02*
X154813000Y-101346000D01*
X153162000Y-99813000D02*
X153280000Y-99813000D01*
X154813000Y-101346000D02*
X154818098Y-101346000D01*
X156210000Y-102725000D02*
X155282083Y-102725000D01*
X155282083Y-102725000D02*
X155176000Y-102725000D01*
X155176000Y-102725000D02*
X154813000Y-102362000D01*
X153923990Y-104394000D02*
X154051001Y-104266989D01*
X154051001Y-104266989D02*
X154432000Y-103885990D01*
X153035000Y-104394000D02*
X153923990Y-104394000D01*
X154432000Y-105520773D02*
X154432000Y-104902000D01*
X154956227Y-106045000D02*
X154432000Y-105520773D01*
X158133000Y-107442000D02*
X156736000Y-106045000D01*
X156736000Y-106045000D02*
X154956227Y-106045000D01*
X134357000Y-98806000D02*
X134493000Y-98670000D01*
X125856999Y-110363001D02*
X125476000Y-110744000D01*
X126492000Y-109728000D02*
X125856999Y-110363001D01*
X126492000Y-102933500D02*
X126492000Y-109728000D01*
X134493000Y-98552000D02*
X130873500Y-98552000D01*
X130873500Y-98552000D02*
X126492000Y-102933500D01*
X133095945Y-99821945D02*
X132842000Y-99568000D01*
X139065000Y-98552000D02*
X137795055Y-99821945D01*
X137795055Y-99821945D02*
X133095945Y-99821945D01*
D21*
X158750000Y-117983000D02*
X158750000Y-118745000D01*
X156845000Y-116078000D02*
X158750000Y-117983000D01*
X156845000Y-116078000D02*
X156718000Y-115951000D01*
X156718000Y-115951000D02*
X156718000Y-114808000D01*
D19*
X155702000Y-118999000D02*
X155702000Y-118872000D01*
D21*
X154482800Y-119964200D02*
X155702000Y-118745000D01*
X154482800Y-123952000D02*
X154482800Y-119964200D01*
X129262000Y-117729000D02*
X136017000Y-117729000D01*
X136017000Y-117729000D02*
X142240000Y-123952000D01*
D20*
X133477000Y-107950000D02*
X134366000Y-107950000D01*
X134874000Y-107442000D02*
X134874000Y-105918000D01*
X134874000Y-105918000D02*
X134493000Y-105537000D01*
X134366000Y-107950000D02*
X134874000Y-107442000D01*
X134493000Y-105537000D02*
X133592407Y-105537000D01*
X133592407Y-105537000D02*
X132969000Y-104913593D01*
X129104000Y-104830000D02*
X129104000Y-107290000D01*
X130048000Y-103886000D02*
X129104000Y-104830000D01*
X132969000Y-104267000D02*
X132588000Y-103886000D01*
X132588000Y-103886000D02*
X130048000Y-103886000D01*
X133858000Y-101854000D02*
X134747000Y-101854000D01*
X132969000Y-104902000D02*
X132969000Y-102743000D01*
X132969000Y-102743000D02*
X133858000Y-101854000D01*
X131953000Y-113538000D02*
X131953000Y-113792000D01*
X131953000Y-112776000D02*
X131953000Y-113538000D01*
X133510000Y-110490000D02*
X133510000Y-111219000D01*
X133510000Y-111219000D02*
X131953000Y-112776000D01*
X143383000Y-104140000D02*
X144845000Y-104140000D01*
X139833000Y-107950000D02*
X139573000Y-107690000D01*
X140810000Y-107950000D02*
X139833000Y-107950000D01*
X139573000Y-107690000D02*
X139573000Y-103251000D01*
X139573000Y-103251000D02*
X139954000Y-102870000D01*
X139954000Y-102870000D02*
X142113000Y-102870000D01*
X142113000Y-102870000D02*
X143383000Y-104140000D01*
X140090000Y-106562000D02*
X140208000Y-106680000D01*
X142113000Y-106680000D02*
X140462000Y-106680000D01*
X144780000Y-105410000D02*
X143383000Y-105410000D01*
X143383000Y-105410000D02*
X142113000Y-106680000D01*
X141097000Y-103886000D02*
X141097000Y-105346500D01*
X140810000Y-105633500D02*
X140810000Y-106680000D01*
X141097000Y-105346500D02*
X140810000Y-105633500D01*
X134620000Y-109220000D02*
X133477000Y-109220000D01*
X139700000Y-108585000D02*
X139065000Y-107950000D01*
X142113000Y-108585000D02*
X139700000Y-108585000D01*
X144845000Y-106680000D02*
X143510000Y-106680000D01*
X142748000Y-107950000D02*
X142113000Y-108585000D01*
X135331211Y-105728618D02*
X135331211Y-108508789D01*
X135331211Y-108508789D02*
X134620000Y-109220000D01*
X142748000Y-107442000D02*
X142748000Y-107950000D01*
X143510000Y-106680000D02*
X142748000Y-107442000D01*
X139065000Y-103251000D02*
X138684000Y-102870000D01*
X138684000Y-102870000D02*
X133858000Y-102870000D01*
X133426210Y-104724210D02*
X133781789Y-105079789D01*
X133858000Y-102870000D02*
X133426210Y-103301790D01*
X133426210Y-103301790D02*
X133426210Y-104724210D01*
X133781789Y-105079789D02*
X134682382Y-105079789D01*
X139065000Y-107950000D02*
X139065000Y-103251000D01*
X134682382Y-105079789D02*
X135331211Y-105728618D01*
X144145000Y-107950000D02*
X144780000Y-107950000D01*
X143383000Y-107950000D02*
X144145000Y-107950000D01*
X140716000Y-109220000D02*
X142113000Y-109220000D01*
X142113000Y-109220000D02*
X143383000Y-107950000D01*
D19*
X146812000Y-109728000D02*
X146939000Y-109855000D01*
X146812000Y-102235000D02*
X146812000Y-109728000D01*
X144845000Y-101600000D02*
X146177000Y-101600000D01*
X146177000Y-101600000D02*
X146812000Y-102235000D01*
X137160000Y-110490000D02*
X133985000Y-113665000D01*
X150340000Y-114780000D02*
X147320000Y-111760000D01*
X154345000Y-114780000D02*
X150340000Y-114780000D01*
X147320000Y-111760000D02*
X147320000Y-110236000D01*
X147320000Y-110236000D02*
X146304000Y-109220000D01*
X146304000Y-109220000D02*
X143510000Y-109220000D01*
X143510000Y-109220000D02*
X142240000Y-110490000D01*
D22*
X127320000Y-118679000D02*
X126262000Y-118679000D01*
X133985000Y-114808000D02*
X133604000Y-115189000D01*
X133985000Y-113665000D02*
X133985000Y-114808000D01*
X133604000Y-115189000D02*
X128524000Y-115189000D01*
X128524000Y-115189000D02*
X127762000Y-115951000D01*
X127762000Y-115951000D02*
X127762000Y-118237000D01*
X127762000Y-118237000D02*
X127320000Y-118679000D01*
D19*
X142240000Y-110490000D02*
X137160000Y-110490000D01*
X138176000Y-104140000D02*
X137922000Y-103886000D01*
X137922000Y-103886000D02*
X134620000Y-103886000D01*
X139446000Y-110490000D02*
X138176000Y-109220000D01*
X138176000Y-109220000D02*
X138176000Y-104140000D01*
D20*
X144145000Y-99441000D02*
X144145000Y-99060000D01*
X142875000Y-100711000D02*
X144145000Y-99441000D01*
X142875000Y-102362000D02*
X142875000Y-100711000D01*
X144845000Y-102870000D02*
X143383000Y-102870000D01*
X143383000Y-102870000D02*
X142875000Y-102362000D01*
X148336000Y-99441000D02*
X148336000Y-98298000D01*
X149795000Y-101600000D02*
X149795000Y-100900000D01*
X149795000Y-100900000D02*
X148336000Y-99441000D01*
X152146000Y-101854000D02*
X153289000Y-101854000D01*
X149795000Y-102870000D02*
X151130000Y-102870000D01*
X151130000Y-102870000D02*
X152146000Y-101854000D01*
X149795000Y-104140000D02*
X150622000Y-104140000D01*
X156083000Y-104484422D02*
X156083000Y-104775000D01*
X154722578Y-103124000D02*
X156083000Y-104484422D01*
X152146000Y-103124000D02*
X154722578Y-103124000D01*
X149795000Y-104140000D02*
X151130000Y-104140000D01*
X151130000Y-104140000D02*
X152146000Y-103124000D01*
X153162000Y-106444000D02*
X153162000Y-106244500D01*
X150749000Y-105410000D02*
X149795000Y-105410000D01*
X151130000Y-105410000D02*
X150749000Y-105410000D01*
X153035000Y-106444000D02*
X152164000Y-106444000D01*
X152164000Y-106444000D02*
X151130000Y-105410000D01*
X151130000Y-106680000D02*
X149860000Y-106680000D01*
X156083000Y-107442000D02*
X151892000Y-107442000D01*
X151892000Y-107442000D02*
X151130000Y-106680000D01*
X140208000Y-97143407D02*
X140208000Y-97155000D01*
X148158222Y-100152221D02*
X146614246Y-98608245D01*
X148720000Y-107950000D02*
X148158222Y-107388222D01*
X142101407Y-95250000D02*
X140208000Y-97143407D01*
X145367006Y-95250000D02*
X142101407Y-95250000D01*
X149795000Y-107950000D02*
X148720000Y-107950000D01*
X148158222Y-107388222D02*
X148158222Y-100152221D01*
X146614246Y-98608245D02*
X146614246Y-96497240D01*
X146614246Y-96497240D02*
X145367006Y-95250000D01*
X136398000Y-97790000D02*
X136398000Y-98679000D01*
X136906000Y-97282000D02*
X136398000Y-97790000D01*
X140208000Y-97143407D02*
X140069407Y-97282000D01*
X140069407Y-97282000D02*
X136906000Y-97282000D01*
X146157035Y-98797627D02*
X147701011Y-100341603D01*
X141233000Y-98679000D02*
X141233000Y-96765000D01*
X146157035Y-96686638D02*
X146157035Y-98797627D01*
X145177608Y-95707211D02*
X146157035Y-96686638D01*
X142290789Y-95707211D02*
X145177608Y-95707211D01*
X141233000Y-96765000D02*
X142290789Y-95707211D01*
X147701011Y-100341603D02*
X147701011Y-108201011D01*
X147701011Y-108201011D02*
X148720000Y-109220000D01*
X148720000Y-109220000D02*
X149795000Y-109220000D01*
G36*
X142992429Y-96402985D02*
G01*
X142949155Y-96545641D01*
X142934543Y-96693999D01*
X142934543Y-97344001D01*
X142949155Y-97492359D01*
X142992429Y-97635015D01*
X143062703Y-97766488D01*
X143157275Y-97881725D01*
X143272512Y-97976297D01*
X143399175Y-98044000D01*
X143272512Y-98111703D01*
X143157275Y-98206275D01*
X143062703Y-98321512D01*
X142992429Y-98452985D01*
X142949155Y-98595641D01*
X142934543Y-98743999D01*
X142934543Y-99394001D01*
X142949155Y-99542359D01*
X142992429Y-99685015D01*
X142996097Y-99691878D01*
X142448046Y-100239930D01*
X142423816Y-100259815D01*
X142403932Y-100284044D01*
X142344463Y-100356507D01*
X142285498Y-100466821D01*
X142275908Y-100498436D01*
X142249189Y-100586518D01*
X142242398Y-100655469D01*
X142236929Y-100711000D01*
X142240001Y-100742191D01*
X142240001Y-101021148D01*
X142221430Y-100986405D01*
X142157948Y-100909052D01*
X142080595Y-100845570D01*
X141992344Y-100798398D01*
X141896585Y-100769350D01*
X141797000Y-100759542D01*
X141351000Y-100762000D01*
X141224000Y-100889000D01*
X141224000Y-101718000D01*
X141244000Y-101718000D01*
X141244000Y-101972000D01*
X141224000Y-101972000D01*
X141224000Y-101992000D01*
X140970000Y-101992000D01*
X140970000Y-101972000D01*
X140016000Y-101972000D01*
X139889000Y-102099000D01*
X139887932Y-102238435D01*
X139829518Y-102244188D01*
X139709820Y-102280498D01*
X139643319Y-102316044D01*
X139599505Y-102339463D01*
X139572044Y-102362000D01*
X139502815Y-102418815D01*
X139482926Y-102443050D01*
X139319000Y-102606976D01*
X139155074Y-102443050D01*
X139135185Y-102418815D01*
X139132432Y-102416555D01*
X139130000Y-102099000D01*
X139003000Y-101972000D01*
X138049000Y-101972000D01*
X138049000Y-101992000D01*
X137795000Y-101992000D01*
X137795000Y-101972000D01*
X136841000Y-101972000D01*
X136714000Y-102099000D01*
X136712959Y-102235000D01*
X135951055Y-102235000D01*
X135957457Y-102170001D01*
X135957457Y-101519999D01*
X135942845Y-101371641D01*
X135912013Y-101270000D01*
X136711542Y-101270000D01*
X136714000Y-101591000D01*
X136841000Y-101718000D01*
X137795000Y-101718000D01*
X137795000Y-100889000D01*
X138049000Y-100889000D01*
X138049000Y-101718000D01*
X139003000Y-101718000D01*
X139130000Y-101591000D01*
X139132458Y-101270000D01*
X139886542Y-101270000D01*
X139889000Y-101591000D01*
X140016000Y-101718000D01*
X140970000Y-101718000D01*
X140970000Y-100889000D01*
X140843000Y-100762000D01*
X140397000Y-100759542D01*
X140297415Y-100769350D01*
X140201656Y-100798398D01*
X140113405Y-100845570D01*
X140036052Y-100909052D01*
X139972570Y-100986405D01*
X139925398Y-101074656D01*
X139896350Y-101170415D01*
X139886542Y-101270000D01*
X139132458Y-101270000D01*
X139122650Y-101170415D01*
X139093602Y-101074656D01*
X139046430Y-100986405D01*
X138982948Y-100909052D01*
X138905595Y-100845570D01*
X138817344Y-100798398D01*
X138721585Y-100769350D01*
X138622000Y-100759542D01*
X138176000Y-100762000D01*
X138049000Y-100889000D01*
X137795000Y-100889000D01*
X137668000Y-100762000D01*
X137222000Y-100759542D01*
X137122415Y-100769350D01*
X137026656Y-100798398D01*
X136938405Y-100845570D01*
X136861052Y-100909052D01*
X136797570Y-100986405D01*
X136750398Y-101074656D01*
X136721350Y-101170415D01*
X136711542Y-101270000D01*
X135912013Y-101270000D01*
X135899571Y-101228985D01*
X135829297Y-101097512D01*
X135734725Y-100982275D01*
X135619488Y-100887703D01*
X135488015Y-100817429D01*
X135345359Y-100774155D01*
X135197001Y-100759543D01*
X134296999Y-100759543D01*
X134148641Y-100774155D01*
X134005985Y-100817429D01*
X133874512Y-100887703D01*
X133759275Y-100982275D01*
X133664703Y-101097512D01*
X133594429Y-101228985D01*
X133577819Y-101283741D01*
X133503506Y-101323462D01*
X133457791Y-101360980D01*
X133406815Y-101402815D01*
X133386930Y-101427045D01*
X132747488Y-102066488D01*
X132653000Y-101972000D01*
X131699000Y-101972000D01*
X131699000Y-101992000D01*
X131445000Y-101992000D01*
X131445000Y-101972000D01*
X130491000Y-101972000D01*
X130364000Y-102099000D01*
X130361542Y-102420000D01*
X130371350Y-102519585D01*
X130400398Y-102615344D01*
X130447570Y-102703595D01*
X130511052Y-102780948D01*
X130588405Y-102844430D01*
X130676656Y-102891602D01*
X130746259Y-102912716D01*
X130699512Y-102937703D01*
X130584275Y-103032275D01*
X130489703Y-103147512D01*
X130434387Y-103251000D01*
X130079189Y-103251000D01*
X130048000Y-103247928D01*
X130016811Y-103251000D01*
X130016808Y-103251000D01*
X129923518Y-103260188D01*
X129803853Y-103296488D01*
X129803820Y-103296498D01*
X129693506Y-103355462D01*
X129621043Y-103414931D01*
X129621039Y-103414935D01*
X129596815Y-103434815D01*
X129576934Y-103459040D01*
X128677050Y-104358926D01*
X128652815Y-104378815D01*
X128573463Y-104475507D01*
X128514498Y-104585821D01*
X128478188Y-104705519D01*
X128469000Y-104798809D01*
X128469000Y-104798819D01*
X128465929Y-104830000D01*
X128469000Y-104861181D01*
X128469001Y-106089596D01*
X128420405Y-106115571D01*
X128343052Y-106179052D01*
X128279571Y-106256405D01*
X128232399Y-106344657D01*
X128203351Y-106440415D01*
X128193543Y-106540000D01*
X128193543Y-108040000D01*
X128203351Y-108139585D01*
X128232399Y-108235343D01*
X128279571Y-108323595D01*
X128343052Y-108400948D01*
X128420405Y-108464429D01*
X128508657Y-108511601D01*
X128604415Y-108540649D01*
X128704000Y-108550457D01*
X129504000Y-108550457D01*
X129603585Y-108540649D01*
X129699343Y-108511601D01*
X129787595Y-108464429D01*
X129864948Y-108400948D01*
X129928429Y-108323595D01*
X129975601Y-108235343D01*
X130004649Y-108139585D01*
X130014457Y-108040000D01*
X130014457Y-106540000D01*
X130004649Y-106440415D01*
X129975601Y-106344657D01*
X129928429Y-106256405D01*
X129864948Y-106179052D01*
X129787595Y-106115571D01*
X129739000Y-106089596D01*
X129739000Y-105093024D01*
X130311026Y-104521000D01*
X130424766Y-104521000D01*
X130489703Y-104642488D01*
X130584275Y-104757725D01*
X130699512Y-104852297D01*
X130830985Y-104922571D01*
X130973641Y-104965845D01*
X131121999Y-104980457D01*
X132022001Y-104980457D01*
X132170359Y-104965845D01*
X132313015Y-104922571D01*
X132330991Y-104912963D01*
X132330929Y-104913593D01*
X132343189Y-105038074D01*
X132379498Y-105157772D01*
X132438463Y-105268086D01*
X132497932Y-105340549D01*
X133003339Y-105845958D01*
X132660000Y-105844542D01*
X132560415Y-105854350D01*
X132464656Y-105883398D01*
X132376405Y-105930570D01*
X132299052Y-105994052D01*
X132235570Y-106071405D01*
X132188398Y-106159656D01*
X132159350Y-106255415D01*
X132149542Y-106355000D01*
X132152000Y-106426000D01*
X132279000Y-106553000D01*
X133383000Y-106553000D01*
X133383000Y-106533000D01*
X133637000Y-106533000D01*
X133637000Y-106553000D01*
X133657000Y-106553000D01*
X133657000Y-106807000D01*
X133637000Y-106807000D01*
X133637000Y-106827000D01*
X133383000Y-106827000D01*
X133383000Y-106807000D01*
X132279000Y-106807000D01*
X132152000Y-106934000D01*
X132149542Y-107005000D01*
X132159350Y-107104585D01*
X132188398Y-107200344D01*
X132235570Y-107288595D01*
X132257240Y-107315000D01*
X132235571Y-107341405D01*
X132188399Y-107429657D01*
X132159351Y-107525415D01*
X132149543Y-107625000D01*
X132149543Y-108275000D01*
X132159351Y-108374585D01*
X132188399Y-108470343D01*
X132235571Y-108558595D01*
X132257241Y-108585000D01*
X132235571Y-108611405D01*
X132188399Y-108699657D01*
X132159351Y-108795415D01*
X132149543Y-108895000D01*
X132149543Y-109545000D01*
X132159351Y-109644585D01*
X132188399Y-109740343D01*
X132235571Y-109828595D01*
X132257241Y-109855000D01*
X132235571Y-109881405D01*
X132188399Y-109969657D01*
X132159351Y-110065415D01*
X132149543Y-110165000D01*
X132149543Y-110815000D01*
X132159351Y-110914585D01*
X132188399Y-111010343D01*
X132235571Y-111098595D01*
X132299052Y-111175948D01*
X132376405Y-111239429D01*
X132464657Y-111286601D01*
X132525820Y-111305155D01*
X131526050Y-112304926D01*
X131501815Y-112324815D01*
X131422463Y-112421507D01*
X131384484Y-112492560D01*
X131318985Y-112512429D01*
X131187512Y-112582703D01*
X131072275Y-112677275D01*
X130977703Y-112792512D01*
X130907429Y-112923985D01*
X130864155Y-113066641D01*
X130849543Y-113214999D01*
X130849543Y-114115001D01*
X130864155Y-114263359D01*
X130907429Y-114406015D01*
X130952587Y-114490500D01*
X130009483Y-114490500D01*
X130014457Y-114440000D01*
X130014457Y-112940000D01*
X130004649Y-112840415D01*
X129975601Y-112744657D01*
X129928429Y-112656405D01*
X129864948Y-112579052D01*
X129787595Y-112515571D01*
X129699343Y-112468399D01*
X129603585Y-112439351D01*
X129504000Y-112429543D01*
X128704000Y-112429543D01*
X128604415Y-112439351D01*
X128508657Y-112468399D01*
X128420405Y-112515571D01*
X128343052Y-112579052D01*
X128279571Y-112656405D01*
X128232399Y-112744657D01*
X128203351Y-112840415D01*
X128193543Y-112940000D01*
X128193543Y-114440000D01*
X128203351Y-114539585D01*
X128210865Y-114564354D01*
X128198917Y-114570740D01*
X128134056Y-114605409D01*
X128054346Y-114670826D01*
X128054343Y-114670829D01*
X128027697Y-114692697D01*
X128005829Y-114719343D01*
X127292344Y-115432829D01*
X127265697Y-115454698D01*
X127243829Y-115481344D01*
X127243826Y-115481347D01*
X127178409Y-115561057D01*
X127118414Y-115673300D01*
X127113548Y-115682404D01*
X127073607Y-115814071D01*
X127068192Y-115869050D01*
X126516000Y-115871000D01*
X126389000Y-115998000D01*
X126389000Y-116652000D01*
X126409000Y-116652000D01*
X126409000Y-116906000D01*
X126389000Y-116906000D01*
X126389000Y-117560000D01*
X126516000Y-117687000D01*
X127063501Y-117688934D01*
X127063501Y-117768543D01*
X125312000Y-117768543D01*
X125212415Y-117778351D01*
X125116657Y-117807399D01*
X125028405Y-117854571D01*
X124951052Y-117918052D01*
X124887571Y-117995405D01*
X124840399Y-118083657D01*
X124811351Y-118179415D01*
X124801543Y-118279000D01*
X124801543Y-119079000D01*
X124811351Y-119178585D01*
X124840399Y-119274343D01*
X124887571Y-119362595D01*
X124951052Y-119439948D01*
X125028405Y-119503429D01*
X125116657Y-119550601D01*
X125212415Y-119579649D01*
X125312000Y-119589457D01*
X127212000Y-119589457D01*
X127311585Y-119579649D01*
X127407343Y-119550601D01*
X127495595Y-119503429D01*
X127572948Y-119439948D01*
X127636429Y-119362595D01*
X127681859Y-119277602D01*
X127709943Y-119262591D01*
X127816303Y-119175303D01*
X127838175Y-119148652D01*
X128231652Y-118755175D01*
X128258303Y-118733303D01*
X128315928Y-118663087D01*
X128335322Y-118639457D01*
X128569674Y-118639457D01*
X128623911Y-118683968D01*
X128822477Y-118790103D01*
X129037933Y-118855461D01*
X129205854Y-118872000D01*
X133053010Y-118872000D01*
X132969582Y-118996859D01*
X132181011Y-120900639D01*
X132165841Y-120976905D01*
X132097543Y-120940399D01*
X132001785Y-120911351D01*
X131902200Y-120901543D01*
X128092200Y-120901543D01*
X127992615Y-120911351D01*
X127896857Y-120940399D01*
X127808605Y-120987571D01*
X127731252Y-121051052D01*
X127667771Y-121128405D01*
X127620599Y-121216657D01*
X127591551Y-121312415D01*
X127581743Y-121412000D01*
X127581743Y-126492000D01*
X127591551Y-126591585D01*
X127620599Y-126687343D01*
X127667771Y-126775595D01*
X127731252Y-126852948D01*
X127808605Y-126916429D01*
X127896857Y-126963601D01*
X127992615Y-126992649D01*
X128092200Y-127002457D01*
X131902200Y-127002457D01*
X132001785Y-126992649D01*
X132097543Y-126963601D01*
X132165841Y-126927095D01*
X132181011Y-127003361D01*
X132969582Y-128907141D01*
X134114411Y-130620499D01*
X135571501Y-132077589D01*
X137268586Y-133211545D01*
X137036844Y-133153151D01*
X136196263Y-132900736D01*
X135367828Y-132610853D01*
X134553231Y-132284095D01*
X133754114Y-131921119D01*
X132972089Y-131522658D01*
X132208730Y-131089513D01*
X131465565Y-130622551D01*
X130744115Y-130122730D01*
X130045813Y-129591041D01*
X129372053Y-129028546D01*
X128724232Y-128436411D01*
X128103589Y-127815768D01*
X127511454Y-127167947D01*
X126948959Y-126494187D01*
X126417270Y-125795885D01*
X125917449Y-125074435D01*
X125450487Y-124331270D01*
X125017342Y-123567911D01*
X124618881Y-122785886D01*
X124255905Y-121986769D01*
X123929147Y-121172172D01*
X123639264Y-120343737D01*
X123386849Y-119503156D01*
X123172391Y-118652055D01*
X122996334Y-117792194D01*
X122899214Y-117179000D01*
X124801542Y-117179000D01*
X124811350Y-117278585D01*
X124840398Y-117374344D01*
X124887570Y-117462595D01*
X124951052Y-117539948D01*
X125028405Y-117603430D01*
X125116656Y-117650602D01*
X125212415Y-117679650D01*
X125312000Y-117689458D01*
X126008000Y-117687000D01*
X126135000Y-117560000D01*
X126135000Y-116906000D01*
X124931000Y-116906000D01*
X124804000Y-117033000D01*
X124801542Y-117179000D01*
X122899214Y-117179000D01*
X122859036Y-116925331D01*
X122797480Y-116379000D01*
X124801542Y-116379000D01*
X124804000Y-116525000D01*
X124931000Y-116652000D01*
X126135000Y-116652000D01*
X126135000Y-115998000D01*
X126008000Y-115871000D01*
X125312000Y-115868542D01*
X125212415Y-115878350D01*
X125116656Y-115907398D01*
X125028405Y-115954570D01*
X124951052Y-116018052D01*
X124887570Y-116095405D01*
X124840398Y-116183656D01*
X124811350Y-116279415D01*
X124801542Y-116379000D01*
X122797480Y-116379000D01*
X122760766Y-116053164D01*
X122701725Y-115177472D01*
X122685175Y-114440000D01*
X124493542Y-114440000D01*
X124503350Y-114539585D01*
X124532398Y-114635344D01*
X124579570Y-114723595D01*
X124643052Y-114800948D01*
X124720405Y-114864430D01*
X124808656Y-114911602D01*
X124904415Y-114940650D01*
X125004000Y-114950458D01*
X125150000Y-114948000D01*
X125277000Y-114821000D01*
X125277000Y-113817000D01*
X125531000Y-113817000D01*
X125531000Y-114821000D01*
X125658000Y-114948000D01*
X125804000Y-114950458D01*
X125903585Y-114940650D01*
X125999344Y-114911602D01*
X126087595Y-114864430D01*
X126164948Y-114800948D01*
X126228430Y-114723595D01*
X126275602Y-114635344D01*
X126304650Y-114539585D01*
X126314458Y-114440000D01*
X126312000Y-113944000D01*
X126185000Y-113817000D01*
X125531000Y-113817000D01*
X125277000Y-113817000D01*
X124623000Y-113817000D01*
X124496000Y-113944000D01*
X124493542Y-114440000D01*
X122685175Y-114440000D01*
X122682032Y-114300000D01*
X122701725Y-113422528D01*
X122734258Y-112940000D01*
X124493542Y-112940000D01*
X124496000Y-113436000D01*
X124623000Y-113563000D01*
X125277000Y-113563000D01*
X125277000Y-112559000D01*
X125531000Y-112559000D01*
X125531000Y-113563000D01*
X126185000Y-113563000D01*
X126312000Y-113436000D01*
X126314458Y-112940000D01*
X126304650Y-112840415D01*
X126275602Y-112744656D01*
X126228430Y-112656405D01*
X126164948Y-112579052D01*
X126087595Y-112515570D01*
X125999344Y-112468398D01*
X125903585Y-112439350D01*
X125804000Y-112429542D01*
X125658000Y-112432000D01*
X125531000Y-112559000D01*
X125277000Y-112559000D01*
X125150000Y-112432000D01*
X125004000Y-112429542D01*
X124904415Y-112439350D01*
X124808656Y-112468398D01*
X124720405Y-112515570D01*
X124643052Y-112579052D01*
X124579570Y-112656405D01*
X124532398Y-112744656D01*
X124503350Y-112840415D01*
X124493542Y-112940000D01*
X122734258Y-112940000D01*
X122760766Y-112546836D01*
X122859036Y-111674669D01*
X122996334Y-110807806D01*
X123172391Y-109947945D01*
X123386849Y-109096844D01*
X123639264Y-108256263D01*
X123714937Y-108040000D01*
X124493542Y-108040000D01*
X124503350Y-108139585D01*
X124532398Y-108235344D01*
X124579570Y-108323595D01*
X124643052Y-108400948D01*
X124720405Y-108464430D01*
X124808656Y-108511602D01*
X124904415Y-108540650D01*
X125004000Y-108550458D01*
X125150000Y-108548000D01*
X125277000Y-108421000D01*
X125277000Y-107417000D01*
X124623000Y-107417000D01*
X124496000Y-107544000D01*
X124493542Y-108040000D01*
X123714937Y-108040000D01*
X123929147Y-107427828D01*
X124255905Y-106613231D01*
X124289168Y-106540000D01*
X124493542Y-106540000D01*
X124496000Y-107036000D01*
X124623000Y-107163000D01*
X125277000Y-107163000D01*
X125277000Y-106159000D01*
X125150000Y-106032000D01*
X125004000Y-106029542D01*
X124904415Y-106039350D01*
X124808656Y-106068398D01*
X124720405Y-106115570D01*
X124643052Y-106179052D01*
X124579570Y-106256405D01*
X124532398Y-106344656D01*
X124503350Y-106440415D01*
X124493542Y-106540000D01*
X124289168Y-106540000D01*
X124618881Y-105814114D01*
X125017342Y-105032089D01*
X125450487Y-104268730D01*
X125857000Y-103621769D01*
X125857000Y-106034762D01*
X125804000Y-106029542D01*
X125658000Y-106032000D01*
X125531000Y-106159000D01*
X125531000Y-107163000D01*
X125551000Y-107163000D01*
X125551000Y-107417000D01*
X125531000Y-107417000D01*
X125531000Y-108421000D01*
X125658000Y-108548000D01*
X125804000Y-108550458D01*
X125857001Y-108545238D01*
X125857001Y-109464974D01*
X125466976Y-109855000D01*
X125388441Y-109855000D01*
X125216688Y-109889164D01*
X125054901Y-109956179D01*
X124909296Y-110053469D01*
X124785469Y-110177296D01*
X124688179Y-110322901D01*
X124621164Y-110484688D01*
X124587000Y-110656441D01*
X124587000Y-110831559D01*
X124621164Y-111003312D01*
X124688179Y-111165099D01*
X124785469Y-111310704D01*
X124909296Y-111434531D01*
X125054901Y-111531821D01*
X125216688Y-111598836D01*
X125388441Y-111633000D01*
X125563559Y-111633000D01*
X125735312Y-111598836D01*
X125897099Y-111531821D01*
X126042704Y-111434531D01*
X126166531Y-111310704D01*
X126263821Y-111165099D01*
X126330836Y-111003312D01*
X126365000Y-110831559D01*
X126365000Y-110753024D01*
X126918955Y-110199070D01*
X126943185Y-110179185D01*
X127022537Y-110082494D01*
X127081502Y-109972180D01*
X127117812Y-109852482D01*
X127127000Y-109759192D01*
X127127000Y-109759182D01*
X127130071Y-109728001D01*
X127127000Y-109696820D01*
X127127000Y-103196524D01*
X129053524Y-101270000D01*
X130361542Y-101270000D01*
X130364000Y-101591000D01*
X130491000Y-101718000D01*
X131445000Y-101718000D01*
X131445000Y-100889000D01*
X131699000Y-100889000D01*
X131699000Y-101718000D01*
X132653000Y-101718000D01*
X132780000Y-101591000D01*
X132782458Y-101270000D01*
X132772650Y-101170415D01*
X132743602Y-101074656D01*
X132696430Y-100986405D01*
X132632948Y-100909052D01*
X132555595Y-100845570D01*
X132467344Y-100798398D01*
X132371585Y-100769350D01*
X132272000Y-100759542D01*
X131826000Y-100762000D01*
X131699000Y-100889000D01*
X131445000Y-100889000D01*
X131318000Y-100762000D01*
X130872000Y-100759542D01*
X130772415Y-100769350D01*
X130676656Y-100798398D01*
X130588405Y-100845570D01*
X130511052Y-100909052D01*
X130447570Y-100986405D01*
X130400398Y-101074656D01*
X130371350Y-101170415D01*
X130361542Y-101270000D01*
X129053524Y-101270000D01*
X131136526Y-99187000D01*
X132037569Y-99187000D01*
X131987164Y-99308688D01*
X131953000Y-99480441D01*
X131953000Y-99655559D01*
X131987164Y-99827312D01*
X132054179Y-99989099D01*
X132151469Y-100134704D01*
X132275296Y-100258531D01*
X132420901Y-100355821D01*
X132582688Y-100422836D01*
X132754441Y-100457000D01*
X132929559Y-100457000D01*
X132974515Y-100448058D01*
X133064753Y-100456945D01*
X133064763Y-100456945D01*
X133095944Y-100460016D01*
X133127125Y-100456945D01*
X137763874Y-100456945D01*
X137795055Y-100460016D01*
X137826236Y-100456945D01*
X137826247Y-100456945D01*
X137919537Y-100447757D01*
X138039235Y-100411447D01*
X138149549Y-100352482D01*
X138246240Y-100273130D01*
X138266129Y-100248895D01*
X138762021Y-99753004D01*
X138857999Y-99762457D01*
X139508001Y-99762457D01*
X139656359Y-99747845D01*
X139799015Y-99704571D01*
X139930488Y-99634297D01*
X140045725Y-99539725D01*
X140140297Y-99424488D01*
X140208000Y-99297825D01*
X140275703Y-99424488D01*
X140370275Y-99539725D01*
X140485512Y-99634297D01*
X140616985Y-99704571D01*
X140759641Y-99747845D01*
X140907999Y-99762457D01*
X141558001Y-99762457D01*
X141706359Y-99747845D01*
X141849015Y-99704571D01*
X141980488Y-99634297D01*
X142095725Y-99539725D01*
X142190297Y-99424488D01*
X142260571Y-99293015D01*
X142303845Y-99150359D01*
X142318457Y-99002001D01*
X142318457Y-98101999D01*
X142303845Y-97953641D01*
X142260571Y-97810985D01*
X142190297Y-97679512D01*
X142095725Y-97564275D01*
X141980488Y-97469703D01*
X141868000Y-97409577D01*
X141868000Y-97028024D01*
X142553815Y-96342211D01*
X143024913Y-96342211D01*
X142992429Y-96402985D01*
G37*
X142992429Y-96402985D02*
X142949155Y-96545641D01*
X142934543Y-96693999D01*
X142934543Y-97344001D01*
X142949155Y-97492359D01*
X142992429Y-97635015D01*
X143062703Y-97766488D01*
X143157275Y-97881725D01*
X143272512Y-97976297D01*
X143399175Y-98044000D01*
X143272512Y-98111703D01*
X143157275Y-98206275D01*
X143062703Y-98321512D01*
X142992429Y-98452985D01*
X142949155Y-98595641D01*
X142934543Y-98743999D01*
X142934543Y-99394001D01*
X142949155Y-99542359D01*
X142992429Y-99685015D01*
X142996097Y-99691878D01*
X142448046Y-100239930D01*
X142423816Y-100259815D01*
X142403932Y-100284044D01*
X142344463Y-100356507D01*
X142285498Y-100466821D01*
X142275908Y-100498436D01*
X142249189Y-100586518D01*
X142242398Y-100655469D01*
X142236929Y-100711000D01*
X142240001Y-100742191D01*
X142240001Y-101021148D01*
X142221430Y-100986405D01*
X142157948Y-100909052D01*
X142080595Y-100845570D01*
X141992344Y-100798398D01*
X141896585Y-100769350D01*
X141797000Y-100759542D01*
X141351000Y-100762000D01*
X141224000Y-100889000D01*
X141224000Y-101718000D01*
X141244000Y-101718000D01*
X141244000Y-101972000D01*
X141224000Y-101972000D01*
X141224000Y-101992000D01*
X140970000Y-101992000D01*
X140970000Y-101972000D01*
X140016000Y-101972000D01*
X139889000Y-102099000D01*
X139887932Y-102238435D01*
X139829518Y-102244188D01*
X139709820Y-102280498D01*
X139643319Y-102316044D01*
X139599505Y-102339463D01*
X139572044Y-102362000D01*
X139502815Y-102418815D01*
X139482926Y-102443050D01*
X139319000Y-102606976D01*
X139155074Y-102443050D01*
X139135185Y-102418815D01*
X139132432Y-102416555D01*
X139130000Y-102099000D01*
X139003000Y-101972000D01*
X138049000Y-101972000D01*
X138049000Y-101992000D01*
X137795000Y-101992000D01*
X137795000Y-101972000D01*
X136841000Y-101972000D01*
X136714000Y-102099000D01*
X136712959Y-102235000D01*
X135951055Y-102235000D01*
X135957457Y-102170001D01*
X135957457Y-101519999D01*
X135942845Y-101371641D01*
X135912013Y-101270000D01*
X136711542Y-101270000D01*
X136714000Y-101591000D01*
X136841000Y-101718000D01*
X137795000Y-101718000D01*
X137795000Y-100889000D01*
X138049000Y-100889000D01*
X138049000Y-101718000D01*
X139003000Y-101718000D01*
X139130000Y-101591000D01*
X139132458Y-101270000D01*
X139886542Y-101270000D01*
X139889000Y-101591000D01*
X140016000Y-101718000D01*
X140970000Y-101718000D01*
X140970000Y-100889000D01*
X140843000Y-100762000D01*
X140397000Y-100759542D01*
X140297415Y-100769350D01*
X140201656Y-100798398D01*
X140113405Y-100845570D01*
X140036052Y-100909052D01*
X139972570Y-100986405D01*
X139925398Y-101074656D01*
X139896350Y-101170415D01*
X139886542Y-101270000D01*
X139132458Y-101270000D01*
X139122650Y-101170415D01*
X139093602Y-101074656D01*
X139046430Y-100986405D01*
X138982948Y-100909052D01*
X138905595Y-100845570D01*
X138817344Y-100798398D01*
X138721585Y-100769350D01*
X138622000Y-100759542D01*
X138176000Y-100762000D01*
X138049000Y-100889000D01*
X137795000Y-100889000D01*
X137668000Y-100762000D01*
X137222000Y-100759542D01*
X137122415Y-100769350D01*
X137026656Y-100798398D01*
X136938405Y-100845570D01*
X136861052Y-100909052D01*
X136797570Y-100986405D01*
X136750398Y-101074656D01*
X136721350Y-101170415D01*
X136711542Y-101270000D01*
X135912013Y-101270000D01*
X135899571Y-101228985D01*
X135829297Y-101097512D01*
X135734725Y-100982275D01*
X135619488Y-100887703D01*
X135488015Y-100817429D01*
X135345359Y-100774155D01*
X135197001Y-100759543D01*
X134296999Y-100759543D01*
X134148641Y-100774155D01*
X134005985Y-100817429D01*
X133874512Y-100887703D01*
X133759275Y-100982275D01*
X133664703Y-101097512D01*
X133594429Y-101228985D01*
X133577819Y-101283741D01*
X133503506Y-101323462D01*
X133457791Y-101360980D01*
X133406815Y-101402815D01*
X133386930Y-101427045D01*
X132747488Y-102066488D01*
X132653000Y-101972000D01*
X131699000Y-101972000D01*
X131699000Y-101992000D01*
X131445000Y-101992000D01*
X131445000Y-101972000D01*
X130491000Y-101972000D01*
X130364000Y-102099000D01*
X130361542Y-102420000D01*
X130371350Y-102519585D01*
X130400398Y-102615344D01*
X130447570Y-102703595D01*
X130511052Y-102780948D01*
X130588405Y-102844430D01*
X130676656Y-102891602D01*
X130746259Y-102912716D01*
X130699512Y-102937703D01*
X130584275Y-103032275D01*
X130489703Y-103147512D01*
X130434387Y-103251000D01*
X130079189Y-103251000D01*
X130048000Y-103247928D01*
X130016811Y-103251000D01*
X130016808Y-103251000D01*
X129923518Y-103260188D01*
X129803853Y-103296488D01*
X129803820Y-103296498D01*
X129693506Y-103355462D01*
X129621043Y-103414931D01*
X129621039Y-103414935D01*
X129596815Y-103434815D01*
X129576934Y-103459040D01*
X128677050Y-104358926D01*
X128652815Y-104378815D01*
X128573463Y-104475507D01*
X128514498Y-104585821D01*
X128478188Y-104705519D01*
X128469000Y-104798809D01*
X128469000Y-104798819D01*
X128465929Y-104830000D01*
X128469000Y-104861181D01*
X128469001Y-106089596D01*
X128420405Y-106115571D01*
X128343052Y-106179052D01*
X128279571Y-106256405D01*
X128232399Y-106344657D01*
X128203351Y-106440415D01*
X128193543Y-106540000D01*
X128193543Y-108040000D01*
X128203351Y-108139585D01*
X128232399Y-108235343D01*
X128279571Y-108323595D01*
X128343052Y-108400948D01*
X128420405Y-108464429D01*
X128508657Y-108511601D01*
X128604415Y-108540649D01*
X128704000Y-108550457D01*
X129504000Y-108550457D01*
X129603585Y-108540649D01*
X129699343Y-108511601D01*
X129787595Y-108464429D01*
X129864948Y-108400948D01*
X129928429Y-108323595D01*
X129975601Y-108235343D01*
X130004649Y-108139585D01*
X130014457Y-108040000D01*
X130014457Y-106540000D01*
X130004649Y-106440415D01*
X129975601Y-106344657D01*
X129928429Y-106256405D01*
X129864948Y-106179052D01*
X129787595Y-106115571D01*
X129739000Y-106089596D01*
X129739000Y-105093024D01*
X130311026Y-104521000D01*
X130424766Y-104521000D01*
X130489703Y-104642488D01*
X130584275Y-104757725D01*
X130699512Y-104852297D01*
X130830985Y-104922571D01*
X130973641Y-104965845D01*
X131121999Y-104980457D01*
X132022001Y-104980457D01*
X132170359Y-104965845D01*
X132313015Y-104922571D01*
X132330991Y-104912963D01*
X132330929Y-104913593D01*
X132343189Y-105038074D01*
X132379498Y-105157772D01*
X132438463Y-105268086D01*
X132497932Y-105340549D01*
X133003339Y-105845958D01*
X132660000Y-105844542D01*
X132560415Y-105854350D01*
X132464656Y-105883398D01*
X132376405Y-105930570D01*
X132299052Y-105994052D01*
X132235570Y-106071405D01*
X132188398Y-106159656D01*
X132159350Y-106255415D01*
X132149542Y-106355000D01*
X132152000Y-106426000D01*
X132279000Y-106553000D01*
X133383000Y-106553000D01*
X133383000Y-106533000D01*
X133637000Y-106533000D01*
X133637000Y-106553000D01*
X133657000Y-106553000D01*
X133657000Y-106807000D01*
X133637000Y-106807000D01*
X133637000Y-106827000D01*
X133383000Y-106827000D01*
X133383000Y-106807000D01*
X132279000Y-106807000D01*
X132152000Y-106934000D01*
X132149542Y-107005000D01*
X132159350Y-107104585D01*
X132188398Y-107200344D01*
X132235570Y-107288595D01*
X132257240Y-107315000D01*
X132235571Y-107341405D01*
X132188399Y-107429657D01*
X132159351Y-107525415D01*
X132149543Y-107625000D01*
X132149543Y-108275000D01*
X132159351Y-108374585D01*
X132188399Y-108470343D01*
X132235571Y-108558595D01*
X132257241Y-108585000D01*
X132235571Y-108611405D01*
X132188399Y-108699657D01*
X132159351Y-108795415D01*
X132149543Y-108895000D01*
X132149543Y-109545000D01*
X132159351Y-109644585D01*
X132188399Y-109740343D01*
X132235571Y-109828595D01*
X132257241Y-109855000D01*
X132235571Y-109881405D01*
X132188399Y-109969657D01*
X132159351Y-110065415D01*
X132149543Y-110165000D01*
X132149543Y-110815000D01*
X132159351Y-110914585D01*
X132188399Y-111010343D01*
X132235571Y-111098595D01*
X132299052Y-111175948D01*
X132376405Y-111239429D01*
X132464657Y-111286601D01*
X132525820Y-111305155D01*
X131526050Y-112304926D01*
X131501815Y-112324815D01*
X131422463Y-112421507D01*
X131384484Y-112492560D01*
X131318985Y-112512429D01*
X131187512Y-112582703D01*
X131072275Y-112677275D01*
X130977703Y-112792512D01*
X130907429Y-112923985D01*
X130864155Y-113066641D01*
X130849543Y-113214999D01*
X130849543Y-114115001D01*
X130864155Y-114263359D01*
X130907429Y-114406015D01*
X130952587Y-114490500D01*
X130009483Y-114490500D01*
X130014457Y-114440000D01*
X130014457Y-112940000D01*
X130004649Y-112840415D01*
X129975601Y-112744657D01*
X129928429Y-112656405D01*
X129864948Y-112579052D01*
X129787595Y-112515571D01*
X129699343Y-112468399D01*
X129603585Y-112439351D01*
X129504000Y-112429543D01*
X128704000Y-112429543D01*
X128604415Y-112439351D01*
X128508657Y-112468399D01*
X128420405Y-112515571D01*
X128343052Y-112579052D01*
X128279571Y-112656405D01*
X128232399Y-112744657D01*
X128203351Y-112840415D01*
X128193543Y-112940000D01*
X128193543Y-114440000D01*
X128203351Y-114539585D01*
X128210865Y-114564354D01*
X128198917Y-114570740D01*
X128134056Y-114605409D01*
X128054346Y-114670826D01*
X128054343Y-114670829D01*
X128027697Y-114692697D01*
X128005829Y-114719343D01*
X127292344Y-115432829D01*
X127265697Y-115454698D01*
X127243829Y-115481344D01*
X127243826Y-115481347D01*
X127178409Y-115561057D01*
X127118414Y-115673300D01*
X127113548Y-115682404D01*
X127073607Y-115814071D01*
X127068192Y-115869050D01*
X126516000Y-115871000D01*
X126389000Y-115998000D01*
X126389000Y-116652000D01*
X126409000Y-116652000D01*
X126409000Y-116906000D01*
X126389000Y-116906000D01*
X126389000Y-117560000D01*
X126516000Y-117687000D01*
X127063501Y-117688934D01*
X127063501Y-117768543D01*
X125312000Y-117768543D01*
X125212415Y-117778351D01*
X125116657Y-117807399D01*
X125028405Y-117854571D01*
X124951052Y-117918052D01*
X124887571Y-117995405D01*
X124840399Y-118083657D01*
X124811351Y-118179415D01*
X124801543Y-118279000D01*
X124801543Y-119079000D01*
X124811351Y-119178585D01*
X124840399Y-119274343D01*
X124887571Y-119362595D01*
X124951052Y-119439948D01*
X125028405Y-119503429D01*
X125116657Y-119550601D01*
X125212415Y-119579649D01*
X125312000Y-119589457D01*
X127212000Y-119589457D01*
X127311585Y-119579649D01*
X127407343Y-119550601D01*
X127495595Y-119503429D01*
X127572948Y-119439948D01*
X127636429Y-119362595D01*
X127681859Y-119277602D01*
X127709943Y-119262591D01*
X127816303Y-119175303D01*
X127838175Y-119148652D01*
X128231652Y-118755175D01*
X128258303Y-118733303D01*
X128315928Y-118663087D01*
X128335322Y-118639457D01*
X128569674Y-118639457D01*
X128623911Y-118683968D01*
X128822477Y-118790103D01*
X129037933Y-118855461D01*
X129205854Y-118872000D01*
X133053010Y-118872000D01*
X132969582Y-118996859D01*
X132181011Y-120900639D01*
X132165841Y-120976905D01*
X132097543Y-120940399D01*
X132001785Y-120911351D01*
X131902200Y-120901543D01*
X128092200Y-120901543D01*
X127992615Y-120911351D01*
X127896857Y-120940399D01*
X127808605Y-120987571D01*
X127731252Y-121051052D01*
X127667771Y-121128405D01*
X127620599Y-121216657D01*
X127591551Y-121312415D01*
X127581743Y-121412000D01*
X127581743Y-126492000D01*
X127591551Y-126591585D01*
X127620599Y-126687343D01*
X127667771Y-126775595D01*
X127731252Y-126852948D01*
X127808605Y-126916429D01*
X127896857Y-126963601D01*
X127992615Y-126992649D01*
X128092200Y-127002457D01*
X131902200Y-127002457D01*
X132001785Y-126992649D01*
X132097543Y-126963601D01*
X132165841Y-126927095D01*
X132181011Y-127003361D01*
X132969582Y-128907141D01*
X134114411Y-130620499D01*
X135571501Y-132077589D01*
X137268586Y-133211545D01*
X137036844Y-133153151D01*
X136196263Y-132900736D01*
X135367828Y-132610853D01*
X134553231Y-132284095D01*
X133754114Y-131921119D01*
X132972089Y-131522658D01*
X132208730Y-131089513D01*
X131465565Y-130622551D01*
X130744115Y-130122730D01*
X130045813Y-129591041D01*
X129372053Y-129028546D01*
X128724232Y-128436411D01*
X128103589Y-127815768D01*
X127511454Y-127167947D01*
X126948959Y-126494187D01*
X126417270Y-125795885D01*
X125917449Y-125074435D01*
X125450487Y-124331270D01*
X125017342Y-123567911D01*
X124618881Y-122785886D01*
X124255905Y-121986769D01*
X123929147Y-121172172D01*
X123639264Y-120343737D01*
X123386849Y-119503156D01*
X123172391Y-118652055D01*
X122996334Y-117792194D01*
X122899214Y-117179000D01*
X124801542Y-117179000D01*
X124811350Y-117278585D01*
X124840398Y-117374344D01*
X124887570Y-117462595D01*
X124951052Y-117539948D01*
X125028405Y-117603430D01*
X125116656Y-117650602D01*
X125212415Y-117679650D01*
X125312000Y-117689458D01*
X126008000Y-117687000D01*
X126135000Y-117560000D01*
X126135000Y-116906000D01*
X124931000Y-116906000D01*
X124804000Y-117033000D01*
X124801542Y-117179000D01*
X122899214Y-117179000D01*
X122859036Y-116925331D01*
X122797480Y-116379000D01*
X124801542Y-116379000D01*
X124804000Y-116525000D01*
X124931000Y-116652000D01*
X126135000Y-116652000D01*
X126135000Y-115998000D01*
X126008000Y-115871000D01*
X125312000Y-115868542D01*
X125212415Y-115878350D01*
X125116656Y-115907398D01*
X125028405Y-115954570D01*
X124951052Y-116018052D01*
X124887570Y-116095405D01*
X124840398Y-116183656D01*
X124811350Y-116279415D01*
X124801542Y-116379000D01*
X122797480Y-116379000D01*
X122760766Y-116053164D01*
X122701725Y-115177472D01*
X122685175Y-114440000D01*
X124493542Y-114440000D01*
X124503350Y-114539585D01*
X124532398Y-114635344D01*
X124579570Y-114723595D01*
X124643052Y-114800948D01*
X124720405Y-114864430D01*
X124808656Y-114911602D01*
X124904415Y-114940650D01*
X125004000Y-114950458D01*
X125150000Y-114948000D01*
X125277000Y-114821000D01*
X125277000Y-113817000D01*
X125531000Y-113817000D01*
X125531000Y-114821000D01*
X125658000Y-114948000D01*
X125804000Y-114950458D01*
X125903585Y-114940650D01*
X125999344Y-114911602D01*
X126087595Y-114864430D01*
X126164948Y-114800948D01*
X126228430Y-114723595D01*
X126275602Y-114635344D01*
X126304650Y-114539585D01*
X126314458Y-114440000D01*
X126312000Y-113944000D01*
X126185000Y-113817000D01*
X125531000Y-113817000D01*
X125277000Y-113817000D01*
X124623000Y-113817000D01*
X124496000Y-113944000D01*
X124493542Y-114440000D01*
X122685175Y-114440000D01*
X122682032Y-114300000D01*
X122701725Y-113422528D01*
X122734258Y-112940000D01*
X124493542Y-112940000D01*
X124496000Y-113436000D01*
X124623000Y-113563000D01*
X125277000Y-113563000D01*
X125277000Y-112559000D01*
X125531000Y-112559000D01*
X125531000Y-113563000D01*
X126185000Y-113563000D01*
X126312000Y-113436000D01*
X126314458Y-112940000D01*
X126304650Y-112840415D01*
X126275602Y-112744656D01*
X126228430Y-112656405D01*
X126164948Y-112579052D01*
X126087595Y-112515570D01*
X125999344Y-112468398D01*
X125903585Y-112439350D01*
X125804000Y-112429542D01*
X125658000Y-112432000D01*
X125531000Y-112559000D01*
X125277000Y-112559000D01*
X125150000Y-112432000D01*
X125004000Y-112429542D01*
X124904415Y-112439350D01*
X124808656Y-112468398D01*
X124720405Y-112515570D01*
X124643052Y-112579052D01*
X124579570Y-112656405D01*
X124532398Y-112744656D01*
X124503350Y-112840415D01*
X124493542Y-112940000D01*
X122734258Y-112940000D01*
X122760766Y-112546836D01*
X122859036Y-111674669D01*
X122996334Y-110807806D01*
X123172391Y-109947945D01*
X123386849Y-109096844D01*
X123639264Y-108256263D01*
X123714937Y-108040000D01*
X124493542Y-108040000D01*
X124503350Y-108139585D01*
X124532398Y-108235344D01*
X124579570Y-108323595D01*
X124643052Y-108400948D01*
X124720405Y-108464430D01*
X124808656Y-108511602D01*
X124904415Y-108540650D01*
X125004000Y-108550458D01*
X125150000Y-108548000D01*
X125277000Y-108421000D01*
X125277000Y-107417000D01*
X124623000Y-107417000D01*
X124496000Y-107544000D01*
X124493542Y-108040000D01*
X123714937Y-108040000D01*
X123929147Y-107427828D01*
X124255905Y-106613231D01*
X124289168Y-106540000D01*
X124493542Y-106540000D01*
X124496000Y-107036000D01*
X124623000Y-107163000D01*
X125277000Y-107163000D01*
X125277000Y-106159000D01*
X125150000Y-106032000D01*
X125004000Y-106029542D01*
X124904415Y-106039350D01*
X124808656Y-106068398D01*
X124720405Y-106115570D01*
X124643052Y-106179052D01*
X124579570Y-106256405D01*
X124532398Y-106344656D01*
X124503350Y-106440415D01*
X124493542Y-106540000D01*
X124289168Y-106540000D01*
X124618881Y-105814114D01*
X125017342Y-105032089D01*
X125450487Y-104268730D01*
X125857000Y-103621769D01*
X125857000Y-106034762D01*
X125804000Y-106029542D01*
X125658000Y-106032000D01*
X125531000Y-106159000D01*
X125531000Y-107163000D01*
X125551000Y-107163000D01*
X125551000Y-107417000D01*
X125531000Y-107417000D01*
X125531000Y-108421000D01*
X125658000Y-108548000D01*
X125804000Y-108550458D01*
X125857001Y-108545238D01*
X125857001Y-109464974D01*
X125466976Y-109855000D01*
X125388441Y-109855000D01*
X125216688Y-109889164D01*
X125054901Y-109956179D01*
X124909296Y-110053469D01*
X124785469Y-110177296D01*
X124688179Y-110322901D01*
X124621164Y-110484688D01*
X124587000Y-110656441D01*
X124587000Y-110831559D01*
X124621164Y-111003312D01*
X124688179Y-111165099D01*
X124785469Y-111310704D01*
X124909296Y-111434531D01*
X125054901Y-111531821D01*
X125216688Y-111598836D01*
X125388441Y-111633000D01*
X125563559Y-111633000D01*
X125735312Y-111598836D01*
X125897099Y-111531821D01*
X126042704Y-111434531D01*
X126166531Y-111310704D01*
X126263821Y-111165099D01*
X126330836Y-111003312D01*
X126365000Y-110831559D01*
X126365000Y-110753024D01*
X126918955Y-110199070D01*
X126943185Y-110179185D01*
X127022537Y-110082494D01*
X127081502Y-109972180D01*
X127117812Y-109852482D01*
X127127000Y-109759192D01*
X127127000Y-109759182D01*
X127130071Y-109728001D01*
X127127000Y-109696820D01*
X127127000Y-103196524D01*
X129053524Y-101270000D01*
X130361542Y-101270000D01*
X130364000Y-101591000D01*
X130491000Y-101718000D01*
X131445000Y-101718000D01*
X131445000Y-100889000D01*
X131699000Y-100889000D01*
X131699000Y-101718000D01*
X132653000Y-101718000D01*
X132780000Y-101591000D01*
X132782458Y-101270000D01*
X132772650Y-101170415D01*
X132743602Y-101074656D01*
X132696430Y-100986405D01*
X132632948Y-100909052D01*
X132555595Y-100845570D01*
X132467344Y-100798398D01*
X132371585Y-100769350D01*
X132272000Y-100759542D01*
X131826000Y-100762000D01*
X131699000Y-100889000D01*
X131445000Y-100889000D01*
X131318000Y-100762000D01*
X130872000Y-100759542D01*
X130772415Y-100769350D01*
X130676656Y-100798398D01*
X130588405Y-100845570D01*
X130511052Y-100909052D01*
X130447570Y-100986405D01*
X130400398Y-101074656D01*
X130371350Y-101170415D01*
X130361542Y-101270000D01*
X129053524Y-101270000D01*
X131136526Y-99187000D01*
X132037569Y-99187000D01*
X131987164Y-99308688D01*
X131953000Y-99480441D01*
X131953000Y-99655559D01*
X131987164Y-99827312D01*
X132054179Y-99989099D01*
X132151469Y-100134704D01*
X132275296Y-100258531D01*
X132420901Y-100355821D01*
X132582688Y-100422836D01*
X132754441Y-100457000D01*
X132929559Y-100457000D01*
X132974515Y-100448058D01*
X133064753Y-100456945D01*
X133064763Y-100456945D01*
X133095944Y-100460016D01*
X133127125Y-100456945D01*
X137763874Y-100456945D01*
X137795055Y-100460016D01*
X137826236Y-100456945D01*
X137826247Y-100456945D01*
X137919537Y-100447757D01*
X138039235Y-100411447D01*
X138149549Y-100352482D01*
X138246240Y-100273130D01*
X138266129Y-100248895D01*
X138762021Y-99753004D01*
X138857999Y-99762457D01*
X139508001Y-99762457D01*
X139656359Y-99747845D01*
X139799015Y-99704571D01*
X139930488Y-99634297D01*
X140045725Y-99539725D01*
X140140297Y-99424488D01*
X140208000Y-99297825D01*
X140275703Y-99424488D01*
X140370275Y-99539725D01*
X140485512Y-99634297D01*
X140616985Y-99704571D01*
X140759641Y-99747845D01*
X140907999Y-99762457D01*
X141558001Y-99762457D01*
X141706359Y-99747845D01*
X141849015Y-99704571D01*
X141980488Y-99634297D01*
X142095725Y-99539725D01*
X142190297Y-99424488D01*
X142260571Y-99293015D01*
X142303845Y-99150359D01*
X142318457Y-99002001D01*
X142318457Y-98101999D01*
X142303845Y-97953641D01*
X142260571Y-97810985D01*
X142190297Y-97679512D01*
X142095725Y-97564275D01*
X141980488Y-97469703D01*
X141868000Y-97409577D01*
X141868000Y-97028024D01*
X142553815Y-96342211D01*
X143024913Y-96342211D01*
X142992429Y-96402985D01*
G36*
X146592055Y-95232391D02*
G01*
X147443156Y-95446849D01*
X148283737Y-95699264D01*
X149112172Y-95989147D01*
X149926769Y-96315905D01*
X150725886Y-96678881D01*
X151507911Y-97077342D01*
X152271270Y-97510487D01*
X153014435Y-97977449D01*
X153735885Y-98477270D01*
X154434187Y-99008959D01*
X155107947Y-99571454D01*
X155755768Y-100163589D01*
X156376411Y-100784232D01*
X156968546Y-101432053D01*
X157531041Y-102105813D01*
X158062730Y-102804115D01*
X158562551Y-103525565D01*
X159029513Y-104268730D01*
X159462658Y-105032089D01*
X159861119Y-105814114D01*
X160224095Y-106613231D01*
X160550853Y-107427828D01*
X160840736Y-108256263D01*
X161093151Y-109096844D01*
X161307609Y-109947945D01*
X161483666Y-110807806D01*
X161620964Y-111674669D01*
X161719234Y-112546836D01*
X161778275Y-113422528D01*
X161797968Y-114300000D01*
X161778275Y-115177472D01*
X161719234Y-116053164D01*
X161620964Y-116925331D01*
X161483666Y-117792194D01*
X161307609Y-118652055D01*
X161093151Y-119503156D01*
X160840736Y-120343737D01*
X160550853Y-121172172D01*
X160224095Y-121986769D01*
X159861119Y-122785886D01*
X159462658Y-123567911D01*
X159029513Y-124331270D01*
X158562551Y-125074435D01*
X158062730Y-125795885D01*
X157531041Y-126494187D01*
X156968546Y-127167947D01*
X156376411Y-127815768D01*
X155755768Y-128436411D01*
X155107947Y-129028546D01*
X154434187Y-129591041D01*
X153735885Y-130122730D01*
X153014435Y-130622551D01*
X152271270Y-131089513D01*
X151507911Y-131522658D01*
X150725886Y-131921119D01*
X149926769Y-132284095D01*
X149112172Y-132610853D01*
X148283737Y-132900736D01*
X147443156Y-133153151D01*
X147211414Y-133211545D01*
X148908499Y-132077589D01*
X150365589Y-130620499D01*
X151510418Y-128907141D01*
X152298989Y-127003361D01*
X152314159Y-126927095D01*
X152382457Y-126963601D01*
X152478215Y-126992649D01*
X152577800Y-127002457D01*
X156387800Y-127002457D01*
X156487385Y-126992649D01*
X156583143Y-126963601D01*
X156671395Y-126916429D01*
X156748748Y-126852948D01*
X156812229Y-126775595D01*
X156859401Y-126687343D01*
X156888449Y-126591585D01*
X156898257Y-126492000D01*
X156898257Y-121412000D01*
X156888449Y-121312415D01*
X156859401Y-121216657D01*
X156812229Y-121128405D01*
X156748748Y-121051052D01*
X156671395Y-120987571D01*
X156583143Y-120940399D01*
X156487385Y-120911351D01*
X156387800Y-120901543D01*
X155625800Y-120901543D01*
X155625800Y-120437645D01*
X155932989Y-120130457D01*
X156237500Y-120130457D01*
X156385858Y-120115845D01*
X156528514Y-120072571D01*
X156659987Y-120002297D01*
X156775224Y-119907724D01*
X156869797Y-119792487D01*
X156940071Y-119661014D01*
X156983345Y-119518358D01*
X156997957Y-119370000D01*
X156997957Y-118120000D01*
X156983345Y-117971642D01*
X156940071Y-117828986D01*
X156894749Y-117744194D01*
X157527043Y-118376489D01*
X157527043Y-119370000D01*
X157541655Y-119518358D01*
X157584929Y-119661014D01*
X157655203Y-119792487D01*
X157749776Y-119907724D01*
X157865013Y-120002297D01*
X157996486Y-120072571D01*
X158139142Y-120115845D01*
X158287500Y-120130457D01*
X159212500Y-120130457D01*
X159360858Y-120115845D01*
X159503514Y-120072571D01*
X159634987Y-120002297D01*
X159750224Y-119907724D01*
X159844797Y-119792487D01*
X159915071Y-119661014D01*
X159958345Y-119518358D01*
X159972957Y-119370000D01*
X159972957Y-118120000D01*
X159958345Y-117971642D01*
X159915071Y-117828986D01*
X159874931Y-117753890D01*
X159811103Y-117543477D01*
X159704968Y-117344911D01*
X159562133Y-117170867D01*
X159518524Y-117135078D01*
X158923903Y-116540457D01*
X159843000Y-116540457D01*
X159942585Y-116530649D01*
X160038343Y-116501601D01*
X160126595Y-116454429D01*
X160203948Y-116390948D01*
X160267429Y-116313595D01*
X160314601Y-116225343D01*
X160343649Y-116129585D01*
X160353457Y-116030000D01*
X160353457Y-113530000D01*
X160343649Y-113430415D01*
X160314601Y-113334657D01*
X160267429Y-113246405D01*
X160203948Y-113169052D01*
X160126595Y-113105571D01*
X160038343Y-113058399D01*
X159944724Y-113030000D01*
X160038343Y-113001601D01*
X160126595Y-112954429D01*
X160203948Y-112890948D01*
X160267429Y-112813595D01*
X160314601Y-112725343D01*
X160343649Y-112629585D01*
X160353457Y-112530000D01*
X160353457Y-110030000D01*
X160343649Y-109930415D01*
X160314601Y-109834657D01*
X160267429Y-109746405D01*
X160203948Y-109669052D01*
X160126595Y-109605571D01*
X160038343Y-109558399D01*
X159942585Y-109529351D01*
X159843000Y-109519543D01*
X158593000Y-109519543D01*
X158493415Y-109529351D01*
X158397657Y-109558399D01*
X158309405Y-109605571D01*
X158232052Y-109669052D01*
X158168571Y-109746405D01*
X158121399Y-109834657D01*
X158092351Y-109930415D01*
X158082543Y-110030000D01*
X158082543Y-112530000D01*
X158092351Y-112629585D01*
X158121399Y-112725343D01*
X158168571Y-112813595D01*
X158232052Y-112890948D01*
X158309405Y-112954429D01*
X158397657Y-113001601D01*
X158491276Y-113030000D01*
X158397657Y-113058399D01*
X158309405Y-113105571D01*
X158232052Y-113169052D01*
X158168571Y-113246405D01*
X158121399Y-113334657D01*
X158092351Y-113430415D01*
X158082543Y-113530000D01*
X158082543Y-115699098D01*
X157861000Y-115477555D01*
X157861000Y-114751854D01*
X157853457Y-114675270D01*
X157853457Y-113530000D01*
X157843649Y-113430415D01*
X157814601Y-113334657D01*
X157767429Y-113246405D01*
X157703948Y-113169052D01*
X157626595Y-113105571D01*
X157538343Y-113058399D01*
X157444724Y-113030000D01*
X157538343Y-113001601D01*
X157626595Y-112954429D01*
X157703948Y-112890948D01*
X157767429Y-112813595D01*
X157814601Y-112725343D01*
X157843649Y-112629585D01*
X157853457Y-112530000D01*
X157853457Y-110030000D01*
X157843649Y-109930415D01*
X157814601Y-109834657D01*
X157767429Y-109746405D01*
X157703948Y-109669052D01*
X157626595Y-109605571D01*
X157538343Y-109558399D01*
X157442585Y-109529351D01*
X157343000Y-109519543D01*
X156093000Y-109519543D01*
X155993415Y-109529351D01*
X155897657Y-109558399D01*
X155809405Y-109605571D01*
X155732052Y-109669052D01*
X155668571Y-109746405D01*
X155621399Y-109834657D01*
X155592351Y-109930415D01*
X155582543Y-110030000D01*
X155582543Y-112530000D01*
X155592351Y-112629585D01*
X155621399Y-112725343D01*
X155668571Y-112813595D01*
X155732052Y-112890948D01*
X155809405Y-112954429D01*
X155897657Y-113001601D01*
X155991276Y-113030000D01*
X155897657Y-113058399D01*
X155809405Y-113105571D01*
X155732052Y-113169052D01*
X155668571Y-113246405D01*
X155621399Y-113334657D01*
X155592351Y-113430415D01*
X155582543Y-113530000D01*
X155582543Y-114675270D01*
X155575000Y-114751854D01*
X155575000Y-115894861D01*
X155569471Y-115951000D01*
X155575000Y-116007139D01*
X155575000Y-116007145D01*
X155589306Y-116152399D01*
X155591539Y-116175067D01*
X155605048Y-116219598D01*
X155656897Y-116390522D01*
X155763032Y-116589088D01*
X155905867Y-116763133D01*
X155949483Y-116798928D01*
X155997076Y-116846521D01*
X156613306Y-117462752D01*
X156528514Y-117417429D01*
X156385858Y-117374155D01*
X156237500Y-117359543D01*
X155312500Y-117359543D01*
X155164142Y-117374155D01*
X155021486Y-117417429D01*
X154890013Y-117487703D01*
X154774776Y-117582276D01*
X154680203Y-117697513D01*
X154609929Y-117828986D01*
X154566655Y-117971642D01*
X154552043Y-118120000D01*
X154552043Y-118278511D01*
X153714278Y-119116277D01*
X153670668Y-119152067D01*
X153634878Y-119195677D01*
X153634876Y-119195679D01*
X153602175Y-119235525D01*
X153527833Y-119326111D01*
X153437406Y-119495290D01*
X153421698Y-119524677D01*
X153356339Y-119740133D01*
X153334271Y-119964200D01*
X153339801Y-120020348D01*
X153339801Y-120901543D01*
X152577800Y-120901543D01*
X152478215Y-120911351D01*
X152382457Y-120940399D01*
X152314159Y-120976905D01*
X152298989Y-120900639D01*
X151510418Y-118996859D01*
X150365589Y-117283501D01*
X148908499Y-115826411D01*
X147195141Y-114681582D01*
X145291361Y-113893011D01*
X143270319Y-113491000D01*
X141209681Y-113491000D01*
X139188639Y-113893011D01*
X137284859Y-114681582D01*
X135571501Y-115826411D01*
X134811912Y-116586000D01*
X129205854Y-116586000D01*
X129037933Y-116602539D01*
X128822477Y-116667897D01*
X128623911Y-116774032D01*
X128569674Y-116818543D01*
X128460500Y-116818543D01*
X128460500Y-116240327D01*
X128813328Y-115887500D01*
X133569702Y-115887500D01*
X133604000Y-115890878D01*
X133638298Y-115887500D01*
X133638309Y-115887500D01*
X133740930Y-115877393D01*
X133872597Y-115837452D01*
X133993943Y-115772591D01*
X134100303Y-115685303D01*
X134122175Y-115658652D01*
X134454652Y-115326175D01*
X134481303Y-115304303D01*
X134568591Y-115197943D01*
X134633452Y-115076597D01*
X134673393Y-114944930D01*
X134683500Y-114842309D01*
X134683500Y-114842299D01*
X134686878Y-114808001D01*
X134683500Y-114773703D01*
X134683500Y-114773482D01*
X134732488Y-114747297D01*
X134847725Y-114652725D01*
X134942297Y-114537488D01*
X135012571Y-114406015D01*
X135055845Y-114263359D01*
X135070457Y-114115001D01*
X135070457Y-113836778D01*
X137528236Y-111379000D01*
X139402339Y-111379000D01*
X139445999Y-111383300D01*
X139489659Y-111379000D01*
X142196340Y-111379000D01*
X142240000Y-111383300D01*
X142283660Y-111379000D01*
X142283667Y-111379000D01*
X142414274Y-111366136D01*
X142581851Y-111315303D01*
X142736291Y-111232753D01*
X142871659Y-111121659D01*
X142899499Y-111087736D01*
X143359543Y-110627692D01*
X143359543Y-110640000D01*
X143372233Y-110768849D01*
X143409817Y-110892746D01*
X143470850Y-111006930D01*
X143552986Y-111107014D01*
X143653070Y-111189150D01*
X143767254Y-111250183D01*
X143891151Y-111287767D01*
X144020000Y-111300457D01*
X145670000Y-111300457D01*
X145798849Y-111287767D01*
X145922746Y-111250183D01*
X146036930Y-111189150D01*
X146137014Y-111107014D01*
X146219150Y-111006930D01*
X146280183Y-110892746D01*
X146317767Y-110768849D01*
X146330457Y-110640000D01*
X146330457Y-110503693D01*
X146431001Y-110604236D01*
X146431000Y-111716340D01*
X146426700Y-111760000D01*
X146431000Y-111803660D01*
X146431000Y-111803666D01*
X146443864Y-111934273D01*
X146494697Y-112101850D01*
X146577247Y-112256290D01*
X146688341Y-112391659D01*
X146722264Y-112419499D01*
X149680506Y-115377742D01*
X149708341Y-115411659D01*
X149843709Y-115522753D01*
X149998149Y-115605303D01*
X150092198Y-115633832D01*
X150165725Y-115656136D01*
X150176610Y-115657208D01*
X150296333Y-115669000D01*
X150296340Y-115669000D01*
X150340000Y-115673300D01*
X150383660Y-115669000D01*
X153082543Y-115669000D01*
X153082543Y-116030000D01*
X153092351Y-116129585D01*
X153121399Y-116225343D01*
X153168571Y-116313595D01*
X153232052Y-116390948D01*
X153309405Y-116454429D01*
X153397657Y-116501601D01*
X153493415Y-116530649D01*
X153593000Y-116540457D01*
X154843000Y-116540457D01*
X154942585Y-116530649D01*
X155038343Y-116501601D01*
X155126595Y-116454429D01*
X155203948Y-116390948D01*
X155267429Y-116313595D01*
X155314601Y-116225343D01*
X155343649Y-116129585D01*
X155353457Y-116030000D01*
X155353457Y-113530000D01*
X155343649Y-113430415D01*
X155314601Y-113334657D01*
X155267429Y-113246405D01*
X155203948Y-113169052D01*
X155126595Y-113105571D01*
X155038343Y-113058399D01*
X154944724Y-113030000D01*
X155038343Y-113001601D01*
X155126595Y-112954429D01*
X155203948Y-112890948D01*
X155267429Y-112813595D01*
X155314601Y-112725343D01*
X155343649Y-112629585D01*
X155353457Y-112530000D01*
X155353457Y-110030000D01*
X155343649Y-109930415D01*
X155314601Y-109834657D01*
X155267429Y-109746405D01*
X155203948Y-109669052D01*
X155126595Y-109605571D01*
X155038343Y-109558399D01*
X154942585Y-109529351D01*
X154843000Y-109519543D01*
X153593000Y-109519543D01*
X153493415Y-109529351D01*
X153397657Y-109558399D01*
X153309405Y-109605571D01*
X153232052Y-109669052D01*
X153168571Y-109746405D01*
X153121399Y-109834657D01*
X153092351Y-109930415D01*
X153082543Y-110030000D01*
X153082543Y-112530000D01*
X153092351Y-112629585D01*
X153121399Y-112725343D01*
X153168571Y-112813595D01*
X153232052Y-112890948D01*
X153309405Y-112954429D01*
X153397657Y-113001601D01*
X153491276Y-113030000D01*
X153397657Y-113058399D01*
X153309405Y-113105571D01*
X153232052Y-113169052D01*
X153168571Y-113246405D01*
X153121399Y-113334657D01*
X153092351Y-113430415D01*
X153082543Y-113530000D01*
X153082543Y-113891000D01*
X150708236Y-113891000D01*
X148209000Y-111391765D01*
X148209000Y-110790000D01*
X148309542Y-110790000D01*
X148319350Y-110889585D01*
X148348398Y-110985344D01*
X148395570Y-111073595D01*
X148459052Y-111150948D01*
X148536405Y-111214430D01*
X148624656Y-111261602D01*
X148720415Y-111290650D01*
X148820000Y-111300458D01*
X149541000Y-111298000D01*
X149668000Y-111171000D01*
X149668000Y-110617000D01*
X149922000Y-110617000D01*
X149922000Y-111171000D01*
X150049000Y-111298000D01*
X150770000Y-111300458D01*
X150869585Y-111290650D01*
X150965344Y-111261602D01*
X151053595Y-111214430D01*
X151130948Y-111150948D01*
X151194430Y-111073595D01*
X151241602Y-110985344D01*
X151270650Y-110889585D01*
X151280458Y-110790000D01*
X151278000Y-110744000D01*
X151151000Y-110617000D01*
X149922000Y-110617000D01*
X149668000Y-110617000D01*
X148439000Y-110617000D01*
X148312000Y-110744000D01*
X148309542Y-110790000D01*
X148209000Y-110790000D01*
X148209000Y-110279660D01*
X148213300Y-110236000D01*
X148209000Y-110192340D01*
X148209000Y-110192333D01*
X148196136Y-110061726D01*
X148194616Y-110056713D01*
X148168208Y-109969657D01*
X148145303Y-109894149D01*
X148142639Y-109889164D01*
X148112331Y-109832463D01*
X148062753Y-109739709D01*
X147951659Y-109604341D01*
X147917741Y-109576505D01*
X147701000Y-109359764D01*
X147701000Y-109099024D01*
X148248930Y-109646955D01*
X148268815Y-109671185D01*
X148365506Y-109750537D01*
X148475820Y-109809502D01*
X148480970Y-109811064D01*
X148459052Y-109829052D01*
X148395570Y-109906405D01*
X148348398Y-109994656D01*
X148319350Y-110090415D01*
X148309542Y-110190000D01*
X148312000Y-110236000D01*
X148439000Y-110363000D01*
X149668000Y-110363000D01*
X149668000Y-110343000D01*
X149922000Y-110343000D01*
X149922000Y-110363000D01*
X151151000Y-110363000D01*
X151278000Y-110236000D01*
X151280458Y-110190000D01*
X151270650Y-110090415D01*
X151241602Y-109994656D01*
X151194430Y-109906405D01*
X151130948Y-109829052D01*
X151108600Y-109810711D01*
X151169150Y-109736930D01*
X151230183Y-109622746D01*
X151267767Y-109498849D01*
X151280457Y-109370000D01*
X151280457Y-109070000D01*
X151267767Y-108941151D01*
X151230183Y-108817254D01*
X151169150Y-108703070D01*
X151087014Y-108602986D01*
X151065098Y-108585000D01*
X151087014Y-108567014D01*
X151169150Y-108466930D01*
X151230183Y-108352746D01*
X151267767Y-108228849D01*
X151280457Y-108100000D01*
X151280457Y-107800000D01*
X151272644Y-107720669D01*
X151420932Y-107868958D01*
X151440815Y-107893185D01*
X151465039Y-107913065D01*
X151465043Y-107913069D01*
X151537506Y-107972538D01*
X151610549Y-108011580D01*
X151647820Y-108031502D01*
X151767518Y-108067812D01*
X151860808Y-108077000D01*
X151860811Y-108077000D01*
X151892000Y-108080072D01*
X151923189Y-108077000D01*
X155023270Y-108077000D01*
X155055429Y-108183015D01*
X155125703Y-108314488D01*
X155220275Y-108429725D01*
X155335512Y-108524297D01*
X155466985Y-108594571D01*
X155609641Y-108637845D01*
X155757999Y-108652457D01*
X156408001Y-108652457D01*
X156556359Y-108637845D01*
X156699015Y-108594571D01*
X156830488Y-108524297D01*
X156945725Y-108429725D01*
X157040297Y-108314488D01*
X157108000Y-108187825D01*
X157175703Y-108314488D01*
X157270275Y-108429725D01*
X157385512Y-108524297D01*
X157516985Y-108594571D01*
X157659641Y-108637845D01*
X157807999Y-108652457D01*
X158458001Y-108652457D01*
X158606359Y-108637845D01*
X158749015Y-108594571D01*
X158880488Y-108524297D01*
X158995725Y-108429725D01*
X159090297Y-108314488D01*
X159160571Y-108183015D01*
X159203845Y-108040359D01*
X159218457Y-107892001D01*
X159218457Y-106991999D01*
X159203845Y-106843641D01*
X159160571Y-106700985D01*
X159090297Y-106569512D01*
X158995725Y-106454275D01*
X158880488Y-106359703D01*
X158749015Y-106289429D01*
X158606359Y-106246155D01*
X158458001Y-106231543D01*
X157820567Y-106231543D01*
X157210808Y-105621784D01*
X157292297Y-105522488D01*
X157362571Y-105391015D01*
X157405845Y-105248359D01*
X157420457Y-105100001D01*
X157420457Y-104449999D01*
X157405845Y-104301641D01*
X157362571Y-104158985D01*
X157292297Y-104027512D01*
X157197725Y-103912275D01*
X157082488Y-103817703D01*
X156955825Y-103750000D01*
X157082488Y-103682297D01*
X157197725Y-103587725D01*
X157292297Y-103472488D01*
X157362571Y-103341015D01*
X157405845Y-103198359D01*
X157420457Y-103050001D01*
X157420457Y-102399999D01*
X157405845Y-102251641D01*
X157362571Y-102108985D01*
X157292297Y-101977512D01*
X157197725Y-101862275D01*
X157082488Y-101767703D01*
X156951015Y-101697429D01*
X156808359Y-101654155D01*
X156660001Y-101639543D01*
X155759999Y-101639543D01*
X155654449Y-101649939D01*
X155672934Y-101605312D01*
X155707098Y-101433559D01*
X155707098Y-101258441D01*
X155672934Y-101086688D01*
X155605919Y-100924901D01*
X155508629Y-100779296D01*
X155384802Y-100655469D01*
X155239197Y-100558179D01*
X155077410Y-100491164D01*
X154905657Y-100457000D01*
X154822025Y-100457000D01*
X154372457Y-100007432D01*
X154372457Y-99478999D01*
X154357845Y-99330641D01*
X154314571Y-99187985D01*
X154244297Y-99056512D01*
X154149725Y-98941275D01*
X154034488Y-98846703D01*
X153903015Y-98776429D01*
X153760359Y-98733155D01*
X153612001Y-98718543D01*
X152711999Y-98718543D01*
X152563641Y-98733155D01*
X152420985Y-98776429D01*
X152289512Y-98846703D01*
X152174275Y-98941275D01*
X152146000Y-98975728D01*
X152146000Y-98797181D01*
X152149071Y-98766000D01*
X152146000Y-98734819D01*
X152146000Y-98734808D01*
X152136812Y-98641518D01*
X152100502Y-98521820D01*
X152095936Y-98513277D01*
X152041538Y-98411506D01*
X151988687Y-98347108D01*
X151962185Y-98314815D01*
X151937956Y-98294931D01*
X151514074Y-97871050D01*
X151494185Y-97846815D01*
X151449749Y-97810347D01*
X151438845Y-97699641D01*
X151395571Y-97556985D01*
X151325297Y-97425512D01*
X151230725Y-97310275D01*
X151115488Y-97215703D01*
X150984015Y-97145429D01*
X150841359Y-97102155D01*
X150693001Y-97087543D01*
X150042999Y-97087543D01*
X149894641Y-97102155D01*
X149751985Y-97145429D01*
X149620512Y-97215703D01*
X149505275Y-97310275D01*
X149410703Y-97425512D01*
X149343000Y-97552175D01*
X149275297Y-97425512D01*
X149180725Y-97310275D01*
X149065488Y-97215703D01*
X148934015Y-97145429D01*
X148791359Y-97102155D01*
X148643001Y-97087543D01*
X147992999Y-97087543D01*
X147844641Y-97102155D01*
X147701985Y-97145429D01*
X147570512Y-97215703D01*
X147455275Y-97310275D01*
X147360703Y-97425512D01*
X147290429Y-97556985D01*
X147249246Y-97692748D01*
X147249246Y-96528429D01*
X147252318Y-96497240D01*
X147247381Y-96447113D01*
X147240058Y-96372758D01*
X147203748Y-96253060D01*
X147196863Y-96240179D01*
X147144784Y-96142746D01*
X147085315Y-96070283D01*
X147085311Y-96070279D01*
X147065431Y-96046055D01*
X147041206Y-96026174D01*
X146158690Y-95143659D01*
X146592055Y-95232391D01*
G37*
X146592055Y-95232391D02*
X147443156Y-95446849D01*
X148283737Y-95699264D01*
X149112172Y-95989147D01*
X149926769Y-96315905D01*
X150725886Y-96678881D01*
X151507911Y-97077342D01*
X152271270Y-97510487D01*
X153014435Y-97977449D01*
X153735885Y-98477270D01*
X154434187Y-99008959D01*
X155107947Y-99571454D01*
X155755768Y-100163589D01*
X156376411Y-100784232D01*
X156968546Y-101432053D01*
X157531041Y-102105813D01*
X158062730Y-102804115D01*
X158562551Y-103525565D01*
X159029513Y-104268730D01*
X159462658Y-105032089D01*
X159861119Y-105814114D01*
X160224095Y-106613231D01*
X160550853Y-107427828D01*
X160840736Y-108256263D01*
X161093151Y-109096844D01*
X161307609Y-109947945D01*
X161483666Y-110807806D01*
X161620964Y-111674669D01*
X161719234Y-112546836D01*
X161778275Y-113422528D01*
X161797968Y-114300000D01*
X161778275Y-115177472D01*
X161719234Y-116053164D01*
X161620964Y-116925331D01*
X161483666Y-117792194D01*
X161307609Y-118652055D01*
X161093151Y-119503156D01*
X160840736Y-120343737D01*
X160550853Y-121172172D01*
X160224095Y-121986769D01*
X159861119Y-122785886D01*
X159462658Y-123567911D01*
X159029513Y-124331270D01*
X158562551Y-125074435D01*
X158062730Y-125795885D01*
X157531041Y-126494187D01*
X156968546Y-127167947D01*
X156376411Y-127815768D01*
X155755768Y-128436411D01*
X155107947Y-129028546D01*
X154434187Y-129591041D01*
X153735885Y-130122730D01*
X153014435Y-130622551D01*
X152271270Y-131089513D01*
X151507911Y-131522658D01*
X150725886Y-131921119D01*
X149926769Y-132284095D01*
X149112172Y-132610853D01*
X148283737Y-132900736D01*
X147443156Y-133153151D01*
X147211414Y-133211545D01*
X148908499Y-132077589D01*
X150365589Y-130620499D01*
X151510418Y-128907141D01*
X152298989Y-127003361D01*
X152314159Y-126927095D01*
X152382457Y-126963601D01*
X152478215Y-126992649D01*
X152577800Y-127002457D01*
X156387800Y-127002457D01*
X156487385Y-126992649D01*
X156583143Y-126963601D01*
X156671395Y-126916429D01*
X156748748Y-126852948D01*
X156812229Y-126775595D01*
X156859401Y-126687343D01*
X156888449Y-126591585D01*
X156898257Y-126492000D01*
X156898257Y-121412000D01*
X156888449Y-121312415D01*
X156859401Y-121216657D01*
X156812229Y-121128405D01*
X156748748Y-121051052D01*
X156671395Y-120987571D01*
X156583143Y-120940399D01*
X156487385Y-120911351D01*
X156387800Y-120901543D01*
X155625800Y-120901543D01*
X155625800Y-120437645D01*
X155932989Y-120130457D01*
X156237500Y-120130457D01*
X156385858Y-120115845D01*
X156528514Y-120072571D01*
X156659987Y-120002297D01*
X156775224Y-119907724D01*
X156869797Y-119792487D01*
X156940071Y-119661014D01*
X156983345Y-119518358D01*
X156997957Y-119370000D01*
X156997957Y-118120000D01*
X156983345Y-117971642D01*
X156940071Y-117828986D01*
X156894749Y-117744194D01*
X157527043Y-118376489D01*
X157527043Y-119370000D01*
X157541655Y-119518358D01*
X157584929Y-119661014D01*
X157655203Y-119792487D01*
X157749776Y-119907724D01*
X157865013Y-120002297D01*
X157996486Y-120072571D01*
X158139142Y-120115845D01*
X158287500Y-120130457D01*
X159212500Y-120130457D01*
X159360858Y-120115845D01*
X159503514Y-120072571D01*
X159634987Y-120002297D01*
X159750224Y-119907724D01*
X159844797Y-119792487D01*
X159915071Y-119661014D01*
X159958345Y-119518358D01*
X159972957Y-119370000D01*
X159972957Y-118120000D01*
X159958345Y-117971642D01*
X159915071Y-117828986D01*
X159874931Y-117753890D01*
X159811103Y-117543477D01*
X159704968Y-117344911D01*
X159562133Y-117170867D01*
X159518524Y-117135078D01*
X158923903Y-116540457D01*
X159843000Y-116540457D01*
X159942585Y-116530649D01*
X160038343Y-116501601D01*
X160126595Y-116454429D01*
X160203948Y-116390948D01*
X160267429Y-116313595D01*
X160314601Y-116225343D01*
X160343649Y-116129585D01*
X160353457Y-116030000D01*
X160353457Y-113530000D01*
X160343649Y-113430415D01*
X160314601Y-113334657D01*
X160267429Y-113246405D01*
X160203948Y-113169052D01*
X160126595Y-113105571D01*
X160038343Y-113058399D01*
X159944724Y-113030000D01*
X160038343Y-113001601D01*
X160126595Y-112954429D01*
X160203948Y-112890948D01*
X160267429Y-112813595D01*
X160314601Y-112725343D01*
X160343649Y-112629585D01*
X160353457Y-112530000D01*
X160353457Y-110030000D01*
X160343649Y-109930415D01*
X160314601Y-109834657D01*
X160267429Y-109746405D01*
X160203948Y-109669052D01*
X160126595Y-109605571D01*
X160038343Y-109558399D01*
X159942585Y-109529351D01*
X159843000Y-109519543D01*
X158593000Y-109519543D01*
X158493415Y-109529351D01*
X158397657Y-109558399D01*
X158309405Y-109605571D01*
X158232052Y-109669052D01*
X158168571Y-109746405D01*
X158121399Y-109834657D01*
X158092351Y-109930415D01*
X158082543Y-110030000D01*
X158082543Y-112530000D01*
X158092351Y-112629585D01*
X158121399Y-112725343D01*
X158168571Y-112813595D01*
X158232052Y-112890948D01*
X158309405Y-112954429D01*
X158397657Y-113001601D01*
X158491276Y-113030000D01*
X158397657Y-113058399D01*
X158309405Y-113105571D01*
X158232052Y-113169052D01*
X158168571Y-113246405D01*
X158121399Y-113334657D01*
X158092351Y-113430415D01*
X158082543Y-113530000D01*
X158082543Y-115699098D01*
X157861000Y-115477555D01*
X157861000Y-114751854D01*
X157853457Y-114675270D01*
X157853457Y-113530000D01*
X157843649Y-113430415D01*
X157814601Y-113334657D01*
X157767429Y-113246405D01*
X157703948Y-113169052D01*
X157626595Y-113105571D01*
X157538343Y-113058399D01*
X157444724Y-113030000D01*
X157538343Y-113001601D01*
X157626595Y-112954429D01*
X157703948Y-112890948D01*
X157767429Y-112813595D01*
X157814601Y-112725343D01*
X157843649Y-112629585D01*
X157853457Y-112530000D01*
X157853457Y-110030000D01*
X157843649Y-109930415D01*
X157814601Y-109834657D01*
X157767429Y-109746405D01*
X157703948Y-109669052D01*
X157626595Y-109605571D01*
X157538343Y-109558399D01*
X157442585Y-109529351D01*
X157343000Y-109519543D01*
X156093000Y-109519543D01*
X155993415Y-109529351D01*
X155897657Y-109558399D01*
X155809405Y-109605571D01*
X155732052Y-109669052D01*
X155668571Y-109746405D01*
X155621399Y-109834657D01*
X155592351Y-109930415D01*
X155582543Y-110030000D01*
X155582543Y-112530000D01*
X155592351Y-112629585D01*
X155621399Y-112725343D01*
X155668571Y-112813595D01*
X155732052Y-112890948D01*
X155809405Y-112954429D01*
X155897657Y-113001601D01*
X155991276Y-113030000D01*
X155897657Y-113058399D01*
X155809405Y-113105571D01*
X155732052Y-113169052D01*
X155668571Y-113246405D01*
X155621399Y-113334657D01*
X155592351Y-113430415D01*
X155582543Y-113530000D01*
X155582543Y-114675270D01*
X155575000Y-114751854D01*
X155575000Y-115894861D01*
X155569471Y-115951000D01*
X155575000Y-116007139D01*
X155575000Y-116007145D01*
X155589306Y-116152399D01*
X155591539Y-116175067D01*
X155605048Y-116219598D01*
X155656897Y-116390522D01*
X155763032Y-116589088D01*
X155905867Y-116763133D01*
X155949483Y-116798928D01*
X155997076Y-116846521D01*
X156613306Y-117462752D01*
X156528514Y-117417429D01*
X156385858Y-117374155D01*
X156237500Y-117359543D01*
X155312500Y-117359543D01*
X155164142Y-117374155D01*
X155021486Y-117417429D01*
X154890013Y-117487703D01*
X154774776Y-117582276D01*
X154680203Y-117697513D01*
X154609929Y-117828986D01*
X154566655Y-117971642D01*
X154552043Y-118120000D01*
X154552043Y-118278511D01*
X153714278Y-119116277D01*
X153670668Y-119152067D01*
X153634878Y-119195677D01*
X153634876Y-119195679D01*
X153602175Y-119235525D01*
X153527833Y-119326111D01*
X153437406Y-119495290D01*
X153421698Y-119524677D01*
X153356339Y-119740133D01*
X153334271Y-119964200D01*
X153339801Y-120020348D01*
X153339801Y-120901543D01*
X152577800Y-120901543D01*
X152478215Y-120911351D01*
X152382457Y-120940399D01*
X152314159Y-120976905D01*
X152298989Y-120900639D01*
X151510418Y-118996859D01*
X150365589Y-117283501D01*
X148908499Y-115826411D01*
X147195141Y-114681582D01*
X145291361Y-113893011D01*
X143270319Y-113491000D01*
X141209681Y-113491000D01*
X139188639Y-113893011D01*
X137284859Y-114681582D01*
X135571501Y-115826411D01*
X134811912Y-116586000D01*
X129205854Y-116586000D01*
X129037933Y-116602539D01*
X128822477Y-116667897D01*
X128623911Y-116774032D01*
X128569674Y-116818543D01*
X128460500Y-116818543D01*
X128460500Y-116240327D01*
X128813328Y-115887500D01*
X133569702Y-115887500D01*
X133604000Y-115890878D01*
X133638298Y-115887500D01*
X133638309Y-115887500D01*
X133740930Y-115877393D01*
X133872597Y-115837452D01*
X133993943Y-115772591D01*
X134100303Y-115685303D01*
X134122175Y-115658652D01*
X134454652Y-115326175D01*
X134481303Y-115304303D01*
X134568591Y-115197943D01*
X134633452Y-115076597D01*
X134673393Y-114944930D01*
X134683500Y-114842309D01*
X134683500Y-114842299D01*
X134686878Y-114808001D01*
X134683500Y-114773703D01*
X134683500Y-114773482D01*
X134732488Y-114747297D01*
X134847725Y-114652725D01*
X134942297Y-114537488D01*
X135012571Y-114406015D01*
X135055845Y-114263359D01*
X135070457Y-114115001D01*
X135070457Y-113836778D01*
X137528236Y-111379000D01*
X139402339Y-111379000D01*
X139445999Y-111383300D01*
X139489659Y-111379000D01*
X142196340Y-111379000D01*
X142240000Y-111383300D01*
X142283660Y-111379000D01*
X142283667Y-111379000D01*
X142414274Y-111366136D01*
X142581851Y-111315303D01*
X142736291Y-111232753D01*
X142871659Y-111121659D01*
X142899499Y-111087736D01*
X143359543Y-110627692D01*
X143359543Y-110640000D01*
X143372233Y-110768849D01*
X143409817Y-110892746D01*
X143470850Y-111006930D01*
X143552986Y-111107014D01*
X143653070Y-111189150D01*
X143767254Y-111250183D01*
X143891151Y-111287767D01*
X144020000Y-111300457D01*
X145670000Y-111300457D01*
X145798849Y-111287767D01*
X145922746Y-111250183D01*
X146036930Y-111189150D01*
X146137014Y-111107014D01*
X146219150Y-111006930D01*
X146280183Y-110892746D01*
X146317767Y-110768849D01*
X146330457Y-110640000D01*
X146330457Y-110503693D01*
X146431001Y-110604236D01*
X146431000Y-111716340D01*
X146426700Y-111760000D01*
X146431000Y-111803660D01*
X146431000Y-111803666D01*
X146443864Y-111934273D01*
X146494697Y-112101850D01*
X146577247Y-112256290D01*
X146688341Y-112391659D01*
X146722264Y-112419499D01*
X149680506Y-115377742D01*
X149708341Y-115411659D01*
X149843709Y-115522753D01*
X149998149Y-115605303D01*
X150092198Y-115633832D01*
X150165725Y-115656136D01*
X150176610Y-115657208D01*
X150296333Y-115669000D01*
X150296340Y-115669000D01*
X150340000Y-115673300D01*
X150383660Y-115669000D01*
X153082543Y-115669000D01*
X153082543Y-116030000D01*
X153092351Y-116129585D01*
X153121399Y-116225343D01*
X153168571Y-116313595D01*
X153232052Y-116390948D01*
X153309405Y-116454429D01*
X153397657Y-116501601D01*
X153493415Y-116530649D01*
X153593000Y-116540457D01*
X154843000Y-116540457D01*
X154942585Y-116530649D01*
X155038343Y-116501601D01*
X155126595Y-116454429D01*
X155203948Y-116390948D01*
X155267429Y-116313595D01*
X155314601Y-116225343D01*
X155343649Y-116129585D01*
X155353457Y-116030000D01*
X155353457Y-113530000D01*
X155343649Y-113430415D01*
X155314601Y-113334657D01*
X155267429Y-113246405D01*
X155203948Y-113169052D01*
X155126595Y-113105571D01*
X155038343Y-113058399D01*
X154944724Y-113030000D01*
X155038343Y-113001601D01*
X155126595Y-112954429D01*
X155203948Y-112890948D01*
X155267429Y-112813595D01*
X155314601Y-112725343D01*
X155343649Y-112629585D01*
X155353457Y-112530000D01*
X155353457Y-110030000D01*
X155343649Y-109930415D01*
X155314601Y-109834657D01*
X155267429Y-109746405D01*
X155203948Y-109669052D01*
X155126595Y-109605571D01*
X155038343Y-109558399D01*
X154942585Y-109529351D01*
X154843000Y-109519543D01*
X153593000Y-109519543D01*
X153493415Y-109529351D01*
X153397657Y-109558399D01*
X153309405Y-109605571D01*
X153232052Y-109669052D01*
X153168571Y-109746405D01*
X153121399Y-109834657D01*
X153092351Y-109930415D01*
X153082543Y-110030000D01*
X153082543Y-112530000D01*
X153092351Y-112629585D01*
X153121399Y-112725343D01*
X153168571Y-112813595D01*
X153232052Y-112890948D01*
X153309405Y-112954429D01*
X153397657Y-113001601D01*
X153491276Y-113030000D01*
X153397657Y-113058399D01*
X153309405Y-113105571D01*
X153232052Y-113169052D01*
X153168571Y-113246405D01*
X153121399Y-113334657D01*
X153092351Y-113430415D01*
X153082543Y-113530000D01*
X153082543Y-113891000D01*
X150708236Y-113891000D01*
X148209000Y-111391765D01*
X148209000Y-110790000D01*
X148309542Y-110790000D01*
X148319350Y-110889585D01*
X148348398Y-110985344D01*
X148395570Y-111073595D01*
X148459052Y-111150948D01*
X148536405Y-111214430D01*
X148624656Y-111261602D01*
X148720415Y-111290650D01*
X148820000Y-111300458D01*
X149541000Y-111298000D01*
X149668000Y-111171000D01*
X149668000Y-110617000D01*
X149922000Y-110617000D01*
X149922000Y-111171000D01*
X150049000Y-111298000D01*
X150770000Y-111300458D01*
X150869585Y-111290650D01*
X150965344Y-111261602D01*
X151053595Y-111214430D01*
X151130948Y-111150948D01*
X151194430Y-111073595D01*
X151241602Y-110985344D01*
X151270650Y-110889585D01*
X151280458Y-110790000D01*
X151278000Y-110744000D01*
X151151000Y-110617000D01*
X149922000Y-110617000D01*
X149668000Y-110617000D01*
X148439000Y-110617000D01*
X148312000Y-110744000D01*
X148309542Y-110790000D01*
X148209000Y-110790000D01*
X148209000Y-110279660D01*
X148213300Y-110236000D01*
X148209000Y-110192340D01*
X148209000Y-110192333D01*
X148196136Y-110061726D01*
X148194616Y-110056713D01*
X148168208Y-109969657D01*
X148145303Y-109894149D01*
X148142639Y-109889164D01*
X148112331Y-109832463D01*
X148062753Y-109739709D01*
X147951659Y-109604341D01*
X147917741Y-109576505D01*
X147701000Y-109359764D01*
X147701000Y-109099024D01*
X148248930Y-109646955D01*
X148268815Y-109671185D01*
X148365506Y-109750537D01*
X148475820Y-109809502D01*
X148480970Y-109811064D01*
X148459052Y-109829052D01*
X148395570Y-109906405D01*
X148348398Y-109994656D01*
X148319350Y-110090415D01*
X148309542Y-110190000D01*
X148312000Y-110236000D01*
X148439000Y-110363000D01*
X149668000Y-110363000D01*
X149668000Y-110343000D01*
X149922000Y-110343000D01*
X149922000Y-110363000D01*
X151151000Y-110363000D01*
X151278000Y-110236000D01*
X151280458Y-110190000D01*
X151270650Y-110090415D01*
X151241602Y-109994656D01*
X151194430Y-109906405D01*
X151130948Y-109829052D01*
X151108600Y-109810711D01*
X151169150Y-109736930D01*
X151230183Y-109622746D01*
X151267767Y-109498849D01*
X151280457Y-109370000D01*
X151280457Y-109070000D01*
X151267767Y-108941151D01*
X151230183Y-108817254D01*
X151169150Y-108703070D01*
X151087014Y-108602986D01*
X151065098Y-108585000D01*
X151087014Y-108567014D01*
X151169150Y-108466930D01*
X151230183Y-108352746D01*
X151267767Y-108228849D01*
X151280457Y-108100000D01*
X151280457Y-107800000D01*
X151272644Y-107720669D01*
X151420932Y-107868958D01*
X151440815Y-107893185D01*
X151465039Y-107913065D01*
X151465043Y-107913069D01*
X151537506Y-107972538D01*
X151610549Y-108011580D01*
X151647820Y-108031502D01*
X151767518Y-108067812D01*
X151860808Y-108077000D01*
X151860811Y-108077000D01*
X151892000Y-108080072D01*
X151923189Y-108077000D01*
X155023270Y-108077000D01*
X155055429Y-108183015D01*
X155125703Y-108314488D01*
X155220275Y-108429725D01*
X155335512Y-108524297D01*
X155466985Y-108594571D01*
X155609641Y-108637845D01*
X155757999Y-108652457D01*
X156408001Y-108652457D01*
X156556359Y-108637845D01*
X156699015Y-108594571D01*
X156830488Y-108524297D01*
X156945725Y-108429725D01*
X157040297Y-108314488D01*
X157108000Y-108187825D01*
X157175703Y-108314488D01*
X157270275Y-108429725D01*
X157385512Y-108524297D01*
X157516985Y-108594571D01*
X157659641Y-108637845D01*
X157807999Y-108652457D01*
X158458001Y-108652457D01*
X158606359Y-108637845D01*
X158749015Y-108594571D01*
X158880488Y-108524297D01*
X158995725Y-108429725D01*
X159090297Y-108314488D01*
X159160571Y-108183015D01*
X159203845Y-108040359D01*
X159218457Y-107892001D01*
X159218457Y-106991999D01*
X159203845Y-106843641D01*
X159160571Y-106700985D01*
X159090297Y-106569512D01*
X158995725Y-106454275D01*
X158880488Y-106359703D01*
X158749015Y-106289429D01*
X158606359Y-106246155D01*
X158458001Y-106231543D01*
X157820567Y-106231543D01*
X157210808Y-105621784D01*
X157292297Y-105522488D01*
X157362571Y-105391015D01*
X157405845Y-105248359D01*
X157420457Y-105100001D01*
X157420457Y-104449999D01*
X157405845Y-104301641D01*
X157362571Y-104158985D01*
X157292297Y-104027512D01*
X157197725Y-103912275D01*
X157082488Y-103817703D01*
X156955825Y-103750000D01*
X157082488Y-103682297D01*
X157197725Y-103587725D01*
X157292297Y-103472488D01*
X157362571Y-103341015D01*
X157405845Y-103198359D01*
X157420457Y-103050001D01*
X157420457Y-102399999D01*
X157405845Y-102251641D01*
X157362571Y-102108985D01*
X157292297Y-101977512D01*
X157197725Y-101862275D01*
X157082488Y-101767703D01*
X156951015Y-101697429D01*
X156808359Y-101654155D01*
X156660001Y-101639543D01*
X155759999Y-101639543D01*
X155654449Y-101649939D01*
X155672934Y-101605312D01*
X155707098Y-101433559D01*
X155707098Y-101258441D01*
X155672934Y-101086688D01*
X155605919Y-100924901D01*
X155508629Y-100779296D01*
X155384802Y-100655469D01*
X155239197Y-100558179D01*
X155077410Y-100491164D01*
X154905657Y-100457000D01*
X154822025Y-100457000D01*
X154372457Y-100007432D01*
X154372457Y-99478999D01*
X154357845Y-99330641D01*
X154314571Y-99187985D01*
X154244297Y-99056512D01*
X154149725Y-98941275D01*
X154034488Y-98846703D01*
X153903015Y-98776429D01*
X153760359Y-98733155D01*
X153612001Y-98718543D01*
X152711999Y-98718543D01*
X152563641Y-98733155D01*
X152420985Y-98776429D01*
X152289512Y-98846703D01*
X152174275Y-98941275D01*
X152146000Y-98975728D01*
X152146000Y-98797181D01*
X152149071Y-98766000D01*
X152146000Y-98734819D01*
X152146000Y-98734808D01*
X152136812Y-98641518D01*
X152100502Y-98521820D01*
X152095936Y-98513277D01*
X152041538Y-98411506D01*
X151988687Y-98347108D01*
X151962185Y-98314815D01*
X151937956Y-98294931D01*
X151514074Y-97871050D01*
X151494185Y-97846815D01*
X151449749Y-97810347D01*
X151438845Y-97699641D01*
X151395571Y-97556985D01*
X151325297Y-97425512D01*
X151230725Y-97310275D01*
X151115488Y-97215703D01*
X150984015Y-97145429D01*
X150841359Y-97102155D01*
X150693001Y-97087543D01*
X150042999Y-97087543D01*
X149894641Y-97102155D01*
X149751985Y-97145429D01*
X149620512Y-97215703D01*
X149505275Y-97310275D01*
X149410703Y-97425512D01*
X149343000Y-97552175D01*
X149275297Y-97425512D01*
X149180725Y-97310275D01*
X149065488Y-97215703D01*
X148934015Y-97145429D01*
X148791359Y-97102155D01*
X148643001Y-97087543D01*
X147992999Y-97087543D01*
X147844641Y-97102155D01*
X147701985Y-97145429D01*
X147570512Y-97215703D01*
X147455275Y-97310275D01*
X147360703Y-97425512D01*
X147290429Y-97556985D01*
X147249246Y-97692748D01*
X147249246Y-96528429D01*
X147252318Y-96497240D01*
X147247381Y-96447113D01*
X147240058Y-96372758D01*
X147203748Y-96253060D01*
X147196863Y-96240179D01*
X147144784Y-96142746D01*
X147085315Y-96070283D01*
X147085311Y-96070279D01*
X147065431Y-96046055D01*
X147041206Y-96026174D01*
X146158690Y-95143659D01*
X146592055Y-95232391D01*
M02*
