G04 #@! TF.GenerationSoftware,KiCad,Pcbnew,(5.1.5)-3*
G04 #@! TF.CreationDate,2019-12-29T19:03:19-08:00*
G04 #@! TF.ProjectId,ruddblink,72756464-626c-4696-9e6b-2e6b69636164,A*
G04 #@! TF.SameCoordinates,Original*
G04 #@! TF.FileFunction,Soldermask,Top*
G04 #@! TF.FilePolarity,Negative*
%FSLAX46Y46*%
G04 Gerber Fmt 4.6, Leading zero omitted, Abs format (unit mm)*
G04 Created by KiCad (PCBNEW (5.1.5)-3) date 2019-12-29 19:03:19*
%MOMM*%
%LPD*%
G04 APERTURE LIST*
%ADD10C,0.010000*%
%ADD11C,0.100000*%
G04 APERTURE END LIST*
D10*
G36*
X150583274Y-103391556D02*
G01*
X150603776Y-103495009D01*
X150622435Y-103645131D01*
X150630704Y-103740062D01*
X150642747Y-103930075D01*
X150642737Y-104064198D01*
X150627505Y-104169345D01*
X150593883Y-104272430D01*
X150558092Y-104356911D01*
X150415289Y-104585755D01*
X150218444Y-104764951D01*
X149983933Y-104881878D01*
X149831366Y-104916973D01*
X149617531Y-104945340D01*
X149718987Y-105106056D01*
X149809076Y-105321324D01*
X149820406Y-105545729D01*
X149753479Y-105763240D01*
X149695524Y-105857985D01*
X149613340Y-105998337D01*
X149576321Y-106142700D01*
X149583746Y-106310907D01*
X149634892Y-106522794D01*
X149667634Y-106624822D01*
X149709151Y-106755983D01*
X149735072Y-106868067D01*
X149747343Y-106984434D01*
X149747908Y-107128444D01*
X149738714Y-107323460D01*
X149733251Y-107412853D01*
X149719468Y-107672681D01*
X149708059Y-107963260D01*
X149700595Y-108240620D01*
X149698682Y-108379780D01*
X149699427Y-108596310D01*
X149707325Y-108753107D01*
X149725716Y-108873628D01*
X149757937Y-108981331D01*
X149798270Y-109079362D01*
X149869892Y-109226706D01*
X149945181Y-109359356D01*
X149988702Y-109423164D01*
X150072232Y-109511595D01*
X150174866Y-109597717D01*
X150270023Y-109661122D01*
X150325726Y-109681923D01*
X150351640Y-109641070D01*
X150373762Y-109519774D01*
X150391914Y-109320792D01*
X150405914Y-109046882D01*
X150415582Y-108700799D01*
X150420738Y-108285303D01*
X150421075Y-108224820D01*
X150425800Y-107246295D01*
X150585517Y-106907467D01*
X150668293Y-106739331D01*
X150737476Y-106627174D01*
X150811535Y-106550118D01*
X150908941Y-106487285D01*
X150996754Y-106442604D01*
X151015439Y-106470043D01*
X151026597Y-106556989D01*
X151027983Y-106610028D01*
X151048647Y-106764393D01*
X151113743Y-106957668D01*
X151193043Y-107133990D01*
X151267450Y-107283847D01*
X151328917Y-107400210D01*
X151368410Y-107466329D01*
X151377073Y-107475312D01*
X151400110Y-107439621D01*
X151438158Y-107348394D01*
X151463647Y-107277525D01*
X151500236Y-107184491D01*
X151546925Y-107109476D01*
X151618879Y-107037420D01*
X151731263Y-106953264D01*
X151899240Y-106841945D01*
X151907826Y-106836394D01*
X152162431Y-106656104D01*
X152345665Y-106491152D01*
X152416111Y-106405699D01*
X152547819Y-106218348D01*
X152573089Y-106503305D01*
X152600229Y-106686538D01*
X152644672Y-106869419D01*
X152685350Y-106984259D01*
X152760810Y-107229746D01*
X152781091Y-107484332D01*
X152745727Y-107720697D01*
X152699881Y-107837997D01*
X152647149Y-107944347D01*
X152614945Y-108015426D01*
X152610278Y-108029797D01*
X152647512Y-108025933D01*
X152748298Y-108002689D01*
X152896265Y-107964085D01*
X153037082Y-107924994D01*
X153249098Y-107868067D01*
X153469240Y-107814611D01*
X153681822Y-107767769D01*
X153871157Y-107730689D01*
X154021559Y-107706516D01*
X154117342Y-107698395D01*
X154142900Y-107703234D01*
X154123541Y-107737853D01*
X154055487Y-107812567D01*
X153952549Y-107912443D01*
X153931347Y-107931972D01*
X153757389Y-108118591D01*
X153584316Y-108362774D01*
X153461927Y-108568683D01*
X153344757Y-108772856D01*
X153237809Y-108945944D01*
X153128795Y-109104242D01*
X153005428Y-109264047D01*
X152855423Y-109441652D01*
X152666492Y-109653353D01*
X152537782Y-109794318D01*
X152326038Y-110036619D01*
X152169328Y-110248648D01*
X152057273Y-110451672D01*
X151979491Y-110666956D01*
X151925603Y-110915767D01*
X151898710Y-111103636D01*
X151842432Y-111420274D01*
X151748906Y-111727208D01*
X151685311Y-111889082D01*
X151612716Y-112056666D01*
X151545586Y-112188872D01*
X151469896Y-112305606D01*
X151371621Y-112426769D01*
X151236738Y-112572265D01*
X151118047Y-112694142D01*
X150904879Y-112899295D01*
X150668470Y-113107034D01*
X150424163Y-113305510D01*
X150187300Y-113482879D01*
X149973222Y-113627293D01*
X149797271Y-113726908D01*
X149756806Y-113745209D01*
X149648691Y-113780152D01*
X149483746Y-113821474D01*
X149287489Y-113863157D01*
X149147783Y-113888874D01*
X148697840Y-113966072D01*
X148347481Y-113828527D01*
X148150510Y-113744607D01*
X147947751Y-113643638D01*
X147728069Y-113518859D01*
X147480332Y-113363510D01*
X147193408Y-113170832D01*
X146856163Y-112934064D01*
X146754011Y-112860966D01*
X146504252Y-112682563D01*
X146313133Y-112548438D01*
X146172437Y-112453211D01*
X146073949Y-112391507D01*
X146009450Y-112357948D01*
X145970724Y-112347157D01*
X145968775Y-112347115D01*
X145953838Y-112382699D01*
X145955627Y-112461533D01*
X145972560Y-112526562D01*
X146017626Y-112575771D01*
X146108971Y-112622589D01*
X146239459Y-112671558D01*
X146357479Y-112717715D01*
X146461118Y-112771891D01*
X146566421Y-112846001D01*
X146689429Y-112951958D01*
X146846187Y-113101676D01*
X146929515Y-113184019D01*
X147111501Y-113369117D01*
X147241904Y-113513470D01*
X147331788Y-113631203D01*
X147392216Y-113736442D01*
X147425401Y-113817190D01*
X147471212Y-113946680D01*
X147506685Y-114046817D01*
X147519312Y-114082364D01*
X147501422Y-114137589D01*
X147454072Y-114175461D01*
X147386176Y-114193402D01*
X147293168Y-114177300D01*
X147152847Y-114123000D01*
X147137360Y-114116195D01*
X147011392Y-114061791D01*
X146918947Y-114024301D01*
X146883681Y-114012689D01*
X146868437Y-114048157D01*
X146864049Y-114108118D01*
X146896201Y-114197663D01*
X146984698Y-114317082D01*
X147051426Y-114387443D01*
X147182143Y-114543522D01*
X147241144Y-114680540D01*
X147228427Y-114792113D01*
X147143992Y-114871857D01*
X147051426Y-114903434D01*
X146953895Y-114906544D01*
X146821808Y-114876280D01*
X146638351Y-114808471D01*
X146593492Y-114789816D01*
X146260477Y-114649416D01*
X146203257Y-114351872D01*
X146171574Y-114207442D01*
X146140924Y-114101677D01*
X146117351Y-114054993D01*
X146115156Y-114054328D01*
X146083781Y-114089358D01*
X146031504Y-114181087D01*
X145971121Y-114306467D01*
X145908429Y-114436752D01*
X145856693Y-114505187D01*
X145804486Y-114509301D01*
X145740386Y-114446623D01*
X145652968Y-114314681D01*
X145599392Y-114226059D01*
X145459331Y-113991869D01*
X145491250Y-113533836D01*
X145501620Y-113334400D01*
X145503100Y-113173840D01*
X145495870Y-113068451D01*
X145485741Y-113036246D01*
X145459744Y-113041969D01*
X145448465Y-113118843D01*
X145448311Y-113132930D01*
X145426941Y-113249806D01*
X145372734Y-113391224D01*
X145338180Y-113457095D01*
X145228049Y-113645019D01*
X145140393Y-113506149D01*
X145097756Y-113425074D01*
X145071318Y-113331781D01*
X145057542Y-113204424D01*
X145052889Y-113021156D01*
X145052737Y-112964856D01*
X145050987Y-112774890D01*
X145043080Y-112648051D01*
X145025036Y-112564217D01*
X144992870Y-112503264D01*
X144951790Y-112454774D01*
X144876065Y-112382958D01*
X144822554Y-112347819D01*
X144818160Y-112347115D01*
X144759510Y-112368002D01*
X144664538Y-112419922D01*
X144558303Y-112486766D01*
X144465866Y-112552426D01*
X144412287Y-112600793D01*
X144407328Y-112611203D01*
X144429575Y-112704627D01*
X144491115Y-112852240D01*
X144584150Y-113039544D01*
X144700878Y-113252044D01*
X144833498Y-113475245D01*
X144974212Y-113694650D01*
X145049441Y-113804492D01*
X145229874Y-114064013D01*
X145367683Y-114272394D01*
X145469804Y-114445421D01*
X145543175Y-114598878D01*
X145594732Y-114748552D01*
X145631412Y-114910227D01*
X145660152Y-115099689D01*
X145676163Y-115230640D01*
X145704140Y-115470066D01*
X148029950Y-115470066D01*
X148029950Y-125882671D01*
X147920003Y-126099893D01*
X147774196Y-126347298D01*
X147598217Y-126582927D01*
X147412463Y-126781389D01*
X147292191Y-126881289D01*
X147097832Y-127000886D01*
X146829474Y-127135265D01*
X146494498Y-127281529D01*
X146100286Y-127436782D01*
X145654219Y-127598126D01*
X145163678Y-127762665D01*
X144636045Y-127927502D01*
X144594705Y-127939939D01*
X144197559Y-128061206D01*
X143872252Y-128165675D01*
X143609857Y-128256856D01*
X143401447Y-128338258D01*
X143238096Y-128413391D01*
X143110877Y-128485765D01*
X143010863Y-128558888D01*
X143002586Y-128565888D01*
X142901526Y-128646617D01*
X142824361Y-128697840D01*
X142797594Y-128707799D01*
X142745608Y-128689205D01*
X142639729Y-128643227D01*
X142500891Y-128579030D01*
X142471098Y-128564852D01*
X142038409Y-128383307D01*
X141595518Y-128251562D01*
X141110409Y-128160295D01*
X141055360Y-128152632D01*
X140580017Y-128085362D01*
X140170859Y-128019628D01*
X139810986Y-127951251D01*
X139483502Y-127876056D01*
X139171508Y-127789864D01*
X138858106Y-127688499D01*
X138526398Y-127567783D01*
X138245289Y-127457985D01*
X137755422Y-127240508D01*
X137340508Y-127007530D01*
X136992804Y-126753399D01*
X136704569Y-126472460D01*
X136469204Y-126160834D01*
X136288030Y-125879635D01*
X136267087Y-117053882D01*
X138252151Y-117053882D01*
X138295576Y-117091358D01*
X138395950Y-117147714D01*
X138532650Y-117211527D01*
X138550643Y-117219197D01*
X138817990Y-117348334D01*
X139013990Y-117482764D01*
X139150492Y-117631540D01*
X139201254Y-117716326D01*
X139281436Y-117830495D01*
X139401209Y-117954638D01*
X139490185Y-118028170D01*
X139633670Y-118148462D01*
X139766307Y-118285779D01*
X139872966Y-118421600D01*
X139938519Y-118537404D01*
X139951918Y-118593389D01*
X139983108Y-118660783D01*
X140059863Y-118739819D01*
X140076836Y-118752990D01*
X140170345Y-118850269D01*
X140201754Y-118941337D01*
X140233112Y-119030204D01*
X140319148Y-119150575D01*
X140391889Y-119230188D01*
X140494010Y-119337291D01*
X140548306Y-119413632D01*
X140566253Y-119486921D01*
X140559328Y-119584866D01*
X140554253Y-119622212D01*
X140510421Y-119839714D01*
X140438365Y-120028910D01*
X140328781Y-120201047D01*
X140172361Y-120367368D01*
X139959800Y-120539117D01*
X139681791Y-120727539D01*
X139593182Y-120783426D01*
X139440225Y-120876957D01*
X139337710Y-120931508D01*
X139266151Y-120953325D01*
X139206062Y-120948655D01*
X139145545Y-120926910D01*
X138977459Y-120866218D01*
X138848990Y-120850896D01*
X138733769Y-120886166D01*
X138605427Y-120977248D01*
X138522756Y-121050224D01*
X138372584Y-121204596D01*
X138296372Y-121325296D01*
X138294565Y-121411424D01*
X138326807Y-121444585D01*
X138386833Y-121441825D01*
X138472545Y-121400614D01*
X138550897Y-121363305D01*
X138575414Y-121379697D01*
X138542942Y-121437411D01*
X138494541Y-121486951D01*
X138418867Y-121582701D01*
X138417015Y-121655443D01*
X138480772Y-121696510D01*
X138601923Y-121697236D01*
X138678132Y-121680687D01*
X138776060Y-121657496D01*
X138817901Y-121670254D01*
X138827499Y-121731529D01*
X138827655Y-121759498D01*
X138857972Y-121875562D01*
X138909265Y-121923271D01*
X138972632Y-121941259D01*
X139030184Y-121906863D01*
X139083425Y-121841766D01*
X139146201Y-121762139D01*
X139186848Y-121742953D01*
X139232462Y-121777472D01*
X139253273Y-121799555D01*
X139348903Y-121863076D01*
X139432255Y-121882525D01*
X139497077Y-121870620D01*
X139539671Y-121824945D01*
X139566208Y-121730558D01*
X139582856Y-121572518D01*
X139587002Y-121507771D01*
X139597983Y-121320394D01*
X139886911Y-121179065D01*
X140107426Y-121079417D01*
X140281059Y-121026771D01*
X140430058Y-121021697D01*
X140576673Y-121064764D01*
X140743155Y-121156542D01*
X140813990Y-121202790D01*
X140999472Y-121335443D01*
X141194404Y-121489083D01*
X141383945Y-121650476D01*
X141553255Y-121806383D01*
X141687491Y-121943571D01*
X141771813Y-122048801D01*
X141782124Y-122066223D01*
X141813174Y-122141885D01*
X141806115Y-122194616D01*
X141751894Y-122227170D01*
X141641457Y-122242300D01*
X141465751Y-122242760D01*
X141235590Y-122232421D01*
X141027932Y-122221452D01*
X140886243Y-122217562D01*
X140793346Y-122223074D01*
X140732067Y-122240311D01*
X140685231Y-122271597D01*
X140642230Y-122312690D01*
X140569680Y-122415244D01*
X140538033Y-122545765D01*
X140546824Y-122718005D01*
X140595590Y-122945717D01*
X140618147Y-123027607D01*
X140681594Y-123282839D01*
X140703735Y-123476672D01*
X140681220Y-123621836D01*
X140610699Y-123731057D01*
X140488822Y-123817064D01*
X140399354Y-123858806D01*
X140197053Y-123912233D01*
X140009316Y-123905088D01*
X139852065Y-123842287D01*
X139741225Y-123728747D01*
X139705283Y-123644548D01*
X139647566Y-123502200D01*
X139562986Y-123369151D01*
X139468566Y-123266875D01*
X139381326Y-123216846D01*
X139364780Y-123214984D01*
X139270395Y-123233784D01*
X139157408Y-123279197D01*
X139153918Y-123280986D01*
X139071562Y-123335115D01*
X139061780Y-123379441D01*
X139072707Y-123393413D01*
X139113624Y-123451495D01*
X139092219Y-123495740D01*
X138999779Y-123538673D01*
X138962983Y-123551183D01*
X138772012Y-123629955D01*
X138652554Y-123715222D01*
X138607629Y-123802378D01*
X138640255Y-123886812D01*
X138708148Y-123940245D01*
X138781275Y-123993705D01*
X138816588Y-124060425D01*
X138827278Y-124170803D01*
X138827655Y-124215641D01*
X138830243Y-124337108D01*
X138846051Y-124395018D01*
X138887150Y-124409088D01*
X138942164Y-124402679D01*
X139039901Y-124391087D01*
X139189704Y-124377245D01*
X139360517Y-124364002D01*
X139374087Y-124363059D01*
X139544569Y-124355482D01*
X139680735Y-124363742D01*
X139816824Y-124393203D01*
X139987074Y-124449232D01*
X140035335Y-124466686D01*
X140201670Y-124526173D01*
X140314343Y-124559396D01*
X140397821Y-124568917D01*
X140476571Y-124557298D01*
X140575061Y-124527102D01*
X140583969Y-124524145D01*
X140752051Y-124483268D01*
X140933046Y-124474758D01*
X141072696Y-124484634D01*
X141269128Y-124495452D01*
X141425759Y-124479342D01*
X141561476Y-124440389D01*
X141766332Y-124367631D01*
X141749502Y-124103325D01*
X141744421Y-123947329D01*
X141760680Y-123836449D01*
X141810676Y-123758884D01*
X141906804Y-123702830D01*
X142061459Y-123656485D01*
X142264982Y-123612500D01*
X142347909Y-123601194D01*
X142384822Y-123626621D01*
X142396335Y-123709261D01*
X142397778Y-123744407D01*
X142411522Y-123989391D01*
X142434407Y-124268497D01*
X142462295Y-124533633D01*
X142472996Y-124618147D01*
X142498575Y-124754721D01*
X142542188Y-124842096D01*
X142623739Y-124914330D01*
X142660901Y-124939680D01*
X142777005Y-124997627D01*
X142956095Y-125063505D01*
X143179144Y-125130759D01*
X143327538Y-125169383D01*
X143585188Y-125236468D01*
X143775034Y-125300995D01*
X143911088Y-125375936D01*
X144007364Y-125474259D01*
X144077876Y-125608936D01*
X144136637Y-125792938D01*
X144177901Y-125956446D01*
X144214352Y-126113035D01*
X144230226Y-126212121D01*
X144224935Y-126277043D01*
X144197890Y-126331144D01*
X144167396Y-126372840D01*
X144098427Y-126444594D01*
X144016453Y-126472503D01*
X143905108Y-126471712D01*
X143789738Y-126472092D01*
X143702507Y-126501996D01*
X143608573Y-126576163D01*
X143569199Y-126613807D01*
X143484771Y-126705937D01*
X143437101Y-126777372D01*
X143433161Y-126803018D01*
X143427185Y-126858150D01*
X143383334Y-126944774D01*
X143378321Y-126952399D01*
X143327113Y-127070856D01*
X143315994Y-127181132D01*
X143336961Y-127259285D01*
X143391375Y-127290707D01*
X143474239Y-127295640D01*
X143582588Y-127309490D01*
X143640981Y-127362230D01*
X143656606Y-127396548D01*
X143714076Y-127476417D01*
X143792314Y-127512952D01*
X143863969Y-127501136D01*
X143900896Y-127441377D01*
X143939175Y-127349423D01*
X143998423Y-127268050D01*
X144081891Y-127178001D01*
X144320227Y-127441377D01*
X144348379Y-127304964D01*
X144377519Y-127212813D01*
X144421713Y-127186830D01*
X144454389Y-127193262D01*
X144499207Y-127198645D01*
X144522588Y-127166457D01*
X144531278Y-127079221D01*
X144532246Y-126991518D01*
X144536535Y-126856784D01*
X144558605Y-126774425D01*
X144612256Y-126713632D01*
X144678058Y-126666007D01*
X144827701Y-126515987D01*
X144915434Y-126315943D01*
X144937753Y-126075210D01*
X144930691Y-125992568D01*
X144919101Y-125849880D01*
X144931152Y-125764491D01*
X144967321Y-125715119D01*
X145025709Y-125621014D01*
X145012403Y-125510744D01*
X144930156Y-125405466D01*
X144926662Y-125402614D01*
X144821406Y-125317771D01*
X145029434Y-125013549D01*
X144861956Y-124800635D01*
X144947328Y-124633291D01*
X145032701Y-124465947D01*
X144921732Y-124438096D01*
X144818809Y-124434788D01*
X144756236Y-124484816D01*
X144707086Y-124528945D01*
X144630299Y-124544210D01*
X144499856Y-124535466D01*
X144490587Y-124534383D01*
X144338586Y-124501540D01*
X144200214Y-124447684D01*
X144156020Y-124421477D01*
X144055698Y-124319340D01*
X144036715Y-124211575D01*
X144099358Y-124095167D01*
X144195885Y-124003733D01*
X144303854Y-123900918D01*
X144387300Y-123793319D01*
X144408667Y-123753062D01*
X144458136Y-123633633D01*
X144692978Y-123835203D01*
X144825642Y-123939225D01*
X144951394Y-124021290D01*
X145043872Y-124064272D01*
X145046706Y-124064984D01*
X145183818Y-124066886D01*
X145354788Y-124027224D01*
X145528096Y-123956023D01*
X145666867Y-123867750D01*
X145781324Y-123774068D01*
X145793856Y-123088542D01*
X145798222Y-122793203D01*
X145798539Y-122571208D01*
X145794023Y-122412688D01*
X145783891Y-122307772D01*
X145767360Y-122246589D01*
X145743645Y-122219270D01*
X145724522Y-122215002D01*
X145649666Y-122193689D01*
X145617528Y-122176525D01*
X145584967Y-122141727D01*
X145588254Y-122084253D01*
X145629360Y-121979891D01*
X145634441Y-121968569D01*
X145679923Y-121804674D01*
X145657894Y-121674949D01*
X145571220Y-121588817D01*
X145512186Y-121566865D01*
X145443894Y-121538122D01*
X145413217Y-121480070D01*
X145405757Y-121367929D01*
X145390372Y-121237310D01*
X145351780Y-121095753D01*
X145299464Y-120966883D01*
X145242906Y-120874326D01*
X145194490Y-120841541D01*
X145167280Y-120813092D01*
X145159190Y-120721296D01*
X145167001Y-120581295D01*
X145175736Y-120436193D01*
X145176051Y-120321420D01*
X145169552Y-120269000D01*
X145117655Y-120221150D01*
X145041004Y-120235854D01*
X144990278Y-120279410D01*
X144916586Y-120332462D01*
X144875842Y-120341869D01*
X144848709Y-120330544D01*
X144832110Y-120287649D01*
X144824772Y-120199803D01*
X144825423Y-120053628D01*
X144831313Y-119873427D01*
X144842745Y-119650109D01*
X144859956Y-119485324D01*
X144887499Y-119354333D01*
X144929931Y-119232399D01*
X144963584Y-119155148D01*
X145099395Y-118912697D01*
X145257349Y-118720684D01*
X145428016Y-118584059D01*
X145601967Y-118507774D01*
X145769774Y-118496781D01*
X145922006Y-118556030D01*
X145991211Y-118615528D01*
X146071617Y-118748973D01*
X146133196Y-118949237D01*
X146174730Y-119201745D01*
X146195002Y-119491920D01*
X146192796Y-119805187D01*
X146166894Y-120126968D01*
X146135360Y-120341869D01*
X146106261Y-120524546D01*
X146084591Y-120693960D01*
X146074095Y-120819791D01*
X146073658Y-120841541D01*
X146089807Y-120951614D01*
X146131652Y-121095119D01*
X146190431Y-121251800D01*
X146257387Y-121401400D01*
X146323759Y-121523664D01*
X146380789Y-121598336D01*
X146406772Y-121611869D01*
X146464746Y-121577755D01*
X146475675Y-121476312D01*
X146439616Y-121308888D01*
X146387252Y-121155291D01*
X146335410Y-121015302D01*
X146297603Y-120908904D01*
X146281265Y-120857084D01*
X146281098Y-120855648D01*
X146313219Y-120864609D01*
X146395689Y-120906546D01*
X146467230Y-120947111D01*
X146613897Y-121013329D01*
X146709311Y-121020325D01*
X146746085Y-120979200D01*
X146716833Y-120901055D01*
X146614169Y-120796989D01*
X146582983Y-120773168D01*
X146450386Y-120670026D01*
X146376640Y-120591867D01*
X146349220Y-120520774D01*
X146354195Y-120445919D01*
X146372149Y-120372817D01*
X146402122Y-120349122D01*
X146464702Y-120373071D01*
X146557249Y-120428544D01*
X146647017Y-120480987D01*
X146686933Y-120489351D01*
X146696858Y-120455115D01*
X146696974Y-120438954D01*
X146686013Y-120365674D01*
X146657212Y-120235859D01*
X146615944Y-120072953D01*
X146597968Y-120006736D01*
X146550235Y-119799340D01*
X146507294Y-119551026D01*
X146476075Y-119304124D01*
X146468447Y-119215589D01*
X146448338Y-118975530D01*
X146424232Y-118800559D01*
X146390847Y-118672493D01*
X146342902Y-118573150D01*
X146275116Y-118484350D01*
X146247219Y-118453971D01*
X146062960Y-118302303D01*
X145866227Y-118228232D01*
X145752264Y-118218495D01*
X145477263Y-118258613D01*
X145225773Y-118374498D01*
X145002886Y-118560698D01*
X144813693Y-118811765D01*
X144663287Y-119122248D01*
X144556758Y-119486698D01*
X144553674Y-119501395D01*
X144518522Y-119694518D01*
X144497494Y-119878385D01*
X144492562Y-120061876D01*
X144505697Y-120253869D01*
X144538871Y-120463242D01*
X144594057Y-120698876D01*
X144673224Y-120969649D01*
X144778347Y-121284439D01*
X144911396Y-121652126D01*
X145074343Y-122081589D01*
X145196612Y-122396502D01*
X145334065Y-122760421D01*
X145434356Y-123054104D01*
X145498525Y-123281316D01*
X145527614Y-123445818D01*
X145522664Y-123551375D01*
X145519071Y-123562301D01*
X145448037Y-123644900D01*
X145329649Y-123695831D01*
X145197801Y-123701708D01*
X145177020Y-123697398D01*
X145049170Y-123633785D01*
X144902804Y-123512457D01*
X144752606Y-123352073D01*
X144613262Y-123171292D01*
X144499457Y-122988773D01*
X144425876Y-122823174D01*
X144405852Y-122717570D01*
X144369621Y-122520420D01*
X144265669Y-122371448D01*
X144165799Y-122302809D01*
X144091589Y-122244118D01*
X143980286Y-122131093D01*
X143843083Y-121977247D01*
X143691178Y-121796096D01*
X143535765Y-121601153D01*
X143388040Y-121405932D01*
X143259200Y-121223948D01*
X143209069Y-121147953D01*
X143061445Y-120842880D01*
X142991595Y-120516255D01*
X143001868Y-120180759D01*
X143015676Y-120104319D01*
X143054224Y-119953048D01*
X143098090Y-119829621D01*
X143135911Y-119763309D01*
X143170319Y-119737157D01*
X143185395Y-119758126D01*
X143184541Y-119839728D01*
X143177389Y-119927990D01*
X143168786Y-120032584D01*
X143169008Y-120074758D01*
X143180950Y-120049637D01*
X143207506Y-119952347D01*
X143240691Y-119821377D01*
X143282827Y-119652754D01*
X143319332Y-119505202D01*
X143343590Y-119405496D01*
X143346728Y-119392208D01*
X143381345Y-119322753D01*
X143448873Y-119321477D01*
X143451010Y-119322146D01*
X143504507Y-119328475D01*
X143528357Y-119288984D01*
X143534377Y-119189183D01*
X143537119Y-119089597D01*
X143548457Y-119064385D01*
X143576948Y-119104641D01*
X143591185Y-119130073D01*
X143624649Y-119184132D01*
X143645544Y-119185029D01*
X143662812Y-119122154D01*
X143678887Y-119025975D01*
X143711256Y-118822033D01*
X143794412Y-119113509D01*
X143901136Y-118790804D01*
X143954750Y-118641772D01*
X144003493Y-118529180D01*
X144038962Y-118471765D01*
X144045893Y-118468099D01*
X144065412Y-118501468D01*
X144057183Y-118561787D01*
X144037185Y-118658902D01*
X144017339Y-118796896D01*
X144009959Y-118863673D01*
X143989478Y-119071869D01*
X144068142Y-118851665D01*
X144126480Y-118698002D01*
X144165711Y-118621686D01*
X144189300Y-118619902D01*
X144200708Y-118689834D01*
X144202752Y-118742224D01*
X144207121Y-118809570D01*
X144218105Y-118816826D01*
X144238861Y-118757476D01*
X144272548Y-118625000D01*
X144285134Y-118572197D01*
X144346033Y-118312172D01*
X144389012Y-118116557D01*
X144415690Y-117968808D01*
X144427684Y-117852382D01*
X144426611Y-117750735D01*
X144414089Y-117647322D01*
X144391736Y-117525600D01*
X144388888Y-117511100D01*
X144358251Y-117314450D01*
X144338705Y-117108072D01*
X144334463Y-116948263D01*
X144326563Y-116753748D01*
X144287556Y-116620382D01*
X144271513Y-116592947D01*
X144228037Y-116506146D01*
X144227303Y-116416044D01*
X144249216Y-116331615D01*
X144275179Y-116218919D01*
X144261074Y-116138591D01*
X144212506Y-116062341D01*
X144093623Y-115962820D01*
X143965760Y-115926178D01*
X143825994Y-115890992D01*
X143701273Y-115835467D01*
X143691088Y-115829036D01*
X143559560Y-115779086D01*
X143444354Y-115804941D01*
X143360731Y-115903033D01*
X143359036Y-115906689D01*
X143316046Y-115966296D01*
X143239452Y-116003174D01*
X143106107Y-116027635D01*
X143080509Y-116030785D01*
X142850357Y-116063323D01*
X142686878Y-116101559D01*
X142573472Y-116152074D01*
X142493540Y-116221452D01*
X142451360Y-116280284D01*
X142386216Y-116367074D01*
X142306104Y-116420714D01*
X142181844Y-116458207D01*
X142125771Y-116470015D01*
X141841918Y-116531950D01*
X141636045Y-116591531D01*
X141503168Y-116653613D01*
X141438301Y-116723052D01*
X141436459Y-116804705D01*
X141492655Y-116903426D01*
X141579803Y-117001805D01*
X141755813Y-117124473D01*
X141975358Y-117185718D01*
X142221270Y-117181131D01*
X142255274Y-117175281D01*
X142379342Y-117148857D01*
X142468256Y-117124784D01*
X142490337Y-117115797D01*
X142532214Y-117116734D01*
X142547177Y-117165591D01*
X142532418Y-117230574D01*
X142503766Y-117267923D01*
X142446526Y-117292536D01*
X142338666Y-117308280D01*
X142169834Y-117315968D01*
X141929682Y-117316414D01*
X141892060Y-117315974D01*
X141346836Y-117308931D01*
X141509473Y-117393167D01*
X141593219Y-117432538D01*
X141670810Y-117453699D01*
X141765574Y-117458210D01*
X141900838Y-117447630D01*
X142052723Y-117429495D01*
X142229245Y-117411151D01*
X142380028Y-117402538D01*
X142482015Y-117404674D01*
X142506063Y-117409496D01*
X142554793Y-117450013D01*
X142533919Y-117499049D01*
X142455460Y-117548611D01*
X142331438Y-117590704D01*
X142197291Y-117614858D01*
X142061719Y-117636078D01*
X141962688Y-117661792D01*
X141927024Y-117681421D01*
X141917202Y-117766276D01*
X141979112Y-117853587D01*
X142102590Y-117930685D01*
X142139133Y-117945833D01*
X142269695Y-118012010D01*
X142318974Y-118078466D01*
X142286311Y-118142981D01*
X142210852Y-118187354D01*
X142101477Y-118252306D01*
X141989931Y-118342038D01*
X141982050Y-118349601D01*
X141818201Y-118463140D01*
X141606244Y-118544862D01*
X141378489Y-118584592D01*
X141239936Y-118583338D01*
X141023081Y-118527520D01*
X140836473Y-118401619D01*
X140673156Y-118200429D01*
X140627980Y-118125175D01*
X140509762Y-117954981D01*
X140342630Y-117764599D01*
X140149345Y-117576249D01*
X139952667Y-117412151D01*
X139779366Y-117296717D01*
X139648228Y-117205400D01*
X139590603Y-117106261D01*
X139601674Y-116981536D01*
X139657965Y-116849020D01*
X139721062Y-116710423D01*
X139737328Y-116615837D01*
X139705976Y-116539883D01*
X139646387Y-116475765D01*
X139549053Y-116384324D01*
X139438281Y-116471457D01*
X139327510Y-116558590D01*
X139287772Y-116454073D01*
X139216862Y-116347360D01*
X139116703Y-116286232D01*
X139018049Y-116286637D01*
X138965398Y-116347810D01*
X138956553Y-116462152D01*
X138992769Y-116611246D01*
X138995449Y-116618399D01*
X139016055Y-116679011D01*
X139007898Y-116693726D01*
X138959962Y-116658972D01*
X138867638Y-116576965D01*
X138750340Y-116480607D01*
X138668973Y-116445446D01*
X138605393Y-116469344D01*
X138548500Y-116539402D01*
X138518310Y-116601499D01*
X138530263Y-116660364D01*
X138591882Y-116745137D01*
X138605962Y-116761995D01*
X138671212Y-116842930D01*
X138683285Y-116871640D01*
X138644893Y-116857641D01*
X138631173Y-116850433D01*
X138523853Y-116811747D01*
X138456599Y-116802525D01*
X138377485Y-116834857D01*
X138301551Y-116911013D01*
X138254224Y-116999733D01*
X138252151Y-117053882D01*
X136267087Y-117053882D01*
X136266836Y-116948263D01*
X136090930Y-117288752D01*
X135932620Y-117560947D01*
X135772818Y-117760954D01*
X135600930Y-117899365D01*
X135406364Y-117986773D01*
X135387054Y-117992595D01*
X135167495Y-118056422D01*
X135435880Y-118319575D01*
X135662795Y-118575580D01*
X135826367Y-118841177D01*
X135839813Y-118868938D01*
X135975360Y-119155148D01*
X135975360Y-119863017D01*
X135971809Y-120214077D01*
X135961522Y-120512101D01*
X135945052Y-120750782D01*
X135922951Y-120923816D01*
X135895773Y-121024899D01*
X135871386Y-121049738D01*
X135832351Y-121016369D01*
X135772894Y-120931465D01*
X135738622Y-120872771D01*
X135616694Y-120712855D01*
X135438917Y-120561445D01*
X135412797Y-120543574D01*
X135308575Y-120479189D01*
X135158980Y-120393265D01*
X134978776Y-120293581D01*
X134782728Y-120187918D01*
X134585600Y-120084056D01*
X134402158Y-119989772D01*
X134247167Y-119912848D01*
X134135390Y-119861064D01*
X134081684Y-119842197D01*
X134036978Y-119880153D01*
X133994219Y-119979519D01*
X133959729Y-120118540D01*
X133939832Y-120275463D01*
X133937372Y-120338747D01*
X133939780Y-120486426D01*
X133948210Y-120683379D01*
X133961085Y-120895952D01*
X133967523Y-120982854D01*
X134000014Y-121394822D01*
X133821785Y-121235105D01*
X133689477Y-121108289D01*
X133578837Y-120979613D01*
X133484211Y-120836848D01*
X133399945Y-120667765D01*
X133320386Y-120460134D01*
X133239880Y-120201727D01*
X133152774Y-119880313D01*
X133100851Y-119675640D01*
X133043830Y-119469884D01*
X132979050Y-119271286D01*
X132916235Y-119108292D01*
X132883053Y-119038531D01*
X132805697Y-118923307D01*
X132705103Y-118808904D01*
X132597880Y-118709891D01*
X132500634Y-118640840D01*
X132429972Y-118616321D01*
X132410791Y-118624193D01*
X132381824Y-118681656D01*
X132346563Y-118785481D01*
X132337680Y-118816926D01*
X132317629Y-118924260D01*
X132324372Y-119029387D01*
X132361622Y-119164659D01*
X132385489Y-119233319D01*
X132456715Y-119526169D01*
X132474983Y-119839252D01*
X132440966Y-120143611D01*
X132358284Y-120403911D01*
X132296450Y-120525198D01*
X132241990Y-120608357D01*
X132211795Y-120633345D01*
X132171316Y-120601204D01*
X132097649Y-120515118D01*
X132003570Y-120390588D01*
X131954455Y-120321050D01*
X131856873Y-120183780D01*
X131776028Y-120077251D01*
X131723852Y-120016851D01*
X131712325Y-120008754D01*
X131684979Y-120044410D01*
X131639408Y-120137500D01*
X131590017Y-120256504D01*
X131504507Y-120434496D01*
X131386914Y-120591670D01*
X131253290Y-120724946D01*
X131123737Y-120835308D01*
X130976419Y-120947798D01*
X130827128Y-121052014D01*
X130691654Y-121137556D01*
X130585789Y-121194024D01*
X130525324Y-121211017D01*
X130519491Y-121208241D01*
X130508047Y-121160648D01*
X130493939Y-121049781D01*
X130479495Y-120895491D01*
X130473282Y-120814049D01*
X130468431Y-120510564D01*
X130505949Y-120261740D01*
X130592045Y-120047220D01*
X130732933Y-119846644D01*
X130786960Y-119785989D01*
X130978639Y-119579851D01*
X130853721Y-119607425D01*
X130565099Y-119653762D01*
X130285210Y-119666855D01*
X130031440Y-119648004D01*
X129821178Y-119598510D01*
X129671812Y-119519672D01*
X129670936Y-119518949D01*
X129627868Y-119479113D01*
X129618496Y-119443495D01*
X129651299Y-119395914D01*
X129734756Y-119320191D01*
X129807036Y-119259246D01*
X130152071Y-118968308D01*
X130437651Y-118723929D01*
X130669417Y-118520728D01*
X130853010Y-118353320D01*
X130994070Y-118216323D01*
X131098236Y-118104355D01*
X131171150Y-118012031D01*
X131218451Y-117933970D01*
X131235152Y-117896314D01*
X131297618Y-117641111D01*
X131314154Y-117323294D01*
X131285044Y-116949526D01*
X131210572Y-116526473D01*
X131169246Y-116349370D01*
X131091030Y-115992928D01*
X131050702Y-115695548D01*
X131048407Y-115442053D01*
X131084294Y-115217270D01*
X131158509Y-115006022D01*
X131182778Y-114954141D01*
X131285365Y-114781363D01*
X131420264Y-114604083D01*
X131566845Y-114446062D01*
X131704482Y-114331059D01*
X131745425Y-114306060D01*
X131784097Y-114291761D01*
X131792033Y-114312555D01*
X131765903Y-114378991D01*
X131702382Y-114501619D01*
X131658293Y-114582340D01*
X131569397Y-114750553D01*
X131516227Y-114875700D01*
X131490439Y-114985379D01*
X131483686Y-115107183D01*
X131484276Y-115157771D01*
X131509305Y-115365152D01*
X131569450Y-115591587D01*
X131654171Y-115807606D01*
X131752930Y-115983739D01*
X131801408Y-116044586D01*
X131899975Y-116123944D01*
X132053966Y-116218696D01*
X132240066Y-116317116D01*
X132434959Y-116407477D01*
X132615332Y-116478052D01*
X132729920Y-116511594D01*
X132965029Y-116533867D01*
X133157225Y-116512108D01*
X133327815Y-116463204D01*
X133476295Y-116377232D01*
X133617593Y-116241803D01*
X133766638Y-116044528D01*
X133822417Y-115960099D01*
X133903418Y-115840165D01*
X133968660Y-115754137D01*
X134004265Y-115720286D01*
X134004593Y-115720266D01*
X134031837Y-115755834D01*
X134059398Y-115842392D01*
X134060443Y-115847062D01*
X134105445Y-115950834D01*
X134189166Y-116074173D01*
X134244681Y-116138538D01*
X134339009Y-116230459D01*
X134422265Y-116286309D01*
X134504704Y-116301928D01*
X134596580Y-116273160D01*
X134708147Y-116195847D01*
X134849661Y-116065832D01*
X135031376Y-115878956D01*
X135121754Y-115782937D01*
X135282039Y-115613438D01*
X135423297Y-115467096D01*
X135535512Y-115354046D01*
X135608666Y-115284425D01*
X135631836Y-115266811D01*
X135656202Y-115297956D01*
X135663258Y-115355558D01*
X135678878Y-115442547D01*
X135719297Y-115574438D01*
X135766368Y-115699082D01*
X135821572Y-115855948D01*
X135858955Y-116005909D01*
X135869359Y-116094656D01*
X135842099Y-116265629D01*
X135771397Y-116448131D01*
X135674104Y-116603306D01*
X135627307Y-116652831D01*
X135562585Y-116720310D01*
X135538147Y-116763679D01*
X135575914Y-116794311D01*
X135673988Y-116817771D01*
X135809529Y-116831549D01*
X135959694Y-116833136D01*
X136080266Y-116823234D01*
X136287655Y-116794710D01*
X136287655Y-115472793D01*
X136754887Y-115461020D01*
X137022432Y-115454278D01*
X137953229Y-115454278D01*
X137992904Y-115458828D01*
X138104070Y-115462865D01*
X138274942Y-115466188D01*
X138493733Y-115468599D01*
X138748658Y-115469897D01*
X138884734Y-115470066D01*
X139816239Y-115470066D01*
X142283721Y-115470066D01*
X144105100Y-115470066D01*
X144069274Y-115272279D01*
X144001720Y-114994802D01*
X143912294Y-114793142D01*
X143798531Y-114662131D01*
X143768176Y-114641147D01*
X143518039Y-114533971D01*
X143238214Y-114497157D01*
X142943389Y-114530595D01*
X142648254Y-114634178D01*
X142616836Y-114649630D01*
X142443363Y-114773884D01*
X142334957Y-114941945D01*
X142287082Y-115162010D01*
X142283786Y-115251459D01*
X142283721Y-115470066D01*
X139816239Y-115470066D01*
X139844564Y-115182618D01*
X139895727Y-114829614D01*
X139976371Y-114477507D01*
X140078887Y-114154977D01*
X140178746Y-113923113D01*
X140319124Y-113646159D01*
X140211838Y-113485900D01*
X140108288Y-113342919D01*
X139967152Y-113163450D01*
X139807118Y-112969789D01*
X139646873Y-112784235D01*
X139505103Y-112629084D01*
X139431933Y-112555312D01*
X139279029Y-112409574D01*
X139305883Y-112576132D01*
X139331396Y-112725100D01*
X139362383Y-112894137D01*
X139371672Y-112942525D01*
X139407366Y-113229196D01*
X139390356Y-113467584D01*
X139323613Y-113666428D01*
X139265876Y-113771573D01*
X139217177Y-113836273D01*
X139200695Y-113846132D01*
X139159362Y-113814538D01*
X139089629Y-113732819D01*
X139027567Y-113648345D01*
X138890363Y-113450558D01*
X138866494Y-113596295D01*
X138857742Y-113704528D01*
X138855093Y-113866761D01*
X138858811Y-114053921D01*
X138861769Y-114122034D01*
X138868606Y-114377431D01*
X138858662Y-114557467D01*
X138830877Y-114668563D01*
X138784192Y-114717138D01*
X138762938Y-114720558D01*
X138642605Y-114682092D01*
X138518443Y-114575405D01*
X138404734Y-114413557D01*
X138383331Y-114373410D01*
X138322678Y-114264920D01*
X138277645Y-114217604D01*
X138244619Y-114236249D01*
X138219992Y-114325645D01*
X138200151Y-114490582D01*
X138188773Y-114631464D01*
X138150333Y-114922923D01*
X138078878Y-115161402D01*
X138058277Y-115209036D01*
X138002796Y-115332619D01*
X137964726Y-115422007D01*
X137953229Y-115454278D01*
X137022432Y-115454278D01*
X137222119Y-115449246D01*
X137396958Y-115012033D01*
X137467371Y-114832264D01*
X137524853Y-114678510D01*
X137562906Y-114568618D01*
X137575137Y-114522771D01*
X137561556Y-114480037D01*
X137506979Y-114480268D01*
X137402850Y-114525894D01*
X137245360Y-114616459D01*
X137120621Y-114690075D01*
X137025057Y-114742469D01*
X136979668Y-114762197D01*
X136966891Y-114724098D01*
X136957668Y-114623929D01*
X136953896Y-114482882D01*
X136953885Y-114474233D01*
X136956053Y-114320747D01*
X136969962Y-114221826D01*
X137006719Y-114148756D01*
X137077431Y-114072826D01*
X137127046Y-114026610D01*
X137232452Y-113927547D01*
X137374619Y-113791419D01*
X137531139Y-113639764D01*
X137621351Y-113551521D01*
X137767078Y-113415039D01*
X137905271Y-113297253D01*
X138017302Y-113213453D01*
X138070078Y-113183244D01*
X138178779Y-113099915D01*
X138258445Y-112969929D01*
X138286344Y-112840574D01*
X138255390Y-112803328D01*
X138179604Y-112804081D01*
X138084604Y-112836420D01*
X137996004Y-112893929D01*
X137970524Y-112919656D01*
X137758026Y-113167388D01*
X137587874Y-113362785D01*
X137448257Y-113516777D01*
X137327364Y-113640295D01*
X137213386Y-113744269D01*
X137094512Y-113839629D01*
X136958931Y-113937305D01*
X136794834Y-114048228D01*
X136641590Y-114149560D01*
X136017000Y-114561583D01*
X135205032Y-114540540D01*
X134821926Y-114527463D01*
X134508771Y-114508300D01*
X134252304Y-114480303D01*
X134039266Y-114440723D01*
X133856393Y-114386814D01*
X133690426Y-114315828D01*
X133528102Y-114225016D01*
X133453833Y-114177687D01*
X133206367Y-113989731D01*
X132990841Y-113767774D01*
X132800981Y-113501761D01*
X132630512Y-113181634D01*
X132473160Y-112797335D01*
X132337714Y-112388754D01*
X132256943Y-112137686D01*
X132163939Y-111871159D01*
X132070277Y-111621211D01*
X131988517Y-111422120D01*
X131908020Y-111242438D01*
X131842881Y-111116146D01*
X131775363Y-111021429D01*
X131687728Y-110936474D01*
X131562241Y-110839465D01*
X131446803Y-110755890D01*
X131328338Y-110667789D01*
X131221122Y-110579934D01*
X131115720Y-110482226D01*
X131002695Y-110364563D01*
X130872614Y-110216845D01*
X130716039Y-110028970D01*
X130523537Y-109790838D01*
X130395237Y-109630148D01*
X130213258Y-109400804D01*
X130050668Y-109194344D01*
X129914013Y-109019208D01*
X129809839Y-108883834D01*
X129744692Y-108796663D01*
X129725069Y-108766132D01*
X129770350Y-108775137D01*
X129879479Y-108799555D01*
X130035295Y-108835483D01*
X130191870Y-108872218D01*
X130435325Y-108924847D01*
X130621965Y-108952531D01*
X130773582Y-108957822D01*
X130861791Y-108950699D01*
X130984466Y-108930751D01*
X131064692Y-108908843D01*
X131082737Y-108895825D01*
X131072338Y-108845144D01*
X131044872Y-108736355D01*
X131005934Y-108591485D01*
X130999459Y-108568035D01*
X130948321Y-108368183D01*
X130924060Y-108212965D01*
X130926820Y-108070311D01*
X130956747Y-107908151D01*
X131003228Y-107732536D01*
X131051208Y-107541392D01*
X131069118Y-107400766D01*
X131057623Y-107283773D01*
X131017388Y-107163533D01*
X131017304Y-107163331D01*
X131008260Y-107123289D01*
X131039782Y-107130528D01*
X131121825Y-107188476D01*
X131147277Y-107208085D01*
X131260087Y-107289050D01*
X131416776Y-107393057D01*
X131589092Y-107501529D01*
X131644868Y-107535315D01*
X131822918Y-107649515D01*
X132000014Y-107775666D01*
X132144453Y-107890874D01*
X132173986Y-107917364D01*
X132281280Y-108011789D01*
X132367497Y-108077739D01*
X132410660Y-108099902D01*
X132449679Y-108068108D01*
X132525749Y-107981566D01*
X132627857Y-107853533D01*
X132743727Y-107698998D01*
X133036122Y-107298095D01*
X133145142Y-107542851D01*
X133259177Y-107803007D01*
X133343156Y-108007329D01*
X133403345Y-108174924D01*
X133446007Y-108324901D01*
X133477406Y-108476367D01*
X133501031Y-108628450D01*
X133527280Y-108853847D01*
X133533200Y-109032023D01*
X133519020Y-109196459D01*
X133505450Y-109278661D01*
X133466908Y-109512982D01*
X133453866Y-109689017D01*
X133470472Y-109828973D01*
X133520875Y-109955059D01*
X133609225Y-110089484D01*
X133672102Y-110170759D01*
X133888025Y-110442112D01*
X134033597Y-110051745D01*
X134129864Y-109746611D01*
X134185573Y-109444941D01*
X134201840Y-109126745D01*
X134179782Y-108772032D01*
X134126170Y-108393742D01*
X134086409Y-108118927D01*
X134059143Y-107845151D01*
X134045015Y-107589505D01*
X134044667Y-107369078D01*
X134058741Y-107200963D01*
X134078376Y-107121377D01*
X134082987Y-107007669D01*
X134049418Y-106915581D01*
X134009570Y-106818084D01*
X133959091Y-106667913D01*
X133907281Y-106493253D01*
X133894136Y-106445043D01*
X133849138Y-106266781D01*
X133826763Y-106139498D01*
X133825072Y-106034600D01*
X133842130Y-105923491D01*
X133854906Y-105865995D01*
X133908610Y-105634968D01*
X133734444Y-105653209D01*
X133594243Y-105651665D01*
X133447634Y-105610438D01*
X133330409Y-105557442D01*
X133209938Y-105494245D01*
X133133548Y-105436267D01*
X133081757Y-105359224D01*
X133035082Y-105238831D01*
X133007704Y-105155189D01*
X132970822Y-105015810D01*
X132940746Y-104856935D01*
X132919673Y-104699032D01*
X132909798Y-104562571D01*
X132913317Y-104468020D01*
X132930507Y-104435640D01*
X132973652Y-104451237D01*
X133070954Y-104491970D01*
X133190753Y-104544343D01*
X133360821Y-104604618D01*
X133537288Y-104631981D01*
X133734750Y-104625193D01*
X133967801Y-104583015D01*
X134251033Y-104504206D01*
X134457028Y-104436819D01*
X134694406Y-104358186D01*
X134870864Y-104306752D01*
X135003286Y-104280017D01*
X135108555Y-104275483D01*
X135203555Y-104290649D01*
X135281867Y-104314715D01*
X135391039Y-104337733D01*
X135509798Y-104323467D01*
X135607793Y-104293895D01*
X135763743Y-104249354D01*
X135907461Y-104232455D01*
X136063496Y-104244255D01*
X136256396Y-104285809D01*
X136410243Y-104328421D01*
X136595664Y-104387225D01*
X136729491Y-104446191D01*
X136841731Y-104522100D01*
X136962395Y-104631731D01*
X136975185Y-104644311D01*
X137084403Y-104758780D01*
X137161638Y-104862762D01*
X137221875Y-104982882D01*
X137280101Y-105145768D01*
X137308574Y-105236639D01*
X137360791Y-105412213D01*
X137392019Y-105544111D01*
X137404805Y-105661710D01*
X137401698Y-105794390D01*
X137385245Y-105971529D01*
X137378070Y-106037897D01*
X137309252Y-106456779D01*
X137201559Y-106822012D01*
X137058009Y-107125576D01*
X136881620Y-107359451D01*
X136880296Y-107360804D01*
X136786781Y-107459865D01*
X136726703Y-107530820D01*
X136712816Y-107558580D01*
X136713088Y-107558591D01*
X136760496Y-107544321D01*
X136868420Y-107505655D01*
X137019926Y-107448801D01*
X137167202Y-107392033D01*
X137342550Y-107324718D01*
X137488912Y-107270444D01*
X137589168Y-107235437D01*
X137625098Y-107225476D01*
X137628847Y-107262481D01*
X137612922Y-107361396D01*
X137580584Y-107504075D01*
X137562391Y-107574560D01*
X137491849Y-107791716D01*
X137399282Y-107977097D01*
X137272778Y-108144989D01*
X137100422Y-108309675D01*
X136870301Y-108485441D01*
X136712562Y-108593500D01*
X136466288Y-108763285D01*
X136228216Y-108937739D01*
X136008024Y-109108760D01*
X135815389Y-109268251D01*
X135659988Y-109408111D01*
X135551498Y-109520242D01*
X135499597Y-109596544D01*
X135496508Y-109611278D01*
X135530116Y-109608318D01*
X135620545Y-109571123D01*
X135752203Y-109506587D01*
X135846442Y-109456553D01*
X135998649Y-109374535D01*
X136121376Y-109310191D01*
X136197775Y-109272259D01*
X136214212Y-109265804D01*
X136220923Y-109303270D01*
X136219395Y-109399814D01*
X136213362Y-109491136D01*
X136214868Y-109629621D01*
X136236060Y-109781785D01*
X136271060Y-109925099D01*
X136313992Y-110037035D01*
X136358979Y-110095062D01*
X136371802Y-110098591D01*
X136414743Y-110067466D01*
X136468626Y-109998425D01*
X136559432Y-109918909D01*
X136714370Y-109844350D01*
X136914304Y-109780992D01*
X137140098Y-109735080D01*
X137339049Y-109714382D01*
X137479681Y-109709970D01*
X137580486Y-109713008D01*
X137620093Y-109722830D01*
X137620114Y-109723127D01*
X137601436Y-109796434D01*
X137552215Y-109921188D01*
X137482668Y-110076213D01*
X137403017Y-110240334D01*
X137323478Y-110392378D01*
X137254272Y-110511170D01*
X137211442Y-110569932D01*
X137117947Y-110646416D01*
X136977296Y-110737054D01*
X136818820Y-110823057D01*
X136808147Y-110828258D01*
X136668578Y-110897938D01*
X136596384Y-110941727D01*
X136594636Y-110961561D01*
X136666403Y-110959375D01*
X136814753Y-110937105D01*
X136944735Y-110914382D01*
X137139949Y-110886920D01*
X137298870Y-110878978D01*
X137407171Y-110890233D01*
X137450525Y-110920360D01*
X137450625Y-110925822D01*
X137428545Y-110971846D01*
X137373361Y-111067578D01*
X137296863Y-111192587D01*
X137294298Y-111196679D01*
X137120296Y-111410346D01*
X136884484Y-111591450D01*
X136581323Y-111743169D01*
X136205275Y-111868681D01*
X136057260Y-111906565D01*
X135743806Y-111983725D01*
X135502395Y-112049042D01*
X135323295Y-112106425D01*
X135196772Y-112159784D01*
X135113094Y-112213027D01*
X135062529Y-112270065D01*
X135041556Y-112314535D01*
X135014598Y-112406495D01*
X135009566Y-112456543D01*
X135010467Y-112457905D01*
X135055707Y-112467899D01*
X135162406Y-112481462D01*
X135308977Y-112495918D01*
X135334553Y-112498123D01*
X135698780Y-112487494D01*
X136074531Y-112395917D01*
X136459506Y-112224569D01*
X136851401Y-111974624D01*
X137247916Y-111647257D01*
X137516016Y-111384154D01*
X137691708Y-111194793D01*
X137869619Y-110992877D01*
X138029941Y-110801490D01*
X138152865Y-110643719D01*
X138161426Y-110631945D01*
X138272505Y-110487267D01*
X138389660Y-110357663D01*
X138529322Y-110227717D01*
X138707921Y-110082016D01*
X138914452Y-109925476D01*
X139100476Y-109788166D01*
X139267762Y-109666157D01*
X139402726Y-109569245D01*
X139491784Y-109507228D01*
X139515727Y-109491856D01*
X139552757Y-109461956D01*
X139545205Y-109427377D01*
X139483559Y-109373552D01*
X139399826Y-109314350D01*
X139289105Y-109234363D01*
X139208402Y-109169028D01*
X139182173Y-109141829D01*
X139196364Y-109096726D01*
X139272063Y-109041901D01*
X139389469Y-108985648D01*
X139528785Y-108936262D01*
X139670211Y-108902038D01*
X139780781Y-108891050D01*
X139933533Y-108878714D01*
X140048384Y-108832129D01*
X140123228Y-108776541D01*
X140196587Y-108720733D01*
X140269737Y-108686292D01*
X140365811Y-108667748D01*
X140507942Y-108659631D01*
X140626769Y-108657467D01*
X140827027Y-108650417D01*
X140960487Y-108633447D01*
X141043307Y-108603916D01*
X141069023Y-108585231D01*
X141177932Y-108533663D01*
X141337362Y-108514831D01*
X141521062Y-108529197D01*
X141694757Y-108574236D01*
X141809613Y-108612302D01*
X141883368Y-108616835D01*
X141952221Y-108585281D01*
X141999562Y-108552725D01*
X142085426Y-108502185D01*
X142175107Y-108482243D01*
X142301683Y-108487516D01*
X142359509Y-108494159D01*
X142518672Y-108511149D01*
X142675091Y-108520661D01*
X142855765Y-108523583D01*
X143087695Y-108520805D01*
X143137328Y-108519760D01*
X143349661Y-108540944D01*
X143566618Y-108604860D01*
X143705323Y-108655487D01*
X143805884Y-108672131D01*
X143904381Y-108658571D01*
X143952224Y-108645255D01*
X144156634Y-108616459D01*
X144373158Y-108653589D01*
X144616131Y-108759350D01*
X144646754Y-108776224D01*
X144779674Y-108860258D01*
X144847858Y-108930757D01*
X144865360Y-108994737D01*
X144877422Y-109083379D01*
X144908883Y-109219834D01*
X144948214Y-109358724D01*
X144985424Y-109470150D01*
X145026655Y-109561267D01*
X145083674Y-109647313D01*
X145168247Y-109743524D01*
X145292139Y-109865140D01*
X145458296Y-110019297D01*
X145816416Y-110345229D01*
X146124368Y-110618107D01*
X146390615Y-110844016D01*
X146623623Y-111029043D01*
X146831855Y-111179273D01*
X147023778Y-111300791D01*
X147207854Y-111399685D01*
X147392549Y-111482038D01*
X147586327Y-111553937D01*
X147598635Y-111558121D01*
X147859845Y-111636470D01*
X148136943Y-111702195D01*
X148415995Y-111753756D01*
X148683068Y-111789611D01*
X148924228Y-111808221D01*
X149125541Y-111808045D01*
X149273074Y-111787543D01*
X149347349Y-111751465D01*
X149324621Y-111724887D01*
X149246779Y-111676266D01*
X149135263Y-111616343D01*
X149011512Y-111555864D01*
X148896965Y-111505572D01*
X148813062Y-111476211D01*
X148791041Y-111472689D01*
X148720721Y-111459188D01*
X148589048Y-111422446D01*
X148412777Y-111368106D01*
X148208665Y-111301811D01*
X147993468Y-111229202D01*
X147783941Y-111155924D01*
X147596842Y-111087618D01*
X147448925Y-111029928D01*
X147363721Y-110992037D01*
X147238884Y-110912632D01*
X147090821Y-110795821D01*
X146951325Y-110666714D01*
X146949754Y-110665112D01*
X146723163Y-110433738D01*
X146928934Y-110455296D01*
X147191383Y-110445223D01*
X147375333Y-110399362D01*
X147485844Y-110362595D01*
X147551019Y-110330537D01*
X147566632Y-110293247D01*
X147528455Y-110240785D01*
X147432262Y-110163212D01*
X147273826Y-110050587D01*
X147207242Y-110004090D01*
X147061772Y-109886754D01*
X146897502Y-109730184D01*
X146743893Y-109563016D01*
X146704742Y-109515640D01*
X146590690Y-109370496D01*
X146524734Y-109276873D01*
X146500851Y-109222994D01*
X146513019Y-109197081D01*
X146537972Y-109189563D01*
X146633244Y-109192121D01*
X146788311Y-109216353D01*
X146983858Y-109257916D01*
X147200572Y-109312465D01*
X147419136Y-109375656D01*
X147540629Y-109415062D01*
X147687765Y-109463643D01*
X147804064Y-109499336D01*
X147867250Y-109515354D01*
X147870686Y-109515640D01*
X147893947Y-109478561D01*
X147903452Y-109383095D01*
X147899735Y-109252899D01*
X147883330Y-109111630D01*
X147858993Y-108997551D01*
X147795846Y-108857074D01*
X147701261Y-108729301D01*
X147687772Y-108716026D01*
X147562127Y-108598655D01*
X147691940Y-108553402D01*
X147779647Y-108515351D01*
X147819478Y-108483247D01*
X147819712Y-108480993D01*
X147785888Y-108448547D01*
X147696566Y-108383358D01*
X147567166Y-108296338D01*
X147476187Y-108237861D01*
X147221224Y-108069603D01*
X147018204Y-107915691D01*
X146843882Y-107754667D01*
X146675013Y-107565073D01*
X146489690Y-107327241D01*
X146302773Y-107072627D01*
X146167822Y-106877336D01*
X146082487Y-106737562D01*
X146044418Y-106649500D01*
X146047989Y-106611918D01*
X146096321Y-106612504D01*
X146206656Y-106634796D01*
X146361776Y-106674825D01*
X146516063Y-106719855D01*
X146694180Y-106772919D01*
X146840315Y-106813706D01*
X146937868Y-106837762D01*
X146970247Y-106841682D01*
X146953870Y-106803879D01*
X146899952Y-106708736D01*
X146816018Y-106568943D01*
X146709597Y-106397190D01*
X146659033Y-106317043D01*
X146485290Y-106032482D01*
X146358548Y-105795409D01*
X146273164Y-105588781D01*
X146223494Y-105395558D01*
X146203892Y-105198699D01*
X146208716Y-104981163D01*
X146210052Y-104961452D01*
X146228765Y-104778778D01*
X146256045Y-104610798D01*
X146286656Y-104488374D01*
X146293331Y-104470588D01*
X146371955Y-104345206D01*
X146503947Y-104197995D01*
X146669491Y-104046860D01*
X146848767Y-103909710D01*
X147021958Y-103804452D01*
X147041026Y-103794991D01*
X147265652Y-103706330D01*
X147503789Y-103645286D01*
X147730143Y-103616159D01*
X147919423Y-103623249D01*
X147975603Y-103636098D01*
X148089016Y-103662132D01*
X148160501Y-103649815D01*
X148196163Y-103623984D01*
X148278000Y-103568502D01*
X148393306Y-103509780D01*
X148412455Y-103501532D01*
X148513854Y-103466827D01*
X148607334Y-103460718D01*
X148729768Y-103482745D01*
X148785685Y-103496859D01*
X148956636Y-103550183D01*
X149145012Y-103621507D01*
X149237491Y-103661820D01*
X149515485Y-103751528D01*
X149791219Y-103765423D01*
X150051861Y-103705095D01*
X150284582Y-103572135D01*
X150339614Y-103525236D01*
X150444228Y-103434096D01*
X150526861Y-103371666D01*
X150564068Y-103353017D01*
X150583274Y-103391556D01*
G37*
X150583274Y-103391556D02*
X150603776Y-103495009D01*
X150622435Y-103645131D01*
X150630704Y-103740062D01*
X150642747Y-103930075D01*
X150642737Y-104064198D01*
X150627505Y-104169345D01*
X150593883Y-104272430D01*
X150558092Y-104356911D01*
X150415289Y-104585755D01*
X150218444Y-104764951D01*
X149983933Y-104881878D01*
X149831366Y-104916973D01*
X149617531Y-104945340D01*
X149718987Y-105106056D01*
X149809076Y-105321324D01*
X149820406Y-105545729D01*
X149753479Y-105763240D01*
X149695524Y-105857985D01*
X149613340Y-105998337D01*
X149576321Y-106142700D01*
X149583746Y-106310907D01*
X149634892Y-106522794D01*
X149667634Y-106624822D01*
X149709151Y-106755983D01*
X149735072Y-106868067D01*
X149747343Y-106984434D01*
X149747908Y-107128444D01*
X149738714Y-107323460D01*
X149733251Y-107412853D01*
X149719468Y-107672681D01*
X149708059Y-107963260D01*
X149700595Y-108240620D01*
X149698682Y-108379780D01*
X149699427Y-108596310D01*
X149707325Y-108753107D01*
X149725716Y-108873628D01*
X149757937Y-108981331D01*
X149798270Y-109079362D01*
X149869892Y-109226706D01*
X149945181Y-109359356D01*
X149988702Y-109423164D01*
X150072232Y-109511595D01*
X150174866Y-109597717D01*
X150270023Y-109661122D01*
X150325726Y-109681923D01*
X150351640Y-109641070D01*
X150373762Y-109519774D01*
X150391914Y-109320792D01*
X150405914Y-109046882D01*
X150415582Y-108700799D01*
X150420738Y-108285303D01*
X150421075Y-108224820D01*
X150425800Y-107246295D01*
X150585517Y-106907467D01*
X150668293Y-106739331D01*
X150737476Y-106627174D01*
X150811535Y-106550118D01*
X150908941Y-106487285D01*
X150996754Y-106442604D01*
X151015439Y-106470043D01*
X151026597Y-106556989D01*
X151027983Y-106610028D01*
X151048647Y-106764393D01*
X151113743Y-106957668D01*
X151193043Y-107133990D01*
X151267450Y-107283847D01*
X151328917Y-107400210D01*
X151368410Y-107466329D01*
X151377073Y-107475312D01*
X151400110Y-107439621D01*
X151438158Y-107348394D01*
X151463647Y-107277525D01*
X151500236Y-107184491D01*
X151546925Y-107109476D01*
X151618879Y-107037420D01*
X151731263Y-106953264D01*
X151899240Y-106841945D01*
X151907826Y-106836394D01*
X152162431Y-106656104D01*
X152345665Y-106491152D01*
X152416111Y-106405699D01*
X152547819Y-106218348D01*
X152573089Y-106503305D01*
X152600229Y-106686538D01*
X152644672Y-106869419D01*
X152685350Y-106984259D01*
X152760810Y-107229746D01*
X152781091Y-107484332D01*
X152745727Y-107720697D01*
X152699881Y-107837997D01*
X152647149Y-107944347D01*
X152614945Y-108015426D01*
X152610278Y-108029797D01*
X152647512Y-108025933D01*
X152748298Y-108002689D01*
X152896265Y-107964085D01*
X153037082Y-107924994D01*
X153249098Y-107868067D01*
X153469240Y-107814611D01*
X153681822Y-107767769D01*
X153871157Y-107730689D01*
X154021559Y-107706516D01*
X154117342Y-107698395D01*
X154142900Y-107703234D01*
X154123541Y-107737853D01*
X154055487Y-107812567D01*
X153952549Y-107912443D01*
X153931347Y-107931972D01*
X153757389Y-108118591D01*
X153584316Y-108362774D01*
X153461927Y-108568683D01*
X153344757Y-108772856D01*
X153237809Y-108945944D01*
X153128795Y-109104242D01*
X153005428Y-109264047D01*
X152855423Y-109441652D01*
X152666492Y-109653353D01*
X152537782Y-109794318D01*
X152326038Y-110036619D01*
X152169328Y-110248648D01*
X152057273Y-110451672D01*
X151979491Y-110666956D01*
X151925603Y-110915767D01*
X151898710Y-111103636D01*
X151842432Y-111420274D01*
X151748906Y-111727208D01*
X151685311Y-111889082D01*
X151612716Y-112056666D01*
X151545586Y-112188872D01*
X151469896Y-112305606D01*
X151371621Y-112426769D01*
X151236738Y-112572265D01*
X151118047Y-112694142D01*
X150904879Y-112899295D01*
X150668470Y-113107034D01*
X150424163Y-113305510D01*
X150187300Y-113482879D01*
X149973222Y-113627293D01*
X149797271Y-113726908D01*
X149756806Y-113745209D01*
X149648691Y-113780152D01*
X149483746Y-113821474D01*
X149287489Y-113863157D01*
X149147783Y-113888874D01*
X148697840Y-113966072D01*
X148347481Y-113828527D01*
X148150510Y-113744607D01*
X147947751Y-113643638D01*
X147728069Y-113518859D01*
X147480332Y-113363510D01*
X147193408Y-113170832D01*
X146856163Y-112934064D01*
X146754011Y-112860966D01*
X146504252Y-112682563D01*
X146313133Y-112548438D01*
X146172437Y-112453211D01*
X146073949Y-112391507D01*
X146009450Y-112357948D01*
X145970724Y-112347157D01*
X145968775Y-112347115D01*
X145953838Y-112382699D01*
X145955627Y-112461533D01*
X145972560Y-112526562D01*
X146017626Y-112575771D01*
X146108971Y-112622589D01*
X146239459Y-112671558D01*
X146357479Y-112717715D01*
X146461118Y-112771891D01*
X146566421Y-112846001D01*
X146689429Y-112951958D01*
X146846187Y-113101676D01*
X146929515Y-113184019D01*
X147111501Y-113369117D01*
X147241904Y-113513470D01*
X147331788Y-113631203D01*
X147392216Y-113736442D01*
X147425401Y-113817190D01*
X147471212Y-113946680D01*
X147506685Y-114046817D01*
X147519312Y-114082364D01*
X147501422Y-114137589D01*
X147454072Y-114175461D01*
X147386176Y-114193402D01*
X147293168Y-114177300D01*
X147152847Y-114123000D01*
X147137360Y-114116195D01*
X147011392Y-114061791D01*
X146918947Y-114024301D01*
X146883681Y-114012689D01*
X146868437Y-114048157D01*
X146864049Y-114108118D01*
X146896201Y-114197663D01*
X146984698Y-114317082D01*
X147051426Y-114387443D01*
X147182143Y-114543522D01*
X147241144Y-114680540D01*
X147228427Y-114792113D01*
X147143992Y-114871857D01*
X147051426Y-114903434D01*
X146953895Y-114906544D01*
X146821808Y-114876280D01*
X146638351Y-114808471D01*
X146593492Y-114789816D01*
X146260477Y-114649416D01*
X146203257Y-114351872D01*
X146171574Y-114207442D01*
X146140924Y-114101677D01*
X146117351Y-114054993D01*
X146115156Y-114054328D01*
X146083781Y-114089358D01*
X146031504Y-114181087D01*
X145971121Y-114306467D01*
X145908429Y-114436752D01*
X145856693Y-114505187D01*
X145804486Y-114509301D01*
X145740386Y-114446623D01*
X145652968Y-114314681D01*
X145599392Y-114226059D01*
X145459331Y-113991869D01*
X145491250Y-113533836D01*
X145501620Y-113334400D01*
X145503100Y-113173840D01*
X145495870Y-113068451D01*
X145485741Y-113036246D01*
X145459744Y-113041969D01*
X145448465Y-113118843D01*
X145448311Y-113132930D01*
X145426941Y-113249806D01*
X145372734Y-113391224D01*
X145338180Y-113457095D01*
X145228049Y-113645019D01*
X145140393Y-113506149D01*
X145097756Y-113425074D01*
X145071318Y-113331781D01*
X145057542Y-113204424D01*
X145052889Y-113021156D01*
X145052737Y-112964856D01*
X145050987Y-112774890D01*
X145043080Y-112648051D01*
X145025036Y-112564217D01*
X144992870Y-112503264D01*
X144951790Y-112454774D01*
X144876065Y-112382958D01*
X144822554Y-112347819D01*
X144818160Y-112347115D01*
X144759510Y-112368002D01*
X144664538Y-112419922D01*
X144558303Y-112486766D01*
X144465866Y-112552426D01*
X144412287Y-112600793D01*
X144407328Y-112611203D01*
X144429575Y-112704627D01*
X144491115Y-112852240D01*
X144584150Y-113039544D01*
X144700878Y-113252044D01*
X144833498Y-113475245D01*
X144974212Y-113694650D01*
X145049441Y-113804492D01*
X145229874Y-114064013D01*
X145367683Y-114272394D01*
X145469804Y-114445421D01*
X145543175Y-114598878D01*
X145594732Y-114748552D01*
X145631412Y-114910227D01*
X145660152Y-115099689D01*
X145676163Y-115230640D01*
X145704140Y-115470066D01*
X148029950Y-115470066D01*
X148029950Y-125882671D01*
X147920003Y-126099893D01*
X147774196Y-126347298D01*
X147598217Y-126582927D01*
X147412463Y-126781389D01*
X147292191Y-126881289D01*
X147097832Y-127000886D01*
X146829474Y-127135265D01*
X146494498Y-127281529D01*
X146100286Y-127436782D01*
X145654219Y-127598126D01*
X145163678Y-127762665D01*
X144636045Y-127927502D01*
X144594705Y-127939939D01*
X144197559Y-128061206D01*
X143872252Y-128165675D01*
X143609857Y-128256856D01*
X143401447Y-128338258D01*
X143238096Y-128413391D01*
X143110877Y-128485765D01*
X143010863Y-128558888D01*
X143002586Y-128565888D01*
X142901526Y-128646617D01*
X142824361Y-128697840D01*
X142797594Y-128707799D01*
X142745608Y-128689205D01*
X142639729Y-128643227D01*
X142500891Y-128579030D01*
X142471098Y-128564852D01*
X142038409Y-128383307D01*
X141595518Y-128251562D01*
X141110409Y-128160295D01*
X141055360Y-128152632D01*
X140580017Y-128085362D01*
X140170859Y-128019628D01*
X139810986Y-127951251D01*
X139483502Y-127876056D01*
X139171508Y-127789864D01*
X138858106Y-127688499D01*
X138526398Y-127567783D01*
X138245289Y-127457985D01*
X137755422Y-127240508D01*
X137340508Y-127007530D01*
X136992804Y-126753399D01*
X136704569Y-126472460D01*
X136469204Y-126160834D01*
X136288030Y-125879635D01*
X136267087Y-117053882D01*
X138252151Y-117053882D01*
X138295576Y-117091358D01*
X138395950Y-117147714D01*
X138532650Y-117211527D01*
X138550643Y-117219197D01*
X138817990Y-117348334D01*
X139013990Y-117482764D01*
X139150492Y-117631540D01*
X139201254Y-117716326D01*
X139281436Y-117830495D01*
X139401209Y-117954638D01*
X139490185Y-118028170D01*
X139633670Y-118148462D01*
X139766307Y-118285779D01*
X139872966Y-118421600D01*
X139938519Y-118537404D01*
X139951918Y-118593389D01*
X139983108Y-118660783D01*
X140059863Y-118739819D01*
X140076836Y-118752990D01*
X140170345Y-118850269D01*
X140201754Y-118941337D01*
X140233112Y-119030204D01*
X140319148Y-119150575D01*
X140391889Y-119230188D01*
X140494010Y-119337291D01*
X140548306Y-119413632D01*
X140566253Y-119486921D01*
X140559328Y-119584866D01*
X140554253Y-119622212D01*
X140510421Y-119839714D01*
X140438365Y-120028910D01*
X140328781Y-120201047D01*
X140172361Y-120367368D01*
X139959800Y-120539117D01*
X139681791Y-120727539D01*
X139593182Y-120783426D01*
X139440225Y-120876957D01*
X139337710Y-120931508D01*
X139266151Y-120953325D01*
X139206062Y-120948655D01*
X139145545Y-120926910D01*
X138977459Y-120866218D01*
X138848990Y-120850896D01*
X138733769Y-120886166D01*
X138605427Y-120977248D01*
X138522756Y-121050224D01*
X138372584Y-121204596D01*
X138296372Y-121325296D01*
X138294565Y-121411424D01*
X138326807Y-121444585D01*
X138386833Y-121441825D01*
X138472545Y-121400614D01*
X138550897Y-121363305D01*
X138575414Y-121379697D01*
X138542942Y-121437411D01*
X138494541Y-121486951D01*
X138418867Y-121582701D01*
X138417015Y-121655443D01*
X138480772Y-121696510D01*
X138601923Y-121697236D01*
X138678132Y-121680687D01*
X138776060Y-121657496D01*
X138817901Y-121670254D01*
X138827499Y-121731529D01*
X138827655Y-121759498D01*
X138857972Y-121875562D01*
X138909265Y-121923271D01*
X138972632Y-121941259D01*
X139030184Y-121906863D01*
X139083425Y-121841766D01*
X139146201Y-121762139D01*
X139186848Y-121742953D01*
X139232462Y-121777472D01*
X139253273Y-121799555D01*
X139348903Y-121863076D01*
X139432255Y-121882525D01*
X139497077Y-121870620D01*
X139539671Y-121824945D01*
X139566208Y-121730558D01*
X139582856Y-121572518D01*
X139587002Y-121507771D01*
X139597983Y-121320394D01*
X139886911Y-121179065D01*
X140107426Y-121079417D01*
X140281059Y-121026771D01*
X140430058Y-121021697D01*
X140576673Y-121064764D01*
X140743155Y-121156542D01*
X140813990Y-121202790D01*
X140999472Y-121335443D01*
X141194404Y-121489083D01*
X141383945Y-121650476D01*
X141553255Y-121806383D01*
X141687491Y-121943571D01*
X141771813Y-122048801D01*
X141782124Y-122066223D01*
X141813174Y-122141885D01*
X141806115Y-122194616D01*
X141751894Y-122227170D01*
X141641457Y-122242300D01*
X141465751Y-122242760D01*
X141235590Y-122232421D01*
X141027932Y-122221452D01*
X140886243Y-122217562D01*
X140793346Y-122223074D01*
X140732067Y-122240311D01*
X140685231Y-122271597D01*
X140642230Y-122312690D01*
X140569680Y-122415244D01*
X140538033Y-122545765D01*
X140546824Y-122718005D01*
X140595590Y-122945717D01*
X140618147Y-123027607D01*
X140681594Y-123282839D01*
X140703735Y-123476672D01*
X140681220Y-123621836D01*
X140610699Y-123731057D01*
X140488822Y-123817064D01*
X140399354Y-123858806D01*
X140197053Y-123912233D01*
X140009316Y-123905088D01*
X139852065Y-123842287D01*
X139741225Y-123728747D01*
X139705283Y-123644548D01*
X139647566Y-123502200D01*
X139562986Y-123369151D01*
X139468566Y-123266875D01*
X139381326Y-123216846D01*
X139364780Y-123214984D01*
X139270395Y-123233784D01*
X139157408Y-123279197D01*
X139153918Y-123280986D01*
X139071562Y-123335115D01*
X139061780Y-123379441D01*
X139072707Y-123393413D01*
X139113624Y-123451495D01*
X139092219Y-123495740D01*
X138999779Y-123538673D01*
X138962983Y-123551183D01*
X138772012Y-123629955D01*
X138652554Y-123715222D01*
X138607629Y-123802378D01*
X138640255Y-123886812D01*
X138708148Y-123940245D01*
X138781275Y-123993705D01*
X138816588Y-124060425D01*
X138827278Y-124170803D01*
X138827655Y-124215641D01*
X138830243Y-124337108D01*
X138846051Y-124395018D01*
X138887150Y-124409088D01*
X138942164Y-124402679D01*
X139039901Y-124391087D01*
X139189704Y-124377245D01*
X139360517Y-124364002D01*
X139374087Y-124363059D01*
X139544569Y-124355482D01*
X139680735Y-124363742D01*
X139816824Y-124393203D01*
X139987074Y-124449232D01*
X140035335Y-124466686D01*
X140201670Y-124526173D01*
X140314343Y-124559396D01*
X140397821Y-124568917D01*
X140476571Y-124557298D01*
X140575061Y-124527102D01*
X140583969Y-124524145D01*
X140752051Y-124483268D01*
X140933046Y-124474758D01*
X141072696Y-124484634D01*
X141269128Y-124495452D01*
X141425759Y-124479342D01*
X141561476Y-124440389D01*
X141766332Y-124367631D01*
X141749502Y-124103325D01*
X141744421Y-123947329D01*
X141760680Y-123836449D01*
X141810676Y-123758884D01*
X141906804Y-123702830D01*
X142061459Y-123656485D01*
X142264982Y-123612500D01*
X142347909Y-123601194D01*
X142384822Y-123626621D01*
X142396335Y-123709261D01*
X142397778Y-123744407D01*
X142411522Y-123989391D01*
X142434407Y-124268497D01*
X142462295Y-124533633D01*
X142472996Y-124618147D01*
X142498575Y-124754721D01*
X142542188Y-124842096D01*
X142623739Y-124914330D01*
X142660901Y-124939680D01*
X142777005Y-124997627D01*
X142956095Y-125063505D01*
X143179144Y-125130759D01*
X143327538Y-125169383D01*
X143585188Y-125236468D01*
X143775034Y-125300995D01*
X143911088Y-125375936D01*
X144007364Y-125474259D01*
X144077876Y-125608936D01*
X144136637Y-125792938D01*
X144177901Y-125956446D01*
X144214352Y-126113035D01*
X144230226Y-126212121D01*
X144224935Y-126277043D01*
X144197890Y-126331144D01*
X144167396Y-126372840D01*
X144098427Y-126444594D01*
X144016453Y-126472503D01*
X143905108Y-126471712D01*
X143789738Y-126472092D01*
X143702507Y-126501996D01*
X143608573Y-126576163D01*
X143569199Y-126613807D01*
X143484771Y-126705937D01*
X143437101Y-126777372D01*
X143433161Y-126803018D01*
X143427185Y-126858150D01*
X143383334Y-126944774D01*
X143378321Y-126952399D01*
X143327113Y-127070856D01*
X143315994Y-127181132D01*
X143336961Y-127259285D01*
X143391375Y-127290707D01*
X143474239Y-127295640D01*
X143582588Y-127309490D01*
X143640981Y-127362230D01*
X143656606Y-127396548D01*
X143714076Y-127476417D01*
X143792314Y-127512952D01*
X143863969Y-127501136D01*
X143900896Y-127441377D01*
X143939175Y-127349423D01*
X143998423Y-127268050D01*
X144081891Y-127178001D01*
X144320227Y-127441377D01*
X144348379Y-127304964D01*
X144377519Y-127212813D01*
X144421713Y-127186830D01*
X144454389Y-127193262D01*
X144499207Y-127198645D01*
X144522588Y-127166457D01*
X144531278Y-127079221D01*
X144532246Y-126991518D01*
X144536535Y-126856784D01*
X144558605Y-126774425D01*
X144612256Y-126713632D01*
X144678058Y-126666007D01*
X144827701Y-126515987D01*
X144915434Y-126315943D01*
X144937753Y-126075210D01*
X144930691Y-125992568D01*
X144919101Y-125849880D01*
X144931152Y-125764491D01*
X144967321Y-125715119D01*
X145025709Y-125621014D01*
X145012403Y-125510744D01*
X144930156Y-125405466D01*
X144926662Y-125402614D01*
X144821406Y-125317771D01*
X145029434Y-125013549D01*
X144861956Y-124800635D01*
X144947328Y-124633291D01*
X145032701Y-124465947D01*
X144921732Y-124438096D01*
X144818809Y-124434788D01*
X144756236Y-124484816D01*
X144707086Y-124528945D01*
X144630299Y-124544210D01*
X144499856Y-124535466D01*
X144490587Y-124534383D01*
X144338586Y-124501540D01*
X144200214Y-124447684D01*
X144156020Y-124421477D01*
X144055698Y-124319340D01*
X144036715Y-124211575D01*
X144099358Y-124095167D01*
X144195885Y-124003733D01*
X144303854Y-123900918D01*
X144387300Y-123793319D01*
X144408667Y-123753062D01*
X144458136Y-123633633D01*
X144692978Y-123835203D01*
X144825642Y-123939225D01*
X144951394Y-124021290D01*
X145043872Y-124064272D01*
X145046706Y-124064984D01*
X145183818Y-124066886D01*
X145354788Y-124027224D01*
X145528096Y-123956023D01*
X145666867Y-123867750D01*
X145781324Y-123774068D01*
X145793856Y-123088542D01*
X145798222Y-122793203D01*
X145798539Y-122571208D01*
X145794023Y-122412688D01*
X145783891Y-122307772D01*
X145767360Y-122246589D01*
X145743645Y-122219270D01*
X145724522Y-122215002D01*
X145649666Y-122193689D01*
X145617528Y-122176525D01*
X145584967Y-122141727D01*
X145588254Y-122084253D01*
X145629360Y-121979891D01*
X145634441Y-121968569D01*
X145679923Y-121804674D01*
X145657894Y-121674949D01*
X145571220Y-121588817D01*
X145512186Y-121566865D01*
X145443894Y-121538122D01*
X145413217Y-121480070D01*
X145405757Y-121367929D01*
X145390372Y-121237310D01*
X145351780Y-121095753D01*
X145299464Y-120966883D01*
X145242906Y-120874326D01*
X145194490Y-120841541D01*
X145167280Y-120813092D01*
X145159190Y-120721296D01*
X145167001Y-120581295D01*
X145175736Y-120436193D01*
X145176051Y-120321420D01*
X145169552Y-120269000D01*
X145117655Y-120221150D01*
X145041004Y-120235854D01*
X144990278Y-120279410D01*
X144916586Y-120332462D01*
X144875842Y-120341869D01*
X144848709Y-120330544D01*
X144832110Y-120287649D01*
X144824772Y-120199803D01*
X144825423Y-120053628D01*
X144831313Y-119873427D01*
X144842745Y-119650109D01*
X144859956Y-119485324D01*
X144887499Y-119354333D01*
X144929931Y-119232399D01*
X144963584Y-119155148D01*
X145099395Y-118912697D01*
X145257349Y-118720684D01*
X145428016Y-118584059D01*
X145601967Y-118507774D01*
X145769774Y-118496781D01*
X145922006Y-118556030D01*
X145991211Y-118615528D01*
X146071617Y-118748973D01*
X146133196Y-118949237D01*
X146174730Y-119201745D01*
X146195002Y-119491920D01*
X146192796Y-119805187D01*
X146166894Y-120126968D01*
X146135360Y-120341869D01*
X146106261Y-120524546D01*
X146084591Y-120693960D01*
X146074095Y-120819791D01*
X146073658Y-120841541D01*
X146089807Y-120951614D01*
X146131652Y-121095119D01*
X146190431Y-121251800D01*
X146257387Y-121401400D01*
X146323759Y-121523664D01*
X146380789Y-121598336D01*
X146406772Y-121611869D01*
X146464746Y-121577755D01*
X146475675Y-121476312D01*
X146439616Y-121308888D01*
X146387252Y-121155291D01*
X146335410Y-121015302D01*
X146297603Y-120908904D01*
X146281265Y-120857084D01*
X146281098Y-120855648D01*
X146313219Y-120864609D01*
X146395689Y-120906546D01*
X146467230Y-120947111D01*
X146613897Y-121013329D01*
X146709311Y-121020325D01*
X146746085Y-120979200D01*
X146716833Y-120901055D01*
X146614169Y-120796989D01*
X146582983Y-120773168D01*
X146450386Y-120670026D01*
X146376640Y-120591867D01*
X146349220Y-120520774D01*
X146354195Y-120445919D01*
X146372149Y-120372817D01*
X146402122Y-120349122D01*
X146464702Y-120373071D01*
X146557249Y-120428544D01*
X146647017Y-120480987D01*
X146686933Y-120489351D01*
X146696858Y-120455115D01*
X146696974Y-120438954D01*
X146686013Y-120365674D01*
X146657212Y-120235859D01*
X146615944Y-120072953D01*
X146597968Y-120006736D01*
X146550235Y-119799340D01*
X146507294Y-119551026D01*
X146476075Y-119304124D01*
X146468447Y-119215589D01*
X146448338Y-118975530D01*
X146424232Y-118800559D01*
X146390847Y-118672493D01*
X146342902Y-118573150D01*
X146275116Y-118484350D01*
X146247219Y-118453971D01*
X146062960Y-118302303D01*
X145866227Y-118228232D01*
X145752264Y-118218495D01*
X145477263Y-118258613D01*
X145225773Y-118374498D01*
X145002886Y-118560698D01*
X144813693Y-118811765D01*
X144663287Y-119122248D01*
X144556758Y-119486698D01*
X144553674Y-119501395D01*
X144518522Y-119694518D01*
X144497494Y-119878385D01*
X144492562Y-120061876D01*
X144505697Y-120253869D01*
X144538871Y-120463242D01*
X144594057Y-120698876D01*
X144673224Y-120969649D01*
X144778347Y-121284439D01*
X144911396Y-121652126D01*
X145074343Y-122081589D01*
X145196612Y-122396502D01*
X145334065Y-122760421D01*
X145434356Y-123054104D01*
X145498525Y-123281316D01*
X145527614Y-123445818D01*
X145522664Y-123551375D01*
X145519071Y-123562301D01*
X145448037Y-123644900D01*
X145329649Y-123695831D01*
X145197801Y-123701708D01*
X145177020Y-123697398D01*
X145049170Y-123633785D01*
X144902804Y-123512457D01*
X144752606Y-123352073D01*
X144613262Y-123171292D01*
X144499457Y-122988773D01*
X144425876Y-122823174D01*
X144405852Y-122717570D01*
X144369621Y-122520420D01*
X144265669Y-122371448D01*
X144165799Y-122302809D01*
X144091589Y-122244118D01*
X143980286Y-122131093D01*
X143843083Y-121977247D01*
X143691178Y-121796096D01*
X143535765Y-121601153D01*
X143388040Y-121405932D01*
X143259200Y-121223948D01*
X143209069Y-121147953D01*
X143061445Y-120842880D01*
X142991595Y-120516255D01*
X143001868Y-120180759D01*
X143015676Y-120104319D01*
X143054224Y-119953048D01*
X143098090Y-119829621D01*
X143135911Y-119763309D01*
X143170319Y-119737157D01*
X143185395Y-119758126D01*
X143184541Y-119839728D01*
X143177389Y-119927990D01*
X143168786Y-120032584D01*
X143169008Y-120074758D01*
X143180950Y-120049637D01*
X143207506Y-119952347D01*
X143240691Y-119821377D01*
X143282827Y-119652754D01*
X143319332Y-119505202D01*
X143343590Y-119405496D01*
X143346728Y-119392208D01*
X143381345Y-119322753D01*
X143448873Y-119321477D01*
X143451010Y-119322146D01*
X143504507Y-119328475D01*
X143528357Y-119288984D01*
X143534377Y-119189183D01*
X143537119Y-119089597D01*
X143548457Y-119064385D01*
X143576948Y-119104641D01*
X143591185Y-119130073D01*
X143624649Y-119184132D01*
X143645544Y-119185029D01*
X143662812Y-119122154D01*
X143678887Y-119025975D01*
X143711256Y-118822033D01*
X143794412Y-119113509D01*
X143901136Y-118790804D01*
X143954750Y-118641772D01*
X144003493Y-118529180D01*
X144038962Y-118471765D01*
X144045893Y-118468099D01*
X144065412Y-118501468D01*
X144057183Y-118561787D01*
X144037185Y-118658902D01*
X144017339Y-118796896D01*
X144009959Y-118863673D01*
X143989478Y-119071869D01*
X144068142Y-118851665D01*
X144126480Y-118698002D01*
X144165711Y-118621686D01*
X144189300Y-118619902D01*
X144200708Y-118689834D01*
X144202752Y-118742224D01*
X144207121Y-118809570D01*
X144218105Y-118816826D01*
X144238861Y-118757476D01*
X144272548Y-118625000D01*
X144285134Y-118572197D01*
X144346033Y-118312172D01*
X144389012Y-118116557D01*
X144415690Y-117968808D01*
X144427684Y-117852382D01*
X144426611Y-117750735D01*
X144414089Y-117647322D01*
X144391736Y-117525600D01*
X144388888Y-117511100D01*
X144358251Y-117314450D01*
X144338705Y-117108072D01*
X144334463Y-116948263D01*
X144326563Y-116753748D01*
X144287556Y-116620382D01*
X144271513Y-116592947D01*
X144228037Y-116506146D01*
X144227303Y-116416044D01*
X144249216Y-116331615D01*
X144275179Y-116218919D01*
X144261074Y-116138591D01*
X144212506Y-116062341D01*
X144093623Y-115962820D01*
X143965760Y-115926178D01*
X143825994Y-115890992D01*
X143701273Y-115835467D01*
X143691088Y-115829036D01*
X143559560Y-115779086D01*
X143444354Y-115804941D01*
X143360731Y-115903033D01*
X143359036Y-115906689D01*
X143316046Y-115966296D01*
X143239452Y-116003174D01*
X143106107Y-116027635D01*
X143080509Y-116030785D01*
X142850357Y-116063323D01*
X142686878Y-116101559D01*
X142573472Y-116152074D01*
X142493540Y-116221452D01*
X142451360Y-116280284D01*
X142386216Y-116367074D01*
X142306104Y-116420714D01*
X142181844Y-116458207D01*
X142125771Y-116470015D01*
X141841918Y-116531950D01*
X141636045Y-116591531D01*
X141503168Y-116653613D01*
X141438301Y-116723052D01*
X141436459Y-116804705D01*
X141492655Y-116903426D01*
X141579803Y-117001805D01*
X141755813Y-117124473D01*
X141975358Y-117185718D01*
X142221270Y-117181131D01*
X142255274Y-117175281D01*
X142379342Y-117148857D01*
X142468256Y-117124784D01*
X142490337Y-117115797D01*
X142532214Y-117116734D01*
X142547177Y-117165591D01*
X142532418Y-117230574D01*
X142503766Y-117267923D01*
X142446526Y-117292536D01*
X142338666Y-117308280D01*
X142169834Y-117315968D01*
X141929682Y-117316414D01*
X141892060Y-117315974D01*
X141346836Y-117308931D01*
X141509473Y-117393167D01*
X141593219Y-117432538D01*
X141670810Y-117453699D01*
X141765574Y-117458210D01*
X141900838Y-117447630D01*
X142052723Y-117429495D01*
X142229245Y-117411151D01*
X142380028Y-117402538D01*
X142482015Y-117404674D01*
X142506063Y-117409496D01*
X142554793Y-117450013D01*
X142533919Y-117499049D01*
X142455460Y-117548611D01*
X142331438Y-117590704D01*
X142197291Y-117614858D01*
X142061719Y-117636078D01*
X141962688Y-117661792D01*
X141927024Y-117681421D01*
X141917202Y-117766276D01*
X141979112Y-117853587D01*
X142102590Y-117930685D01*
X142139133Y-117945833D01*
X142269695Y-118012010D01*
X142318974Y-118078466D01*
X142286311Y-118142981D01*
X142210852Y-118187354D01*
X142101477Y-118252306D01*
X141989931Y-118342038D01*
X141982050Y-118349601D01*
X141818201Y-118463140D01*
X141606244Y-118544862D01*
X141378489Y-118584592D01*
X141239936Y-118583338D01*
X141023081Y-118527520D01*
X140836473Y-118401619D01*
X140673156Y-118200429D01*
X140627980Y-118125175D01*
X140509762Y-117954981D01*
X140342630Y-117764599D01*
X140149345Y-117576249D01*
X139952667Y-117412151D01*
X139779366Y-117296717D01*
X139648228Y-117205400D01*
X139590603Y-117106261D01*
X139601674Y-116981536D01*
X139657965Y-116849020D01*
X139721062Y-116710423D01*
X139737328Y-116615837D01*
X139705976Y-116539883D01*
X139646387Y-116475765D01*
X139549053Y-116384324D01*
X139438281Y-116471457D01*
X139327510Y-116558590D01*
X139287772Y-116454073D01*
X139216862Y-116347360D01*
X139116703Y-116286232D01*
X139018049Y-116286637D01*
X138965398Y-116347810D01*
X138956553Y-116462152D01*
X138992769Y-116611246D01*
X138995449Y-116618399D01*
X139016055Y-116679011D01*
X139007898Y-116693726D01*
X138959962Y-116658972D01*
X138867638Y-116576965D01*
X138750340Y-116480607D01*
X138668973Y-116445446D01*
X138605393Y-116469344D01*
X138548500Y-116539402D01*
X138518310Y-116601499D01*
X138530263Y-116660364D01*
X138591882Y-116745137D01*
X138605962Y-116761995D01*
X138671212Y-116842930D01*
X138683285Y-116871640D01*
X138644893Y-116857641D01*
X138631173Y-116850433D01*
X138523853Y-116811747D01*
X138456599Y-116802525D01*
X138377485Y-116834857D01*
X138301551Y-116911013D01*
X138254224Y-116999733D01*
X138252151Y-117053882D01*
X136267087Y-117053882D01*
X136266836Y-116948263D01*
X136090930Y-117288752D01*
X135932620Y-117560947D01*
X135772818Y-117760954D01*
X135600930Y-117899365D01*
X135406364Y-117986773D01*
X135387054Y-117992595D01*
X135167495Y-118056422D01*
X135435880Y-118319575D01*
X135662795Y-118575580D01*
X135826367Y-118841177D01*
X135839813Y-118868938D01*
X135975360Y-119155148D01*
X135975360Y-119863017D01*
X135971809Y-120214077D01*
X135961522Y-120512101D01*
X135945052Y-120750782D01*
X135922951Y-120923816D01*
X135895773Y-121024899D01*
X135871386Y-121049738D01*
X135832351Y-121016369D01*
X135772894Y-120931465D01*
X135738622Y-120872771D01*
X135616694Y-120712855D01*
X135438917Y-120561445D01*
X135412797Y-120543574D01*
X135308575Y-120479189D01*
X135158980Y-120393265D01*
X134978776Y-120293581D01*
X134782728Y-120187918D01*
X134585600Y-120084056D01*
X134402158Y-119989772D01*
X134247167Y-119912848D01*
X134135390Y-119861064D01*
X134081684Y-119842197D01*
X134036978Y-119880153D01*
X133994219Y-119979519D01*
X133959729Y-120118540D01*
X133939832Y-120275463D01*
X133937372Y-120338747D01*
X133939780Y-120486426D01*
X133948210Y-120683379D01*
X133961085Y-120895952D01*
X133967523Y-120982854D01*
X134000014Y-121394822D01*
X133821785Y-121235105D01*
X133689477Y-121108289D01*
X133578837Y-120979613D01*
X133484211Y-120836848D01*
X133399945Y-120667765D01*
X133320386Y-120460134D01*
X133239880Y-120201727D01*
X133152774Y-119880313D01*
X133100851Y-119675640D01*
X133043830Y-119469884D01*
X132979050Y-119271286D01*
X132916235Y-119108292D01*
X132883053Y-119038531D01*
X132805697Y-118923307D01*
X132705103Y-118808904D01*
X132597880Y-118709891D01*
X132500634Y-118640840D01*
X132429972Y-118616321D01*
X132410791Y-118624193D01*
X132381824Y-118681656D01*
X132346563Y-118785481D01*
X132337680Y-118816926D01*
X132317629Y-118924260D01*
X132324372Y-119029387D01*
X132361622Y-119164659D01*
X132385489Y-119233319D01*
X132456715Y-119526169D01*
X132474983Y-119839252D01*
X132440966Y-120143611D01*
X132358284Y-120403911D01*
X132296450Y-120525198D01*
X132241990Y-120608357D01*
X132211795Y-120633345D01*
X132171316Y-120601204D01*
X132097649Y-120515118D01*
X132003570Y-120390588D01*
X131954455Y-120321050D01*
X131856873Y-120183780D01*
X131776028Y-120077251D01*
X131723852Y-120016851D01*
X131712325Y-120008754D01*
X131684979Y-120044410D01*
X131639408Y-120137500D01*
X131590017Y-120256504D01*
X131504507Y-120434496D01*
X131386914Y-120591670D01*
X131253290Y-120724946D01*
X131123737Y-120835308D01*
X130976419Y-120947798D01*
X130827128Y-121052014D01*
X130691654Y-121137556D01*
X130585789Y-121194024D01*
X130525324Y-121211017D01*
X130519491Y-121208241D01*
X130508047Y-121160648D01*
X130493939Y-121049781D01*
X130479495Y-120895491D01*
X130473282Y-120814049D01*
X130468431Y-120510564D01*
X130505949Y-120261740D01*
X130592045Y-120047220D01*
X130732933Y-119846644D01*
X130786960Y-119785989D01*
X130978639Y-119579851D01*
X130853721Y-119607425D01*
X130565099Y-119653762D01*
X130285210Y-119666855D01*
X130031440Y-119648004D01*
X129821178Y-119598510D01*
X129671812Y-119519672D01*
X129670936Y-119518949D01*
X129627868Y-119479113D01*
X129618496Y-119443495D01*
X129651299Y-119395914D01*
X129734756Y-119320191D01*
X129807036Y-119259246D01*
X130152071Y-118968308D01*
X130437651Y-118723929D01*
X130669417Y-118520728D01*
X130853010Y-118353320D01*
X130994070Y-118216323D01*
X131098236Y-118104355D01*
X131171150Y-118012031D01*
X131218451Y-117933970D01*
X131235152Y-117896314D01*
X131297618Y-117641111D01*
X131314154Y-117323294D01*
X131285044Y-116949526D01*
X131210572Y-116526473D01*
X131169246Y-116349370D01*
X131091030Y-115992928D01*
X131050702Y-115695548D01*
X131048407Y-115442053D01*
X131084294Y-115217270D01*
X131158509Y-115006022D01*
X131182778Y-114954141D01*
X131285365Y-114781363D01*
X131420264Y-114604083D01*
X131566845Y-114446062D01*
X131704482Y-114331059D01*
X131745425Y-114306060D01*
X131784097Y-114291761D01*
X131792033Y-114312555D01*
X131765903Y-114378991D01*
X131702382Y-114501619D01*
X131658293Y-114582340D01*
X131569397Y-114750553D01*
X131516227Y-114875700D01*
X131490439Y-114985379D01*
X131483686Y-115107183D01*
X131484276Y-115157771D01*
X131509305Y-115365152D01*
X131569450Y-115591587D01*
X131654171Y-115807606D01*
X131752930Y-115983739D01*
X131801408Y-116044586D01*
X131899975Y-116123944D01*
X132053966Y-116218696D01*
X132240066Y-116317116D01*
X132434959Y-116407477D01*
X132615332Y-116478052D01*
X132729920Y-116511594D01*
X132965029Y-116533867D01*
X133157225Y-116512108D01*
X133327815Y-116463204D01*
X133476295Y-116377232D01*
X133617593Y-116241803D01*
X133766638Y-116044528D01*
X133822417Y-115960099D01*
X133903418Y-115840165D01*
X133968660Y-115754137D01*
X134004265Y-115720286D01*
X134004593Y-115720266D01*
X134031837Y-115755834D01*
X134059398Y-115842392D01*
X134060443Y-115847062D01*
X134105445Y-115950834D01*
X134189166Y-116074173D01*
X134244681Y-116138538D01*
X134339009Y-116230459D01*
X134422265Y-116286309D01*
X134504704Y-116301928D01*
X134596580Y-116273160D01*
X134708147Y-116195847D01*
X134849661Y-116065832D01*
X135031376Y-115878956D01*
X135121754Y-115782937D01*
X135282039Y-115613438D01*
X135423297Y-115467096D01*
X135535512Y-115354046D01*
X135608666Y-115284425D01*
X135631836Y-115266811D01*
X135656202Y-115297956D01*
X135663258Y-115355558D01*
X135678878Y-115442547D01*
X135719297Y-115574438D01*
X135766368Y-115699082D01*
X135821572Y-115855948D01*
X135858955Y-116005909D01*
X135869359Y-116094656D01*
X135842099Y-116265629D01*
X135771397Y-116448131D01*
X135674104Y-116603306D01*
X135627307Y-116652831D01*
X135562585Y-116720310D01*
X135538147Y-116763679D01*
X135575914Y-116794311D01*
X135673988Y-116817771D01*
X135809529Y-116831549D01*
X135959694Y-116833136D01*
X136080266Y-116823234D01*
X136287655Y-116794710D01*
X136287655Y-115472793D01*
X136754887Y-115461020D01*
X137022432Y-115454278D01*
X137953229Y-115454278D01*
X137992904Y-115458828D01*
X138104070Y-115462865D01*
X138274942Y-115466188D01*
X138493733Y-115468599D01*
X138748658Y-115469897D01*
X138884734Y-115470066D01*
X139816239Y-115470066D01*
X142283721Y-115470066D01*
X144105100Y-115470066D01*
X144069274Y-115272279D01*
X144001720Y-114994802D01*
X143912294Y-114793142D01*
X143798531Y-114662131D01*
X143768176Y-114641147D01*
X143518039Y-114533971D01*
X143238214Y-114497157D01*
X142943389Y-114530595D01*
X142648254Y-114634178D01*
X142616836Y-114649630D01*
X142443363Y-114773884D01*
X142334957Y-114941945D01*
X142287082Y-115162010D01*
X142283786Y-115251459D01*
X142283721Y-115470066D01*
X139816239Y-115470066D01*
X139844564Y-115182618D01*
X139895727Y-114829614D01*
X139976371Y-114477507D01*
X140078887Y-114154977D01*
X140178746Y-113923113D01*
X140319124Y-113646159D01*
X140211838Y-113485900D01*
X140108288Y-113342919D01*
X139967152Y-113163450D01*
X139807118Y-112969789D01*
X139646873Y-112784235D01*
X139505103Y-112629084D01*
X139431933Y-112555312D01*
X139279029Y-112409574D01*
X139305883Y-112576132D01*
X139331396Y-112725100D01*
X139362383Y-112894137D01*
X139371672Y-112942525D01*
X139407366Y-113229196D01*
X139390356Y-113467584D01*
X139323613Y-113666428D01*
X139265876Y-113771573D01*
X139217177Y-113836273D01*
X139200695Y-113846132D01*
X139159362Y-113814538D01*
X139089629Y-113732819D01*
X139027567Y-113648345D01*
X138890363Y-113450558D01*
X138866494Y-113596295D01*
X138857742Y-113704528D01*
X138855093Y-113866761D01*
X138858811Y-114053921D01*
X138861769Y-114122034D01*
X138868606Y-114377431D01*
X138858662Y-114557467D01*
X138830877Y-114668563D01*
X138784192Y-114717138D01*
X138762938Y-114720558D01*
X138642605Y-114682092D01*
X138518443Y-114575405D01*
X138404734Y-114413557D01*
X138383331Y-114373410D01*
X138322678Y-114264920D01*
X138277645Y-114217604D01*
X138244619Y-114236249D01*
X138219992Y-114325645D01*
X138200151Y-114490582D01*
X138188773Y-114631464D01*
X138150333Y-114922923D01*
X138078878Y-115161402D01*
X138058277Y-115209036D01*
X138002796Y-115332619D01*
X137964726Y-115422007D01*
X137953229Y-115454278D01*
X137022432Y-115454278D01*
X137222119Y-115449246D01*
X137396958Y-115012033D01*
X137467371Y-114832264D01*
X137524853Y-114678510D01*
X137562906Y-114568618D01*
X137575137Y-114522771D01*
X137561556Y-114480037D01*
X137506979Y-114480268D01*
X137402850Y-114525894D01*
X137245360Y-114616459D01*
X137120621Y-114690075D01*
X137025057Y-114742469D01*
X136979668Y-114762197D01*
X136966891Y-114724098D01*
X136957668Y-114623929D01*
X136953896Y-114482882D01*
X136953885Y-114474233D01*
X136956053Y-114320747D01*
X136969962Y-114221826D01*
X137006719Y-114148756D01*
X137077431Y-114072826D01*
X137127046Y-114026610D01*
X137232452Y-113927547D01*
X137374619Y-113791419D01*
X137531139Y-113639764D01*
X137621351Y-113551521D01*
X137767078Y-113415039D01*
X137905271Y-113297253D01*
X138017302Y-113213453D01*
X138070078Y-113183244D01*
X138178779Y-113099915D01*
X138258445Y-112969929D01*
X138286344Y-112840574D01*
X138255390Y-112803328D01*
X138179604Y-112804081D01*
X138084604Y-112836420D01*
X137996004Y-112893929D01*
X137970524Y-112919656D01*
X137758026Y-113167388D01*
X137587874Y-113362785D01*
X137448257Y-113516777D01*
X137327364Y-113640295D01*
X137213386Y-113744269D01*
X137094512Y-113839629D01*
X136958931Y-113937305D01*
X136794834Y-114048228D01*
X136641590Y-114149560D01*
X136017000Y-114561583D01*
X135205032Y-114540540D01*
X134821926Y-114527463D01*
X134508771Y-114508300D01*
X134252304Y-114480303D01*
X134039266Y-114440723D01*
X133856393Y-114386814D01*
X133690426Y-114315828D01*
X133528102Y-114225016D01*
X133453833Y-114177687D01*
X133206367Y-113989731D01*
X132990841Y-113767774D01*
X132800981Y-113501761D01*
X132630512Y-113181634D01*
X132473160Y-112797335D01*
X132337714Y-112388754D01*
X132256943Y-112137686D01*
X132163939Y-111871159D01*
X132070277Y-111621211D01*
X131988517Y-111422120D01*
X131908020Y-111242438D01*
X131842881Y-111116146D01*
X131775363Y-111021429D01*
X131687728Y-110936474D01*
X131562241Y-110839465D01*
X131446803Y-110755890D01*
X131328338Y-110667789D01*
X131221122Y-110579934D01*
X131115720Y-110482226D01*
X131002695Y-110364563D01*
X130872614Y-110216845D01*
X130716039Y-110028970D01*
X130523537Y-109790838D01*
X130395237Y-109630148D01*
X130213258Y-109400804D01*
X130050668Y-109194344D01*
X129914013Y-109019208D01*
X129809839Y-108883834D01*
X129744692Y-108796663D01*
X129725069Y-108766132D01*
X129770350Y-108775137D01*
X129879479Y-108799555D01*
X130035295Y-108835483D01*
X130191870Y-108872218D01*
X130435325Y-108924847D01*
X130621965Y-108952531D01*
X130773582Y-108957822D01*
X130861791Y-108950699D01*
X130984466Y-108930751D01*
X131064692Y-108908843D01*
X131082737Y-108895825D01*
X131072338Y-108845144D01*
X131044872Y-108736355D01*
X131005934Y-108591485D01*
X130999459Y-108568035D01*
X130948321Y-108368183D01*
X130924060Y-108212965D01*
X130926820Y-108070311D01*
X130956747Y-107908151D01*
X131003228Y-107732536D01*
X131051208Y-107541392D01*
X131069118Y-107400766D01*
X131057623Y-107283773D01*
X131017388Y-107163533D01*
X131017304Y-107163331D01*
X131008260Y-107123289D01*
X131039782Y-107130528D01*
X131121825Y-107188476D01*
X131147277Y-107208085D01*
X131260087Y-107289050D01*
X131416776Y-107393057D01*
X131589092Y-107501529D01*
X131644868Y-107535315D01*
X131822918Y-107649515D01*
X132000014Y-107775666D01*
X132144453Y-107890874D01*
X132173986Y-107917364D01*
X132281280Y-108011789D01*
X132367497Y-108077739D01*
X132410660Y-108099902D01*
X132449679Y-108068108D01*
X132525749Y-107981566D01*
X132627857Y-107853533D01*
X132743727Y-107698998D01*
X133036122Y-107298095D01*
X133145142Y-107542851D01*
X133259177Y-107803007D01*
X133343156Y-108007329D01*
X133403345Y-108174924D01*
X133446007Y-108324901D01*
X133477406Y-108476367D01*
X133501031Y-108628450D01*
X133527280Y-108853847D01*
X133533200Y-109032023D01*
X133519020Y-109196459D01*
X133505450Y-109278661D01*
X133466908Y-109512982D01*
X133453866Y-109689017D01*
X133470472Y-109828973D01*
X133520875Y-109955059D01*
X133609225Y-110089484D01*
X133672102Y-110170759D01*
X133888025Y-110442112D01*
X134033597Y-110051745D01*
X134129864Y-109746611D01*
X134185573Y-109444941D01*
X134201840Y-109126745D01*
X134179782Y-108772032D01*
X134126170Y-108393742D01*
X134086409Y-108118927D01*
X134059143Y-107845151D01*
X134045015Y-107589505D01*
X134044667Y-107369078D01*
X134058741Y-107200963D01*
X134078376Y-107121377D01*
X134082987Y-107007669D01*
X134049418Y-106915581D01*
X134009570Y-106818084D01*
X133959091Y-106667913D01*
X133907281Y-106493253D01*
X133894136Y-106445043D01*
X133849138Y-106266781D01*
X133826763Y-106139498D01*
X133825072Y-106034600D01*
X133842130Y-105923491D01*
X133854906Y-105865995D01*
X133908610Y-105634968D01*
X133734444Y-105653209D01*
X133594243Y-105651665D01*
X133447634Y-105610438D01*
X133330409Y-105557442D01*
X133209938Y-105494245D01*
X133133548Y-105436267D01*
X133081757Y-105359224D01*
X133035082Y-105238831D01*
X133007704Y-105155189D01*
X132970822Y-105015810D01*
X132940746Y-104856935D01*
X132919673Y-104699032D01*
X132909798Y-104562571D01*
X132913317Y-104468020D01*
X132930507Y-104435640D01*
X132973652Y-104451237D01*
X133070954Y-104491970D01*
X133190753Y-104544343D01*
X133360821Y-104604618D01*
X133537288Y-104631981D01*
X133734750Y-104625193D01*
X133967801Y-104583015D01*
X134251033Y-104504206D01*
X134457028Y-104436819D01*
X134694406Y-104358186D01*
X134870864Y-104306752D01*
X135003286Y-104280017D01*
X135108555Y-104275483D01*
X135203555Y-104290649D01*
X135281867Y-104314715D01*
X135391039Y-104337733D01*
X135509798Y-104323467D01*
X135607793Y-104293895D01*
X135763743Y-104249354D01*
X135907461Y-104232455D01*
X136063496Y-104244255D01*
X136256396Y-104285809D01*
X136410243Y-104328421D01*
X136595664Y-104387225D01*
X136729491Y-104446191D01*
X136841731Y-104522100D01*
X136962395Y-104631731D01*
X136975185Y-104644311D01*
X137084403Y-104758780D01*
X137161638Y-104862762D01*
X137221875Y-104982882D01*
X137280101Y-105145768D01*
X137308574Y-105236639D01*
X137360791Y-105412213D01*
X137392019Y-105544111D01*
X137404805Y-105661710D01*
X137401698Y-105794390D01*
X137385245Y-105971529D01*
X137378070Y-106037897D01*
X137309252Y-106456779D01*
X137201559Y-106822012D01*
X137058009Y-107125576D01*
X136881620Y-107359451D01*
X136880296Y-107360804D01*
X136786781Y-107459865D01*
X136726703Y-107530820D01*
X136712816Y-107558580D01*
X136713088Y-107558591D01*
X136760496Y-107544321D01*
X136868420Y-107505655D01*
X137019926Y-107448801D01*
X137167202Y-107392033D01*
X137342550Y-107324718D01*
X137488912Y-107270444D01*
X137589168Y-107235437D01*
X137625098Y-107225476D01*
X137628847Y-107262481D01*
X137612922Y-107361396D01*
X137580584Y-107504075D01*
X137562391Y-107574560D01*
X137491849Y-107791716D01*
X137399282Y-107977097D01*
X137272778Y-108144989D01*
X137100422Y-108309675D01*
X136870301Y-108485441D01*
X136712562Y-108593500D01*
X136466288Y-108763285D01*
X136228216Y-108937739D01*
X136008024Y-109108760D01*
X135815389Y-109268251D01*
X135659988Y-109408111D01*
X135551498Y-109520242D01*
X135499597Y-109596544D01*
X135496508Y-109611278D01*
X135530116Y-109608318D01*
X135620545Y-109571123D01*
X135752203Y-109506587D01*
X135846442Y-109456553D01*
X135998649Y-109374535D01*
X136121376Y-109310191D01*
X136197775Y-109272259D01*
X136214212Y-109265804D01*
X136220923Y-109303270D01*
X136219395Y-109399814D01*
X136213362Y-109491136D01*
X136214868Y-109629621D01*
X136236060Y-109781785D01*
X136271060Y-109925099D01*
X136313992Y-110037035D01*
X136358979Y-110095062D01*
X136371802Y-110098591D01*
X136414743Y-110067466D01*
X136468626Y-109998425D01*
X136559432Y-109918909D01*
X136714370Y-109844350D01*
X136914304Y-109780992D01*
X137140098Y-109735080D01*
X137339049Y-109714382D01*
X137479681Y-109709970D01*
X137580486Y-109713008D01*
X137620093Y-109722830D01*
X137620114Y-109723127D01*
X137601436Y-109796434D01*
X137552215Y-109921188D01*
X137482668Y-110076213D01*
X137403017Y-110240334D01*
X137323478Y-110392378D01*
X137254272Y-110511170D01*
X137211442Y-110569932D01*
X137117947Y-110646416D01*
X136977296Y-110737054D01*
X136818820Y-110823057D01*
X136808147Y-110828258D01*
X136668578Y-110897938D01*
X136596384Y-110941727D01*
X136594636Y-110961561D01*
X136666403Y-110959375D01*
X136814753Y-110937105D01*
X136944735Y-110914382D01*
X137139949Y-110886920D01*
X137298870Y-110878978D01*
X137407171Y-110890233D01*
X137450525Y-110920360D01*
X137450625Y-110925822D01*
X137428545Y-110971846D01*
X137373361Y-111067578D01*
X137296863Y-111192587D01*
X137294298Y-111196679D01*
X137120296Y-111410346D01*
X136884484Y-111591450D01*
X136581323Y-111743169D01*
X136205275Y-111868681D01*
X136057260Y-111906565D01*
X135743806Y-111983725D01*
X135502395Y-112049042D01*
X135323295Y-112106425D01*
X135196772Y-112159784D01*
X135113094Y-112213027D01*
X135062529Y-112270065D01*
X135041556Y-112314535D01*
X135014598Y-112406495D01*
X135009566Y-112456543D01*
X135010467Y-112457905D01*
X135055707Y-112467899D01*
X135162406Y-112481462D01*
X135308977Y-112495918D01*
X135334553Y-112498123D01*
X135698780Y-112487494D01*
X136074531Y-112395917D01*
X136459506Y-112224569D01*
X136851401Y-111974624D01*
X137247916Y-111647257D01*
X137516016Y-111384154D01*
X137691708Y-111194793D01*
X137869619Y-110992877D01*
X138029941Y-110801490D01*
X138152865Y-110643719D01*
X138161426Y-110631945D01*
X138272505Y-110487267D01*
X138389660Y-110357663D01*
X138529322Y-110227717D01*
X138707921Y-110082016D01*
X138914452Y-109925476D01*
X139100476Y-109788166D01*
X139267762Y-109666157D01*
X139402726Y-109569245D01*
X139491784Y-109507228D01*
X139515727Y-109491856D01*
X139552757Y-109461956D01*
X139545205Y-109427377D01*
X139483559Y-109373552D01*
X139399826Y-109314350D01*
X139289105Y-109234363D01*
X139208402Y-109169028D01*
X139182173Y-109141829D01*
X139196364Y-109096726D01*
X139272063Y-109041901D01*
X139389469Y-108985648D01*
X139528785Y-108936262D01*
X139670211Y-108902038D01*
X139780781Y-108891050D01*
X139933533Y-108878714D01*
X140048384Y-108832129D01*
X140123228Y-108776541D01*
X140196587Y-108720733D01*
X140269737Y-108686292D01*
X140365811Y-108667748D01*
X140507942Y-108659631D01*
X140626769Y-108657467D01*
X140827027Y-108650417D01*
X140960487Y-108633447D01*
X141043307Y-108603916D01*
X141069023Y-108585231D01*
X141177932Y-108533663D01*
X141337362Y-108514831D01*
X141521062Y-108529197D01*
X141694757Y-108574236D01*
X141809613Y-108612302D01*
X141883368Y-108616835D01*
X141952221Y-108585281D01*
X141999562Y-108552725D01*
X142085426Y-108502185D01*
X142175107Y-108482243D01*
X142301683Y-108487516D01*
X142359509Y-108494159D01*
X142518672Y-108511149D01*
X142675091Y-108520661D01*
X142855765Y-108523583D01*
X143087695Y-108520805D01*
X143137328Y-108519760D01*
X143349661Y-108540944D01*
X143566618Y-108604860D01*
X143705323Y-108655487D01*
X143805884Y-108672131D01*
X143904381Y-108658571D01*
X143952224Y-108645255D01*
X144156634Y-108616459D01*
X144373158Y-108653589D01*
X144616131Y-108759350D01*
X144646754Y-108776224D01*
X144779674Y-108860258D01*
X144847858Y-108930757D01*
X144865360Y-108994737D01*
X144877422Y-109083379D01*
X144908883Y-109219834D01*
X144948214Y-109358724D01*
X144985424Y-109470150D01*
X145026655Y-109561267D01*
X145083674Y-109647313D01*
X145168247Y-109743524D01*
X145292139Y-109865140D01*
X145458296Y-110019297D01*
X145816416Y-110345229D01*
X146124368Y-110618107D01*
X146390615Y-110844016D01*
X146623623Y-111029043D01*
X146831855Y-111179273D01*
X147023778Y-111300791D01*
X147207854Y-111399685D01*
X147392549Y-111482038D01*
X147586327Y-111553937D01*
X147598635Y-111558121D01*
X147859845Y-111636470D01*
X148136943Y-111702195D01*
X148415995Y-111753756D01*
X148683068Y-111789611D01*
X148924228Y-111808221D01*
X149125541Y-111808045D01*
X149273074Y-111787543D01*
X149347349Y-111751465D01*
X149324621Y-111724887D01*
X149246779Y-111676266D01*
X149135263Y-111616343D01*
X149011512Y-111555864D01*
X148896965Y-111505572D01*
X148813062Y-111476211D01*
X148791041Y-111472689D01*
X148720721Y-111459188D01*
X148589048Y-111422446D01*
X148412777Y-111368106D01*
X148208665Y-111301811D01*
X147993468Y-111229202D01*
X147783941Y-111155924D01*
X147596842Y-111087618D01*
X147448925Y-111029928D01*
X147363721Y-110992037D01*
X147238884Y-110912632D01*
X147090821Y-110795821D01*
X146951325Y-110666714D01*
X146949754Y-110665112D01*
X146723163Y-110433738D01*
X146928934Y-110455296D01*
X147191383Y-110445223D01*
X147375333Y-110399362D01*
X147485844Y-110362595D01*
X147551019Y-110330537D01*
X147566632Y-110293247D01*
X147528455Y-110240785D01*
X147432262Y-110163212D01*
X147273826Y-110050587D01*
X147207242Y-110004090D01*
X147061772Y-109886754D01*
X146897502Y-109730184D01*
X146743893Y-109563016D01*
X146704742Y-109515640D01*
X146590690Y-109370496D01*
X146524734Y-109276873D01*
X146500851Y-109222994D01*
X146513019Y-109197081D01*
X146537972Y-109189563D01*
X146633244Y-109192121D01*
X146788311Y-109216353D01*
X146983858Y-109257916D01*
X147200572Y-109312465D01*
X147419136Y-109375656D01*
X147540629Y-109415062D01*
X147687765Y-109463643D01*
X147804064Y-109499336D01*
X147867250Y-109515354D01*
X147870686Y-109515640D01*
X147893947Y-109478561D01*
X147903452Y-109383095D01*
X147899735Y-109252899D01*
X147883330Y-109111630D01*
X147858993Y-108997551D01*
X147795846Y-108857074D01*
X147701261Y-108729301D01*
X147687772Y-108716026D01*
X147562127Y-108598655D01*
X147691940Y-108553402D01*
X147779647Y-108515351D01*
X147819478Y-108483247D01*
X147819712Y-108480993D01*
X147785888Y-108448547D01*
X147696566Y-108383358D01*
X147567166Y-108296338D01*
X147476187Y-108237861D01*
X147221224Y-108069603D01*
X147018204Y-107915691D01*
X146843882Y-107754667D01*
X146675013Y-107565073D01*
X146489690Y-107327241D01*
X146302773Y-107072627D01*
X146167822Y-106877336D01*
X146082487Y-106737562D01*
X146044418Y-106649500D01*
X146047989Y-106611918D01*
X146096321Y-106612504D01*
X146206656Y-106634796D01*
X146361776Y-106674825D01*
X146516063Y-106719855D01*
X146694180Y-106772919D01*
X146840315Y-106813706D01*
X146937868Y-106837762D01*
X146970247Y-106841682D01*
X146953870Y-106803879D01*
X146899952Y-106708736D01*
X146816018Y-106568943D01*
X146709597Y-106397190D01*
X146659033Y-106317043D01*
X146485290Y-106032482D01*
X146358548Y-105795409D01*
X146273164Y-105588781D01*
X146223494Y-105395558D01*
X146203892Y-105198699D01*
X146208716Y-104981163D01*
X146210052Y-104961452D01*
X146228765Y-104778778D01*
X146256045Y-104610798D01*
X146286656Y-104488374D01*
X146293331Y-104470588D01*
X146371955Y-104345206D01*
X146503947Y-104197995D01*
X146669491Y-104046860D01*
X146848767Y-103909710D01*
X147021958Y-103804452D01*
X147041026Y-103794991D01*
X147265652Y-103706330D01*
X147503789Y-103645286D01*
X147730143Y-103616159D01*
X147919423Y-103623249D01*
X147975603Y-103636098D01*
X148089016Y-103662132D01*
X148160501Y-103649815D01*
X148196163Y-103623984D01*
X148278000Y-103568502D01*
X148393306Y-103509780D01*
X148412455Y-103501532D01*
X148513854Y-103466827D01*
X148607334Y-103460718D01*
X148729768Y-103482745D01*
X148785685Y-103496859D01*
X148956636Y-103550183D01*
X149145012Y-103621507D01*
X149237491Y-103661820D01*
X149515485Y-103751528D01*
X149791219Y-103765423D01*
X150051861Y-103705095D01*
X150284582Y-103572135D01*
X150339614Y-103525236D01*
X150444228Y-103434096D01*
X150526861Y-103371666D01*
X150564068Y-103353017D01*
X150583274Y-103391556D01*
G36*
X134311574Y-120275696D02*
G01*
X134417347Y-120315518D01*
X134563885Y-120383806D01*
X134736274Y-120472701D01*
X134919600Y-120574345D01*
X135098950Y-120680879D01*
X135259410Y-120784443D01*
X135335175Y-120838003D01*
X135484419Y-120956935D01*
X135622571Y-121081990D01*
X135722385Y-121188307D01*
X135730748Y-121198962D01*
X135800106Y-121302434D01*
X135834894Y-121400348D01*
X135844982Y-121528438D01*
X135844005Y-121608966D01*
X135831666Y-121746824D01*
X135802629Y-121940611D01*
X135761096Y-122165641D01*
X135711270Y-122397230D01*
X135705894Y-122420219D01*
X135620505Y-122807947D01*
X135563279Y-123132046D01*
X135532563Y-123406645D01*
X135526701Y-123645873D01*
X135540328Y-123834524D01*
X135588440Y-124092276D01*
X135674057Y-124321152D01*
X135809890Y-124550563D01*
X135906997Y-124682955D01*
X136001303Y-124807534D01*
X136050527Y-124885752D01*
X136061147Y-124936650D01*
X136039637Y-124979266D01*
X136016787Y-125005711D01*
X135937381Y-125069753D01*
X135813654Y-125145547D01*
X135721603Y-125192904D01*
X135445491Y-125278011D01*
X135137472Y-125289160D01*
X134901794Y-125251499D01*
X134630759Y-125146788D01*
X134403525Y-124975212D01*
X134230134Y-124746033D01*
X134145274Y-124553601D01*
X134098247Y-124429379D01*
X134053909Y-124340451D01*
X134032563Y-124314368D01*
X133978756Y-124323708D01*
X133897347Y-124379145D01*
X133874844Y-124399530D01*
X133711739Y-124510154D01*
X133488472Y-124584225D01*
X133198840Y-124623316D01*
X132963451Y-124630722D01*
X132567237Y-124630722D01*
X132658396Y-124533688D01*
X132713574Y-124446788D01*
X132764435Y-124303203D01*
X132814735Y-124091508D01*
X132831202Y-124008167D01*
X132884457Y-123770938D01*
X132945782Y-123566382D01*
X133007984Y-123418015D01*
X133016251Y-123403239D01*
X133119653Y-123226797D01*
X133009513Y-123176614D01*
X132767980Y-123020882D01*
X132560032Y-122789352D01*
X132439849Y-122592194D01*
X132262907Y-122317537D01*
X132061546Y-122118993D01*
X131838152Y-121998777D01*
X131782900Y-121982180D01*
X131603229Y-121935867D01*
X131811426Y-121842323D01*
X131975792Y-121785152D01*
X132168304Y-121741315D01*
X132275052Y-121727059D01*
X132425111Y-121718713D01*
X132528901Y-121730899D01*
X132622572Y-121772195D01*
X132713194Y-121831049D01*
X132837814Y-121902990D01*
X133010984Y-121985369D01*
X133201753Y-122063836D01*
X133266724Y-122087640D01*
X133550402Y-122170008D01*
X133785042Y-122196946D01*
X133983263Y-122169004D01*
X134094720Y-122123679D01*
X134195668Y-122025861D01*
X134268919Y-121855589D01*
X134313652Y-121619233D01*
X134329051Y-121323159D01*
X134314296Y-120973736D01*
X134281534Y-120669786D01*
X134262749Y-120502740D01*
X134254068Y-120368112D01*
X134256519Y-120286300D01*
X134261478Y-120272200D01*
X134311574Y-120275696D01*
G37*
X134311574Y-120275696D02*
X134417347Y-120315518D01*
X134563885Y-120383806D01*
X134736274Y-120472701D01*
X134919600Y-120574345D01*
X135098950Y-120680879D01*
X135259410Y-120784443D01*
X135335175Y-120838003D01*
X135484419Y-120956935D01*
X135622571Y-121081990D01*
X135722385Y-121188307D01*
X135730748Y-121198962D01*
X135800106Y-121302434D01*
X135834894Y-121400348D01*
X135844982Y-121528438D01*
X135844005Y-121608966D01*
X135831666Y-121746824D01*
X135802629Y-121940611D01*
X135761096Y-122165641D01*
X135711270Y-122397230D01*
X135705894Y-122420219D01*
X135620505Y-122807947D01*
X135563279Y-123132046D01*
X135532563Y-123406645D01*
X135526701Y-123645873D01*
X135540328Y-123834524D01*
X135588440Y-124092276D01*
X135674057Y-124321152D01*
X135809890Y-124550563D01*
X135906997Y-124682955D01*
X136001303Y-124807534D01*
X136050527Y-124885752D01*
X136061147Y-124936650D01*
X136039637Y-124979266D01*
X136016787Y-125005711D01*
X135937381Y-125069753D01*
X135813654Y-125145547D01*
X135721603Y-125192904D01*
X135445491Y-125278011D01*
X135137472Y-125289160D01*
X134901794Y-125251499D01*
X134630759Y-125146788D01*
X134403525Y-124975212D01*
X134230134Y-124746033D01*
X134145274Y-124553601D01*
X134098247Y-124429379D01*
X134053909Y-124340451D01*
X134032563Y-124314368D01*
X133978756Y-124323708D01*
X133897347Y-124379145D01*
X133874844Y-124399530D01*
X133711739Y-124510154D01*
X133488472Y-124584225D01*
X133198840Y-124623316D01*
X132963451Y-124630722D01*
X132567237Y-124630722D01*
X132658396Y-124533688D01*
X132713574Y-124446788D01*
X132764435Y-124303203D01*
X132814735Y-124091508D01*
X132831202Y-124008167D01*
X132884457Y-123770938D01*
X132945782Y-123566382D01*
X133007984Y-123418015D01*
X133016251Y-123403239D01*
X133119653Y-123226797D01*
X133009513Y-123176614D01*
X132767980Y-123020882D01*
X132560032Y-122789352D01*
X132439849Y-122592194D01*
X132262907Y-122317537D01*
X132061546Y-122118993D01*
X131838152Y-121998777D01*
X131782900Y-121982180D01*
X131603229Y-121935867D01*
X131811426Y-121842323D01*
X131975792Y-121785152D01*
X132168304Y-121741315D01*
X132275052Y-121727059D01*
X132425111Y-121718713D01*
X132528901Y-121730899D01*
X132622572Y-121772195D01*
X132713194Y-121831049D01*
X132837814Y-121902990D01*
X133010984Y-121985369D01*
X133201753Y-122063836D01*
X133266724Y-122087640D01*
X133550402Y-122170008D01*
X133785042Y-122196946D01*
X133983263Y-122169004D01*
X134094720Y-122123679D01*
X134195668Y-122025861D01*
X134268919Y-121855589D01*
X134313652Y-121619233D01*
X134329051Y-121323159D01*
X134314296Y-120973736D01*
X134281534Y-120669786D01*
X134262749Y-120502740D01*
X134254068Y-120368112D01*
X134256519Y-120286300D01*
X134261478Y-120272200D01*
X134311574Y-120275696D01*
G36*
X150378043Y-119627929D02*
G01*
X150387968Y-119702125D01*
X150403398Y-119844801D01*
X150422903Y-120041447D01*
X150445052Y-120277553D01*
X150468413Y-120538609D01*
X150472543Y-120586045D01*
X150546042Y-121433992D01*
X150742597Y-121410713D01*
X150855753Y-121384865D01*
X151022639Y-121331121D01*
X151221649Y-121257079D01*
X151431179Y-121170339D01*
X151452010Y-121161201D01*
X151674261Y-121068192D01*
X151900710Y-120981999D01*
X152104901Y-120912203D01*
X152260375Y-120868387D01*
X152260889Y-120868271D01*
X152432354Y-120834121D01*
X152618161Y-120804296D01*
X152800374Y-120780722D01*
X152961060Y-120765322D01*
X153082284Y-120760021D01*
X153146112Y-120766745D01*
X153151590Y-120772678D01*
X153119571Y-120807412D01*
X153035845Y-120872508D01*
X152925019Y-120949486D01*
X152757112Y-121091770D01*
X152583158Y-121291871D01*
X152419338Y-121527350D01*
X152281830Y-121775765D01*
X152212905Y-121937107D01*
X152133510Y-122088595D01*
X152013543Y-122200414D01*
X151835533Y-122286567D01*
X151735852Y-122319491D01*
X151619030Y-122362941D01*
X151569901Y-122412261D01*
X151587137Y-122482034D01*
X151669409Y-122586843D01*
X151707701Y-122628503D01*
X151836351Y-122790263D01*
X151928495Y-122971944D01*
X151977936Y-123115590D01*
X152053973Y-123316392D01*
X152150344Y-123502074D01*
X152211636Y-123591751D01*
X152287790Y-123693719D01*
X152333754Y-123766605D01*
X152340585Y-123790033D01*
X152295756Y-123787343D01*
X152194922Y-123764634D01*
X152082464Y-123733371D01*
X151838042Y-123684242D01*
X151555253Y-123666188D01*
X151510497Y-123666479D01*
X151335287Y-123666056D01*
X151213013Y-123653385D01*
X151113512Y-123621730D01*
X151006623Y-123564354D01*
X150979595Y-123547903D01*
X150778147Y-123423950D01*
X150778147Y-123542270D01*
X150792522Y-123668875D01*
X150824616Y-123793889D01*
X150848410Y-123901693D01*
X150834184Y-124012386D01*
X150801093Y-124110457D01*
X150678570Y-124322797D01*
X150496894Y-124479978D01*
X150260604Y-124580497D01*
X149974235Y-124622853D01*
X149642326Y-124605541D01*
X149424868Y-124566261D01*
X149199506Y-124534150D01*
X148977102Y-124532722D01*
X148946016Y-124535602D01*
X148717000Y-124560871D01*
X148952994Y-124335550D01*
X149084162Y-124201965D01*
X149171074Y-124084508D01*
X149235180Y-123948566D01*
X149286108Y-123797935D01*
X149335584Y-123612437D01*
X149366495Y-123424371D01*
X149378265Y-123221409D01*
X149370320Y-122991225D01*
X149342085Y-122721492D01*
X149292983Y-122399883D01*
X149222440Y-122014071D01*
X149196725Y-121882525D01*
X149122503Y-121492569D01*
X149068984Y-121175255D01*
X149035447Y-120922749D01*
X149021170Y-120727219D01*
X149025433Y-120580830D01*
X149047513Y-120475749D01*
X149063746Y-120438579D01*
X149118945Y-120383751D01*
X149231847Y-120303848D01*
X149385249Y-120210191D01*
X149538014Y-120126464D01*
X149765092Y-119998402D01*
X149969750Y-119864744D01*
X150127913Y-119741549D01*
X150160496Y-119711208D01*
X150357043Y-119517759D01*
X150378043Y-119627929D01*
G37*
X150378043Y-119627929D02*
X150387968Y-119702125D01*
X150403398Y-119844801D01*
X150422903Y-120041447D01*
X150445052Y-120277553D01*
X150468413Y-120538609D01*
X150472543Y-120586045D01*
X150546042Y-121433992D01*
X150742597Y-121410713D01*
X150855753Y-121384865D01*
X151022639Y-121331121D01*
X151221649Y-121257079D01*
X151431179Y-121170339D01*
X151452010Y-121161201D01*
X151674261Y-121068192D01*
X151900710Y-120981999D01*
X152104901Y-120912203D01*
X152260375Y-120868387D01*
X152260889Y-120868271D01*
X152432354Y-120834121D01*
X152618161Y-120804296D01*
X152800374Y-120780722D01*
X152961060Y-120765322D01*
X153082284Y-120760021D01*
X153146112Y-120766745D01*
X153151590Y-120772678D01*
X153119571Y-120807412D01*
X153035845Y-120872508D01*
X152925019Y-120949486D01*
X152757112Y-121091770D01*
X152583158Y-121291871D01*
X152419338Y-121527350D01*
X152281830Y-121775765D01*
X152212905Y-121937107D01*
X152133510Y-122088595D01*
X152013543Y-122200414D01*
X151835533Y-122286567D01*
X151735852Y-122319491D01*
X151619030Y-122362941D01*
X151569901Y-122412261D01*
X151587137Y-122482034D01*
X151669409Y-122586843D01*
X151707701Y-122628503D01*
X151836351Y-122790263D01*
X151928495Y-122971944D01*
X151977936Y-123115590D01*
X152053973Y-123316392D01*
X152150344Y-123502074D01*
X152211636Y-123591751D01*
X152287790Y-123693719D01*
X152333754Y-123766605D01*
X152340585Y-123790033D01*
X152295756Y-123787343D01*
X152194922Y-123764634D01*
X152082464Y-123733371D01*
X151838042Y-123684242D01*
X151555253Y-123666188D01*
X151510497Y-123666479D01*
X151335287Y-123666056D01*
X151213013Y-123653385D01*
X151113512Y-123621730D01*
X151006623Y-123564354D01*
X150979595Y-123547903D01*
X150778147Y-123423950D01*
X150778147Y-123542270D01*
X150792522Y-123668875D01*
X150824616Y-123793889D01*
X150848410Y-123901693D01*
X150834184Y-124012386D01*
X150801093Y-124110457D01*
X150678570Y-124322797D01*
X150496894Y-124479978D01*
X150260604Y-124580497D01*
X149974235Y-124622853D01*
X149642326Y-124605541D01*
X149424868Y-124566261D01*
X149199506Y-124534150D01*
X148977102Y-124532722D01*
X148946016Y-124535602D01*
X148717000Y-124560871D01*
X148952994Y-124335550D01*
X149084162Y-124201965D01*
X149171074Y-124084508D01*
X149235180Y-123948566D01*
X149286108Y-123797935D01*
X149335584Y-123612437D01*
X149366495Y-123424371D01*
X149378265Y-123221409D01*
X149370320Y-122991225D01*
X149342085Y-122721492D01*
X149292983Y-122399883D01*
X149222440Y-122014071D01*
X149196725Y-121882525D01*
X149122503Y-121492569D01*
X149068984Y-121175255D01*
X149035447Y-120922749D01*
X149021170Y-120727219D01*
X149025433Y-120580830D01*
X149047513Y-120475749D01*
X149063746Y-120438579D01*
X149118945Y-120383751D01*
X149231847Y-120303848D01*
X149385249Y-120210191D01*
X149538014Y-120126464D01*
X149765092Y-119998402D01*
X149969750Y-119864744D01*
X150127913Y-119741549D01*
X150160496Y-119711208D01*
X150357043Y-119517759D01*
X150378043Y-119627929D01*
G36*
X152643357Y-113641126D02*
G01*
X152694121Y-113707443D01*
X152762122Y-113819722D01*
X152839308Y-113962784D01*
X152917629Y-114121454D01*
X152989035Y-114280555D01*
X153045475Y-114424910D01*
X153060696Y-114470722D01*
X153135301Y-114742566D01*
X153171354Y-114968616D01*
X153170927Y-115175777D01*
X153136090Y-115390955D01*
X153132677Y-115405891D01*
X153090188Y-115636043D01*
X153073966Y-115863137D01*
X153084669Y-116108801D01*
X153122955Y-116394662D01*
X153170565Y-116650422D01*
X153238456Y-116955577D01*
X153312763Y-117203663D01*
X153403909Y-117407515D01*
X153522318Y-117579967D01*
X153678412Y-117733855D01*
X153882616Y-117882014D01*
X154145352Y-118037279D01*
X154411854Y-118178938D01*
X154590981Y-118274629D01*
X154737580Y-118358906D01*
X154838641Y-118423828D01*
X154881154Y-118461455D01*
X154881270Y-118465432D01*
X154834156Y-118493507D01*
X154728838Y-118536838D01*
X154586858Y-118586676D01*
X154566926Y-118593146D01*
X154359785Y-118649660D01*
X154183357Y-118670849D01*
X154024635Y-118665082D01*
X153882129Y-118656582D01*
X153811991Y-118664789D01*
X153804701Y-118690652D01*
X153842613Y-118749646D01*
X153910774Y-118851888D01*
X153971276Y-118941214D01*
X154048748Y-119065366D01*
X154090363Y-119172228D01*
X154106785Y-119298874D01*
X154108999Y-119420066D01*
X154104332Y-119620607D01*
X154092633Y-119843730D01*
X154081898Y-119980309D01*
X154055093Y-120264159D01*
X153842768Y-120059895D01*
X153659986Y-119909669D01*
X153488396Y-119817084D01*
X153453475Y-119805604D01*
X153346624Y-119769367D01*
X153283605Y-119736342D01*
X153276433Y-119726017D01*
X153250464Y-119683155D01*
X153181645Y-119595902D01*
X153083492Y-119481176D01*
X153056527Y-119450823D01*
X152836697Y-119205186D01*
X152629799Y-119523154D01*
X152536797Y-119662731D01*
X152460542Y-119770938D01*
X152412227Y-119832189D01*
X152402082Y-119840337D01*
X152370720Y-119808073D01*
X152304721Y-119722553D01*
X152216040Y-119599550D01*
X152175409Y-119541237D01*
X151969556Y-119242922D01*
X151974982Y-118907559D01*
X151988882Y-118693359D01*
X152019929Y-118460650D01*
X152059054Y-118269899D01*
X152097424Y-118089201D01*
X152116383Y-117927131D01*
X152115434Y-117801267D01*
X152094079Y-117729189D01*
X152074651Y-117718800D01*
X152014168Y-117746116D01*
X151916159Y-117815910D01*
X151800977Y-117910778D01*
X151688973Y-118013320D01*
X151600499Y-118106133D01*
X151563576Y-118155804D01*
X151526453Y-118250007D01*
X151485526Y-118402371D01*
X151446857Y-118588366D01*
X151426690Y-118709720D01*
X151380751Y-118970567D01*
X151321841Y-119202260D01*
X151241396Y-119428607D01*
X151130849Y-119673415D01*
X150981635Y-119960493D01*
X150967006Y-119987403D01*
X150875174Y-120154393D01*
X150814523Y-120256836D01*
X150776691Y-120303477D01*
X150753316Y-120303062D01*
X150736037Y-120264336D01*
X150728160Y-120237228D01*
X150708404Y-120148445D01*
X150680253Y-119998133D01*
X150647430Y-119807158D01*
X150613661Y-119596382D01*
X150613040Y-119592361D01*
X150579277Y-119373967D01*
X150547211Y-119167596D01*
X150520534Y-118996942D01*
X150503338Y-118888201D01*
X150473885Y-118704533D01*
X150355089Y-118939467D01*
X150264595Y-119088093D01*
X150138630Y-119257412D01*
X150003490Y-119412254D01*
X149995279Y-119420710D01*
X149858177Y-119553283D01*
X149742268Y-119640721D01*
X149616191Y-119702489D01*
X149454649Y-119756250D01*
X149216667Y-119846689D01*
X149040907Y-119965579D01*
X148910502Y-120129724D01*
X148808583Y-120355926D01*
X148786242Y-120422078D01*
X148738547Y-120563693D01*
X148699426Y-120668056D01*
X148676299Y-120715597D01*
X148674564Y-120716623D01*
X148654493Y-120680712D01*
X148625395Y-120591400D01*
X148616989Y-120560476D01*
X148552817Y-120262467D01*
X148506084Y-119937566D01*
X148477495Y-119604483D01*
X148467754Y-119281927D01*
X148477568Y-118988606D01*
X148507641Y-118743231D01*
X148543233Y-118603867D01*
X148619303Y-118428712D01*
X148729997Y-118226644D01*
X148859835Y-118021581D01*
X148993341Y-117837442D01*
X149115036Y-117698145D01*
X149150181Y-117665914D01*
X149229612Y-117595180D01*
X149248562Y-117561753D01*
X149212618Y-117552245D01*
X149197709Y-117552033D01*
X149026291Y-117516580D01*
X148839162Y-117419560D01*
X148655593Y-117274978D01*
X148494858Y-117096843D01*
X148422641Y-116988738D01*
X148374669Y-116885667D01*
X148323876Y-116743216D01*
X148275922Y-116582836D01*
X148236469Y-116425980D01*
X148211177Y-116294099D01*
X148205707Y-116208647D01*
X148211934Y-116190269D01*
X148258560Y-116190906D01*
X148361574Y-116211136D01*
X148483500Y-116242469D01*
X148624430Y-116279763D01*
X148713023Y-116292584D01*
X148776625Y-116280673D01*
X148842581Y-116243767D01*
X148849936Y-116238969D01*
X148963545Y-116164530D01*
X148833239Y-116102818D01*
X148730690Y-116022344D01*
X148626860Y-115891691D01*
X148541059Y-115741367D01*
X148492595Y-115601877D01*
X148487983Y-115557333D01*
X148507039Y-115474126D01*
X148556437Y-115349320D01*
X148610164Y-115239530D01*
X148683964Y-115082364D01*
X148713208Y-114961222D01*
X148708815Y-114865563D01*
X148698803Y-114770171D01*
X148704448Y-114721981D01*
X148707295Y-114720558D01*
X148745161Y-114745733D01*
X148835901Y-114815386D01*
X148968391Y-114920707D01*
X149131508Y-115052884D01*
X149258751Y-115157326D01*
X149471083Y-115329963D01*
X149628793Y-115451138D01*
X149739298Y-115524945D01*
X149810014Y-115555478D01*
X149848358Y-115546831D01*
X149861746Y-115503100D01*
X149862082Y-115490408D01*
X149890000Y-115437407D01*
X149964988Y-115342747D01*
X150073891Y-115222288D01*
X150144921Y-115149341D01*
X150277275Y-115013576D01*
X150393920Y-114887971D01*
X150477100Y-114791898D01*
X150499764Y-114762197D01*
X150538851Y-114708969D01*
X150557987Y-114702091D01*
X150560712Y-114752847D01*
X150550572Y-114872521D01*
X150546718Y-114911733D01*
X150546617Y-115159880D01*
X150603382Y-115352503D01*
X150720076Y-115497643D01*
X150788695Y-115546996D01*
X150863308Y-115586909D01*
X150945465Y-115612957D01*
X151054521Y-115627914D01*
X151209832Y-115634555D01*
X151407652Y-115635709D01*
X151642246Y-115631833D01*
X151813218Y-115619697D01*
X151940018Y-115596956D01*
X152042094Y-115561268D01*
X152048147Y-115558531D01*
X152175616Y-115478821D01*
X152321601Y-115356007D01*
X152464207Y-115212206D01*
X152581538Y-115069539D01*
X152651697Y-114950123D01*
X152652511Y-114948013D01*
X152682104Y-114805891D01*
X152691692Y-114597917D01*
X152681349Y-114339060D01*
X152651147Y-114044290D01*
X152648012Y-114020618D01*
X152628602Y-113857811D01*
X152617396Y-113725172D01*
X152616186Y-113645596D01*
X152617881Y-113635947D01*
X152643357Y-113641126D01*
G37*
X152643357Y-113641126D02*
X152694121Y-113707443D01*
X152762122Y-113819722D01*
X152839308Y-113962784D01*
X152917629Y-114121454D01*
X152989035Y-114280555D01*
X153045475Y-114424910D01*
X153060696Y-114470722D01*
X153135301Y-114742566D01*
X153171354Y-114968616D01*
X153170927Y-115175777D01*
X153136090Y-115390955D01*
X153132677Y-115405891D01*
X153090188Y-115636043D01*
X153073966Y-115863137D01*
X153084669Y-116108801D01*
X153122955Y-116394662D01*
X153170565Y-116650422D01*
X153238456Y-116955577D01*
X153312763Y-117203663D01*
X153403909Y-117407515D01*
X153522318Y-117579967D01*
X153678412Y-117733855D01*
X153882616Y-117882014D01*
X154145352Y-118037279D01*
X154411854Y-118178938D01*
X154590981Y-118274629D01*
X154737580Y-118358906D01*
X154838641Y-118423828D01*
X154881154Y-118461455D01*
X154881270Y-118465432D01*
X154834156Y-118493507D01*
X154728838Y-118536838D01*
X154586858Y-118586676D01*
X154566926Y-118593146D01*
X154359785Y-118649660D01*
X154183357Y-118670849D01*
X154024635Y-118665082D01*
X153882129Y-118656582D01*
X153811991Y-118664789D01*
X153804701Y-118690652D01*
X153842613Y-118749646D01*
X153910774Y-118851888D01*
X153971276Y-118941214D01*
X154048748Y-119065366D01*
X154090363Y-119172228D01*
X154106785Y-119298874D01*
X154108999Y-119420066D01*
X154104332Y-119620607D01*
X154092633Y-119843730D01*
X154081898Y-119980309D01*
X154055093Y-120264159D01*
X153842768Y-120059895D01*
X153659986Y-119909669D01*
X153488396Y-119817084D01*
X153453475Y-119805604D01*
X153346624Y-119769367D01*
X153283605Y-119736342D01*
X153276433Y-119726017D01*
X153250464Y-119683155D01*
X153181645Y-119595902D01*
X153083492Y-119481176D01*
X153056527Y-119450823D01*
X152836697Y-119205186D01*
X152629799Y-119523154D01*
X152536797Y-119662731D01*
X152460542Y-119770938D01*
X152412227Y-119832189D01*
X152402082Y-119840337D01*
X152370720Y-119808073D01*
X152304721Y-119722553D01*
X152216040Y-119599550D01*
X152175409Y-119541237D01*
X151969556Y-119242922D01*
X151974982Y-118907559D01*
X151988882Y-118693359D01*
X152019929Y-118460650D01*
X152059054Y-118269899D01*
X152097424Y-118089201D01*
X152116383Y-117927131D01*
X152115434Y-117801267D01*
X152094079Y-117729189D01*
X152074651Y-117718800D01*
X152014168Y-117746116D01*
X151916159Y-117815910D01*
X151800977Y-117910778D01*
X151688973Y-118013320D01*
X151600499Y-118106133D01*
X151563576Y-118155804D01*
X151526453Y-118250007D01*
X151485526Y-118402371D01*
X151446857Y-118588366D01*
X151426690Y-118709720D01*
X151380751Y-118970567D01*
X151321841Y-119202260D01*
X151241396Y-119428607D01*
X151130849Y-119673415D01*
X150981635Y-119960493D01*
X150967006Y-119987403D01*
X150875174Y-120154393D01*
X150814523Y-120256836D01*
X150776691Y-120303477D01*
X150753316Y-120303062D01*
X150736037Y-120264336D01*
X150728160Y-120237228D01*
X150708404Y-120148445D01*
X150680253Y-119998133D01*
X150647430Y-119807158D01*
X150613661Y-119596382D01*
X150613040Y-119592361D01*
X150579277Y-119373967D01*
X150547211Y-119167596D01*
X150520534Y-118996942D01*
X150503338Y-118888201D01*
X150473885Y-118704533D01*
X150355089Y-118939467D01*
X150264595Y-119088093D01*
X150138630Y-119257412D01*
X150003490Y-119412254D01*
X149995279Y-119420710D01*
X149858177Y-119553283D01*
X149742268Y-119640721D01*
X149616191Y-119702489D01*
X149454649Y-119756250D01*
X149216667Y-119846689D01*
X149040907Y-119965579D01*
X148910502Y-120129724D01*
X148808583Y-120355926D01*
X148786242Y-120422078D01*
X148738547Y-120563693D01*
X148699426Y-120668056D01*
X148676299Y-120715597D01*
X148674564Y-120716623D01*
X148654493Y-120680712D01*
X148625395Y-120591400D01*
X148616989Y-120560476D01*
X148552817Y-120262467D01*
X148506084Y-119937566D01*
X148477495Y-119604483D01*
X148467754Y-119281927D01*
X148477568Y-118988606D01*
X148507641Y-118743231D01*
X148543233Y-118603867D01*
X148619303Y-118428712D01*
X148729997Y-118226644D01*
X148859835Y-118021581D01*
X148993341Y-117837442D01*
X149115036Y-117698145D01*
X149150181Y-117665914D01*
X149229612Y-117595180D01*
X149248562Y-117561753D01*
X149212618Y-117552245D01*
X149197709Y-117552033D01*
X149026291Y-117516580D01*
X148839162Y-117419560D01*
X148655593Y-117274978D01*
X148494858Y-117096843D01*
X148422641Y-116988738D01*
X148374669Y-116885667D01*
X148323876Y-116743216D01*
X148275922Y-116582836D01*
X148236469Y-116425980D01*
X148211177Y-116294099D01*
X148205707Y-116208647D01*
X148211934Y-116190269D01*
X148258560Y-116190906D01*
X148361574Y-116211136D01*
X148483500Y-116242469D01*
X148624430Y-116279763D01*
X148713023Y-116292584D01*
X148776625Y-116280673D01*
X148842581Y-116243767D01*
X148849936Y-116238969D01*
X148963545Y-116164530D01*
X148833239Y-116102818D01*
X148730690Y-116022344D01*
X148626860Y-115891691D01*
X148541059Y-115741367D01*
X148492595Y-115601877D01*
X148487983Y-115557333D01*
X148507039Y-115474126D01*
X148556437Y-115349320D01*
X148610164Y-115239530D01*
X148683964Y-115082364D01*
X148713208Y-114961222D01*
X148708815Y-114865563D01*
X148698803Y-114770171D01*
X148704448Y-114721981D01*
X148707295Y-114720558D01*
X148745161Y-114745733D01*
X148835901Y-114815386D01*
X148968391Y-114920707D01*
X149131508Y-115052884D01*
X149258751Y-115157326D01*
X149471083Y-115329963D01*
X149628793Y-115451138D01*
X149739298Y-115524945D01*
X149810014Y-115555478D01*
X149848358Y-115546831D01*
X149861746Y-115503100D01*
X149862082Y-115490408D01*
X149890000Y-115437407D01*
X149964988Y-115342747D01*
X150073891Y-115222288D01*
X150144921Y-115149341D01*
X150277275Y-115013576D01*
X150393920Y-114887971D01*
X150477100Y-114791898D01*
X150499764Y-114762197D01*
X150538851Y-114708969D01*
X150557987Y-114702091D01*
X150560712Y-114752847D01*
X150550572Y-114872521D01*
X150546718Y-114911733D01*
X150546617Y-115159880D01*
X150603382Y-115352503D01*
X150720076Y-115497643D01*
X150788695Y-115546996D01*
X150863308Y-115586909D01*
X150945465Y-115612957D01*
X151054521Y-115627914D01*
X151209832Y-115634555D01*
X151407652Y-115635709D01*
X151642246Y-115631833D01*
X151813218Y-115619697D01*
X151940018Y-115596956D01*
X152042094Y-115561268D01*
X152048147Y-115558531D01*
X152175616Y-115478821D01*
X152321601Y-115356007D01*
X152464207Y-115212206D01*
X152581538Y-115069539D01*
X152651697Y-114950123D01*
X152652511Y-114948013D01*
X152682104Y-114805891D01*
X152691692Y-114597917D01*
X152681349Y-114339060D01*
X152651147Y-114044290D01*
X152648012Y-114020618D01*
X152628602Y-113857811D01*
X152617396Y-113725172D01*
X152616186Y-113645596D01*
X152617881Y-113635947D01*
X152643357Y-113641126D01*
G36*
X131293973Y-113029392D02*
G01*
X131437869Y-113069308D01*
X131507264Y-113100773D01*
X131621372Y-113148972D01*
X131741538Y-113172768D01*
X131898956Y-113176884D01*
X131988793Y-113173642D01*
X132298948Y-113159082D01*
X132378717Y-113367279D01*
X132549631Y-113703054D01*
X132790430Y-114011626D01*
X133051130Y-114248270D01*
X133229749Y-114376563D01*
X133405734Y-114479999D01*
X133591405Y-114561613D01*
X133799082Y-114624437D01*
X134041088Y-114671506D01*
X134329744Y-114705852D01*
X134677371Y-114730509D01*
X135080776Y-114747977D01*
X135354555Y-114756933D01*
X135559499Y-114761466D01*
X135709978Y-114760637D01*
X135820363Y-114753510D01*
X135905024Y-114739148D01*
X135978331Y-114716614D01*
X136054655Y-114684970D01*
X136055984Y-114684383D01*
X136211893Y-114601872D01*
X136376542Y-114494645D01*
X136447189Y-114440826D01*
X136547954Y-114363724D01*
X136590454Y-114345359D01*
X136574631Y-114385863D01*
X136500431Y-114485368D01*
X136367795Y-114644005D01*
X136353214Y-114660927D01*
X136211274Y-114809046D01*
X136066460Y-114918806D01*
X135897941Y-115000675D01*
X135684888Y-115065119D01*
X135450487Y-115114524D01*
X135115848Y-115183108D01*
X134810958Y-115257524D01*
X134548280Y-115334053D01*
X134340276Y-115408980D01*
X134199406Y-115478586D01*
X134176346Y-115494563D01*
X134083885Y-115558614D01*
X134023133Y-115573852D01*
X133963162Y-115546341D01*
X133951870Y-115538587D01*
X133814819Y-115401859D01*
X133735370Y-115216603D01*
X133728487Y-115187359D01*
X133699704Y-115095736D01*
X133656427Y-115068531D01*
X133608659Y-115077219D01*
X133392595Y-115179095D01*
X133207588Y-115350343D01*
X133138723Y-115441684D01*
X132997493Y-115694619D01*
X132927075Y-115950127D01*
X132915101Y-116125886D01*
X132903396Y-116250005D01*
X132870107Y-116301358D01*
X132862819Y-116302344D01*
X132802846Y-116286270D01*
X132688057Y-116243860D01*
X132539521Y-116183083D01*
X132481471Y-116158080D01*
X132243280Y-116042078D01*
X132071087Y-115925868D01*
X131948845Y-115794967D01*
X131860505Y-115634895D01*
X131837426Y-115576899D01*
X131771605Y-115391242D01*
X131735692Y-115250060D01*
X131730732Y-115127368D01*
X131757769Y-114997179D01*
X131817847Y-114833507D01*
X131872558Y-114702856D01*
X131947356Y-114520515D01*
X132011111Y-114352953D01*
X132055177Y-114223529D01*
X132068900Y-114172286D01*
X132095032Y-114041626D01*
X131924849Y-114064452D01*
X131701320Y-114123829D01*
X131479922Y-114232618D01*
X131294798Y-114372600D01*
X131242337Y-114428644D01*
X131159699Y-114543979D01*
X131064985Y-114699406D01*
X130988035Y-114843065D01*
X130924331Y-114980946D01*
X130883316Y-115101978D01*
X130858916Y-115234274D01*
X130845059Y-115405945D01*
X130839628Y-115530114D01*
X130824024Y-115948918D01*
X130584286Y-116042607D01*
X130452096Y-116092046D01*
X130350455Y-116125997D01*
X130307070Y-116136295D01*
X130297054Y-116098067D01*
X130295539Y-115995829D01*
X130301056Y-115848253D01*
X130312136Y-115674007D01*
X130327313Y-115491763D01*
X130345117Y-115320191D01*
X130364080Y-115177962D01*
X130382734Y-115083745D01*
X130391699Y-115060127D01*
X130380591Y-115011830D01*
X130304505Y-114969457D01*
X130146164Y-114903833D01*
X130017545Y-114826009D01*
X129887029Y-114714721D01*
X129804833Y-114633431D01*
X129660823Y-114477877D01*
X129570278Y-114351824D01*
X129521628Y-114232756D01*
X129503303Y-114098158D01*
X129501918Y-114043918D01*
X129507970Y-113911288D01*
X129533882Y-113856306D01*
X129587413Y-113874228D01*
X129662658Y-113945608D01*
X129767548Y-114025086D01*
X129875364Y-114068936D01*
X129966997Y-114069923D01*
X130089035Y-114050627D01*
X130214938Y-114018212D01*
X130318162Y-113979842D01*
X130372165Y-113942680D01*
X130374868Y-113934119D01*
X130338746Y-113906499D01*
X130244846Y-113864036D01*
X130136046Y-113823838D01*
X130003201Y-113764946D01*
X129864870Y-113681662D01*
X129736274Y-113586587D01*
X129632634Y-113492316D01*
X129569171Y-113411448D01*
X129561106Y-113356580D01*
X129565413Y-113351554D01*
X129628903Y-113321075D01*
X129756933Y-113279108D01*
X129932307Y-113230116D01*
X130137827Y-113178565D01*
X130356298Y-113128919D01*
X130570523Y-113085643D01*
X130634073Y-113074098D01*
X130909659Y-113032324D01*
X131123764Y-113017243D01*
X131293973Y-113029392D01*
G37*
X131293973Y-113029392D02*
X131437869Y-113069308D01*
X131507264Y-113100773D01*
X131621372Y-113148972D01*
X131741538Y-113172768D01*
X131898956Y-113176884D01*
X131988793Y-113173642D01*
X132298948Y-113159082D01*
X132378717Y-113367279D01*
X132549631Y-113703054D01*
X132790430Y-114011626D01*
X133051130Y-114248270D01*
X133229749Y-114376563D01*
X133405734Y-114479999D01*
X133591405Y-114561613D01*
X133799082Y-114624437D01*
X134041088Y-114671506D01*
X134329744Y-114705852D01*
X134677371Y-114730509D01*
X135080776Y-114747977D01*
X135354555Y-114756933D01*
X135559499Y-114761466D01*
X135709978Y-114760637D01*
X135820363Y-114753510D01*
X135905024Y-114739148D01*
X135978331Y-114716614D01*
X136054655Y-114684970D01*
X136055984Y-114684383D01*
X136211893Y-114601872D01*
X136376542Y-114494645D01*
X136447189Y-114440826D01*
X136547954Y-114363724D01*
X136590454Y-114345359D01*
X136574631Y-114385863D01*
X136500431Y-114485368D01*
X136367795Y-114644005D01*
X136353214Y-114660927D01*
X136211274Y-114809046D01*
X136066460Y-114918806D01*
X135897941Y-115000675D01*
X135684888Y-115065119D01*
X135450487Y-115114524D01*
X135115848Y-115183108D01*
X134810958Y-115257524D01*
X134548280Y-115334053D01*
X134340276Y-115408980D01*
X134199406Y-115478586D01*
X134176346Y-115494563D01*
X134083885Y-115558614D01*
X134023133Y-115573852D01*
X133963162Y-115546341D01*
X133951870Y-115538587D01*
X133814819Y-115401859D01*
X133735370Y-115216603D01*
X133728487Y-115187359D01*
X133699704Y-115095736D01*
X133656427Y-115068531D01*
X133608659Y-115077219D01*
X133392595Y-115179095D01*
X133207588Y-115350343D01*
X133138723Y-115441684D01*
X132997493Y-115694619D01*
X132927075Y-115950127D01*
X132915101Y-116125886D01*
X132903396Y-116250005D01*
X132870107Y-116301358D01*
X132862819Y-116302344D01*
X132802846Y-116286270D01*
X132688057Y-116243860D01*
X132539521Y-116183083D01*
X132481471Y-116158080D01*
X132243280Y-116042078D01*
X132071087Y-115925868D01*
X131948845Y-115794967D01*
X131860505Y-115634895D01*
X131837426Y-115576899D01*
X131771605Y-115391242D01*
X131735692Y-115250060D01*
X131730732Y-115127368D01*
X131757769Y-114997179D01*
X131817847Y-114833507D01*
X131872558Y-114702856D01*
X131947356Y-114520515D01*
X132011111Y-114352953D01*
X132055177Y-114223529D01*
X132068900Y-114172286D01*
X132095032Y-114041626D01*
X131924849Y-114064452D01*
X131701320Y-114123829D01*
X131479922Y-114232618D01*
X131294798Y-114372600D01*
X131242337Y-114428644D01*
X131159699Y-114543979D01*
X131064985Y-114699406D01*
X130988035Y-114843065D01*
X130924331Y-114980946D01*
X130883316Y-115101978D01*
X130858916Y-115234274D01*
X130845059Y-115405945D01*
X130839628Y-115530114D01*
X130824024Y-115948918D01*
X130584286Y-116042607D01*
X130452096Y-116092046D01*
X130350455Y-116125997D01*
X130307070Y-116136295D01*
X130297054Y-116098067D01*
X130295539Y-115995829D01*
X130301056Y-115848253D01*
X130312136Y-115674007D01*
X130327313Y-115491763D01*
X130345117Y-115320191D01*
X130364080Y-115177962D01*
X130382734Y-115083745D01*
X130391699Y-115060127D01*
X130380591Y-115011830D01*
X130304505Y-114969457D01*
X130146164Y-114903833D01*
X130017545Y-114826009D01*
X129887029Y-114714721D01*
X129804833Y-114633431D01*
X129660823Y-114477877D01*
X129570278Y-114351824D01*
X129521628Y-114232756D01*
X129503303Y-114098158D01*
X129501918Y-114043918D01*
X129507970Y-113911288D01*
X129533882Y-113856306D01*
X129587413Y-113874228D01*
X129662658Y-113945608D01*
X129767548Y-114025086D01*
X129875364Y-114068936D01*
X129966997Y-114069923D01*
X130089035Y-114050627D01*
X130214938Y-114018212D01*
X130318162Y-113979842D01*
X130372165Y-113942680D01*
X130374868Y-113934119D01*
X130338746Y-113906499D01*
X130244846Y-113864036D01*
X130136046Y-113823838D01*
X130003201Y-113764946D01*
X129864870Y-113681662D01*
X129736274Y-113586587D01*
X129632634Y-113492316D01*
X129569171Y-113411448D01*
X129561106Y-113356580D01*
X129565413Y-113351554D01*
X129628903Y-113321075D01*
X129756933Y-113279108D01*
X129932307Y-113230116D01*
X130137827Y-113178565D01*
X130356298Y-113128919D01*
X130570523Y-113085643D01*
X130634073Y-113074098D01*
X130909659Y-113032324D01*
X131123764Y-113017243D01*
X131293973Y-113029392D01*
G36*
X153808926Y-112070819D02*
G01*
X153951688Y-112094520D01*
X154146544Y-112136984D01*
X154171515Y-112142698D01*
X154349224Y-112186165D01*
X154492202Y-112226292D01*
X154583815Y-112258077D01*
X154608944Y-112274246D01*
X154577900Y-112305239D01*
X154573537Y-112305476D01*
X154525928Y-112329815D01*
X154430279Y-112394639D01*
X154302972Y-112487655D01*
X154160387Y-112596569D01*
X154018904Y-112709091D01*
X153894905Y-112812927D01*
X153880278Y-112825714D01*
X153755360Y-112935635D01*
X153998373Y-112911246D01*
X154218348Y-112874715D01*
X154374254Y-112810294D01*
X154483324Y-112708133D01*
X154545900Y-112598298D01*
X154601712Y-112494404D01*
X154642014Y-112467560D01*
X154656979Y-112480920D01*
X154675730Y-112554039D01*
X154686902Y-112686141D01*
X154690742Y-112853299D01*
X154687494Y-113031584D01*
X154677403Y-113197070D01*
X154660713Y-113325828D01*
X154647832Y-113374978D01*
X154532601Y-113565391D01*
X154351365Y-113717772D01*
X154115690Y-113824392D01*
X153907139Y-113870080D01*
X153786627Y-113891267D01*
X153708914Y-113914915D01*
X153692901Y-113928321D01*
X153720841Y-113974809D01*
X153782061Y-114037465D01*
X153909063Y-114202932D01*
X153991696Y-114427129D01*
X154024728Y-114695277D01*
X154025102Y-114724028D01*
X154022094Y-114867567D01*
X154013338Y-114975456D01*
X154001432Y-115022738D01*
X153950541Y-115025500D01*
X153852944Y-115002692D01*
X153814509Y-114990046D01*
X153670207Y-114955477D01*
X153546465Y-114970129D01*
X153524673Y-114977216D01*
X153430628Y-115001447D01*
X153375630Y-114999861D01*
X153374182Y-114998670D01*
X153356604Y-114949352D01*
X153330831Y-114839519D01*
X153301842Y-114690886D01*
X153295836Y-114656916D01*
X153233956Y-114407146D01*
X153136303Y-114134348D01*
X153016221Y-113870116D01*
X152887057Y-113646042D01*
X152842214Y-113583004D01*
X152744900Y-113476747D01*
X152615575Y-113361431D01*
X152547258Y-113308889D01*
X152357367Y-113172519D01*
X152379996Y-113436456D01*
X152393901Y-113596305D01*
X152412337Y-113805058D01*
X152432290Y-114028681D01*
X152442089Y-114137607D01*
X152457255Y-114367225D01*
X152459791Y-114565778D01*
X152449605Y-114710760D01*
X152444547Y-114738309D01*
X152353357Y-114966397D01*
X152197636Y-115173833D01*
X151996037Y-115343927D01*
X151767215Y-115459990D01*
X151591851Y-115501220D01*
X151402737Y-115522536D01*
X151402737Y-115332454D01*
X151393495Y-115188900D01*
X151370418Y-115062085D01*
X151361237Y-115033218D01*
X151303007Y-114934986D01*
X151192747Y-114797152D01*
X151042719Y-114633048D01*
X150865181Y-114456007D01*
X150672393Y-114279365D01*
X150650772Y-114260522D01*
X150419299Y-114059868D01*
X150436752Y-114301145D01*
X150442668Y-114444356D01*
X150428281Y-114538490D01*
X150384213Y-114617032D01*
X150330356Y-114681031D01*
X150206509Y-114819641D01*
X149982246Y-114725134D01*
X149839216Y-114676990D01*
X149645931Y-114627996D01*
X149434963Y-114585975D01*
X149341590Y-114571233D01*
X148983542Y-114509072D01*
X148696349Y-114433141D01*
X148468134Y-114339196D01*
X148287018Y-114222991D01*
X148230185Y-114174081D01*
X148147439Y-114095191D01*
X148107303Y-114046011D01*
X148117334Y-114025003D01*
X148185091Y-114030629D01*
X148318130Y-114061351D01*
X148521156Y-114114867D01*
X148689568Y-114152994D01*
X148834198Y-114164331D01*
X148998924Y-114150868D01*
X149074198Y-114139930D01*
X149443853Y-114063839D01*
X149797684Y-113955734D01*
X150114549Y-113823404D01*
X150373306Y-113674637D01*
X150411145Y-113647414D01*
X150604323Y-113491534D01*
X150815309Y-113302173D01*
X151028760Y-113095004D01*
X151229334Y-112885701D01*
X151401689Y-112689937D01*
X151530481Y-112523387D01*
X151568223Y-112465367D01*
X151708454Y-112230916D01*
X151878301Y-112294007D01*
X152131591Y-112349350D01*
X152422523Y-112347173D01*
X152729413Y-112288401D01*
X152841645Y-112252857D01*
X153044130Y-112189548D01*
X153270524Y-112130597D01*
X153434789Y-112095871D01*
X153576318Y-112073137D01*
X153692416Y-112064239D01*
X153808926Y-112070819D01*
G37*
X153808926Y-112070819D02*
X153951688Y-112094520D01*
X154146544Y-112136984D01*
X154171515Y-112142698D01*
X154349224Y-112186165D01*
X154492202Y-112226292D01*
X154583815Y-112258077D01*
X154608944Y-112274246D01*
X154577900Y-112305239D01*
X154573537Y-112305476D01*
X154525928Y-112329815D01*
X154430279Y-112394639D01*
X154302972Y-112487655D01*
X154160387Y-112596569D01*
X154018904Y-112709091D01*
X153894905Y-112812927D01*
X153880278Y-112825714D01*
X153755360Y-112935635D01*
X153998373Y-112911246D01*
X154218348Y-112874715D01*
X154374254Y-112810294D01*
X154483324Y-112708133D01*
X154545900Y-112598298D01*
X154601712Y-112494404D01*
X154642014Y-112467560D01*
X154656979Y-112480920D01*
X154675730Y-112554039D01*
X154686902Y-112686141D01*
X154690742Y-112853299D01*
X154687494Y-113031584D01*
X154677403Y-113197070D01*
X154660713Y-113325828D01*
X154647832Y-113374978D01*
X154532601Y-113565391D01*
X154351365Y-113717772D01*
X154115690Y-113824392D01*
X153907139Y-113870080D01*
X153786627Y-113891267D01*
X153708914Y-113914915D01*
X153692901Y-113928321D01*
X153720841Y-113974809D01*
X153782061Y-114037465D01*
X153909063Y-114202932D01*
X153991696Y-114427129D01*
X154024728Y-114695277D01*
X154025102Y-114724028D01*
X154022094Y-114867567D01*
X154013338Y-114975456D01*
X154001432Y-115022738D01*
X153950541Y-115025500D01*
X153852944Y-115002692D01*
X153814509Y-114990046D01*
X153670207Y-114955477D01*
X153546465Y-114970129D01*
X153524673Y-114977216D01*
X153430628Y-115001447D01*
X153375630Y-114999861D01*
X153374182Y-114998670D01*
X153356604Y-114949352D01*
X153330831Y-114839519D01*
X153301842Y-114690886D01*
X153295836Y-114656916D01*
X153233956Y-114407146D01*
X153136303Y-114134348D01*
X153016221Y-113870116D01*
X152887057Y-113646042D01*
X152842214Y-113583004D01*
X152744900Y-113476747D01*
X152615575Y-113361431D01*
X152547258Y-113308889D01*
X152357367Y-113172519D01*
X152379996Y-113436456D01*
X152393901Y-113596305D01*
X152412337Y-113805058D01*
X152432290Y-114028681D01*
X152442089Y-114137607D01*
X152457255Y-114367225D01*
X152459791Y-114565778D01*
X152449605Y-114710760D01*
X152444547Y-114738309D01*
X152353357Y-114966397D01*
X152197636Y-115173833D01*
X151996037Y-115343927D01*
X151767215Y-115459990D01*
X151591851Y-115501220D01*
X151402737Y-115522536D01*
X151402737Y-115332454D01*
X151393495Y-115188900D01*
X151370418Y-115062085D01*
X151361237Y-115033218D01*
X151303007Y-114934986D01*
X151192747Y-114797152D01*
X151042719Y-114633048D01*
X150865181Y-114456007D01*
X150672393Y-114279365D01*
X150650772Y-114260522D01*
X150419299Y-114059868D01*
X150436752Y-114301145D01*
X150442668Y-114444356D01*
X150428281Y-114538490D01*
X150384213Y-114617032D01*
X150330356Y-114681031D01*
X150206509Y-114819641D01*
X149982246Y-114725134D01*
X149839216Y-114676990D01*
X149645931Y-114627996D01*
X149434963Y-114585975D01*
X149341590Y-114571233D01*
X148983542Y-114509072D01*
X148696349Y-114433141D01*
X148468134Y-114339196D01*
X148287018Y-114222991D01*
X148230185Y-114174081D01*
X148147439Y-114095191D01*
X148107303Y-114046011D01*
X148117334Y-114025003D01*
X148185091Y-114030629D01*
X148318130Y-114061351D01*
X148521156Y-114114867D01*
X148689568Y-114152994D01*
X148834198Y-114164331D01*
X148998924Y-114150868D01*
X149074198Y-114139930D01*
X149443853Y-114063839D01*
X149797684Y-113955734D01*
X150114549Y-113823404D01*
X150373306Y-113674637D01*
X150411145Y-113647414D01*
X150604323Y-113491534D01*
X150815309Y-113302173D01*
X151028760Y-113095004D01*
X151229334Y-112885701D01*
X151401689Y-112689937D01*
X151530481Y-112523387D01*
X151568223Y-112465367D01*
X151708454Y-112230916D01*
X151878301Y-112294007D01*
X152131591Y-112349350D01*
X152422523Y-112347173D01*
X152729413Y-112288401D01*
X152841645Y-112252857D01*
X153044130Y-112189548D01*
X153270524Y-112130597D01*
X153434789Y-112095871D01*
X153576318Y-112073137D01*
X153692416Y-112064239D01*
X153808926Y-112070819D01*
G36*
X142728951Y-99953547D02*
G01*
X142729725Y-99999580D01*
X142714259Y-100099412D01*
X142700114Y-100167607D01*
X142676974Y-100285166D01*
X142667593Y-100363466D01*
X142669716Y-100380104D01*
X142706305Y-100363256D01*
X142787623Y-100305354D01*
X142882238Y-100230182D01*
X143077084Y-100098611D01*
X143274939Y-100033937D01*
X143505193Y-100027623D01*
X143561223Y-100033004D01*
X143737287Y-100078495D01*
X143860507Y-100167844D01*
X143926801Y-100245367D01*
X143934382Y-100287136D01*
X143907655Y-100304217D01*
X143789665Y-100355291D01*
X143644872Y-100428815D01*
X143494563Y-100512543D01*
X143360023Y-100594227D01*
X143262539Y-100661620D01*
X143225841Y-100696511D01*
X143197574Y-100770136D01*
X143231130Y-100794027D01*
X143321185Y-100767715D01*
X143423927Y-100713977D01*
X143651259Y-100621889D01*
X143875819Y-100612457D01*
X144094389Y-100685699D01*
X144136672Y-100710005D01*
X144260573Y-100773049D01*
X144374553Y-100809901D01*
X144407328Y-100813729D01*
X144511426Y-100814869D01*
X144419801Y-100886812D01*
X144358618Y-100955264D01*
X144274171Y-101076041D01*
X144181243Y-101227387D01*
X144146079Y-101289664D01*
X144051787Y-101448506D01*
X143957580Y-101586338D01*
X143879259Y-101680699D01*
X143857297Y-101700227D01*
X143716450Y-101769363D01*
X143546781Y-101802754D01*
X143382190Y-101797252D01*
X143264526Y-101755225D01*
X143188825Y-101712315D01*
X143147190Y-101722493D01*
X143114659Y-101774176D01*
X143071350Y-101833068D01*
X143022805Y-101821788D01*
X142998686Y-101803006D01*
X142902908Y-101765421D01*
X142738884Y-101758950D01*
X142693943Y-101761520D01*
X142458755Y-101777938D01*
X142698621Y-102029224D01*
X142967545Y-102349997D01*
X143170700Y-102686309D01*
X143307561Y-103014335D01*
X143398809Y-103319210D01*
X143453310Y-103615443D01*
X143473147Y-103927076D01*
X143460402Y-104278148D01*
X143437849Y-104518918D01*
X143407215Y-104861000D01*
X143395827Y-105178200D01*
X143402672Y-105514253D01*
X143411066Y-105677066D01*
X143448846Y-106165105D01*
X143501849Y-106577791D01*
X143572700Y-106922092D01*
X143664024Y-107204974D01*
X143778445Y-107433405D01*
X143918590Y-107614353D01*
X144087084Y-107754784D01*
X144223288Y-107832703D01*
X144375672Y-107898821D01*
X144501265Y-107926734D01*
X144642329Y-107924789D01*
X144674255Y-107921744D01*
X144842589Y-107890219D01*
X145009580Y-107837253D01*
X145068244Y-107811137D01*
X145169129Y-107763161D01*
X145230951Y-107740489D01*
X145240114Y-107741669D01*
X145218665Y-107819273D01*
X145163672Y-107939199D01*
X145089166Y-108075421D01*
X145009180Y-108201909D01*
X144950639Y-108278640D01*
X144790132Y-108404083D01*
X144569517Y-108481230D01*
X144285401Y-108510910D01*
X144032573Y-108502824D01*
X143775497Y-108475305D01*
X143574672Y-108432155D01*
X143403402Y-108365188D01*
X143234992Y-108266213D01*
X143213249Y-108251481D01*
X143012409Y-108113814D01*
X142575196Y-108209288D01*
X142295590Y-108265105D01*
X142070161Y-108295216D01*
X141873988Y-108299969D01*
X141682151Y-108279713D01*
X141469729Y-108234797D01*
X141431901Y-108225277D01*
X141108071Y-108142455D01*
X140872224Y-108288029D01*
X140638561Y-108413211D01*
X140414312Y-108487279D01*
X140175685Y-108514093D01*
X139898887Y-108497512D01*
X139731855Y-108473002D01*
X139590092Y-108436781D01*
X139414425Y-108374872D01*
X139253003Y-108305300D01*
X138973393Y-108171097D01*
X139160770Y-108117150D01*
X139324273Y-108071329D01*
X139492620Y-108025959D01*
X139525661Y-108017342D01*
X139720416Y-107939503D01*
X139887339Y-107809836D01*
X140031681Y-107621020D01*
X140158695Y-107365737D01*
X140273631Y-107036668D01*
X140303592Y-106933079D01*
X140333407Y-106822517D01*
X140357755Y-106719277D01*
X140377525Y-106612687D01*
X140393605Y-106492076D01*
X140406883Y-106346773D01*
X140418247Y-106166109D01*
X140428586Y-105939411D01*
X140438787Y-105656010D01*
X140449738Y-105305235D01*
X140455622Y-105106366D01*
X140464940Y-104767714D01*
X140472385Y-104454607D01*
X140477812Y-104177012D01*
X140481073Y-103944897D01*
X140482023Y-103768227D01*
X140480513Y-103656971D01*
X140477495Y-103621909D01*
X140427277Y-103583966D01*
X140324904Y-103550719D01*
X140277522Y-103541697D01*
X140148134Y-103515522D01*
X139988853Y-103474716D01*
X139822973Y-103426365D01*
X139673788Y-103377556D01*
X139564592Y-103335376D01*
X139522606Y-103312043D01*
X139547932Y-103298481D01*
X139641740Y-103284075D01*
X139789268Y-103270524D01*
X139975759Y-103259528D01*
X139980638Y-103259307D01*
X140269334Y-103240741D01*
X140479322Y-103216095D01*
X140610067Y-103187804D01*
X140661033Y-103158303D01*
X140631684Y-103130027D01*
X140521485Y-103105412D01*
X140329900Y-103086893D01*
X140056393Y-103076906D01*
X140020867Y-103076428D01*
X139783530Y-103069657D01*
X139601983Y-103056291D01*
X139481307Y-103037773D01*
X139426586Y-103015551D01*
X139442901Y-102991069D01*
X139535334Y-102965773D01*
X139595953Y-102955571D01*
X139768987Y-102943191D01*
X140003410Y-102946103D01*
X140278924Y-102963399D01*
X140575233Y-102994166D01*
X140638967Y-103002356D01*
X140762386Y-103013128D01*
X140811199Y-103003248D01*
X140805524Y-102989829D01*
X140706093Y-102927719D01*
X140542380Y-102863088D01*
X140332994Y-102801467D01*
X140096541Y-102748385D01*
X139869370Y-102711621D01*
X139668117Y-102687205D01*
X139525807Y-102676168D01*
X139419079Y-102679167D01*
X139324575Y-102696860D01*
X139218934Y-102729904D01*
X139218883Y-102729922D01*
X139079289Y-102780968D01*
X138960563Y-102829529D01*
X138915003Y-102851167D01*
X138856872Y-102879458D01*
X138834291Y-102873938D01*
X138846533Y-102821276D01*
X138892873Y-102708141D01*
X138905596Y-102678420D01*
X139016323Y-102483250D01*
X139166689Y-102335034D01*
X139368198Y-102226653D01*
X139632350Y-102150989D01*
X139806180Y-102121072D01*
X139959391Y-102085393D01*
X140073297Y-102016801D01*
X140148944Y-101941415D01*
X140263267Y-101815974D01*
X140381302Y-101689208D01*
X140409189Y-101659796D01*
X140487026Y-101563327D01*
X140531130Y-101479820D01*
X140534868Y-101459272D01*
X140568352Y-101328940D01*
X140655178Y-101196245D01*
X140716709Y-101136648D01*
X140808967Y-101074247D01*
X140856719Y-101076322D01*
X140867983Y-101126619D01*
X140898458Y-101196053D01*
X140971792Y-101215331D01*
X141060844Y-101179414D01*
X141077731Y-101165548D01*
X141135187Y-101080285D01*
X141158182Y-100947767D01*
X141159459Y-100892164D01*
X141187298Y-100694384D01*
X141269771Y-100558044D01*
X141405310Y-100484949D01*
X141523777Y-100472239D01*
X141655057Y-100484337D01*
X141762398Y-100511284D01*
X141779115Y-100518901D01*
X141880580Y-100558742D01*
X141933585Y-100534756D01*
X141950431Y-100440069D01*
X141950606Y-100423058D01*
X141975395Y-100271109D01*
X142055737Y-100156061D01*
X142200591Y-100069848D01*
X142414595Y-100005376D01*
X142561165Y-99974687D01*
X142672444Y-99955920D01*
X142727062Y-99952599D01*
X142728951Y-99953547D01*
G37*
X142728951Y-99953547D02*
X142729725Y-99999580D01*
X142714259Y-100099412D01*
X142700114Y-100167607D01*
X142676974Y-100285166D01*
X142667593Y-100363466D01*
X142669716Y-100380104D01*
X142706305Y-100363256D01*
X142787623Y-100305354D01*
X142882238Y-100230182D01*
X143077084Y-100098611D01*
X143274939Y-100033937D01*
X143505193Y-100027623D01*
X143561223Y-100033004D01*
X143737287Y-100078495D01*
X143860507Y-100167844D01*
X143926801Y-100245367D01*
X143934382Y-100287136D01*
X143907655Y-100304217D01*
X143789665Y-100355291D01*
X143644872Y-100428815D01*
X143494563Y-100512543D01*
X143360023Y-100594227D01*
X143262539Y-100661620D01*
X143225841Y-100696511D01*
X143197574Y-100770136D01*
X143231130Y-100794027D01*
X143321185Y-100767715D01*
X143423927Y-100713977D01*
X143651259Y-100621889D01*
X143875819Y-100612457D01*
X144094389Y-100685699D01*
X144136672Y-100710005D01*
X144260573Y-100773049D01*
X144374553Y-100809901D01*
X144407328Y-100813729D01*
X144511426Y-100814869D01*
X144419801Y-100886812D01*
X144358618Y-100955264D01*
X144274171Y-101076041D01*
X144181243Y-101227387D01*
X144146079Y-101289664D01*
X144051787Y-101448506D01*
X143957580Y-101586338D01*
X143879259Y-101680699D01*
X143857297Y-101700227D01*
X143716450Y-101769363D01*
X143546781Y-101802754D01*
X143382190Y-101797252D01*
X143264526Y-101755225D01*
X143188825Y-101712315D01*
X143147190Y-101722493D01*
X143114659Y-101774176D01*
X143071350Y-101833068D01*
X143022805Y-101821788D01*
X142998686Y-101803006D01*
X142902908Y-101765421D01*
X142738884Y-101758950D01*
X142693943Y-101761520D01*
X142458755Y-101777938D01*
X142698621Y-102029224D01*
X142967545Y-102349997D01*
X143170700Y-102686309D01*
X143307561Y-103014335D01*
X143398809Y-103319210D01*
X143453310Y-103615443D01*
X143473147Y-103927076D01*
X143460402Y-104278148D01*
X143437849Y-104518918D01*
X143407215Y-104861000D01*
X143395827Y-105178200D01*
X143402672Y-105514253D01*
X143411066Y-105677066D01*
X143448846Y-106165105D01*
X143501849Y-106577791D01*
X143572700Y-106922092D01*
X143664024Y-107204974D01*
X143778445Y-107433405D01*
X143918590Y-107614353D01*
X144087084Y-107754784D01*
X144223288Y-107832703D01*
X144375672Y-107898821D01*
X144501265Y-107926734D01*
X144642329Y-107924789D01*
X144674255Y-107921744D01*
X144842589Y-107890219D01*
X145009580Y-107837253D01*
X145068244Y-107811137D01*
X145169129Y-107763161D01*
X145230951Y-107740489D01*
X145240114Y-107741669D01*
X145218665Y-107819273D01*
X145163672Y-107939199D01*
X145089166Y-108075421D01*
X145009180Y-108201909D01*
X144950639Y-108278640D01*
X144790132Y-108404083D01*
X144569517Y-108481230D01*
X144285401Y-108510910D01*
X144032573Y-108502824D01*
X143775497Y-108475305D01*
X143574672Y-108432155D01*
X143403402Y-108365188D01*
X143234992Y-108266213D01*
X143213249Y-108251481D01*
X143012409Y-108113814D01*
X142575196Y-108209288D01*
X142295590Y-108265105D01*
X142070161Y-108295216D01*
X141873988Y-108299969D01*
X141682151Y-108279713D01*
X141469729Y-108234797D01*
X141431901Y-108225277D01*
X141108071Y-108142455D01*
X140872224Y-108288029D01*
X140638561Y-108413211D01*
X140414312Y-108487279D01*
X140175685Y-108514093D01*
X139898887Y-108497512D01*
X139731855Y-108473002D01*
X139590092Y-108436781D01*
X139414425Y-108374872D01*
X139253003Y-108305300D01*
X138973393Y-108171097D01*
X139160770Y-108117150D01*
X139324273Y-108071329D01*
X139492620Y-108025959D01*
X139525661Y-108017342D01*
X139720416Y-107939503D01*
X139887339Y-107809836D01*
X140031681Y-107621020D01*
X140158695Y-107365737D01*
X140273631Y-107036668D01*
X140303592Y-106933079D01*
X140333407Y-106822517D01*
X140357755Y-106719277D01*
X140377525Y-106612687D01*
X140393605Y-106492076D01*
X140406883Y-106346773D01*
X140418247Y-106166109D01*
X140428586Y-105939411D01*
X140438787Y-105656010D01*
X140449738Y-105305235D01*
X140455622Y-105106366D01*
X140464940Y-104767714D01*
X140472385Y-104454607D01*
X140477812Y-104177012D01*
X140481073Y-103944897D01*
X140482023Y-103768227D01*
X140480513Y-103656971D01*
X140477495Y-103621909D01*
X140427277Y-103583966D01*
X140324904Y-103550719D01*
X140277522Y-103541697D01*
X140148134Y-103515522D01*
X139988853Y-103474716D01*
X139822973Y-103426365D01*
X139673788Y-103377556D01*
X139564592Y-103335376D01*
X139522606Y-103312043D01*
X139547932Y-103298481D01*
X139641740Y-103284075D01*
X139789268Y-103270524D01*
X139975759Y-103259528D01*
X139980638Y-103259307D01*
X140269334Y-103240741D01*
X140479322Y-103216095D01*
X140610067Y-103187804D01*
X140661033Y-103158303D01*
X140631684Y-103130027D01*
X140521485Y-103105412D01*
X140329900Y-103086893D01*
X140056393Y-103076906D01*
X140020867Y-103076428D01*
X139783530Y-103069657D01*
X139601983Y-103056291D01*
X139481307Y-103037773D01*
X139426586Y-103015551D01*
X139442901Y-102991069D01*
X139535334Y-102965773D01*
X139595953Y-102955571D01*
X139768987Y-102943191D01*
X140003410Y-102946103D01*
X140278924Y-102963399D01*
X140575233Y-102994166D01*
X140638967Y-103002356D01*
X140762386Y-103013128D01*
X140811199Y-103003248D01*
X140805524Y-102989829D01*
X140706093Y-102927719D01*
X140542380Y-102863088D01*
X140332994Y-102801467D01*
X140096541Y-102748385D01*
X139869370Y-102711621D01*
X139668117Y-102687205D01*
X139525807Y-102676168D01*
X139419079Y-102679167D01*
X139324575Y-102696860D01*
X139218934Y-102729904D01*
X139218883Y-102729922D01*
X139079289Y-102780968D01*
X138960563Y-102829529D01*
X138915003Y-102851167D01*
X138856872Y-102879458D01*
X138834291Y-102873938D01*
X138846533Y-102821276D01*
X138892873Y-102708141D01*
X138905596Y-102678420D01*
X139016323Y-102483250D01*
X139166689Y-102335034D01*
X139368198Y-102226653D01*
X139632350Y-102150989D01*
X139806180Y-102121072D01*
X139959391Y-102085393D01*
X140073297Y-102016801D01*
X140148944Y-101941415D01*
X140263267Y-101815974D01*
X140381302Y-101689208D01*
X140409189Y-101659796D01*
X140487026Y-101563327D01*
X140531130Y-101479820D01*
X140534868Y-101459272D01*
X140568352Y-101328940D01*
X140655178Y-101196245D01*
X140716709Y-101136648D01*
X140808967Y-101074247D01*
X140856719Y-101076322D01*
X140867983Y-101126619D01*
X140898458Y-101196053D01*
X140971792Y-101215331D01*
X141060844Y-101179414D01*
X141077731Y-101165548D01*
X141135187Y-101080285D01*
X141158182Y-100947767D01*
X141159459Y-100892164D01*
X141187298Y-100694384D01*
X141269771Y-100558044D01*
X141405310Y-100484949D01*
X141523777Y-100472239D01*
X141655057Y-100484337D01*
X141762398Y-100511284D01*
X141779115Y-100518901D01*
X141880580Y-100558742D01*
X141933585Y-100534756D01*
X141950431Y-100440069D01*
X141950606Y-100423058D01*
X141975395Y-100271109D01*
X142055737Y-100156061D01*
X142200591Y-100069848D01*
X142414595Y-100005376D01*
X142561165Y-99974687D01*
X142672444Y-99955920D01*
X142727062Y-99952599D01*
X142728951Y-99953547D01*
D11*
G36*
X136832227Y-129800561D02*
G01*
X136878645Y-129814642D01*
X136906798Y-129826303D01*
X136906800Y-129826304D01*
X137822318Y-130205524D01*
X137822320Y-130205525D01*
X137850472Y-130217186D01*
X137893250Y-130240051D01*
X137928800Y-130269226D01*
X137957975Y-130304776D01*
X137979656Y-130345338D01*
X137993007Y-130389351D01*
X137997514Y-130435116D01*
X137993007Y-130480881D01*
X137978926Y-130527299D01*
X137967264Y-130555452D01*
X137967264Y-130555454D01*
X137463672Y-131771234D01*
X137463669Y-131771239D01*
X137452008Y-131799392D01*
X137429147Y-131842164D01*
X137399970Y-131877716D01*
X137364420Y-131906891D01*
X137323858Y-131928572D01*
X137279845Y-131941923D01*
X137234080Y-131946430D01*
X137188315Y-131941923D01*
X137141897Y-131927842D01*
X137113742Y-131916180D01*
X136198224Y-131536960D01*
X136198222Y-131536959D01*
X136170070Y-131525298D01*
X136127292Y-131502433D01*
X136091742Y-131473258D01*
X136062567Y-131437708D01*
X136040886Y-131397146D01*
X136027535Y-131353133D01*
X136023028Y-131307368D01*
X136027535Y-131261603D01*
X136041616Y-131215185D01*
X136210300Y-130807946D01*
X136556870Y-129971250D01*
X136556873Y-129971245D01*
X136568534Y-129943092D01*
X136591395Y-129900320D01*
X136620572Y-129864768D01*
X136656122Y-129835593D01*
X136696684Y-129813912D01*
X136740697Y-129800561D01*
X136786462Y-129796054D01*
X136832227Y-129800561D01*
G37*
G36*
X147739303Y-129800561D02*
G01*
X147783316Y-129813912D01*
X147823878Y-129835593D01*
X147859428Y-129864768D01*
X147888603Y-129900318D01*
X147911468Y-129943096D01*
X147923129Y-129971248D01*
X147923130Y-129971250D01*
X148269700Y-130807946D01*
X148438384Y-131215185D01*
X148452465Y-131261603D01*
X148456972Y-131307368D01*
X148452465Y-131353133D01*
X148439114Y-131397146D01*
X148417433Y-131437708D01*
X148388258Y-131473258D01*
X148352706Y-131502435D01*
X148309934Y-131525296D01*
X148281781Y-131536958D01*
X148281776Y-131536960D01*
X147366258Y-131916180D01*
X147338103Y-131927842D01*
X147291685Y-131941923D01*
X147245920Y-131946430D01*
X147200155Y-131941923D01*
X147156142Y-131928572D01*
X147115580Y-131906891D01*
X147080030Y-131877716D01*
X147050855Y-131842166D01*
X147027990Y-131799388D01*
X146892903Y-131473258D01*
X146512736Y-130555454D01*
X146512736Y-130555452D01*
X146501074Y-130527299D01*
X146486993Y-130480881D01*
X146482486Y-130435116D01*
X146486993Y-130389351D01*
X146500344Y-130345338D01*
X146522025Y-130304776D01*
X146551200Y-130269226D01*
X146586752Y-130240049D01*
X146629524Y-130217188D01*
X146657677Y-130205526D01*
X146657682Y-130205524D01*
X147573200Y-129826304D01*
X147573202Y-129826303D01*
X147601355Y-129814642D01*
X147647773Y-129800561D01*
X147693538Y-129796054D01*
X147739303Y-129800561D01*
G37*
G36*
X134083685Y-128662077D02*
G01*
X134130103Y-128676158D01*
X134158256Y-128687819D01*
X134158258Y-128687820D01*
X135073776Y-129067040D01*
X135073778Y-129067041D01*
X135101930Y-129078702D01*
X135144708Y-129101567D01*
X135180258Y-129130742D01*
X135209433Y-129166292D01*
X135231114Y-129206854D01*
X135244465Y-129250867D01*
X135248972Y-129296632D01*
X135244465Y-129342397D01*
X135230384Y-129388815D01*
X135218722Y-129416968D01*
X135218722Y-129416970D01*
X134715130Y-130632750D01*
X134715127Y-130632755D01*
X134703466Y-130660908D01*
X134680605Y-130703680D01*
X134651428Y-130739232D01*
X134615878Y-130768407D01*
X134575316Y-130790088D01*
X134531303Y-130803439D01*
X134485538Y-130807946D01*
X134439773Y-130803439D01*
X134393355Y-130789358D01*
X134365200Y-130777696D01*
X133449682Y-130398476D01*
X133449680Y-130398475D01*
X133421528Y-130386814D01*
X133378750Y-130363949D01*
X133343200Y-130334774D01*
X133314025Y-130299224D01*
X133292344Y-130258662D01*
X133278993Y-130214649D01*
X133274486Y-130168884D01*
X133278993Y-130123119D01*
X133293074Y-130076701D01*
X133348415Y-129943096D01*
X133808328Y-128832766D01*
X133808331Y-128832761D01*
X133819992Y-128804608D01*
X133842853Y-128761836D01*
X133872030Y-128726284D01*
X133907580Y-128697109D01*
X133948142Y-128675428D01*
X133992155Y-128662077D01*
X134037920Y-128657570D01*
X134083685Y-128662077D01*
G37*
G36*
X150487845Y-128662077D02*
G01*
X150531858Y-128675428D01*
X150572420Y-128697109D01*
X150607970Y-128726284D01*
X150637145Y-128761834D01*
X150660010Y-128804612D01*
X150671671Y-128832764D01*
X150671672Y-128832766D01*
X151131585Y-129943096D01*
X151186926Y-130076701D01*
X151201007Y-130123119D01*
X151205514Y-130168884D01*
X151201007Y-130214649D01*
X151187656Y-130258662D01*
X151165975Y-130299224D01*
X151136800Y-130334774D01*
X151101248Y-130363951D01*
X151058476Y-130386812D01*
X151030323Y-130398474D01*
X151030318Y-130398476D01*
X150114800Y-130777696D01*
X150086645Y-130789358D01*
X150040227Y-130803439D01*
X149994462Y-130807946D01*
X149948697Y-130803439D01*
X149904684Y-130790088D01*
X149864122Y-130768407D01*
X149828572Y-130739232D01*
X149799397Y-130703682D01*
X149776532Y-130660904D01*
X149690400Y-130452962D01*
X149261278Y-129416970D01*
X149261278Y-129416968D01*
X149249616Y-129388815D01*
X149235535Y-129342397D01*
X149231028Y-129296632D01*
X149235535Y-129250867D01*
X149248886Y-129206854D01*
X149270567Y-129166292D01*
X149299742Y-129130742D01*
X149335294Y-129101565D01*
X149378066Y-129078704D01*
X149406219Y-129067042D01*
X149406224Y-129067040D01*
X150321742Y-128687820D01*
X150321744Y-128687819D01*
X150349897Y-128676158D01*
X150396315Y-128662077D01*
X150442080Y-128657570D01*
X150487845Y-128662077D01*
G37*
G36*
X127289133Y-121295535D02*
G01*
X127333146Y-121308886D01*
X127373708Y-121330567D01*
X127409258Y-121359742D01*
X127438435Y-121395294D01*
X127461296Y-121438066D01*
X127472958Y-121466219D01*
X127472960Y-121466224D01*
X127766462Y-122174800D01*
X127863842Y-122409897D01*
X127877923Y-122456315D01*
X127882430Y-122502080D01*
X127877923Y-122547845D01*
X127864572Y-122591858D01*
X127842891Y-122632420D01*
X127813716Y-122667970D01*
X127778166Y-122697145D01*
X127735388Y-122720010D01*
X127707236Y-122731671D01*
X127707234Y-122731672D01*
X126491454Y-123235264D01*
X126463299Y-123246926D01*
X126416881Y-123261007D01*
X126371116Y-123265514D01*
X126325351Y-123261007D01*
X126281338Y-123247656D01*
X126240776Y-123225975D01*
X126205226Y-123196800D01*
X126176049Y-123161248D01*
X126153188Y-123118476D01*
X126141526Y-123090323D01*
X126141524Y-123090318D01*
X125762304Y-122174800D01*
X125762303Y-122174798D01*
X125750642Y-122146645D01*
X125736561Y-122100227D01*
X125732054Y-122054462D01*
X125736561Y-122008697D01*
X125749912Y-121964684D01*
X125771593Y-121924122D01*
X125800768Y-121888572D01*
X125836318Y-121859397D01*
X125879096Y-121836532D01*
X125907248Y-121824871D01*
X125907250Y-121824870D01*
X127123030Y-121321278D01*
X127123032Y-121321278D01*
X127151185Y-121309616D01*
X127197603Y-121295535D01*
X127243368Y-121291028D01*
X127289133Y-121295535D01*
G37*
G36*
X157282397Y-121295535D02*
G01*
X157328815Y-121309616D01*
X157356968Y-121321278D01*
X157356970Y-121321278D01*
X158572750Y-121824870D01*
X158572755Y-121824873D01*
X158600908Y-121836534D01*
X158643680Y-121859395D01*
X158679232Y-121888572D01*
X158708407Y-121924122D01*
X158730088Y-121964684D01*
X158743439Y-122008697D01*
X158747946Y-122054462D01*
X158743439Y-122100227D01*
X158729358Y-122146645D01*
X158717697Y-122174798D01*
X158717696Y-122174800D01*
X158491863Y-122720010D01*
X158326814Y-123118472D01*
X158303949Y-123161250D01*
X158274774Y-123196800D01*
X158239224Y-123225975D01*
X158198662Y-123247656D01*
X158154649Y-123261007D01*
X158108884Y-123265514D01*
X158063119Y-123261007D01*
X158016701Y-123246926D01*
X157988546Y-123235264D01*
X156772766Y-122731672D01*
X156772761Y-122731669D01*
X156744608Y-122720008D01*
X156701836Y-122697147D01*
X156666284Y-122667970D01*
X156637109Y-122632420D01*
X156615428Y-122591858D01*
X156602077Y-122547845D01*
X156597570Y-122502080D01*
X156602077Y-122456315D01*
X156616158Y-122409897D01*
X156713538Y-122174800D01*
X157007040Y-121466224D01*
X157007041Y-121466222D01*
X157018702Y-121438070D01*
X157041567Y-121395292D01*
X157070742Y-121359742D01*
X157106292Y-121330567D01*
X157146854Y-121308886D01*
X157190867Y-121295535D01*
X157236632Y-121291028D01*
X157282397Y-121295535D01*
G37*
G36*
X126150649Y-118546993D02*
G01*
X126194662Y-118560344D01*
X126235224Y-118582025D01*
X126270774Y-118611200D01*
X126299951Y-118646752D01*
X126322812Y-118689524D01*
X126334474Y-118717677D01*
X126334476Y-118717682D01*
X126627978Y-119426258D01*
X126725358Y-119661355D01*
X126739439Y-119707773D01*
X126743946Y-119753538D01*
X126739439Y-119799303D01*
X126726088Y-119843316D01*
X126704407Y-119883878D01*
X126675232Y-119919428D01*
X126639682Y-119948603D01*
X126596904Y-119971468D01*
X126568752Y-119983129D01*
X126568750Y-119983130D01*
X125352970Y-120486722D01*
X125324815Y-120498384D01*
X125278397Y-120512465D01*
X125232632Y-120516972D01*
X125186867Y-120512465D01*
X125142854Y-120499114D01*
X125102292Y-120477433D01*
X125066742Y-120448258D01*
X125037565Y-120412706D01*
X125014704Y-120369934D01*
X125003042Y-120341781D01*
X125003040Y-120341776D01*
X124623820Y-119426258D01*
X124623819Y-119426256D01*
X124612158Y-119398103D01*
X124598077Y-119351685D01*
X124593570Y-119305920D01*
X124598077Y-119260155D01*
X124611428Y-119216142D01*
X124633109Y-119175580D01*
X124662284Y-119140030D01*
X124697834Y-119110855D01*
X124740612Y-119087990D01*
X124768764Y-119076329D01*
X124768766Y-119076328D01*
X125984546Y-118572736D01*
X125984548Y-118572736D01*
X126012701Y-118561074D01*
X126059119Y-118546993D01*
X126104884Y-118542486D01*
X126150649Y-118546993D01*
G37*
G36*
X158420881Y-118546993D02*
G01*
X158467299Y-118561074D01*
X158495452Y-118572736D01*
X158495454Y-118572736D01*
X159711234Y-119076328D01*
X159711239Y-119076331D01*
X159739392Y-119087992D01*
X159782164Y-119110853D01*
X159817716Y-119140030D01*
X159846891Y-119175580D01*
X159868572Y-119216142D01*
X159881923Y-119260155D01*
X159886430Y-119305920D01*
X159881923Y-119351685D01*
X159867842Y-119398103D01*
X159856181Y-119426256D01*
X159856180Y-119426258D01*
X159630347Y-119971468D01*
X159465298Y-120369930D01*
X159442433Y-120412708D01*
X159413258Y-120448258D01*
X159377708Y-120477433D01*
X159337146Y-120499114D01*
X159293133Y-120512465D01*
X159247368Y-120516972D01*
X159201603Y-120512465D01*
X159155185Y-120498384D01*
X159127030Y-120486722D01*
X157911250Y-119983130D01*
X157911245Y-119983127D01*
X157883092Y-119971466D01*
X157840320Y-119948605D01*
X157804768Y-119919428D01*
X157775593Y-119883878D01*
X157753912Y-119843316D01*
X157740561Y-119799303D01*
X157736054Y-119753538D01*
X157740561Y-119707773D01*
X157754642Y-119661355D01*
X157852022Y-119426258D01*
X158145524Y-118717682D01*
X158145525Y-118717680D01*
X158157186Y-118689528D01*
X158180051Y-118646750D01*
X158209226Y-118611200D01*
X158244776Y-118582025D01*
X158285338Y-118560344D01*
X158329351Y-118546993D01*
X158375116Y-118542486D01*
X158420881Y-118546993D01*
G37*
G36*
X159293133Y-108087535D02*
G01*
X159337146Y-108100886D01*
X159377708Y-108122567D01*
X159413258Y-108151742D01*
X159442435Y-108187294D01*
X159465296Y-108230066D01*
X159476958Y-108258219D01*
X159476960Y-108258224D01*
X159770462Y-108966800D01*
X159867842Y-109201897D01*
X159881923Y-109248315D01*
X159886430Y-109294080D01*
X159881923Y-109339845D01*
X159868572Y-109383858D01*
X159846891Y-109424420D01*
X159817716Y-109459970D01*
X159782166Y-109489145D01*
X159739388Y-109512010D01*
X159711236Y-109523671D01*
X159711234Y-109523672D01*
X158495454Y-110027264D01*
X158467299Y-110038926D01*
X158420881Y-110053007D01*
X158375116Y-110057514D01*
X158329351Y-110053007D01*
X158285338Y-110039656D01*
X158244776Y-110017975D01*
X158209226Y-109988800D01*
X158180049Y-109953248D01*
X158157188Y-109910476D01*
X158145526Y-109882323D01*
X158145524Y-109882318D01*
X157766304Y-108966800D01*
X157766303Y-108966798D01*
X157754642Y-108938645D01*
X157740561Y-108892227D01*
X157736054Y-108846462D01*
X157740561Y-108800697D01*
X157753912Y-108756684D01*
X157775593Y-108716122D01*
X157804768Y-108680572D01*
X157840318Y-108651397D01*
X157883096Y-108628532D01*
X157911248Y-108616871D01*
X157911250Y-108616870D01*
X159127030Y-108113278D01*
X159127032Y-108113278D01*
X159155185Y-108101616D01*
X159201603Y-108087535D01*
X159247368Y-108083028D01*
X159293133Y-108087535D01*
G37*
G36*
X125278397Y-108087535D02*
G01*
X125324815Y-108101616D01*
X125352968Y-108113278D01*
X125352970Y-108113278D01*
X126568750Y-108616870D01*
X126568755Y-108616873D01*
X126596908Y-108628534D01*
X126639680Y-108651395D01*
X126675232Y-108680572D01*
X126704407Y-108716122D01*
X126726088Y-108756684D01*
X126739439Y-108800697D01*
X126743946Y-108846462D01*
X126739439Y-108892227D01*
X126725358Y-108938645D01*
X126713697Y-108966798D01*
X126713696Y-108966800D01*
X126487863Y-109512010D01*
X126322814Y-109910472D01*
X126299949Y-109953250D01*
X126270774Y-109988800D01*
X126235224Y-110017975D01*
X126194662Y-110039656D01*
X126150649Y-110053007D01*
X126104884Y-110057514D01*
X126059119Y-110053007D01*
X126012701Y-110038926D01*
X125984546Y-110027264D01*
X124768766Y-109523672D01*
X124768761Y-109523669D01*
X124740608Y-109512008D01*
X124697836Y-109489147D01*
X124662284Y-109459970D01*
X124633109Y-109424420D01*
X124611428Y-109383858D01*
X124598077Y-109339845D01*
X124593570Y-109294080D01*
X124598077Y-109248315D01*
X124612158Y-109201897D01*
X124709538Y-108966800D01*
X125003040Y-108258224D01*
X125003041Y-108258222D01*
X125014702Y-108230070D01*
X125037567Y-108187292D01*
X125066742Y-108151742D01*
X125102292Y-108122567D01*
X125142854Y-108100886D01*
X125186867Y-108087535D01*
X125232632Y-108083028D01*
X125278397Y-108087535D01*
G37*
G36*
X158154649Y-105338993D02*
G01*
X158198662Y-105352344D01*
X158239224Y-105374025D01*
X158274774Y-105403200D01*
X158303951Y-105438752D01*
X158326812Y-105481524D01*
X158338474Y-105509677D01*
X158338476Y-105509682D01*
X158631978Y-106218258D01*
X158729358Y-106453355D01*
X158743439Y-106499773D01*
X158747946Y-106545538D01*
X158743439Y-106591303D01*
X158730088Y-106635316D01*
X158708407Y-106675878D01*
X158679232Y-106711428D01*
X158643682Y-106740603D01*
X158600904Y-106763468D01*
X158572752Y-106775129D01*
X158572750Y-106775130D01*
X157356970Y-107278722D01*
X157328815Y-107290384D01*
X157282397Y-107304465D01*
X157236632Y-107308972D01*
X157190867Y-107304465D01*
X157146854Y-107291114D01*
X157106292Y-107269433D01*
X157070742Y-107240258D01*
X157041565Y-107204706D01*
X157018704Y-107161934D01*
X157007042Y-107133781D01*
X157007040Y-107133776D01*
X156627820Y-106218258D01*
X156627819Y-106218256D01*
X156616158Y-106190103D01*
X156602077Y-106143685D01*
X156597570Y-106097920D01*
X156602077Y-106052155D01*
X156615428Y-106008142D01*
X156637109Y-105967580D01*
X156666284Y-105932030D01*
X156701834Y-105902855D01*
X156744612Y-105879990D01*
X156772764Y-105868329D01*
X156772766Y-105868328D01*
X157988546Y-105364736D01*
X157988548Y-105364736D01*
X158016701Y-105353074D01*
X158063119Y-105338993D01*
X158108884Y-105334486D01*
X158154649Y-105338993D01*
G37*
G36*
X126416881Y-105338993D02*
G01*
X126463299Y-105353074D01*
X126491452Y-105364736D01*
X126491454Y-105364736D01*
X127707234Y-105868328D01*
X127707239Y-105868331D01*
X127735392Y-105879992D01*
X127778164Y-105902853D01*
X127813716Y-105932030D01*
X127842891Y-105967580D01*
X127864572Y-106008142D01*
X127877923Y-106052155D01*
X127882430Y-106097920D01*
X127877923Y-106143685D01*
X127863842Y-106190103D01*
X127852181Y-106218256D01*
X127852180Y-106218258D01*
X127626347Y-106763468D01*
X127461298Y-107161930D01*
X127438433Y-107204708D01*
X127409258Y-107240258D01*
X127373708Y-107269433D01*
X127333146Y-107291114D01*
X127289133Y-107304465D01*
X127243368Y-107308972D01*
X127197603Y-107304465D01*
X127151185Y-107290384D01*
X127123030Y-107278722D01*
X125907250Y-106775130D01*
X125907245Y-106775127D01*
X125879092Y-106763466D01*
X125836320Y-106740605D01*
X125800768Y-106711428D01*
X125771593Y-106675878D01*
X125749912Y-106635316D01*
X125736561Y-106591303D01*
X125732054Y-106545538D01*
X125736561Y-106499773D01*
X125750642Y-106453355D01*
X125848022Y-106218258D01*
X126141524Y-105509682D01*
X126141525Y-105509680D01*
X126153186Y-105481528D01*
X126176051Y-105438750D01*
X126205226Y-105403200D01*
X126240776Y-105374025D01*
X126281338Y-105352344D01*
X126325351Y-105338993D01*
X126371116Y-105334486D01*
X126416881Y-105338993D01*
G37*
G36*
X150040227Y-97857803D02*
G01*
X150086645Y-97871884D01*
X150114798Y-97883545D01*
X150114800Y-97883546D01*
X151030318Y-98262766D01*
X151030320Y-98262767D01*
X151058472Y-98274428D01*
X151101250Y-98297293D01*
X151136800Y-98326468D01*
X151165975Y-98362018D01*
X151187656Y-98402580D01*
X151201007Y-98446593D01*
X151205514Y-98492358D01*
X151201007Y-98538123D01*
X151186926Y-98584541D01*
X151175264Y-98612694D01*
X151175264Y-98612696D01*
X150671672Y-99828476D01*
X150671669Y-99828481D01*
X150660008Y-99856634D01*
X150637147Y-99899406D01*
X150607970Y-99934958D01*
X150572420Y-99964133D01*
X150531858Y-99985814D01*
X150487845Y-99999165D01*
X150442080Y-100003672D01*
X150396315Y-99999165D01*
X150349897Y-99985084D01*
X150321742Y-99973422D01*
X149406224Y-99594202D01*
X149406222Y-99594201D01*
X149378070Y-99582540D01*
X149335292Y-99559675D01*
X149299742Y-99530500D01*
X149270567Y-99494950D01*
X149248886Y-99454388D01*
X149235535Y-99410375D01*
X149231028Y-99364610D01*
X149235535Y-99318845D01*
X149249616Y-99272427D01*
X149261278Y-99244272D01*
X149764870Y-98028492D01*
X149764873Y-98028487D01*
X149776534Y-98000334D01*
X149799395Y-97957562D01*
X149828572Y-97922010D01*
X149864122Y-97892835D01*
X149904684Y-97871154D01*
X149948697Y-97857803D01*
X149994462Y-97853296D01*
X150040227Y-97857803D01*
G37*
G36*
X134531303Y-97796561D02*
G01*
X134575316Y-97809912D01*
X134615878Y-97831593D01*
X134651428Y-97860768D01*
X134680603Y-97896318D01*
X134703468Y-97939096D01*
X134715129Y-97967248D01*
X134715130Y-97967250D01*
X135218722Y-99183030D01*
X135230384Y-99211185D01*
X135244465Y-99257603D01*
X135248972Y-99303368D01*
X135244465Y-99349133D01*
X135231114Y-99393146D01*
X135209433Y-99433708D01*
X135180258Y-99469258D01*
X135144706Y-99498435D01*
X135101934Y-99521296D01*
X135073781Y-99532958D01*
X135073776Y-99532960D01*
X134158258Y-99912180D01*
X134130103Y-99923842D01*
X134083685Y-99937923D01*
X134037920Y-99942430D01*
X133992155Y-99937923D01*
X133948142Y-99924572D01*
X133907580Y-99902891D01*
X133872030Y-99873716D01*
X133842855Y-99838166D01*
X133819990Y-99795388D01*
X133731826Y-99582540D01*
X133304736Y-98551454D01*
X133304736Y-98551452D01*
X133293074Y-98523299D01*
X133278993Y-98476881D01*
X133274486Y-98431116D01*
X133278993Y-98385351D01*
X133292344Y-98341338D01*
X133314025Y-98300776D01*
X133343200Y-98265226D01*
X133378752Y-98236049D01*
X133421524Y-98213188D01*
X133449677Y-98201526D01*
X133449682Y-98201524D01*
X134365200Y-97822304D01*
X134365202Y-97822303D01*
X134393355Y-97810642D01*
X134439773Y-97796561D01*
X134485538Y-97792054D01*
X134531303Y-97796561D01*
G37*
G36*
X147291685Y-96719319D02*
G01*
X147338103Y-96733400D01*
X147366256Y-96745061D01*
X147366258Y-96745062D01*
X148281776Y-97124282D01*
X148281778Y-97124283D01*
X148309930Y-97135944D01*
X148352708Y-97158809D01*
X148388258Y-97187984D01*
X148417433Y-97223534D01*
X148439114Y-97264096D01*
X148452465Y-97308109D01*
X148456972Y-97353874D01*
X148452465Y-97399639D01*
X148438384Y-97446057D01*
X148426722Y-97474210D01*
X148426722Y-97474212D01*
X147923130Y-98689992D01*
X147923127Y-98689997D01*
X147911466Y-98718150D01*
X147888605Y-98760922D01*
X147859428Y-98796474D01*
X147823878Y-98825649D01*
X147783316Y-98847330D01*
X147739303Y-98860681D01*
X147693538Y-98865188D01*
X147647773Y-98860681D01*
X147601355Y-98846600D01*
X147573200Y-98834938D01*
X146657682Y-98455718D01*
X146657680Y-98455717D01*
X146629528Y-98444056D01*
X146586750Y-98421191D01*
X146551200Y-98392016D01*
X146522025Y-98356466D01*
X146500344Y-98315904D01*
X146486993Y-98271891D01*
X146482486Y-98226126D01*
X146486993Y-98180361D01*
X146501074Y-98133943D01*
X146512736Y-98105788D01*
X147016328Y-96890008D01*
X147016331Y-96890003D01*
X147027992Y-96861850D01*
X147050853Y-96819078D01*
X147080030Y-96783526D01*
X147115580Y-96754351D01*
X147156142Y-96732670D01*
X147200155Y-96719319D01*
X147245920Y-96714812D01*
X147291685Y-96719319D01*
G37*
G36*
X137279845Y-96658077D02*
G01*
X137323858Y-96671428D01*
X137364420Y-96693109D01*
X137399970Y-96722284D01*
X137429145Y-96757834D01*
X137452010Y-96800612D01*
X137463671Y-96828764D01*
X137463672Y-96828766D01*
X137931234Y-97957562D01*
X137978926Y-98072701D01*
X137993007Y-98119119D01*
X137997514Y-98164884D01*
X137993007Y-98210649D01*
X137979656Y-98254662D01*
X137957975Y-98295224D01*
X137928800Y-98330774D01*
X137893248Y-98359951D01*
X137850476Y-98382812D01*
X137822323Y-98394474D01*
X137822318Y-98394476D01*
X136906800Y-98773696D01*
X136878645Y-98785358D01*
X136832227Y-98799439D01*
X136786462Y-98803946D01*
X136740697Y-98799439D01*
X136696684Y-98786088D01*
X136656122Y-98764407D01*
X136620572Y-98735232D01*
X136591397Y-98699682D01*
X136568532Y-98656904D01*
X136529410Y-98562454D01*
X136053278Y-97412970D01*
X136053278Y-97412968D01*
X136041616Y-97384815D01*
X136027535Y-97338397D01*
X136023028Y-97292632D01*
X136027535Y-97246867D01*
X136040886Y-97202854D01*
X136062567Y-97162292D01*
X136091742Y-97126742D01*
X136127294Y-97097565D01*
X136170066Y-97074704D01*
X136198219Y-97063042D01*
X136198224Y-97063040D01*
X137113742Y-96683820D01*
X137113744Y-96683819D01*
X137141897Y-96672158D01*
X137188315Y-96658077D01*
X137234080Y-96653570D01*
X137279845Y-96658077D01*
G37*
G36*
X143071548Y-87428754D02*
G01*
X143590361Y-87643653D01*
X144057281Y-87955640D01*
X144454360Y-88352719D01*
X144766347Y-88819639D01*
X144981246Y-89338452D01*
X145090800Y-89889220D01*
X145090800Y-90450780D01*
X144981246Y-91001548D01*
X144766347Y-91520361D01*
X144454360Y-91987281D01*
X144057281Y-92384360D01*
X143590361Y-92696347D01*
X143071548Y-92911246D01*
X142520780Y-93020800D01*
X141959220Y-93020800D01*
X141408452Y-92911246D01*
X140889639Y-92696347D01*
X140422719Y-92384360D01*
X140025640Y-91987281D01*
X139713653Y-91520361D01*
X139498754Y-91001548D01*
X139389200Y-90450780D01*
X139389200Y-89889220D01*
X139498754Y-89338452D01*
X139713653Y-88819639D01*
X140025640Y-88352719D01*
X140422719Y-87955640D01*
X140889639Y-87643653D01*
X141408452Y-87428754D01*
X141959220Y-87319200D01*
X142520780Y-87319200D01*
X143071548Y-87428754D01*
G37*
M02*
