G04 #@! TF.GenerationSoftware,KiCad,Pcbnew,(5.1.5)-3*
G04 #@! TF.CreationDate,2019-12-29T19:03:19-08:00*
G04 #@! TF.ProjectId,ruddblink,72756464-626c-4696-9e6b-2e6b69636164,A*
G04 #@! TF.SameCoordinates,Original*
G04 #@! TF.FileFunction,Soldermask,Bot*
G04 #@! TF.FilePolarity,Negative*
%FSLAX46Y46*%
G04 Gerber Fmt 4.6, Leading zero omitted, Abs format (unit mm)*
G04 Created by KiCad (PCBNEW (5.1.5)-3) date 2019-12-29 19:03:19*
%MOMM*%
%LPD*%
G04 APERTURE LIST*
%ADD10C,0.100000*%
G04 APERTURE END LIST*
D10*
G36*
X142899357Y-118933403D02*
G01*
X143713264Y-119095299D01*
X144632451Y-119476039D01*
X145459698Y-120028787D01*
X146163213Y-120732302D01*
X146715961Y-121559549D01*
X147096701Y-122478736D01*
X147290800Y-123454540D01*
X147290800Y-124449460D01*
X147096701Y-125425264D01*
X146715961Y-126344451D01*
X146163213Y-127171698D01*
X145459698Y-127875213D01*
X144632451Y-128427961D01*
X143713264Y-128808701D01*
X142899357Y-128970597D01*
X142737461Y-129002800D01*
X141742539Y-129002800D01*
X141580643Y-128970597D01*
X140766736Y-128808701D01*
X139847549Y-128427961D01*
X139020302Y-127875213D01*
X138316787Y-127171698D01*
X137764039Y-126344451D01*
X137383299Y-125425264D01*
X137189200Y-124449460D01*
X137189200Y-123454540D01*
X137383299Y-122478736D01*
X137764039Y-121559549D01*
X138316787Y-120732302D01*
X139020302Y-120028787D01*
X139847549Y-119476039D01*
X140766736Y-119095299D01*
X141580643Y-118933403D01*
X141742539Y-118901200D01*
X142737461Y-118901200D01*
X142899357Y-118933403D01*
G37*
G36*
X156438600Y-126542800D02*
G01*
X152527000Y-126542800D01*
X152527000Y-121361200D01*
X156438600Y-121361200D01*
X156438600Y-126542800D01*
G37*
G36*
X131953000Y-126542800D02*
G01*
X128041400Y-126542800D01*
X128041400Y-121361200D01*
X131953000Y-121361200D01*
X131953000Y-126542800D01*
G37*
G36*
X156349215Y-117823953D02*
G01*
X156393228Y-117837304D01*
X156433790Y-117858985D01*
X156469340Y-117888160D01*
X156498515Y-117923710D01*
X156520196Y-117964272D01*
X156533547Y-118008285D01*
X156538300Y-118056543D01*
X156538300Y-119433457D01*
X156533547Y-119481715D01*
X156520196Y-119525728D01*
X156498515Y-119566290D01*
X156469340Y-119601840D01*
X156433790Y-119631015D01*
X156393228Y-119652696D01*
X156349215Y-119666047D01*
X156300957Y-119670800D01*
X155249043Y-119670800D01*
X155200785Y-119666047D01*
X155156772Y-119652696D01*
X155116210Y-119631015D01*
X155080660Y-119601840D01*
X155051485Y-119566290D01*
X155029804Y-119525728D01*
X155016453Y-119481715D01*
X155011700Y-119433457D01*
X155011700Y-118056543D01*
X155016453Y-118008285D01*
X155029804Y-117964272D01*
X155051485Y-117923710D01*
X155080660Y-117888160D01*
X155116210Y-117858985D01*
X155156772Y-117837304D01*
X155200785Y-117823953D01*
X155249043Y-117819200D01*
X156300957Y-117819200D01*
X156349215Y-117823953D01*
G37*
G36*
X159324215Y-117823953D02*
G01*
X159368228Y-117837304D01*
X159408790Y-117858985D01*
X159444340Y-117888160D01*
X159473515Y-117923710D01*
X159495196Y-117964272D01*
X159508547Y-118008285D01*
X159513300Y-118056543D01*
X159513300Y-119433457D01*
X159508547Y-119481715D01*
X159495196Y-119525728D01*
X159473515Y-119566290D01*
X159444340Y-119601840D01*
X159408790Y-119631015D01*
X159368228Y-119652696D01*
X159324215Y-119666047D01*
X159275957Y-119670800D01*
X158224043Y-119670800D01*
X158175785Y-119666047D01*
X158131772Y-119652696D01*
X158091210Y-119631015D01*
X158055660Y-119601840D01*
X158026485Y-119566290D01*
X158004804Y-119525728D01*
X157991453Y-119481715D01*
X157986700Y-119433457D01*
X157986700Y-118056543D01*
X157991453Y-118008285D01*
X158004804Y-117964272D01*
X158026485Y-117923710D01*
X158055660Y-117888160D01*
X158091210Y-117858985D01*
X158131772Y-117837304D01*
X158175785Y-117823953D01*
X158224043Y-117819200D01*
X159275957Y-117819200D01*
X159324215Y-117823953D01*
G37*
G36*
X127262800Y-119129800D02*
G01*
X125261200Y-119129800D01*
X125261200Y-118228200D01*
X127262800Y-118228200D01*
X127262800Y-119129800D01*
G37*
G36*
X130262800Y-118179800D02*
G01*
X128261200Y-118179800D01*
X128261200Y-117278200D01*
X130262800Y-117278200D01*
X130262800Y-118179800D01*
G37*
G36*
X127262800Y-117229800D02*
G01*
X125261200Y-117229800D01*
X125261200Y-116328200D01*
X127262800Y-116328200D01*
X127262800Y-117229800D01*
G37*
G36*
X154893800Y-116080800D02*
G01*
X153542200Y-116080800D01*
X153542200Y-113479200D01*
X154893800Y-113479200D01*
X154893800Y-116080800D01*
G37*
G36*
X159893800Y-116080800D02*
G01*
X158542200Y-116080800D01*
X158542200Y-113479200D01*
X159893800Y-113479200D01*
X159893800Y-116080800D01*
G37*
G36*
X157393800Y-116080800D02*
G01*
X156042200Y-116080800D01*
X156042200Y-113479200D01*
X157393800Y-113479200D01*
X157393800Y-116080800D01*
G37*
G36*
X125854800Y-114490800D02*
G01*
X124953200Y-114490800D01*
X124953200Y-112889200D01*
X125854800Y-112889200D01*
X125854800Y-114490800D01*
G37*
G36*
X129554800Y-114490800D02*
G01*
X128653200Y-114490800D01*
X128653200Y-112889200D01*
X129554800Y-112889200D01*
X129554800Y-114490800D01*
G37*
G36*
X134414857Y-112919117D02*
G01*
X134460465Y-112932952D01*
X134502504Y-112955422D01*
X134539344Y-112985656D01*
X134569578Y-113022496D01*
X134592048Y-113064535D01*
X134605883Y-113110143D01*
X134610800Y-113160065D01*
X134610800Y-114169935D01*
X134605883Y-114219857D01*
X134592048Y-114265465D01*
X134569578Y-114307504D01*
X134539344Y-114344344D01*
X134502504Y-114374578D01*
X134460465Y-114397048D01*
X134414857Y-114410883D01*
X134364935Y-114415800D01*
X133605065Y-114415800D01*
X133555143Y-114410883D01*
X133509535Y-114397048D01*
X133467496Y-114374578D01*
X133430656Y-114344344D01*
X133400422Y-114307504D01*
X133377952Y-114265465D01*
X133364117Y-114219857D01*
X133359200Y-114169935D01*
X133359200Y-113160065D01*
X133364117Y-113110143D01*
X133377952Y-113064535D01*
X133400422Y-113022496D01*
X133430656Y-112985656D01*
X133467496Y-112955422D01*
X133509535Y-112932952D01*
X133555143Y-112919117D01*
X133605065Y-112914200D01*
X134364935Y-112914200D01*
X134414857Y-112919117D01*
G37*
G36*
X132364857Y-112919117D02*
G01*
X132410465Y-112932952D01*
X132452504Y-112955422D01*
X132489344Y-112985656D01*
X132519578Y-113022496D01*
X132542048Y-113064535D01*
X132555883Y-113110143D01*
X132560800Y-113160065D01*
X132560800Y-114169935D01*
X132555883Y-114219857D01*
X132542048Y-114265465D01*
X132519578Y-114307504D01*
X132489344Y-114344344D01*
X132452504Y-114374578D01*
X132410465Y-114397048D01*
X132364857Y-114410883D01*
X132314935Y-114415800D01*
X131555065Y-114415800D01*
X131505143Y-114410883D01*
X131459535Y-114397048D01*
X131417496Y-114374578D01*
X131380656Y-114344344D01*
X131350422Y-114307504D01*
X131327952Y-114265465D01*
X131314117Y-114219857D01*
X131309200Y-114169935D01*
X131309200Y-113160065D01*
X131314117Y-113110143D01*
X131327952Y-113064535D01*
X131350422Y-113022496D01*
X131380656Y-112985656D01*
X131417496Y-112955422D01*
X131459535Y-112932952D01*
X131505143Y-112919117D01*
X131555065Y-112914200D01*
X132314935Y-112914200D01*
X132364857Y-112919117D01*
G37*
G36*
X154893800Y-112580800D02*
G01*
X153542200Y-112580800D01*
X153542200Y-109979200D01*
X154893800Y-109979200D01*
X154893800Y-112580800D01*
G37*
G36*
X157393800Y-112580800D02*
G01*
X156042200Y-112580800D01*
X156042200Y-109979200D01*
X157393800Y-109979200D01*
X157393800Y-112580800D01*
G37*
G36*
X159893800Y-112580800D02*
G01*
X158542200Y-112580800D01*
X158542200Y-109979200D01*
X159893800Y-109979200D01*
X159893800Y-112580800D01*
G37*
G36*
X134410800Y-110865800D02*
G01*
X132609200Y-110865800D01*
X132609200Y-110114200D01*
X134410800Y-110114200D01*
X134410800Y-110865800D01*
G37*
G36*
X141710800Y-110865800D02*
G01*
X139909200Y-110865800D01*
X139909200Y-110114200D01*
X141710800Y-110114200D01*
X141710800Y-110865800D01*
G37*
G36*
X145750015Y-110142323D02*
G01*
X145778106Y-110150844D01*
X145803998Y-110164684D01*
X145826692Y-110183308D01*
X145845316Y-110206002D01*
X145859156Y-110231894D01*
X145867677Y-110259985D01*
X145870800Y-110291691D01*
X145870800Y-110688309D01*
X145867677Y-110720015D01*
X145859156Y-110748106D01*
X145845316Y-110773998D01*
X145826692Y-110796692D01*
X145803998Y-110815316D01*
X145778106Y-110829156D01*
X145750015Y-110837677D01*
X145718309Y-110840800D01*
X143971691Y-110840800D01*
X143939985Y-110837677D01*
X143911894Y-110829156D01*
X143886002Y-110815316D01*
X143863308Y-110796692D01*
X143844684Y-110773998D01*
X143830844Y-110748106D01*
X143822323Y-110720015D01*
X143819200Y-110688309D01*
X143819200Y-110291691D01*
X143822323Y-110259985D01*
X143830844Y-110231894D01*
X143844684Y-110206002D01*
X143863308Y-110183308D01*
X143886002Y-110164684D01*
X143911894Y-110150844D01*
X143939985Y-110142323D01*
X143971691Y-110139200D01*
X145718309Y-110139200D01*
X145750015Y-110142323D01*
G37*
G36*
X150700015Y-110142323D02*
G01*
X150728106Y-110150844D01*
X150753998Y-110164684D01*
X150776692Y-110183308D01*
X150795316Y-110206002D01*
X150809156Y-110231894D01*
X150817677Y-110259985D01*
X150820800Y-110291691D01*
X150820800Y-110688309D01*
X150817677Y-110720015D01*
X150809156Y-110748106D01*
X150795316Y-110773998D01*
X150776692Y-110796692D01*
X150753998Y-110815316D01*
X150728106Y-110829156D01*
X150700015Y-110837677D01*
X150668309Y-110840800D01*
X148921691Y-110840800D01*
X148889985Y-110837677D01*
X148861894Y-110829156D01*
X148836002Y-110815316D01*
X148813308Y-110796692D01*
X148794684Y-110773998D01*
X148780844Y-110748106D01*
X148772323Y-110720015D01*
X148769200Y-110688309D01*
X148769200Y-110291691D01*
X148772323Y-110259985D01*
X148780844Y-110231894D01*
X148794684Y-110206002D01*
X148813308Y-110183308D01*
X148836002Y-110164684D01*
X148861894Y-110150844D01*
X148889985Y-110142323D01*
X148921691Y-110139200D01*
X150668309Y-110139200D01*
X150700015Y-110142323D01*
G37*
G36*
X134410800Y-109595800D02*
G01*
X132609200Y-109595800D01*
X132609200Y-108844200D01*
X134410800Y-108844200D01*
X134410800Y-109595800D01*
G37*
G36*
X141710800Y-109595800D02*
G01*
X139909200Y-109595800D01*
X139909200Y-108844200D01*
X141710800Y-108844200D01*
X141710800Y-109595800D01*
G37*
G36*
X150700015Y-108872323D02*
G01*
X150728106Y-108880844D01*
X150753998Y-108894684D01*
X150776692Y-108913308D01*
X150795316Y-108936002D01*
X150809156Y-108961894D01*
X150817677Y-108989985D01*
X150820800Y-109021691D01*
X150820800Y-109418309D01*
X150817677Y-109450015D01*
X150809156Y-109478106D01*
X150795316Y-109503998D01*
X150776692Y-109526692D01*
X150753998Y-109545316D01*
X150728106Y-109559156D01*
X150700015Y-109567677D01*
X150668309Y-109570800D01*
X148921691Y-109570800D01*
X148889985Y-109567677D01*
X148861894Y-109559156D01*
X148836002Y-109545316D01*
X148813308Y-109526692D01*
X148794684Y-109503998D01*
X148780844Y-109478106D01*
X148772323Y-109450015D01*
X148769200Y-109418309D01*
X148769200Y-109021691D01*
X148772323Y-108989985D01*
X148780844Y-108961894D01*
X148794684Y-108936002D01*
X148813308Y-108913308D01*
X148836002Y-108894684D01*
X148861894Y-108880844D01*
X148889985Y-108872323D01*
X148921691Y-108869200D01*
X150668309Y-108869200D01*
X150700015Y-108872323D01*
G37*
G36*
X145750015Y-108872323D02*
G01*
X145778106Y-108880844D01*
X145803998Y-108894684D01*
X145826692Y-108913308D01*
X145845316Y-108936002D01*
X145859156Y-108961894D01*
X145867677Y-108989985D01*
X145870800Y-109021691D01*
X145870800Y-109418309D01*
X145867677Y-109450015D01*
X145859156Y-109478106D01*
X145845316Y-109503998D01*
X145826692Y-109526692D01*
X145803998Y-109545316D01*
X145778106Y-109559156D01*
X145750015Y-109567677D01*
X145718309Y-109570800D01*
X143971691Y-109570800D01*
X143939985Y-109567677D01*
X143911894Y-109559156D01*
X143886002Y-109545316D01*
X143863308Y-109526692D01*
X143844684Y-109503998D01*
X143830844Y-109478106D01*
X143822323Y-109450015D01*
X143819200Y-109418309D01*
X143819200Y-109021691D01*
X143822323Y-108989985D01*
X143830844Y-108961894D01*
X143844684Y-108936002D01*
X143863308Y-108913308D01*
X143886002Y-108894684D01*
X143911894Y-108880844D01*
X143939985Y-108872323D01*
X143971691Y-108869200D01*
X145718309Y-108869200D01*
X145750015Y-108872323D01*
G37*
G36*
X134410800Y-108325800D02*
G01*
X132609200Y-108325800D01*
X132609200Y-107574200D01*
X134410800Y-107574200D01*
X134410800Y-108325800D01*
G37*
G36*
X141710800Y-108325800D02*
G01*
X139909200Y-108325800D01*
X139909200Y-107574200D01*
X141710800Y-107574200D01*
X141710800Y-108325800D01*
G37*
G36*
X150700015Y-107602323D02*
G01*
X150728106Y-107610844D01*
X150753998Y-107624684D01*
X150776692Y-107643308D01*
X150795316Y-107666002D01*
X150809156Y-107691894D01*
X150817677Y-107719985D01*
X150820800Y-107751691D01*
X150820800Y-108148309D01*
X150817677Y-108180015D01*
X150809156Y-108208106D01*
X150795316Y-108233998D01*
X150776692Y-108256692D01*
X150753998Y-108275316D01*
X150728106Y-108289156D01*
X150700015Y-108297677D01*
X150668309Y-108300800D01*
X148921691Y-108300800D01*
X148889985Y-108297677D01*
X148861894Y-108289156D01*
X148836002Y-108275316D01*
X148813308Y-108256692D01*
X148794684Y-108233998D01*
X148780844Y-108208106D01*
X148772323Y-108180015D01*
X148769200Y-108148309D01*
X148769200Y-107751691D01*
X148772323Y-107719985D01*
X148780844Y-107691894D01*
X148794684Y-107666002D01*
X148813308Y-107643308D01*
X148836002Y-107624684D01*
X148861894Y-107610844D01*
X148889985Y-107602323D01*
X148921691Y-107599200D01*
X150668309Y-107599200D01*
X150700015Y-107602323D01*
G37*
G36*
X145750015Y-107602323D02*
G01*
X145778106Y-107610844D01*
X145803998Y-107624684D01*
X145826692Y-107643308D01*
X145845316Y-107666002D01*
X145859156Y-107691894D01*
X145867677Y-107719985D01*
X145870800Y-107751691D01*
X145870800Y-108148309D01*
X145867677Y-108180015D01*
X145859156Y-108208106D01*
X145845316Y-108233998D01*
X145826692Y-108256692D01*
X145803998Y-108275316D01*
X145778106Y-108289156D01*
X145750015Y-108297677D01*
X145718309Y-108300800D01*
X143971691Y-108300800D01*
X143939985Y-108297677D01*
X143911894Y-108289156D01*
X143886002Y-108275316D01*
X143863308Y-108256692D01*
X143844684Y-108233998D01*
X143830844Y-108208106D01*
X143822323Y-108180015D01*
X143819200Y-108148309D01*
X143819200Y-107751691D01*
X143822323Y-107719985D01*
X143830844Y-107691894D01*
X143844684Y-107666002D01*
X143863308Y-107643308D01*
X143886002Y-107624684D01*
X143911894Y-107610844D01*
X143939985Y-107602323D01*
X143971691Y-107599200D01*
X145718309Y-107599200D01*
X145750015Y-107602323D01*
G37*
G36*
X156512857Y-106696117D02*
G01*
X156558465Y-106709952D01*
X156600504Y-106732422D01*
X156637344Y-106762656D01*
X156667578Y-106799496D01*
X156690048Y-106841535D01*
X156703883Y-106887143D01*
X156708800Y-106937065D01*
X156708800Y-107946935D01*
X156703883Y-107996857D01*
X156690048Y-108042465D01*
X156667578Y-108084504D01*
X156637344Y-108121344D01*
X156600504Y-108151578D01*
X156558465Y-108174048D01*
X156512857Y-108187883D01*
X156462935Y-108192800D01*
X155703065Y-108192800D01*
X155653143Y-108187883D01*
X155607535Y-108174048D01*
X155565496Y-108151578D01*
X155528656Y-108121344D01*
X155498422Y-108084504D01*
X155475952Y-108042465D01*
X155462117Y-107996857D01*
X155457200Y-107946935D01*
X155457200Y-106937065D01*
X155462117Y-106887143D01*
X155475952Y-106841535D01*
X155498422Y-106799496D01*
X155528656Y-106762656D01*
X155565496Y-106732422D01*
X155607535Y-106709952D01*
X155653143Y-106696117D01*
X155703065Y-106691200D01*
X156462935Y-106691200D01*
X156512857Y-106696117D01*
G37*
G36*
X158562857Y-106696117D02*
G01*
X158608465Y-106709952D01*
X158650504Y-106732422D01*
X158687344Y-106762656D01*
X158717578Y-106799496D01*
X158740048Y-106841535D01*
X158753883Y-106887143D01*
X158758800Y-106937065D01*
X158758800Y-107946935D01*
X158753883Y-107996857D01*
X158740048Y-108042465D01*
X158717578Y-108084504D01*
X158687344Y-108121344D01*
X158650504Y-108151578D01*
X158608465Y-108174048D01*
X158562857Y-108187883D01*
X158512935Y-108192800D01*
X157753065Y-108192800D01*
X157703143Y-108187883D01*
X157657535Y-108174048D01*
X157615496Y-108151578D01*
X157578656Y-108121344D01*
X157548422Y-108084504D01*
X157525952Y-108042465D01*
X157512117Y-107996857D01*
X157507200Y-107946935D01*
X157507200Y-106937065D01*
X157512117Y-106887143D01*
X157525952Y-106841535D01*
X157548422Y-106799496D01*
X157578656Y-106762656D01*
X157615496Y-106732422D01*
X157657535Y-106709952D01*
X157703143Y-106696117D01*
X157753065Y-106691200D01*
X158512935Y-106691200D01*
X158562857Y-106696117D01*
G37*
G36*
X129554800Y-108090800D02*
G01*
X128653200Y-108090800D01*
X128653200Y-106489200D01*
X129554800Y-106489200D01*
X129554800Y-108090800D01*
G37*
G36*
X125854800Y-108090800D02*
G01*
X124953200Y-108090800D01*
X124953200Y-106489200D01*
X125854800Y-106489200D01*
X125854800Y-108090800D01*
G37*
G36*
X153716857Y-105823117D02*
G01*
X153762465Y-105836952D01*
X153804504Y-105859422D01*
X153841344Y-105889656D01*
X153871578Y-105926496D01*
X153894048Y-105968535D01*
X153907883Y-106014143D01*
X153912800Y-106064065D01*
X153912800Y-106823935D01*
X153907883Y-106873857D01*
X153894048Y-106919465D01*
X153871578Y-106961504D01*
X153841344Y-106998344D01*
X153804504Y-107028578D01*
X153762465Y-107051048D01*
X153716857Y-107064883D01*
X153666935Y-107069800D01*
X152657065Y-107069800D01*
X152607143Y-107064883D01*
X152561535Y-107051048D01*
X152519496Y-107028578D01*
X152482656Y-106998344D01*
X152452422Y-106961504D01*
X152429952Y-106919465D01*
X152416117Y-106873857D01*
X152411200Y-106823935D01*
X152411200Y-106064065D01*
X152416117Y-106014143D01*
X152429952Y-105968535D01*
X152452422Y-105926496D01*
X152482656Y-105889656D01*
X152519496Y-105859422D01*
X152561535Y-105836952D01*
X152607143Y-105823117D01*
X152657065Y-105818200D01*
X153666935Y-105818200D01*
X153716857Y-105823117D01*
G37*
G36*
X141710800Y-107055800D02*
G01*
X139909200Y-107055800D01*
X139909200Y-106304200D01*
X141710800Y-106304200D01*
X141710800Y-107055800D01*
G37*
G36*
X134410800Y-107055800D02*
G01*
X132609200Y-107055800D01*
X132609200Y-106304200D01*
X134410800Y-106304200D01*
X134410800Y-107055800D01*
G37*
G36*
X150700015Y-106332323D02*
G01*
X150728106Y-106340844D01*
X150753998Y-106354684D01*
X150776692Y-106373308D01*
X150795316Y-106396002D01*
X150809156Y-106421894D01*
X150817677Y-106449985D01*
X150820800Y-106481691D01*
X150820800Y-106878309D01*
X150817677Y-106910015D01*
X150809156Y-106938106D01*
X150795316Y-106963998D01*
X150776692Y-106986692D01*
X150753998Y-107005316D01*
X150728106Y-107019156D01*
X150700015Y-107027677D01*
X150668309Y-107030800D01*
X148921691Y-107030800D01*
X148889985Y-107027677D01*
X148861894Y-107019156D01*
X148836002Y-107005316D01*
X148813308Y-106986692D01*
X148794684Y-106963998D01*
X148780844Y-106938106D01*
X148772323Y-106910015D01*
X148769200Y-106878309D01*
X148769200Y-106481691D01*
X148772323Y-106449985D01*
X148780844Y-106421894D01*
X148794684Y-106396002D01*
X148813308Y-106373308D01*
X148836002Y-106354684D01*
X148861894Y-106340844D01*
X148889985Y-106332323D01*
X148921691Y-106329200D01*
X150668309Y-106329200D01*
X150700015Y-106332323D01*
G37*
G36*
X145750015Y-106332323D02*
G01*
X145778106Y-106340844D01*
X145803998Y-106354684D01*
X145826692Y-106373308D01*
X145845316Y-106396002D01*
X145859156Y-106421894D01*
X145867677Y-106449985D01*
X145870800Y-106481691D01*
X145870800Y-106878309D01*
X145867677Y-106910015D01*
X145859156Y-106938106D01*
X145845316Y-106963998D01*
X145826692Y-106986692D01*
X145803998Y-107005316D01*
X145778106Y-107019156D01*
X145750015Y-107027677D01*
X145718309Y-107030800D01*
X143971691Y-107030800D01*
X143939985Y-107027677D01*
X143911894Y-107019156D01*
X143886002Y-107005316D01*
X143863308Y-106986692D01*
X143844684Y-106963998D01*
X143830844Y-106938106D01*
X143822323Y-106910015D01*
X143819200Y-106878309D01*
X143819200Y-106481691D01*
X143822323Y-106449985D01*
X143830844Y-106421894D01*
X143844684Y-106396002D01*
X143863308Y-106373308D01*
X143886002Y-106354684D01*
X143911894Y-106340844D01*
X143939985Y-106332323D01*
X143971691Y-106329200D01*
X145718309Y-106329200D01*
X145750015Y-106332323D01*
G37*
G36*
X145750015Y-105062323D02*
G01*
X145778106Y-105070844D01*
X145803998Y-105084684D01*
X145826692Y-105103308D01*
X145845316Y-105126002D01*
X145859156Y-105151894D01*
X145867677Y-105179985D01*
X145870800Y-105211691D01*
X145870800Y-105608309D01*
X145867677Y-105640015D01*
X145859156Y-105668106D01*
X145845316Y-105693998D01*
X145826692Y-105716692D01*
X145803998Y-105735316D01*
X145778106Y-105749156D01*
X145750015Y-105757677D01*
X145718309Y-105760800D01*
X143971691Y-105760800D01*
X143939985Y-105757677D01*
X143911894Y-105749156D01*
X143886002Y-105735316D01*
X143863308Y-105716692D01*
X143844684Y-105693998D01*
X143830844Y-105668106D01*
X143822323Y-105640015D01*
X143819200Y-105608309D01*
X143819200Y-105211691D01*
X143822323Y-105179985D01*
X143830844Y-105151894D01*
X143844684Y-105126002D01*
X143863308Y-105103308D01*
X143886002Y-105084684D01*
X143911894Y-105070844D01*
X143939985Y-105062323D01*
X143971691Y-105059200D01*
X145718309Y-105059200D01*
X145750015Y-105062323D01*
G37*
G36*
X150700015Y-105062323D02*
G01*
X150728106Y-105070844D01*
X150753998Y-105084684D01*
X150776692Y-105103308D01*
X150795316Y-105126002D01*
X150809156Y-105151894D01*
X150817677Y-105179985D01*
X150820800Y-105211691D01*
X150820800Y-105608309D01*
X150817677Y-105640015D01*
X150809156Y-105668106D01*
X150795316Y-105693998D01*
X150776692Y-105716692D01*
X150753998Y-105735316D01*
X150728106Y-105749156D01*
X150700015Y-105757677D01*
X150668309Y-105760800D01*
X148921691Y-105760800D01*
X148889985Y-105757677D01*
X148861894Y-105749156D01*
X148836002Y-105735316D01*
X148813308Y-105716692D01*
X148794684Y-105693998D01*
X148780844Y-105668106D01*
X148772323Y-105640015D01*
X148769200Y-105608309D01*
X148769200Y-105211691D01*
X148772323Y-105179985D01*
X148780844Y-105151894D01*
X148794684Y-105126002D01*
X148813308Y-105103308D01*
X148836002Y-105084684D01*
X148861894Y-105070844D01*
X148889985Y-105062323D01*
X148921691Y-105059200D01*
X150668309Y-105059200D01*
X150700015Y-105062323D01*
G37*
G36*
X156764857Y-104154117D02*
G01*
X156810465Y-104167952D01*
X156852504Y-104190422D01*
X156889344Y-104220656D01*
X156919578Y-104257496D01*
X156942048Y-104299535D01*
X156955883Y-104345143D01*
X156960800Y-104395065D01*
X156960800Y-105154935D01*
X156955883Y-105204857D01*
X156942048Y-105250465D01*
X156919578Y-105292504D01*
X156889344Y-105329344D01*
X156852504Y-105359578D01*
X156810465Y-105382048D01*
X156764857Y-105395883D01*
X156714935Y-105400800D01*
X155705065Y-105400800D01*
X155655143Y-105395883D01*
X155609535Y-105382048D01*
X155567496Y-105359578D01*
X155530656Y-105329344D01*
X155500422Y-105292504D01*
X155477952Y-105250465D01*
X155464117Y-105204857D01*
X155459200Y-105154935D01*
X155459200Y-104395065D01*
X155464117Y-104345143D01*
X155477952Y-104299535D01*
X155500422Y-104257496D01*
X155530656Y-104220656D01*
X155567496Y-104190422D01*
X155609535Y-104167952D01*
X155655143Y-104154117D01*
X155705065Y-104149200D01*
X156714935Y-104149200D01*
X156764857Y-104154117D01*
G37*
G36*
X153716857Y-103773117D02*
G01*
X153762465Y-103786952D01*
X153804504Y-103809422D01*
X153841344Y-103839656D01*
X153871578Y-103876496D01*
X153894048Y-103918535D01*
X153907883Y-103964143D01*
X153912800Y-104014065D01*
X153912800Y-104773935D01*
X153907883Y-104823857D01*
X153894048Y-104869465D01*
X153871578Y-104911504D01*
X153841344Y-104948344D01*
X153804504Y-104978578D01*
X153762465Y-105001048D01*
X153716857Y-105014883D01*
X153666935Y-105019800D01*
X152657065Y-105019800D01*
X152607143Y-105014883D01*
X152561535Y-105001048D01*
X152519496Y-104978578D01*
X152482656Y-104948344D01*
X152452422Y-104911504D01*
X152429952Y-104869465D01*
X152416117Y-104823857D01*
X152411200Y-104773935D01*
X152411200Y-104014065D01*
X152416117Y-103964143D01*
X152429952Y-103918535D01*
X152452422Y-103876496D01*
X152482656Y-103839656D01*
X152519496Y-103809422D01*
X152561535Y-103786952D01*
X152607143Y-103773117D01*
X152657065Y-103768200D01*
X153666935Y-103768200D01*
X153716857Y-103773117D01*
G37*
G36*
X135301857Y-103274117D02*
G01*
X135347465Y-103287952D01*
X135389504Y-103310422D01*
X135426344Y-103340656D01*
X135456578Y-103377496D01*
X135479048Y-103419535D01*
X135492883Y-103465143D01*
X135497800Y-103515065D01*
X135497800Y-104274935D01*
X135492883Y-104324857D01*
X135479048Y-104370465D01*
X135456578Y-104412504D01*
X135426344Y-104449344D01*
X135389504Y-104479578D01*
X135347465Y-104502048D01*
X135301857Y-104515883D01*
X135251935Y-104520800D01*
X134242065Y-104520800D01*
X134192143Y-104515883D01*
X134146535Y-104502048D01*
X134104496Y-104479578D01*
X134067656Y-104449344D01*
X134037422Y-104412504D01*
X134014952Y-104370465D01*
X134001117Y-104324857D01*
X133996200Y-104274935D01*
X133996200Y-103515065D01*
X134001117Y-103465143D01*
X134014952Y-103419535D01*
X134037422Y-103377496D01*
X134067656Y-103340656D01*
X134104496Y-103310422D01*
X134146535Y-103287952D01*
X134192143Y-103274117D01*
X134242065Y-103269200D01*
X135251935Y-103269200D01*
X135301857Y-103274117D01*
G37*
G36*
X132126857Y-103274117D02*
G01*
X132172465Y-103287952D01*
X132214504Y-103310422D01*
X132251344Y-103340656D01*
X132281578Y-103377496D01*
X132304048Y-103419535D01*
X132317883Y-103465143D01*
X132322800Y-103515065D01*
X132322800Y-104274935D01*
X132317883Y-104324857D01*
X132304048Y-104370465D01*
X132281578Y-104412504D01*
X132251344Y-104449344D01*
X132214504Y-104479578D01*
X132172465Y-104502048D01*
X132126857Y-104515883D01*
X132076935Y-104520800D01*
X131067065Y-104520800D01*
X131017143Y-104515883D01*
X130971535Y-104502048D01*
X130929496Y-104479578D01*
X130892656Y-104449344D01*
X130862422Y-104412504D01*
X130839952Y-104370465D01*
X130826117Y-104324857D01*
X130821200Y-104274935D01*
X130821200Y-103515065D01*
X130826117Y-103465143D01*
X130839952Y-103419535D01*
X130862422Y-103377496D01*
X130892656Y-103340656D01*
X130929496Y-103310422D01*
X130971535Y-103287952D01*
X131017143Y-103274117D01*
X131067065Y-103269200D01*
X132076935Y-103269200D01*
X132126857Y-103274117D01*
G37*
G36*
X138476857Y-103274117D02*
G01*
X138522465Y-103287952D01*
X138564504Y-103310422D01*
X138601344Y-103340656D01*
X138631578Y-103377496D01*
X138654048Y-103419535D01*
X138667883Y-103465143D01*
X138672800Y-103515065D01*
X138672800Y-104274935D01*
X138667883Y-104324857D01*
X138654048Y-104370465D01*
X138631578Y-104412504D01*
X138601344Y-104449344D01*
X138564504Y-104479578D01*
X138522465Y-104502048D01*
X138476857Y-104515883D01*
X138426935Y-104520800D01*
X137417065Y-104520800D01*
X137367143Y-104515883D01*
X137321535Y-104502048D01*
X137279496Y-104479578D01*
X137242656Y-104449344D01*
X137212422Y-104412504D01*
X137189952Y-104370465D01*
X137176117Y-104324857D01*
X137171200Y-104274935D01*
X137171200Y-103515065D01*
X137176117Y-103465143D01*
X137189952Y-103419535D01*
X137212422Y-103377496D01*
X137242656Y-103340656D01*
X137279496Y-103310422D01*
X137321535Y-103287952D01*
X137367143Y-103274117D01*
X137417065Y-103269200D01*
X138426935Y-103269200D01*
X138476857Y-103274117D01*
G37*
G36*
X141651857Y-103274117D02*
G01*
X141697465Y-103287952D01*
X141739504Y-103310422D01*
X141776344Y-103340656D01*
X141806578Y-103377496D01*
X141829048Y-103419535D01*
X141842883Y-103465143D01*
X141847800Y-103515065D01*
X141847800Y-104274935D01*
X141842883Y-104324857D01*
X141829048Y-104370465D01*
X141806578Y-104412504D01*
X141776344Y-104449344D01*
X141739504Y-104479578D01*
X141697465Y-104502048D01*
X141651857Y-104515883D01*
X141601935Y-104520800D01*
X140592065Y-104520800D01*
X140542143Y-104515883D01*
X140496535Y-104502048D01*
X140454496Y-104479578D01*
X140417656Y-104449344D01*
X140387422Y-104412504D01*
X140364952Y-104370465D01*
X140351117Y-104324857D01*
X140346200Y-104274935D01*
X140346200Y-103515065D01*
X140351117Y-103465143D01*
X140364952Y-103419535D01*
X140387422Y-103377496D01*
X140417656Y-103340656D01*
X140454496Y-103310422D01*
X140496535Y-103287952D01*
X140542143Y-103274117D01*
X140592065Y-103269200D01*
X141601935Y-103269200D01*
X141651857Y-103274117D01*
G37*
G36*
X145750015Y-103792323D02*
G01*
X145778106Y-103800844D01*
X145803998Y-103814684D01*
X145826692Y-103833308D01*
X145845316Y-103856002D01*
X145859156Y-103881894D01*
X145867677Y-103909985D01*
X145870800Y-103941691D01*
X145870800Y-104338309D01*
X145867677Y-104370015D01*
X145859156Y-104398106D01*
X145845316Y-104423998D01*
X145826692Y-104446692D01*
X145803998Y-104465316D01*
X145778106Y-104479156D01*
X145750015Y-104487677D01*
X145718309Y-104490800D01*
X143971691Y-104490800D01*
X143939985Y-104487677D01*
X143911894Y-104479156D01*
X143886002Y-104465316D01*
X143863308Y-104446692D01*
X143844684Y-104423998D01*
X143830844Y-104398106D01*
X143822323Y-104370015D01*
X143819200Y-104338309D01*
X143819200Y-103941691D01*
X143822323Y-103909985D01*
X143830844Y-103881894D01*
X143844684Y-103856002D01*
X143863308Y-103833308D01*
X143886002Y-103814684D01*
X143911894Y-103800844D01*
X143939985Y-103792323D01*
X143971691Y-103789200D01*
X145718309Y-103789200D01*
X145750015Y-103792323D01*
G37*
G36*
X150700015Y-103792323D02*
G01*
X150728106Y-103800844D01*
X150753998Y-103814684D01*
X150776692Y-103833308D01*
X150795316Y-103856002D01*
X150809156Y-103881894D01*
X150817677Y-103909985D01*
X150820800Y-103941691D01*
X150820800Y-104338309D01*
X150817677Y-104370015D01*
X150809156Y-104398106D01*
X150795316Y-104423998D01*
X150776692Y-104446692D01*
X150753998Y-104465316D01*
X150728106Y-104479156D01*
X150700015Y-104487677D01*
X150668309Y-104490800D01*
X148921691Y-104490800D01*
X148889985Y-104487677D01*
X148861894Y-104479156D01*
X148836002Y-104465316D01*
X148813308Y-104446692D01*
X148794684Y-104423998D01*
X148780844Y-104398106D01*
X148772323Y-104370015D01*
X148769200Y-104338309D01*
X148769200Y-103941691D01*
X148772323Y-103909985D01*
X148780844Y-103881894D01*
X148794684Y-103856002D01*
X148813308Y-103833308D01*
X148836002Y-103814684D01*
X148861894Y-103800844D01*
X148889985Y-103792323D01*
X148921691Y-103789200D01*
X150668309Y-103789200D01*
X150700015Y-103792323D01*
G37*
G36*
X156764857Y-102104117D02*
G01*
X156810465Y-102117952D01*
X156852504Y-102140422D01*
X156889344Y-102170656D01*
X156919578Y-102207496D01*
X156942048Y-102249535D01*
X156955883Y-102295143D01*
X156960800Y-102345065D01*
X156960800Y-103104935D01*
X156955883Y-103154857D01*
X156942048Y-103200465D01*
X156919578Y-103242504D01*
X156889344Y-103279344D01*
X156852504Y-103309578D01*
X156810465Y-103332048D01*
X156764857Y-103345883D01*
X156714935Y-103350800D01*
X155705065Y-103350800D01*
X155655143Y-103345883D01*
X155609535Y-103332048D01*
X155567496Y-103309578D01*
X155530656Y-103279344D01*
X155500422Y-103242504D01*
X155477952Y-103200465D01*
X155464117Y-103154857D01*
X155459200Y-103104935D01*
X155459200Y-102345065D01*
X155464117Y-102295143D01*
X155477952Y-102249535D01*
X155500422Y-102207496D01*
X155530656Y-102170656D01*
X155567496Y-102140422D01*
X155609535Y-102117952D01*
X155655143Y-102104117D01*
X155705065Y-102099200D01*
X156714935Y-102099200D01*
X156764857Y-102104117D01*
G37*
G36*
X150700015Y-102522323D02*
G01*
X150728106Y-102530844D01*
X150753998Y-102544684D01*
X150776692Y-102563308D01*
X150795316Y-102586002D01*
X150809156Y-102611894D01*
X150817677Y-102639985D01*
X150820800Y-102671691D01*
X150820800Y-103068309D01*
X150817677Y-103100015D01*
X150809156Y-103128106D01*
X150795316Y-103153998D01*
X150776692Y-103176692D01*
X150753998Y-103195316D01*
X150728106Y-103209156D01*
X150700015Y-103217677D01*
X150668309Y-103220800D01*
X148921691Y-103220800D01*
X148889985Y-103217677D01*
X148861894Y-103209156D01*
X148836002Y-103195316D01*
X148813308Y-103176692D01*
X148794684Y-103153998D01*
X148780844Y-103128106D01*
X148772323Y-103100015D01*
X148769200Y-103068309D01*
X148769200Y-102671691D01*
X148772323Y-102639985D01*
X148780844Y-102611894D01*
X148794684Y-102586002D01*
X148813308Y-102563308D01*
X148836002Y-102544684D01*
X148861894Y-102530844D01*
X148889985Y-102522323D01*
X148921691Y-102519200D01*
X150668309Y-102519200D01*
X150700015Y-102522323D01*
G37*
G36*
X145750015Y-102522323D02*
G01*
X145778106Y-102530844D01*
X145803998Y-102544684D01*
X145826692Y-102563308D01*
X145845316Y-102586002D01*
X145859156Y-102611894D01*
X145867677Y-102639985D01*
X145870800Y-102671691D01*
X145870800Y-103068309D01*
X145867677Y-103100015D01*
X145859156Y-103128106D01*
X145845316Y-103153998D01*
X145826692Y-103176692D01*
X145803998Y-103195316D01*
X145778106Y-103209156D01*
X145750015Y-103217677D01*
X145718309Y-103220800D01*
X143971691Y-103220800D01*
X143939985Y-103217677D01*
X143911894Y-103209156D01*
X143886002Y-103195316D01*
X143863308Y-103176692D01*
X143844684Y-103153998D01*
X143830844Y-103128106D01*
X143822323Y-103100015D01*
X143819200Y-103068309D01*
X143819200Y-102671691D01*
X143822323Y-102639985D01*
X143830844Y-102611894D01*
X143844684Y-102586002D01*
X143863308Y-102563308D01*
X143886002Y-102544684D01*
X143911894Y-102530844D01*
X143939985Y-102522323D01*
X143971691Y-102519200D01*
X145718309Y-102519200D01*
X145750015Y-102522323D01*
G37*
G36*
X153716857Y-101233117D02*
G01*
X153762465Y-101246952D01*
X153804504Y-101269422D01*
X153841344Y-101299656D01*
X153871578Y-101336496D01*
X153894048Y-101378535D01*
X153907883Y-101424143D01*
X153912800Y-101474065D01*
X153912800Y-102233935D01*
X153907883Y-102283857D01*
X153894048Y-102329465D01*
X153871578Y-102371504D01*
X153841344Y-102408344D01*
X153804504Y-102438578D01*
X153762465Y-102461048D01*
X153716857Y-102474883D01*
X153666935Y-102479800D01*
X152657065Y-102479800D01*
X152607143Y-102474883D01*
X152561535Y-102461048D01*
X152519496Y-102438578D01*
X152482656Y-102408344D01*
X152452422Y-102371504D01*
X152429952Y-102329465D01*
X152416117Y-102283857D01*
X152411200Y-102233935D01*
X152411200Y-101474065D01*
X152416117Y-101424143D01*
X152429952Y-101378535D01*
X152452422Y-101336496D01*
X152482656Y-101299656D01*
X152519496Y-101269422D01*
X152561535Y-101246952D01*
X152607143Y-101233117D01*
X152657065Y-101228200D01*
X153666935Y-101228200D01*
X153716857Y-101233117D01*
G37*
G36*
X141652281Y-101224106D02*
G01*
X141697793Y-101237912D01*
X141739740Y-101260334D01*
X141776499Y-101290501D01*
X141806666Y-101327260D01*
X141829088Y-101369207D01*
X141842894Y-101414719D01*
X141847800Y-101464535D01*
X141847800Y-102225465D01*
X141842894Y-102275281D01*
X141829088Y-102320793D01*
X141806666Y-102362740D01*
X141776499Y-102399499D01*
X141739740Y-102429666D01*
X141697793Y-102452088D01*
X141652281Y-102465894D01*
X141602465Y-102470800D01*
X140591535Y-102470800D01*
X140541719Y-102465894D01*
X140496207Y-102452088D01*
X140454260Y-102429666D01*
X140417501Y-102399499D01*
X140387334Y-102362740D01*
X140364912Y-102320793D01*
X140351106Y-102275281D01*
X140346200Y-102225465D01*
X140346200Y-101464535D01*
X140351106Y-101414719D01*
X140364912Y-101369207D01*
X140387334Y-101327260D01*
X140417501Y-101290501D01*
X140454260Y-101260334D01*
X140496207Y-101237912D01*
X140541719Y-101224106D01*
X140591535Y-101219200D01*
X141602465Y-101219200D01*
X141652281Y-101224106D01*
G37*
G36*
X132127281Y-101224106D02*
G01*
X132172793Y-101237912D01*
X132214740Y-101260334D01*
X132251499Y-101290501D01*
X132281666Y-101327260D01*
X132304088Y-101369207D01*
X132317894Y-101414719D01*
X132322800Y-101464535D01*
X132322800Y-102225465D01*
X132317894Y-102275281D01*
X132304088Y-102320793D01*
X132281666Y-102362740D01*
X132251499Y-102399499D01*
X132214740Y-102429666D01*
X132172793Y-102452088D01*
X132127281Y-102465894D01*
X132077465Y-102470800D01*
X131066535Y-102470800D01*
X131016719Y-102465894D01*
X130971207Y-102452088D01*
X130929260Y-102429666D01*
X130892501Y-102399499D01*
X130862334Y-102362740D01*
X130839912Y-102320793D01*
X130826106Y-102275281D01*
X130821200Y-102225465D01*
X130821200Y-101464535D01*
X130826106Y-101414719D01*
X130839912Y-101369207D01*
X130862334Y-101327260D01*
X130892501Y-101290501D01*
X130929260Y-101260334D01*
X130971207Y-101237912D01*
X131016719Y-101224106D01*
X131066535Y-101219200D01*
X132077465Y-101219200D01*
X132127281Y-101224106D01*
G37*
G36*
X135301857Y-101224117D02*
G01*
X135347465Y-101237952D01*
X135389504Y-101260422D01*
X135426344Y-101290656D01*
X135456578Y-101327496D01*
X135479048Y-101369535D01*
X135492883Y-101415143D01*
X135497800Y-101465065D01*
X135497800Y-102224935D01*
X135492883Y-102274857D01*
X135479048Y-102320465D01*
X135456578Y-102362504D01*
X135426344Y-102399344D01*
X135389504Y-102429578D01*
X135347465Y-102452048D01*
X135301857Y-102465883D01*
X135251935Y-102470800D01*
X134242065Y-102470800D01*
X134192143Y-102465883D01*
X134146535Y-102452048D01*
X134104496Y-102429578D01*
X134067656Y-102399344D01*
X134037422Y-102362504D01*
X134014952Y-102320465D01*
X134001117Y-102274857D01*
X133996200Y-102224935D01*
X133996200Y-101465065D01*
X134001117Y-101415143D01*
X134014952Y-101369535D01*
X134037422Y-101327496D01*
X134067656Y-101290656D01*
X134104496Y-101260422D01*
X134146535Y-101237952D01*
X134192143Y-101224117D01*
X134242065Y-101219200D01*
X135251935Y-101219200D01*
X135301857Y-101224117D01*
G37*
G36*
X138476857Y-101224117D02*
G01*
X138522465Y-101237952D01*
X138564504Y-101260422D01*
X138601344Y-101290656D01*
X138631578Y-101327496D01*
X138654048Y-101369535D01*
X138667883Y-101415143D01*
X138672800Y-101465065D01*
X138672800Y-102224935D01*
X138667883Y-102274857D01*
X138654048Y-102320465D01*
X138631578Y-102362504D01*
X138601344Y-102399344D01*
X138564504Y-102429578D01*
X138522465Y-102452048D01*
X138476857Y-102465883D01*
X138426935Y-102470800D01*
X137417065Y-102470800D01*
X137367143Y-102465883D01*
X137321535Y-102452048D01*
X137279496Y-102429578D01*
X137242656Y-102399344D01*
X137212422Y-102362504D01*
X137189952Y-102320465D01*
X137176117Y-102274857D01*
X137171200Y-102224935D01*
X137171200Y-101465065D01*
X137176117Y-101415143D01*
X137189952Y-101369535D01*
X137212422Y-101327496D01*
X137242656Y-101290656D01*
X137279496Y-101260422D01*
X137321535Y-101237952D01*
X137367143Y-101224117D01*
X137417065Y-101219200D01*
X138426935Y-101219200D01*
X138476857Y-101224117D01*
G37*
G36*
X145750015Y-101252323D02*
G01*
X145778106Y-101260844D01*
X145803998Y-101274684D01*
X145826692Y-101293308D01*
X145845316Y-101316002D01*
X145859156Y-101341894D01*
X145867677Y-101369985D01*
X145870800Y-101401691D01*
X145870800Y-101798309D01*
X145867677Y-101830015D01*
X145859156Y-101858106D01*
X145845316Y-101883998D01*
X145826692Y-101906692D01*
X145803998Y-101925316D01*
X145778106Y-101939156D01*
X145750015Y-101947677D01*
X145718309Y-101950800D01*
X143971691Y-101950800D01*
X143939985Y-101947677D01*
X143911894Y-101939156D01*
X143886002Y-101925316D01*
X143863308Y-101906692D01*
X143844684Y-101883998D01*
X143830844Y-101858106D01*
X143822323Y-101830015D01*
X143819200Y-101798309D01*
X143819200Y-101401691D01*
X143822323Y-101369985D01*
X143830844Y-101341894D01*
X143844684Y-101316002D01*
X143863308Y-101293308D01*
X143886002Y-101274684D01*
X143911894Y-101260844D01*
X143939985Y-101252323D01*
X143971691Y-101249200D01*
X145718309Y-101249200D01*
X145750015Y-101252323D01*
G37*
G36*
X150700015Y-101252323D02*
G01*
X150728106Y-101260844D01*
X150753998Y-101274684D01*
X150776692Y-101293308D01*
X150795316Y-101316002D01*
X150809156Y-101341894D01*
X150817677Y-101369985D01*
X150820800Y-101401691D01*
X150820800Y-101798309D01*
X150817677Y-101830015D01*
X150809156Y-101858106D01*
X150795316Y-101883998D01*
X150776692Y-101906692D01*
X150753998Y-101925316D01*
X150728106Y-101939156D01*
X150700015Y-101947677D01*
X150668309Y-101950800D01*
X148921691Y-101950800D01*
X148889985Y-101947677D01*
X148861894Y-101939156D01*
X148836002Y-101925316D01*
X148813308Y-101906692D01*
X148794684Y-101883998D01*
X148780844Y-101858106D01*
X148772323Y-101830015D01*
X148769200Y-101798309D01*
X148769200Y-101401691D01*
X148772323Y-101369985D01*
X148780844Y-101341894D01*
X148794684Y-101316002D01*
X148813308Y-101293308D01*
X148836002Y-101274684D01*
X148861894Y-101260844D01*
X148889985Y-101252323D01*
X148921691Y-101249200D01*
X150668309Y-101249200D01*
X150700015Y-101252323D01*
G37*
G36*
X153716857Y-99183117D02*
G01*
X153762465Y-99196952D01*
X153804504Y-99219422D01*
X153841344Y-99249656D01*
X153871578Y-99286496D01*
X153894048Y-99328535D01*
X153907883Y-99374143D01*
X153912800Y-99424065D01*
X153912800Y-100183935D01*
X153907883Y-100233857D01*
X153894048Y-100279465D01*
X153871578Y-100321504D01*
X153841344Y-100358344D01*
X153804504Y-100388578D01*
X153762465Y-100411048D01*
X153716857Y-100424883D01*
X153666935Y-100429800D01*
X152657065Y-100429800D01*
X152607143Y-100424883D01*
X152561535Y-100411048D01*
X152519496Y-100388578D01*
X152482656Y-100358344D01*
X152452422Y-100321504D01*
X152429952Y-100279465D01*
X152416117Y-100233857D01*
X152411200Y-100183935D01*
X152411200Y-99424065D01*
X152416117Y-99374143D01*
X152429952Y-99328535D01*
X152452422Y-99286496D01*
X152482656Y-99249656D01*
X152519496Y-99219422D01*
X152561535Y-99196952D01*
X152607143Y-99183117D01*
X152657065Y-99178200D01*
X153666935Y-99178200D01*
X153716857Y-99183117D01*
G37*
G36*
X144699857Y-98448117D02*
G01*
X144745465Y-98461952D01*
X144787504Y-98484422D01*
X144824344Y-98514656D01*
X144854578Y-98551496D01*
X144877048Y-98593535D01*
X144890883Y-98639143D01*
X144895800Y-98689065D01*
X144895800Y-99448935D01*
X144890883Y-99498857D01*
X144877048Y-99544465D01*
X144854578Y-99586504D01*
X144824344Y-99623344D01*
X144787504Y-99653578D01*
X144745465Y-99676048D01*
X144699857Y-99689883D01*
X144649935Y-99694800D01*
X143640065Y-99694800D01*
X143590143Y-99689883D01*
X143544535Y-99676048D01*
X143502496Y-99653578D01*
X143465656Y-99623344D01*
X143435422Y-99586504D01*
X143412952Y-99544465D01*
X143399117Y-99498857D01*
X143394200Y-99448935D01*
X143394200Y-98689065D01*
X143399117Y-98639143D01*
X143412952Y-98593535D01*
X143435422Y-98551496D01*
X143465656Y-98514656D01*
X143502496Y-98484422D01*
X143544535Y-98461952D01*
X143590143Y-98448117D01*
X143640065Y-98443200D01*
X144649935Y-98443200D01*
X144699857Y-98448117D01*
G37*
G36*
X141662857Y-97806117D02*
G01*
X141708465Y-97819952D01*
X141750504Y-97842422D01*
X141787344Y-97872656D01*
X141817578Y-97909496D01*
X141840048Y-97951535D01*
X141853883Y-97997143D01*
X141858800Y-98047065D01*
X141858800Y-99056935D01*
X141853883Y-99106857D01*
X141840048Y-99152465D01*
X141817578Y-99194504D01*
X141787344Y-99231344D01*
X141750504Y-99261578D01*
X141708465Y-99284048D01*
X141662857Y-99297883D01*
X141612935Y-99302800D01*
X140853065Y-99302800D01*
X140803143Y-99297883D01*
X140757535Y-99284048D01*
X140715496Y-99261578D01*
X140678656Y-99231344D01*
X140648422Y-99194504D01*
X140625952Y-99152465D01*
X140612117Y-99106857D01*
X140607200Y-99056935D01*
X140607200Y-98047065D01*
X140612117Y-97997143D01*
X140625952Y-97951535D01*
X140648422Y-97909496D01*
X140678656Y-97872656D01*
X140715496Y-97842422D01*
X140757535Y-97819952D01*
X140803143Y-97806117D01*
X140853065Y-97801200D01*
X141612935Y-97801200D01*
X141662857Y-97806117D01*
G37*
G36*
X139612857Y-97806117D02*
G01*
X139658465Y-97819952D01*
X139700504Y-97842422D01*
X139737344Y-97872656D01*
X139767578Y-97909496D01*
X139790048Y-97951535D01*
X139803883Y-97997143D01*
X139808800Y-98047065D01*
X139808800Y-99056935D01*
X139803883Y-99106857D01*
X139790048Y-99152465D01*
X139767578Y-99194504D01*
X139737344Y-99231344D01*
X139700504Y-99261578D01*
X139658465Y-99284048D01*
X139612857Y-99297883D01*
X139562935Y-99302800D01*
X138803065Y-99302800D01*
X138753143Y-99297883D01*
X138707535Y-99284048D01*
X138665496Y-99261578D01*
X138628656Y-99231344D01*
X138598422Y-99194504D01*
X138575952Y-99152465D01*
X138562117Y-99106857D01*
X138557200Y-99056935D01*
X138557200Y-98047065D01*
X138562117Y-97997143D01*
X138575952Y-97951535D01*
X138598422Y-97909496D01*
X138628656Y-97872656D01*
X138665496Y-97842422D01*
X138707535Y-97819952D01*
X138753143Y-97806117D01*
X138803065Y-97801200D01*
X139562935Y-97801200D01*
X139612857Y-97806117D01*
G37*
G36*
X136963857Y-97806117D02*
G01*
X137009465Y-97819952D01*
X137051504Y-97842422D01*
X137088344Y-97872656D01*
X137118578Y-97909496D01*
X137141048Y-97951535D01*
X137154883Y-97997143D01*
X137159800Y-98047065D01*
X137159800Y-99056935D01*
X137154883Y-99106857D01*
X137141048Y-99152465D01*
X137118578Y-99194504D01*
X137088344Y-99231344D01*
X137051504Y-99261578D01*
X137009465Y-99284048D01*
X136963857Y-99297883D01*
X136913935Y-99302800D01*
X136154065Y-99302800D01*
X136104143Y-99297883D01*
X136058535Y-99284048D01*
X136016496Y-99261578D01*
X135979656Y-99231344D01*
X135949422Y-99194504D01*
X135926952Y-99152465D01*
X135913117Y-99106857D01*
X135908200Y-99056935D01*
X135908200Y-98047065D01*
X135913117Y-97997143D01*
X135926952Y-97951535D01*
X135949422Y-97909496D01*
X135979656Y-97872656D01*
X136016496Y-97842422D01*
X136058535Y-97819952D01*
X136104143Y-97806117D01*
X136154065Y-97801200D01*
X136913935Y-97801200D01*
X136963857Y-97806117D01*
G37*
G36*
X134913857Y-97806117D02*
G01*
X134959465Y-97819952D01*
X135001504Y-97842422D01*
X135038344Y-97872656D01*
X135068578Y-97909496D01*
X135091048Y-97951535D01*
X135104883Y-97997143D01*
X135109800Y-98047065D01*
X135109800Y-99056935D01*
X135104883Y-99106857D01*
X135091048Y-99152465D01*
X135068578Y-99194504D01*
X135038344Y-99231344D01*
X135001504Y-99261578D01*
X134959465Y-99284048D01*
X134913857Y-99297883D01*
X134863935Y-99302800D01*
X134104065Y-99302800D01*
X134054143Y-99297883D01*
X134008535Y-99284048D01*
X133966496Y-99261578D01*
X133929656Y-99231344D01*
X133899422Y-99194504D01*
X133876952Y-99152465D01*
X133863117Y-99106857D01*
X133858200Y-99056935D01*
X133858200Y-98047065D01*
X133863117Y-97997143D01*
X133876952Y-97951535D01*
X133899422Y-97909496D01*
X133929656Y-97872656D01*
X133966496Y-97842422D01*
X134008535Y-97819952D01*
X134054143Y-97806117D01*
X134104065Y-97801200D01*
X134863935Y-97801200D01*
X134913857Y-97806117D01*
G37*
G36*
X148747857Y-97552117D02*
G01*
X148793465Y-97565952D01*
X148835504Y-97588422D01*
X148872344Y-97618656D01*
X148902578Y-97655496D01*
X148925048Y-97697535D01*
X148938883Y-97743143D01*
X148943800Y-97793065D01*
X148943800Y-98802935D01*
X148938883Y-98852857D01*
X148925048Y-98898465D01*
X148902578Y-98940504D01*
X148872344Y-98977344D01*
X148835504Y-99007578D01*
X148793465Y-99030048D01*
X148747857Y-99043883D01*
X148697935Y-99048800D01*
X147938065Y-99048800D01*
X147888143Y-99043883D01*
X147842535Y-99030048D01*
X147800496Y-99007578D01*
X147763656Y-98977344D01*
X147733422Y-98940504D01*
X147710952Y-98898465D01*
X147697117Y-98852857D01*
X147692200Y-98802935D01*
X147692200Y-97793065D01*
X147697117Y-97743143D01*
X147710952Y-97697535D01*
X147733422Y-97655496D01*
X147763656Y-97618656D01*
X147800496Y-97588422D01*
X147842535Y-97565952D01*
X147888143Y-97552117D01*
X147938065Y-97547200D01*
X148697935Y-97547200D01*
X148747857Y-97552117D01*
G37*
G36*
X150797857Y-97552117D02*
G01*
X150843465Y-97565952D01*
X150885504Y-97588422D01*
X150922344Y-97618656D01*
X150952578Y-97655496D01*
X150975048Y-97697535D01*
X150988883Y-97743143D01*
X150993800Y-97793065D01*
X150993800Y-98802935D01*
X150988883Y-98852857D01*
X150975048Y-98898465D01*
X150952578Y-98940504D01*
X150922344Y-98977344D01*
X150885504Y-99007578D01*
X150843465Y-99030048D01*
X150797857Y-99043883D01*
X150747935Y-99048800D01*
X149988065Y-99048800D01*
X149938143Y-99043883D01*
X149892535Y-99030048D01*
X149850496Y-99007578D01*
X149813656Y-98977344D01*
X149783422Y-98940504D01*
X149760952Y-98898465D01*
X149747117Y-98852857D01*
X149742200Y-98802935D01*
X149742200Y-97793065D01*
X149747117Y-97743143D01*
X149760952Y-97697535D01*
X149783422Y-97655496D01*
X149813656Y-97618656D01*
X149850496Y-97588422D01*
X149892535Y-97565952D01*
X149938143Y-97552117D01*
X149988065Y-97547200D01*
X150747935Y-97547200D01*
X150797857Y-97552117D01*
G37*
G36*
X144699857Y-96398117D02*
G01*
X144745465Y-96411952D01*
X144787504Y-96434422D01*
X144824344Y-96464656D01*
X144854578Y-96501496D01*
X144877048Y-96543535D01*
X144890883Y-96589143D01*
X144895800Y-96639065D01*
X144895800Y-97398935D01*
X144890883Y-97448857D01*
X144877048Y-97494465D01*
X144854578Y-97536504D01*
X144824344Y-97573344D01*
X144787504Y-97603578D01*
X144745465Y-97626048D01*
X144699857Y-97639883D01*
X144649935Y-97644800D01*
X143640065Y-97644800D01*
X143590143Y-97639883D01*
X143544535Y-97626048D01*
X143502496Y-97603578D01*
X143465656Y-97573344D01*
X143435422Y-97536504D01*
X143412952Y-97494465D01*
X143399117Y-97448857D01*
X143394200Y-97398935D01*
X143394200Y-96639065D01*
X143399117Y-96589143D01*
X143412952Y-96543535D01*
X143435422Y-96501496D01*
X143465656Y-96464656D01*
X143502496Y-96434422D01*
X143544535Y-96411952D01*
X143590143Y-96398117D01*
X143640065Y-96393200D01*
X144649935Y-96393200D01*
X144699857Y-96398117D01*
G37*
G36*
X143071548Y-87428754D02*
G01*
X143590361Y-87643653D01*
X144057281Y-87955640D01*
X144454360Y-88352719D01*
X144766347Y-88819639D01*
X144981246Y-89338452D01*
X145090800Y-89889220D01*
X145090800Y-90450780D01*
X144981246Y-91001548D01*
X144766347Y-91520361D01*
X144454360Y-91987281D01*
X144057281Y-92384360D01*
X143590361Y-92696347D01*
X143071548Y-92911246D01*
X142520780Y-93020800D01*
X141959220Y-93020800D01*
X141408452Y-92911246D01*
X140889639Y-92696347D01*
X140422719Y-92384360D01*
X140025640Y-91987281D01*
X139713653Y-91520361D01*
X139498754Y-91001548D01*
X139389200Y-90450780D01*
X139389200Y-89889220D01*
X139498754Y-89338452D01*
X139713653Y-88819639D01*
X140025640Y-88352719D01*
X140422719Y-87955640D01*
X140889639Y-87643653D01*
X141408452Y-87428754D01*
X141959220Y-87319200D01*
X142520780Y-87319200D01*
X143071548Y-87428754D01*
G37*
M02*
